<svg id="Layer_1" data-name="Layer 1" xmlns="http://www.w3.org/2000/svg" viewBox="0 0 80 65"><defs><style>.cls-1,.cls-2{fill:#009ece;}.cls-2{stroke:#009ece;stroke-miterlimit:10;stroke-width:0.5px;}</style></defs><path class="cls-1" d="M35.91,33.75H43a1.68,1.68,0,0,1,1.71,1.72V60.15A1.68,1.68,0,0,1,43,61.86H35.91a1.67,1.67,0,0,1-1.71-1.71V35.47A1.61,1.61,0,0,1,35.91,33.75Zm1.71,24.56h3.54V37.18H37.62Z"/><path class="cls-1" d="M22,37.3h7.09A1.67,1.67,0,0,1,30.83,39V60.15a1.67,1.67,0,0,1-1.71,1.71H22a1.67,1.67,0,0,1-1.71-1.71v-21A1.7,1.7,0,0,1,22,37.3Zm1.71,21.14h3.54V40.84H23.74Z"/><path class="cls-1" d="M8.15,46.1h7.08a1.67,1.67,0,0,1,1.71,1.71V60.15a1.67,1.67,0,0,1-1.71,1.71H8.15a1.67,1.67,0,0,1-1.71-1.71V47.93A1.85,1.85,0,0,1,8.15,46.1ZM10,58.44h3.54v-8.8H10Z"/><path class="cls-2" d="M63.13,56.58a1.06,1.06,0,0,1-1.05-1.06V53.41a1.06,1.06,0,1,1,2.11,0v2.11A1.06,1.06,0,0,1,63.13,56.58Z"/><path class="cls-2" d="M63.66,54.46H60a1.06,1.06,0,0,1,0-2.11h3.7a1.59,1.59,0,0,0,0-3.17H62.6a3.7,3.7,0,0,1,0-7.39h3.7a1.06,1.06,0,1,1,0,2.11H62.6a1.59,1.59,0,0,0,0,3.17h1.06a3.7,3.7,0,1,1,0,7.39Z"/><path class="cls-2" d="M63.13,43.9a1,1,0,0,1-1.05-1V40.73a1.06,1.06,0,0,1,2.11,0v2.12A1.05,1.05,0,0,1,63.13,43.9Z"/><path class="cls-2" d="M63.13,61.86A13.73,13.73,0,1,1,76.86,48.13,13.75,13.75,0,0,1,63.13,61.86Zm0-25.35A11.62,11.62,0,1,0,74.75,48.13,11.63,11.63,0,0,0,63.13,36.51Z"/><path class="cls-1" d="M67.33,5a1.86,1.86,0,0,0-1.85-1.77L52,3.14h0a1.87,1.87,0,0,0,0,3.74L61.51,7,43.42,25.32l-14-13.92a1.86,1.86,0,0,0-1.32-.55h0a1.84,1.84,0,0,0-1.32.55L3.68,34.75a1.87,1.87,0,0,0,2.65,2.63l21.81-22,14,13.93a2.1,2.1,0,0,0,1.33.55,1.93,1.93,0,0,0,1.32-.56L63.84,9.9l.41,8.1a1.87,1.87,0,0,0,1.87,1.77h.09a1.87,1.87,0,0,0,1.77-2Z"/></svg>