<svg id="Layer_1" data-name="Layer 1" xmlns="http://www.w3.org/2000/svg" viewBox="0 0 80 65"><defs><style>.cls-1{fill:#009ece;stroke:#009ece;stroke-miterlimit:10;stroke-width:1.5px;}</style></defs><path class="cls-1" d="M75,3.24H5A1.18,1.18,0,0,0,3.86,4.41V60.59A1.18,1.18,0,0,0,5,61.76H75a1.18,1.18,0,0,0,1.17-1.17V4.41A1.18,1.18,0,0,0,75,3.24ZM73.8,5.57v12H6.2v-12ZM6.2,59.43V19.91H73.8V59.43Z"/><path class="cls-1" d="M9.05,13H49.79a1.17,1.17,0,1,0,0-2.34H9.05a1.17,1.17,0,0,0,0,2.34Z"/><path class="cls-1" d="M69.67,13h.52a1.18,1.18,0,0,0,1.17-1.17v-.53a1.17,1.17,0,0,0-1.17-1.16h-.52a1.17,1.17,0,0,0-1.17,1.16v.53A1.18,1.18,0,0,0,69.67,13Z"/><path class="cls-1" d="M63,13h.53a1.17,1.17,0,0,0,1.16-1.17v-.53a1.16,1.16,0,0,0-1.16-1.16H63a1.16,1.16,0,0,0-1.16,1.16v.53A1.13,1.13,0,0,0,63,13Z"/><path class="cls-1" d="M55.62,13h.52a1.17,1.17,0,0,0,1.17-1.17v-.53a1.16,1.16,0,0,0-1.17-1.16h-.52a1.17,1.17,0,0,0-1.17,1.16v.53A1.18,1.18,0,0,0,55.62,13Z"/><path class="cls-1" d="M51.13,37h-.81a14.34,14.34,0,0,0,.11-1.46c0-4.78-3.61-8.68-8-8.68a7.85,7.85,0,0,0-6.76,4,10,10,0,0,0-1.87-.23,8,8,0,0,0-8,6.87,8.61,8.61,0,0,0-5.3,8.11,5.48,5.48,0,0,0,5.3,5.65H53.93a5.52,5.52,0,0,0,5.3-5.65C59.18,40.89,55.56,37,51.13,37Zm2.74,12H25.72a3.18,3.18,0,0,1-3-3.32,6.28,6.28,0,0,1,4.37-6.12A1.12,1.12,0,0,0,28,38.44,5.68,5.68,0,0,1,33.71,33a5.91,5.91,0,0,1,2,.35,1.11,1.11,0,0,0,1.45-.65,5.67,5.67,0,0,1,5.13-3.49C45.48,29.18,48,32,48,35.53a7.41,7.41,0,0,1-.35,2.27,1.16,1.16,0,0,0,.18,1.05,1.21,1.21,0,0,0,.93.47h2.33c3.15,0,5.71,2.86,5.71,6.35A3.14,3.14,0,0,1,53.87,49Z"/></svg>