<svg id="Layer_1" data-name="Layer 1" xmlns="http://www.w3.org/2000/svg" viewBox="0 0 84 80"><defs><style>.cls-1{opacity:0.05;}.cls-2{fill:#fff;}</style></defs><g class="cls-1"><path d="M81.76,38.33A12.67,12.67,0,0,1,69.09,51H68.5V30.5h-2l-2,2-10,9-6-11-10,17-8-8-15,11.36a14.25,14.25,0,0,1-.79-28.08A9.89,9.89,0,0,1,28.43,15,23.21,23.21,0,0,1,72,26,12.68,12.68,0,0,1,81.76,38.33Z"/></g><path class="cls-2" d="M68.32,28.38A1.44,1.44,0,0,0,67,27.49h-7.2a1.44,1.44,0,1,0,0,2.88h3.72l-9.08,9.08-4.86-9.73A1.45,1.45,0,0,0,47,29.65L37.89,45.31,30.57,38a1.44,1.44,0,0,0-2,0L17,49.51a1.44,1.44,0,1,0,2,2.07l0,0L29.55,41l7.63,7.62a1.44,1.44,0,0,0,1.2.41,1.42,1.42,0,0,0,1.06-.7l8.73-15,4.57,9.14a1.43,1.43,0,0,0,2.3.37L65.55,32.4v3.73a1.44,1.44,0,1,0,2.88,0v-7.2A1.46,1.46,0,0,0,68.32,28.38Z"/><path class="cls-2" d="M28.11,52H22.36a1.44,1.44,0,0,0-1.44,1.44V73.56A1.43,1.43,0,0,0,22.36,75h5.75a1.43,1.43,0,0,0,1.44-1.44V53.4A1.44,1.44,0,0,0,28.11,52ZM26.67,72.12H23.8V54.84h2.87Z"/><path class="cls-2" d="M39.63,54.84H33.87a1.45,1.45,0,0,0-1.44,1.44V73.56A1.44,1.44,0,0,0,33.87,75h5.76a1.43,1.43,0,0,0,1.44-1.44V56.28A1.44,1.44,0,0,0,39.63,54.84ZM38.19,72.12H35.31V57.72h2.88Z"/><path class="cls-2" d="M51.15,62H45.39A1.45,1.45,0,0,0,44,63.48V73.56A1.44,1.44,0,0,0,45.39,75h5.76a1.43,1.43,0,0,0,1.44-1.44V63.48A1.44,1.44,0,0,0,51.15,62ZM49.71,72.12H46.83v-7.2h2.88Z"/><path class="cls-2" d="M62.67,66.36H56.91a1.45,1.45,0,0,0-1.44,1.44v5.76A1.44,1.44,0,0,0,56.91,75h5.76a1.44,1.44,0,0,0,1.44-1.44V67.8A1.45,1.45,0,0,0,62.67,66.36Zm-1.44,5.76H58.35V69.24h2.88Z"/><path class="cls-2" d="M62.67,52V49.4l2.55.61.66-2.81-3.21-.76V43.32H59.79V46.2h-1a4.53,4.53,0,0,0-3.13,1.24,4.22,4.22,0,0,0-.19,6,1.7,1.7,0,0,0,.19.19,4.48,4.48,0,0,0,3.13,1.24h1v2.87a1.73,1.73,0,0,1-.32,0L55.8,56.8l-.66,2.8,3.67.88a4.6,4.6,0,0,0,1,.11v2.89h2.88V60.57a4.55,4.55,0,0,0,2.74-1.21,4.23,4.23,0,0,0,0-6.16A4.46,4.46,0,0,0,62.67,52Zm-2.88,0h-1a1.62,1.62,0,0,1-1.15-.44,1.34,1.34,0,0,1-.09-1.9l.09-.09a1.68,1.68,0,0,1,1.15-.45h1Zm3.73,5.22-.09.09h0a1.69,1.69,0,0,1-.76.37V54.91a1.71,1.71,0,0,1,.76.38A1.35,1.35,0,0,1,63.52,57.18Z"/></svg>