<svg id="Layer_1" data-name="Layer 1" xmlns="http://www.w3.org/2000/svg" viewBox="0 0 80 65"><defs><style>.cls-1{fill:#009ece;}</style></defs><path class="cls-1" d="M24.41,28.76V63.12H58.78V28.76Zm31.5,2.87v7.78H27.28V31.63Zm0,10.65V49.6H27.28V42.28Zm-28.63,18V52.47H55.91v7.78Z"/><rect class="cls-1" x="29.7" y="33.82" width="12.42" height="2.87"/><rect class="cls-1" x="29.7" y="44.51" width="12.42" height="2.87"/><rect class="cls-1" x="29.7" y="55.2" width="12.42" height="2.87"/><path class="cls-1" d="M19.72,52.58a15.55,15.55,0,0,1-3.18-9.48,16.09,16.09,0,0,1,.09-1.69A15,15,0,0,1,9.38,28.35,14.77,14.77,0,0,1,18,14.62c1.18-7.21,8.59-12.74,17.3-12.74,6.91,0,13.1,3.43,15.91,8.67a16.46,16.46,0,0,1,5.66-1.64c6.35,0,11.52,5.58,11.52,12.44a13,13,0,0,1-2.29,7.43,13.62,13.62,0,0,1,4.53,9.92c0,5.14-3.08,9.83-8.24,12.55l-1.33-2.53c4.2-2.22,6.7-6,6.7-10a10.9,10.9,0,0,0-4.51-8.59L62,29.17l1-1.14a10,10,0,0,0,2.46-6.68c0-5.28-3.88-9.57-8.65-9.57-1.36,0-4.21,1.2-5.69,2l-1.4.72L49.18,13c-2-4.93-7.55-8.24-13.89-8.24-7.6,0-14,4.84-14.56,11l-.09.92-.86.31a11.8,11.8,0,0,0-7.53,11.35,12,12,0,0,0,6.56,11l1,.47-.18,1.07a12.85,12.85,0,0,0,2.38,10Z"/><path class="cls-1" d="M33.11,22.53A2.78,2.78,0,0,1,32,24.86a4.66,4.66,0,0,1-3,.85,6.94,6.94,0,0,1-3.1-.59V23.4a7.74,7.74,0,0,0,1.62.56,6.71,6.71,0,0,0,1.6.21,2.58,2.58,0,0,0,1.6-.41,1.45,1.45,0,0,0,0-2.17,6.93,6.93,0,0,0-1.95-1,5.28,5.28,0,0,1-2.16-1.42,3,3,0,0,1-.63-1.91,2.7,2.7,0,0,1,1-2.2,4.13,4.13,0,0,1,2.66-.8,8,8,0,0,1,3.2.7l-.58,1.49a7.13,7.13,0,0,0-2.66-.62,2.11,2.11,0,0,0-1.35.38,1.29,1.29,0,0,0-.45,1,1.49,1.49,0,0,0,.18.75,1.86,1.86,0,0,0,.6.58,9.76,9.76,0,0,0,1.51.73,8.53,8.53,0,0,1,1.81.95,2.9,2.9,0,0,1,.84,1A3,3,0,0,1,33.11,22.53Z"/><path class="cls-1" d="M40.37,25.56,40,24.38H40a3.39,3.39,0,0,1-1.23,1.05,3.81,3.81,0,0,1-1.59.28A2.68,2.68,0,0,1,35.19,25a2.5,2.5,0,0,1-.7-1.9,2.22,2.22,0,0,1,1-2,5.53,5.53,0,0,1,3-.73l1.46,0V20a1.75,1.75,0,0,0-.38-1.22,1.6,1.6,0,0,0-1.18-.4,4.28,4.28,0,0,0-1.24.19,8.89,8.89,0,0,0-1.15.46l-.58-1.29a6,6,0,0,1,1.51-.54A6.61,6.61,0,0,1,38.4,17a3.61,3.61,0,0,1,2.43.7,2.76,2.76,0,0,1,.83,2.21v5.69ZM37.7,24.34a2.21,2.21,0,0,0,1.57-.55,2,2,0,0,0,.59-1.53v-.73l-1.08,0a3.64,3.64,0,0,0-1.85.43,1.28,1.28,0,0,0-.58,1.15,1.16,1.16,0,0,0,.34.88A1.47,1.47,0,0,0,37.7,24.34Z"/><path class="cls-1" d="M49.45,25.56l-.36-1.18H49a3.39,3.39,0,0,1-1.23,1.05,3.87,3.87,0,0,1-1.59.28,2.7,2.7,0,0,1-2-.67,2.54,2.54,0,0,1-.7-1.9,2.24,2.24,0,0,1,1-2,5.55,5.55,0,0,1,3-.73l1.46,0V20a1.75,1.75,0,0,0-.38-1.22,1.56,1.56,0,0,0-1.17-.4,4.35,4.35,0,0,0-1.25.19A8.76,8.76,0,0,0,45,19l-.58-1.29a6.08,6.08,0,0,1,1.5-.54A6.69,6.69,0,0,1,47.48,17a3.65,3.65,0,0,1,2.43.7,2.75,2.75,0,0,1,.82,2.21v5.69Zm-2.68-1.22a2.2,2.2,0,0,0,1.57-.55,2,2,0,0,0,.59-1.53v-.73l-1.08,0A3.64,3.64,0,0,0,46,22a1.28,1.28,0,0,0-.57,1.15,1.15,1.15,0,0,0,.33.88A1.49,1.49,0,0,0,46.77,24.34Z"/><path class="cls-1" d="M58.91,23.15a2.21,2.21,0,0,1-.9,1.9,4.31,4.31,0,0,1-2.58.66,6.09,6.09,0,0,1-2.71-.51V23.65a6.6,6.6,0,0,0,2.77.69c1.1,0,1.66-.34,1.66-1A.81.81,0,0,0,57,22.8a2.11,2.11,0,0,0-.6-.44,10.19,10.19,0,0,0-1.17-.52,5.37,5.37,0,0,1-2-1.13,2.08,2.08,0,0,1-.52-1.47,1.93,1.93,0,0,1,.87-1.68A4.17,4.17,0,0,1,56,17a6.73,6.73,0,0,1,2.82.6l-.58,1.35a6.39,6.39,0,0,0-2.3-.56c-.94,0-1.42.27-1.42.81a.83.83,0,0,0,.37.67,8.41,8.41,0,0,0,1.62.76,7.15,7.15,0,0,1,1.52.74,2.21,2.21,0,0,1,.7.77A2.32,2.32,0,0,1,58.91,23.15Z"/></svg>