<?xml version="1.0" encoding="utf-8"?>
<!-- Generator: Adobe Illustrator 23.1.0, SVG Export Plug-In . SVG Version: 6.00 Build 0)  -->
<svg version="1.1" id="Layer_1" xmlns="http://www.w3.org/2000/svg" xmlns:xlink="http://www.w3.org/1999/xlink" x="0px" y="0px"
	 viewBox="0 0 201 222" style="enable-background:new 0 0 201 222;" xml:space="preserve">
<style type="text/css">
	.st0{opacity:0.5;}
	.st1{fill:none;stroke:#0071BC;stroke-width:0.5663;stroke-miterlimit:10;}
	.st2{opacity:0.15;fill:#00ACE0;enable-background:new    ;}
	.st3{fill:#00ACE0;}
	.st4{fill:#9AE3EF;}
	.st5{fill:#026A8F;}
	.st6{fill:#FFFFFF;}
	.st7{opacity:0.51;}
	.st8{opacity:0.51;fill:#4A47B5;enable-background:new    ;}
	.st9{fill:#453C9E;}
	.st10{opacity:0.51;fill:#453C9E;enable-background:new    ;}
	.st11{fill:#42E8E0;}
	.st12{opacity:0.1;fill:#42E8E0;enable-background:new    ;}
	.st13{opacity:0.4;fill:#42E8E0;enable-background:new    ;}
	.st14{display:none;}
	.st15{display:inline;opacity:0.2;}
	.st16{fill:none;stroke:#000000;stroke-width:0.7407;stroke-miterlimit:10;}
	.st17{display:inline;}
	.st18{display:none;fill:#00C6F4;}
	.st19{fill:#00C6F4;}
	.st20{display:none;opacity:0.5;fill:#453C9E;enable-background:new    ;}
	.st21{opacity:0.1;}
	.st22{opacity:0.51;fill:#453C9E;stroke:#000000;stroke-width:4.1358;stroke-miterlimit:10;enable-background:new    ;}
	.st23{fill:#9AE3EF;stroke:#000000;stroke-width:4.1358;stroke-miterlimit:10;}
	.st24{fill:#42E8E0;stroke:#000000;stroke-width:4.1358;stroke-miterlimit:10;}
	.st25{fill:#57ABFF;stroke:#000000;stroke-width:4.1358;stroke-miterlimit:10;}
	.st26{fill:#344DB7;stroke:#000000;stroke-width:4.1358;stroke-miterlimit:10;}
	.st27{fill:#316596;stroke:#000000;stroke-width:4.1358;stroke-miterlimit:10;}
	.st28{fill:#57ABFF;}
	.st29{fill:#344DB7;}
	.st30{fill:#316596;}
	.st31{display:inline;opacity:0.5;}
	.st32{fill:none;stroke:#0071BC;stroke-width:0.8845;stroke-miterlimit:10;}
	.st33{fill:url(#SVGID_1_);}
	.st34{fill:#1EDAF9;}
	.st35{fill:#1E81CE;}
	.st36{fill:#3D9AE2;}
	.st37{fill:#EE8700;}
	.st38{fill:#FF9811;}
	.st39{fill:#FFB655;}
	.st40{fill:url(#SVGID_2_);}
	.st41{fill:url(#SVGID_3_);}
	.st42{fill:url(#SVGID_4_);}
	.st43{fill:url(#SVGID_5_);}
	.st44{fill:url(#SVGID_6_);}
	.st45{fill:#5DC1D1;}
	.st46{fill:url(#SVGID_7_);}
	.st47{fill:#171E77;}
	.st48{fill:#24126A;}
	.st49{fill:url(#SVGID_8_);}
	.st50{fill:url(#SVGID_9_);}
	.st51{fill:#171277;}
	.st52{fill:url(#SVGID_10_);}
	.st53{fill:url(#SVGID_11_);}
	.st54{fill:#54E8EF;}
	.st55{fill:url(#SVGID_12_);}
	.st56{fill:url(#SVGID_13_);}
	.st57{fill:url(#SVGID_14_);}
	.st58{opacity:0.11;}
	.st59{clip-path:url(#SVGID_16_);}
	.st60{fill:url(#SVGID_17_);}
	.st61{fill:url(#SVGID_18_);}
	.st62{fill:#9198DB;}
	.st63{fill:#ADB1F2;}
	.st64{fill:#3F82C4;}
	.st65{fill:#1E1C77;}
	.st66{fill:#7ACFE2;}
</style>
<g>
	<g class="st0">
		<polygon class="st1" points="109.5,114.5 193.1,169.8 100.6,212.8 17.1,157.6 		"/>
		<line class="st1" x1="32.5" y1="150.4" x2="116" y2="205.6"/>
		<line class="st1" x1="47.9" y1="143.2" x2="131.4" y2="198.5"/>
		<line class="st1" x1="63.3" y1="136.1" x2="146.8" y2="191.3"/>
		<line class="st1" x1="78.7" y1="128.9" x2="162.3" y2="184.1"/>
		<line class="st1" x1="94.1" y1="121.7" x2="177.7" y2="176.9"/>
		<line class="st1" x1="179.1" y1="160.6" x2="86.7" y2="203.6"/>
		<line class="st1" x1="165.2" y1="151.3" x2="72.8" y2="194.4"/>
		<line class="st1" x1="151.3" y1="142.1" x2="58.8" y2="185.2"/>
		<line class="st1" x1="137.3" y1="132.9" x2="44.9" y2="176"/>
		<line class="st1" x1="123.4" y1="123.7" x2="31" y2="166.8"/>
	</g>
	<path class="st2" d="M81.6,49.8c0,0-7.9,0-10.6-5.2c0,0-4.4-9.5,5.3-12.1c0,0,7.9-1.7,9.7,3.5c0,0-4.4-8.7,4.4-13
		s13.2,0.9,13.2,0.9s4.4-13,17.6-13c0,0,21.1,0,18.5,22.5c0,0,10.6-4.3,13.2,5.2c0,0,3.5,8.7-8.8,11.3H81.6V49.8z"/>
	<g>
		<g>
			<g>
				<path class="st3" d="M145.6,31.6c-1.2,0-2.4,0.2-3.5,0.5c0.1-0.9,0.2-1.7,0.2-2.6C142,16.8,131.6,6.7,118.9,7
					c-9.2,0.2-17.5,5.8-20.9,14.4c-6.6-4.1-15.3-2.1-19.4,4.6c-1.3,2.2-2.1,4.6-2.1,7.2c-1.8-1-3.8-1.6-5.9-1.6
					c-6.3,0-11.5,5.1-11.5,11.5s5.1,11.5,11.5,11.5c0.9,0,1.6-0.7,1.6-1.6s-0.7-1.6-1.6-1.6c-4.5-0.1-8.1-3.8-8.1-8.3
					s3.8-8.1,8.3-8.1c2.8,0,5.3,1.5,6.8,3.8c0.5,0.8,1.5,1,2.3,0.5c0.7-0.4,0.9-1.3,0.6-2c-0.5-1.2-0.8-2.6-0.8-3.9
					c0.1-5.9,4.9-10.7,10.9-10.6c2.6,0,5.2,1,7.2,2.7c0.7,0.6,1.7,0.5,2.3-0.2c0.2-0.2,0.3-0.4,0.3-0.6c3-10.4,13.9-16.5,24.3-13.5
					c8.3,2.4,14,9.9,14.2,18.5c0,1.7-0.2,3.4-0.7,5.1c-0.2,0.9,0.3,1.8,1.1,2c0.5,0.1,1,0,1.4-0.2c1.4-1,3.1-1.5,4.8-1.5
					c4.5,0,8.2,3.7,8.2,8.2s-3.7,8.2-8.2,8.2c-0.9,0-1.6,0.7-1.6,1.6s0.7,1.6,1.6,1.6c6.3,0,11.5-5.1,11.5-11.5
					C157.1,36.7,151.9,31.6,145.6,31.6z"/>
			</g>
		</g>
		<g>
			<g>
				<path class="st3" d="M104,33.7l-4.9-4.9c-0.6-0.6-1.7-0.6-2.3,0l-4.9,4.9c-0.6,0.7-0.6,1.7,0,2.3c0.6,0.6,1.6,0.6,2.3,0l2.1-2.1
					v10.8c0,0.9,0.7,1.6,1.6,1.6c0.9,0,1.6-0.7,1.6-1.6V33.9l2.1,2.1c0.7,0.6,1.7,0.6,2.3,0C104.7,35.3,104.7,34.3,104,33.7z"/>
			</g>
		</g>
		<g>
			<g>
				<path class="st3" d="M120.3,41.9l-4.9,4.9c-0.6,0.6-1.7,0.6-2.3,0l-4.9-4.9c-0.6-0.6-0.6-1.6,0-2.3c0.6-0.7,1.7-0.7,2.3,0
					l2.1,2.1V30.9c0-0.9,0.7-1.6,1.6-1.6s1.6,0.7,1.6,1.6v10.8l2.1-2.1c0.6-0.6,1.6-0.6,2.3,0C120.9,40.2,120.9,41.3,120.3,41.9z"/>
			</g>
		</g>
	</g>
	<g>
		<g>
			<polygon class="st4" points="108.5,177.7 51.6,144.9 108.5,112 165.5,144.9 			"/>
			<polygon class="st5" points="108.5,168.8 67.1,144.9 108.5,120.9 149.9,144.9 			"/>
			<polygon class="st6" points="108.5,122.6 148.5,145.7 149.9,144.9 108.5,120.9 67.1,144.9 68.5,145.7 			"/>
			<polygon class="st4" points="165.5,144.9 165.5,163.5 108.5,196.4 108.5,177.7 			"/>
			<polygon class="st5" points="51.6,144.9 51.6,163.5 108.5,196.4 108.5,177.7 			"/>
			<g class="st7">
				<polygon class="st8" points="55.4,153.2 55.4,159.1 104.7,187.5 104.7,181.7 				"/>
			</g>
			<polygon class="st6" points="108.5,176.7 52.5,144.3 51.6,144.9 108.5,177.7 165.5,144.9 164.5,144.3 			"/>
			<polygon class="st9" points="156.9,157.9 156.9,161.2 117.1,184.3 117.1,180.9 			"/>
			<polygon class="st10" points="51.6,144.9 51.6,163.5 108.5,196.4 108.5,177.7 			"/>
			<polygon class="st11" points="91.9,176.7 81.6,170.8 81.6,172 91.9,178 			"/>
			<polygon class="st11" points="80.1,169.9 77.3,168.3 77.3,169.6 80.1,171.2 			"/>
			<polygon class="st11" points="67,162.4 61.3,159.1 61.3,160.3 67,163.6 			"/>
			<polygon class="st11" points="72.2,165.4 68.1,163 68.1,164.2 72.2,166.6 			"/>
			<polygon class="st11" points="76.1,167.6 73.3,166 73.3,167.3 76.1,168.9 			"/>
			<g>
				<g>
					<polygon class="st11" points="108.6,129.2 106.8,128.1 108.6,127.1 110.4,128.1 					"/>
					<polygon class="st12" points="112.2,131.2 110.4,130.2 112.2,129.2 114,130.2 					"/>
					<polygon class="st13" points="115.8,133.3 114,132.3 115.8,131.2 117.6,132.3 					"/>
					<polygon class="st11" points="119.4,135.4 117.6,134.4 119.4,133.3 121.2,134.4 					"/>
					<polygon class="st13" points="123,137.5 121.2,136.5 123,135.4 124.8,136.5 					"/>
					<polygon class="st11" points="126.7,139.6 124.8,138.6 126.7,137.5 128.5,138.6 					"/>
					<polygon class="st11" points="130.3,141.7 128.5,140.6 130.3,139.6 132.1,140.6 					"/>
					<polygon class="st11" points="133.9,143.8 132.1,142.7 133.9,141.7 135.7,142.7 					"/>
					<polygon class="st12" points="137.5,145.9 135.7,144.8 137.5,143.8 139.3,144.8 					"/>
				</g>
				<g>
					<polygon class="st11" points="104.9,131.3 103.1,130.2 104.9,129.2 106.7,130.2 					"/>
					<polygon class="st11" points="108.6,133.3 106.7,132.3 108.6,131.3 110.4,132.3 					"/>
					<polygon class="st11" points="112.2,135.4 110.4,134.4 112.2,133.3 114,134.4 					"/>
					<polygon class="st11" points="115.8,137.5 114,136.5 115.8,135.4 117.6,136.5 					"/>
					<polygon class="st11" points="119.4,139.6 117.6,138.6 119.4,137.5 121.2,138.6 					"/>
					<polygon class="st11" points="123,141.7 121.2,140.6 123,139.6 124.8,140.6 					"/>
					<polygon class="st11" points="126.6,143.8 124.8,142.7 126.6,141.7 128.4,142.7 					"/>
					<polygon class="st11" points="130.3,145.9 128.4,144.8 130.3,143.8 132.1,144.8 					"/>
					<polygon class="st11" points="133.9,148 132.1,146.9 133.9,145.9 135.7,146.9 					"/>
				</g>
				<g>
					<polygon class="st11" points="101.3,133.3 99.5,132.3 101.3,131.3 103.1,132.3 					"/>
					<polygon class="st11" points="104.9,135.4 103.1,134.4 104.9,133.3 106.7,134.4 					"/>
					<polygon class="st11" points="108.5,137.5 106.7,136.5 108.5,135.4 110.4,136.5 					"/>
					<polygon class="st12" points="112.2,139.6 110.4,138.6 112.2,137.5 114,138.6 					"/>
					<polygon class="st13" points="115.8,141.7 114,140.7 115.8,139.6 117.6,140.7 					"/>
					<polygon class="st13" points="119.4,143.8 117.6,142.7 119.4,141.7 121.2,142.7 					"/>
					<polygon class="st11" points="123,145.9 121.2,144.8 123,143.8 124.8,144.8 					"/>
					<polygon class="st11" points="126.6,148 124.8,146.9 126.6,145.9 128.4,146.9 					"/>
					<polygon class="st11" points="130.2,150.1 128.4,149 130.2,148 132.1,149 					"/>
				</g>
				<g>
					<polygon class="st13" points="97.7,135.4 95.9,134.4 97.7,133.4 99.5,134.4 					"/>
					<polygon class="st13" points="101.3,137.5 99.5,136.5 101.3,135.4 103.1,136.5 					"/>
					<polygon class="st12" points="104.9,139.6 103.1,138.6 104.9,137.5 106.7,138.6 					"/>
					<polygon class="st11" points="108.5,141.7 106.7,140.7 108.5,139.6 110.3,140.7 					"/>
					<polygon class="st11" points="112.1,143.8 110.3,142.8 112.1,141.7 114,142.8 					"/>
					<polygon class="st11" points="115.8,145.9 114,144.8 115.8,143.8 117.6,144.8 					"/>
					<polygon class="st13" points="119.4,148 117.6,146.9 119.4,145.9 121.2,146.9 					"/>
					<polygon class="st11" points="123,150.1 121.2,149 123,148 124.8,149 					"/>
					<polygon class="st11" points="126.6,152.2 124.8,151.1 126.6,150.1 128.4,151.1 					"/>
				</g>
				<g>
					<polygon class="st11" points="94,137.5 92.2,136.5 94,135.5 95.9,136.5 					"/>
					<polygon class="st11" points="97.7,139.6 95.9,138.6 97.7,137.5 99.5,138.6 					"/>
					<polygon class="st11" points="101.3,141.7 99.5,140.7 101.3,139.6 103.1,140.7 					"/>
					<polygon class="st11" points="104.9,143.8 103.1,142.8 104.9,141.7 106.7,142.8 					"/>
					<polygon class="st11" points="108.5,145.9 106.7,144.9 108.5,143.8 110.3,144.9 					"/>
					<polygon class="st11" points="112.1,148 110.3,146.9 112.1,145.9 113.9,146.9 					"/>
					<polygon class="st11" points="115.7,150.1 113.9,149 115.7,148 117.6,149 					"/>
					<polygon class="st11" points="119.4,152.2 117.6,151.1 119.4,150.1 121.2,151.1 					"/>
					<polygon class="st11" points="123,154.2 121.2,153.2 123,152.2 124.8,153.2 					"/>
				</g>
				<g>
					<polygon class="st11" points="90.4,139.6 88.6,138.6 90.4,137.6 92.2,138.6 					"/>
					<polygon class="st11" points="94,141.7 92.2,140.7 94,139.6 95.8,140.7 					"/>
					<polygon class="st13" points="97.6,143.8 95.8,142.8 97.6,141.7 99.5,142.8 					"/>
					<polygon class="st11" points="101.3,145.9 99.5,144.9 101.3,143.8 103.1,144.9 					"/>
					<polygon class="st12" points="104.9,148 103.1,146.9 104.9,145.9 106.7,146.9 					"/>
					<polygon class="st11" points="108.5,150.1 106.7,149 108.5,148 110.3,149 					"/>
					<polygon class="st11" points="112.1,152.2 110.3,151.1 112.1,150.1 113.9,151.1 					"/>
					<polygon class="st11" points="115.7,154.3 113.9,153.2 115.7,152.2 117.5,153.2 					"/>
					<polygon class="st11" points="119.3,156.3 117.5,155.3 119.3,154.3 121.2,155.3 					"/>
				</g>
				<g>
					<polygon class="st11" points="86.8,141.7 85,140.7 86.8,139.6 88.6,140.7 					"/>
					<polygon class="st11" points="90.4,143.8 88.6,142.8 90.4,141.7 92.2,142.8 					"/>
					<polygon class="st13" points="94,145.9 92.2,144.9 94,143.8 95.8,144.9 					"/>
					<polygon class="st11" points="97.6,148 95.8,147 97.6,145.9 99.4,147 					"/>
					<polygon class="st11" points="101.2,150.1 99.4,149 101.2,148 103.1,149 					"/>
					<polygon class="st12" points="104.9,152.2 103.1,151.1 104.9,150.1 106.7,151.1 					"/>
					<polygon class="st13" points="108.5,154.3 106.7,153.2 108.5,152.2 110.3,153.2 					"/>
					<polygon class="st11" points="112.1,156.4 110.3,155.3 112.1,154.3 113.9,155.3 					"/>
					<polygon class="st12" points="115.7,158.4 113.9,157.4 115.7,156.4 117.5,157.4 					"/>
				</g>
				<g>
					<polygon class="st11" points="83.2,143.8 81.3,142.8 83.2,141.7 85,142.8 					"/>
					<polygon class="st13" points="86.8,145.9 85,144.9 86.8,143.8 88.6,144.9 					"/>
					<polygon class="st11" points="90.4,148 88.6,147 90.4,145.9 92.2,147 					"/>
					<polygon class="st11" points="94,150.1 92.2,149.1 94,148 95.8,149.1 					"/>
					<polygon class="st11" points="97.6,152.2 95.8,151.1 97.6,150.1 99.4,151.1 					"/>
					<polygon class="st11" points="101.2,154.3 99.4,153.2 101.2,152.2 103,153.2 					"/>
					<polygon class="st11" points="104.9,156.4 103,155.3 104.9,154.3 106.7,155.3 					"/>
					<polygon class="st13" points="108.5,158.5 106.7,157.4 108.5,156.4 110.3,157.4 					"/>
					<polygon class="st11" points="112.1,160.5 110.3,159.5 112.1,158.5 113.9,159.5 					"/>
				</g>
				<g>
					<polygon class="st11" points="79.5,145.9 77.7,144.9 79.5,143.8 81.3,144.9 					"/>
					<polygon class="st12" points="83.1,148 81.3,147 83.1,145.9 84.9,147 					"/>
					<polygon class="st11" points="86.8,150.1 84.9,149.1 86.8,148 88.6,149.1 					"/>
					<polygon class="st11" points="90.4,152.2 88.6,151.2 90.4,150.1 92.2,151.2 					"/>
					<polygon class="st11" points="94,154.3 92.2,153.2 94,152.2 95.8,153.2 					"/>
					<polygon class="st11" points="97.6,156.4 95.8,155.3 97.6,154.3 99.4,155.3 					"/>
					<polygon class="st13" points="101.2,158.5 99.4,157.4 101.2,156.4 103,157.4 					"/>
					<polygon class="st11" points="104.8,160.5 103,159.5 104.8,158.5 106.6,159.5 					"/>
					<polygon class="st11" points="108.5,162.6 106.6,161.6 108.5,160.5 110.3,161.6 					"/>
				</g>
			</g>
		</g>
		<g>
			<polygon class="st4" points="108.5,145.7 51.6,112.9 108.5,80 165.5,112.9 			"/>
			<polygon class="st5" points="108.5,136.8 67.1,112.9 108.5,88.9 149.9,112.9 			"/>
			<polygon class="st6" points="108.5,90.6 148.5,113.7 149.9,112.9 108.5,88.9 67.1,112.9 68.5,113.7 			"/>
			<polygon class="st4" points="165.5,112.9 165.5,131.5 108.5,164.4 108.5,145.7 			"/>
			<polygon class="st5" points="51.6,112.9 51.6,131.5 108.5,164.4 108.5,145.7 			"/>
			<g class="st7">
				<polygon class="st8" points="55.4,121.2 55.4,127.1 104.7,155.5 104.7,149.7 				"/>
			</g>
			<polygon class="st6" points="108.5,144.7 52.5,112.3 51.6,112.9 108.5,145.7 165.5,112.9 164.5,112.3 			"/>
			<polygon class="st9" points="156.9,125.9 156.9,129.2 117.1,152.3 117.1,148.9 			"/>
			<polygon class="st10" points="51.6,112.9 51.6,131.5 108.5,164.4 108.5,145.7 			"/>
			<polygon class="st11" points="91.9,144.7 81.6,138.8 81.6,140 91.9,146 			"/>
			<polygon class="st11" points="80.1,137.9 77.3,136.3 77.3,137.6 80.1,139.2 			"/>
			<polygon class="st11" points="67,130.4 61.3,127.1 61.3,128.3 67,131.6 			"/>
			<polygon class="st11" points="72.2,133.4 68.1,131 68.1,132.2 72.2,134.6 			"/>
			<polygon class="st11" points="76.1,135.6 73.3,134 73.3,135.3 76.1,136.9 			"/>
			<g>
				<g>
					<polygon class="st11" points="108.6,97.2 106.8,96.1 108.6,95.1 110.4,96.1 					"/>
					<polygon class="st12" points="112.2,99.2 110.4,98.2 112.2,97.2 114,98.2 					"/>
					<polygon class="st13" points="115.8,101.3 114,100.3 115.8,99.2 117.6,100.3 					"/>
					<polygon class="st11" points="119.4,103.4 117.6,102.4 119.4,101.3 121.2,102.4 					"/>
					<polygon class="st13" points="123,105.5 121.2,104.5 123,103.4 124.8,104.5 					"/>
					<polygon class="st11" points="126.7,107.6 124.8,106.6 126.7,105.5 128.5,106.6 					"/>
					<polygon class="st11" points="130.3,109.7 128.5,108.6 130.3,107.6 132.1,108.6 					"/>
					<polygon class="st11" points="133.9,111.8 132.1,110.7 133.9,109.7 135.7,110.7 					"/>
					<polygon class="st12" points="137.5,113.9 135.7,112.8 137.5,111.8 139.3,112.8 					"/>
				</g>
				<g>
					<polygon class="st11" points="104.9,99.3 103.1,98.2 104.9,97.2 106.7,98.2 					"/>
					<polygon class="st11" points="108.6,101.3 106.7,100.3 108.6,99.3 110.4,100.3 					"/>
					<polygon class="st11" points="112.2,103.4 110.4,102.4 112.2,101.3 114,102.4 					"/>
					<polygon class="st11" points="115.8,105.5 114,104.5 115.8,103.4 117.6,104.5 					"/>
					<polygon class="st11" points="119.4,107.6 117.6,106.6 119.4,105.5 121.2,106.6 					"/>
					<polygon class="st11" points="123,109.7 121.2,108.6 123,107.6 124.8,108.6 					"/>
					<polygon class="st11" points="126.6,111.8 124.8,110.7 126.6,109.7 128.4,110.7 					"/>
					<polygon class="st11" points="130.3,113.9 128.4,112.8 130.3,111.8 132.1,112.8 					"/>
					<polygon class="st11" points="133.9,116 132.1,114.9 133.9,113.9 135.7,114.9 					"/>
				</g>
				<g>
					<polygon class="st11" points="101.3,101.3 99.5,100.3 101.3,99.3 103.1,100.3 					"/>
					<polygon class="st11" points="104.9,103.4 103.1,102.4 104.9,101.3 106.7,102.4 					"/>
					<polygon class="st11" points="108.5,105.5 106.7,104.5 108.5,103.4 110.4,104.5 					"/>
					<polygon class="st12" points="112.2,107.6 110.4,106.6 112.2,105.5 114,106.6 					"/>
					<polygon class="st13" points="115.8,109.7 114,108.7 115.8,107.6 117.6,108.7 					"/>
					<polygon class="st13" points="119.4,111.8 117.6,110.7 119.4,109.7 121.2,110.7 					"/>
					<polygon class="st11" points="123,113.9 121.2,112.8 123,111.8 124.8,112.8 					"/>
					<polygon class="st11" points="126.6,116 124.8,114.9 126.6,113.9 128.4,114.9 					"/>
					<polygon class="st11" points="130.2,118.1 128.4,117 130.2,116 132.1,117 					"/>
				</g>
				<g>
					<polygon class="st13" points="97.7,103.4 95.9,102.4 97.7,101.4 99.5,102.4 					"/>
					<polygon class="st13" points="101.3,105.5 99.5,104.5 101.3,103.4 103.1,104.5 					"/>
					<polygon class="st12" points="104.9,107.6 103.1,106.6 104.9,105.5 106.7,106.6 					"/>
					<polygon class="st11" points="108.5,109.7 106.7,108.7 108.5,107.6 110.3,108.7 					"/>
					<polygon class="st11" points="112.1,111.8 110.3,110.8 112.1,109.7 114,110.8 					"/>
					<polygon class="st11" points="115.8,113.9 114,112.8 115.8,111.8 117.6,112.8 					"/>
					<polygon class="st13" points="119.4,116 117.6,114.9 119.4,113.9 121.2,114.9 					"/>
					<polygon class="st11" points="123,118.1 121.2,117 123,116 124.8,117 					"/>
					<polygon class="st11" points="126.6,120.2 124.8,119.1 126.6,118.1 128.4,119.1 					"/>
				</g>
				<g>
					<polygon class="st11" points="94,105.5 92.2,104.5 94,103.5 95.9,104.5 					"/>
					<polygon class="st11" points="97.7,107.6 95.9,106.6 97.7,105.5 99.5,106.6 					"/>
					<polygon class="st11" points="101.3,109.7 99.5,108.7 101.3,107.6 103.1,108.7 					"/>
					<polygon class="st11" points="104.9,111.8 103.1,110.8 104.9,109.7 106.7,110.8 					"/>
					<polygon class="st11" points="108.5,113.9 106.7,112.9 108.5,111.8 110.3,112.9 					"/>
					<polygon class="st11" points="112.1,116 110.3,114.9 112.1,113.9 113.9,114.9 					"/>
					<polygon class="st11" points="115.7,118.1 113.9,117 115.7,116 117.6,117 					"/>
					<polygon class="st11" points="119.4,120.2 117.6,119.1 119.4,118.1 121.2,119.1 					"/>
					<polygon class="st11" points="123,122.2 121.2,121.2 123,120.2 124.8,121.2 					"/>
				</g>
				<g>
					<polygon class="st11" points="90.4,107.6 88.6,106.6 90.4,105.6 92.2,106.6 					"/>
					<polygon class="st11" points="94,109.7 92.2,108.7 94,107.6 95.8,108.7 					"/>
					<polygon class="st13" points="97.6,111.8 95.8,110.8 97.6,109.7 99.5,110.8 					"/>
					<polygon class="st11" points="101.3,113.9 99.5,112.9 101.3,111.8 103.1,112.9 					"/>
					<polygon class="st12" points="104.9,116 103.1,114.9 104.9,113.9 106.7,114.9 					"/>
					<polygon class="st11" points="108.5,118.1 106.7,117 108.5,116 110.3,117 					"/>
					<polygon class="st11" points="112.1,120.2 110.3,119.1 112.1,118.1 113.9,119.1 					"/>
					<polygon class="st11" points="115.7,122.3 113.9,121.2 115.7,120.2 117.5,121.2 					"/>
					<polygon class="st11" points="119.3,124.3 117.5,123.3 119.3,122.3 121.2,123.3 					"/>
				</g>
				<g>
					<polygon class="st11" points="86.8,109.7 85,108.7 86.8,107.6 88.6,108.7 					"/>
					<polygon class="st11" points="90.4,111.8 88.6,110.8 90.4,109.7 92.2,110.8 					"/>
					<polygon class="st13" points="94,113.9 92.2,112.9 94,111.8 95.8,112.9 					"/>
					<polygon class="st11" points="97.6,116 95.8,115 97.6,113.9 99.4,115 					"/>
					<polygon class="st11" points="101.2,118.1 99.4,117 101.2,116 103.1,117 					"/>
					<polygon class="st12" points="104.9,120.2 103.1,119.1 104.9,118.1 106.7,119.1 					"/>
					<polygon class="st13" points="108.5,122.3 106.7,121.2 108.5,120.2 110.3,121.2 					"/>
					<polygon class="st11" points="112.1,124.4 110.3,123.3 112.1,122.3 113.9,123.3 					"/>
					<polygon class="st12" points="115.7,126.4 113.9,125.4 115.7,124.4 117.5,125.4 					"/>
				</g>
				<g>
					<polygon class="st11" points="83.2,111.8 81.3,110.8 83.2,109.7 85,110.8 					"/>
					<polygon class="st13" points="86.8,113.9 85,112.9 86.8,111.8 88.6,112.9 					"/>
					<polygon class="st11" points="90.4,116 88.6,115 90.4,113.9 92.2,115 					"/>
					<polygon class="st11" points="94,118.1 92.2,117.1 94,116 95.8,117.1 					"/>
					<polygon class="st11" points="97.6,120.2 95.8,119.1 97.6,118.1 99.4,119.1 					"/>
					<polygon class="st11" points="101.2,122.3 99.4,121.2 101.2,120.2 103,121.2 					"/>
					<polygon class="st11" points="104.9,124.4 103,123.3 104.9,122.3 106.7,123.3 					"/>
					<polygon class="st13" points="108.5,126.5 106.7,125.4 108.5,124.4 110.3,125.4 					"/>
					<polygon class="st11" points="112.1,128.5 110.3,127.5 112.1,126.5 113.9,127.5 					"/>
				</g>
				<g>
					<polygon class="st11" points="79.5,113.9 77.7,112.9 79.5,111.8 81.3,112.9 					"/>
					<polygon class="st12" points="83.1,116 81.3,115 83.1,113.9 84.9,115 					"/>
					<polygon class="st11" points="86.8,118.1 84.9,117.1 86.8,116 88.6,117.1 					"/>
					<polygon class="st11" points="90.4,120.2 88.6,119.2 90.4,118.1 92.2,119.2 					"/>
					<polygon class="st11" points="94,122.3 92.2,121.2 94,120.2 95.8,121.2 					"/>
					<polygon class="st11" points="97.6,124.4 95.8,123.3 97.6,122.3 99.4,123.3 					"/>
					<polygon class="st13" points="101.2,126.5 99.4,125.4 101.2,124.4 103,125.4 					"/>
					<polygon class="st11" points="104.8,128.5 103,127.5 104.8,126.5 106.6,127.5 					"/>
					<polygon class="st11" points="108.5,130.6 106.6,129.6 108.5,128.5 110.3,129.6 					"/>
				</g>
			</g>
		</g>
		<g>
			<polygon class="st4" points="108.5,114.7 51.6,81.9 108.5,49 165.5,81.9 			"/>
			<polygon class="st5" points="108.5,105.8 67.1,81.9 108.5,57.9 149.9,81.9 			"/>
			<polygon class="st6" points="108.5,59.6 148.5,82.7 149.9,81.9 108.5,57.9 67.1,81.9 68.5,82.7 			"/>
			<polygon class="st4" points="165.5,81.9 165.5,100.5 108.5,133.4 108.5,114.7 			"/>
			<polygon class="st5" points="51.6,81.9 51.6,100.5 108.5,133.4 108.5,114.7 			"/>
			<g class="st7">
				<polygon class="st8" points="55.4,90.2 55.4,96.1 104.7,124.5 104.7,118.7 				"/>
			</g>
			<polygon class="st6" points="108.5,113.7 52.5,81.3 51.6,81.9 108.5,114.7 165.5,81.9 164.5,81.3 			"/>
			<polygon class="st9" points="156.9,94.9 156.9,98.2 117.1,121.3 117.1,117.9 			"/>
			<polygon class="st10" points="51.6,81.9 51.6,100.5 108.5,133.4 108.5,114.7 			"/>
			<polygon class="st11" points="91.9,113.7 81.6,107.8 81.6,109 91.9,115 			"/>
			<polygon class="st11" points="80.1,106.9 77.3,105.3 77.3,106.6 80.1,108.2 			"/>
			<polygon class="st11" points="67,99.4 61.3,96.1 61.3,97.3 67,100.6 			"/>
			<polygon class="st11" points="72.2,102.4 68.1,100 68.1,101.2 72.2,103.6 			"/>
			<polygon class="st11" points="76.1,104.6 73.3,103 73.3,104.3 76.1,105.9 			"/>
			<g>
				<g>
					<polygon class="st11" points="108.6,66.2 106.8,65.1 108.6,64.1 110.4,65.1 					"/>
					<polygon class="st12" points="112.2,68.2 110.4,67.2 112.2,66.2 114,67.2 					"/>
					<polygon class="st13" points="115.8,70.3 114,69.3 115.8,68.2 117.6,69.3 					"/>
					<polygon class="st11" points="119.4,72.4 117.6,71.4 119.4,70.3 121.2,71.4 					"/>
					<polygon class="st13" points="123,74.5 121.2,73.5 123,72.4 124.8,73.5 					"/>
					<polygon class="st11" points="126.7,76.6 124.8,75.6 126.7,74.5 128.5,75.6 					"/>
					<polygon class="st11" points="130.3,78.7 128.5,77.6 130.3,76.6 132.1,77.6 					"/>
					<polygon class="st11" points="133.9,80.8 132.1,79.7 133.9,78.7 135.7,79.7 					"/>
					<polygon class="st12" points="137.5,82.9 135.7,81.8 137.5,80.8 139.3,81.8 					"/>
				</g>
				<g>
					<polygon class="st11" points="104.9,68.3 103.1,67.2 104.9,66.2 106.7,67.2 					"/>
					<polygon class="st11" points="108.6,70.3 106.7,69.3 108.6,68.3 110.4,69.3 					"/>
					<polygon class="st11" points="112.2,72.4 110.4,71.4 112.2,70.3 114,71.4 					"/>
					<polygon class="st11" points="115.8,74.5 114,73.5 115.8,72.4 117.6,73.5 					"/>
					<polygon class="st11" points="119.4,76.6 117.6,75.6 119.4,74.5 121.2,75.6 					"/>
					<polygon class="st11" points="123,78.7 121.2,77.6 123,76.6 124.8,77.6 					"/>
					<polygon class="st11" points="126.6,80.8 124.8,79.7 126.6,78.7 128.4,79.7 					"/>
					<polygon class="st11" points="130.3,82.9 128.4,81.8 130.3,80.8 132.1,81.8 					"/>
					<polygon class="st11" points="133.9,85 132.1,83.9 133.9,82.9 135.7,83.9 					"/>
				</g>
				<g>
					<polygon class="st11" points="101.3,70.3 99.5,69.3 101.3,68.3 103.1,69.3 					"/>
					<polygon class="st11" points="104.9,72.4 103.1,71.4 104.9,70.3 106.7,71.4 					"/>
					<polygon class="st11" points="108.5,74.5 106.7,73.5 108.5,72.4 110.4,73.5 					"/>
					<polygon class="st12" points="112.2,76.6 110.4,75.6 112.2,74.5 114,75.6 					"/>
					<polygon class="st13" points="115.8,78.7 114,77.7 115.8,76.6 117.6,77.7 					"/>
					<polygon class="st13" points="119.4,80.8 117.6,79.7 119.4,78.7 121.2,79.7 					"/>
					<polygon class="st11" points="123,82.9 121.2,81.8 123,80.8 124.8,81.8 					"/>
					<polygon class="st11" points="126.6,85 124.8,83.9 126.6,82.9 128.4,83.9 					"/>
					<polygon class="st11" points="130.2,87.1 128.4,86 130.2,85 132.1,86 					"/>
				</g>
				<g>
					<polygon class="st13" points="97.7,72.4 95.9,71.4 97.7,70.4 99.5,71.4 					"/>
					<polygon class="st13" points="101.3,74.5 99.5,73.5 101.3,72.4 103.1,73.5 					"/>
					<polygon class="st12" points="104.9,76.6 103.1,75.6 104.9,74.5 106.7,75.6 					"/>
					<polygon class="st11" points="108.5,78.7 106.7,77.7 108.5,76.6 110.3,77.7 					"/>
					<polygon class="st11" points="112.1,80.8 110.3,79.8 112.1,78.7 114,79.8 					"/>
					<polygon class="st11" points="115.8,82.9 114,81.8 115.8,80.8 117.6,81.8 					"/>
					<polygon class="st13" points="119.4,85 117.6,83.9 119.4,82.9 121.2,83.9 					"/>
					<polygon class="st11" points="123,87.1 121.2,86 123,85 124.8,86 					"/>
					<polygon class="st11" points="126.6,89.2 124.8,88.1 126.6,87.1 128.4,88.1 					"/>
				</g>
				<g>
					<polygon class="st11" points="94,74.5 92.2,73.5 94,72.5 95.9,73.5 					"/>
					<polygon class="st11" points="97.7,76.6 95.9,75.6 97.7,74.5 99.5,75.6 					"/>
					<polygon class="st11" points="101.3,78.7 99.5,77.7 101.3,76.6 103.1,77.7 					"/>
					<polygon class="st11" points="104.9,80.8 103.1,79.8 104.9,78.7 106.7,79.8 					"/>
					<polygon class="st11" points="108.5,82.9 106.7,81.9 108.5,80.8 110.3,81.9 					"/>
					<polygon class="st11" points="112.1,85 110.3,83.9 112.1,82.9 113.9,83.9 					"/>
					<polygon class="st11" points="115.7,87.1 113.9,86 115.7,85 117.6,86 					"/>
					<polygon class="st11" points="119.4,89.2 117.6,88.1 119.4,87.1 121.2,88.1 					"/>
					<polygon class="st11" points="123,91.2 121.2,90.2 123,89.2 124.8,90.2 					"/>
				</g>
				<g>
					<polygon class="st11" points="90.4,76.6 88.6,75.6 90.4,74.6 92.2,75.6 					"/>
					<polygon class="st11" points="94,78.7 92.2,77.7 94,76.6 95.8,77.7 					"/>
					<polygon class="st13" points="97.6,80.8 95.8,79.8 97.6,78.7 99.5,79.8 					"/>
					<polygon class="st11" points="101.3,82.9 99.5,81.9 101.3,80.8 103.1,81.9 					"/>
					<polygon class="st12" points="104.9,85 103.1,83.9 104.9,82.9 106.7,83.9 					"/>
					<polygon class="st11" points="108.5,87.1 106.7,86 108.5,85 110.3,86 					"/>
					<polygon class="st11" points="112.1,89.2 110.3,88.1 112.1,87.1 113.9,88.1 					"/>
					<polygon class="st11" points="115.7,91.3 113.9,90.2 115.7,89.2 117.5,90.2 					"/>
					<polygon class="st11" points="119.3,93.3 117.5,92.3 119.3,91.3 121.2,92.3 					"/>
				</g>
				<g>
					<polygon class="st11" points="86.8,78.7 85,77.7 86.8,76.6 88.6,77.7 					"/>
					<polygon class="st11" points="90.4,80.8 88.6,79.8 90.4,78.7 92.2,79.8 					"/>
					<polygon class="st13" points="94,82.9 92.2,81.9 94,80.8 95.8,81.9 					"/>
					<polygon class="st11" points="97.6,85 95.8,84 97.6,82.9 99.4,84 					"/>
					<polygon class="st11" points="101.2,87.1 99.4,86 101.2,85 103.1,86 					"/>
					<polygon class="st12" points="104.9,89.2 103.1,88.1 104.9,87.1 106.7,88.1 					"/>
					<polygon class="st13" points="108.5,91.3 106.7,90.2 108.5,89.2 110.3,90.2 					"/>
					<polygon class="st11" points="112.1,93.4 110.3,92.3 112.1,91.3 113.9,92.3 					"/>
					<polygon class="st12" points="115.7,95.4 113.9,94.4 115.7,93.4 117.5,94.4 					"/>
				</g>
				<g>
					<polygon class="st11" points="83.2,80.8 81.3,79.8 83.2,78.7 85,79.8 					"/>
					<polygon class="st13" points="86.8,82.9 85,81.9 86.8,80.8 88.6,81.9 					"/>
					<polygon class="st11" points="90.4,85 88.6,84 90.4,82.9 92.2,84 					"/>
					<polygon class="st11" points="94,87.1 92.2,86.1 94,85 95.8,86.1 					"/>
					<polygon class="st11" points="97.6,89.2 95.8,88.1 97.6,87.1 99.4,88.1 					"/>
					<polygon class="st11" points="101.2,91.3 99.4,90.2 101.2,89.2 103,90.2 					"/>
					<polygon class="st11" points="104.9,93.4 103,92.3 104.9,91.3 106.7,92.3 					"/>
					<polygon class="st13" points="108.5,95.5 106.7,94.4 108.5,93.4 110.3,94.4 					"/>
					<polygon class="st11" points="112.1,97.5 110.3,96.5 112.1,95.5 113.9,96.5 					"/>
				</g>
				<g>
					<polygon class="st11" points="79.5,82.9 77.7,81.9 79.5,80.8 81.3,81.9 					"/>
					<polygon class="st12" points="83.1,85 81.3,84 83.1,82.9 84.9,84 					"/>
					<polygon class="st11" points="86.8,87.1 84.9,86.1 86.8,85 88.6,86.1 					"/>
					<polygon class="st11" points="90.4,89.2 88.6,88.2 90.4,87.1 92.2,88.2 					"/>
					<polygon class="st11" points="94,91.3 92.2,90.2 94,89.2 95.8,90.2 					"/>
					<polygon class="st11" points="97.6,93.4 95.8,92.3 97.6,91.3 99.4,92.3 					"/>
					<polygon class="st13" points="101.2,95.5 99.4,94.4 101.2,93.4 103,94.4 					"/>
					<polygon class="st11" points="104.8,97.5 103,96.5 104.8,95.5 106.6,96.5 					"/>
					<polygon class="st11" points="108.5,99.6 106.6,98.6 108.5,97.5 110.3,98.6 					"/>
				</g>
			</g>
		</g>
	</g>
</g>
<g class="st14">
	<g class="st15">
		<polygon class="st16" points="118.7,119.9 255.1,177.8 104.2,222.9 -32.2,165 		"/>
		<line class="st16" x1="-7" y1="157.5" x2="129.4" y2="215.4"/>
		<line class="st16" x1="18.1" y1="150" x2="154.5" y2="207.8"/>
		<line class="st16" x1="43.2" y1="142.4" x2="179.7" y2="200.3"/>
		<line class="st16" x1="68.4" y1="134.9" x2="204.8" y2="192.8"/>
		<line class="st16" x1="93.5" y1="127.4" x2="230" y2="185.3"/>
		<line class="st16" x1="232.4" y1="168.1" x2="81.5" y2="213.2"/>
		<line class="st16" x1="209.6" y1="158.5" x2="58.8" y2="203.6"/>
		<line class="st16" x1="186.9" y1="148.8" x2="36" y2="193.9"/>
		<line class="st16" x1="164.2" y1="139.2" x2="13.3" y2="184.3"/>
		<line class="st16" x1="141.4" y1="129.5" x2="-9.4" y2="174.7"/>
	</g>
	<g class="st17">
		<rect x="-33.5" y="-2.3" class="st18" width="296.4" height="202"/>
		<g class="st14">
			<g class="st17">
				<g>
					<g>
						<path class="st19" d="M246-56.1H-11.8c-15.9,0-28.8,13.4-28.8,30v207.7c0,16.5,12.9,30,28.8,30H246c15.9,0,28.8-13.4,28.8-30
							V-26.1C274.8-42.7,261.9-56.1,246-56.1z M263.3,181.6c0,9.9-7.7,18-17.3,18H-11.8c-9.6,0-17.3-8.1-17.3-18V3.8h292.4V181.6
							L263.3,181.6z M263.3-8.2H-29.1v-18c0-9.9,7.7-18,17.3-18H246c9.6,0,17.3,8.1,17.3,18V-8.2L263.3-8.2z"/>
						<path class="st19" d="M-0.3-32.1h-5.8c-3.2,0-5.8,2.7-5.8,6s2.6,6,5.8,6h5.8c3.2,0,5.8-2.7,5.8-6C5.5-29.5,2.9-32.1-0.3-32.1z
							"/>
						<path class="st19" d="M25-31.7c-1.4-0.7-3-0.7-4.4,0c-0.7,0.3-1.3,0.7-1.9,1.3c-2.2,2.4-2.2,6.1,0,8.5c0.6,0.5,1.2,1,1.9,1.3
							c1.4,0.6,3,0.6,4.4,0c0.7-0.3,1.3-0.7,1.9-1.3c2.2-2.4,2.2-6.1,0-8.5C26.3-30.9,25.7-31.4,25-31.7z"/>
						<path class="st19" d="M48-31.7c-2.2-0.9-4.7-0.4-6.3,1.3c-0.5,0.6-0.9,1.3-1.2,2c-0.6,1.5-0.6,3.1,0,4.6
							c0.3,0.7,0.7,1.4,1.2,2c2.3,2.3,5.9,2.3,8.2,0c0.5-0.6,0.9-1.3,1.2-2s0.5-1.5,0.5-2.3C51.6-28.6,50.2-30.8,48-31.7z"/>
						<path class="st19" d="M240.3-32.1H74.7c-3.2,0-5.8,2.7-5.8,6s2.6,6,5.8,6h165.6c3.2,0,5.8-2.7,5.8-6S243.4-32.1,240.3-32.1z"
							/>
					</g>
				</g>
			</g>
		</g>
		<g>
			<circle class="st20" cx="105.6" cy="93.3" r="120.2"/>
			<g class="st21">
				<path class="st22" d="M33.7,107.6h113.4V97c0-2-1.6-3.5-3.5-3.5H37.3c-2,0-3.5,1.6-3.5,3.5v10.6H33.7z"/>
				<path class="st23" d="M37.3,182h106.3c2,0,3.5-1.6,3.5-3.5v-70.8H33.7v70.8C33.7,180.4,35.3,182,37.3,182z"/>
				<path class="st22" d="M51.5,86.3H33.8c-1,0-1.8-0.8-1.8-1.8s0.8-1.8,1.8-1.8h16.4L55.1,68c0.2-0.7,0.8-1.2,1.6-1.2
					c0.7,0,1.4,0.3,1.7,1l5.2,10.5l5.7-15.6c0.3-0.7,0.9-1.2,1.7-1.2l0,0c0.8,0,1.4,0.5,1.7,1.2l4.9,14.7h14.7c1,0,1.8,0.8,1.8,1.8
					S93.3,81,92.3,81H76.4c-0.8,0-1.4-0.5-1.7-1.2L71,68.7l-5.3,14.7c-0.2,0.7-0.9,1.1-1.6,1.2c-0.7,0-1.4-0.3-1.7-1l-5.2-10.3
					l-4,11.9C52.9,85.8,52.2,86.3,51.5,86.3z"/>
				<path class="st24" d="M182.5,81c-0.8,21-15.6,38.3-35.4,43V96.9c0-2-1.6-3.5-3.5-3.5H92.7c-1.5-4.5-2.2-9.2-2.2-14.2
					c0-24.8,19.6-45.1,44.2-46c1,0,1.8,0.8,1.8,1.8v42.5c0,1,0.8,1.8,1.8,1.8h42.5C181.7,79.2,182.5,80.1,182.5,81L182.5,81z"/>
				<path class="st24" d="M193.1,68.6c0-25.5-20.6-46-46-46v44.3c0,1,0.8,1.8,1.8,1.8h44.2V68.6z"/>
				<g>
					<path class="st25" d="M46.1,107.6h3.5V182h-3.5V107.6z"/>
					<path class="st25" d="M58.5,107.6H62V182h-3.5V107.6z"/>
					<path class="st25" d="M70.9,107.6h3.5V182h-3.5V107.6z"/>
					<path class="st25" d="M83.3,107.6h3.5V182h-3.5V107.6z"/>
					<path class="st25" d="M95.7,107.6h3.5V182h-3.5L95.7,107.6L95.7,107.6z"/>
					<path class="st25" d="M108.1,107.6h3.5V182h-3.5V107.6z"/>
					<path class="st25" d="M120.5,107.6h3.5V182h-3.5V107.6z"/>
					<path class="st25" d="M132.9,107.6h3.5V182h-3.5V107.6z"/>
					<path class="st25" d="M33.7,118.2h113.4v3.5H33.7V118.2z"/>
					<path class="st25" d="M33.7,130.6h113.4v3.5H33.7V130.6z"/>
					<path class="st25" d="M33.7,143h113.4v3.5H33.7V143z"/>
					<path class="st25" d="M33.7,155.4h113.4v3.5H33.7V155.4z"/>
					<path class="st25" d="M33.7,167.8h113.4v3.5H33.7V167.8z"/>
				</g>
				<path class="st24" d="M150.6,182h-14.2v-23c0-2,1.6-3.5,3.5-3.5h10.6V182H150.6z"/>
				<path class="st26" d="M136.5,182h-14.2v-14.2c0-2,1.6-3.5,3.5-3.5h10.6V182H136.5z"/>
				<path class="st26" d="M164.8,182h-14.2v-40.7c0-2,1.6-3.5,3.5-3.5h10.6V182H164.8z"/>
				<path class="st24" d="M179,182h-14.2v-51.4c0-2,1.6-3.5,3.5-3.5h7.1c2,0,3.5,1.6,3.5,3.5V182H179z"/>
				<path class="st26" d="M193.1,182H179v-33.7h10.6c2,0,3.5,1.6,3.5,3.5V182z"/>
				<path class="st22" d="M39.1,73.9c-0.3,0-0.6-0.1-0.8-0.2c-0.9-0.5-1.2-1.5-0.7-2.4l19.5-37.2c0.5-0.9,1.5-1.2,2.4-0.7
					s1.2,1.5,0.7,2.4L40.7,73C40.3,73.6,39.7,73.9,39.1,73.9L39.1,73.9z"/>
				<path class="st22" d="M78,54.4c-0.4,0-0.8-0.1-1.1-0.4c-0.8-0.6-0.9-1.7-0.3-2.5l19.5-24.8c0.6-0.8,1.7-0.9,2.5-0.3
					s0.9,1.7,0.3,2.5L79.4,53.7C79.1,54.2,78.5,54.4,78,54.4z"/>
				<path class="st22" d="M78,54.4c-0.4,0-0.9-0.2-1.2-0.5L57.4,36.2c-0.7-0.7-0.8-1.8-0.1-2.5s1.8-0.8,2.5-0.1l19.4,17.7
					c0.7,0.7,0.8,1.8,0.1,2.5C79,54.2,78.5,54.4,78,54.4L78,54.4z"/>
				<circle class="st24" cx="39.1" cy="72.1" r="5.3"/>
				<circle class="st24" cx="58.5" cy="34.9" r="5.3"/>
				<circle class="st24" cx="78" cy="52.7" r="5.3"/>
				
					<ellipse transform="matrix(0.1602 -0.9871 0.9871 0.1602 54.3425 119.6719)" class="st24" cx="97.5" cy="27.9" rx="5.3" ry="5.3"/>
				<path class="st27" d="M157.7,59.7c-0.5,0-0.9-0.2-1.3-0.5c-0.7-0.7-0.7-1.8,0-2.5l14.2-14.2c0.7-0.7,1.8-0.7,2.5,0
					s0.7,1.8,0,2.5L159,59.2C158.6,59.6,158.2,59.7,157.7,59.7z"/>
				<circle class="st27" cx="159.5" cy="45.6" r="1.8"/>
				<circle class="st27" cx="170.1" cy="56.2" r="1.8"/>
				<path class="st27" d="M118.8,66.8h-3.5c-2,0-3.5-1.6-3.5-3.5s1.6-3.5,3.5-3.5h3.5c2,0,3.5,1.6,3.5,3.5c0,1,0.8,1.8,1.8,1.8
					s1.8-0.8,1.8-1.8c0-3.9-3.2-7.1-7.1-7.1v-1.8c0-1-0.8-1.8-1.8-1.8s-1.8,0.8-1.8,1.8v1.8c-3.9,0-7.1,3.2-7.1,7.1
					c0,3.9,3.2,7.1,7.1,7.1h3.5c2,0,3.5,1.6,3.5,3.5s-1.6,3.5-3.5,3.5h-3.5c-2,0-3.5-1.6-3.5-3.5c0-1-0.8-1.8-1.8-1.8
					s-1.8,0.8-1.8,1.8c0,3.9,3.2,7.1,7.1,7.1v1.8c0,1,0.8,1.8,1.8,1.8s1.8-0.8,1.8-1.8V81c3.9,0,7.1-3.2,7.1-7.1
					S122.7,66.8,118.8,66.8z"/>
				<circle class="st24" cx="83.3" cy="100.5" r="1.8"/>
				<circle class="st24" cx="90.4" cy="100.5" r="1.8"/>
				
					<ellipse transform="matrix(0.1602 -0.9871 0.9871 0.1602 -17.3201 180.6427)" class="st24" cx="97.5" cy="100.5" rx="1.8" ry="1.8"/>
			</g>
			<g>
				<path class="st10" d="M29.6,101.4H143V90.8c0-2-1.6-3.5-3.5-3.5H33.1c-2,0-3.5,1.6-3.5,3.5V101.4z"/>
				<path class="st4" d="M33.1,175.7h106.3c2,0,3.5-1.6,3.5-3.5v-70.8H29.6v70.8C29.6,174.2,31.2,175.7,33.1,175.7z"/>
				<path class="st10" d="M47.3,80.1H29.6c-1,0-1.8-0.8-1.8-1.8s0.8-1.8,1.8-1.8H46l4.9-14.7c0.2-0.7,0.8-1.2,1.6-1.2
					c0.7,0,1.4,0.3,1.7,1l5.2,10.5l5.7-15.6c0.3-0.7,0.9-1.2,1.7-1.2l0,0c0.8,0,1.4,0.5,1.7,1.2l4.9,14.7h14.7c1,0,1.8,0.8,1.8,1.8
					s-0.8,1.8-1.8,1.8H72.2c-0.8,0-1.4-0.5-1.7-1.2l-3.7-11.1l-5.3,14.7c-0.2,0.7-0.9,1.1-1.6,1.2c-0.7,0-1.4-0.3-1.7-1L53,67
					l-4,11.9C48.8,79.6,48.1,80.1,47.3,80.1z"/>
				<path class="st11" d="M178.3,74.8c-0.8,21-15.6,38.3-35.4,43V90.7c0-2-1.6-3.5-3.5-3.5H88.5C87,82.7,86.3,78,86.3,73
					c0-24.8,19.6-45.1,44.2-46c1,0,1.8,0.8,1.8,1.8v42.5c0,1,0.8,1.8,1.8,1.8h42.5C177.6,73,178.4,73.8,178.3,74.8L178.3,74.8z"/>
				<path class="st11" d="M189,62.4c0-25.5-20.6-46-46-46v44.3c0,1,0.8,1.8,1.8,1.8H189V62.4z"/>
				<g>
					<path class="st28" d="M42,101.4h3.5v74.4H42V101.4z"/>
					<path class="st28" d="M54.4,101.4h3.5v74.4h-3.5V101.4z"/>
					<path class="st28" d="M66.8,101.4h3.5v74.4h-3.5V101.4z"/>
					<path class="st28" d="M79.2,101.4h3.5v74.4h-3.5V101.4z"/>
					<path class="st28" d="M91.6,101.4h3.5v74.4h-3.5V101.4z"/>
					<path class="st28" d="M104,101.4h3.5v74.4H104V101.4z"/>
					<path class="st28" d="M116.4,101.4h3.5v74.4h-3.5V101.4z"/>
					<path class="st28" d="M128.8,101.4h3.5v74.4h-3.5V101.4z"/>
					<path class="st28" d="M29.6,112H143v3.5H29.6V112z"/>
					<path class="st28" d="M29.6,124.4H143v3.5H29.6V124.4z"/>
					<path class="st28" d="M29.6,136.8H143v3.5H29.6V136.8z"/>
					<path class="st28" d="M29.6,149.2H143v3.5H29.6V149.2z"/>
					<path class="st28" d="M29.6,161.6H143v3.5H29.6V161.6z"/>
				</g>
				<path class="st11" d="M146.5,175.7h-14.2v-23c0-2,1.6-3.5,3.5-3.5h10.6v26.5H146.5z"/>
				<path class="st29" d="M132.3,175.7h-14.2v-14.2c0-2,1.6-3.5,3.5-3.5h10.6v17.7H132.3z"/>
				<path class="st29" d="M160.7,175.7h-14.2V135c0-2,1.6-3.5,3.5-3.5h10.6v44.2H160.7z"/>
				<path class="st11" d="M174.8,175.7h-14.2v-51.4c0-2,1.6-3.5,3.5-3.5h7.1c2,0,3.5,1.6,3.5,3.5v51.4H174.8z"/>
				<path class="st29" d="M189,175.7h-14.2V142h10.6c2,0,3.5,1.6,3.5,3.5v30.2H189z"/>
				<path class="st10" d="M34.9,67.7c-0.3,0-0.6-0.1-0.8-0.2c-0.9-0.5-1.2-1.5-0.7-2.4l19.5-37.2c0.5-0.9,1.5-1.2,2.4-0.7
					s1.2,1.5,0.7,2.4L36.5,66.8C36.2,67.3,35.6,67.7,34.9,67.7L34.9,67.7z"/>
				<path class="st10" d="M73.9,48.2c-0.4,0-0.8-0.1-1.1-0.4c-0.8-0.6-0.9-1.7-0.3-2.5L92,20.6c0.6-0.8,1.7-0.9,2.5-0.3
					s0.9,1.7,0.3,2.5L75.3,47.6C74.9,48,74.4,48.2,73.9,48.2z"/>
				<path class="st10" d="M73.9,48.2c-0.4,0-0.9-0.2-1.2-0.5L53.3,30c-0.7-0.7-0.8-1.8-0.1-2.5s1.8-0.8,2.5-0.1l19.4,17.7
					c0.7,0.7,0.8,1.8,0.1,2.5C74.8,48,74.3,48.2,73.9,48.2L73.9,48.2z"/>
				<circle class="st11" cx="34.9" cy="65.9" r="5.3"/>
				<circle class="st11" cx="54.4" cy="28.7" r="5.3"/>
				<circle class="st11" cx="73.9" cy="46.5" r="5.3"/>
				<circle class="st11" cx="93.4" cy="21.7" r="5.3"/>
				<path class="st30" d="M153.6,53.5c-0.5,0-0.9-0.2-1.3-0.5c-0.7-0.7-0.7-1.8,0-2.5l14.2-14.2c0.7-0.7,1.8-0.7,2.5,0
					s0.7,1.8,0,2.5L154.8,53C154.5,53.4,154,53.5,153.6,53.5z"/>
				<circle class="st30" cx="155.4" cy="39.4" r="1.8"/>
				<circle class="st30" cx="166" cy="50" r="1.8"/>
				<path class="st30" d="M114.6,60.6h-3.5c-2,0-3.5-1.6-3.5-3.5s1.6-3.5,3.5-3.5h3.5c2,0,3.5,1.6,3.5,3.5c0,1,0.8,1.8,1.8,1.8
					s1.8-0.8,1.8-1.8c0-3.9-3.2-7.1-7.1-7.1v-1.8c0-1-0.8-1.8-1.8-1.8s-1.8,0.8-1.8,1.8V50c-3.9,0-7.1,3.2-7.1,7.1s3.2,7.1,7.1,7.1
					h3.5c2,0,3.5,1.6,3.5,3.5c0,2-1.6,3.5-3.5,3.5H111c-2,0-3.5-1.6-3.5-3.5c0-1-0.8-1.8-1.8-1.8s-1.8,0.8-1.8,1.8
					c0,3.9,3.2,7.1,7.1,7.1v1.8c0,1,0.8,1.8,1.8,1.8s1.8-0.8,1.8-1.8v-1.8c3.9,0,7.1-3.2,7.1-7.1C121.7,63.8,118.5,60.6,114.6,60.6z
					"/>
				<circle class="st11" cx="79.2" cy="94.3" r="1.8"/>
				<circle class="st11" cx="86.3" cy="94.3" r="1.8"/>
				<circle class="st11" cx="93.4" cy="94.3" r="1.8"/>
			</g>
		</g>
	</g>
</g>
<g class="st14">
	<g class="st31">
		<polygon class="st32" points="122.5,58.9 256.8,139 115.7,212.9 -18.6,132.7 		"/>
		<line class="st32" x1="4.9" y1="120.4" x2="139.3" y2="200.6"/>
		<line class="st32" x1="28.4" y1="108.1" x2="162.8" y2="188.2"/>
		<line class="st32" x1="51.9" y1="95.8" x2="186.3" y2="175.9"/>
		<line class="st32" x1="75.4" y1="83.5" x2="209.8" y2="163.6"/>
		<line class="st32" x1="98.9" y1="71.2" x2="233.3" y2="151.3"/>
		<line class="st32" x1="234.4" y1="125.7" x2="93.3" y2="199.5"/>
		<line class="st32" x1="212" y1="112.3" x2="71" y2="186.2"/>
		<line class="st32" x1="189.6" y1="99" x2="48.6" y2="172.8"/>
		<line class="st32" x1="167.2" y1="85.6" x2="26.2" y2="159.4"/>
		<line class="st32" x1="144.9" y1="72.2" x2="3.8" y2="146.1"/>
	</g>
	<g class="st17">
		<g>
			
				<linearGradient id="SVGID_1_" gradientUnits="userSpaceOnUse" x1="14.0615" y1="86.9" x2="61.996" y2="86.9" gradientTransform="matrix(1 0 0 -1 0 210)">
				<stop  offset="0" style="stop-color:#7ACFE2"/>
				<stop  offset="0.3704" style="stop-color:#76D4E6"/>
				<stop  offset="0.8061" style="stop-color:#6BE2F2"/>
				<stop  offset="1" style="stop-color:#64EBF9"/>
			</linearGradient>
			<path class="st33" d="M62,102.6v48.7c0,0.1,0,0.2,0,0.3c-0.2,3.3-2.9,6-6.3,6H20.3c-3.5,0-6.3-2.8-6.3-6.3V94.9
				c0-3,2.1-5.5,4.9-6.1c0.5-0.1,0.9-0.2,1.4-0.2h28.1c1,0,1.9,0.2,2.7,0.6c1.7,0.8,2.2,1.9,5.2,5c3.5,3.8,4.4,4.2,5.1,5.9
				C61.8,100.8,62,101.7,62,102.6z"/>
			<path class="st34" d="M62,102.6v48.7c0,0.1,0,0.2,0,0.3c-0.5,0.1-0.9,0.2-1.4,0.2H25.2c-3.5,0-6.3-2.8-6.3-6.3V89.1
				c0-0.1,0-0.2,0-0.3c0.5-0.1,0.9-0.2,1.4-0.2h28.1c1,0,1.9,0.2,2.7,0.6c0.7,0.3,1.3,0.8,1.9,1.4l3.4,3.6l3.9,4
				c0.5,0.5,0.9,1.2,1.2,1.8C61.8,100.8,62,101.7,62,102.6z"/>
			<path class="st35" d="M72,123.6v4.4c0,1.6-1.3,2.9-2.9,2.9H46.2c-1.6,0-2.9-1.3-2.9-2.9v-4.4c0-1.6,1.3-2.9,2.9-2.9h22.9
				C70.7,120.7,72,122,72,123.6z"/>
			<path class="st36" d="M72,123.6v4.4c0,1.6-1.3,2.9-2.9,2.9H51c-1.6,0-2.9-1.3-2.9-2.9v-4.4c0-1.6,1.3-2.9,2.9-2.9h18.1
				C70.7,120.7,72,122,72,123.6z"/>
			<path class="st37" d="M72.2,136.8v4.2c0,0.7-0.6,1.3-1.3,1.3h-4.2c-0.7,0-1.3-0.6-1.3-1.3v-4.2c0-0.7,0.6-1.3,1.3-1.3h4.2
				C71.6,135.4,72.2,136,72.2,136.8z"/>
			<path class="st37" d="M72.2,148.3v12.9c0,1.3-1,2.3-2.3,2.3h-2.3c-1.3,0-2.3-1-2.3-2.3v-12.9c0-1.1,0.9-2,2-2h2.9
				C71.3,146.3,72.2,147.2,72.2,148.3z"/>
			<path class="st38" d="M72.2,136.8v1.2c0,0.7-0.6,1.3-1.3,1.3h-4.2c-0.7,0-1.3-0.6-1.3-1.3v-1.2c0-0.7,0.6-1.3,1.3-1.3h4.2
				C71.6,135.4,72.2,136,72.2,136.8z"/>
			<path class="st38" d="M72.2,148.3v10c0,1.3-1,2.3-2.3,2.3h-2.3c-1.3,0-2.3-1-2.3-2.3v-10c0-1.1,0.9-2,2-2h2.9
				C71.3,146.3,72.2,147.2,72.2,148.3z"/>
			<path class="st39" d="M61.5,100.1h-7.9c-1.3,0-2.4-1.1-2.4-2.4v-8.4c0.7,0.3,1.3,0.8,1.9,1.4l3.4,3.6l3.9,4
				C60.8,98.8,61.2,99.4,61.5,100.1z"/>
			
				<linearGradient id="SVGID_2_" gradientUnits="userSpaceOnUse" x1="8.0853" y1="45.2" x2="33.1125" y2="45.2" gradientTransform="matrix(1 0 0 -1 0 210)">
				<stop  offset="0" style="stop-color:#7ACFE2"/>
				<stop  offset="0.3704" style="stop-color:#76D4E6"/>
				<stop  offset="0.8061" style="stop-color:#6BE2F2"/>
				<stop  offset="1" style="stop-color:#64EBF9"/>
			</linearGradient>
			<path class="st40" d="M33.1,164.8c0,0.8-0.3,1.6-0.9,2.2c-0.6,0.6-1.3,0.9-2.2,0.9H11.1c-1.7,0-3.1-1.4-3.1-3.1
				c0-0.8,0.3-1.6,0.9-2.2c0.6-0.6,1.3-0.9,2.2-0.9H30C31.7,161.7,33.1,163.1,33.1,164.8z"/>
			
				<linearGradient id="SVGID_3_" gradientUnits="userSpaceOnUse" x1="8.0853" y1="51.3" x2="33.1125" y2="51.3" gradientTransform="matrix(1 0 0 -1 0 210)">
				<stop  offset="0" style="stop-color:#7ACFE2"/>
				<stop  offset="0.3704" style="stop-color:#76D4E6"/>
				<stop  offset="0.8061" style="stop-color:#6BE2F2"/>
				<stop  offset="1" style="stop-color:#64EBF9"/>
			</linearGradient>
			<path class="st41" d="M33.1,158.7c0,0.8-0.3,1.6-0.9,2.2c-0.6,0.6-1.3,0.9-2.2,0.9H11.1c-1.7,0-3.1-1.4-3.1-3.1
				c0-0.8,0.3-1.6,0.9-2.2c0.6-0.6,1.3-0.9,2.2-0.9H30C31.7,155.6,33.1,157,33.1,158.7z"/>
			
				<linearGradient id="SVGID_4_" gradientUnits="userSpaceOnUse" x1="8.0853" y1="57.5" x2="33.1125" y2="57.5" gradientTransform="matrix(1 0 0 -1 0 210)">
				<stop  offset="0" style="stop-color:#7ACFE2"/>
				<stop  offset="0.3704" style="stop-color:#76D4E6"/>
				<stop  offset="0.8061" style="stop-color:#6BE2F2"/>
				<stop  offset="1" style="stop-color:#64EBF9"/>
			</linearGradient>
			<path class="st42" d="M33.1,152.5c0,0.8-0.3,1.6-0.9,2.2c-0.6,0.6-1.3,0.9-2.2,0.9H11.1c-1.7,0-3.1-1.4-3.1-3.1
				c0-0.8,0.3-1.6,0.9-2.2c0.6-0.6,1.3-0.9,2.2-0.9H30C31.7,149.4,33.1,150.8,33.1,152.5z"/>
			
				<linearGradient id="SVGID_5_" gradientUnits="userSpaceOnUse" x1="8.0853" y1="63.65" x2="33.1125" y2="63.65" gradientTransform="matrix(1 0 0 -1 0 210)">
				<stop  offset="0" style="stop-color:#7ACFE2"/>
				<stop  offset="0.3704" style="stop-color:#76D4E6"/>
				<stop  offset="0.8061" style="stop-color:#6BE2F2"/>
				<stop  offset="1" style="stop-color:#64EBF9"/>
			</linearGradient>
			<path class="st43" d="M33.1,146.3c0,0.8-0.3,1.6-0.9,2.2c-0.6,0.6-1.3,0.9-2.2,0.9H11.1c-1.7,0-3.1-1.4-3.1-3.1
				c0-0.6,0.2-1.2,0.5-1.6c0.1-0.2,0.3-0.4,0.4-0.5c0.6-0.6,1.3-0.9,2.2-0.9H30C31.7,143.3,33.1,144.6,33.1,146.3z"/>
			
				<linearGradient id="SVGID_6_" gradientUnits="userSpaceOnUse" x1="8.0853" y1="69.8" x2="33.1118" y2="69.8" gradientTransform="matrix(1 0 0 -1 0 210)">
				<stop  offset="0" style="stop-color:#7ACFE2"/>
				<stop  offset="0.3704" style="stop-color:#76D4E6"/>
				<stop  offset="0.8061" style="stop-color:#6BE2F2"/>
				<stop  offset="1" style="stop-color:#64EBF9"/>
			</linearGradient>
			<path class="st44" d="M30,143.3H11.1c-1.7,0-3.1-1.4-3.1-3.1l0,0c0-1.7,1.4-3.1,3.1-3.1H30c1.7,0,3.1,1.4,3.1,3.1l0,0
				C33.1,141.9,31.7,143.3,30,143.3z"/>
			<path class="st45" d="M22.3,157.8c-0.2-4.6-3.5-8.3-7.7-9.3c-0.9-0.2-1.8-0.3-2.7-0.3l0,0H8c-8.9,0.4-13.1,11.5-6.2,17.5
				c1.9,1.7,4.4,2.6,7.1,2.5H12l0,0c0.3,0,0.6,0,0.8,0c0.6,0,1.3-0.1,1.9-0.3c4.4-1,7.6-4.8,7.7-9.4l0,0
				C22.3,158.3,22.3,158,22.3,157.8z"/>
			
				<linearGradient id="SVGID_7_" gradientUnits="userSpaceOnUse" x1="6.8123" y1="51.75" x2="22.2862" y2="51.75" gradientTransform="matrix(1 0 0 -1 0 210)">
				<stop  offset="0" style="stop-color:#7ACFE2"/>
				<stop  offset="0.3704" style="stop-color:#76D4E6"/>
				<stop  offset="0.8061" style="stop-color:#6BE2F2"/>
				<stop  offset="1" style="stop-color:#64EBF9"/>
			</linearGradient>
			<path class="st46" d="M22.3,158.6L22.3,158.6c-0.2,4.6-3.4,8.4-7.7,9.4c-4.3-1-7.5-4.7-7.7-9.3c0,0,0,0,0-0.1l0,0
				c-0.2-4.9,3.2-9.1,7.7-10.1c4.3,1,7.5,4.7,7.7,9.3C22.3,158,22.3,158.3,22.3,158.6z"/>
			<path class="st47" d="M69.2,114.3h-6v-11.7c0-2-0.8-3.9-2.1-5.2l-3.8-4c-3.3-3.4-3.7-4.3-5.6-5.3c-0.9-0.5-2.1-0.8-3.3-0.8H20.3
				c-4.2,0-7.6,3.4-7.6,7.6v40.9h-1.6c-2.4,0-4.4,2-4.4,4.4c0,1.2,0.5,2.3,1.3,3.1c-0.8,0.8-1.3,1.9-1.3,3.1c0,0.5,0.1,0.7,0.1,0.9
				c-9.5,1-13.3,12.7-6.3,19.1c2.1,1.9,4.9,3,7.9,2.9c1,0,21.6,0,21.6,0c2.4,0,4.4-2,4.4-4.4c0-1.2-0.5-2.3-1.3-3.1
				c0.7-0.7,1.2-1.7,1.3-2.9H36v0.9c0,5.6,4.5,10.1,10.1,10.1h23.1c5.6,0,10.1-4.5,10.1-10.1v-35.4
				C79.3,118.8,74.8,114.3,69.2,114.3z M52.5,91.9c5.1,5.4,6.2,6.6,6.5,6.8l0,0l0,0l0,0l0,0l0,0l0,0l0,0l0,0l0,0h-6.5V91.9
				L52.5,91.9z M11.2,138.4H30c1,0,1.8,0.8,1.8,1.8S31,142,30,142H11.1c-1,0-1.8-0.8-1.8-1.8C9.4,139.2,10.2,138.4,11.2,138.4z
				 M11.2,144.5H30c1,0,1.8,0.8,1.8,1.8s-0.8,1.8-1.8,1.8H17c-0.5-0.2-1.1-0.4-1.6-0.6c-0.8-0.2-1.7-0.4-2.6-0.4c-0.3,0-0.5,0-0.8,0
				H9.6c-0.1-0.2-0.2-0.5-0.2-0.8C9.4,145.3,10.2,144.5,11.2,144.5z M31.8,152.5c0,1-0.8,1.8-1.8,1.8h-7.3c-0.5-1.3-1.2-2.5-2.2-3.6
				H30C31,150.7,31.8,151.5,31.8,152.5z M4.9,150.2c-0.8,0.7-1.5,1.6-2,2.6H1.4C2.3,151.6,3.5,150.7,4.9,150.2z M-0.1,155.2h1.9
				c0,0.2-0.3,0.9-0.4,1.9h-2C-0.5,156.5-0.3,155.8-0.1,155.2z M0.1,161.6c-0.3-0.7-0.5-1.3-0.6-2.1h2c0.4,2,0.4,1.7,0.5,2.1H0.1z
				 M1.8,164.1c0.8,0,1.3,0,1.4,0c0.5,0.8,1.1,1.5,1.7,2.1C3.7,165.7,2.6,165,1.8,164.1z M12.8,166.8c-4.7,0.2-8.8-3.5-9-8.2
				c-0.3-7.6,8.7-11.9,14.4-6.7C23.9,157,20.5,166.5,12.8,166.8z M30,166.6H19.5c1.2-1,2.1-2.2,2.8-3.6H30c1,0,1.8,0.8,1.8,1.8
				S31,166.6,30,166.6z M31.8,158.9c-0.1,0.9-0.9,1.6-1.8,1.6h-6.8c0.2-1.1,0.3-2.3,0.2-3.6H30C31.1,156.9,31.9,157.8,31.8,158.9z
				 M36,156.3h-2.3c-0.2-0.3-0.4-0.5-0.6-0.7c1.7-1.7,1.7-4.5,0-6.2c0.8-0.8,1.3-1.9,1.3-3.1c0-1.2-0.5-2.3-1.3-3.1
				c2.7-2.7,0.8-7.5-3.1-7.5H15.3V94.8c0-2.8,2.2-5,5-5h29.5V100c0,0.7,0.6,1.3,1.3,1.3h9.4c0.3,1.1,0.1,0.7,0.2,12.9H46.1
				c-5.6,0-10.1,4.5-10.1,10.1L36,156.3L36,156.3z M76.9,159.7c0,4.2-3.4,7.7-7.7,7.7H46.1c-4.2,0-7.7-3.4-7.7-7.7v-35.4
				c0-4.2,3.4-7.7,7.7-7.7h23.1c4.2,0,7.7,3.4,7.7,7.7V159.7L76.9,159.7z"/>
			<path class="st48" d="M28.3,122.6L28.3,122.6c-1.5-0.5-2.6-0.9-2.6-2.3c0-1.3,0.8-1.9,2.5-1.9s2.2,0.8,2.8,0.8c0.7,0,1-0.7,1-1.2
				c0-1-1.7-1.5-3.1-1.6v-0.9c0-0.6-0.5-1.2-1.2-1.2c-0.6,0-1.2,0.5-1.2,1.2v1.1c-2,0.5-3.1,1.9-3.1,3.9c0,2.8,2.1,3.6,3.8,4.2
				c1.6,0.6,2.9,1.1,2.9,3c0,1.5-0.9,2.3-2.6,2.3c-2.5,0-2.5-1.7-3.4-1.7c-0.6,0-1.1,0.7-1.1,1.2c0,1,1.4,2.2,3.5,2.5v0.9
				c0,0.6,0.5,1.2,1.2,1.2c0.6,0,1.2-0.5,1.2-1.2V132c2.2-0.4,3.5-2,3.5-4.5C32.4,124.1,30.1,123.3,28.3,122.6z"/>
			<path class="st48" d="M49.7,106.3h3.1c0.7,0,1.2-0.5,1.2-1.2s-0.5-1.2-1.2-1.2h-3.1c-0.7,0-1.2,0.5-1.2,1.2S49,106.3,49.7,106.3z
				"/>
			<path class="st48" d="M23.3,106.3h21.6c0.7,0,1.2-0.5,1.2-1.2s-0.5-1.2-1.2-1.2H23.3c-0.7,0-1.2,0.5-1.2,1.2
				S22.6,106.3,23.3,106.3z"/>
			<path class="st48" d="M27.1,112.4c0.7,0,1.2-0.5,1.2-1.2s-0.5-1.2-1.2-1.2h-3.9c-0.7,0-1.2,0.5-1.2,1.2s0.5,1.2,1.2,1.2H27.1z"/>
			<path class="st48" d="M54,111.2c0-0.7-0.5-1.2-1.2-1.2H32c-0.7,0-1.2,0.5-1.2,1.2s0.5,1.2,1.2,1.2h20.7
				C53.4,112.4,54,111.8,54,111.2z"/>
			<path class="st48" d="M12,155.7c0-0.3,0.1-0.4,0.2-0.5c0.3-0.2,1.1-0.2,1.8,0.1c0.2,0.1,0.4,0.2,0.7,0.2c1.2,0,2.1-2.2-0.7-2.7
				v-0.1c0-0.7-0.6-1.2-1.2-1.2s-1.2,0.6-1.2,1.2v0.2c-1.2,0.4-1.9,1.4-1.9,2.8c0,2.1,1.5,2.6,2.6,3.1c1,0.4,1.4,0.6,1.4,1.3
				c0,0.4-0.1,0.9-1,0.9c-1.3,0-1.1-1-2.1-1c-0.7,0-1.2,0.7-1.2,1.3c0,0.8,0.9,1.6,2.1,2v0.1c0,0.7,0.6,1.2,1.2,1.2s1.2-0.6,1.2-1.2
				v-0.1c1.3-0.4,2.1-1.6,2.1-3.1C16,156.3,12,156.9,12,155.7z"/>
		</g>
		<g>
			<g>
				<g>
					<g>
						<g>
							<g>
								<g>
									<g>
										
											<linearGradient id="SVGID_8_" gradientUnits="userSpaceOnUse" x1="-2095.0579" y1="136.0197" x2="-1970.0127" y2="136.0197" gradientTransform="matrix(1 0 0 -1 2131.9236 210)">
											<stop  offset="0" style="stop-color:#C0BFF6"/>
											<stop  offset="0.2938" style="stop-color:#C5C4F7"/>
											<stop  offset="0.6399" style="stop-color:#D3D2F9"/>
											<stop  offset="1" style="stop-color:#E9E9FD"/>
										</linearGradient>
										<path class="st49" d="M161.9,81.8L148.4,1.4l1.1-0.5L147.9,0l0,0c-0.3-0.2-0.8-0.2-1.3,0.1L38.3,62.6
											c-0.9,0.5-1.6,1.8-1.4,2.8l13.7,81c0.1,0.4,0.3,0.7,0.6,0.8l0,0l1.6,0.9l0.3-1.5H53l107.6-62.1
											C161.4,84,162,82.7,161.9,81.8z"/>
										
											<linearGradient id="SVGID_9_" gradientUnits="userSpaceOnUse" x1="-2095.094" y1="104" x2="-2073.6187" y2="104" gradientTransform="matrix(1 0 0 -1 2131.9236 210)">
											<stop  offset="0" style="stop-color:#5761D7"/>
											<stop  offset="0.1779" style="stop-color:#5C66D9"/>
											<stop  offset="0.3876" style="stop-color:#6A73DF"/>
											<stop  offset="0.6134" style="stop-color:#8289E8"/>
											<stop  offset="0.849" style="stop-color:#A3A7F5"/>
											<stop  offset="1" style="stop-color:#BCBEFF"/>
										</linearGradient>
										<path class="st50" d="M38.9,64.8L37.1,64c-0.2,0.5-0.3,0.9-0.2,1.3l13.7,81c0.1,0.4,0.3,0.7,0.6,0.8l0,0l1.6,0.9l0.3-1.5
											H53l5.4-3.1L38.9,64.8z"/>
										<path class="st51" d="M162.2,85.5L53.9,148c-0.8,0.5-1.6,0.2-1.7-0.7l-13.7-81c-0.2-0.9,0.5-2.2,1.4-2.8L148.2,1
											c0.8-0.5,1.6-0.2,1.7,0.7l13.7,81C163.7,83.7,163.1,85,162.2,85.5z"/>
										<g class="st7">
											<polygon class="st9" points="146.8,6.2 42.4,66.5 55.4,142.8 159.7,82.6 											"/>
										</g>
									</g>
									<g>
										
											<linearGradient id="SVGID_10_" gradientUnits="userSpaceOnUse" x1="-2078.3235" y1="67.9" x2="-1901.7236" y2="67.9" gradientTransform="matrix(1 0 0 -1 2131.9236 210)">
											<stop  offset="0" style="stop-color:#7CB3E0"/>
											<stop  offset="0.2721" style="stop-color:#7FB8E2"/>
											<stop  offset="0.5929" style="stop-color:#88C6E6"/>
											<stop  offset="0.937" style="stop-color:#97DEED"/>
											<stop  offset="1" style="stop-color:#9AE3EF"/>
										</linearGradient>
										<path class="st52" d="M230.2,123.8l-5.9,3.1l-59.2-34.2c-1-0.6-2.7-0.5-3.9,0.2L59,151.9c-1-0.5-5.4-2.7-5.4-2.7l2.2,5.6
											l0,0c0.1,0.3,0.3,0.5,0.6,0.7l62.4,36c1,0.6,2.7,0.5,3.9-0.2L227.2,131c0.5-0.3,0.8-0.6,0.9-0.9l0,0L230.2,123.8z"/>
										
											<linearGradient id="SVGID_11_" gradientUnits="userSpaceOnUse" x1="53.5182" y1="73.75" x2="230.2818" y2="73.75" gradientTransform="matrix(1 0 0 -1 0 210)">
											<stop  offset="0" style="stop-color:#7ACFE2"/>
											<stop  offset="0.3704" style="stop-color:#76D4E6"/>
											<stop  offset="0.8061" style="stop-color:#6BE2F2"/>
											<stop  offset="1" style="stop-color:#64EBF9"/>
										</linearGradient>
										<path class="st53" d="M229.3,124.8l-107.2,61.9c-1.2,0.7-2.9,0.8-4,0.2L54.2,150c-1-0.6-0.9-1.6,0.3-2.3l107.2-61.9
											c1.2-0.7,2.9-0.8,4-0.2l63.9,36.9C230.6,123.1,230.5,124.1,229.3,124.8z"/>
										<path class="st6" d="M229.3,124.3l-107.2,61.9c-1.2,0.7-2.9,0.8-4,0.2l-63.9-36.9c-0.4-0.2-0.6-0.5-0.6-0.7
											c-0.1,0.5,0.1,0.9,0.6,1.2l63.9,36.9c1,0.6,2.8,0.5,4-0.2l107.2-61.9c0.8-0.4,1.1-1,0.9-1.5
											C230.1,123.6,229.8,124,229.3,124.3z"/>
										<path class="st48" d="M89.8,173.3v-1.2c0-0.1,0.1-0.2,0.2-0.1l4.1,2.4c0.1,0,0.2,0.2,0.2,0.3v1.2c0,0.1-0.1,0.2-0.2,0.1
											l-4.1-2.4C89.9,173.5,89.8,173.4,89.8,173.3z"/>
										<path class="st48" d="M96,176.9v-1.2c0-0.1,0.1-0.2,0.2-0.1l4.1,2.4c0.1,0,0.2,0.2,0.2,0.3v1.2c0,0.1-0.1,0.2-0.2,0.1
											l-4.1-2.4C96.1,177.1,96,177,96,176.9z"/>
										<path class="st54" d="M70.9,146.5L160,95.1c0.6-0.3,1.3-0.3,1.9,0l31.7,18.3c0.5,0.3,0.5,0.9,0,1.2l-89,51.4
											c-0.6,0.3-1.3,0.3-1.9,0l-31.8-18.3C70.4,147.4,70.4,146.7,70.9,146.5z"/>
										
											<linearGradient id="SVGID_12_" gradientUnits="userSpaceOnUse" x1="70.5114" y1="88.5625" x2="193.875" y2="88.5625" gradientTransform="matrix(1 0 0 -1 0 210)">
											<stop  offset="0" style="stop-color:#51D9E0"/>
											<stop  offset="0.3951" style="stop-color:#55DDE5"/>
											<stop  offset="0.8601" style="stop-color:#60E7F3"/>
											<stop  offset="1" style="stop-color:#64EBF9"/>
										</linearGradient>
										<path class="st55" d="M70.9,147.7l0.3,0.2l88.7-51.2c0.6-0.3,1.3-0.3,1.9,0l31.4,18.2l0.3-0.2c0.5-0.3,0.5-0.9,0-1.2
											l-31.7-18.3c-0.6-0.3-1.3-0.3-1.9,0l-89.1,51.4C70.4,146.7,70.4,147.4,70.9,147.7z"/>
										<g>
											<polygon class="st48" points="164.3,99.7 86.9,144.4 83.5,142.4 160.8,97.7 											"/>
											<polygon class="st48" points="172.7,104.6 100.1,146.5 96.7,144.5 169.3,102.6 											"/>
											<polygon class="st48" points="178.2,107.7 92.8,157.1 89.3,155.1 174.8,105.8 											"/>
											<polygon class="st48" points="183.7,110.9 98.3,160.2 94.8,158.2 180.2,108.9 											"/>
											<polygon class="st48" points="189.2,114.1 103.8,163.4 100.3,161.4 185.7,112.1 											"/>
											<polygon class="st48" points="82.2,147.1 78.8,149 75.4,147.1 78.8,145.1 											"/>
											<polygon class="st48" points="94.4,149.8 87.2,153.9 83.8,151.9 90.9,147.8 											"/>
										</g>
										
											<linearGradient id="SVGID_13_" gradientUnits="userSpaceOnUse" x1="-1989.0581" y1="63.7625" x2="-1943.8197" y2="63.7625" gradientTransform="matrix(1 0 0 -1 2131.9236 210)">
											<stop  offset="0" style="stop-color:#74D7E8"/>
											<stop  offset="0.3021" style="stop-color:#78DCEB"/>
											<stop  offset="0.6574" style="stop-color:#83EAF3"/>
											<stop  offset="1" style="stop-color:#93FFFF"/>
										</linearGradient>
										<path class="st56" d="M163.4,158.9l24-13.9c0.9-0.5,0.9-1.4,0-2l-16.4-9.5c-0.9-0.5-2.5-0.5-3.4,0l-24,13.9
											c-0.9,0.5-0.9,1.4,0,2l16.4,9.5C160.9,159.5,162.4,159.5,163.4,158.9z"/>
										
											<linearGradient id="SVGID_14_" gradientUnits="userSpaceOnUse" x1="142.8743" y1="68.9375" x2="188.095" y2="68.9375" gradientTransform="matrix(1 0 0 -1 0 210)">
											<stop  offset="0" style="stop-color:#7ACFE2"/>
											<stop  offset="0.1721" style="stop-color:#77CBDD"/>
											<stop  offset="0.375" style="stop-color:#6DBECF"/>
											<stop  offset="0.5935" style="stop-color:#5DA9B7"/>
											<stop  offset="0.8214" style="stop-color:#488C96"/>
											<stop  offset="1" style="stop-color:#337077"/>
										</linearGradient>
										<path class="st57" d="M143.6,148.3l24-13.9c0.9-0.5,2.5-0.5,3.4,0l16.4,9.5c0.3,0.2,0.5,0.4,0.6,0.6
											c0.2-0.5,0.1-1-0.6-1.4l-16.4-9.5c-0.9-0.5-2.5-0.5-3.4,0l-24,13.9c-0.6,0.4-0.8,0.9-0.6,1.4
											C143.1,148.6,143.3,148.4,143.6,148.3z"/>
									</g>
								</g>
								<g class="st58">
									<g>
										<defs>
											<polygon id="SVGID_15_" points="146.8,6.2 42.4,66.5 55.4,142.8 159.7,82.6 											"/>
										</defs>
										<clipPath id="SVGID_16_">
											<use xlink:href="#SVGID_15_"  style="overflow:visible;"/>
										</clipPath>
										<g class="st59">
											
												<linearGradient id="SVGID_17_" gradientUnits="userSpaceOnUse" x1="-2086.5093" y1="112.95" x2="-1909.7456" y2="112.95" gradientTransform="matrix(1 0 0 -1 2131.9236 210)">
												<stop  offset="0" style="stop-color:#C0BFF6"/>
												<stop  offset="0.2938" style="stop-color:#C5C4F7"/>
												<stop  offset="0.6399" style="stop-color:#D3D2F9"/>
												<stop  offset="1" style="stop-color:#E9E9FD"/>
											</linearGradient>
											<path class="st60" d="M161.8,85.6L54.6,147.5c-1.2,0.7-2.9,0.8-4,0.2l-63.9-36.9c-1-0.6-0.9-1.6,0.3-2.3L94.2,46.6
												c1.2-0.7,2.9-0.8,4-0.2l63.9,36.9C163.1,83.9,163,85,161.8,85.6z"/>
											
												<linearGradient id="SVGID_18_" gradientUnits="userSpaceOnUse" x1="-2098.0986" y1="125.9625" x2="-2052.8601" y2="125.9625" gradientTransform="matrix(1 0 0 -1 2131.9236 210)">
												<stop  offset="0" style="stop-color:#C0BFF6"/>
												<stop  offset="0.2938" style="stop-color:#C5C4F7"/>
												<stop  offset="0.6399" style="stop-color:#D3D2F9"/>
												<stop  offset="1" style="stop-color:#E9E9FD"/>
											</linearGradient>
											<path class="st61" d="M54.3,96.7l24-13.9c0.9-0.5,0.9-1.4,0-2l-16.4-9.5c-0.9-0.5-2.5-0.5-3.4,0l-24,13.9
												c-0.9,0.5-0.9,1.4,0,2l16.4,9.5C51.8,97.3,53.4,97.3,54.3,96.7z"/>
											<path class="st62" d="M34.5,86.1l24-13.9c0.9-0.5,2.5-0.5,3.4,0l16.4,9.5c0.3,0.2,0.5,0.4,0.6,0.6c0.2-0.5,0.1-1-0.6-1.4
												l-16.4-9.5c-0.9-0.5-2.5-0.5-3.4,0l-24,13.9c-0.6,0.4-0.8,0.9-0.6,1.4C34,86.5,34.2,86.3,34.5,86.1z"/>
											<g>
												<path class="st63" d="M23.9,118.4L113,67c0.6-0.3,1.3-0.3,1.9,0l31.7,18.3c0.5,0.3,0.5,0.9,0,1.2l-89,51.4
													c-0.6,0.3-1.3,0.3-1.9,0l-31.8-18.3C23.5,119.3,23.5,118.7,23.9,118.4z"/>
												<path class="st62" d="M23.9,119.6l0.3,0.2l88.7-51.2c0.6-0.3,1.3-0.3,1.9,0l31.4,18.2l0.3-0.2c0.5-0.3,0.5-0.9,0-1.2
													L114.9,67c-0.6-0.3-1.3-0.3-1.9,0l-89.1,51.4C23.5,118.7,23.5,119.3,23.9,119.6z"/>
												<g>
													<polygon class="st48" points="138.3,84.1 60.7,128.9 63.8,130.6 141.4,85.9 													"/>
													<polygon class="st48" points="130.1,79.4 56.4,121.9 59.5,123.7 133.2,81.1 													"/>
													<polygon class="st48" points="50.9,125.1 44,129.1 47.1,130.9 54,126.9 													"/>
													<polygon class="st48" points="57,131 52.2,133.8 55.3,135.6 60.1,132.8 													"/>
													<polygon class="st48" points="125,76.4 38.9,126.1 42,127.9 128.1,78.2 													"/>
													<polygon class="st48" points="119.9,73.4 33.8,123.2 36.8,124.9 123,75.2 													"/>
													<polygon class="st48" points="114.8,70.5 28.6,120.2 31.7,122 117.8,72.3 													"/>
												</g>
											</g>
										</g>
									</g>
								</g>
							</g>
						</g>
					</g>
				</g>
			</g>
			<g>
				<g>
					<g>
						<polygon class="st11" points="103,55.9 102.7,53.7 100.7,54.8 101.1,57.1 						"/>
						<polygon class="st12" points="103.8,60.4 103.4,58.2 101.5,59.3 101.9,61.5 						"/>
						<polygon class="st13" points="104.6,64.9 104.2,62.7 102.3,63.8 102.6,66 						"/>
						<polygon class="st11" points="105.4,69.4 105,67.2 103,68.3 103.4,70.5 						"/>
						<polygon class="st13" points="106.1,73.9 105.7,71.6 103.8,72.8 104.2,75 						"/>
						<polygon class="st11" points="106.9,78.4 106.5,76.1 104.6,77.3 105,79.5 						"/>
						<polygon class="st11" points="107.7,82.9 107.3,80.6 105.3,81.7 105.7,84 						"/>
						<polygon class="st11" points="108.4,87.3 108.1,85.1 106.1,86.2 106.5,88.5 						"/>
						<polygon class="st12" points="109.2,91.8 108.8,89.6 106.9,90.7 107.3,93 						"/>
					</g>
					<g>
						<polygon class="st11" points="106.9,53.7 106.6,51.4 104.6,52.6 105,54.8 						"/>
						<polygon class="st11" points="107.7,58.2 107.3,55.9 105.4,57 105.8,59.3 						"/>
						<polygon class="st11" points="108.5,62.7 108.1,60.4 106.2,61.5 106.5,63.8 						"/>
						<polygon class="st11" points="109.3,67.1 108.9,64.9 106.9,66 107.3,68.3 						"/>
						<polygon class="st11" points="110,71.6 109.6,69.4 107.7,70.5 108.1,72.8 						"/>
						<polygon class="st11" points="110.8,76.1 110.4,73.9 108.5,75 108.9,77.2 						"/>
						<polygon class="st11" points="111.6,80.6 111.2,78.4 109.2,79.5 109.6,81.7 						"/>
						<polygon class="st11" points="112.3,85.1 112,82.8 110,84 110.4,86.2 						"/>
						<polygon class="st11" points="113.1,89.6 112.7,87.3 110.8,88.5 111.2,90.7 						"/>
					</g>
					<g>
						<polygon class="st11" points="110.8,51.4 110.5,49.2 108.5,50.3 108.9,52.5 						"/>
						<polygon class="st11" points="111.6,55.9 111.2,53.7 109.3,54.8 109.7,57 						"/>
						<polygon class="st11" points="112.4,60.4 112,58.2 110.1,59.3 110.4,61.5 						"/>
						<polygon class="st12" points="113.2,64.9 112.8,62.6 110.8,63.8 111.2,66 						"/>
						<polygon class="st13" points="113.9,69.4 113.5,67.1 111.6,68.3 112,70.5 						"/>
						<polygon class="st13" points="114.7,73.9 114.3,71.6 112.4,72.7 112.8,75 						"/>
						<polygon class="st11" points="115.5,78.3 115.1,76.1 113.1,77.2 113.5,79.5 						"/>
						<polygon class="st11" points="116.2,82.8 115.9,80.6 113.9,81.7 114.3,84 						"/>
						<polygon class="st11" points="117,87.3 116.6,85.1 114.7,86.2 115.1,88.4 						"/>
					</g>
					<g>
						<polygon class="st13" points="114.7,49.2 114.4,46.9 112.4,48 112.8,50.3 						"/>
						<polygon class="st13" points="115.5,53.7 115.1,51.4 113.2,52.5 113.6,54.8 						"/>
						<polygon class="st12" points="116.3,58.1 115.9,55.9 114,57 114.3,59.3 						"/>
						<polygon class="st11" points="117.1,62.6 116.7,60.4 114.7,61.5 115.1,63.8 						"/>
						<polygon class="st11" points="117.8,67.1 117.4,64.9 115.5,66 115.9,68.2 						"/>
						<polygon class="st11" points="118.6,71.6 118.2,69.4 116.3,70.5 116.7,72.7 						"/>
						<polygon class="st13" points="119.4,76.1 119,73.8 117,75 117.4,77.2 						"/>
						<polygon class="st11" points="120.1,80.6 119.8,78.3 117.8,79.5 118.2,81.7 						"/>
						<polygon class="st11" points="120.9,85.1 120.5,82.8 118.6,83.9 119,86.2 						"/>
					</g>
					<g>
						<polygon class="st11" points="118.6,46.9 118.3,44.7 116.3,45.8 116.7,48 						"/>
						<polygon class="st11" points="119.4,51.4 119,49.2 117.1,50.3 117.5,52.5 						"/>
						<polygon class="st11" points="120.2,55.9 119.8,53.6 117.9,54.8 118.2,57 						"/>
						<polygon class="st11" points="121,60.4 120.6,58.1 118.6,59.3 119,61.5 						"/>
						<polygon class="st11" points="121.7,64.9 121.3,62.6 119.4,63.7 119.8,66 						"/>
						<polygon class="st11" points="122.5,69.3 122.1,67.1 120.2,68.2 120.6,70.5 						"/>
						<polygon class="st11" points="123.3,73.8 122.9,71.6 120.9,72.7 121.3,75 						"/>
						<polygon class="st11" points="124,78.3 123.7,76.1 121.7,77.2 122.1,79.4 						"/>
						<polygon class="st11" points="124.8,82.8 124.4,80.6 122.5,81.7 122.9,83.9 						"/>
					</g>
					<g>
						<polygon class="st11" points="122.5,44.7 122.2,42.4 120.2,43.5 120.6,45.8 						"/>
						<polygon class="st11" points="123.3,49.1 122.9,46.9 121,48 121.4,50.3 						"/>
						<polygon class="st13" points="124.1,53.6 123.7,51.4 121.8,52.5 122.1,54.8 						"/>
						<polygon class="st11" points="124.9,58.1 124.5,55.9 122.5,57 122.9,59.2 						"/>
						<polygon class="st12" points="125.6,62.6 125.2,60.4 123.3,61.5 123.7,63.7 						"/>
						<polygon class="st11" points="126.4,67.1 126,64.8 124.1,66 124.5,68.2 						"/>
						<polygon class="st11" points="127.2,71.6 126.8,69.3 124.8,70.5 125.2,72.7 						"/>
						<polygon class="st11" points="127.9,76.1 127.6,73.8 125.6,74.9 126,77.2 						"/>
						<polygon class="st11" points="128.7,80.5 128.3,78.3 126.4,79.4 126.8,81.7 						"/>
					</g>
					<g>
						<polygon class="st11" points="126.4,42.4 126.1,40.2 124.1,41.3 124.5,43.5 						"/>
						<polygon class="st11" points="127.2,46.9 126.8,44.6 124.9,45.8 125.3,48 						"/>
						<polygon class="st13" points="128,51.4 127.6,49.1 125.7,50.3 126,52.5 						"/>
						<polygon class="st11" points="128.8,55.9 128.4,53.6 126.4,54.7 126.8,57 						"/>
						<polygon class="st11" points="129.5,60.3 129.1,58.1 127.2,59.2 127.6,61.5 						"/>
						<polygon class="st12" points="130.3,64.8 129.9,62.6 128,63.7 128.4,66 						"/>
						<polygon class="st13" points="131.1,69.3 130.7,67.1 128.7,68.2 129.1,70.4 						"/>
						<polygon class="st11" points="131.8,73.8 131.5,71.6 129.5,72.7 129.9,74.9 						"/>
						<polygon class="st12" points="132.6,78.3 132.2,76 130.3,77.2 130.7,79.4 						"/>
					</g>
					<g>
						<polygon class="st11" points="130.3,40.1 130,37.9 128,39 128.4,41.3 						"/>
						<polygon class="st13" points="131.1,44.6 130.7,42.4 128.8,43.5 129.2,45.8 						"/>
						<polygon class="st11" points="131.9,49.1 131.5,46.9 129.6,48 129.9,50.2 						"/>
						<polygon class="st11" points="132.7,53.6 132.3,51.4 130.3,52.5 130.7,54.7 						"/>
						<polygon class="st11" points="133.4,58.1 133,55.8 131.1,57 131.5,59.2 						"/>
						<polygon class="st11" points="134.2,62.6 133.8,60.3 131.9,61.5 132.3,63.7 						"/>
						<polygon class="st11" points="135,67.1 134.6,64.8 132.6,65.9 133,68.2 						"/>
						<polygon class="st13" points="135.7,71.5 135.4,69.3 133.4,70.4 133.8,72.7 						"/>
						<polygon class="st11" points="136.5,76 136.1,73.8 134.2,74.9 134.6,77.2 						"/>
					</g>
					<g>
						<polygon class="st11" points="134.2,37.9 133.9,35.6 131.9,36.8 132.3,39 						"/>
						<polygon class="st12" points="135,42.4 134.6,40.1 132.7,41.3 133.1,43.5 						"/>
						<polygon class="st11" points="135.8,46.9 135.4,44.6 133.5,45.7 133.8,48 						"/>
						<polygon class="st11" points="136.6,51.3 136.2,49.1 134.2,50.2 134.6,52.5 						"/>
						<polygon class="st11" points="137.3,55.8 136.9,53.6 135,54.7 135.4,57 						"/>
						<polygon class="st11" points="138.1,60.3 137.7,58.1 135.8,59.2 136.2,61.4 						"/>
						<polygon class="st13" points="138.9,64.8 138.5,62.6 136.5,63.7 136.9,65.9 						"/>
						<polygon class="st11" points="139.6,69.3 139.3,67 137.3,68.2 137.7,70.4 						"/>
						<polygon class="st11" points="140.4,73.8 140,71.5 138.1,72.7 138.5,74.9 						"/>
					</g>
				</g>
				<g>
					<g>
						<polygon class="st11" points="68,76.1 67.6,73.9 65.7,75 66,77.3 						"/>
						<polygon class="st12" points="68.8,80.6 68.4,78.4 66.4,79.5 66.8,81.7 						"/>
						<polygon class="st13" points="69.5,85.1 69.1,82.9 67.2,84 67.6,86.2 						"/>
						<polygon class="st11" points="70.3,89.6 69.9,87.4 68,88.5 68.4,90.7 						"/>
						<polygon class="st13" points="71.1,94.1 70.7,91.8 68.7,93 69.1,95.2 						"/>
						<polygon class="st11" points="71.8,98.6 71.5,96.3 69.5,97.5 69.9,99.7 						"/>
						<polygon class="st11" points="72.6,103.1 72.2,100.8 70.3,101.9 70.7,104.2 						"/>
						<polygon class="st11" points="73.4,107.5 73,105.3 71.1,106.4 71.4,108.7 						"/>
						<polygon class="st12" points="74.2,112 73.8,109.8 71.8,110.9 72.2,113.2 						"/>
					</g>
					<g>
						<polygon class="st11" points="71.9,73.9 71.5,71.6 69.6,72.8 69.9,75 						"/>
						<polygon class="st11" points="72.7,78.4 72.3,76.1 70.3,77.3 70.7,79.5 						"/>
						<polygon class="st11" points="73.4,82.9 73,80.6 71.1,81.7 71.5,84 						"/>
						<polygon class="st11" points="74.2,87.3 73.8,85.1 71.9,86.2 72.3,88.5 						"/>
						<polygon class="st11" points="75,91.8 74.6,89.6 72.6,90.7 73,93 						"/>
						<polygon class="st11" points="75.7,96.3 75.4,94.1 73.4,95.2 73.8,97.4 						"/>
						<polygon class="st11" points="76.5,100.8 76.1,98.6 74.2,99.7 74.6,101.9 						"/>
						<polygon class="st11" points="77.3,105.3 76.9,103 75,104.2 75.3,106.4 						"/>
						<polygon class="st11" points="78.1,109.8 77.7,107.5 75.7,108.7 76.1,110.9 						"/>
					</g>
					<g>
						<polygon class="st11" points="75.8,71.6 75.4,69.4 73.5,70.5 73.8,72.8 						"/>
						<polygon class="st11" points="76.6,76.1 76.2,73.9 74.2,75 74.6,77.2 						"/>
						<polygon class="st11" points="77.3,80.6 76.9,78.4 75,79.5 75.4,81.7 						"/>
						<polygon class="st12" points="78.1,85.1 77.7,82.8 75.8,84 76.2,86.2 						"/>
						<polygon class="st13" points="78.9,89.6 78.5,87.3 76.5,88.5 76.9,90.7 						"/>
						<polygon class="st13" points="79.6,94.1 79.3,91.8 77.3,92.9 77.7,95.2 						"/>
						<polygon class="st11" points="80.4,98.5 80,96.3 78.1,97.4 78.5,99.7 						"/>
						<polygon class="st11" points="81.2,103 80.8,100.8 78.9,101.9 79.2,104.2 						"/>
						<polygon class="st11" points="82,107.5 81.6,105.3 79.6,106.4 80,108.6 						"/>
					</g>
					<g>
						<polygon class="st13" points="79.7,69.4 79.3,67.1 77.4,68.3 77.7,70.5 						"/>
						<polygon class="st13" points="80.5,73.9 80.1,71.6 78.1,72.7 78.5,75 						"/>
						<polygon class="st12" points="81.2,78.3 80.8,76.1 78.9,77.2 79.3,79.5 						"/>
						<polygon class="st11" points="82,82.8 81.6,80.6 79.7,81.7 80.1,84 						"/>
						<polygon class="st11" points="82.8,87.3 82.4,85.1 80.4,86.2 80.8,88.4 						"/>
						<polygon class="st11" points="83.5,91.8 83.2,89.6 81.2,90.7 81.6,92.9 						"/>
						<polygon class="st13" points="84.3,96.3 83.9,94 82,95.2 82.4,97.4 						"/>
						<polygon class="st11" points="85.1,100.8 84.7,98.5 82.8,99.7 83.1,101.9 						"/>
						<polygon class="st11" points="85.9,105.3 85.5,103 83.5,104.1 83.9,106.4 						"/>
					</g>
					<g>
						<polygon class="st11" points="83.6,67.1 83.2,64.9 81.3,66 81.6,68.2 						"/>
						<polygon class="st11" points="84.4,71.6 84,69.4 82,70.5 82.4,72.7 						"/>
						<polygon class="st11" points="85.1,76.1 84.7,73.8 82.8,75 83.2,77.2 						"/>
						<polygon class="st11" points="85.9,80.6 85.5,78.3 83.6,79.5 84,81.7 						"/>
						<polygon class="st11" points="86.7,85.1 86.3,82.8 84.3,83.9 84.7,86.2 						"/>
						<polygon class="st11" points="87.4,89.5 87.1,87.3 85.1,88.4 85.5,90.7 						"/>
						<polygon class="st11" points="88.2,94 87.8,91.8 85.9,92.9 86.3,95.2 						"/>
						<polygon class="st11" points="89,98.5 88.6,96.3 86.7,97.4 87,99.6 						"/>
						<polygon class="st11" points="89.8,103 89.4,100.8 87.4,101.9 87.8,104.1 						"/>
					</g>
					<g>
						<polygon class="st11" points="87.5,64.9 87.1,62.6 85.2,63.7 85.5,66 						"/>
						<polygon class="st11" points="88.3,69.3 87.9,67.1 85.9,68.2 86.3,70.5 						"/>
						<polygon class="st13" points="89,73.8 88.6,71.6 86.7,72.7 87.1,75 						"/>
						<polygon class="st11" points="89.8,78.3 89.4,76.1 87.5,77.2 87.9,79.4 						"/>
						<polygon class="st12" points="90.6,82.8 90.2,80.6 88.2,81.7 88.6,83.9 						"/>
						<polygon class="st11" points="91.3,87.3 91,85 89,86.2 89.4,88.4 						"/>
						<polygon class="st11" points="92.1,91.8 91.7,89.5 89.8,90.7 90.2,92.9 						"/>
						<polygon class="st11" points="92.9,96.3 92.5,94 90.6,95.1 90.9,97.4 						"/>
						<polygon class="st11" points="93.7,100.7 93.3,98.5 91.3,99.6 91.7,101.9 						"/>
					</g>
					<g>
						<polygon class="st11" points="91.4,62.6 91,60.4 89.1,61.5 89.4,63.7 						"/>
						<polygon class="st11" points="92.2,67.1 91.8,64.8 89.8,66 90.2,68.2 						"/>
						<polygon class="st13" points="92.9,71.6 92.5,69.3 90.6,70.5 91,72.7 						"/>
						<polygon class="st11" points="93.7,76.1 93.3,73.8 91.4,74.9 91.8,77.2 						"/>
						<polygon class="st11" points="94.5,80.5 94.1,78.3 92.1,79.4 92.5,81.7 						"/>
						<polygon class="st12" points="95.2,85 94.9,82.8 92.9,83.9 93.3,86.2 						"/>
						<polygon class="st13" points="96,89.5 95.6,87.3 93.7,88.4 94.1,90.6 						"/>
						<polygon class="st11" points="96.8,94 96.4,91.8 94.5,92.9 94.8,95.1 						"/>
						<polygon class="st12" points="97.6,98.5 97.2,96.2 95.2,97.4 95.6,99.6 						"/>
					</g>
					<g>
						<polygon class="st11" points="95.3,60.3 94.9,58.1 93,59.2 93.3,61.5 						"/>
						<polygon class="st13" points="96.1,64.8 95.7,62.6 93.7,63.7 94.1,66 						"/>
						<polygon class="st11" points="96.8,69.3 96.4,67.1 94.5,68.2 94.9,70.4 						"/>
						<polygon class="st11" points="97.6,73.8 97.2,71.6 95.3,72.7 95.7,74.9 						"/>
						<polygon class="st11" points="98.4,78.3 98,76 96,77.2 96.4,79.4 						"/>
						<polygon class="st11" points="99.1,82.8 98.8,80.5 96.8,81.7 97.2,83.9 						"/>
						<polygon class="st11" points="99.9,87.3 99.5,85 97.6,86.1 98,88.4 						"/>
						<polygon class="st13" points="100.7,91.7 100.3,89.5 98.4,90.6 98.7,92.9 						"/>
						<polygon class="st11" points="101.5,96.2 101.1,94 99.1,95.1 99.5,97.4 						"/>
					</g>
					<g>
						<polygon class="st11" points="99.2,58.1 98.8,55.8 96.9,57 97.2,59.2 						"/>
						<polygon class="st12" points="100,62.6 99.6,60.3 97.6,61.5 98,63.7 						"/>
						<polygon class="st11" points="100.7,67.1 100.3,64.8 98.4,65.9 98.8,68.2 						"/>
						<polygon class="st11" points="101.5,71.5 101.1,69.3 99.2,70.4 99.6,72.7 						"/>
						<polygon class="st11" points="102.3,76 101.9,73.8 99.9,74.9 100.3,77.2 						"/>
						<polygon class="st11" points="103,80.5 102.7,78.3 100.7,79.4 101.1,81.6 						"/>
						<polygon class="st13" points="103.8,85 103.4,82.8 101.5,83.9 101.9,86.1 						"/>
						<polygon class="st11" points="104.6,89.5 104.2,87.2 102.3,88.4 102.6,90.6 						"/>
						<polygon class="st11" points="105.4,94 105,91.7 103,92.9 103.4,95.1 						"/>
					</g>
				</g>
			</g>
		</g>
		<g>
			<path class="st9" d="M79.6,124.5v35.4c0,2-0.6,3.8-1.7,5.3c-1.6,2.2-4.2,3.6-7.2,3.6H47.6c-4.9,0-8.9-4-8.9-8.9v-35.4
				c0-3.7,2.2-6.8,5.4-8.2c1.1-0.5,2.3-0.7,3.5-0.7h23.1C75.6,115.7,79.6,119.6,79.6,124.5z"/>
			<path class="st64" d="M79.6,124.5v35.4c0,2-0.6,3.8-1.7,5.3c-1.1,0.5-2.3,0.7-3.5,0.7H51.3c-4.9,0-8.9-4-8.9-8.9v-35.4
				c0-2,0.6-3.8,1.7-5.3c1.1-0.5,2.3-0.7,3.5-0.7h23.1C75.6,115.7,79.6,119.6,79.6,124.5z"/>
			<path class="st65" d="M62.6,147.8v4.2c0,0.7-0.6,1.3-1.3,1.3h-4.2c-0.7,0-1.3-0.6-1.3-1.3v-4.2c0-0.7,0.6-1.3,1.3-1.3h4.2
				C62,146.5,62.6,147.1,62.6,147.8z"/>
			<g>
				<path class="st9" d="M51.7,147.8v4.2c0,0.7-0.6,1.3-1.3,1.3h-4.2c-0.7,0-1.3-0.6-1.3-1.3v-4.2c0-0.7,0.6-1.3,1.3-1.3h4.2
					C51.1,146.5,51.7,147.1,51.7,147.8z"/>
				<path class="st9" d="M62.6,136.9v4.2c0,0.7-0.6,1.3-1.3,1.3h-4.2c-0.7,0-1.3-0.6-1.3-1.3v-4.2c0-0.7,0.6-1.3,1.3-1.3h4.2
					C62,135.6,62.6,136.2,62.6,136.9z"/>
			</g>
			<g>
				<path class="st9" d="M51.7,136.9v4.2c0,0.7-0.6,1.3-1.3,1.3h-4.2c-0.7,0-1.3-0.6-1.3-1.3v-4.2c0-0.7,0.6-1.3,1.3-1.3h4.2
					C51.1,135.6,51.7,136.2,51.7,136.9z"/>
				<path class="st9" d="M62.6,158.1v4.2c0,0.7-0.6,1.3-1.3,1.3h-4.2c-0.7,0-1.3-0.6-1.3-1.3v-4.2c0-0.7,0.6-1.3,1.3-1.3h4.2
					C62,156.8,62.6,157.4,62.6,158.1z"/>
				<path class="st9" d="M51.7,158.1v4.2c0,0.7-0.6,1.3-1.3,1.3h-4.2c-0.7,0-1.3-0.6-1.3-1.3v-4.2c0-0.7,0.6-1.3,1.3-1.3h4.2
					C51.1,156.8,51.7,157.4,51.7,158.1z"/>
			</g>
			<g>
				<path class="st9" d="M62.6,147.8v1.2c0,0.7-0.6,1.3-1.3,1.3h-4.2c-0.7,0-1.3-0.6-1.3-1.3v-1.2c0-0.7,0.6-1.3,1.3-1.3h4.2
					C62,146.5,62.6,147.1,62.6,147.8z"/>
				<path class="st9" d="M51.7,147.8v1.2c0,0.7-0.6,1.3-1.3,1.3h-4.2c-0.7,0-1.3-0.6-1.3-1.3v-1.2c0-0.7,0.6-1.3,1.3-1.3h4.2
					C51.1,146.5,51.7,147.1,51.7,147.8z"/>
				<path class="st9" d="M62.6,136.9v1.2c0,0.7-0.6,1.3-1.3,1.3h-4.2c-0.7,0-1.3-0.6-1.3-1.3v-1.2c0-0.7,0.6-1.3,1.3-1.3h4.2
					C62,135.6,62.6,136.2,62.6,136.9z"/>
			</g>
			<g>
				<path class="st9" d="M51.7,136.9v1.2c0,0.7-0.6,1.3-1.3,1.3h-4.2c-0.7,0-1.3-0.6-1.3-1.3v-1.2c0-0.7,0.6-1.3,1.3-1.3h4.2
					C51.1,135.6,51.7,136.2,51.7,136.9z"/>
				<path class="st9" d="M62.6,158.1v1.2c0,0.7-0.6,1.3-1.3,1.3h-4.2c-0.7,0-1.3-0.6-1.3-1.3v-1.2c0-0.7,0.6-1.3,1.3-1.3h4.2
					C62,156.8,62.6,157.4,62.6,158.1z"/>
				<path class="st9" d="M51.7,158.1v1.2c0,0.7-0.6,1.3-1.3,1.3h-4.2c-0.7,0-1.3-0.6-1.3-1.3v-1.2c0-0.7,0.6-1.3,1.3-1.3h4.2
					C51.1,156.8,51.7,157.4,51.7,158.1z"/>
			</g>
			<path class="st66" d="M52.1,129.8h-4.4c-0.9,0-1.7-0.7-1.7-1.7v-4.4c0-0.9,0.7-1.7,1.7-1.7h22.9c0.9,0,1.7,0.7,1.7,1.7v4.4
				c0,0.9-0.7,1.7-1.7,1.7H57.3c-0.7,0-1.2,0.5-1.2,1.2s0.5,1.2,1.2,1.2h13.3c2.3,0,4.1-1.8,4.1-4.1v-4.4c0-2.2-1.8-4.1-4.1-4.1
				H47.7c-2.3,0-4.1,1.8-4.1,4.1v4.4c0,2.3,1.8,4.1,4.1,4.1h4.4c0.7,0,1.2-0.5,1.2-1.2S52.8,129.8,52.1,129.8z"/>
			<path class="st66" d="M46.2,154.5h4.2c1.4,0,2.5-1.1,2.5-2.5v-4.2c0-1.4-1.1-2.5-2.5-2.5h-4.2c-1.4,0-2.5,1.1-2.5,2.5v4.2
				C43.6,153.3,44.8,154.5,46.2,154.5z M46.1,147.8c0-0.1,0.1-0.1,0.1-0.1h4.2c0.1,0,0.1,0.1,0.1,0.1v4.2c0,0.1-0.1,0.1-0.1,0.1
				h-4.2c-0.1,0-0.1-0.1-0.1-0.1V147.8z"/>
			<path class="st66" d="M72.3,134.4h-4.2c-1.4,0-2.5,1.1-2.5,2.5v4.2c0,1.4,1.1,2.5,2.5,2.5h4.2c1.4,0,2.5-1.1,2.5-2.5v-4.2
				C74.9,135.5,73.7,134.4,72.3,134.4z M72.4,141.1c0,0.1-0.1,0.1-0.1,0.1h-4.2c-0.1,0-0.1-0.1-0.1-0.1c0.1-4.1-0.1-4.3,0.1-4.3h4.2
				c0.1,0,0.1,0.1,0.1,0.1V141.1z"/>
			<path class="st66" d="M46.2,143.6h4.2c1.4,0,2.5-1.1,2.5-2.5v-4.2c0-1.4-1.1-2.5-2.5-2.5h-4.2c-1.4,0-2.5,1.1-2.5,2.5v4.2
				C43.6,142.5,44.8,143.6,46.2,143.6z M46.1,136.9c0-0.1,0.1-0.1,0.1-0.1h4.2c0.1,0,0.1,0.1,0.1,0.1v4.2c0,0.1-0.1,0.1-0.1,0.1
				h-4.2c-0.1,0-0.1-0.1-0.1-0.1V136.9z"/>
			<path class="st66" d="M52.2,156.4c-0.5-0.5-1.1-0.9-1.9-0.9h-4.2c-0.8,0-1.4,0.3-1.9,0.9c-0.9,1-0.6,2.1-0.6,2.6v3.2
				c0,1.4,1.1,2.5,2.5,2.5h4.2c1.4,0,2.5-1.1,2.5-2.5V159C52.8,158.5,53.1,157.4,52.2,156.4z M50.3,162.4c-4.1-0.1-4.3,0.1-4.3-0.1
				c0-4.4,0-4.3,0.1-4.3h4.2c0.2,0,0.1,0.3,0.1,1C50.5,159,50.6,162.4,50.3,162.4z"/>
			<path class="st66" d="M71.7,145.2h-2.9c-1.8,0-3.2,1.4-3.2,3.2v12.9c0,1.9,1.6,3.5,3.5,3.5h2.3c1.9,0,3.5-1.6,3.5-3.5v-12.9
				C74.9,146.7,73.4,145.2,71.7,145.2z M72.4,161.3c0,0.6-0.5,1.1-1.1,1.1H69c-0.6,0-1.1-0.5-1.1-1.1v-12.9c0-0.4,0.3-0.8,0.8-0.8
				h2.9c0.4,0,0.8,0.3,0.8,0.8L72.4,161.3L72.4,161.3z"/>
			<path class="st66" d="M61.3,155.6h-4.2c-0.8,0-1.4,0.3-1.9,0.9c-0.9,1-0.6,2.1-0.6,2.6v3.2c0,1.4,1.1,2.5,2.5,2.5h4.2
				c1.4,0,2.5-1.1,2.5-2.5v-4.2c0-0.7-0.3-1.4-0.8-1.8C62.6,155.8,61.9,155.6,61.3,155.6z M61.3,162.4c-4.1-0.1-4.3,0.1-4.3-0.1
				v-4.2c0-0.1,0.1-0.1,0.1-0.1h4.2c0.1,0,0.1,0.1,0.1,0.1C61.3,162.2,61.5,162.4,61.3,162.4z"/>
			<path class="st66" d="M61.3,134.4h-4.2c-1.4,0-2.5,1.1-2.5,2.5v4.2c0,1.4,1.1,2.5,2.5,2.5h4.2c0.3,0,0.6-0.1,0.9-0.2
				c0.9-0.4,1.6-1.3,1.6-2.4v-4.2C63.8,135.5,62.7,134.4,61.3,134.4z M61.4,141.1c0,0.1-0.1,0.1-0.1,0.1h-4.2
				c-0.1,0-0.1-0.1-0.1-0.1v-4.2c0-0.2,0.2-0.1,4.3-0.1c0.1,0,0.1,0.1,0.1,0.1V141.1L61.4,141.1z"/>
			<path class="st66" d="M62.2,145.4c-0.3-0.1-0.6-0.2-0.9-0.2h-4.2c-1.4,0-2.5,1.1-2.5,2.5v4.2c0,1.4,1.1,2.5,2.5,2.5h4.2
				c1.4,0,2.5-1.1,2.5-2.5v-4.2C63.8,146.7,63.1,145.8,62.2,145.4z M61.4,151.9c0,0.1-0.1,0.1-0.1,0.1h-4.2c-0.1,0-0.1-0.1-0.1-0.1
				v-4.2c0-0.1,0.1-0.1,0.1-0.1h4.2c0.1,0,0.1,0.1,0.1,0.1V151.9z"/>
		</g>
	</g>
</g>
</svg>
