<svg id="Layer_1" data-name="Layer 1" xmlns="http://www.w3.org/2000/svg" viewBox="0 0 84 80"><defs><style>.cls-1{opacity:0.05;}.cls-2{fill:#009ece;}</style></defs><g class="cls-1"><path d="M81.76,38.33A12.67,12.67,0,0,1,69.09,51H61.36C63.72,37,55,39,55,39H35c-13,0-13,4-13,4v8H17.5a14.25,14.25,0,0,1-2.79-28.22A9.89,9.89,0,0,1,28.43,15,23.21,23.21,0,0,1,72,26,12.68,12.68,0,0,1,81.76,38.33Z"/></g><path class="cls-2" d="M54.21,37H29.29A8.31,8.31,0,0,0,21,45.29V58.71A8.31,8.31,0,0,0,29.29,67h8.09l-2.87,3.74a1.26,1.26,0,0,0-.13.26H33.5a4,4,0,0,0,0,8h16a4,4,0,0,0,0-8h-.38a1.26,1.26,0,0,0-.13-.26L46.12,67h8.09a8.31,8.31,0,0,0,8.29-8.29V45.29A8.31,8.31,0,0,0,54.21,37ZM51,75a1.5,1.5,0,0,1-1.5,1.5h-16a1.5,1.5,0,0,1,0-3h16A1.5,1.5,0,0,1,51,75Zm-7.84-7.74L46,71H37.46l2.88-3.74a1.26,1.26,0,0,0,.13-.26H43A1.26,1.26,0,0,0,43.16,67.26ZM54.21,64.5H29.29a5.8,5.8,0,0,1-5.79-5.75h26a1.25,1.25,0,0,0,0-2.5h-26v-11a5.8,5.8,0,0,1,5.79-5.79H54.21A5.8,5.8,0,0,1,60,45.29v11H54a1.25,1.25,0,0,0,0,2.5h6A5.8,5.8,0,0,1,54.21,64.5Z"/><path class="cls-2" d="M82,50.13a1.49,1.49,0,0,0-1-.61h0l-.25,0H71.4l2.4-2.4a1.56,1.56,0,0,0,.21-2,1.51,1.51,0,0,0-2.1-.32l-.16.14-5,5A1.5,1.5,0,0,0,66.3,51a1.54,1.54,0,0,0,.44,1.07l5,5a1.49,1.49,0,0,0,1.06.44,1.52,1.52,0,0,0,1.07-.45l.14-.16a1.54,1.54,0,0,0-.21-2L71.4,52.51h9.31a1.54,1.54,0,0,0,1.56-1.26A1.48,1.48,0,0,0,82,50.13Z"/><path class="cls-2" d="M10.84,44.92l-.15-.13a1.51,1.51,0,0,0-2.11.34,1.53,1.53,0,0,0,.2,2L11.2,49.5H1.82l-.25,0h0a1.51,1.51,0,0,0,.31,3h9.32l-2.4,2.41a1.55,1.55,0,0,0-.2,2l.13.15a1.51,1.51,0,0,0,2.13,0l5-5a1.49,1.49,0,0,0,0-2.12ZM1.64,50Z"/><path class="cls-2" d="M40.24,32.56a1.51,1.51,0,0,0,2.13,0l5-5,.13-.15a1.53,1.53,0,0,0,.27-1.12,1.5,1.5,0,0,0-.61-1,1.53,1.53,0,0,0-2,.21L42.79,27.9V18.53a1.23,1.23,0,0,0,0-.27,1.5,1.5,0,0,0-3,.31V27.9l-2.41-2.41a1.55,1.55,0,0,0-2-.19.86.86,0,0,0-.14.13,1.49,1.49,0,0,0,0,2.12Z"/></svg>