<svg width="360" height="203" viewBox="0 0 360 203" fill="none" xmlns="http://www.w3.org/2000/svg">
<path d="M0 5C0 2.23858 2.23858 0 5 0H355C357.761 0 360 2.23858 360 5V203H0V5Z" fill="url(#paint0_linear_125_479)"/>
<path d="M25.2405 153.253C25.2916 153.253 25.3363 153.274 25.3746 153.316L25.7435 153.713C25.4624 154.039 25.1207 154.293 24.7184 154.475C24.3192 154.657 23.8354 154.748 23.2669 154.748C22.7751 154.748 22.328 154.663 21.9257 154.494C21.5233 154.322 21.18 154.082 20.8958 153.775C20.6116 153.466 20.3912 153.095 20.2347 152.664C20.0782 152.233 20 151.759 20 151.241C20 150.724 20.0814 150.25 20.2443 149.819C20.4072 149.388 20.6355 149.017 20.9293 148.707C21.2263 148.398 21.5808 148.158 21.9927 147.989C22.4047 147.816 22.8598 147.73 23.3579 147.73C23.8465 147.73 24.2777 147.808 24.6513 147.965C25.0249 148.121 25.3539 148.334 25.6381 148.602L25.3315 149.028C25.3123 149.06 25.2868 149.087 25.2549 149.11C25.2261 149.129 25.1862 149.139 25.1351 149.139C25.0776 149.139 25.0074 149.108 24.9243 149.048C24.8413 148.984 24.7327 148.913 24.5986 148.837C24.4645 148.76 24.2968 148.691 24.0956 148.631C23.8944 148.567 23.6469 148.535 23.3531 148.535C22.9987 148.535 22.6745 148.597 22.3807 148.722C22.0869 148.843 21.8331 149.02 21.6191 149.253C21.4083 149.487 21.2439 149.771 21.1257 150.106C21.0075 150.441 20.9485 150.82 20.9485 151.241C20.9485 151.669 21.0091 152.051 21.1305 152.386C21.255 152.722 21.4227 153.006 21.6335 153.239C21.8474 153.469 22.0981 153.645 22.3855 153.766C22.6761 153.887 22.9891 153.948 23.3244 153.948C23.5288 153.948 23.7124 153.937 23.8753 153.914C24.0413 153.889 24.193 153.85 24.3304 153.799C24.4709 153.748 24.6002 153.684 24.7184 153.608C24.8397 153.528 24.9595 153.434 25.0776 153.325C25.1319 153.277 25.1862 153.253 25.2405 153.253Z" fill="#82A7DB"/>
<path d="M28.8472 151.366C29.1123 151.366 29.3454 151.331 29.5466 151.261C29.751 151.19 29.9218 151.093 30.0591 150.968C30.1997 150.841 30.305 150.689 30.3753 150.513C30.4456 150.338 30.4807 150.144 30.4807 149.934C30.4807 149.496 30.345 149.154 30.0735 148.909C29.8053 148.663 29.3965 148.54 28.8472 148.54H27.7455V151.366H28.8472ZM28.8472 147.807C29.2815 147.807 29.6584 147.858 29.9777 147.96C30.3002 148.059 30.5669 148.201 30.7777 148.386C30.9884 148.572 31.1449 148.795 31.2471 149.057C31.3525 149.319 31.4052 149.611 31.4052 149.934C31.4052 150.253 31.3493 150.545 31.2375 150.81C31.1258 151.075 30.9613 151.304 30.7441 151.495C30.5302 151.687 30.2635 151.837 29.9442 151.946C29.628 152.051 29.2624 152.104 28.8472 152.104H27.7455V154.671H26.821V147.807H28.8472Z" fill="#82A7DB"/>
<path d="M35.2238 153.934C35.508 153.934 35.7619 153.886 35.9855 153.79C36.209 153.694 36.3974 153.56 36.5507 153.387C36.7072 153.215 36.8253 153.009 36.9052 152.769C36.9882 152.53 37.0297 152.267 37.0297 151.979V147.807H37.9542V151.979C37.9542 152.375 37.8904 152.742 37.7626 153.081C37.6381 153.419 37.4576 153.713 37.2213 153.962C36.9882 154.208 36.7024 154.401 36.3639 154.542C36.0254 154.682 35.6453 154.753 35.2238 154.753C34.8023 154.753 34.4222 154.682 34.0837 154.542C33.7452 154.401 33.4578 154.208 33.2215 153.962C32.9852 153.713 32.8032 153.419 32.6754 153.081C32.5509 152.742 32.4886 152.375 32.4886 151.979V147.807H33.4131V151.974C33.4131 152.262 33.453 152.525 33.5329 152.765C33.6159 153.004 33.7341 153.21 33.8873 153.383C34.0438 153.555 34.2338 153.691 34.4574 153.79C34.6841 153.886 34.9396 153.934 35.2238 153.934Z" fill="#82A7DB"/>
<path d="M44.0973 151.366C44.3624 151.366 44.5955 151.331 44.7967 151.261C45.0011 151.19 45.1719 151.093 45.3092 150.968C45.4497 150.841 45.5551 150.689 45.6254 150.513C45.6956 150.338 45.7308 150.144 45.7308 149.934C45.7308 149.496 45.595 149.154 45.3236 148.909C45.0553 148.663 44.6466 148.54 44.0973 148.54H42.9956V151.366H44.0973ZM44.0973 147.807C44.5316 147.807 44.9084 147.858 45.2278 147.96C45.5503 148.059 45.817 148.201 46.0278 148.386C46.2385 148.572 46.395 148.795 46.4972 149.057C46.6026 149.319 46.6553 149.611 46.6553 149.934C46.6553 150.253 46.5994 150.545 46.4876 150.81C46.3758 151.075 46.2114 151.304 45.9942 151.495C45.7803 151.687 45.5136 151.837 45.1943 151.946C44.8781 152.051 44.5125 152.104 44.0973 152.104H42.9956V154.671H42.071V147.807H44.0973Z" fill="#82A7DB"/>
<path d="M48.3397 150.791C48.493 150.459 48.6814 150.2 48.9049 150.015C49.1285 149.827 49.4015 149.733 49.7241 149.733C49.8263 149.733 49.9237 149.744 50.0163 149.766C50.1121 149.788 50.1967 149.824 50.2702 149.871L50.2079 150.509C50.1887 150.588 50.1408 150.628 50.0642 150.628C50.0195 150.628 49.954 150.619 49.8678 150.6C49.7816 150.58 49.6842 150.571 49.5756 150.571C49.4223 150.571 49.285 150.593 49.1636 150.638C49.0455 150.683 48.9385 150.75 48.8427 150.839C48.7501 150.925 48.6654 151.034 48.5888 151.165C48.5153 151.293 48.4483 151.439 48.3876 151.605V154.671H47.5302V149.819H48.0188C48.1114 149.819 48.1752 149.836 48.2104 149.871C48.2455 149.907 48.2694 149.967 48.2822 150.053L48.3397 150.791Z" fill="#82A7DB"/>
<path d="M52.8688 149.742C53.2233 149.742 53.5427 149.801 53.8269 149.919C54.1111 150.037 54.3538 150.205 54.555 150.422C54.7562 150.639 54.9095 150.903 55.0149 151.213C55.1234 151.519 55.1777 151.863 55.1777 152.243C55.1777 152.626 55.1234 152.971 55.0149 153.277C54.9095 153.584 54.7562 153.846 54.555 154.063C54.3538 154.28 54.1111 154.448 53.8269 154.566C53.5427 154.681 53.2233 154.738 52.8688 154.738C52.5112 154.738 52.1886 154.681 51.9012 154.566C51.617 154.448 51.3743 154.28 51.1731 154.063C50.9719 153.846 50.817 153.584 50.7085 153.277C50.6031 152.971 50.5504 152.626 50.5504 152.243C50.5504 151.863 50.6031 151.519 50.7085 151.213C50.817 150.903 50.9719 150.639 51.1731 150.422C51.3743 150.205 51.617 150.037 51.9012 149.919C52.1886 149.801 52.5112 149.742 52.8688 149.742ZM52.8688 154.072C53.3479 154.072 53.7055 153.913 53.9419 153.593C54.1782 153.271 54.2963 152.822 54.2963 152.247C54.2963 151.669 54.1782 151.219 53.9419 150.897C53.7055 150.574 53.3479 150.413 52.8688 150.413C52.6261 150.413 52.4138 150.454 52.2318 150.537C52.0529 150.62 51.9028 150.74 51.7815 150.897C51.6633 151.053 51.5739 151.246 51.5132 151.476C51.4557 151.703 51.427 151.96 51.427 152.247C51.427 152.822 51.5452 153.271 51.7815 153.593C52.021 153.913 52.3834 154.072 52.8688 154.072Z" fill="#82A7DB"/>
<path d="M56.482 154.671V150.547L55.9455 150.485C55.8753 150.469 55.8194 150.445 55.7779 150.413C55.7363 150.378 55.7156 150.328 55.7156 150.264V149.915H56.482V149.646C56.482 149.349 56.5283 149.078 56.6209 148.832C56.7135 148.583 56.8525 148.369 57.0377 148.19C57.2229 148.011 57.4528 147.872 57.7275 147.773C58.0053 147.674 58.3262 147.625 58.6903 147.625C58.8117 147.625 58.9362 147.633 59.0639 147.649C59.1917 147.665 59.3019 147.689 59.3945 147.721L59.3609 148.166C59.3577 148.198 59.345 148.22 59.3226 148.233C59.3035 148.246 59.2763 148.254 59.2412 148.257C59.206 148.26 59.1613 148.262 59.107 148.262C59.056 148.259 58.9969 148.257 58.9298 148.257C58.3614 148.257 57.9494 148.375 57.6939 148.612C57.4385 148.845 57.3107 149.198 57.3107 149.67V149.915H60.2423V154.671H59.3849V150.532H57.3347V154.671H56.482Z" fill="#82A7DB"/>
<path d="M62.5202 147.615V154.671H61.6676V147.615H62.5202Z" fill="#82A7DB"/>
<path d="M64.8035 149.819V154.671H63.9509V149.819H64.8035ZM64.9855 148.295C64.9855 148.378 64.968 148.457 64.9328 148.53C64.9009 148.6 64.8562 148.664 64.7987 148.722C64.7444 148.776 64.679 148.819 64.6023 148.851C64.5289 148.883 64.4506 148.899 64.3676 148.899C64.2846 148.899 64.2063 148.883 64.1329 148.851C64.0626 148.819 64.0003 148.776 63.9461 148.722C63.8918 148.664 63.8487 148.6 63.8167 148.53C63.7848 148.457 63.7688 148.378 63.7688 148.295C63.7688 148.212 63.7848 148.134 63.8167 148.061C63.8487 147.984 63.8918 147.919 63.9461 147.864C64.0003 147.807 64.0626 147.762 64.1329 147.73C64.2063 147.698 64.2846 147.682 64.3676 147.682C64.4506 147.682 64.5289 147.698 64.6023 147.73C64.679 147.762 64.7444 147.807 64.7987 147.864C64.8562 147.919 64.9009 147.984 64.9328 148.061C64.968 148.134 64.9855 148.212 64.9855 148.295Z" fill="#82A7DB"/>
<path d="M67.0092 150.523C67.1146 150.405 67.2264 150.298 67.3446 150.202C67.4627 150.106 67.5873 150.025 67.7182 149.958C67.8523 149.887 67.9928 149.835 68.1397 149.8C68.2898 149.761 68.4511 149.742 68.6235 149.742C68.8886 149.742 69.1217 149.787 69.3229 149.876C69.5273 149.962 69.6966 150.087 69.8307 150.25C69.968 150.41 70.0718 150.603 70.142 150.829C70.2123 151.056 70.2474 151.307 70.2474 151.582V154.671H69.39V151.582C69.39 151.214 69.3054 150.93 69.1361 150.729C68.97 150.524 68.7162 150.422 68.3745 150.422C68.1222 150.422 67.8859 150.483 67.6655 150.604C67.4484 150.726 67.2472 150.89 67.0619 151.098V154.671H66.2045V149.819H66.717C66.8384 149.819 66.9134 149.878 66.9422 149.996L67.0092 150.523Z" fill="#82A7DB"/>
<path d="M73.2376 152.3C73.4101 152.3 73.5618 152.276 73.6927 152.228C73.8236 152.18 73.9338 152.113 74.0232 152.027C74.1127 151.941 74.1797 151.839 74.2244 151.72C74.2691 151.599 74.2915 151.467 74.2915 151.323C74.2915 151.026 74.2005 150.79 74.0184 150.614C73.8396 150.438 73.5793 150.35 73.2376 150.35C72.8928 150.35 72.6293 150.438 72.4473 150.614C72.2684 150.79 72.179 151.026 72.179 151.323C72.179 151.467 72.2014 151.599 72.2461 151.72C72.294 151.839 72.3626 151.941 72.4521 152.027C72.5415 152.113 72.6516 152.18 72.7826 152.228C72.9135 152.276 73.0652 152.3 73.2376 152.3ZM74.7753 154.935C74.7753 154.817 74.7418 154.721 74.6747 154.647C74.6076 154.574 74.5166 154.516 74.4017 154.475C74.2899 154.433 74.159 154.405 74.0089 154.389C73.8588 154.369 73.6991 154.355 73.5298 154.345C73.3638 154.336 73.1945 154.326 73.0221 154.317C72.8496 154.307 72.6836 154.291 72.5239 154.269C72.3451 154.352 72.1982 154.457 72.0832 154.585C71.9714 154.71 71.9155 154.856 71.9155 155.026C71.9155 155.134 71.9427 155.235 71.997 155.327C72.0545 155.423 72.1407 155.505 72.2557 155.572C72.3706 155.642 72.5143 155.696 72.6868 155.735C72.8624 155.776 73.0684 155.797 73.3047 155.797C73.5346 155.797 73.7406 155.776 73.9226 155.735C74.1047 155.693 74.258 155.634 74.3825 155.557C74.5102 155.481 74.6076 155.39 74.6747 155.284C74.7418 155.179 74.7753 155.062 74.7753 154.935ZM75.6423 150.01V150.326C75.6423 150.432 75.5753 150.499 75.4411 150.528L74.8903 150.6C74.9988 150.81 75.0531 151.043 75.0531 151.299C75.0531 151.535 75.0068 151.751 74.9142 151.946C74.8248 152.137 74.7003 152.302 74.5406 152.439C74.3809 152.576 74.1893 152.682 73.9658 152.755C73.7422 152.829 73.4995 152.865 73.2376 152.865C73.0109 152.865 72.7969 152.838 72.5958 152.784C72.4936 152.848 72.4153 152.916 72.361 152.99C72.3067 153.06 72.2796 153.132 72.2796 153.205C72.2796 153.32 72.3259 153.408 72.4185 153.469C72.5143 153.526 72.6389 153.568 72.7922 153.593C72.9454 153.619 73.1195 153.635 73.3143 153.641C73.5123 153.648 73.7135 153.659 73.9179 153.675C74.1254 153.688 74.3266 153.712 74.5214 153.747C74.7194 153.782 74.8951 153.839 75.0483 153.919C75.2016 153.999 75.3246 154.109 75.4172 154.25C75.513 154.39 75.5609 154.572 75.5609 154.796C75.5609 155.003 75.5082 155.205 75.4028 155.399C75.3006 155.594 75.1521 155.767 74.9573 155.917C74.7625 156.07 74.523 156.191 74.2388 156.281C73.9578 156.373 73.64 156.42 73.2855 156.42C72.9311 156.42 72.6213 156.385 72.3562 156.314C72.0912 156.244 71.8708 156.15 71.6952 156.032C71.5196 155.913 71.387 155.776 71.2976 155.62C71.2114 155.466 71.1683 155.305 71.1683 155.136C71.1683 154.896 71.2433 154.694 71.3934 154.528C71.5435 154.361 71.7495 154.229 72.0114 154.13C71.8676 154.066 71.7527 153.981 71.6665 153.876C71.5834 153.767 71.5419 153.622 71.5419 153.44C71.5419 153.37 71.5547 153.298 71.5802 153.225C71.6058 153.148 71.6441 153.073 71.6952 152.999C71.7495 152.923 71.815 152.851 71.8916 152.784C71.9682 152.717 72.0577 152.658 72.1598 152.607C71.9203 152.473 71.7335 152.295 71.5994 152.075C71.4653 151.851 71.3982 151.593 71.3982 151.299C71.3982 151.063 71.4429 150.849 71.5323 150.657C71.6249 150.462 71.7527 150.298 71.9155 150.164C72.0784 150.026 72.2716 149.921 72.4952 149.847C72.7219 149.774 72.9694 149.737 73.2376 149.737C73.4484 149.737 73.6448 149.761 73.8268 149.809C74.0089 149.854 74.1749 149.921 74.325 150.01H75.6423Z" fill="#82A7DB"/>
<path d="M275.194 143.016V149.881H274.38V144.837C274.38 144.77 274.381 144.698 274.384 144.621C274.391 144.544 274.397 144.466 274.404 144.386L272.047 148.678C271.973 148.822 271.862 148.894 271.711 148.894H271.577C271.427 148.894 271.315 148.822 271.242 148.678L268.837 144.367C268.857 144.536 268.866 144.693 268.866 144.837V149.881H268.052V143.016H268.737C268.82 143.016 268.884 143.024 268.928 143.04C268.973 143.056 269.016 143.101 269.058 143.174L271.429 147.399C271.467 147.476 271.504 147.556 271.539 147.639C271.577 147.722 271.612 147.807 271.644 147.893C271.676 147.807 271.71 147.722 271.745 147.639C271.78 147.553 271.818 147.471 271.86 147.395L274.188 143.174C274.226 143.101 274.268 143.056 274.313 143.04C274.36 143.024 274.426 143.016 274.509 143.016H275.194Z" fill="#82A7DB"/>
<path d="M279.846 146.925C279.846 146.727 279.817 146.547 279.76 146.384C279.706 146.218 279.624 146.076 279.516 145.958C279.41 145.836 279.281 145.744 279.128 145.68C278.974 145.613 278.8 145.579 278.605 145.579C278.197 145.579 277.873 145.699 277.633 145.938C277.397 146.175 277.25 146.504 277.192 146.925H279.846ZM280.536 149.2C280.43 149.328 280.304 149.44 280.157 149.536C280.011 149.628 279.852 149.705 279.683 149.766C279.517 149.826 279.345 149.871 279.166 149.9C278.987 149.932 278.81 149.948 278.634 149.948C278.299 149.948 277.989 149.892 277.705 149.78C277.424 149.665 277.18 149.499 276.972 149.282C276.768 149.062 276.608 148.79 276.493 148.468C276.378 148.145 276.32 147.775 276.32 147.356C276.32 147.018 276.372 146.702 276.474 146.408C276.579 146.114 276.729 145.86 276.924 145.646C277.119 145.429 277.357 145.26 277.638 145.138C277.919 145.014 278.235 144.952 278.586 144.952C278.877 144.952 279.145 145.001 279.391 145.1C279.64 145.196 279.854 145.336 280.033 145.522C280.215 145.704 280.357 145.93 280.459 146.202C280.561 146.47 280.613 146.777 280.613 147.122C280.613 147.256 280.598 147.345 280.569 147.39C280.541 147.434 280.486 147.457 280.407 147.457H277.164C277.173 147.763 277.215 148.03 277.288 148.257C277.365 148.484 277.47 148.674 277.604 148.827C277.738 148.977 277.898 149.09 278.083 149.167C278.269 149.24 278.476 149.277 278.706 149.277C278.92 149.277 279.104 149.253 279.257 149.205C279.413 149.154 279.547 149.1 279.659 149.042C279.771 148.985 279.864 148.932 279.937 148.884C280.014 148.833 280.079 148.808 280.133 148.808C280.204 148.808 280.258 148.835 280.296 148.889L280.536 149.2Z" fill="#82A7DB"/>
<path d="M281.66 149.881V145.028H282.172C282.294 145.028 282.369 145.087 282.398 145.205L282.46 145.704C282.639 145.483 282.84 145.303 283.063 145.162C283.287 145.022 283.546 144.952 283.839 144.952C284.165 144.952 284.429 145.043 284.63 145.225C284.834 145.407 284.981 145.653 285.07 145.962C285.141 145.787 285.23 145.635 285.339 145.507C285.45 145.379 285.575 145.274 285.712 145.191C285.85 145.108 285.995 145.047 286.148 145.009C286.305 144.971 286.463 144.952 286.623 144.952C286.878 144.952 287.105 144.993 287.303 145.076C287.504 145.156 287.673 145.274 287.81 145.431C287.951 145.587 288.058 145.78 288.131 146.01C288.205 146.237 288.242 146.497 288.242 146.791V149.881H287.384V146.791C287.384 146.411 287.301 146.124 287.135 145.929C286.969 145.731 286.729 145.632 286.417 145.632C286.276 145.632 286.142 145.657 286.014 145.708C285.89 145.756 285.779 145.828 285.684 145.924C285.588 146.02 285.511 146.141 285.454 146.288C285.399 146.432 285.372 146.599 285.372 146.791V149.881H284.515V146.791C284.515 146.401 284.437 146.111 284.28 145.919C284.124 145.728 283.895 145.632 283.595 145.632C283.384 145.632 283.19 145.689 283.011 145.804C282.832 145.916 282.667 146.069 282.517 146.264V149.881H281.66Z" fill="#82A7DB"/>
<path d="M291.583 144.952C291.937 144.952 292.257 145.011 292.541 145.129C292.825 145.247 293.068 145.415 293.269 145.632C293.47 145.849 293.624 146.112 293.729 146.422C293.838 146.729 293.892 147.072 293.892 147.452C293.892 147.835 293.838 148.18 293.729 148.487C293.624 148.793 293.47 149.055 293.269 149.272C293.068 149.489 292.825 149.657 292.541 149.775C292.257 149.89 291.937 149.948 291.583 149.948C291.225 149.948 290.903 149.89 290.615 149.775C290.331 149.657 290.088 149.489 289.887 149.272C289.686 149.055 289.531 148.793 289.423 148.487C289.317 148.18 289.264 147.835 289.264 147.452C289.264 147.072 289.317 146.729 289.423 146.422C289.531 146.112 289.686 145.849 289.887 145.632C290.088 145.415 290.331 145.247 290.615 145.129C290.903 145.011 291.225 144.952 291.583 144.952ZM291.583 149.282C292.062 149.282 292.42 149.122 292.656 148.803C292.892 148.48 293.01 148.032 293.01 147.457C293.01 146.879 292.892 146.429 292.656 146.106C292.42 145.783 292.062 145.622 291.583 145.622C291.34 145.622 291.128 145.664 290.946 145.747C290.767 145.83 290.617 145.95 290.496 146.106C290.377 146.262 290.288 146.456 290.227 146.686C290.17 146.912 290.141 147.169 290.141 147.457C290.141 148.032 290.259 148.48 290.496 148.803C290.735 149.122 291.098 149.282 291.583 149.282Z" fill="#82A7DB"/>
<path d="M295.783 146.001C295.936 145.668 296.125 145.41 296.348 145.225C296.572 145.036 296.845 144.942 297.167 144.942C297.269 144.942 297.367 144.953 297.459 144.976C297.555 144.998 297.64 145.033 297.713 145.081L297.651 145.718C297.632 145.798 297.584 145.838 297.507 145.838C297.463 145.838 297.397 145.828 297.311 145.809C297.225 145.79 297.127 145.78 297.019 145.78C296.865 145.78 296.728 145.803 296.607 145.847C296.489 145.892 296.382 145.959 296.286 146.049C296.193 146.135 296.109 146.243 296.032 146.374C295.958 146.502 295.891 146.649 295.831 146.815V149.881H294.973V145.028H295.462C295.554 145.028 295.618 145.046 295.653 145.081C295.689 145.116 295.713 145.177 295.725 145.263L295.783 146.001Z" fill="#82A7DB"/>
<path d="M302.65 145.028L299.943 151.313C299.914 151.377 299.878 151.428 299.833 151.466C299.791 151.505 299.726 151.524 299.637 151.524H299.004L299.89 149.598L297.888 145.028H298.626C298.699 145.028 298.757 145.047 298.798 145.086C298.843 145.121 298.873 145.161 298.889 145.205L300.187 148.262C300.239 148.396 300.282 148.536 300.317 148.683C300.362 148.533 300.409 148.391 300.461 148.257L301.72 145.205C301.74 145.154 301.771 145.113 301.816 145.081C301.864 145.046 301.917 145.028 301.974 145.028H302.65Z" fill="#82A7DB"/>
<path d="M307.848 146.575C308.113 146.575 308.346 146.54 308.547 146.47C308.751 146.4 308.922 146.302 309.06 146.178C309.2 146.05 309.306 145.898 309.376 145.723C309.446 145.547 309.481 145.354 309.481 145.143C309.481 144.706 309.345 144.364 309.074 144.118C308.806 143.872 308.397 143.749 307.848 143.749H306.746V146.575H307.848ZM307.848 143.016C308.282 143.016 308.659 143.067 308.978 143.17C309.301 143.269 309.567 143.411 309.778 143.596C309.989 143.781 310.145 144.005 310.248 144.267C310.353 144.528 310.406 144.821 310.406 145.143C310.406 145.463 310.35 145.755 310.238 146.02C310.126 146.285 309.962 146.513 309.745 146.705C309.531 146.896 309.264 147.046 308.945 147.155C308.629 147.26 308.263 147.313 307.848 147.313H306.746V149.881H305.821V143.016H307.848Z" fill="#82A7DB"/>
<path d="M312.09 146.001C312.243 145.668 312.432 145.41 312.655 145.225C312.879 145.036 313.152 144.942 313.474 144.942C313.577 144.942 313.674 144.953 313.767 144.976C313.862 144.998 313.947 145.033 314.021 145.081L313.958 145.718C313.939 145.798 313.891 145.838 313.815 145.838C313.77 145.838 313.704 145.828 313.618 145.809C313.532 145.79 313.435 145.78 313.326 145.78C313.173 145.78 313.035 145.803 312.914 145.847C312.796 145.892 312.689 145.959 312.593 146.049C312.5 146.135 312.416 146.243 312.339 146.374C312.266 146.502 312.199 146.649 312.138 146.815V149.881H311.281V145.028H311.769C311.862 145.028 311.926 145.046 311.961 145.081C311.996 145.116 312.02 145.177 312.033 145.263L312.09 146.001Z" fill="#82A7DB"/>
<path d="M316.619 144.952C316.974 144.952 317.293 145.011 317.577 145.129C317.862 145.247 318.104 145.415 318.305 145.632C318.507 145.849 318.66 146.112 318.765 146.422C318.874 146.729 318.928 147.072 318.928 147.452C318.928 147.835 318.874 148.18 318.765 148.487C318.66 148.793 318.507 149.055 318.305 149.272C318.104 149.489 317.862 149.657 317.577 149.775C317.293 149.89 316.974 149.948 316.619 149.948C316.262 149.948 315.939 149.89 315.652 149.775C315.367 149.657 315.125 149.489 314.924 149.272C314.722 149.055 314.567 148.793 314.459 148.487C314.353 148.18 314.301 147.835 314.301 147.452C314.301 147.072 314.353 146.729 314.459 146.422C314.567 146.112 314.722 145.849 314.924 145.632C315.125 145.415 315.367 145.247 315.652 145.129C315.939 145.011 316.262 144.952 316.619 144.952ZM316.619 149.282C317.098 149.282 317.456 149.122 317.692 148.803C317.929 148.48 318.047 148.032 318.047 147.457C318.047 146.879 317.929 146.429 317.692 146.106C317.456 145.783 317.098 145.622 316.619 145.622C316.377 145.622 316.164 145.664 315.982 145.747C315.803 145.83 315.653 145.95 315.532 146.106C315.414 146.262 315.324 146.456 315.264 146.686C315.206 146.912 315.177 147.169 315.177 147.457C315.177 148.032 315.296 148.48 315.532 148.803C315.771 149.122 316.134 149.282 316.619 149.282Z" fill="#82A7DB"/>
<path d="M320.232 149.881V145.756L319.696 145.694C319.626 145.678 319.57 145.654 319.528 145.622C319.487 145.587 319.466 145.538 319.466 145.474V145.124H320.232V144.856C320.232 144.559 320.279 144.287 320.371 144.041C320.464 143.792 320.603 143.578 320.788 143.4C320.973 143.221 321.203 143.082 321.478 142.983C321.756 142.884 322.077 142.834 322.441 142.834C322.562 142.834 322.687 142.842 322.814 142.858C322.942 142.874 323.052 142.898 323.145 142.93L323.111 143.376C323.108 143.408 323.095 143.43 323.073 143.443C323.054 143.455 323.027 143.463 322.992 143.467C322.956 143.47 322.912 143.471 322.857 143.471C322.806 143.468 322.747 143.467 322.68 143.467C322.112 143.467 321.7 143.585 321.444 143.821C321.189 144.054 321.061 144.407 321.061 144.88V145.124H323.993V149.881H323.135V145.742H321.085V149.881H320.232Z" fill="#82A7DB"/>
<path d="M326.271 142.825V149.881H325.418V142.825H326.271Z" fill="#82A7DB"/>
<path d="M328.554 145.028V149.881H327.701V145.028H328.554ZM328.736 143.505C328.736 143.588 328.718 143.666 328.683 143.74C328.651 143.81 328.607 143.874 328.549 143.931C328.495 143.986 328.429 144.029 328.353 144.061C328.279 144.093 328.201 144.108 328.118 144.108C328.035 144.108 327.957 144.093 327.883 144.061C327.813 144.029 327.751 143.986 327.696 143.931C327.642 143.874 327.599 143.81 327.567 143.74C327.535 143.666 327.519 143.588 327.519 143.505C327.519 143.422 327.535 143.344 327.567 143.27C327.599 143.194 327.642 143.128 327.696 143.074C327.751 143.016 327.813 142.972 327.883 142.94C327.957 142.908 328.035 142.892 328.118 142.892C328.201 142.892 328.279 142.908 328.353 142.94C328.429 142.972 328.495 143.016 328.549 143.074C328.607 143.128 328.651 143.194 328.683 143.27C328.718 143.344 328.736 143.422 328.736 143.505Z" fill="#82A7DB"/>
<path d="M330.76 145.732C330.865 145.614 330.977 145.507 331.095 145.411C331.213 145.316 331.338 145.234 331.469 145.167C331.603 145.097 331.743 145.044 331.89 145.009C332.04 144.971 332.202 144.952 332.374 144.952C332.639 144.952 332.872 144.996 333.073 145.086C333.278 145.172 333.447 145.296 333.581 145.459C333.718 145.619 333.822 145.812 333.892 146.039C333.963 146.266 333.998 146.516 333.998 146.791V149.881H333.14V146.791C333.14 146.424 333.056 146.14 332.886 145.938C332.72 145.734 332.467 145.632 332.125 145.632C331.873 145.632 331.636 145.692 331.416 145.814C331.199 145.935 330.998 146.1 330.812 146.307V149.881H329.955V145.028H330.467C330.589 145.028 330.664 145.087 330.693 145.205L330.76 145.732Z" fill="#82A7DB"/>
<path d="M336.988 147.51C337.16 147.51 337.312 147.486 337.443 147.438C337.574 147.39 337.684 147.323 337.774 147.236C337.863 147.15 337.93 147.048 337.975 146.93C338.02 146.809 338.042 146.676 338.042 146.532C338.042 146.235 337.951 145.999 337.769 145.823C337.59 145.648 337.33 145.56 336.988 145.56C336.643 145.56 336.38 145.648 336.198 145.823C336.019 145.999 335.929 146.235 335.929 146.532C335.929 146.676 335.952 146.809 335.996 146.93C336.044 147.048 336.113 147.15 336.202 147.236C336.292 147.323 336.402 147.39 336.533 147.438C336.664 147.486 336.816 147.51 336.988 147.51ZM338.526 150.144C338.526 150.026 338.492 149.93 338.425 149.857C338.358 149.783 338.267 149.726 338.152 149.684C338.04 149.643 337.909 149.614 337.759 149.598C337.609 149.579 337.449 149.565 337.28 149.555C337.114 149.545 336.945 149.536 336.772 149.526C336.6 149.517 336.434 149.501 336.274 149.478C336.095 149.561 335.949 149.667 335.834 149.794C335.722 149.919 335.666 150.066 335.666 150.235C335.666 150.344 335.693 150.444 335.747 150.537C335.805 150.633 335.891 150.714 336.006 150.781C336.121 150.852 336.265 150.906 336.437 150.944C336.613 150.986 336.819 151.006 337.055 151.006C337.285 151.006 337.491 150.986 337.673 150.944C337.855 150.903 338.008 150.844 338.133 150.767C338.261 150.69 338.358 150.599 338.425 150.494C338.492 150.388 338.526 150.272 338.526 150.144ZM339.393 145.22V145.536C339.393 145.641 339.326 145.708 339.192 145.737L338.641 145.809C338.749 146.02 338.804 146.253 338.804 146.508C338.804 146.745 338.757 146.96 338.665 147.155C338.575 147.347 338.451 147.511 338.291 147.648C338.131 147.786 337.94 147.891 337.716 147.965C337.493 148.038 337.25 148.075 336.988 148.075C336.761 148.075 336.547 148.048 336.346 147.993C336.244 148.057 336.166 148.126 336.111 148.199C336.057 148.27 336.03 148.341 336.03 148.415C336.03 148.53 336.076 148.618 336.169 148.678C336.265 148.736 336.389 148.777 336.543 148.803C336.696 148.828 336.87 148.844 337.065 148.851C337.263 148.857 337.464 148.868 337.668 148.884C337.876 148.897 338.077 148.921 338.272 148.956C338.47 148.991 338.645 149.049 338.799 149.129C338.952 149.208 339.075 149.319 339.168 149.459C339.263 149.6 339.311 149.782 339.311 150.005C339.311 150.213 339.259 150.414 339.153 150.609C339.051 150.804 338.903 150.976 338.708 151.126C338.513 151.279 338.273 151.401 337.989 151.49C337.708 151.583 337.39 151.629 337.036 151.629C336.681 151.629 336.372 151.594 336.107 151.524C335.842 151.453 335.621 151.359 335.446 151.241C335.27 151.123 335.137 150.986 335.048 150.829C334.962 150.676 334.919 150.515 334.919 150.345C334.919 150.106 334.994 149.903 335.144 149.737C335.294 149.571 335.5 149.438 335.762 149.339C335.618 149.276 335.503 149.191 335.417 149.086C335.334 148.977 335.292 148.832 335.292 148.65C335.292 148.579 335.305 148.507 335.331 148.434C335.356 148.357 335.394 148.282 335.446 148.209C335.5 148.132 335.565 148.06 335.642 147.993C335.719 147.926 335.808 147.867 335.91 147.816C335.671 147.682 335.484 147.505 335.35 147.284C335.216 147.061 335.149 146.802 335.149 146.508C335.149 146.272 335.193 146.058 335.283 145.866C335.375 145.672 335.503 145.507 335.666 145.373C335.829 145.236 336.022 145.13 336.246 145.057C336.472 144.983 336.72 144.947 336.988 144.947C337.199 144.947 337.395 144.971 337.577 145.019C337.759 145.063 337.925 145.13 338.075 145.22H339.393Z" fill="#82A7DB"/>
<path d="M57.3631 97.6396H34.3702C32.2538 97.6396 30.5381 99.3554 30.5381 101.472V124.465C30.5381 126.581 32.2538 128.297 34.3702 128.297H57.3631C59.4796 128.297 61.1953 126.581 61.1953 124.465V101.472C61.1953 99.3554 59.4796 97.6396 57.3631 97.6396Z" stroke="#1AB3FF" stroke-width="3" stroke-linecap="round" stroke-linejoin="round"/>
<path d="M51.6156 107.22H40.1191V118.717H51.6156V107.22Z" stroke="#1AB3FF" stroke-width="3" stroke-linecap="round" stroke-linejoin="round"/>
<path d="M40.1191 91.8916V97.6398" stroke="#1AB3FF" stroke-width="3" stroke-linecap="round" stroke-linejoin="round"/>
<path d="M51.6152 91.8916V97.6398" stroke="#1AB3FF" stroke-width="3" stroke-linecap="round" stroke-linejoin="round"/>
<path d="M40.1191 128.297V134.045" stroke="#1AB3FF" stroke-width="3" stroke-linecap="round" stroke-linejoin="round"/>
<path d="M51.6152 128.297V134.045" stroke="#1AB3FF" stroke-width="3" stroke-linecap="round" stroke-linejoin="round"/>
<path d="M61.1953 107.22H66.9435" stroke="#1AB3FF" stroke-width="3" stroke-linecap="round" stroke-linejoin="round"/>
<path d="M61.1953 116.8H66.9435" stroke="#1AB3FF" stroke-width="3" stroke-linecap="round" stroke-linejoin="round"/>
<path d="M24.79 107.22H30.5383" stroke="#1AB3FF" stroke-width="3" stroke-linecap="round" stroke-linejoin="round"/>
<path d="M24.79 116.8H30.5383" stroke="#1AB3FF" stroke-width="3" stroke-linecap="round" stroke-linejoin="round"/>
<path d="M65.7396 113.097C66.1538 113.097 66.4896 112.762 66.4896 112.347C66.4896 111.933 66.1538 111.597 65.7396 111.597V113.097ZM68.2871 111.597C67.8729 111.597 67.5371 111.933 67.5371 112.347C67.5371 112.762 67.8729 113.097 68.2871 113.097V111.597ZM73.4455 112.846C73.8563 112.792 74.1458 112.416 74.0922 112.005C74.0386 111.595 73.6622 111.305 73.2515 111.359L73.4455 112.846ZM80.3744 109.454C79.9918 109.613 79.8102 110.052 79.9689 110.434C80.1276 110.817 80.5664 110.998 80.949 110.84L80.3744 109.454ZM87.6726 106.951C88.001 106.698 88.0627 106.227 87.8103 105.899C87.5579 105.571 87.087 105.509 86.7586 105.761L87.6726 106.951ZM91.9747 100.545C91.7223 100.874 91.784 101.344 92.1124 101.597C92.4409 101.849 92.9117 101.788 93.1641 101.459L91.9747 100.545ZM97.0531 94.7356C97.2118 94.353 97.0302 93.9142 96.6476 93.7555C96.265 93.5968 95.8262 93.7784 95.6675 94.161L97.0531 94.7356ZM97.572 87.0381C97.5184 87.4489 97.808 87.8253 98.2187 87.8788C98.6294 87.9324 99.0058 87.6429 99.0594 87.2321L97.572 87.0381ZM99.3108 83.1585C99.3108 82.7443 98.9751 82.4085 98.5608 82.4085C98.1466 82.4085 97.8108 82.7443 97.8108 83.1585H99.3108ZM97.8108 82.7807C97.8108 83.1949 98.1466 83.5307 98.5608 83.5307C98.9751 83.5307 99.3108 83.1949 99.3108 82.7807H97.8108ZM64.4658 113.097H65.7396V111.597H64.4658V113.097ZM68.2871 113.097H69.5608V111.597H68.2871V113.097ZM69.5608 113.097C70.8771 113.097 72.1738 113.012 73.4455 112.846L73.2515 111.359C72.0439 111.516 70.8121 111.597 69.5608 111.597V113.097ZM80.949 110.84C83.368 109.837 85.6257 108.524 87.6726 106.951L86.7586 105.761C84.8144 107.255 82.6706 108.502 80.3744 109.454L80.949 110.84ZM93.1641 101.459C94.7371 99.4123 96.05 97.1546 97.0531 94.7356L95.6675 94.161C94.7153 96.4573 93.4688 98.601 91.9747 100.545L93.1641 101.459ZM99.0594 87.2321C99.2253 85.9604 99.3108 84.6637 99.3108 83.3475H97.8108C97.8108 84.5987 97.7295 85.8305 97.572 87.0381L99.0594 87.2321ZM99.3108 83.3475V83.1585H97.8108V83.3475H99.3108ZM99.3108 82.7807V82.5918H97.8108V82.7807H99.3108ZM65.7396 113.847C66.568 113.847 67.2396 113.176 67.2396 112.347C67.2396 111.519 66.568 110.847 65.7396 110.847V113.847ZM68.2871 110.847C67.4587 110.847 66.7871 111.519 66.7871 112.347C66.7871 113.176 67.4587 113.847 68.2871 113.847V110.847ZM73.5425 113.59C74.364 113.483 74.9431 112.73 74.8359 111.908C74.7288 111.087 73.976 110.508 73.1545 110.615L73.5425 113.59ZM80.0871 108.761C79.3219 109.079 78.9588 109.956 79.2761 110.721C79.5934 111.487 80.471 111.85 81.2363 111.533L80.0871 108.761ZM88.1296 107.545C88.7864 107.041 88.9097 106.099 88.405 105.442C87.9002 104.785 86.9585 104.662 86.3016 105.167L88.1296 107.545ZM91.38 100.088C90.8753 100.745 90.9986 101.687 91.6554 102.192C92.3123 102.696 93.254 102.573 93.7588 101.916L91.38 100.088ZM97.7459 95.0229C98.0632 94.2576 97.7001 93.38 96.9349 93.0627C96.1696 92.7454 95.292 93.1085 94.9747 93.8737L97.7459 95.0229ZM96.8283 86.9411C96.7212 87.7626 97.3002 88.5154 98.1217 88.6225C98.9432 88.7297 99.696 88.1506 99.8031 87.3291L96.8283 86.9411ZM100.061 83.1585C100.061 82.3301 99.3893 81.6585 98.5608 81.6585C97.7324 81.6585 97.0608 82.3301 97.0608 83.1585H100.061ZM97.0608 82.7807C97.0608 83.6091 97.7324 84.2807 98.5608 84.2807C99.3893 84.2807 100.061 83.6091 100.061 82.7807H97.0608ZM64.4658 113.847H65.7396V110.847H64.4658V113.847ZM68.2871 113.847H69.5608V110.847H68.2871V113.847ZM69.5608 113.847C70.9096 113.847 72.2387 113.76 73.5425 113.59L73.1545 110.615C71.979 110.768 70.7795 110.847 69.5608 110.847V113.847ZM81.2363 111.533C83.7167 110.504 86.0313 109.158 88.1296 107.545L86.3016 105.167C84.4088 106.621 82.322 107.835 80.0871 108.761L81.2363 111.533ZM93.7588 101.916C95.3713 99.8179 96.7173 97.5033 97.7459 95.0229L94.9747 93.8737C94.048 96.1086 92.8346 98.1954 91.38 100.088L93.7588 101.916ZM99.8031 87.3291C99.9732 86.0253 100.061 84.6963 100.061 83.3475H97.0608C97.0608 84.5662 96.9817 85.7656 96.8283 86.9411L99.8031 87.3291ZM100.061 83.3475V83.1585H97.0608V83.3475H100.061ZM100.061 82.7807V82.5918H97.0608V82.7807H100.061Z" fill="#1AB3FF"/>
<path d="M180.389 55.4463C180.803 55.4463 181.139 55.1105 181.139 54.6963C181.139 54.2821 180.803 53.9463 180.389 53.9463V55.4463ZM97.8105 83.2121C97.8105 83.6263 98.1463 83.9621 98.5605 83.9621C98.9748 83.9621 99.3105 83.6263 99.3105 83.2121H97.8105ZM99.5453 79.5847C99.5988 79.174 99.3093 78.7976 98.8986 78.744C98.4878 78.6904 98.1114 78.9799 98.0579 79.3907L99.5453 79.5847ZM100.032 72.0093C99.8729 72.3919 100.054 72.8307 100.437 72.9894C100.82 73.1481 101.258 72.9665 101.417 72.5839L100.032 72.0093ZM105.047 66.3091C105.299 65.9807 105.237 65.5098 104.909 65.2575C104.58 65.0051 104.11 65.0667 103.857 65.3951L105.047 66.3091ZM109.259 59.993C108.931 60.2454 108.869 60.7162 109.122 61.0447C109.374 61.3731 109.845 61.4348 110.173 61.1824L109.259 59.993ZM116.448 57.5529C116.831 57.3942 117.012 56.9554 116.854 56.5728C116.695 56.1902 116.256 56.0086 115.874 56.1673L116.448 57.5529ZM123.255 54.1936C122.844 54.2472 122.555 54.6236 122.608 55.0343C122.662 55.4451 123.038 55.7346 123.449 55.681L123.255 54.1936ZM130.408 55.4463C130.823 55.4463 131.158 55.1105 131.158 54.6963C131.158 54.2821 130.823 53.9463 130.408 53.9463V55.4463ZM137.072 53.9463C136.658 53.9463 136.322 54.2821 136.322 54.6963C136.322 55.1105 136.658 55.4463 137.072 55.4463V53.9463ZM143.736 55.4463C144.151 55.4463 144.486 55.1105 144.486 54.6963C144.486 54.2821 144.151 53.9463 143.736 53.9463V55.4463ZM150.4 53.9463C149.986 53.9463 149.65 54.2821 149.65 54.6963C149.65 55.1105 149.986 55.4463 150.4 55.4463V53.9463ZM157.064 55.4463C157.479 55.4463 157.814 55.1105 157.814 54.6963C157.814 54.2821 157.479 53.9463 157.064 53.9463V55.4463ZM163.729 53.9463C163.314 53.9463 162.979 54.2821 162.979 54.6963C162.979 55.1105 163.314 55.4463 163.729 55.4463V53.9463ZM170.393 55.4463C170.807 55.4463 171.143 55.1105 171.143 54.6963C171.143 54.2821 170.807 53.9463 170.393 53.9463V55.4463ZM177.057 53.9463C176.642 53.9463 176.307 54.2821 176.307 54.6963C176.307 55.1105 176.642 55.4463 177.057 55.4463V53.9463ZM99.3105 83.2121C99.3105 81.9823 99.3905 80.7716 99.5453 79.5847L98.0579 79.3907C97.8947 80.6417 97.8105 81.9173 97.8105 83.2121H99.3105ZM101.417 72.5839C102.353 70.327 103.578 68.22 105.047 66.3091L103.857 65.3951C102.31 67.4087 101.018 69.6297 100.032 72.0093L101.417 72.5839ZM110.173 61.1824C112.084 59.714 114.191 58.4888 116.448 57.5529L115.874 56.1673C113.494 57.1541 111.273 58.4456 109.259 59.993L110.173 61.1824ZM123.449 55.681C124.636 55.5262 125.847 55.4463 127.076 55.4463V53.9463C125.782 53.9463 124.506 54.0304 123.255 54.1936L123.449 55.681ZM127.076 55.4463H130.408V53.9463H127.076V55.4463ZM137.072 55.4463H143.736V53.9463H137.072V55.4463ZM150.4 55.4463H157.064V53.9463H150.4V55.4463ZM163.729 55.4463H170.393V53.9463H163.729V55.4463ZM177.057 55.4463H180.389V53.9463H177.057V55.4463ZM180.389 56.1963C181.217 56.1963 181.889 55.5247 181.889 54.6963C181.889 53.8679 181.217 53.1963 180.389 53.1963V56.1963ZM97.0605 83.2121C97.0605 84.0406 97.7321 84.7121 98.5605 84.7121C99.389 84.7121 100.061 84.0406 100.061 83.2121H97.0605ZM100.289 79.6817C100.396 78.8602 99.8171 78.1074 98.9956 78.0003C98.1741 77.8931 97.4213 78.4722 97.3142 79.2937L100.289 79.6817ZM99.3388 71.722C99.0214 72.4873 99.3845 73.3649 100.15 73.6822C100.915 73.9995 101.793 73.6364 102.11 72.8712L99.3388 71.722ZM105.641 66.7661C106.146 66.1093 106.023 65.1675 105.366 64.6628C104.709 64.158 103.767 64.2813 103.263 64.9382L105.641 66.7661ZM108.802 59.3983C108.146 59.9031 108.022 60.8448 108.527 61.5017C109.032 62.1585 109.974 62.2818 110.63 61.7771L108.802 59.3983ZM116.735 58.2457C117.501 57.9283 117.864 57.0507 117.546 56.2855C117.229 55.5203 116.352 55.1572 115.586 55.4745L116.735 58.2457ZM123.158 53.4499C122.336 53.5571 121.757 54.3099 121.865 55.1313C121.972 55.9528 122.724 56.5319 123.546 56.4247L123.158 53.4499ZM130.408 56.1963C131.237 56.1963 131.908 55.5247 131.908 54.6963C131.908 53.8679 131.237 53.1963 130.408 53.1963V56.1963ZM137.072 53.1963C136.244 53.1963 135.572 53.8679 135.572 54.6963C135.572 55.5247 136.244 56.1963 137.072 56.1963V53.1963ZM143.736 56.1963C144.565 56.1963 145.236 55.5247 145.236 54.6963C145.236 53.8679 144.565 53.1963 143.736 53.1963V56.1963ZM150.4 53.1963C149.572 53.1963 148.9 53.8679 148.9 54.6963C148.9 55.5247 149.572 56.1963 150.4 56.1963V53.1963ZM157.064 56.1963C157.893 56.1963 158.564 55.5247 158.564 54.6963C158.564 53.8679 157.893 53.1963 157.064 53.1963V56.1963ZM163.729 53.1963C162.9 53.1963 162.229 53.8679 162.229 54.6963C162.229 55.5247 162.9 56.1963 163.729 56.1963V53.1963ZM170.393 56.1963C171.221 56.1963 171.893 55.5247 171.893 54.6963C171.893 53.8679 171.221 53.1963 170.393 53.1963V56.1963ZM177.057 53.1963C176.228 53.1963 175.557 53.8679 175.557 54.6963C175.557 55.5247 176.228 56.1963 177.057 56.1963V53.1963ZM100.061 83.2121C100.061 82.0149 100.138 80.8365 100.289 79.6817L97.3142 79.2937C97.1468 80.5768 97.0605 81.8848 97.0605 83.2121H100.061ZM102.11 72.8712C103.02 70.6757 104.212 68.6256 105.641 66.7661L103.263 64.9382C101.676 67.0031 100.351 69.281 99.3388 71.722L102.11 72.8712ZM110.63 61.7771C112.49 60.3481 114.54 59.1561 116.735 58.2457L115.586 55.4745C113.145 56.4868 110.867 57.8115 108.802 59.3983L110.63 61.7771ZM123.546 56.4247C124.701 56.2741 125.879 56.1963 127.076 56.1963V53.1963C125.749 53.1963 124.441 53.2825 123.158 53.4499L123.546 56.4247ZM127.076 56.1963H130.408V53.1963H127.076V56.1963ZM137.072 56.1963H143.736V53.1963H137.072V56.1963ZM150.4 56.1963H157.064V53.1963H150.4V56.1963ZM163.729 56.1963H170.393V53.1963H163.729V56.1963ZM177.057 56.1963H180.389V53.1963H177.057V56.1963Z" fill="#1AB3FF"/>
<rect x="185.349" y="41.6782" width="24.1765" height="9.29864" rx="2" fill="#1F4B7F"/>
<rect x="247.34" y="57.7959" width="14.8778" height="14.8778" rx="2" fill="#1F4B7F"/>
<path d="M305.739 93.1304C305.739 93.5446 305.403 93.8804 304.989 93.8804C304.575 93.8804 304.239 93.5446 304.239 93.1304L305.739 93.1304ZM304.005 89.5029C303.951 89.0922 304.24 88.7158 304.651 88.6622C305.062 88.6087 305.438 88.8982 305.492 89.3089L304.005 89.5029ZM303.518 81.9276C303.677 82.3102 303.495 82.749 303.113 82.9076C302.73 83.0663 302.291 82.8848 302.133 82.5021L303.518 81.9276ZM298.503 76.2274C298.251 75.8989 298.312 75.4281 298.641 75.1757C298.969 74.9233 299.44 74.9849 299.692 75.3134L298.503 76.2274ZM294.29 69.9112C294.619 70.1636 294.68 70.6345 294.428 70.9629C294.176 71.2914 293.705 71.353 293.376 71.1006L294.29 69.9112ZM287.102 67.4711C286.719 67.3125 286.537 66.8737 286.696 66.491C286.855 66.1084 287.294 65.9269 287.676 66.0855L287.102 67.4711ZM280.295 64.1119C280.705 64.1654 280.995 64.5418 280.941 64.9526C280.888 65.3633 280.511 65.6528 280.101 65.5993L280.295 64.1119ZM273.529 65.3645C273.115 65.3645 272.779 65.0288 272.779 64.6145C272.779 64.2003 273.115 63.8645 273.529 63.8645L273.529 65.3645ZM267.64 63.8645C268.054 63.8645 268.39 64.2003 268.39 64.6145C268.39 65.0288 268.054 65.3645 267.64 65.3645L267.64 63.8645ZM304.239 93.1304C304.239 91.9006 304.159 90.6898 304.005 89.5029L305.492 89.3089C305.655 90.56 305.739 91.8355 305.739 93.1304L304.239 93.1304ZM302.133 82.5021C301.197 80.2453 299.972 78.1382 298.503 76.2274L299.692 75.3134C301.24 77.327 302.531 79.5479 303.518 81.9276L302.133 82.5021ZM293.376 71.1006C291.465 69.6322 289.358 68.407 287.102 67.4711L287.676 66.0855C290.056 67.0723 292.277 68.3639 294.29 69.9112L293.376 71.1006ZM280.101 65.5993C278.914 65.4444 277.703 65.3645 276.473 65.3645L276.473 63.8645C277.768 63.8645 279.044 63.9487 280.295 64.1119L280.101 65.5993ZM276.473 65.3645L273.529 65.3645L273.529 63.8645L276.473 63.8645L276.473 65.3645ZM267.64 65.3645L264.695 65.3645L264.695 63.8645L267.64 63.8645L267.64 65.3645ZM306.489 93.1304C306.489 93.9588 305.818 94.6304 304.989 94.6304C304.161 94.6304 303.489 93.9588 303.489 93.1304L306.489 93.1304ZM303.261 89.6C303.154 88.7785 303.733 88.0257 304.554 87.9185C305.376 87.8114 306.128 88.3904 306.236 89.2119L303.261 89.6ZM304.211 81.6403C304.528 82.4055 304.165 83.2831 303.4 83.6004C302.635 83.9178 301.757 83.5547 301.44 82.7894L304.211 81.6403ZM297.908 76.6844C297.404 76.0275 297.527 75.0858 298.184 74.581C298.841 74.0762 299.782 74.1995 300.287 74.8564L297.908 76.6844ZM294.747 69.3165C295.404 69.8213 295.527 70.763 295.023 71.4199C294.518 72.0768 293.576 72.2001 292.919 71.6953L294.747 69.3165ZM286.814 68.1639C286.049 67.8466 285.686 66.969 286.003 66.2038C286.321 65.4385 287.198 65.0754 287.963 65.3927L286.814 68.1639ZM280.392 63.3682C281.213 63.4753 281.792 64.2281 281.685 65.0496C281.578 65.871 280.825 66.4501 280.004 66.343L280.392 63.3682ZM273.529 66.1145C272.7 66.1145 272.029 65.443 272.029 64.6145C272.029 63.7861 272.7 63.1145 273.529 63.1145L273.529 66.1145ZM267.64 63.1145C268.468 63.1145 269.14 63.7861 269.14 64.6145C269.14 65.443 268.468 66.1145 267.64 66.1145L267.64 63.1145ZM303.489 93.1304C303.489 91.9331 303.411 90.7548 303.261 89.6L306.236 89.2119C306.403 90.495 306.489 91.803 306.489 93.1304L303.489 93.1304ZM301.44 82.7894C300.529 80.5939 299.337 78.5439 297.908 76.6844L300.287 74.8564C301.874 76.9214 303.199 79.1992 304.211 81.6403L301.44 82.7894ZM292.919 71.6953C291.06 70.2664 289.01 69.0744 286.814 68.1639L287.963 65.3927C290.404 66.405 292.682 67.7297 294.747 69.3165L292.919 71.6953ZM280.004 66.343C278.849 66.1923 277.671 66.1145 276.473 66.1145L276.473 63.1145C277.801 63.1145 279.109 63.2008 280.392 63.3682L280.004 66.343ZM276.473 66.1145L273.529 66.1145L273.529 63.1145L276.473 63.1145L276.473 66.1145ZM267.64 66.1145L264.695 66.1145L264.695 63.1145L267.64 63.1145L267.64 66.1145Z" fill="#1AB3FF"/>
<path d="M129.245 86.002H135.444" stroke="white" stroke-width="3" stroke-linecap="round" stroke-linejoin="round"/>
<path d="M141.953 85.6924H159.311" stroke="#1AB3FF" stroke-width="3" stroke-linecap="round" stroke-linejoin="round"/>
<path d="M129.245 92.8208H135.444" stroke="white" stroke-width="3" stroke-linecap="round" stroke-linejoin="round"/>
<path d="M129.245 113.278H135.444" stroke="white" stroke-width="3" stroke-linecap="round" stroke-linejoin="round"/>
<path d="M129.245 120.097H135.444" stroke="white" stroke-width="3" stroke-linecap="round" stroke-linejoin="round"/>
<path d="M129.245 126.296H135.444" stroke="white" stroke-width="3" stroke-linecap="round" stroke-linejoin="round"/>
<path d="M129.245 133.115H135.444" stroke="white" stroke-width="3" stroke-linecap="round" stroke-linejoin="round"/>
<path d="M129.245 139.935H135.444" stroke="white" stroke-width="3" stroke-linecap="round" stroke-linejoin="round"/>
<path d="M141.953 92.5112H169.229" stroke="#1AB3FF" stroke-width="3" stroke-linecap="round" stroke-linejoin="round"/>
<path d="M141.953 112.968H167.369" stroke="#1AB3FF" stroke-width="3" stroke-linecap="round" stroke-linejoin="round"/>
<path d="M141.953 119.788H172.329" stroke="#1AB3FF" stroke-width="3" stroke-linecap="round" stroke-linejoin="round"/>
<path d="M141.953 125.986H153.731" stroke="#1AB3FF" stroke-width="3" stroke-linecap="round" stroke-linejoin="round"/>
<path d="M141.953 132.805H162.41" stroke="#1AB3FF" stroke-width="3" stroke-linecap="round" stroke-linejoin="round"/>
<path d="M141.953 139.624H158.691" stroke="#1AB3FF" stroke-width="3" stroke-linecap="round" stroke-linejoin="round"/>
<path d="M129.245 99.6401H135.444" stroke="white" stroke-width="3" stroke-linecap="round" stroke-linejoin="round"/>
<path d="M141.953 99.3306H164.27" stroke="#1AB3FF" stroke-width="3" stroke-linecap="round" stroke-linejoin="round"/>
<path d="M129.245 106.459H135.444" stroke="white" stroke-width="3" stroke-linecap="round" stroke-linejoin="round"/>
<path d="M141.953 106.149H158.071" stroke="#1AB3FF" stroke-width="3" stroke-linecap="round" stroke-linejoin="round"/>
<path d="M304.68 108.009C312.384 108.009 318.628 105.928 318.628 103.36C318.628 100.792 312.384 98.7104 304.68 98.7104C296.977 98.7104 290.732 100.792 290.732 103.36C290.732 105.928 296.977 108.009 304.68 108.009Z" stroke="#1AB3FF" stroke-width="3" stroke-linecap="round" stroke-linejoin="round"/>
<path d="M318.628 114.208C318.628 116.781 312.429 118.858 304.68 118.858C296.932 118.858 290.732 116.781 290.732 114.208" stroke="#1AB3FF" stroke-width="3" stroke-linecap="round" stroke-linejoin="round"/>
<path d="M290.732 103.36V125.057C290.732 127.629 296.932 129.706 304.68 129.706C312.429 129.706 318.628 127.629 318.628 125.057V103.36" stroke="#1AB3FF" stroke-width="3" stroke-linecap="round" stroke-linejoin="round"/>
<path d="M224.573 61.5285L214.76 77.9109C214.557 78.2613 214.45 78.6585 214.449 79.0631C214.448 79.4677 214.553 79.8656 214.753 80.2171C214.954 80.5686 215.243 80.8615 215.591 81.0667C215.94 81.2719 216.336 81.3822 216.741 81.3866H236.367C236.772 81.3822 237.168 81.2719 237.517 81.0667C237.866 80.8615 238.155 80.5686 238.355 80.2171C238.555 79.8656 238.66 79.4677 238.659 79.0631C238.658 78.6585 238.551 78.2613 238.349 77.9109L228.535 61.5285C228.329 61.188 228.038 60.9065 227.691 60.7111C227.344 60.5157 226.952 60.4131 226.554 60.4131C226.156 60.4131 225.764 60.5157 225.417 60.7111C225.07 60.9065 224.779 61.188 224.573 61.5285V61.5285Z" stroke="white" stroke-width="3" stroke-linecap="round" stroke-linejoin="round"/>
<path d="M226.554 67.4839V72.1182" stroke="white" stroke-width="3" stroke-linecap="round" stroke-linejoin="round"/>
<path d="M226.554 76.752H226.566" stroke="white" stroke-width="3" stroke-linecap="round" stroke-linejoin="round"/>
<path d="M226.26 99.0201V144.052C226.26 150.851 221.292 156.362 215.163 156.362H126.392C120.264 156.362 115.296 150.851 115.296 144.052V82.504C115.296 75.7055 120.264 70.1943 126.392 70.1943H196.194" stroke="#1AB3FF" stroke-width="3" stroke-linecap="round" stroke-linejoin="round"/>
<path d="M161.17 170L192.165 170" stroke="#1AB3FF" stroke-width="3" stroke-linecap="round" stroke-linejoin="round"/>
<path d="M147.531 170H157.45" stroke="#1AB3FF" stroke-width="3" stroke-linecap="round" stroke-linejoin="round"/>
<path d="M170.469 156.361L170.469 169.999" stroke="#1AB3FF" stroke-width="3" stroke-linecap="round" stroke-linejoin="round"/>
<path d="M211.77 130.938C210.833 133.154 209.368 135.105 207.503 136.623C205.637 138.141 203.429 139.179 201.07 139.647C198.711 140.114 196.273 139.996 193.97 139.304C191.667 138.611 189.568 137.365 187.858 135.674C186.148 133.984 184.878 131.9 184.159 129.605C183.44 127.31 183.295 124.873 183.735 122.509C184.175 120.145 185.188 117.924 186.685 116.042C188.181 114.159 190.116 112.672 192.321 111.71" stroke="#1AB3FF" stroke-width="3" stroke-linecap="round" stroke-linejoin="round"/>
<path d="M212.933 125.212C212.933 123.278 212.552 121.364 211.812 119.577C211.072 117.791 209.988 116.168 208.621 114.801C207.253 113.434 205.63 112.349 203.844 111.609C202.058 110.87 200.143 110.489 198.21 110.489V125.212H212.933Z" stroke="#1AB3FF" stroke-width="3" stroke-linecap="round" stroke-linejoin="round"/>
<path d="M229.281 33H208.127C206.524 33 204.987 33.6368 203.853 34.7703C202.72 35.9038 202.083 37.4411 202.083 39.0441V87.397C202.083 89 202.72 90.5373 203.853 91.6708C204.987 92.8043 206.524 93.4411 208.127 93.4411H244.392C245.995 93.4411 247.532 92.8043 248.666 91.6708C249.799 90.5373 250.436 89 250.436 87.397V54.1544L229.281 33Z" stroke="#1AB3FF" stroke-width="3" stroke-linecap="round" stroke-linejoin="round"/>
<path d="M229.281 33V46.1544C229.281 50.5727 232.863 54.1544 237.281 54.1544H239.858H242.687" stroke="#1AB3FF" stroke-width="3" stroke-linecap="round" stroke-linejoin="round"/>
<defs>
<linearGradient id="paint0_linear_125_479" x1="0" y1="0" x2="377.667" y2="41.249" gradientUnits="userSpaceOnUse">
<stop stop-color="#000016"/>
<stop offset="1" stop-color="#353066"/>
</linearGradient>
</defs>
</svg>
