<svg xmlns="http://www.w3.org/2000/svg" xmlns:xlink="http://www.w3.org/1999/xlink" width="20" height="20" viewBox="0 0 20 20">
  <defs>
    <clipPath id="clip-Custom_Size_1">
      <rect width="20" height="20"/>
    </clipPath>
  </defs>
  <g id="Custom_Size_1" data-name="Custom Size – 1" clip-path="url(#clip-Custom_Size_1)">
    <g id="noun_calender_2168641" transform="translate(-1.448 -11)">
      <path id="Path_1" data-name="Path 1" d="M25,14H24V13a1,1,0,0,0-2,0v1H14V13a1,1,0,1,0-2,0v1H11a3,3,0,0,0-3,3V27a3,3,0,0,0,3,3H25a3,3,0,0,0,3-3V17A3,3,0,0,0,25,14ZM11,16h1v1a1,1,0,1,0,2,0V16h8v1a1,1,0,0,0,2,0V16h1a1,1,0,0,1,1,1v2H10V17A1,1,0,0,1,11,16ZM25,28H11a1,1,0,0,1-1-1V21H26v6A1,1,0,0,1,25,28Z" transform="translate(-6.552)" fill="#ccc"/>
    </g>
  </g>
</svg>
