<svg width="492" height="225" viewBox="0 0 492 225" fill="none" xmlns="http://www.w3.org/2000/svg">
<path d="M12.945 183.52C12.9983 183.52 13.045 183.542 13.085 183.585L13.47 184C13.1767 184.34 12.82 184.605 12.4 184.795C11.9833 184.985 11.4783 185.08 10.885 185.08C10.3717 185.08 9.905 184.992 9.485 184.815C9.065 184.635 8.70667 184.385 8.41 184.065C8.11333 183.742 7.88333 183.355 7.72 182.905C7.55667 182.455 7.475 181.96 7.475 181.42C7.475 180.88 7.56 180.385 7.73 179.935C7.9 179.485 8.13833 179.098 8.445 178.775C8.755 178.452 9.125 178.202 9.555 178.025C9.985 177.845 10.46 177.755 10.98 177.755C11.49 177.755 11.94 177.837 12.33 178C12.72 178.163 13.0633 178.385 13.36 178.665L13.04 179.11C13.02 179.143 12.9933 179.172 12.96 179.195C12.93 179.215 12.8883 179.225 12.835 179.225C12.775 179.225 12.7017 179.193 12.615 179.13C12.5283 179.063 12.415 178.99 12.275 178.91C12.135 178.83 11.96 178.758 11.75 178.695C11.54 178.628 11.2817 178.595 10.975 178.595C10.605 178.595 10.2667 178.66 9.96 178.79C9.65333 178.917 9.38833 179.102 9.165 179.345C8.945 179.588 8.77333 179.885 8.65 180.235C8.52667 180.585 8.465 180.98 8.465 181.42C8.465 181.867 8.52833 182.265 8.655 182.615C8.785 182.965 8.96 183.262 9.18 183.505C9.40333 183.745 9.665 183.928 9.965 184.055C10.2683 184.182 10.595 184.245 10.945 184.245C11.1583 184.245 11.35 184.233 11.52 184.21C11.6933 184.183 11.8517 184.143 11.995 184.09C12.1417 184.037 12.2767 183.97 12.4 183.89C12.5267 183.807 12.6517 183.708 12.775 183.595C12.8317 183.545 12.8883 183.52 12.945 183.52ZM16.7097 181.55C16.9864 181.55 17.2297 181.513 17.4397 181.44C17.653 181.367 17.8314 181.265 17.9747 181.135C18.1214 181.002 18.2314 180.843 18.3047 180.66C18.378 180.477 18.4147 180.275 18.4147 180.055C18.4147 179.598 18.273 179.242 17.9897 178.985C17.7097 178.728 17.283 178.6 16.7097 178.6H15.5597V181.55H16.7097ZM16.7097 177.835C17.163 177.835 17.5564 177.888 17.8897 177.995C18.2264 178.098 18.5047 178.247 18.7247 178.44C18.9447 178.633 19.108 178.867 19.2147 179.14C19.3247 179.413 19.3797 179.718 19.3797 180.055C19.3797 180.388 19.3214 180.693 19.2047 180.97C19.088 181.247 18.9164 181.485 18.6897 181.685C18.4664 181.885 18.188 182.042 17.8547 182.155C17.5247 182.265 17.143 182.32 16.7097 182.32H15.5597V185H14.5947V177.835H16.7097ZM23.3655 184.23C23.6622 184.23 23.9272 184.18 24.1605 184.08C24.3939 183.98 24.5905 183.84 24.7505 183.66C24.9139 183.48 25.0372 183.265 25.1205 183.015C25.2072 182.765 25.2505 182.49 25.2505 182.19V177.835H26.2155V182.19C26.2155 182.603 26.1489 182.987 26.0155 183.34C25.8855 183.693 25.6972 184 25.4505 184.26C25.2072 184.517 24.9089 184.718 24.5555 184.865C24.2022 185.012 23.8055 185.085 23.3655 185.085C22.9255 185.085 22.5289 185.012 22.1755 184.865C21.8222 184.718 21.5222 184.517 21.2755 184.26C21.0289 184 20.8389 183.693 20.7055 183.34C20.5755 182.987 20.5105 182.603 20.5105 182.19V177.835H21.4755V182.185C21.4755 182.485 21.5172 182.76 21.6005 183.01C21.6872 183.26 21.8105 183.475 21.9705 183.655C22.1339 183.835 22.3322 183.977 22.5655 184.08C22.8022 184.18 23.0689 184.23 23.3655 184.23ZM32.6277 181.55C32.9043 181.55 33.1477 181.513 33.3577 181.44C33.571 181.367 33.7493 181.265 33.8927 181.135C34.0393 181.002 34.1493 180.843 34.2227 180.66C34.296 180.477 34.3327 180.275 34.3327 180.055C34.3327 179.598 34.191 179.242 33.9077 178.985C33.6277 178.728 33.201 178.6 32.6277 178.6H31.4777V181.55H32.6277ZM32.6277 177.835C33.081 177.835 33.4743 177.888 33.8077 177.995C34.1443 178.098 34.4227 178.247 34.6427 178.44C34.8627 178.633 35.026 178.867 35.1327 179.14C35.2427 179.413 35.2977 179.718 35.2977 180.055C35.2977 180.388 35.2393 180.693 35.1227 180.97C35.006 181.247 34.8343 181.485 34.6077 181.685C34.3843 181.885 34.106 182.042 33.7727 182.155C33.4427 182.265 33.061 182.32 32.6277 182.32H31.4777V185H30.5127V177.835H32.6277ZM37.0559 180.95C37.2159 180.603 37.4125 180.333 37.6459 180.14C37.8792 179.943 38.1642 179.845 38.5009 179.845C38.6075 179.845 38.7092 179.857 38.8059 179.88C38.9059 179.903 38.9942 179.94 39.0709 179.99L39.0059 180.655C38.9859 180.738 38.9359 180.78 38.8559 180.78C38.8092 180.78 38.7409 180.77 38.6509 180.75C38.5609 180.73 38.4592 180.72 38.3459 180.72C38.1859 180.72 38.0425 180.743 37.9159 180.79C37.7925 180.837 37.6809 180.907 37.5809 181C37.4842 181.09 37.3959 181.203 37.3159 181.34C37.2392 181.473 37.1692 181.627 37.1059 181.8V185H36.2109V179.935H36.7209C36.8175 179.935 36.8842 179.953 36.9209 179.99C36.9575 180.027 36.9825 180.09 36.9959 180.18L37.0559 180.95ZM41.7834 179.855C42.1534 179.855 42.4867 179.917 42.7834 180.04C43.08 180.163 43.3334 180.338 43.5434 180.565C43.7534 180.792 43.9134 181.067 44.0234 181.39C44.1367 181.71 44.1934 182.068 44.1934 182.465C44.1934 182.865 44.1367 183.225 44.0234 183.545C43.9134 183.865 43.7534 184.138 43.5434 184.365C43.3334 184.592 43.08 184.767 42.7834 184.89C42.4867 185.01 42.1534 185.07 41.7834 185.07C41.41 185.07 41.0734 185.01 40.7734 184.89C40.4767 184.767 40.2234 184.592 40.0134 184.365C39.8034 184.138 39.6417 183.865 39.5284 183.545C39.4184 183.225 39.3634 182.865 39.3634 182.465C39.3634 182.068 39.4184 181.71 39.5284 181.39C39.6417 181.067 39.8034 180.792 40.0134 180.565C40.2234 180.338 40.4767 180.163 40.7734 180.04C41.0734 179.917 41.41 179.855 41.7834 179.855ZM41.7834 184.375C42.2834 184.375 42.6567 184.208 42.9034 183.875C43.15 183.538 43.2734 183.07 43.2734 182.47C43.2734 181.867 43.15 181.397 42.9034 181.06C42.6567 180.723 42.2834 180.555 41.7834 180.555C41.53 180.555 41.3084 180.598 41.1184 180.685C40.9317 180.772 40.775 180.897 40.6484 181.06C40.525 181.223 40.4317 181.425 40.3684 181.665C40.3084 181.902 40.2784 182.17 40.2784 182.47C40.2784 183.07 40.4017 183.538 40.6484 183.875C40.8984 184.208 41.2767 184.375 41.7834 184.375ZM45.5548 185V180.695L44.9948 180.63C44.9214 180.613 44.8631 180.588 44.8198 180.555C44.7764 180.518 44.7548 180.467 44.7548 180.4V180.035H45.5548V179.755C45.5548 179.445 45.6031 179.162 45.6998 178.905C45.7964 178.645 45.9414 178.422 46.1348 178.235C46.3281 178.048 46.5681 177.903 46.8548 177.8C47.1448 177.697 47.4798 177.645 47.8598 177.645C47.9864 177.645 48.1164 177.653 48.2498 177.67C48.3831 177.687 48.4981 177.712 48.5948 177.745L48.5598 178.21C48.5564 178.243 48.5431 178.267 48.5198 178.28C48.4998 178.293 48.4714 178.302 48.4348 178.305C48.3981 178.308 48.3514 178.31 48.2948 178.31C48.2414 178.307 48.1798 178.305 48.1098 178.305C47.5164 178.305 47.0864 178.428 46.8198 178.675C46.5531 178.918 46.4198 179.287 46.4198 179.78V180.035H49.4798V185H48.5848V180.68H46.4448V185H45.5548ZM51.8574 177.635V185H50.9674V177.635H51.8574ZM54.2407 179.935V185H53.3507V179.935H54.2407ZM54.4307 178.345C54.4307 178.432 54.4124 178.513 54.3757 178.59C54.3424 178.663 54.2957 178.73 54.2357 178.79C54.179 178.847 54.1107 178.892 54.0307 178.925C53.954 178.958 53.8724 178.975 53.7857 178.975C53.699 178.975 53.6174 178.958 53.5407 178.925C53.4674 178.892 53.4024 178.847 53.3457 178.79C53.289 178.73 53.244 178.663 53.2107 178.59C53.1774 178.513 53.1607 178.432 53.1607 178.345C53.1607 178.258 53.1774 178.177 53.2107 178.1C53.244 178.02 53.289 177.952 53.3457 177.895C53.4024 177.835 53.4674 177.788 53.5407 177.755C53.6174 177.722 53.699 177.705 53.7857 177.705C53.8724 177.705 53.954 177.722 54.0307 177.755C54.1107 177.788 54.179 177.835 54.2357 177.895C54.2957 177.952 54.3424 178.02 54.3757 178.1C54.4124 178.177 54.4307 178.258 54.4307 178.345ZM56.543 180.67C56.653 180.547 56.7697 180.435 56.893 180.335C57.0164 180.235 57.1464 180.15 57.283 180.08C57.423 180.007 57.5697 179.952 57.723 179.915C57.8797 179.875 58.048 179.855 58.228 179.855C58.5047 179.855 58.748 179.902 58.958 179.995C59.1714 180.085 59.348 180.215 59.488 180.385C59.6314 180.552 59.7397 180.753 59.813 180.99C59.8864 181.227 59.923 181.488 59.923 181.775V185H59.028V181.775C59.028 181.392 58.9397 181.095 58.763 180.885C58.5897 180.672 58.3247 180.565 57.968 180.565C57.7047 180.565 57.458 180.628 57.228 180.755C57.0014 180.882 56.7914 181.053 56.598 181.27V185H55.703V179.935H56.238C56.3647 179.935 56.443 179.997 56.473 180.12L56.543 180.67ZM63.0442 182.525C63.2242 182.525 63.3826 182.5 63.5192 182.45C63.6559 182.4 63.7709 182.33 63.8642 182.24C63.9576 182.15 64.0276 182.043 64.0742 181.92C64.1209 181.793 64.1442 181.655 64.1442 181.505C64.1442 181.195 64.0492 180.948 63.8592 180.765C63.6726 180.582 63.4009 180.49 63.0442 180.49C62.6842 180.49 62.4092 180.582 62.2192 180.765C62.0326 180.948 61.9392 181.195 61.9392 181.505C61.9392 181.655 61.9626 181.793 62.0092 181.92C62.0592 182.043 62.1309 182.15 62.2242 182.24C62.3176 182.33 62.4326 182.4 62.5692 182.45C62.7059 182.5 62.8642 182.525 63.0442 182.525ZM64.6492 185.275C64.6492 185.152 64.6142 185.052 64.5442 184.975C64.4742 184.898 64.3792 184.838 64.2592 184.795C64.1426 184.752 64.0059 184.722 63.8492 184.705C63.6926 184.685 63.5259 184.67 63.3492 184.66C63.1759 184.65 62.9992 184.64 62.8192 184.63C62.6392 184.62 62.4659 184.603 62.2992 184.58C62.1126 184.667 61.9592 184.777 61.8392 184.91C61.7226 185.04 61.6642 185.193 61.6642 185.37C61.6642 185.483 61.6926 185.588 61.7492 185.685C61.8092 185.785 61.8992 185.87 62.0192 185.94C62.1392 186.013 62.2892 186.07 62.4692 186.11C62.6526 186.153 62.8676 186.175 63.1142 186.175C63.3542 186.175 63.5692 186.153 63.7592 186.11C63.9492 186.067 64.1092 186.005 64.2392 185.925C64.3726 185.845 64.4742 185.75 64.5442 185.64C64.6142 185.53 64.6492 185.408 64.6492 185.275ZM65.5542 180.135V180.465C65.5542 180.575 65.4842 180.645 65.3442 180.675L64.7692 180.75C64.8826 180.97 64.9392 181.213 64.9392 181.48C64.9392 181.727 64.8909 181.952 64.7942 182.155C64.7009 182.355 64.5709 182.527 64.4042 182.67C64.2376 182.813 64.0376 182.923 63.8042 183C63.5709 183.077 63.3176 183.115 63.0442 183.115C62.8076 183.115 62.5842 183.087 62.3742 183.03C62.2676 183.097 62.1859 183.168 62.1292 183.245C62.0726 183.318 62.0442 183.393 62.0442 183.47C62.0442 183.59 62.0926 183.682 62.1892 183.745C62.2892 183.805 62.4192 183.848 62.5792 183.875C62.7392 183.902 62.9209 183.918 63.1242 183.925C63.3309 183.932 63.5409 183.943 63.7542 183.96C63.9709 183.973 64.1809 183.998 64.3842 184.035C64.5909 184.072 64.7742 184.132 64.9342 184.215C65.0942 184.298 65.2226 184.413 65.3192 184.56C65.4192 184.707 65.4692 184.897 65.4692 185.13C65.4692 185.347 65.4142 185.557 65.3042 185.76C65.1976 185.963 65.0426 186.143 64.8392 186.3C64.6359 186.46 64.3859 186.587 64.0892 186.68C63.7959 186.777 63.4642 186.825 63.0942 186.825C62.7242 186.825 62.4009 186.788 62.1242 186.715C61.8476 186.642 61.6176 186.543 61.4342 186.42C61.2509 186.297 61.1126 186.153 61.0192 185.99C60.9292 185.83 60.8842 185.662 60.8842 185.485C60.8842 185.235 60.9626 185.023 61.1192 184.85C61.2759 184.677 61.4909 184.538 61.7642 184.435C61.6142 184.368 61.4942 184.28 61.4042 184.17C61.3176 184.057 61.2742 183.905 61.2742 183.715C61.2742 183.642 61.2876 183.567 61.3142 183.49C61.3409 183.41 61.3809 183.332 61.4342 183.255C61.4909 183.175 61.5592 183.1 61.6392 183.03C61.7192 182.96 61.8126 182.898 61.9192 182.845C61.6692 182.705 61.4742 182.52 61.3342 182.29C61.1942 182.057 61.1242 181.787 61.1242 181.48C61.1242 181.233 61.1709 181.01 61.2642 180.81C61.3609 180.607 61.4942 180.435 61.6642 180.295C61.8342 180.152 62.0359 180.042 62.2692 179.965C62.5059 179.888 62.7642 179.85 63.0442 179.85C63.2642 179.85 63.4692 179.875 63.6592 179.925C63.8492 179.972 64.0226 180.042 64.1792 180.135H65.5542Z" fill="#82A7DB"/>
<path d="M424.37 171.835V179H423.52V173.735C423.52 173.665 423.522 173.59 423.525 173.51C423.532 173.43 423.538 173.348 423.545 173.265L421.085 177.745C421.008 177.895 420.892 177.97 420.735 177.97H420.595C420.438 177.97 420.322 177.895 420.245 177.745L417.735 173.245C417.755 173.422 417.765 173.585 417.765 173.735V179H416.915V171.835H417.63C417.717 171.835 417.783 171.843 417.83 171.86C417.877 171.877 417.922 171.923 417.965 172L420.44 176.41C420.48 176.49 420.518 176.573 420.555 176.66C420.595 176.747 420.632 176.835 420.665 176.925C420.698 176.835 420.733 176.747 420.77 176.66C420.807 176.57 420.847 176.485 420.89 176.405L423.32 172C423.36 171.923 423.403 171.877 423.45 171.86C423.5 171.843 423.568 171.835 423.655 171.835H424.37ZM429.226 175.915C429.226 175.708 429.196 175.52 429.136 175.35C429.079 175.177 428.994 175.028 428.881 174.905C428.771 174.778 428.636 174.682 428.476 174.615C428.316 174.545 428.134 174.51 427.931 174.51C427.504 174.51 427.166 174.635 426.916 174.885C426.669 175.132 426.516 175.475 426.456 175.915H429.226ZM429.946 178.29C429.836 178.423 429.704 178.54 429.551 178.64C429.398 178.737 429.233 178.817 429.056 178.88C428.883 178.943 428.703 178.99 428.516 179.02C428.329 179.053 428.144 179.07 427.961 179.07C427.611 179.07 427.288 179.012 426.991 178.895C426.698 178.775 426.443 178.602 426.226 178.375C426.013 178.145 425.846 177.862 425.726 177.525C425.606 177.188 425.546 176.802 425.546 176.365C425.546 176.012 425.599 175.682 425.706 175.375C425.816 175.068 425.973 174.803 426.176 174.58C426.379 174.353 426.628 174.177 426.921 174.05C427.214 173.92 427.544 173.855 427.911 173.855C428.214 173.855 428.494 173.907 428.751 174.01C429.011 174.11 429.234 174.257 429.421 174.45C429.611 174.64 429.759 174.877 429.866 175.16C429.973 175.44 430.026 175.76 430.026 176.12C430.026 176.26 430.011 176.353 429.981 176.4C429.951 176.447 429.894 176.47 429.811 176.47H426.426C426.436 176.79 426.479 177.068 426.556 177.305C426.636 177.542 426.746 177.74 426.886 177.9C427.026 178.057 427.193 178.175 427.386 178.255C427.579 178.332 427.796 178.37 428.036 178.37C428.259 178.37 428.451 178.345 428.611 178.295C428.774 178.242 428.914 178.185 429.031 178.125C429.148 178.065 429.244 178.01 429.321 177.96C429.401 177.907 429.469 177.88 429.526 177.88C429.599 177.88 429.656 177.908 429.696 177.965L429.946 178.29ZM431.119 179V173.935H431.654C431.781 173.935 431.859 173.997 431.889 174.12L431.954 174.64C432.141 174.41 432.351 174.222 432.584 174.075C432.817 173.928 433.087 173.855 433.394 173.855C433.734 173.855 434.009 173.95 434.219 174.14C434.432 174.33 434.586 174.587 434.679 174.91C434.752 174.727 434.846 174.568 434.959 174.435C435.076 174.302 435.206 174.192 435.349 174.105C435.492 174.018 435.644 173.955 435.804 173.915C435.967 173.875 436.132 173.855 436.299 173.855C436.566 173.855 436.802 173.898 437.009 173.985C437.219 174.068 437.396 174.192 437.539 174.355C437.686 174.518 437.797 174.72 437.874 174.96C437.951 175.197 437.989 175.468 437.989 175.775V179H437.094V175.775C437.094 175.378 437.007 175.078 436.834 174.875C436.661 174.668 436.411 174.565 436.084 174.565C435.937 174.565 435.797 174.592 435.664 174.645C435.534 174.695 435.419 174.77 435.319 174.87C435.219 174.97 435.139 175.097 435.079 175.25C435.022 175.4 434.994 175.575 434.994 175.775V179H434.099V175.775C434.099 175.368 434.017 175.065 433.854 174.865C433.691 174.665 433.452 174.565 433.139 174.565C432.919 174.565 432.716 174.625 432.529 174.745C432.342 174.862 432.171 175.022 432.014 175.225V179H431.119ZM441.477 173.855C441.847 173.855 442.18 173.917 442.477 174.04C442.773 174.163 443.027 174.338 443.237 174.565C443.447 174.792 443.607 175.067 443.717 175.39C443.83 175.71 443.887 176.068 443.887 176.465C443.887 176.865 443.83 177.225 443.717 177.545C443.607 177.865 443.447 178.138 443.237 178.365C443.027 178.592 442.773 178.767 442.477 178.89C442.18 179.01 441.847 179.07 441.477 179.07C441.103 179.07 440.767 179.01 440.467 178.89C440.17 178.767 439.917 178.592 439.707 178.365C439.497 178.138 439.335 177.865 439.222 177.545C439.112 177.225 439.057 176.865 439.057 176.465C439.057 176.068 439.112 175.71 439.222 175.39C439.335 175.067 439.497 174.792 439.707 174.565C439.917 174.338 440.17 174.163 440.467 174.04C440.767 173.917 441.103 173.855 441.477 173.855ZM441.477 178.375C441.977 178.375 442.35 178.208 442.597 177.875C442.843 177.538 442.967 177.07 442.967 176.47C442.967 175.867 442.843 175.397 442.597 175.06C442.35 174.723 441.977 174.555 441.477 174.555C441.223 174.555 441.002 174.598 440.812 174.685C440.625 174.772 440.468 174.897 440.342 175.06C440.218 175.223 440.125 175.425 440.062 175.665C440.002 175.902 439.972 176.17 439.972 176.47C439.972 177.07 440.095 177.538 440.342 177.875C440.592 178.208 440.97 178.375 441.477 178.375ZM445.861 174.95C446.021 174.603 446.217 174.333 446.451 174.14C446.684 173.943 446.969 173.845 447.306 173.845C447.412 173.845 447.514 173.857 447.611 173.88C447.711 173.903 447.799 173.94 447.876 173.99L447.811 174.655C447.791 174.738 447.741 174.78 447.661 174.78C447.614 174.78 447.546 174.77 447.456 174.75C447.366 174.73 447.264 174.72 447.151 174.72C446.991 174.72 446.847 174.743 446.721 174.79C446.597 174.837 446.486 174.907 446.386 175C446.289 175.09 446.201 175.203 446.121 175.34C446.044 175.473 445.974 175.627 445.911 175.8V179H445.016V173.935H445.526C445.622 173.935 445.689 173.953 445.726 173.99C445.762 174.027 445.787 174.09 445.801 174.18L445.861 174.95ZM453.028 173.935L450.203 180.495C450.173 180.562 450.135 180.615 450.088 180.655C450.045 180.695 449.976 180.715 449.883 180.715H449.223L450.148 178.705L448.058 173.935H448.828C448.905 173.935 448.965 173.955 449.008 173.995C449.055 174.032 449.086 174.073 449.103 174.12L450.458 177.31C450.511 177.45 450.556 177.597 450.593 177.75C450.64 177.593 450.69 177.445 450.743 177.305L452.058 174.12C452.078 174.067 452.111 174.023 452.158 173.99C452.208 173.953 452.263 173.935 452.323 173.935H453.028ZM458.454 175.55C458.73 175.55 458.974 175.513 459.184 175.44C459.397 175.367 459.575 175.265 459.719 175.135C459.865 175.002 459.975 174.843 460.049 174.66C460.122 174.477 460.159 174.275 460.159 174.055C460.159 173.598 460.017 173.242 459.734 172.985C459.454 172.728 459.027 172.6 458.454 172.6H457.304V175.55H458.454ZM458.454 171.835C458.907 171.835 459.3 171.888 459.634 171.995C459.97 172.098 460.249 172.247 460.469 172.44C460.689 172.633 460.852 172.867 460.959 173.14C461.069 173.413 461.124 173.718 461.124 174.055C461.124 174.388 461.065 174.693 460.949 174.97C460.832 175.247 460.66 175.485 460.434 175.685C460.21 175.885 459.932 176.042 459.599 176.155C459.269 176.265 458.887 176.32 458.454 176.32H457.304V179H456.339V171.835H458.454ZM462.882 174.95C463.042 174.603 463.239 174.333 463.472 174.14C463.705 173.943 463.99 173.845 464.327 173.845C464.434 173.845 464.535 173.857 464.632 173.88C464.732 173.903 464.82 173.94 464.897 173.99L464.832 174.655C464.812 174.738 464.762 174.78 464.682 174.78C464.635 174.78 464.567 174.77 464.477 174.75C464.387 174.73 464.285 174.72 464.172 174.72C464.012 174.72 463.869 174.743 463.742 174.79C463.619 174.837 463.507 174.907 463.407 175C463.31 175.09 463.222 175.203 463.142 175.34C463.065 175.473 462.995 175.627 462.932 175.8V179H462.037V173.935H462.547C462.644 173.935 462.71 173.953 462.747 173.99C462.784 174.027 462.809 174.09 462.822 174.18L462.882 174.95ZM467.61 173.855C467.98 173.855 468.313 173.917 468.61 174.04C468.906 174.163 469.16 174.338 469.37 174.565C469.58 174.792 469.74 175.067 469.85 175.39C469.963 175.71 470.02 176.068 470.02 176.465C470.02 176.865 469.963 177.225 469.85 177.545C469.74 177.865 469.58 178.138 469.37 178.365C469.16 178.592 468.906 178.767 468.61 178.89C468.313 179.01 467.98 179.07 467.61 179.07C467.236 179.07 466.9 179.01 466.6 178.89C466.303 178.767 466.05 178.592 465.84 178.365C465.63 178.138 465.468 177.865 465.355 177.545C465.245 177.225 465.19 176.865 465.19 176.465C465.19 176.068 465.245 175.71 465.355 175.39C465.468 175.067 465.63 174.792 465.84 174.565C466.05 174.338 466.303 174.163 466.6 174.04C466.9 173.917 467.236 173.855 467.61 173.855ZM467.61 178.375C468.11 178.375 468.483 178.208 468.73 177.875C468.976 177.538 469.1 177.07 469.1 176.47C469.1 175.867 468.976 175.397 468.73 175.06C468.483 174.723 468.11 174.555 467.61 174.555C467.356 174.555 467.135 174.598 466.945 174.685C466.758 174.772 466.601 174.897 466.475 175.06C466.351 175.223 466.258 175.425 466.195 175.665C466.135 175.902 466.105 176.17 466.105 176.47C466.105 177.07 466.228 177.538 466.475 177.875C466.725 178.208 467.103 178.375 467.61 178.375ZM471.381 179V174.695L470.821 174.63C470.748 174.613 470.689 174.588 470.646 174.555C470.603 174.518 470.581 174.467 470.581 174.4V174.035H471.381V173.755C471.381 173.445 471.429 173.162 471.526 172.905C471.623 172.645 471.768 172.422 471.961 172.235C472.154 172.048 472.394 171.903 472.681 171.8C472.971 171.697 473.306 171.645 473.686 171.645C473.813 171.645 473.943 171.653 474.076 171.67C474.209 171.687 474.324 171.712 474.421 171.745L474.386 172.21C474.383 172.243 474.369 172.267 474.346 172.28C474.326 172.293 474.298 172.302 474.261 172.305C474.224 172.308 474.178 172.31 474.121 172.31C474.068 172.307 474.006 172.305 473.936 172.305C473.343 172.305 472.913 172.428 472.646 172.675C472.379 172.918 472.246 173.287 472.246 173.78V174.035H475.306V179H474.411V174.68H472.271V179H471.381ZM477.684 171.635V179H476.794V171.635H477.684ZM480.067 173.935V179H479.177V173.935H480.067ZM480.257 172.345C480.257 172.432 480.239 172.513 480.202 172.59C480.169 172.663 480.122 172.73 480.062 172.79C480.005 172.847 479.937 172.892 479.857 172.925C479.78 172.958 479.699 172.975 479.612 172.975C479.525 172.975 479.444 172.958 479.367 172.925C479.294 172.892 479.229 172.847 479.172 172.79C479.115 172.73 479.07 172.663 479.037 172.59C479.004 172.513 478.987 172.432 478.987 172.345C478.987 172.258 479.004 172.177 479.037 172.1C479.07 172.02 479.115 171.952 479.172 171.895C479.229 171.835 479.294 171.788 479.367 171.755C479.444 171.722 479.525 171.705 479.612 171.705C479.699 171.705 479.78 171.722 479.857 171.755C479.937 171.788 480.005 171.835 480.062 171.895C480.122 171.952 480.169 172.02 480.202 172.1C480.239 172.177 480.257 172.258 480.257 172.345ZM482.369 174.67C482.479 174.547 482.596 174.435 482.719 174.335C482.843 174.235 482.973 174.15 483.109 174.08C483.249 174.007 483.396 173.952 483.549 173.915C483.706 173.875 483.874 173.855 484.054 173.855C484.331 173.855 484.574 173.902 484.784 173.995C484.998 174.085 485.174 174.215 485.314 174.385C485.458 174.552 485.566 174.753 485.639 174.99C485.713 175.227 485.749 175.488 485.749 175.775V179H484.854V175.775C484.854 175.392 484.766 175.095 484.589 174.885C484.416 174.672 484.151 174.565 483.794 174.565C483.531 174.565 483.284 174.628 483.054 174.755C482.828 174.882 482.618 175.053 482.424 175.27V179H481.529V173.935H482.064C482.191 173.935 482.269 173.997 482.299 174.12L482.369 174.67ZM488.87 176.525C489.05 176.525 489.209 176.5 489.345 176.45C489.482 176.4 489.597 176.33 489.69 176.24C489.784 176.15 489.854 176.043 489.9 175.92C489.947 175.793 489.97 175.655 489.97 175.505C489.97 175.195 489.875 174.948 489.685 174.765C489.499 174.582 489.227 174.49 488.87 174.49C488.51 174.49 488.235 174.582 488.045 174.765C487.859 174.948 487.765 175.195 487.765 175.505C487.765 175.655 487.789 175.793 487.835 175.92C487.885 176.043 487.957 176.15 488.05 176.24C488.144 176.33 488.259 176.4 488.395 176.45C488.532 176.5 488.69 176.525 488.87 176.525ZM490.475 179.275C490.475 179.152 490.44 179.052 490.37 178.975C490.3 178.898 490.205 178.838 490.085 178.795C489.969 178.752 489.832 178.722 489.675 178.705C489.519 178.685 489.352 178.67 489.175 178.66C489.002 178.65 488.825 178.64 488.645 178.63C488.465 178.62 488.292 178.603 488.125 178.58C487.939 178.667 487.785 178.777 487.665 178.91C487.549 179.04 487.49 179.193 487.49 179.37C487.49 179.483 487.519 179.588 487.575 179.685C487.635 179.785 487.725 179.87 487.845 179.94C487.965 180.013 488.115 180.07 488.295 180.11C488.479 180.153 488.694 180.175 488.94 180.175C489.18 180.175 489.395 180.153 489.585 180.11C489.775 180.067 489.935 180.005 490.065 179.925C490.199 179.845 490.3 179.75 490.37 179.64C490.44 179.53 490.475 179.408 490.475 179.275ZM491.38 174.135V174.465C491.38 174.575 491.31 174.645 491.17 174.675L490.595 174.75C490.709 174.97 490.765 175.213 490.765 175.48C490.765 175.727 490.717 175.952 490.62 176.155C490.527 176.355 490.397 176.527 490.23 176.67C490.064 176.813 489.864 176.923 489.63 177C489.397 177.077 489.144 177.115 488.87 177.115C488.634 177.115 488.41 177.087 488.2 177.03C488.094 177.097 488.012 177.168 487.955 177.245C487.899 177.318 487.87 177.393 487.87 177.47C487.87 177.59 487.919 177.682 488.015 177.745C488.115 177.805 488.245 177.848 488.405 177.875C488.565 177.902 488.747 177.918 488.95 177.925C489.157 177.932 489.367 177.943 489.58 177.96C489.797 177.973 490.007 177.998 490.21 178.035C490.417 178.072 490.6 178.132 490.76 178.215C490.92 178.298 491.049 178.413 491.145 178.56C491.245 178.707 491.295 178.897 491.295 179.13C491.295 179.347 491.24 179.557 491.13 179.76C491.024 179.963 490.869 180.143 490.665 180.3C490.462 180.46 490.212 180.587 489.915 180.68C489.622 180.777 489.29 180.825 488.92 180.825C488.55 180.825 488.227 180.788 487.95 180.715C487.674 180.642 487.444 180.543 487.26 180.42C487.077 180.297 486.939 180.153 486.845 179.99C486.755 179.83 486.71 179.662 486.71 179.485C486.71 179.235 486.789 179.023 486.945 178.85C487.102 178.677 487.317 178.538 487.59 178.435C487.44 178.368 487.32 178.28 487.23 178.17C487.144 178.057 487.1 177.905 487.1 177.715C487.1 177.642 487.114 177.567 487.14 177.49C487.167 177.41 487.207 177.332 487.26 177.255C487.317 177.175 487.385 177.1 487.465 177.03C487.545 176.96 487.639 176.898 487.745 176.845C487.495 176.705 487.3 176.52 487.16 176.29C487.02 176.057 486.95 175.787 486.95 175.48C486.95 175.233 486.997 175.01 487.09 174.81C487.187 174.607 487.32 174.435 487.49 174.295C487.66 174.152 487.862 174.042 488.095 173.965C488.332 173.888 488.59 173.85 488.87 173.85C489.09 173.85 489.295 173.875 489.485 173.925C489.675 173.972 489.849 174.042 490.005 174.135H491.38Z" fill="#82A7DB"/>
<path d="M54.545 106.273H17.4542C14.0401 106.273 11.2725 109.041 11.2725 112.455V149.545C11.2725 152.96 14.0401 155.727 17.4542 155.727H54.545C57.9591 155.727 60.7268 152.96 60.7268 149.545V112.455C60.7268 109.041 57.9591 106.273 54.545 106.273Z" stroke="#1AB3FF" stroke-width="3" stroke-linecap="round" stroke-linejoin="round"/>
<path d="M45.2729 121.728H26.7275V140.273H45.2729V121.728Z" stroke="#1AB3FF" stroke-width="3" stroke-linecap="round" stroke-linejoin="round"/>
<path d="M26.7275 97.0005V106.273" stroke="#1AB3FF" stroke-width="3" stroke-linecap="round" stroke-linejoin="round"/>
<path d="M45.2725 97.0005V106.273" stroke="#1AB3FF" stroke-width="3" stroke-linecap="round" stroke-linejoin="round"/>
<path d="M26.7275 155.727V165" stroke="#1AB3FF" stroke-width="3" stroke-linecap="round" stroke-linejoin="round"/>
<path d="M45.2725 155.727V165" stroke="#1AB3FF" stroke-width="3" stroke-linecap="round" stroke-linejoin="round"/>
<path d="M60.7275 121.728H70.0002" stroke="#1AB3FF" stroke-width="3" stroke-linecap="round" stroke-linejoin="round"/>
<path d="M60.7275 137.182H70.0002" stroke="#1AB3FF" stroke-width="3" stroke-linecap="round" stroke-linejoin="round"/>
<path d="M2 121.728H11.2727" stroke="#1AB3FF" stroke-width="3" stroke-linecap="round" stroke-linejoin="round"/>
<path d="M2 137.182H11.2727" stroke="#1AB3FF" stroke-width="3" stroke-linecap="round" stroke-linejoin="round"/>
<path d="M69.25 130.75C69.6642 130.75 70 130.414 70 130C70 129.586 69.6642 129.25 69.25 129.25V130.75ZM75.75 129.25C75.3358 129.25 75 129.586 75 130C75 130.414 75.3358 130.75 75.75 130.75V129.25ZM82.25 130.75C82.6642 130.75 83 130.414 83 130C83 129.586 82.6642 129.25 82.25 129.25V130.75ZM88.75 129.25C88.3358 129.25 88 129.586 88 130C88 130.414 88.3358 130.75 88.75 130.75V129.25ZM95.8847 130.499C96.2954 130.445 96.5849 130.069 96.5314 129.658C96.4778 129.247 96.1014 128.958 95.6907 129.011L95.8847 130.499ZM102.814 127.107C102.431 127.265 102.249 127.704 102.408 128.087C102.567 128.469 103.006 128.651 103.388 128.492L102.814 127.107ZM110.112 124.603C110.44 124.351 110.502 123.88 110.249 123.552C109.997 123.223 109.526 123.162 109.198 123.414L110.112 124.603ZM114.414 118.198C114.162 118.526 114.223 118.997 114.552 119.249C114.88 119.502 115.351 119.44 115.603 119.112L114.414 118.198ZM119.492 112.388C119.651 112.006 119.469 111.567 119.087 111.408C118.704 111.249 118.265 111.431 118.107 111.814L119.492 112.388ZM120.011 104.691C119.958 105.101 120.247 105.478 120.658 105.531C121.069 105.585 121.445 105.295 121.499 104.885L120.011 104.691ZM121.75 96.25C121.75 95.8358 121.414 95.5 121 95.5C120.586 95.5 120.25 95.8358 120.25 96.25H121.75ZM120.25 86.75C120.25 87.1642 120.586 87.5 121 87.5C121.414 87.5 121.75 87.1642 121.75 86.75H120.25ZM66 130.75H69.25V129.25H66V130.75ZM75.75 130.75H82.25V129.25H75.75V130.75ZM88.75 130.75H92V129.25H88.75V130.75ZM92 130.75C93.3163 130.75 94.6129 130.664 95.8847 130.499L95.6907 129.011C94.4831 129.169 93.2512 129.25 92 129.25V130.75ZM103.388 128.492C105.807 127.489 108.065 126.176 110.112 124.603L109.198 123.414C107.254 124.908 105.11 126.154 102.814 127.107L103.388 128.492ZM115.603 119.112C117.176 117.065 118.489 114.807 119.492 112.388L118.107 111.814C117.154 114.11 115.908 116.254 114.414 118.198L115.603 119.112ZM121.499 104.885C121.664 103.613 121.75 102.316 121.75 101H120.25C120.25 102.251 120.169 103.483 120.011 104.691L121.499 104.885ZM121.75 101V96.25H120.25V101H121.75ZM121.75 86.75V82H120.25V86.75H121.75ZM69.25 131.5C70.0784 131.5 70.75 130.828 70.75 130C70.75 129.172 70.0784 128.5 69.25 128.5V131.5ZM75.75 128.5C74.9216 128.5 74.25 129.172 74.25 130C74.25 130.828 74.9216 131.5 75.75 131.5V128.5ZM82.25 131.5C83.0784 131.5 83.75 130.828 83.75 130C83.75 129.172 83.0784 128.5 82.25 128.5V131.5ZM88.75 128.5C87.9216 128.5 87.25 129.172 87.25 130C87.25 130.828 87.9216 131.5 88.75 131.5V128.5ZM95.9817 131.242C96.8032 131.135 97.3822 130.382 97.2751 129.561C97.1679 128.739 96.4151 128.16 95.5937 128.267L95.9817 131.242ZM102.526 126.414C101.761 126.731 101.398 127.609 101.715 128.374C102.033 129.139 102.91 129.502 103.675 129.185L102.526 126.414ZM110.569 125.198C111.226 124.693 111.349 123.751 110.844 123.095C110.339 122.438 109.398 122.314 108.741 122.819L110.569 125.198ZM113.819 117.741C113.314 118.398 113.438 119.339 114.095 119.844C114.751 120.349 115.693 120.226 116.198 119.569L113.819 117.741ZM120.185 112.675C120.502 111.91 120.139 111.033 119.374 110.715C118.609 110.398 117.731 110.761 117.414 111.526L120.185 112.675ZM119.267 104.594C119.16 105.415 119.739 106.168 120.561 106.275C121.382 106.382 122.135 105.803 122.242 104.982L119.267 104.594ZM122.5 96.25C122.5 95.4216 121.828 94.75 121 94.75C120.172 94.75 119.5 95.4216 119.5 96.25H122.5ZM119.5 86.75C119.5 87.5784 120.172 88.25 121 88.25C121.828 88.25 122.5 87.5784 122.5 86.75H119.5ZM66 131.5H69.25V128.5H66V131.5ZM75.75 131.5H82.25V128.5H75.75V131.5ZM88.75 131.5H92V128.5H88.75V131.5ZM92 131.5C93.3488 131.5 94.6779 131.412 95.9817 131.242L95.5937 128.267C94.4182 128.421 93.2187 128.5 92 128.5V131.5ZM103.675 129.185C106.156 128.156 108.47 126.81 110.569 125.198L108.741 122.819C106.848 124.274 104.761 125.487 102.526 126.414L103.675 129.185ZM116.198 119.569C117.81 117.47 119.156 115.156 120.185 112.675L117.414 111.526C116.487 113.761 115.274 115.848 113.819 117.741L116.198 119.569ZM122.242 104.982C122.412 103.678 122.5 102.349 122.5 101H119.5C119.5 102.219 119.421 103.418 119.267 104.594L122.242 104.982ZM122.5 101V96.25H119.5V101H122.5ZM122.5 86.75V82H119.5V86.75H122.5Z" fill="#1AB3FF"/>
<path d="M253 37.75C253.414 37.75 253.75 37.4142 253.75 37C253.75 36.5858 253.414 36.25 253 36.25V37.75ZM121.75 78.75C121.75 78.3358 121.414 78 121 78C120.586 78 120.25 78.3358 120.25 78.75H121.75ZM120.25 70.25C120.25 70.6642 120.586 71 121 71C121.414 71 121.75 70.6642 121.75 70.25H120.25ZM121.989 62.3093C122.042 61.8986 121.753 61.5222 121.342 61.4686C120.931 61.4151 120.555 61.7046 120.501 62.1153L121.989 62.3093ZM122.508 54.6119C122.349 54.9945 122.531 55.4333 122.913 55.5919C123.296 55.7506 123.735 55.5691 123.893 55.1864L122.508 54.6119ZM127.586 48.8023C127.838 48.4738 127.777 48.003 127.448 47.7506C127.12 47.4982 126.649 47.5598 126.397 47.8883L127.586 48.8023ZM131.888 42.3967C131.56 42.6491 131.498 43.12 131.751 43.4484C132.003 43.7768 132.474 43.8385 132.802 43.5861L131.888 42.3967ZM139.186 39.8933C139.569 39.7347 139.751 39.2959 139.592 38.9132C139.433 38.5306 138.994 38.3491 138.612 38.5077L139.186 39.8933ZM146.115 36.5014C145.705 36.555 145.415 36.9314 145.469 37.3421C145.522 37.7529 145.899 38.0424 146.309 37.9888L146.115 36.5014ZM153.679 37.75C154.093 37.75 154.429 37.4142 154.429 37C154.429 36.5858 154.093 36.25 153.679 36.25V37.75ZM161.036 36.25C160.622 36.25 160.286 36.5858 160.286 37C160.286 37.4142 160.622 37.75 161.036 37.75V36.25ZM168.393 37.75C168.807 37.75 169.143 37.4142 169.143 37C169.143 36.5858 168.807 36.25 168.393 36.25V37.75ZM175.75 36.25C175.336 36.25 175 36.5858 175 37C175 37.4142 175.336 37.75 175.75 37.75V36.25ZM183.107 37.75C183.521 37.75 183.857 37.4142 183.857 37C183.857 36.5858 183.521 36.25 183.107 36.25V37.75ZM190.464 36.25C190.05 36.25 189.714 36.5858 189.714 37C189.714 37.4142 190.05 37.75 190.464 37.75V36.25ZM197.821 37.75C198.236 37.75 198.571 37.4142 198.571 37C198.571 36.5858 198.236 36.25 197.821 36.25V37.75ZM205.179 36.25C204.764 36.25 204.429 36.5858 204.429 37C204.429 37.4142 204.764 37.75 205.179 37.75V36.25ZM212.536 37.75C212.95 37.75 213.286 37.4142 213.286 37C213.286 36.5858 212.95 36.25 212.536 36.25V37.75ZM219.893 36.25C219.479 36.25 219.143 36.5858 219.143 37C219.143 37.4142 219.479 37.75 219.893 37.75V36.25ZM227.25 37.75C227.664 37.75 228 37.4142 228 37C228 36.5858 227.664 36.25 227.25 36.25V37.75ZM234.607 36.25C234.193 36.25 233.857 36.5858 233.857 37C233.857 37.4142 234.193 37.75 234.607 37.75V36.25ZM241.964 37.75C242.378 37.75 242.714 37.4142 242.714 37C242.714 36.5858 242.378 36.25 241.964 36.25V37.75ZM249.321 36.25C248.907 36.25 248.571 36.5858 248.571 37C248.571 37.4142 248.907 37.75 249.321 37.75V36.25ZM121.75 83V78.75H120.25V83H121.75ZM121.75 70.25V66H120.25V70.25H121.75ZM121.75 66C121.75 64.7488 121.831 63.5169 121.989 62.3093L120.501 62.1153C120.336 63.3871 120.25 64.6837 120.25 66H121.75ZM123.893 55.1864C124.846 52.8902 126.092 50.7464 127.586 48.8023L126.397 47.8883C124.824 49.9352 123.511 52.1929 122.508 54.6119L123.893 55.1864ZM132.802 43.5861C134.746 42.0921 136.89 40.8455 139.186 39.8933L138.612 38.5077C136.193 39.5109 133.935 40.8238 131.888 42.3967L132.802 43.5861ZM146.309 37.9888C147.517 37.8313 148.749 37.75 150 37.75V36.25C148.684 36.25 147.387 36.3355 146.115 36.5014L146.309 37.9888ZM150 37.75H153.679V36.25H150V37.75ZM161.036 37.75H168.393V36.25H161.036V37.75ZM175.75 37.75H183.107V36.25H175.75V37.75ZM190.464 37.75H197.821V36.25H190.464V37.75ZM205.179 37.75H212.536V36.25H205.179V37.75ZM219.893 37.75H227.25V36.25H219.893V37.75ZM234.607 37.75H241.964V36.25H234.607V37.75ZM249.321 37.75H253V36.25H249.321V37.75ZM253 38.5C253.828 38.5 254.5 37.8284 254.5 37C254.5 36.1716 253.828 35.5 253 35.5V38.5ZM122.5 78.75C122.5 77.9216 121.828 77.25 121 77.25C120.172 77.25 119.5 77.9216 119.5 78.75H122.5ZM119.5 70.25C119.5 71.0784 120.172 71.75 121 71.75C121.828 71.75 122.5 71.0784 122.5 70.25H119.5ZM122.733 62.4063C122.84 61.5849 122.261 60.8321 121.439 60.7249C120.618 60.6178 119.865 61.1968 119.758 62.0183L122.733 62.4063ZM121.815 54.3246C121.498 55.0898 121.861 55.9674 122.626 56.2847C123.391 56.6021 124.269 56.239 124.586 55.4737L121.815 54.3246ZM128.181 49.2593C128.686 48.6024 128.562 47.6607 127.905 47.1559C127.249 46.6511 126.307 46.7744 125.802 47.4313L128.181 49.2593ZM131.431 41.802C130.774 42.3068 130.651 43.2485 131.156 43.9054C131.661 44.5623 132.602 44.6856 133.259 44.1808L131.431 41.802ZM139.474 40.5861C140.239 40.2688 140.602 39.3912 140.285 38.626C139.967 37.8607 139.09 37.4976 138.325 37.8149L139.474 40.5861ZM146.018 35.7577C145.197 35.8649 144.618 36.6177 144.725 37.4391C144.832 38.2606 145.585 38.8397 146.406 38.7325L146.018 35.7577ZM153.679 38.5C154.507 38.5 155.179 37.8284 155.179 37C155.179 36.1716 154.507 35.5 153.679 35.5V38.5ZM161.036 35.5C160.207 35.5 159.536 36.1716 159.536 37C159.536 37.8284 160.207 38.5 161.036 38.5V35.5ZM168.393 38.5C169.221 38.5 169.893 37.8284 169.893 37C169.893 36.1716 169.221 35.5 168.393 35.5V38.5ZM175.75 35.5C174.922 35.5 174.25 36.1716 174.25 37C174.25 37.8284 174.922 38.5 175.75 38.5V35.5ZM183.107 38.5C183.936 38.5 184.607 37.8284 184.607 37C184.607 36.1716 183.936 35.5 183.107 35.5V38.5ZM190.464 35.5C189.636 35.5 188.964 36.1716 188.964 37C188.964 37.8284 189.636 38.5 190.464 38.5V35.5ZM197.821 38.5C198.65 38.5 199.321 37.8284 199.321 37C199.321 36.1716 198.65 35.5 197.821 35.5V38.5ZM205.179 35.5C204.35 35.5 203.679 36.1716 203.679 37C203.679 37.8284 204.35 38.5 205.179 38.5V35.5ZM212.536 38.5C213.364 38.5 214.036 37.8284 214.036 37C214.036 36.1716 213.364 35.5 212.536 35.5V38.5ZM219.893 35.5C219.064 35.5 218.393 36.1716 218.393 37C218.393 37.8284 219.064 38.5 219.893 38.5V35.5ZM227.25 38.5C228.078 38.5 228.75 37.8284 228.75 37C228.75 36.1716 228.078 35.5 227.25 35.5V38.5ZM234.607 35.5C233.779 35.5 233.107 36.1716 233.107 37C233.107 37.8284 233.779 38.5 234.607 38.5V35.5ZM241.964 38.5C242.793 38.5 243.464 37.8284 243.464 37C243.464 36.1716 242.793 35.5 241.964 35.5V38.5ZM249.321 35.5C248.493 35.5 247.821 36.1716 247.821 37C247.821 37.8284 248.493 38.5 249.321 38.5V35.5ZM122.5 83V78.75H119.5V83H122.5ZM122.5 70.25V66H119.5V70.25H122.5ZM122.5 66C122.5 64.7813 122.579 63.5818 122.733 62.4063L119.758 62.0183C119.588 63.3221 119.5 64.6512 119.5 66H122.5ZM124.586 55.4737C125.513 53.2389 126.726 51.152 128.181 49.2593L125.802 47.4313C124.19 49.5296 122.844 51.8442 121.815 54.3246L124.586 55.4737ZM133.259 44.1808C135.152 42.7263 137.239 41.5129 139.474 40.5861L138.325 37.8149C135.844 38.8435 133.53 40.1896 131.431 41.802L133.259 44.1808ZM146.406 38.7325C147.582 38.5792 148.781 38.5 150 38.5V35.5C148.651 35.5 147.322 35.5876 146.018 35.7577L146.406 38.7325ZM150 38.5H153.679V35.5H150V38.5ZM161.036 38.5H168.393V35.5H161.036V38.5ZM175.75 38.5H183.107V35.5H175.75V38.5ZM190.464 38.5H197.821V35.5H190.464V38.5ZM205.179 38.5H212.536V35.5H205.179V38.5ZM219.893 38.5H227.25V35.5H219.893V38.5ZM234.607 38.5H241.964V35.5H234.607V38.5ZM249.321 38.5H253V35.5H249.321V38.5Z" fill="#1AB3FF"/>
<rect x="261" y="16" width="39" height="15" rx="2" fill="#1F4B7F"/>
<rect x="361" y="42" width="24" height="24" rx="2" fill="#1F4B7F"/>
<path d="M454.75 99C454.75 99.4142 454.414 99.75 454 99.75C453.586 99.75 453.25 99.4142 453.25 99L454.75 99ZM454 81.9999L453.25 81.9999L454 81.9999ZM453.25 94.75C453.25 94.3358 453.586 94 454 94C454.414 94 454.75 94.3358 454.75 94.75L453.25 94.75ZM454.75 86.2499C454.75 86.6641 454.414 86.9999 454 86.9999C453.586 86.9999 453.25 86.6641 453.25 86.2499L454.75 86.2499ZM453.011 78.3092C452.958 77.8985 453.247 77.5221 453.658 77.4685C454.069 77.4149 454.445 77.7045 454.498 78.1152L453.011 78.3092ZM452.492 70.6118C452.651 70.9944 452.469 71.4332 452.087 71.5919C451.704 71.7505 451.265 71.569 451.107 71.1864L452.492 70.6118ZM447.414 64.8022C447.161 64.4738 447.223 64.0029 447.551 63.7505C447.88 63.4981 448.351 63.5598 448.603 63.8882L447.414 64.8022ZM443.112 58.3967C443.44 58.6491 443.502 59.1199 443.249 59.4484C442.997 59.7768 442.526 59.8385 442.198 59.5861L443.112 58.3967ZM435.813 55.8933C435.431 55.7347 435.249 55.2959 435.408 54.9132C435.567 54.5306 436.005 54.3491 436.388 54.5077L435.813 55.8933ZM428.885 52.5014C429.295 52.555 429.585 52.9314 429.531 53.3421C429.478 53.7529 429.101 54.0424 428.691 53.9888L428.885 52.5014ZM422 53.75C421.586 53.75 421.25 53.4142 421.25 53C421.25 52.5858 421.586 52.25 422 52.25L422 53.75ZM416 52.25C416.414 52.25 416.75 52.5858 416.75 53C416.75 53.4142 416.414 53.75 416 53.75L416 52.25ZM410 53.75C409.586 53.75 409.25 53.4142 409.25 53C409.25 52.5858 409.586 52.25 410 52.25L410 53.75ZM404 52.25C404.414 52.25 404.75 52.5858 404.75 53C404.75 53.4142 404.414 53.75 404 53.75L404 52.25ZM398 53.75C397.586 53.75 397.25 53.4142 397.25 53C397.25 52.5858 397.586 52.25 398 52.25L398 53.75ZM392 52.25C392.414 52.25 392.75 52.5858 392.75 53C392.75 53.4142 392.414 53.75 392 53.75L392 52.25ZM453.25 99L453.25 94.75L454.75 94.75L454.75 99L453.25 99ZM453.25 86.2499L453.25 81.9999L454.75 81.9999L454.75 86.2499L453.25 86.2499ZM453.25 81.9999C453.25 80.7487 453.169 79.5168 453.011 78.3092L454.498 78.1152C454.664 79.3869 454.75 80.6836 454.75 81.9999L453.25 81.9999ZM451.107 71.1864C450.154 68.8901 448.908 66.7464 447.414 64.8022L448.603 63.8882C450.176 65.9351 451.489 68.1928 452.492 70.6118L451.107 71.1864ZM442.198 59.5861C440.253 58.0921 438.11 56.8455 435.813 55.8933L436.388 54.5077C438.807 55.5108 441.065 56.8237 443.112 58.3967L442.198 59.5861ZM428.691 53.9888C427.483 53.8313 426.251 53.75 425 53.75L425 52.25C426.316 52.25 427.613 52.3355 428.885 52.5014L428.691 53.9888ZM425 53.75L422 53.75L422 52.25L425 52.25L425 53.75ZM416 53.75L410 53.75L410 52.25L416 52.25L416 53.75ZM404 53.75L398 53.75L398 52.25L404 52.25L404 53.75ZM392 53.75L389 53.75L389 52.25L392 52.25L392 53.75ZM455.5 99C455.5 99.8284 454.828 100.5 454 100.5C453.172 100.5 452.5 99.8284 452.5 99L455.5 99ZM454 81.9999L452.5 81.9999L454 81.9999ZM452.5 94.75C452.5 93.9215 453.172 93.25 454 93.25C454.828 93.25 455.5 93.9215 455.5 94.75L452.5 94.75ZM455.5 86.2499C455.5 87.0783 454.828 87.7499 454 87.7499C453.172 87.7499 452.5 87.0783 452.5 86.2499L455.5 86.2499ZM452.267 78.4062C452.16 77.5848 452.739 76.832 453.561 76.7248C454.382 76.6177 455.135 77.1967 455.242 78.0182L452.267 78.4062ZM453.185 70.3245C453.502 71.0897 453.139 71.9673 452.374 72.2847C451.609 72.602 450.731 72.2389 450.414 71.4737L453.185 70.3245ZM446.819 65.2592C446.314 64.6023 446.438 63.6606 447.094 63.1558C447.751 62.651 448.693 62.7743 449.198 63.4312L446.819 65.2592ZM443.569 57.802C444.225 58.3068 444.349 59.2485 443.844 59.9054C443.339 60.5623 442.398 60.6855 441.741 60.1808L443.569 57.802ZM435.526 56.5861C434.761 56.2688 434.398 55.3912 434.715 54.6259C435.032 53.8607 435.91 53.4976 436.675 53.8149L435.526 56.5861ZM428.982 51.7577C429.803 51.8649 430.382 52.6177 430.275 53.4391C430.168 54.2606 429.415 54.8397 428.594 54.7325L428.982 51.7577ZM422 54.5C421.172 54.5 420.5 53.8284 420.5 53C420.5 52.1716 421.172 51.5 422 51.5L422 54.5ZM416 51.5C416.828 51.5 417.5 52.1716 417.5 53C417.5 53.8284 416.828 54.5 416 54.5L416 51.5ZM410 54.5C409.172 54.5 408.5 53.8284 408.5 53C408.5 52.1716 409.172 51.5 410 51.5L410 54.5ZM404 51.5C404.828 51.5 405.5 52.1716 405.5 53C405.5 53.8284 404.828 54.5 404 54.5L404 51.5ZM398 54.5C397.172 54.5 396.5 53.8284 396.5 53C396.5 52.1716 397.172 51.5 398 51.5L398 54.5ZM392 51.5C392.828 51.5 393.5 52.1716 393.5 53C393.5 53.8284 392.828 54.5 392 54.5L392 51.5ZM452.5 99L452.5 94.75L455.5 94.75L455.5 99L452.5 99ZM452.5 86.2499L452.5 81.9999L455.5 81.9999L455.5 86.2499L452.5 86.2499ZM452.5 81.9999C452.5 80.7812 452.421 79.5817 452.267 78.4062L455.242 78.0182C455.412 79.322 455.5 80.6511 455.5 81.9999L452.5 81.9999ZM450.414 71.4737C449.487 69.2388 448.274 67.152 446.819 65.2592L449.198 63.4312C450.81 65.5295 452.156 67.8441 453.185 70.3245L450.414 71.4737ZM441.741 60.1808C439.848 58.7262 437.761 57.5129 435.526 56.5861L436.675 53.8149C439.156 54.8435 441.47 56.1896 443.569 57.802L441.741 60.1808ZM428.594 54.7325C427.418 54.5792 426.219 54.5 425 54.5L425 51.5C426.349 51.5 427.678 51.5876 428.982 51.7577L428.594 54.7325ZM425 54.5L422 54.5L422 51.5L425 51.5L425 54.5ZM416 54.5L410 54.5L410 51.5L416 51.5L416 54.5ZM404 54.5L398 54.5L398 51.5L404 51.5L404 54.5ZM392 54.5L389 54.5L389 51.5L392 51.5L392 54.5Z" fill="#1AB3FF"/>
<path d="M170.5 87.5H180.5" stroke="white" stroke-width="3" stroke-linecap="round" stroke-linejoin="round"/>
<path d="M191 87H219" stroke="#1AB3FF" stroke-width="3" stroke-linecap="round" stroke-linejoin="round"/>
<path d="M170.5 98.5H180.5" stroke="white" stroke-width="3" stroke-linecap="round" stroke-linejoin="round"/>
<path d="M170.5 131.5H180.5" stroke="white" stroke-width="3" stroke-linecap="round" stroke-linejoin="round"/>
<path d="M170.5 142.5H180.5" stroke="white" stroke-width="3" stroke-linecap="round" stroke-linejoin="round"/>
<path d="M170.5 152.5H180.5" stroke="white" stroke-width="3" stroke-linecap="round" stroke-linejoin="round"/>
<path d="M170.5 163.5H180.5" stroke="white" stroke-width="3" stroke-linecap="round" stroke-linejoin="round"/>
<path d="M170.5 174.5H180.5" stroke="white" stroke-width="3" stroke-linecap="round" stroke-linejoin="round"/>
<path d="M191 98H235" stroke="#1AB3FF" stroke-width="3" stroke-linecap="round" stroke-linejoin="round"/>
<path d="M191 131H232" stroke="#1AB3FF" stroke-width="3" stroke-linecap="round" stroke-linejoin="round"/>
<path d="M191 142H240" stroke="#1AB3FF" stroke-width="3" stroke-linecap="round" stroke-linejoin="round"/>
<path d="M191 152H210" stroke="#1AB3FF" stroke-width="3" stroke-linecap="round" stroke-linejoin="round"/>
<path d="M191 163H224" stroke="#1AB3FF" stroke-width="3" stroke-linecap="round" stroke-linejoin="round"/>
<path d="M191 174H218" stroke="#1AB3FF" stroke-width="3" stroke-linecap="round" stroke-linejoin="round"/>
<path d="M170.5 109.5H180.5" stroke="white" stroke-width="3" stroke-linecap="round" stroke-linejoin="round"/>
<path d="M191 109H227" stroke="#1AB3FF" stroke-width="3" stroke-linecap="round" stroke-linejoin="round"/>
<path d="M170.5 120.5H180.5" stroke="white" stroke-width="3" stroke-linecap="round" stroke-linejoin="round"/>
<path d="M191 120H217" stroke="#1AB3FF" stroke-width="3" stroke-linecap="round" stroke-linejoin="round"/>
<path d="M453.5 123C465.926 123 476 119.642 476 115.5C476 111.358 465.926 108 453.5 108C441.074 108 431 111.358 431 115.5C431 119.642 441.074 123 453.5 123Z" stroke="#1AB3FF" stroke-width="3" stroke-linecap="round" stroke-linejoin="round"/>
<path d="M476 133C476 137.15 466 140.5 453.5 140.5C441 140.5 431 137.15 431 133" stroke="#1AB3FF" stroke-width="3" stroke-linecap="round" stroke-linejoin="round"/>
<path d="M431 115.5V150.5C431 154.65 441 158 453.5 158C466 158 476 154.65 476 150.5V115.5" stroke="#1AB3FF" stroke-width="3" stroke-linecap="round" stroke-linejoin="round"/>
<path d="M324.277 48.02L308.447 74.4471C308.121 75.0123 307.948 75.6531 307.946 76.3058C307.944 76.9585 308.114 77.6003 308.437 78.1673C308.76 78.7343 309.226 79.2068 309.789 79.5378C310.351 79.8688 310.99 80.0468 311.643 80.054H343.303C343.956 80.0468 344.595 79.8688 345.158 79.5378C345.72 79.2068 346.186 78.7343 346.51 78.1673C346.833 77.6003 347.002 76.9585 347 76.3058C346.998 75.6531 346.826 75.0123 346.499 74.4471L330.669 48.02C330.336 47.4708 329.867 47.0166 329.307 46.7015C328.747 46.3863 328.116 46.2207 327.473 46.2207C326.831 46.2207 326.199 46.3863 325.639 46.7015C325.08 47.0166 324.61 47.4708 324.277 48.02V48.02Z" stroke="white" stroke-width="3" stroke-linecap="round" stroke-linejoin="round"/>
<path d="M327.474 57.627V65.1028" stroke="white" stroke-width="3" stroke-linecap="round" stroke-linejoin="round"/>
<path d="M327.474 72.5776H327.491" stroke="white" stroke-width="3" stroke-linecap="round" stroke-linejoin="round"/>
<path d="M327 108.5V181.143C327 192.11 318.986 201 309.1 201H165.9C156.014 201 148 192.11 148 181.143V81.8571C148 70.8903 156.014 62 165.9 62H278.5" stroke="#1AB3FF" stroke-width="3" stroke-linecap="round" stroke-linejoin="round"/>
<path d="M222 223L272 223" stroke="#1AB3FF" stroke-width="3" stroke-linecap="round" stroke-linejoin="round"/>
<path d="M200 223H216" stroke="#1AB3FF" stroke-width="3" stroke-linecap="round" stroke-linejoin="round"/>
<path d="M237 201L237 223" stroke="#1AB3FF" stroke-width="3" stroke-linecap="round" stroke-linejoin="round"/>
<path d="M303.625 159.989C302.114 163.562 299.751 166.71 296.742 169.159C293.733 171.608 290.17 173.283 286.364 174.036C282.559 174.79 278.626 174.6 274.911 173.483C271.196 172.366 267.811 170.356 265.052 167.628C262.294 164.901 260.245 161.539 259.085 157.837C257.926 154.135 257.691 150.205 258.401 146.391C259.112 142.577 260.745 138.995 263.16 135.959C265.574 132.922 268.695 130.523 272.251 128.971" stroke="#1AB3FF" stroke-width="3" stroke-linecap="round" stroke-linejoin="round"/>
<path d="M305.501 150.75C305.501 147.631 304.887 144.543 303.693 141.661C302.5 138.78 300.75 136.162 298.545 133.956C296.339 131.751 293.721 130.001 290.84 128.808C287.958 127.614 284.87 127 281.751 127V150.75H305.501Z" stroke="#1AB3FF" stroke-width="3" stroke-linecap="round" stroke-linejoin="round"/>
<path d="M331.875 2H297.75C295.164 2 292.684 3.02723 290.856 4.8557C289.027 6.68418 288 9.16413 288 11.75V89.7499C288 92.3357 289.027 94.8157 290.856 96.6442C292.684 98.4726 295.164 99.4999 297.75 99.4999H356.25C358.836 99.4999 361.316 98.4726 363.144 96.6442C364.973 94.8157 366 92.3357 366 89.7499V36.1249L331.875 2Z" stroke="#1AB3FF" stroke-width="3" stroke-linecap="round" stroke-linejoin="round"/>
<path d="M331.875 2V28.125C331.875 32.5432 335.457 36.125 339.875 36.125H348.937H353.5" stroke="#1AB3FF" stroke-width="3" stroke-linecap="round" stroke-linejoin="round"/>
</svg>
