<svg id="Layer_1" data-name="Layer 1" xmlns="http://www.w3.org/2000/svg" viewBox="0 0 84 80"><defs><style>.cls-1{opacity:0.05;}.cls-2{fill:#009ece;}</style></defs><g class="cls-1"><path d="M81.76,38.33A12.67,12.67,0,0,1,69.09,51H64V24H18V51h-.5a14.25,14.25,0,0,1-2.79-28.22A9.89,9.89,0,0,1,28.43,15,23.21,23.21,0,0,1,72,26,12.68,12.68,0,0,1,81.76,38.33Z"/></g><path class="cls-2" d="M60,31.5H41a1.5,1.5,0,0,1,0-3H60a1.5,1.5,0,0,1,0,3Z"/><path class="cls-2" d="M29,37H22.5a1.5,1.5,0,0,1,0-3H29a1.5,1.5,0,0,1,0,3Z"/><path class="cls-2" d="M48,43.5H22.5a1.5,1.5,0,0,1,0-3H48a1.5,1.5,0,0,1,0,3Z"/><path class="cls-2" d="M36,49.5H22.5a1.5,1.5,0,0,1,0-3H36a1.5,1.5,0,0,1,0,3Z"/><path class="cls-2" d="M42,55.5H22.5a1.5,1.5,0,0,1,0-3H42a1.5,1.5,0,0,1,0,3Z"/><path class="cls-2" d="M39,61.5H22.5a1.5,1.5,0,0,1,0-3H39a1.5,1.5,0,0,1,0,3Z"/><path class="cls-2" d="M39,68H22.5a1.5,1.5,0,0,1,0-3H39a1.5,1.5,0,0,1,0,3Z"/><path class="cls-2" d="M60.5,37h-24a1.49,1.49,0,0,1-1.15-.54L30.8,31H21.5a1.5,1.5,0,0,1,0-3h10a1.49,1.49,0,0,1,1.15.54L37.2,34H60.5a1.5,1.5,0,0,1,0,3Z"/><path class="cls-2" d="M49.5,50h-10a1.5,1.5,0,0,1,0-3h9.38l5.56-5.56A1.5,1.5,0,0,1,55.5,41h5a1.5,1.5,0,0,1,0,3H56.12l-5.56,5.56A1.5,1.5,0,0,1,49.5,50Z"/><path class="cls-2" d="M56.75,53A9.75,9.75,0,1,1,47,62.75,9.76,9.76,0,0,1,56.75,53m0-3A12.75,12.75,0,1,0,69.5,62.75,12.75,12.75,0,0,0,56.75,50Z"/><path class="cls-2" d="M65.08,69.62a1.66,1.66,0,0,0-1.21.53h0A1.65,1.65,0,0,0,64,72.48l5.85,5.45a1.63,1.63,0,0,0,1.12.45,1.66,1.66,0,0,0,1.21-.53h0a1.65,1.65,0,0,0-.08-2.33L66.2,70.07a1.63,1.63,0,0,0-1.12-.45Z"/><circle class="cls-2" cx="52" cy="62.75" r="2"/><circle class="cls-2" cx="61.5" cy="62.75" r="2"/><circle class="cls-2" cx="56.75" cy="58" r="2"/><circle class="cls-2" cx="56.75" cy="67.5" r="2"/><rect class="cls-2" x="52.25" y="62" width="9" height="1.5"/><rect class="cls-2" x="52.25" y="62" width="9" height="1.5" transform="translate(119.5 6) rotate(90)"/></svg>