<svg id="Layer_1" data-name="Layer 1" xmlns="http://www.w3.org/2000/svg" viewBox="0 0 84 80"><defs><style>.cls-1{opacity:0.05;}.cls-2{fill:#fff;}</style></defs><g class="cls-1"><path d="M81.76,38.33A12.67,12.67,0,0,1,69.09,51H64V24H18V51h-.5a14.25,14.25,0,0,1-2.79-28.22A9.89,9.89,0,0,1,28.43,15,23.21,23.21,0,0,1,72,26,12.68,12.68,0,0,1,81.76,38.33Z"/></g><path class="cls-2" d="M41,31.5H60a1.5,1.5,0,0,0,0-3H41a1.5,1.5,0,0,0,0,3Z"/><path class="cls-2" d="M22.5,37H29a1.5,1.5,0,0,0,0-3H22.5a1.5,1.5,0,0,0,0,3Z"/><path class="cls-2" d="M49.5,42A1.5,1.5,0,0,0,48,40.5H22.5a1.5,1.5,0,0,0,0,3H48A1.5,1.5,0,0,0,49.5,42Z"/><path class="cls-2" d="M22.5,46.5a1.5,1.5,0,0,0,0,3H36a1.5,1.5,0,0,0,0-3Z"/><path class="cls-2" d="M42,52.5H22.5a1.5,1.5,0,0,0,0,3H42a1.5,1.5,0,0,0,0-3Z"/><path class="cls-2" d="M39,58.5H22.5a1.5,1.5,0,0,0,0,3H39a1.5,1.5,0,0,0,0-3Z"/><path class="cls-2" d="M39,65H22.5a1.5,1.5,0,0,0,0,3H39a1.5,1.5,0,0,0,0-3Z"/><path class="cls-2" d="M30.8,31l4.55,5.46A1.49,1.49,0,0,0,36.5,37h24a1.5,1.5,0,0,0,0-3H37.2l-4.55-5.46A1.49,1.49,0,0,0,31.5,28h-10a1.5,1.5,0,0,0,0,3Z"/><path class="cls-2" d="M39.5,50h10a1.5,1.5,0,0,0,1.06-.44L56.12,44H60.5a1.5,1.5,0,0,0,0-3h-5a1.5,1.5,0,0,0-1.06.44L48.88,47H39.5a1.5,1.5,0,0,0,0,3Z"/><path class="cls-2" d="M72.05,75.52l-5.27-4.91a12.82,12.82,0,1,0-2.36,2.31l5.38,5a1.63,1.63,0,0,0,1.12.45,1.65,1.65,0,0,0,1.13-2.86ZM47,62.75a9.75,9.75,0,1,1,9.75,9.75A9.76,9.76,0,0,1,47,62.75Z"/><path class="cls-2" d="M61.5,60.75A2,2,0,0,0,59.65,62H57.5V59.85a2,2,0,1,0-1.5,0V62H53.85a2,2,0,1,0,0,1.5H56v2.15a2,2,0,1,0,1.5,0V63.5h2.15a2,2,0,1,0,1.85-2.75Z"/></svg>