<svg id="eye-icon" xmlns="http://www.w3.org/2000/svg" width="33.537" height="33.537" viewBox="0 0 33.537 33.537">
  <defs>
    <style>
      .cls-1 {
        fill: none;
      }

      .cls-2 {
        fill: #045d7f;
      }
    </style>
  </defs>
  <path id="Path_822" data-name="Path 822" class="cls-1" d="M0,0H33.537V33.537H0Z"/>
  <path id="Path_823" data-name="Path 823" class="cls-2" d="M16.354,6.828a13.622,13.622,0,0,1,12.311,7.778,13.632,13.632,0,0,1-24.622,0A13.622,13.622,0,0,1,16.354,6.828m0-2.828A16.514,16.514,0,0,0,1,14.607a16.417,16.417,0,0,0,30.708,0A16.514,16.514,0,0,0,16.354,4Zm0,7.071a3.536,3.536,0,1,1-3.49,3.536,3.514,3.514,0,0,1,3.49-3.536m0-2.828a6.365,6.365,0,1,0,6.281,6.364A6.333,6.333,0,0,0,16.354,8.243Z" transform="translate(0.414 1.477)"/>
</svg>
