<svg id="Layer_1" data-name="Layer 1" xmlns="http://www.w3.org/2000/svg" viewBox="0 0 84 80"><defs><style>.cls-1{opacity:0.05;}.cls-2{fill:#009ece;}</style></defs><g class="cls-1"><path d="M81.76,38.33A12.67,12.67,0,0,1,69.09,51H60.9c-.67-8.12-8.9-9.63-8.9-9.63V38c1-12-10-16-10-16-6,1-8,11-8,11l-1,8c-5.7,0-7.42,7.29-7.86,10H17.5a14.25,14.25,0,0,1-2.79-28.22A9.89,9.89,0,0,1,28.43,15,23.21,23.21,0,0,1,72,26,12.68,12.68,0,0,1,81.76,38.33Z"/></g><path class="cls-2" d="M61,50.18A10.34,10.34,0,0,0,52.53,40V34.68s0-8.86-10.08-13.68a15.68,15.68,0,0,0-10,13V40a10.33,10.33,0,0,0-8.42,10.15v5h1.78v5.7h7.77v-5.7h3.73v5.7h10v-5.7h4v5.7H58.9v-5.7H61ZM45.33,58.93h-6V55.29h6ZM26,50.18a8.37,8.37,0,0,1,6.38-8.12V53.23H26Zm5.6,8.75H27.81V55.29h3.82Zm18.92-5.7H34.46V34.1a13.7,13.7,0,0,1,7.89-10.93c8,4.24,8.2,11.22,8.2,11.51Zm6.37,5.7h-3.6V55.29h3.6Zm2-5.7H52.6V42.06A8.37,8.37,0,0,1,59,50.18Z"/><path class="cls-2" d="M42.51,31.36a5,5,0,1,0,5,5A5,5,0,0,0,42.51,31.36Zm0,8a3,3,0,1,1,3-3A3,3,0,0,1,42.51,39.39Z"/><path class="cls-2" d="M42.51,63.59a5,5,0,0,0-4.95,4.94C37.56,76,42.51,79,42.51,79a13.87,13.87,0,0,0,4.94-10.47A4.94,4.94,0,0,0,42.51,63.59Zm-.1,11.76a10.59,10.59,0,0,1-2.21-6.82,2.31,2.31,0,1,1,4.61,0A11,11,0,0,1,42.41,75.35Z"/><path class="cls-2" d="M55.12,63.59a3.57,3.57,0,0,0-3.78,3.3,8,8,0,0,0,3.78,7,9,9,0,0,0,3.78-7A3.56,3.56,0,0,0,55.12,63.59ZM55,71.35a6.21,6.21,0,0,1-1.72-4.46c0-.72.83-1.33,1.8-1.33s1.8.61,1.8,1.33A6.53,6.53,0,0,1,55,71.35Z"/><path class="cls-2" d="M29.89,63.59a3.56,3.56,0,0,0-3.77,3.3,8,8,0,0,0,3.77,7,9,9,0,0,0,3.78-7A3.56,3.56,0,0,0,29.89,63.59Zm-.07,7.75a6.2,6.2,0,0,1-1.73-4.45c0-.72.83-1.33,1.8-1.33s1.8.61,1.8,1.33A6.54,6.54,0,0,1,29.82,71.34Z"/></svg>