<svg id="Layer_1" data-name="Layer 1" xmlns="http://www.w3.org/2000/svg" viewBox="0 0 84 80"><defs><style>.cls-1{opacity:0.05;}.cls-2{fill:#fff;}</style></defs><g class="cls-1"><path d="M81.76,38.33A12.67,12.67,0,0,1,69.09,51H60.15C60.73,35.6,46,31,46,31V26c-2-3-7,0-7,0v5c-4,0-12,9-12,9-.62,1.87-.86,7.23-.95,11H17.5a14.25,14.25,0,0,1-2.79-28.22A9.89,9.89,0,0,1,28.43,15,23.21,23.21,0,0,1,72,26,12.68,12.68,0,0,1,81.76,38.33Z"/></g><path class="cls-2" d="M64.52,59.82A6.51,6.51,0,0,1,60.91,54V47.79a18.09,18.09,0,0,0-13.1-17.33l-.2-.06V27.62a4.71,4.71,0,1,0-9.42,0V30.4l-.2.06a18.09,18.09,0,0,0-13.1,17.33V54a6.51,6.51,0,0,1-3.61,5.85,5.49,5.49,0,0,0,2.45,10.41h9l0,.23a10.25,10.25,0,0,0,20.24,0l0-.23h9a5.49,5.49,0,0,0,2.46-10.41ZM41,27.62a1.94,1.94,0,0,1,3.88,0v2.26l-.3,0c-.56-.05-1.11-.07-1.64-.07s-1.09,0-1.64.07l-.3,0Zm9.22,42.95a7.48,7.48,0,0,1-14.56,0l-.08-.34H50.26Zm11.88-3.11H23.73A2.73,2.73,0,0,1,21,64.73a2.69,2.69,0,0,1,1.51-2.43A9.27,9.27,0,0,0,27.66,54V47.79a15.24,15.24,0,0,1,30.48,0V54a9.27,9.27,0,0,0,5.14,8.33,2.69,2.69,0,0,1,1.51,2.43A2.74,2.74,0,0,1,62.06,67.46Z"/><path class="cls-2" d="M49.14,49a1.25,1.25,0,1,0,1.2-2.19A11.75,11.75,0,0,0,33,57.09a1.25,1.25,0,0,0,2.5,0A9.26,9.26,0,0,1,49.14,49Z"/><path class="cls-2" d="M51.7,50.63,46.09,55.3A3.06,3.06,0,0,0,45,55.09a3,3,0,1,0,3,3,2.93,2.93,0,0,0-.18-1l5.48-4.56a1.25,1.25,0,0,0-1.6-1.92ZM45,59.09a1,1,0,1,1,1-1A1,1,0,0,1,45,59.09Z"/></svg>