<svg xmlns="http://www.w3.org/2000/svg" width="825.14" height="205.46" viewBox="0 0 825.14 205.46"><defs><style>.cls-1{fill:#66c5e2;}.cls-2{fill:#454546;}.cls-3{opacity:0.3;}.cls-4{fill:#f7f7f7;}.cls-5{fill:#fff;}.cls-6{isolation:isolate;}.cls-7{fill:#23b5e9;}.cls-8{fill:#cccbcb;}.cls-9{fill:#326ce5;}.cls-10{opacity:0.5;}.cls-11{fill:#a0d6d4;}.cls-12{fill:#096a8f;}.cls-13{fill:#0b6977;}.cls-14{fill:none;}.cls-15{fill:#00ade1;}</style></defs><g id="Layer_2" data-name="Layer 2"><g id="Layer_1-2" data-name="Layer 1"><path class="cls-1" d="M818.75,205.46h-7V205h7Zm-9.25,0h-6.88V205h6.88Zm-9.17,0h-6.88V205h6.88Zm-9.17,0h-6.88V205h6.88Zm-9.18,0H775.1V205H782Zm-9.17,0h-6.88V205h6.88Zm-9.17,0h-6.88V205h6.88Zm-9.18,0h-6.88V205h6.88Zm-9.17,0h-6.88V205h6.88Zm-9.17,0h-6.88V205h6.88Zm-9.18,0h-6.88V205h6.88Zm-9.17,0h-6.88V205h6.88Zm-9.17,0h-6.88V205h6.88Zm-9.18,0h-6.88V205h6.88Zm-9.17,0h-6.88V205h6.88Zm-9.17,0H674.2V205h6.88Zm-9.18,0H665V205h6.88Zm-9.17,0h-6.88V205h6.88Zm-9.17,0h-6.88V205h6.88Zm-9.18,0H637.5V205h6.88Zm-9.17,0h-6.88V205h6.88Zm-9.17,0h-6.88V205H626Zm-9.18,0H610V205h6.88Zm-9.17,0h-6.88V205h6.88Zm-9.17,0h-6.88V205h6.88Zm-9.18,0h-6.88V205h6.88Zm-9.17,0h-6.88V205h6.88Zm-9.17,0h-6.88V205H571Zm-9.18,0h-6.88V205h6.88Zm-9.17,0h-6.88V205h6.88Zm-9.17,0H536.6V205h6.88Zm-9.18,0h-6.88V205h6.88Zm-9.17,0h-6.88V205h6.88Zm-9.17,0h-6.88V205H516Zm-9.18,0H499.9V205h6.88Zm-9.17,0h-6.88V205h6.88Zm-9.17,0h-6.88V205h6.88Zm-9.18,0h-6.88V205h6.88Zm-9.17,0h-6.88V205h6.88Zm-9.18,0H454V205h6.88Zm-9.17,0h-6.88V205h6.88Zm-9.17,0h-6.88V205h6.88Zm-9.17,0h-6.88V205h6.88Zm-9.18,0h-6.88V205h6.88Zm-9.17,0h-6.88V205h6.88Zm-9.18,0H399V205h6.88Zm-9.17,0h-6.88V205h6.88Zm-9.17,0h-6.88V205h6.88Zm-9.18,0h-6.88V205h6.88Zm-9.17,0H362.3V205h6.88Zm-9.17,0h-6.88V205H360Zm-9.18,0H344V205h6.88Zm-9.17,0h-6.88V205h6.88Zm-9.17,0h-6.88V205h6.88Zm-9.18,0h-6.88V205h6.88Zm-9.17,0h-6.88V205h6.88Zm-9.17,0h-6.88V205H305Zm-9.18,0h-6.88V205h6.88Zm-9.17,0h-6.88V205h6.88Zm-9.17,0h-6.88V205h6.88Zm-9.18,0h-6.88V205h6.88Zm-9.17,0h-6.88V205h6.88Zm-9.17,0h-6.88V205h6.88Zm-9.18,0h-6.88V205h6.88Zm-9.17,0H224.7V205h6.88Zm-9.17,0h-6.88V205h6.88Zm-9.18,0h-6.88V205h6.88Zm-9.17,0h-6.88V205h6.88Zm-9.17,0H188V205h6.88Zm-9.18,0h-6.88V205h6.88Zm-9.17,0h-6.88V205h6.88Zm-9.17,0h-6.88V205h6.88Zm-9.18,0a6.41,6.41,0,0,1-5.71-3.68l.45-.21A5.93,5.93,0,0,0,158.2,205ZM821.08,205l-.19-.46a6,6,0,0,0,3.73-5l.5,0A6.52,6.52,0,0,1,821.08,205Zm-669.21-5.51c0-.16,0-.33,0-.49v-6.41h.5V199c0,.16,0,.3,0,.45Zm673.27-2.27h-.5v-6.88h.5ZM152.35,190.3h-.5v-6.88h.5Zm672.79-2.25h-.5v-6.88h.5Zm-672.79-6.93h-.5v-6.88h.5Zm672.79-2.24h-.5V172h.5ZM152.35,172h-.5v-6.88h.5Zm672.79-2.25h-.5v-6.88h.5Zm-672.79-6.92h-.5V155.9h.5Zm672.79-2.25h-.5v-6.88h.5ZM152.35,153.6h-.5v-6.88h.5Zm672.79-2.24h-.5v-6.88h.5Zm-672.79-6.93h-.5v-6.88h.5Zm672.79-2.25h-.5V135.3h.5Zm-672.79-6.92h-.5v-6.88h.5ZM825.14,133h-.5v-6.88h.5Zm-672.79-6.93h-.5V119.2h.5Zm672.79-2.25h-.5V117h.5Zm-672.79-6.92h-.5V110h.5Zm672.79-2.25h-.5v-6.88h.5Zm-672.79-6.92h-.5v-6.88h.5Zm672.79-2.25h-.5V98.61h.5ZM152.35,98.56h-.5V91.68h.5Zm672.79-2.24h-.5V89.44h.5ZM152.35,89.39h-.5V82.51h.5Zm672.79-2.25h-.5V80.26h.5ZM152.35,80.22h-.5V73.34h.5ZM825.14,78h-.5V71.09h.5ZM152.35,71h-.5V64.16h.5Zm672.79-2.25h-.5V61.91h.5ZM152.35,61.87h-.5V55h.5Zm672.79-2.25h-.5V52.74h.5ZM152.35,52.7h-.5V45.82h.5Zm672.79-2.25h-.5V44.07c0-.16,0-.32,0-.48l.5,0c0,.17,0,.35,0,.52Zm-672.77-6.9-.49,0A6.51,6.51,0,0,1,156,38.06l.18.47A6,6,0,0,0,152.37,43.55ZM824,41.48a5.92,5.92,0,0,0-5.28-3.37v-.5a6.44,6.44,0,0,1,5.73,3.65Zm-7.58-3.37h-6.88v-.5h6.88Zm-9.17,0h-6.88v-.5h6.88Zm-9.17,0h-6.88v-.5h6.88Zm-9.18,0h-6.88v-.5h6.88Zm-9.17,0h-6.88v-.5h6.88Zm-9.17,0h-6.88v-.5h6.88Zm-9.18,0h-6.88v-.5h6.88Zm-9.17,0h-6.88v-.5h6.88Zm-9.17,0H736.2v-.5h6.88Zm-9.18,0H727v-.5h6.88Zm-9.17,0h-6.88v-.5h6.88Zm-9.17,0h-6.88v-.5h6.88Zm-9.18,0H699.5v-.5h6.88Zm-9.17,0h-6.88v-.5h6.88Zm-9.17,0h-6.88v-.5H688Zm-9.18,0H672v-.5h6.88Zm-9.17,0h-6.88v-.5h6.88Zm-9.17,0h-6.88v-.5h6.88Zm-9.18,0h-6.88v-.5h6.88Zm-9.17,0h-6.88v-.5h6.88Zm-9.17,0h-6.88v-.5H633Zm-9.18,0h-6.88v-.5h6.88Zm-9.17,0h-6.88v-.5h6.88Zm-9.17,0H598.6v-.5h6.88Zm-9.18,0h-6.88v-.5h6.88Zm-9.17,0h-6.88v-.5h6.88Zm-9.17,0h-6.88v-.5H578Zm-9.18,0H561.9v-.5h6.88Zm-9.17,0h-6.88v-.5h6.88Zm-9.17,0h-6.88v-.5h6.88Zm-9.18,0h-6.88v-.5h6.88Zm-9.17,0h-6.88v-.5h6.88Zm-9.17,0H516v-.5h6.88Zm-9.18,0h-6.88v-.5h6.88Zm-9.17,0h-6.88v-.5h6.88Zm-9.17,0h-6.88v-.5h6.88Zm-9.18,0h-6.88v-.5h6.88Zm-9.17,0h-6.88v-.5h6.88Zm-9.17,0H461v-.5h6.88Zm-9.18,0h-6.88v-.5h6.88Zm-9.17,0h-6.88v-.5h6.88Zm-9.17,0h-6.88v-.5h6.88Zm-9.18,0H424.3v-.5h6.88Zm-9.17,0h-6.88v-.5H422Zm-9.17,0H406v-.5h6.88Zm-9.18,0h-6.88v-.5h6.88Zm-9.17,0h-6.88v-.5h6.88Zm-9.17,0h-6.88v-.5h6.88Zm-9.18,0h-6.88v-.5h6.88Zm-9.17,0h-6.88v-.5H367Zm-9.17,0h-6.88v-.5h6.88Zm-9.18,0h-6.88v-.5h6.88Zm-9.17,0h-6.88v-.5h6.88Zm-9.17,0H323.4v-.5h6.88Zm-9.18,0h-6.88v-.5h6.88Zm-9.17,0h-6.88v-.5h6.88Zm-9.17,0h-6.88v-.5h6.88Zm-9.18,0H286.7v-.5h6.88Zm-9.17,0h-6.88v-.5h6.88Zm-9.17,0h-6.88v-.5h6.88Zm-9.18,0h-6.88v-.5h6.88Zm-9.17,0H250v-.5h6.88Zm-9.17,0h-6.88v-.5h6.88Zm-9.18,0h-6.88v-.5h6.88Zm-9.17,0h-6.88v-.5h6.88Zm-9.17,0h-6.88v-.5h6.88Zm-9.18,0h-6.88v-.5H211Zm-9.17,0H195v-.5h6.88Zm-9.17,0h-6.89v-.5h6.89Zm-9.18,0h-6.88v-.5h6.88Zm-9.17,0h-6.88v-.5h6.88Zm-9.17,0h-6.85l0-.5h6.88Z"/><path class="cls-2" d="M322.15,55.82v3.66H321V56c0-1.25-.63-1.86-1.72-1.86a1.89,1.89,0,0,0-2,2.11v3.28h-1.15V53.12h1.1v1a2.74,2.74,0,0,1,2.3-1A2.46,2.46,0,0,1,322.15,55.82Z"/><path class="cls-2" d="M329.33,55.64v3.84h-1.09v-.84a2.36,2.36,0,0,1-2.09.91c-1.44,0-2.36-.77-2.36-1.87s.66-1.86,2.56-1.86h1.83v-.23c0-1-.57-1.54-1.71-1.54a3.26,3.26,0,0,0-2,.69l-.48-.87a4.25,4.25,0,0,1,2.63-.81C328.35,53.06,329.33,53.9,329.33,55.64Zm-1.15,1.9v-.89H326.4c-1.14,0-1.46.44-1.46,1s.52,1,1.4,1A1.85,1.85,0,0,0,328.18,57.54Z"/><path class="cls-2" d="M342,55.82v3.66h-1.16V56c0-1.25-.6-1.86-1.64-1.86a1.85,1.85,0,0,0-1.91,2.11v3.28h-1.15V56c0-1.25-.6-1.86-1.65-1.86a1.85,1.85,0,0,0-1.91,2.11v3.28h-1.15V53.12h1.1v.94a2.61,2.61,0,0,1,2.2-1A2.36,2.36,0,0,1,337,54.23a2.87,2.87,0,0,1,2.45-1.17A2.44,2.44,0,0,1,342,55.82Z"/><path class="cls-2" d="M349.93,56.68h-5.17a2.16,2.16,0,0,0,2.31,1.86,2.41,2.41,0,0,0,1.84-.76l.63.74a3.47,3.47,0,0,1-5.93-2.22,3.11,3.11,0,0,1,3.19-3.24A3.07,3.07,0,0,1,350,56.33C350,56.43,349.94,56.57,349.93,56.68Zm-5.17-.83h4.09a2.06,2.06,0,0,0-4.09,0Z"/><path class="cls-2" d="M350.74,58.81l.48-.91a4.14,4.14,0,0,0,2.24.66c1.07,0,1.51-.33,1.51-.87,0-1.43-4-.19-4-2.73,0-1.14,1-1.9,2.65-1.9a4.63,4.63,0,0,1,2.32.57l-.49.91a3.36,3.36,0,0,0-1.84-.5c-1,0-1.5.37-1.5.88,0,1.5,4,.27,4,2.75,0,1.15-1.05,1.88-2.75,1.88A4.62,4.62,0,0,1,350.74,58.81Z"/><path class="cls-2" d="M364.16,56.3a3.09,3.09,0,0,1-3.22,3.25,2.73,2.73,0,0,1-2.22-1v3.29h-1.15V53.12h1.1v1a2.73,2.73,0,0,1,2.27-1.06A3.09,3.09,0,0,1,364.16,56.3Zm-1.17,0a2.14,2.14,0,1,0-2.15,2.24A2.1,2.1,0,0,0,363,56.3Z"/><path class="cls-2" d="M370.74,55.64v3.84h-1.09v-.84a2.37,2.37,0,0,1-2.09.91c-1.44,0-2.36-.77-2.36-1.87s.66-1.86,2.56-1.86h1.83v-.23c0-1-.57-1.54-1.71-1.54a3.24,3.24,0,0,0-2,.69l-.48-.87a4.23,4.23,0,0,1,2.63-.81C369.75,53.06,370.74,53.9,370.74,55.64Zm-1.15,1.9v-.89h-1.78c-1.14,0-1.47.44-1.47,1s.53,1,1.41,1A1.85,1.85,0,0,0,369.59,57.54Z"/><path class="cls-2" d="M372.33,56.3a3.17,3.17,0,0,1,3.36-3.24,2.82,2.82,0,0,1,2.59,1.35l-.87.57a2,2,0,0,0-1.73-.92,2.24,2.24,0,0,0,0,4.48,2,2,0,0,0,1.73-.91l.87.55a2.84,2.84,0,0,1-2.59,1.37A3.18,3.18,0,0,1,372.33,56.3Z"/><path class="cls-2" d="M385.4,56.68h-5.16a2.14,2.14,0,0,0,2.3,1.86,2.39,2.39,0,0,0,1.84-.76l.64.74a3.47,3.47,0,0,1-5.93-2.22,3.11,3.11,0,0,1,3.19-3.24,3.07,3.07,0,0,1,3.15,3.27C385.43,56.43,385.41,56.57,385.4,56.68Zm-5.16-.83h4.08a2.05,2.05,0,0,0-4.08,0Z"/><path class="cls-2" d="M388.79,51.07v8.41H387.6V52.12h-1.9v-1Z"/><g class="cls-3"><rect class="cls-4" x="172.49" y="69.37" width="354.02" height="79.5" rx="3.91"/><path d="M522.61,69.37h-5v.5h5v-.5Zm-7,0h-5v.5h5v-.5Zm-7,0h-5v.5h5v-.5Zm-7,0h-5v.5h5v-.5Zm-7,0h-5v.5h5v-.5Zm-7,0h-5v.5h5v-.5Zm-7,0h-5v.5h5v-.5Zm-7,0h-5v.5h5v-.5Zm-7,0h-5v.5h5v-.5Zm-7,0h-5v.5h5v-.5Zm-7,0h-5v.5h5v-.5Zm-7,0h-5v.5h5v-.5Zm-7,0h-5v.5h5v-.5Zm-7,0h-5v.5h5v-.5Zm-7,0h-5v.5h5v-.5Zm-7,0h-5v.5h5v-.5Zm-7,0h-5v.5h5v-.5Zm-7,0h-5v.5h5v-.5Zm-7,0h-5v.5h5v-.5Zm-7,0h-5v.5h5v-.5Zm-7,0h-5v.5h5v-.5Zm-7,0h-5v.5h5v-.5Zm-7,0h-5v.5h5v-.5Zm-7,0h-5v.5h5v-.5Zm-7,0h-5v.5h5v-.5Zm-7,0h-5v.5h5v-.5Zm-7,0h-5v.5h5v-.5Zm-7,0h-5v.5h5v-.5Zm-7,0h-5v.5h5v-.5Zm-7,0h-5v.5h5v-.5Zm-7,0h-5v.5h5v-.5Zm-7,0h-5v.5h5v-.5Zm-7,0h-5v.5h5v-.5Zm-7,0h-5v.5h5v-.5Zm-7,0h-5v.5h5v-.5Zm-7,0h-5v.5h5v-.5Zm-7,0h-5v.5h5v-.5Zm-7,0h-5v.5h5v-.5Zm-7,0h-5v.5h5v-.5Zm-7,0h-5v.5h5v-.5Zm-7,0h-5v.5h5v-.5Zm-7,0h-5v.5h5v-.5Zm-7,0h-5v.5h5v-.5Zm-7,0h-5v.5h5v-.5Zm-7,0h-5v.5h5v-.5Zm-7,0h-5v.5h5v-.5Zm-7,0h-5v.5h5v-.5Zm-7,0h-5v.5h5v-.5Zm-7,0h-5v.5h5v-.5Zm-7,0H176a3.75,3.75,0,0,0-1.06.27h-.13l-.14.07.22.45a3.29,3.29,0,0,1,1.51-.36h3.21v-.5Zm-6.43,1.7h0v0h0v0h0v0h0v0h0l0,0h0v0h0l0,0h0v0h0a5,5,0,0,0-.33.75h0v0h0v0h0v0h0v0h0v0h0v0h0v0h0v0h0v0h0v0h0v0h-.08v0h0v0h0v0h0v2.66h.5V73.28a3.36,3.36,0,0,1,.6-1.92l-.41-.29ZM173,77.94h-.5v5h.5v-5Zm0,7h-.5v5h.5v-5Zm0,7h-.5v5h.5v-5Zm0,7h-.5v5h.5v-5Zm0,7h-.5v5h.5v-5Zm0,7h-.5v5h.5v-5Zm0,7h-.5v5h.5v-5Zm0,7h-.5v5h.5v-5Zm0,7h-.5v5h.5v-5Zm0,7h-.5v4h0v0h0v0h0v0h0v0h0v0h0v0h0v0h0v0h0c0,.13,0,.25.05.37h0v0h0v0h0v0h0l0,.12.49-.13A3.32,3.32,0,0,1,173,145v-4Zm.94,6.37-.37.35a4.1,4.1,0,0,0,.9.7h.13l.14.07H175l.08,0h.26l.06,0h2.88v-.5H176.4a3.37,3.37,0,0,1-2.47-1.07Zm11.3,1.07h-5v.5h5v-.5Zm7,0h-5v.5h5v-.5Zm7,0h-5v.5h5v-.5Zm7,0h-5v.5h5v-.5Zm7,0h-5v.5h5v-.5Zm7,0h-5v.5h5v-.5Zm7,0h-5v.5h5v-.5Zm7,0h-5v.5h5v-.5Zm7,0h-5v.5h5v-.5Zm7,0h-5v.5h5v-.5Zm7,0h-5v.5h5v-.5Zm7,0h-5v.5h5v-.5Zm7,0h-5v.5h5v-.5Zm7,0h-5v.5h5v-.5Zm7,0h-5v.5h5v-.5Zm7,0h-5v.5h5v-.5Zm7,0h-5v.5h5v-.5Zm7,0h-5v.5h5v-.5Zm7,0h-5v.5h5v-.5Zm7,0h-5v.5h5v-.5Zm7,0h-5v.5h5v-.5Zm7,0h-5v.5h5v-.5Zm7,0h-5v.5h5v-.5Zm7,0h-5v.5h5v-.5Zm7,0h-5v.5h5v-.5Zm7,0h-5v.5h5v-.5Zm7,0h-5v.5h5v-.5Zm7,0h-5v.5h5v-.5Zm7,0h-5v.5h5v-.5Zm7,0h-5v.5h5v-.5Zm7,0h-5v.5h5v-.5Zm7,0h-5v.5h5v-.5Zm7,0h-5v.5h5v-.5Zm7,0h-5v.5h5v-.5Zm7,0h-5v.5h5v-.5Zm7,0h-5v.5h5v-.5Zm7,0h-5v.5h5v-.5Zm7,0h-5v.5h5v-.5Zm7,0h-5v.5h5v-.5Zm7,0h-5v.5h5v-.5Zm7,0h-5v.5h5v-.5Zm7,0h-5v.5h5v-.5Zm7,0h-5v.5h5v-.5Zm7,0h-5v.5h5v-.5Zm7,0h-5v.5h5v-.5Zm7,0h-5v.5h5v-.5Zm7,0h-5v.5h5v-.5Zm7,0h-5v.5h5v-.5Zm7,0h-5v.5h5v-.5Zm4.76-3a3.44,3.44,0,0,1-2.84,2.92l.07.49a3.86,3.86,0,0,0,1.3-.45h0l0,0h0l0,0h0l0,0h0l0,0h.07l0,0H525l0,0h.14l0,0h0l0,0h0l0,0h0a4,4,0,0,0,1.17-2.31l-.49-.07Zm.53-6.93H526v5h.5v-5Zm0-7H526v5h.5v-5Zm0-7H526v5h.5v-5Zm0-7H526v5h.5v-5Zm0-7H526v5h.5v-5Zm0-7H526v5h.5v-5Zm0-7H526v5h.5v-5Zm0-7H526v5h.5v-5Zm0-7H526v5h.5v-5Zm0-7H526v5h.5v-5Zm-2.59-5.89-.17.47A3.43,3.43,0,0,1,526,73.28v.21h.5v-.21h0v0h0v0h0v0h-.12v0h-1.22l0,0h-.25l0,0h-.13v0h0l0,0h-.05l0,0h0l0,0h-.05l0,0h0l0,0h0l0,0h0l-.46-.2Z"/></g><path class="cls-5" d="M191.41,125.88a2,2,0,0,1-1.88-2.15V94.53a2,2,0,0,1,1.88-2.15h65.75A2,2,0,0,1,259,94.53v29.2a2,2,0,0,1-1.87,2.15Z"/><path class="cls-1" d="M257.16,92.63a1.77,1.77,0,0,1,1.62,1.9v29.2a1.78,1.78,0,0,1-1.62,1.9H191.41a1.79,1.79,0,0,1-1.63-1.9V94.53a1.78,1.78,0,0,1,1.63-1.9h65.75m0-.5H191.41a2.27,2.27,0,0,0-2.13,2.4v29.2a2.28,2.28,0,0,0,2.13,2.4h65.75a2.28,2.28,0,0,0,2.12-2.4V94.53a2.27,2.27,0,0,0-2.12-2.4Z"/><g class="cls-6"><path class="cls-7" d="M208.88,112.32l.48-.91a4.11,4.11,0,0,0,2.23.66c1.07,0,1.52-.32,1.52-.87,0-1.43-4-.19-4-2.73,0-1.14,1-1.91,2.66-1.91a4.66,4.66,0,0,1,2.32.58l-.5.91a3.31,3.31,0,0,0-1.83-.5c-1,0-1.51.37-1.51.88,0,1.5,4,.27,4,2.75,0,1.15-1.06,1.89-2.75,1.89A4.57,4.57,0,0,1,208.88,112.32Z"/><path class="cls-7" d="M217,106.07v.55h1.85v.95H217V113h-1.15v-5.43h-1.09v-.95h1.09v-.56A1.91,1.91,0,0,1,218,104a2.19,2.19,0,0,1,1.3.37l-.35.88a1.49,1.49,0,0,0-.89-.3C217.36,105,217,105.34,217,106.07Z"/><path class="cls-7" d="M226.92,107.51c0,1.83-1.33,2.94-3.51,2.94h-2.08V113h-1.21v-8.42h3.29C225.59,104.58,226.92,105.68,226.92,107.51Zm-1.21,0c0-1.2-.8-1.89-2.34-1.89h-2v3.78h2C224.91,109.4,225.71,108.71,225.71,107.51Z"/><path class="cls-7" d="M227.91,109.81a3.31,3.31,0,1,1,3.31,3.26A3.17,3.17,0,0,1,227.91,109.81Zm5.46,0a2.15,2.15,0,1,0-2.15,2.25A2.1,2.1,0,0,0,233.37,109.81Z"/><path class="cls-7" d="M242.15,104.07V113H241v-1a2.69,2.69,0,0,1-2.27,1.08,3.26,3.26,0,0,1,0-6.51,2.72,2.72,0,0,1,2.22,1v-3.51ZM241,109.81a2.15,2.15,0,1,0-2.14,2.25A2.1,2.1,0,0,0,241,109.81Z"/></g><rect class="cls-5" x="285.82" y="92.13" width="70" height="34" rx="1.26"/><path class="cls-8" d="M354.56,126.38H287.07a1.51,1.51,0,0,1-1.5-1.51V93.38a1.5,1.5,0,0,1,1.5-1.5h67.49a1.51,1.51,0,0,1,1.51,1.5v31.49A1.52,1.52,0,0,1,354.56,126.38Zm-67.49-34a1,1,0,0,0-1,1v31.49a1,1,0,0,0,1,1h67.49a1,1,0,0,0,1-1V93.38a1,1,0,0,0-1-1Z"/><path class="cls-2" d="M312.85,107.5c0,1.83-1.32,2.93-3.5,2.93h-2.08V113h-1.2v-8.41h3.28C311.53,104.57,312.85,105.68,312.85,107.5Zm-1.2,0c0-1.2-.8-1.88-2.34-1.88h-2v3.77h2C310.85,109.39,311.65,108.7,311.65,107.5Z"/><path class="cls-2" d="M313.84,109.79a3.31,3.31,0,1,1,3.31,3.26A3.17,3.17,0,0,1,313.84,109.79Zm5.45,0a2.15,2.15,0,1,0-4.29,0,2.15,2.15,0,1,0,4.29,0Z"/><path class="cls-2" d="M328.06,104.07V113H327v-1a2.68,2.68,0,0,1-2.27,1.08,3.25,3.25,0,0,1,0-6.5,2.74,2.74,0,0,1,2.23,1v-3.5Zm-1.14,5.72a2.15,2.15,0,1,0-2.14,2.25A2.1,2.1,0,0,0,326.92,109.79Z"/><path class="cls-2" d="M335.57,104.57V113h-1.19v-7.36h-1.9v-1.05Z"/><rect class="cls-5" x="363.33" y="92.13" width="70" height="34" rx="1.26"/><path class="cls-8" d="M432.07,126.38H364.58a1.51,1.51,0,0,1-1.5-1.51V93.38a1.5,1.5,0,0,1,1.5-1.5h67.49a1.51,1.51,0,0,1,1.51,1.5v31.49A1.52,1.52,0,0,1,432.07,126.38Zm-67.49-34a1,1,0,0,0-1,1v31.49a1,1,0,0,0,1,1h67.49a1,1,0,0,0,1-1V93.38a1,1,0,0,0-1-1Z"/><rect class="cls-5" x="440.51" y="92.13" width="70" height="34" rx="1.26"/><path class="cls-8" d="M509.26,126.38H441.77a1.52,1.52,0,0,1-1.51-1.51V93.38a1.51,1.51,0,0,1,1.51-1.5h67.49a1.5,1.5,0,0,1,1.5,1.5v31.49A1.51,1.51,0,0,1,509.26,126.38Zm-67.49-34a1,1,0,0,0-1,1v31.49a1,1,0,0,0,1,1h67.49a1,1,0,0,0,1-1V93.38a1,1,0,0,0-1-1Z"/><path class="cls-2" d="M389.14,107.5c0,1.83-1.32,2.93-3.51,2.93h-2.07V113h-1.21v-8.41h3.28C387.82,104.57,389.14,105.68,389.14,107.5Zm-1.2,0c0-1.2-.81-1.88-2.34-1.88h-2v3.77h2C387.13,109.39,387.94,108.7,387.94,107.5Z"/><path class="cls-2" d="M390.12,109.79a3.31,3.31,0,1,1,3.32,3.26A3.17,3.17,0,0,1,390.12,109.79Zm5.46,0a2.15,2.15,0,1,0-2.14,2.25A2.09,2.09,0,0,0,395.58,109.79Z"/><path class="cls-2" d="M404.34,104.07V113h-1.1v-1a2.69,2.69,0,0,1-2.27,1.08,3.25,3.25,0,0,1,0-6.5,2.72,2.72,0,0,1,2.22,1v-3.5Zm-1.14,5.72a2.14,2.14,0,1,0-2.13,2.25A2.09,2.09,0,0,0,403.2,109.79Z"/><path class="cls-2" d="M415.15,111.93v1h-6v-.82l3.42-3.3c.89-.87,1.06-1.39,1.06-1.92,0-.87-.61-1.4-1.79-1.4a2.64,2.64,0,0,0-2.15.92l-.81-.71a3.83,3.83,0,0,1,3.07-1.27c1.75,0,2.88.9,2.88,2.34a3.41,3.41,0,0,1-1.38,2.64l-2.57,2.47Z"/><path class="cls-2" d="M466.34,107.5c0,1.83-1.32,2.93-3.51,2.93h-2.08V113h-1.2v-8.41h3.28C465,104.57,466.34,105.68,466.34,107.5Zm-1.2,0c0-1.2-.81-1.88-2.34-1.88h-2.05v3.77h2.05C464.33,109.39,465.14,108.7,465.14,107.5Z"/><path class="cls-2" d="M467.32,109.8a3.31,3.31,0,1,1,3.32,3.25A3.18,3.18,0,0,1,467.32,109.8Zm5.46,0a2.15,2.15,0,1,0-2.14,2.24A2.1,2.1,0,0,0,472.78,109.8Z"/><path class="cls-2" d="M481.54,104.07V113h-1.1v-1a2.69,2.69,0,0,1-2.27,1.08,3.25,3.25,0,0,1,0-6.5,2.72,2.72,0,0,1,2.22,1v-3.5Zm-1.14,5.73a2.14,2.14,0,1,0-2.14,2.24A2.1,2.1,0,0,0,480.4,109.8Z"/><path class="cls-2" d="M492.2,110.5c0,1.42-1.05,2.57-3.19,2.57a4.73,4.73,0,0,1-3.08-1l.55-.94a3.81,3.81,0,0,0,2.53.9c1.26,0,2-.58,2-1.49s-.63-1.47-2.07-1.47h-.68v-.84l2.12-2.59h-4.05v-1.05h5.55v.82l-2.2,2.71C491.34,108.26,492.2,109.21,492.2,110.5Z"/><g class="cls-3"><rect class="cls-4" x="547.47" y="69.37" width="259.43" height="79.5" rx="3.34"/><path d="M803.56,69.37h-5v.5h5v-.5Zm-7,0h-5v.5h5v-.5Zm-7,0h-5v.5h5v-.5Zm-7,0h-5v.5h5v-.5Zm-7,0h-5v.5h5v-.5Zm-7,0h-5v.5h5v-.5Zm-7,0h-5v.5h5v-.5Zm-7,0h-5v.5h5v-.5Zm-7,0h-5v.5h5v-.5Zm-7,0h-5v.5h5v-.5Zm-7,0h-5v.5h5v-.5Zm-7,0h-5v.5h5v-.5Zm-7,0h-5v.5h5v-.5Zm-7,0h-5v.5h5v-.5Zm-7,0h-5v.5h5v-.5Zm-7,0h-5v.5h5v-.5Zm-7,0h-5v.5h5v-.5Zm-7,0h-5v.5h5v-.5Zm-7,0h-5v.5h5v-.5Zm-7,0h-5v.5h5v-.5Zm-7,0h-5v.5h5v-.5Zm-7,0h-5v.5h5v-.5Zm-7,0h-5v.5h5v-.5Zm-7,0h-5v.5h5v-.5Zm-7,0h-5v.5h5v-.5Zm-7,0h-5v.5h5v-.5Zm-7,0h-5v.5h5v-.5Zm-7,0h-5v.5h5v-.5Zm-7,0h-5v.5h5v-.5Zm-7,0h-5v.5h5v-.5Zm-7,0h-5v.5h5v-.5Zm-7,0h-5v.5h5v-.5Zm-7,0h-5v.5h5v-.5Zm-7,0h-5v.5h5v-.5Zm-7,0h-5v.5h5v-.5Zm-7,0h-5v.5h5v-.5Zm-7,0h-1.23a3.34,3.34,0,0,0-2.71,2.33l.48.15a2.83,2.83,0,0,1,2.72-2h.74v-.5ZM548,73.73h-.5v5h.5v-5Zm0,7h-.5v5h.5v-5Zm0,7h-.5v5h.5v-5Zm0,7h-.5v5h.5v-5Zm0,7h-.5v5h.5v-5Zm0,7h-.5v5h.5v-5Zm0,7h-.5v5h.5v-5Zm0,7h-.5v5h.5v-5Zm0,7h-.5v5h.5v-5Zm0,7h-.5v5h.5v-5Zm0,7h-.5v1.8h0v0h0v0h0v0h0v0h0v.06h0v0h0v0h0v0h0v0h0a3.3,3.3,0,0,0,.69,1.34h0l0,0h0v0h.1a3,3,0,0,0,.47.39l.29-.4a2.86,2.86,0,0,1-1.21-2.33v-1.8Zm2.8,4.65v.5h5v-.5h-5Zm12,0h-5v.5h5v-.5Zm7,0h-5v.5h5v-.5Zm7,0h-5v.5h5v-.5Zm7,0h-5v.5h5v-.5Zm7,0h-5v.5h5v-.5Zm7,0h-5v.5h5v-.5Zm7,0h-5v.5h5v-.5Zm7,0h-5v.5h5v-.5Zm7,0h-5v.5h5v-.5Zm7,0h-5v.5h5v-.5Zm7,0h-5v.5h5v-.5Zm7,0h-5v.5h5v-.5Zm7,0h-5v.5h5v-.5Zm7,0h-5v.5h5v-.5Zm7,0h-5v.5h5v-.5Zm7,0h-5v.5h5v-.5Zm7,0h-5v.5h5v-.5Zm7,0h-5v.5h5v-.5Zm7,0h-5v.5h5v-.5Zm7,0h-5v.5h5v-.5Zm7,0h-5v.5h5v-.5Zm7,0h-5v.5h5v-.5Zm7,0h-5v.5h5v-.5Zm7,0h-5v.5h5v-.5Zm7,0h-5v.5h5v-.5Zm7,0h-5v.5h5v-.5Zm7,0h-5v.5h5v-.5Zm7,0h-5v.5h5v-.5Zm7,0h-5v.5h5v-.5Zm7,0h-5v.5h5v-.5Zm7,0h-5v.5h5v-.5Zm7,0h-5v.5h5v-.5Zm7,0h-5v.5h5v-.5Zm7,0h-5v.5h5v-.5Zm7,0h-5v.5h5v-.5Zm5.5-2a2.84,2.84,0,0,1-2.7,2h-.8v.5h1.71a3.35,3.35,0,0,0,2.27-2.18l-.48-.15Zm.64-6.83h-.5v5h.5v-5Zm0-7h-.5v5h.5v-5Zm0-7h-.5v5h.5v-5Zm0-7h-.5v5h.5v-5Zm0-7h-.5v5h.5v-5Zm0-7h-.5v5h.5v-5Zm0-7h-.5v5h.5v-5Zm0-7h-.5v5h.5v-5Zm0-7h-.5v5h.5v-5Zm0-7h-.5v5h.5v-5ZM805.54,70l-.3.4a2.84,2.84,0,0,1,1.16,2.29v1.87h.5V72.72h0v0h0v0h0v0h0v0h0v0h0v0h0v0h0v0h0v0h0v0h0v0h0v0h0v0h0v0h0v0h0l0-.08h0v0h0A3.31,3.31,0,0,0,805.54,70Zm-2-.66v.5h.1l0-.5h-.12Z"/></g><rect class="cls-5" x="564.84" y="92.13" width="70" height="34" rx="1.26"/><path class="cls-8" d="M633.58,126.38H566.1a1.52,1.52,0,0,1-1.51-1.51V93.38a1.51,1.51,0,0,1,1.51-1.5h67.48a1.51,1.51,0,0,1,1.51,1.5v31.49A1.52,1.52,0,0,1,633.58,126.38Zm-67.48-34a1,1,0,0,0-1,1v31.49a1,1,0,0,0,1,1h67.48a1,1,0,0,0,1-1V93.38a1,1,0,0,0-1-1Z"/><path class="cls-2" d="M591.88,107.5c0,1.83-1.32,2.93-3.51,2.93h-2.08V113h-1.2v-8.41h3.28C590.56,104.57,591.88,105.68,591.88,107.5Zm-1.2,0c0-1.2-.81-1.88-2.35-1.88h-2v3.77h2C589.87,109.39,590.68,108.7,590.68,107.5Z"/><path class="cls-2" d="M592.86,109.79a3.31,3.31,0,1,1,3.32,3.26A3.17,3.17,0,0,1,592.86,109.79Zm5.45,0a2.14,2.14,0,1,0-4.28,0,2.14,2.14,0,1,0,4.28,0Z"/><path class="cls-2" d="M607.08,104.07V113H606v-1a2.7,2.7,0,0,1-2.27,1.08,3.25,3.25,0,0,1,0-6.5,2.72,2.72,0,0,1,2.22,1v-3.5Zm-1.14,5.72A2.15,2.15,0,1,0,603.8,112,2.09,2.09,0,0,0,605.94,109.79Z"/><path class="cls-2" d="M614.59,104.57V113H613.4v-7.36h-1.9v-1.05Z"/><rect class="cls-5" x="642.35" y="92.13" width="70" height="34" rx="1.26"/><path class="cls-8" d="M711.09,126.38H643.61a1.52,1.52,0,0,1-1.51-1.51V93.38a1.51,1.51,0,0,1,1.51-1.5h67.48a1.51,1.51,0,0,1,1.51,1.5v31.49A1.52,1.52,0,0,1,711.09,126.38Zm-67.48-34a1,1,0,0,0-1,1v31.49a1,1,0,0,0,1,1h67.48a1,1,0,0,0,1-1V93.38a1,1,0,0,0-1-1Z"/><rect class="cls-5" x="719.54" y="92.13" width="70" height="34" rx="1.26"/><path class="cls-8" d="M788.28,126.38H720.79a1.51,1.51,0,0,1-1.5-1.51V93.38a1.5,1.5,0,0,1,1.5-1.5h67.49a1.51,1.51,0,0,1,1.51,1.5v31.49A1.52,1.52,0,0,1,788.28,126.38Zm-67.49-34a1,1,0,0,0-1,1v31.49a1,1,0,0,0,1,1h67.49a1,1,0,0,0,1-1V93.38a1,1,0,0,0-1-1Z"/><path class="cls-2" d="M668.16,107.5c0,1.83-1.32,2.93-3.5,2.93h-2.08V113h-1.2v-8.41h3.28C666.84,104.57,668.16,105.68,668.16,107.5Zm-1.2,0c0-1.2-.8-1.88-2.34-1.88h-2v3.77h2C666.16,109.39,667,108.7,667,107.5Z"/><path class="cls-2" d="M669.15,109.79a3.31,3.31,0,1,1,3.31,3.26A3.17,3.17,0,0,1,669.15,109.79Zm5.45,0a2.15,2.15,0,1,0-4.29,0,2.15,2.15,0,1,0,4.29,0Z"/><path class="cls-2" d="M683.37,104.07V113h-1.11v-1a2.69,2.69,0,0,1-2.27,1.08,3.25,3.25,0,0,1,0-6.5,2.71,2.71,0,0,1,2.22,1v-3.5Zm-1.14,5.72a2.15,2.15,0,1,0-2.14,2.25A2.1,2.1,0,0,0,682.23,109.79Z"/><path class="cls-2" d="M694.17,111.93v1h-6v-.82l3.43-3.3c.89-.87,1.05-1.39,1.05-1.92,0-.87-.61-1.4-1.79-1.4a2.64,2.64,0,0,0-2.15.92l-.81-.71a3.85,3.85,0,0,1,3.07-1.27c1.76,0,2.88.9,2.88,2.34a3.41,3.41,0,0,1-1.38,2.64l-2.57,2.47Z"/><path class="cls-2" d="M745.36,107.5c0,1.83-1.32,2.93-3.51,2.93h-2.07V113h-1.2v-8.41h3.27C744,104.57,745.36,105.68,745.36,107.5Zm-1.2,0c0-1.2-.8-1.88-2.34-1.88h-2v3.77h2C743.36,109.39,744.16,108.7,744.16,107.5Z"/><path class="cls-2" d="M746.35,109.8a3.31,3.31,0,1,1,3.31,3.25A3.17,3.17,0,0,1,746.35,109.8Zm5.45,0a2.15,2.15,0,1,0-2.14,2.24A2.09,2.09,0,0,0,751.8,109.8Z"/><path class="cls-2" d="M760.57,104.07V113h-1.11v-1a2.69,2.69,0,0,1-2.27,1.08,3.25,3.25,0,0,1,0-6.5,2.72,2.72,0,0,1,2.22,1v-3.5Zm-1.15,5.73a2.14,2.14,0,1,0-2.13,2.24A2.09,2.09,0,0,0,759.42,109.8Z"/><path class="cls-2" d="M771.22,110.5c0,1.42-1.05,2.57-3.18,2.57a4.74,4.74,0,0,1-3.09-1l.55-.94a3.84,3.84,0,0,0,2.54.9c1.26,0,2-.58,2-1.49s-.64-1.47-2.08-1.47h-.67v-.84l2.11-2.59h-4v-1.05h5.55v.82l-2.2,2.71C770.37,108.26,771.22,109.21,771.22,110.5Z"/><path class="cls-2" d="M650.49,55.82v3.66h-1.16V56c0-1.25-.62-1.86-1.71-1.86a1.89,1.89,0,0,0-2,2.11v3.28h-1.15V53.12h1.1v1a2.73,2.73,0,0,1,2.29-1A2.47,2.47,0,0,1,650.49,55.82Z"/><path class="cls-2" d="M657.67,55.64v3.84h-1.09v-.84a2.37,2.37,0,0,1-2.09.91c-1.45,0-2.36-.77-2.36-1.87s.66-1.86,2.56-1.86h1.83v-.23c0-1-.57-1.54-1.71-1.54a3.22,3.22,0,0,0-2,.69l-.48-.87a4.23,4.23,0,0,1,2.63-.81C656.68,53.06,657.67,53.9,657.67,55.64Zm-1.15,1.9v-.89h-1.78c-1.14,0-1.47.44-1.47,1s.53,1,1.41,1A1.85,1.85,0,0,0,656.52,57.54Z"/><path class="cls-2" d="M670.37,55.82v3.66h-1.15V56c0-1.25-.6-1.86-1.64-1.86a1.84,1.84,0,0,0-1.91,2.11v3.28h-1.16V56c0-1.25-.6-1.86-1.64-1.86A1.85,1.85,0,0,0,661,56.2v3.28h-1.15V53.12h1.1v.94a2.61,2.61,0,0,1,2.2-1,2.36,2.36,0,0,1,2.21,1.17,2.87,2.87,0,0,1,2.45-1.17A2.43,2.43,0,0,1,670.37,55.82Z"/><path class="cls-2" d="M678.27,56.68H673.1a2.16,2.16,0,0,0,2.31,1.86,2.37,2.37,0,0,0,1.83-.76l.64.74A3.47,3.47,0,0,1,672,56.3a3.11,3.11,0,0,1,3.19-3.24,3.07,3.07,0,0,1,3.15,3.27C678.29,56.43,678.28,56.57,678.27,56.68Zm-5.17-.83h4.08a2.05,2.05,0,0,0-4.08,0Z"/><path class="cls-2" d="M679.08,58.81l.48-.91a4.14,4.14,0,0,0,2.24.66c1.07,0,1.51-.33,1.51-.87,0-1.43-4-.19-4-2.73,0-1.14,1-1.9,2.65-1.9a4.66,4.66,0,0,1,2.32.57l-.49.91a3.36,3.36,0,0,0-1.84-.5c-1,0-1.5.37-1.5.88,0,1.5,4,.27,4,2.75,0,1.15-1.05,1.88-2.75,1.88A4.62,4.62,0,0,1,679.08,58.81Z"/><path class="cls-2" d="M692.5,56.3a3.09,3.09,0,0,1-3.22,3.25,2.72,2.72,0,0,1-2.22-1v3.29H685.9V53.12H687v1a2.71,2.71,0,0,1,2.27-1.06A3.09,3.09,0,0,1,692.5,56.3Zm-1.17,0a2.15,2.15,0,1,0-2.15,2.24A2.1,2.1,0,0,0,691.33,56.3Z"/><path class="cls-2" d="M699.08,55.64v3.84H698v-.84a2.37,2.37,0,0,1-2.09.91c-1.45,0-2.36-.77-2.36-1.87s.66-1.86,2.56-1.86h1.82v-.23c0-1-.56-1.54-1.7-1.54a3.22,3.22,0,0,0-2,.69l-.48-.87a4.23,4.23,0,0,1,2.63-.81C698.09,53.06,699.08,53.9,699.08,55.64Zm-1.16,1.9v-.89h-1.77c-1.14,0-1.47.44-1.47,1s.53,1,1.41,1A1.83,1.83,0,0,0,697.92,57.54Z"/><path class="cls-2" d="M700.66,56.3A3.18,3.18,0,0,1,704,53.06a2.82,2.82,0,0,1,2.59,1.35l-.88.57a2,2,0,0,0-1.73-.92,2.24,2.24,0,0,0,0,4.48,2,2,0,0,0,1.73-.91l.88.55A2.84,2.84,0,0,1,704,59.55,3.19,3.19,0,0,1,700.66,56.3Z"/><path class="cls-2" d="M713.74,56.68h-5.16a2.14,2.14,0,0,0,2.3,1.86,2.39,2.39,0,0,0,1.84-.76l.64.74a3.22,3.22,0,0,1-2.51,1,3.18,3.18,0,0,1-3.43-3.25,3.12,3.12,0,0,1,3.2-3.24,3.06,3.06,0,0,1,3.14,3.27C713.76,56.43,713.75,56.57,713.74,56.68Zm-5.16-.83h4.08a2.05,2.05,0,0,0-4.08,0Z"/><path class="cls-2" d="M720.63,58.44v1h-6v-.82l3.43-3.3c.89-.86,1.05-1.39,1.05-1.92,0-.86-.61-1.39-1.79-1.39a2.63,2.63,0,0,0-2.15.91l-.81-.71A3.88,3.88,0,0,1,717.39,51c1.76,0,2.88.9,2.88,2.34A3.4,3.4,0,0,1,718.89,56l-2.57,2.48Z"/><path d="M438.93,13.54l-1.61,1.65v2.59h-1.89V7.63h1.89v5.21l5-5.21h2.12l-4.26,4.54,4.52,5.61h-2.2Z"/><path d="M453.06,10v7.74h-1.72v-1a3.15,3.15,0,0,1-2.49,1.08,3.06,3.06,0,0,1-3.34-3.42V10h1.81v4.18c0,1.4.67,2.07,1.82,2.07A2,2,0,0,0,451.25,14V10Z"/><path d="M463.66,13.91a3.76,3.76,0,0,1-3.92,4,3.2,3.2,0,0,1-2.57-1.1v1h-1.72V7h1.81v4a3.23,3.23,0,0,1,2.48-1A3.76,3.76,0,0,1,463.66,13.91Zm-1.84,0a2.3,2.3,0,1,0-4.59,0,2.3,2.3,0,1,0,4.59,0Z"/><path d="M472.64,14.49h-6.07a2.34,2.34,0,0,0,2.5,1.86,2.81,2.81,0,0,0,2.11-.84l1,1.11A3.92,3.92,0,0,1,469,17.88c-2.59,0-4.28-1.66-4.28-4a3.86,3.86,0,0,1,4-4,3.78,3.78,0,0,1,3.91,4A5.13,5.13,0,0,1,472.64,14.49Zm-6.09-1.2h4.39a2.1,2.1,0,0,0-2.18-1.89A2.15,2.15,0,0,0,466.55,13.29Z"/><path d="M478.89,10v1.73a2.19,2.19,0,0,0-.42,0A2.11,2.11,0,0,0,476.22,14v3.75h-1.81V10h1.73v1.13A3,3,0,0,1,478.89,10Z"/><path d="M488.05,13.35v4.43h-1.81v-4.2c0-1.38-.68-2.05-1.84-2.05a2.06,2.06,0,0,0-2.16,2.34v3.91h-1.81V10h1.73v1A3.35,3.35,0,0,1,484.82,10C486.68,10,488.05,11,488.05,13.35Z"/><path d="M497.68,14.49h-6.07a2.35,2.35,0,0,0,2.51,1.86,2.79,2.79,0,0,0,2.1-.84l1,1.11a4.35,4.35,0,0,1-7.39-2.71,3.85,3.85,0,0,1,4-4,3.78,3.78,0,0,1,3.91,4A5.13,5.13,0,0,1,497.68,14.49Zm-6.08-1.2H496a2.11,2.11,0,0,0-2.19-1.89A2.13,2.13,0,0,0,491.6,13.29Z"/><path d="M504.11,17.36a2.85,2.85,0,0,1-1.74.52,2.38,2.38,0,0,1-2.67-2.61V11.55h-1.28V10.1h1.28V8.33h1.81V10.1h2.08v1.45h-2.08v3.68c0,.75.38,1.16,1.07,1.16a1.63,1.63,0,0,0,1-.32Z"/><path d="M512.59,14.49h-6.07a2.34,2.34,0,0,0,2.5,1.86,2.81,2.81,0,0,0,2.11-.84l1,1.11A3.93,3.93,0,0,1,509,17.88c-2.59,0-4.28-1.66-4.28-4a3.86,3.86,0,0,1,4-4,3.78,3.78,0,0,1,3.92,4C512.62,14.1,512.6,14.32,512.59,14.49Zm-6.09-1.2h4.39a2.11,2.11,0,0,0-2.19-1.89A2.15,2.15,0,0,0,506.5,13.29Z"/><path d="M513.48,17l.69-1.37a5.22,5.22,0,0,0,2.7.77c1.14,0,1.62-.32,1.62-.86,0-1.48-4.78-.09-4.78-3.18,0-1.46,1.32-2.42,3.41-2.42a6.14,6.14,0,0,1,2.89.67L519.32,12a4.2,4.2,0,0,0-2.22-.58c-1.1,0-1.62.36-1.62.87,0,1.56,4.78.17,4.78,3.2,0,1.45-1.33,2.39-3.51,2.39A6,6,0,0,1,513.48,17Z"/><path d="M525.28,12.71a5.17,5.17,0,0,1,5.44-5.22,5.1,5.1,0,0,1,4,1.7l-1.22,1.14a3.55,3.55,0,0,0-2.71-1.19,3.46,3.46,0,0,0-3.62,3.57,3.46,3.46,0,0,0,3.62,3.56,3.53,3.53,0,0,0,2.71-1.2l1.22,1.16a5.49,5.49,0,0,1-9.45-3.52Z"/><path d="M536.37,7h1.81V17.78h-1.81Z"/><path d="M548.06,10v7.74h-1.73v-1a3.15,3.15,0,0,1-2.49,1.08,3.06,3.06,0,0,1-3.34-3.42V10h1.82v4.18c0,1.4.66,2.07,1.81,2.07A2,2,0,0,0,546.24,14V10Z"/><path d="M549.55,17l.7-1.37a5.19,5.19,0,0,0,2.7.77c1.14,0,1.62-.32,1.62-.86,0-1.48-4.79-.09-4.79-3.18,0-1.46,1.32-2.42,3.41-2.42a6.15,6.15,0,0,1,2.9.67L555.4,12a4.2,4.2,0,0,0-2.22-.58c-1.1,0-1.63.36-1.63.87,0,1.56,4.79.17,4.79,3.2,0,1.45-1.34,2.39-3.51,2.39A6.11,6.11,0,0,1,549.55,17Z"/><path d="M562.56,17.36a2.85,2.85,0,0,1-1.74.52,2.38,2.38,0,0,1-2.67-2.61V11.55h-1.27V10.1h1.27V8.33H560V10.1H562v1.45H560v3.68c0,.75.38,1.16,1.08,1.16a1.6,1.6,0,0,0,1-.32Z"/><path d="M571,14.49H565a2.34,2.34,0,0,0,2.5,1.86,2.81,2.81,0,0,0,2.11-.84l1,1.11a4.35,4.35,0,0,1-7.39-2.71,3.85,3.85,0,0,1,4-4,3.78,3.78,0,0,1,3.91,4A5.13,5.13,0,0,1,571,14.49ZM565,13.29h4.39a2.1,2.1,0,0,0-2.18-1.89A2.15,2.15,0,0,0,565,13.29Z"/><path d="M577.29,10v1.73a2.19,2.19,0,0,0-.42,0A2.11,2.11,0,0,0,574.62,14v3.75h-1.81V10h1.73v1.13A3,3,0,0,1,577.29,10Z"/><path d="M578.79,13.81A12.39,12.39,0,0,1,580.56,7h1.72a13.23,13.23,0,0,0-1.71,6.78,13.23,13.23,0,0,0,1.71,6.78h-1.72A12.46,12.46,0,0,1,578.79,13.81Z"/><path d="M582.91,17l.69-1.37a5.22,5.22,0,0,0,2.7.77c1.14,0,1.62-.32,1.62-.86,0-1.48-4.78-.09-4.78-3.18,0-1.46,1.32-2.42,3.4-2.42a6.15,6.15,0,0,1,2.9.67L588.75,12a4.2,4.2,0,0,0-2.22-.58c-1.1,0-1.62.36-1.62.87,0,1.56,4.78.17,4.78,3.2,0,1.45-1.33,2.39-3.51,2.39A6,6,0,0,1,582.91,17Z"/><path d="M590.39,20.59a13.24,13.24,0,0,0,1.72-6.78A13.24,13.24,0,0,0,590.39,7h1.72a12.3,12.3,0,0,1,1.77,6.78,12.37,12.37,0,0,1-1.77,6.78Z"/><path class="cls-9" d="M412.22,0a1.92,1.92,0,0,0-.71.19L402,4.72a1.83,1.83,0,0,0-1,1.22l-2.33,10.17a1.76,1.76,0,0,0,.26,1.39l.1.14,6.57,8.17a1.85,1.85,0,0,0,1.42.67h10.53A1.81,1.81,0,0,0,419,25.8l6.57-8.16a1.79,1.79,0,0,0,.34-1.53L423.56,5.93a1.88,1.88,0,0,0-1-1.22L413.09.19a1.82,1.82,0,0,0-.88-.19Z"/><path class="cls-5" d="M412.3,3.47a.61.61,0,0,0-.56.63v.16a3.35,3.35,0,0,0,.08.54,5.6,5.6,0,0,1,.06,1,.67.67,0,0,1-.19.3v.24A7.16,7.16,0,0,0,407,8.61l-.2-.14a.4.4,0,0,1-.34,0,4.16,4.16,0,0,1-.76-.69,4.68,4.68,0,0,0-.38-.39l-.12-.1a.76.76,0,0,0-.4-.15.52.52,0,0,0-.45.2.61.61,0,0,0,.14.84l.12.09c.15.1.31.19.47.28a5,5,0,0,1,.85.59.57.57,0,0,1,.11.33l.19.17A7.31,7.31,0,0,0,405,14.76l-.24.07a.82.82,0,0,1-.24.25,5.78,5.78,0,0,1-1,.16h-.7a.57.57,0,0,0-.49.64.52.52,0,0,0,.16.33.56.56,0,0,0,.58.14h.15a3.52,3.52,0,0,0,.51-.19,6.75,6.75,0,0,1,1-.29.66.66,0,0,1,.33.12h.26a7.3,7.3,0,0,0,3.27,4.09l-.1.22a.7.7,0,0,1,.05.32,6,6,0,0,1-.52.93q-.17.22-.3.45l-.07.16a.57.57,0,0,0,.21.78.57.57,0,0,0,.34.07.55.55,0,0,0,.47-.37l.07-.14c.06-.17.12-.34.17-.52a4.2,4.2,0,0,1,.43-1,.53.53,0,0,1,.25-.12l.13-.23a7.39,7.39,0,0,0,5.24,0l.11.22a.48.48,0,0,1,.29.17,6.09,6.09,0,0,1,.39,1,3.13,3.13,0,0,0,.16.52l.08.14a.56.56,0,0,0,.73.34.7.7,0,0,0,.28-.23.57.57,0,0,0,0-.59L417,22c-.1-.15-.2-.31-.31-.45a5.34,5.34,0,0,1-.51-.9.41.41,0,0,1,.06-.34,1.6,1.6,0,0,1-.1-.23A7.41,7.41,0,0,0,419.32,16h.25a.43.43,0,0,1,.31-.12,7.12,7.12,0,0,1,1,.29,3.86,3.86,0,0,0,.51.2h.15a.57.57,0,0,0,.72-.36h0a.53.53,0,0,0,0-.35.58.58,0,0,0-.46-.38h-.72a5.63,5.63,0,0,1-1-.16.6.6,0,0,1-.25-.25l-.23-.07a7.42,7.42,0,0,0-1.19-5.16l.2-.18a.44.44,0,0,1,.11-.33,5.51,5.51,0,0,1,.84-.59,3.24,3.24,0,0,0,.47-.28l.12-.1a.58.58,0,0,0,.19-.78.64.64,0,0,0-.3-.24.56.56,0,0,0-.59.14l-.13.1a3.41,3.41,0,0,0-.37.39,5.58,5.58,0,0,1-.75.71.65.65,0,0,1-.34,0l-.22.16a7.42,7.42,0,0,0-4.72-2.28V6.1a.43.43,0,0,1-.18-.29,4.2,4.2,0,0,1,.06-1c0-.18.06-.36.08-.54V4.1a.62.62,0,0,0-.56-.63Zm-.71,4.4-.17,3h0a.52.52,0,0,1-.28.43.49.49,0,0,1-.52,0l-2.45-1.8A5.87,5.87,0,0,1,411,8l.6-.1Zm1.42,0a6,6,0,0,1,3.4,1.64L414,11.23a.51.51,0,0,1-.53.07.54.54,0,0,1-.29-.45Zm-5.73,2.75,2.24,2h0a.51.51,0,0,1,.05.71.54.54,0,0,1-.25.15h0l-2.87.82a5.87,5.87,0,0,1,.84-3.7Zm10,0a6.05,6.05,0,0,1,.85,3.69l-2.87-.82h0a.5.5,0,0,1-.36-.61.51.51,0,0,1,.16-.25l2.22-2Zm-5.46,2.15h.91l.56.71-.21.89-.82.39-.82-.39-.19-.89Zm2.92,2.42h.12l2.95.5a5.76,5.76,0,0,1-2.36,3l-1.14-2.77a.48.48,0,0,1,.25-.64h.18Zm-5,0a.46.46,0,0,1,.41.69h0L409,18.63a5.83,5.83,0,0,1-2.36-2.95l2.93-.5h.15Zm2.47,1.19a.54.54,0,0,1,.46.26h0l1.45,2.61-.58.17a5.72,5.72,0,0,1-3.2-.17l1.45-2.6a.48.48,0,0,1,.42-.25Z"/><path class="cls-5" d="M416.54,23.11a.62.62,0,0,1-.58-.41l-.08-.13c-.07-.18-.12-.36-.17-.53a4.72,4.72,0,0,0-.38-1,.35.35,0,0,0-.25-.14h0l-.1-.2a7.47,7.47,0,0,1-5.19,0l-.12.21h0a.35.35,0,0,0-.22.1,4.08,4.08,0,0,0-.42,1c-.05.17-.11.35-.17.52l-.07.15a.64.64,0,0,1-.52.4.69.69,0,0,1-.37-.08.63.63,0,0,1-.23-.86l.07-.15c.09-.15.19-.3.3-.46a5.85,5.85,0,0,0,.51-.91.7.7,0,0,0,0-.29v0l.09-.2a7.32,7.32,0,0,1-3.24-4.05H405a.49.49,0,0,0-.29-.11,6.47,6.47,0,0,0-1,.28,3.63,3.63,0,0,1-.52.19h-.16a.64.64,0,0,1-.62-.16.62.62,0,0,1-.18-.36.63.63,0,0,1,.54-.7h.71a6.54,6.54,0,0,0,1-.16.8.8,0,0,0,.22-.23v0l.22-.06a7.33,7.33,0,0,1,1.15-5.07l-.18-.15v0a.49.49,0,0,0-.1-.3A4.87,4.87,0,0,0,405,8.6c-.17-.1-.32-.18-.47-.28l-.13-.09a.67.67,0,0,1-.15-.92.61.61,0,0,1,.46-.23h0a.67.67,0,0,1,.43.16l.12.1a3.68,3.68,0,0,1,.39.4,4.43,4.43,0,0,0,.75.68.42.42,0,0,0,.29,0h0l.19.13a7.22,7.22,0,0,1,4.69-2.25V6.08l0,0a.59.59,0,0,0,.17-.27,4.65,4.65,0,0,0-.06-1l0-.15a2.57,2.57,0,0,1-.05-.4V4.1a.67.67,0,0,1,.61-.68h0a.66.66,0,0,1,.61.68v.17a3.17,3.17,0,0,1-.08.55,5.43,5.43,0,0,0-.06,1,.45.45,0,0,0,.16.25h0V6.3a7.42,7.42,0,0,1,4.67,2.26l.21-.15h0a.51.51,0,0,0,.3,0,6.87,6.87,0,0,0,.74-.69,3.44,3.44,0,0,1,.37-.4l.13-.1a.62.62,0,0,1,.65-.15.63.63,0,0,1,.12,1.12l-.12.09a2.92,2.92,0,0,1-.48.29,5.89,5.89,0,0,0-.83.58.42.42,0,0,0-.09.29v0l-.18.17a7.45,7.45,0,0,1,1.18,5.11l.2.07h0a.57.57,0,0,0,.23.23,6.46,6.46,0,0,0,1,.16h.72a.61.61,0,0,1,.51.41.65.65,0,0,1,0,.39h0a.62.62,0,0,1-.77.4h-.16a3.7,3.7,0,0,1-.52-.2,6.47,6.47,0,0,0-1-.28.41.41,0,0,0-.27.1v0h-.23a7.44,7.44,0,0,1-3.21,4.08l.09.19v0l0,0a.36.36,0,0,0-.05.3,6.41,6.41,0,0,0,.5.88c.09.11.17.23.25.35l.06.1.08.17a.59.59,0,0,1,0,.64.67.67,0,0,1-.3.25A.54.54,0,0,1,416.54,23.11Zm-1.42-2.31a.46.46,0,0,1,.3.19,5.27,5.27,0,0,1,.4,1,5,5,0,0,0,.16.51l.08.13a.51.51,0,0,0,.66.32.64.64,0,0,0,.25-.21.51.51,0,0,0,0-.53l-.07-.17-.06-.09c-.08-.11-.16-.24-.25-.34a6.91,6.91,0,0,1-.51-.92.44.44,0,0,1,0-.36l-.09-.21v0l0,0a7.27,7.27,0,0,0,3.2-4.08l0,0h.27a.47.47,0,0,1,.32-.12h0a7,7,0,0,1,1,.29,4.34,4.34,0,0,0,.5.2h.15a.55.55,0,0,0,.4,0,.5.5,0,0,0,.25-.3v0a.51.51,0,0,0,0-.3.5.5,0,0,0-.42-.34h-.71a5.72,5.72,0,0,1-1-.17h0a.69.69,0,0,1-.26-.25l-.25-.08v-.05a7.27,7.27,0,0,0-1.18-5.12l0,0,.22-.19a.51.51,0,0,1,.13-.35,5.45,5.45,0,0,1,.85-.6,2.93,2.93,0,0,0,.46-.27l.12-.1a.51.51,0,0,0,.18-.71.53.53,0,0,0-.27-.22.52.52,0,0,0-.53.13l-.14.1q-.19.2-.36.39a5.66,5.66,0,0,1-.76.71h0a.56.56,0,0,1-.34,0l-.24.18,0,0a7.33,7.33,0,0,0-4.69-2.26h-.05V6.13a.55.55,0,0,1-.18-.31,5.71,5.71,0,0,1,.06-1,3.08,3.08,0,0,0,.08-.53V4.1a.55.55,0,0,0-.51-.57h0a.55.55,0,0,0-.51.57v.16a2.65,2.65,0,0,0,0,.38l0,.15a4.32,4.32,0,0,1,.06,1,.69.69,0,0,1-.19.33v.26h-.05A7.11,7.11,0,0,0,407,8.65l0,0-.21-.15a.47.47,0,0,1-.35,0,4.05,4.05,0,0,1-.78-.7,3.5,3.5,0,0,0-.38-.39l-.12-.1a.59.59,0,0,0-.37-.13h0a.46.46,0,0,0-.37.18.56.56,0,0,0,.13.76l.12.09.46.27a4.72,4.72,0,0,1,.86.6.61.61,0,0,1,.13.35l.21.18,0,0a7.25,7.25,0,0,0-1.15,5.08v.05l-.27.08a1,1,0,0,1-.24.25h0a5.76,5.76,0,0,1-1,.17,5,5,0,0,0-.55,0h-.15a.5.5,0,0,0-.44.57.54.54,0,0,0,.15.3.5.5,0,0,0,.52.13h.16a3.3,3.3,0,0,0,.49-.19,7,7,0,0,1,1-.29h0a.7.7,0,0,1,.34.12h.29v0A7.28,7.28,0,0,0,408.64,20l0,0-.11.24a.88.88,0,0,1,0,.32v0a5.41,5.41,0,0,1-.53.94c-.11.16-.2.31-.3.45l-.06.15a.51.51,0,0,0,.19.71.63.63,0,0,0,.3.07.51.51,0,0,0,.43-.34l.07-.14a5,5,0,0,0,.16-.51,4.62,4.62,0,0,1,.44-1h0a.6.6,0,0,1,.25-.13l.14-.25.05,0a7.28,7.28,0,0,0,5.2,0l0,0Zm-2.89-1.18a5.67,5.67,0,0,1-1.91-.32l-.06,0,0-.05,1.45-2.61a.54.54,0,0,1,.41-.27v0h.07a.54.54,0,0,1,.49.29l1.49,2.67-.65.18A5.35,5.35,0,0,1,412.23,19.62Zm-1.81-.4a5.83,5.83,0,0,0,3.1.15l.52-.15-1.42-2.55a.46.46,0,0,0-.36-.23v0h-.06a.4.4,0,0,0-.36.22Zm5-.45,0-.06-1.14-2.77a.55.55,0,0,1,.28-.72h.14v-.07h.18l3,.51,0,.06a5.81,5.81,0,0,1-2.38,3Zm-.77-3.45h-.07a.43.43,0,0,0-.22.57l1.11,2.71a5.65,5.65,0,0,0,2.26-2.88l-2.88-.48h-.06v.09h-.14ZM409,18.71l-.05,0a5.93,5.93,0,0,1-2.38-3l0-.06h.07l2.93-.5h.16a.53.53,0,0,1,.45.24.58.58,0,0,1,0,.53Zm-2.31-3A5.79,5.79,0,0,0,409,18.55l1.11-2.69a.45.45,0,0,0,0-.42.42.42,0,0,0-.36-.19h-.15Zm5.53-.9h0l-.84-.4v0l-.19-.91.6-.75h1l0,0,.58.73v0l-.22.92Zm-.77-.49.77.37.77-.37.2-.83-.53-.67h-.86l-.53.67Zm6.69.05-.07,0-2.87-.82a.55.55,0,0,1-.39-.67.57.57,0,0,1,.17-.28l2.2-2v-.18l.1.16a6.09,6.09,0,0,1,.86,3.73Zm-.91-3.67-2.18,2a.64.64,0,0,0-.14.22.45.45,0,0,0,.05.34.47.47,0,0,0,.27.21l2.81.8A6.07,6.07,0,0,0,417.27,10.71ZM406.4,14.37v-.06a6,6,0,0,1,.85-3.74l.05,0,0,0,2.24,2a.55.55,0,0,1,.06.78.49.49,0,0,1-.28.17Zm.89-3.66a5.86,5.86,0,0,0-.8,3.52l2.81-.8a.37.37,0,0,0,.22-.14.44.44,0,0,0,0-.63Zm3.59.72a.6.6,0,0,1-.29-.08l-2.51-1.84.05,0A5.85,5.85,0,0,1,411,8l.6-.1v0h.06V8l-.17,2.92a.56.56,0,0,1-.31.48A.54.54,0,0,1,410.88,11.43ZM408.25,9.5l2.4,1.76a.49.49,0,0,0,.71-.39l.17-2.9-.53.09A5.81,5.81,0,0,0,408.25,9.5Zm5.42,1.9a.69.69,0,0,1-.24-.05.62.62,0,0,1-.32-.5l-.16-3H413a6.05,6.05,0,0,1,3.44,1.65l0,0L414,11.28A.57.57,0,0,1,413.67,11.4Zm-.6-3.47.15,2.92a.49.49,0,0,0,.26.4.44.44,0,0,0,.47-.06l2.37-1.68A6,6,0,0,0,413.07,7.93Z"/><g class="cls-10"><rect x="224.03" y="170.61" width="530.71" height="0.5"/><rect x="754.29" y="126.98" width="0.5" height="44.13"/><rect x="677.1" y="126.98" width="0.5" height="43.93"/><rect x="599.59" y="126.98" width="0.5" height="43.93"/><rect x="475.26" y="126.98" width="0.5" height="44.02"/><rect x="398.08" y="126.98" width="0.5" height="44.02"/><rect x="320.57" y="126.98" width="0.5" height="44.1"/><rect x="224.03" y="126.02" width="0.5" height="45.03"/></g><path class="cls-2" d="M363.16,189.94l.48-.92a4,4,0,0,0,2.23.66c1.07,0,1.51-.32,1.51-.86,0-1.43-4-.19-4-2.73,0-1.14,1-1.91,2.66-1.91a4.62,4.62,0,0,1,2.31.58l-.49.91a3.34,3.34,0,0,0-1.84-.5c-1,0-1.5.37-1.5.88,0,1.5,4,.27,4,2.75,0,1.15-1.06,1.88-2.75,1.88A4.59,4.59,0,0,1,363.16,189.94Z"/><path class="cls-2" d="M371.28,183.69v.56h1.84v.94H371.3v5.42h-1.15v-5.42h-1.08v-.94h1.08v-.57a1.91,1.91,0,0,1,2.1-2.05,2.14,2.14,0,0,1,1.29.37l-.34.88a1.51,1.51,0,0,0-.89-.3C371.62,182.58,371.28,183,371.28,183.69Z"/><path class="cls-2" d="M381.17,185.13c0,1.83-1.32,2.93-3.51,2.93h-2.07v2.55h-1.2V182.2h3.27C379.85,182.2,381.17,183.31,381.17,185.13Zm-1.2,0c0-1.2-.81-1.88-2.34-1.88h-2V187h2C379.16,187,380,186.33,380,185.13Z"/><path class="cls-2" d="M382.16,187.43a3.31,3.31,0,1,1,3.31,3.25A3.17,3.17,0,0,1,382.16,187.43Zm5.45,0a2.15,2.15,0,1,0-2.14,2.24A2.09,2.09,0,0,0,387.61,187.43Z"/><path class="cls-2" d="M396.37,181.7v8.91h-1.1v-1a2.69,2.69,0,0,1-2.27,1.08,3.25,3.25,0,0,1,0-6.5,2.7,2.7,0,0,1,2.22,1V181.7Zm-1.14,5.73a2.14,2.14,0,1,0-2.13,2.24A2.09,2.09,0,0,0,395.23,187.43Z"/><path class="cls-2" d="M401.2,187.43a3.19,3.19,0,0,1,3.37-3.25,2.83,2.83,0,0,1,2.59,1.36l-.88.57a2,2,0,0,0-1.73-.92,2.24,2.24,0,0,0,0,4.48,2,2,0,0,0,1.73-.91l.88.55a2.84,2.84,0,0,1-2.59,1.37A3.19,3.19,0,0,1,401.2,187.43Z"/><path class="cls-2" d="M408,187.43a3.31,3.31,0,1,1,3.32,3.25A3.18,3.18,0,0,1,408,187.43Zm5.46,0a2.15,2.15,0,1,0-2.14,2.24A2.1,2.1,0,0,0,413.42,187.43Z"/><path class="cls-2" d="M416.18,181.7h1.15v8.91h-1.15Z"/><path class="cls-2" d="M419.53,181.7h1.15v8.91h-1.15Z"/><path class="cls-2" d="M428.61,187.81h-5.16a2.14,2.14,0,0,0,2.3,1.86,2.38,2.38,0,0,0,1.84-.77l.63.75a3.47,3.47,0,0,1-5.93-2.22,3.12,3.12,0,0,1,3.2-3.25,3.07,3.07,0,0,1,3.14,3.28C428.63,187.56,428.62,187.7,428.61,187.81Zm-5.16-.83h4.08a2.05,2.05,0,0,0-4.08,0Z"/><path class="cls-2" d="M429.64,187.43a3.19,3.19,0,0,1,3.36-3.25,2.84,2.84,0,0,1,2.6,1.36l-.88.57a2,2,0,0,0-1.73-.92,2.24,2.24,0,0,0,0,4.48,2,2,0,0,0,1.73-.91l.88.55a2.85,2.85,0,0,1-2.6,1.37A3.19,3.19,0,0,1,429.64,187.43Z"/><path class="cls-2" d="M440.75,190.24a2.18,2.18,0,0,1-1.39.44,1.82,1.82,0,0,1-2-2v-3.5h-1.08v-.94h1.08v-1.4h1.15v1.4h1.83v.94h-1.83v3.45a.94.94,0,0,0,1,1.07,1.45,1.45,0,0,0,.9-.3Z"/><path class="cls-2" d="M441.34,189.94l.48-.92a4.05,4.05,0,0,0,2.23.66c1.07,0,1.52-.32,1.52-.86,0-1.43-4-.19-4-2.73,0-1.14,1-1.91,2.66-1.91a4.66,4.66,0,0,1,2.32.58l-.5.91a3.31,3.31,0,0,0-1.83-.5c-1,0-1.51.37-1.51.88,0,1.5,4,.27,4,2.75,0,1.15-1.06,1.88-2.75,1.88A4.59,4.59,0,0,1,441.34,189.94Z"/><path class="cls-2" d="M450.8,187.43a3.19,3.19,0,0,1,3.37-3.25,2.84,2.84,0,0,1,2.59,1.36l-.88.57a2,2,0,0,0-1.73-.92,2.24,2.24,0,0,0,0,4.48,2,2,0,0,0,1.73-.91l.88.55a2.85,2.85,0,0,1-2.59,1.37A3.19,3.19,0,0,1,450.8,187.43Z"/><path class="cls-2" d="M458.16,181.7h1.16v8.91h-1.16Z"/><path class="cls-2" d="M467.45,184.25v6.36h-1.09v-1a2.61,2.61,0,0,1-2.17,1,2.5,2.5,0,0,1-2.73-2.77v-3.66h1.15v3.53c0,1.24.62,1.87,1.72,1.87a1.87,1.87,0,0,0,2-2.11v-3.29Z"/><path class="cls-2" d="M468.84,189.94l.48-.92a4.06,4.06,0,0,0,2.24.66c1.06,0,1.51-.32,1.51-.86,0-1.43-4-.19-4-2.73,0-1.14,1-1.91,2.65-1.91a4.66,4.66,0,0,1,2.32.58l-.49.91a3.36,3.36,0,0,0-1.84-.5c-1,0-1.5.37-1.5.88,0,1.5,4,.27,4,2.75,0,1.15-1.06,1.88-2.75,1.88A4.59,4.59,0,0,1,468.84,189.94Z"/><path class="cls-2" d="M479.24,190.24a2.16,2.16,0,0,1-1.39.44,1.82,1.82,0,0,1-2-2v-3.5h-1.08v-.94h1.08v-1.4H477v1.4h1.83v.94H477v3.45a.94.94,0,0,0,1,1.07,1.45,1.45,0,0,0,.9-.3Z"/><path class="cls-2" d="M486.15,187.81H481a2.16,2.16,0,0,0,2.31,1.86,2.38,2.38,0,0,0,1.84-.77l.63.75a3.47,3.47,0,0,1-5.93-2.22,3.12,3.12,0,0,1,3.19-3.25,3.08,3.08,0,0,1,3.15,3.28C486.17,187.56,486.16,187.7,486.15,187.81ZM481,187h4.09a2.06,2.06,0,0,0-4.09,0Z"/><path class="cls-2" d="M491.19,184.18v1.12h-.26a1.9,1.9,0,0,0-2,2.15v3.17h-1.15v-6.36h1.1v1.06A2.44,2.44,0,0,1,491.19,184.18Z"/><path class="cls-2" d="M506.49,187v3.66h-1.15v-3.53c0-1.25-.6-1.86-1.65-1.86a1.85,1.85,0,0,0-1.91,2.11v3.28h-1.15v-3.53c0-1.25-.6-1.86-1.64-1.86a1.84,1.84,0,0,0-1.91,2.11v3.28h-1.16v-6.36H497v.94a2.56,2.56,0,0,1,2.2-1,2.35,2.35,0,0,1,2.2,1.18,2.87,2.87,0,0,1,2.45-1.18A2.45,2.45,0,0,1,506.49,187Z"/><path class="cls-2" d="M514.38,187.81h-5.16a2.14,2.14,0,0,0,2.3,1.86,2.37,2.37,0,0,0,1.84-.77l.64.75a3.48,3.48,0,0,1-5.94-2.22,3.12,3.12,0,0,1,3.2-3.25,3.08,3.08,0,0,1,3.15,3.28C514.41,187.56,514.39,187.7,514.38,187.81Zm-5.16-.83h4.08a2.05,2.05,0,0,0-4.08,0Z"/><path class="cls-2" d="M519.58,190.24a2.18,2.18,0,0,1-1.39.44,1.82,1.82,0,0,1-2-2v-3.5h-1.08v-.94h1.08v-1.4h1.15v1.4h1.83v.94h-1.83v3.45a.94.94,0,0,0,1,1.07,1.45,1.45,0,0,0,.9-.3Z"/><path class="cls-2" d="M524.4,184.18v1.12h-.27a1.9,1.9,0,0,0-2,2.15v3.17H521v-6.36h1.11v1.06A2.44,2.44,0,0,1,524.4,184.18Z"/><path class="cls-2" d="M525.61,182.28a.76.76,0,0,1,.78-.76.75.75,0,0,1,.78.73.78.78,0,0,1-1.56,0Zm.2,2H527v6.36h-1.16Z"/><path class="cls-2" d="M528.58,187.43a3.18,3.18,0,0,1,3.36-3.25,2.83,2.83,0,0,1,2.59,1.36l-.87.57a2,2,0,0,0-1.73-.92,2.24,2.24,0,0,0,0,4.48,2,2,0,0,0,1.73-.91l.87.55a2.84,2.84,0,0,1-2.59,1.37A3.19,3.19,0,0,1,528.58,187.43Z"/><path class="cls-2" d="M535.22,189.94l.48-.92a4,4,0,0,0,2.23.66c1.07,0,1.52-.32,1.52-.86,0-1.43-4-.19-4-2.73,0-1.14,1-1.91,2.66-1.91a4.62,4.62,0,0,1,2.31.58l-.49.91a3.32,3.32,0,0,0-1.84-.5c-1,0-1.5.37-1.5.88,0,1.5,4,.27,4,2.75,0,1.15-1.06,1.88-2.75,1.88A4.59,4.59,0,0,1,535.22,189.94Z"/><path class="cls-2" d="M550.9,184.25l-2.78,6.36h-1.18l-2.79-6.36h1.2l2.19,5.1,2.23-5.1Z"/><path class="cls-2" d="M551.78,182.28a.76.76,0,0,1,.78-.76.75.75,0,0,1,.78.73.78.78,0,0,1-1.56,0Zm.2,2h1.16v6.36H552Z"/><path class="cls-2" d="M560.38,186.77v3.84h-1.1v-.84a2.36,2.36,0,0,1-2.08.91c-1.45,0-2.36-.77-2.36-1.87s.66-1.86,2.56-1.86h1.82v-.23c0-1-.56-1.54-1.7-1.54a3.22,3.22,0,0,0-2,.69L555,185a4.23,4.23,0,0,1,2.63-.82C559.39,184.18,560.38,185,560.38,186.77Zm-1.16,1.89v-.88h-1.77c-1.14,0-1.47.44-1.47,1s.53,1,1.41,1A1.82,1.82,0,0,0,559.22,188.66Z"/><path class="cls-2" d="M568.22,187.64l-1.32,1.23v1.74h-1.15V181.7h1.15v5.71l3.47-3.16h1.39l-2.68,2.62,2.95,3.74h-1.42Z"/><path class="cls-2" d="M579,184.25v6.36h-1.1v-1a2.58,2.58,0,0,1-2.16,1,2.5,2.5,0,0,1-2.74-2.77v-3.66h1.16v3.53c0,1.24.62,1.87,1.71,1.87a1.88,1.88,0,0,0,2-2.11v-3.29Z"/><path class="cls-2" d="M587.75,187.43a3.1,3.1,0,0,1-3.22,3.25,2.69,2.69,0,0,1-2.27-1.08v1h-1.11V181.7h1.16v3.51a2.7,2.7,0,0,1,2.22-1A3.09,3.09,0,0,1,587.75,187.43Zm-1.17,0a2.15,2.15,0,1,0-2.15,2.24A2.1,2.1,0,0,0,586.58,187.43Z"/><path class="cls-2" d="M595.07,187.81h-5.16a2.15,2.15,0,0,0,2.31,1.86,2.36,2.36,0,0,0,1.83-.77l.64.75a3.47,3.47,0,0,1-5.93-2.22,3.12,3.12,0,0,1,3.19-3.25,3.08,3.08,0,0,1,3.15,3.28A2.16,2.16,0,0,1,595.07,187.81Zm-5.16-.83H594a2.05,2.05,0,0,0-4.08,0Z"/><path class="cls-2" d="M596.7,181.7h1.15v8.91H596.7Z"/><path class="cls-2" d="M605.77,187.81h-5.16a2.15,2.15,0,0,0,2.31,1.86,2.36,2.36,0,0,0,1.83-.77l.64.75a3.47,3.47,0,0,1-5.93-2.22,3.12,3.12,0,0,1,3.19-3.25,3.08,3.08,0,0,1,3.15,3.28A2.16,2.16,0,0,1,605.77,187.81Zm-5.16-.83h4.08a2.05,2.05,0,0,0-4.08,0Z"/><path class="cls-2" d="M611,190.24a2.14,2.14,0,0,1-1.39.44,1.82,1.82,0,0,1-2-2v-3.5h-1.08v-.94h1.08v-1.4h1.16v1.4h1.82v.94h-1.82v3.45a.94.94,0,0,0,1,1.07,1.45,1.45,0,0,0,.9-.3Z"/><path class="cls-2" d="M612,189.85a.79.79,0,0,1,.81-.81.79.79,0,0,1,.8.81.8.8,0,0,1-.8.83A.81.81,0,0,1,612,189.85Z"/><g class="cls-10"><path d="M128,121.54l4.92-2.43V124Z"/><rect x="132.03" y="121.24" width="19.71" height="0.5"/></g><rect class="cls-4" x="0.25" y="87.8" width="126.39" height="67.47" rx="3.5"/><path class="cls-8" d="M123.14,88.05a3.26,3.26,0,0,1,3.26,3.25v60.47a3.25,3.25,0,0,1-3.26,3.25H3.75A3.25,3.25,0,0,1,.5,151.77V91.3a3.26,3.26,0,0,1,3.25-3.25H123.14m0-.5H3.75A3.75,3.75,0,0,0,0,91.3v60.47a3.75,3.75,0,0,0,3.75,3.75H123.14a3.76,3.76,0,0,0,3.76-3.75V91.3a3.76,3.76,0,0,0-3.76-3.75Z"/><path class="cls-11" d="M76.36,110.6a5.21,5.21,0,0,1-3.88-2.16c-.44-.56-.56-1.3.37-1.3a14.9,14.9,0,0,0,8.34-2.4A8.46,8.46,0,0,1,76.35,108c-.49.15-1.29,0-1.36.71s.43,1,.83,1.29Z"/><path class="cls-12" d="M47.35,124.3c.67-1.6,1.89-2.92,2.25-4.67a.45.45,0,0,1,.47-.43.41.41,0,0,1,.31.14c1.82,1.55,4,1.29,6.16,1.29a8.34,8.34,0,0,1-4.63.62,2.06,2.06,0,0,0-2.12.81A7.58,7.58,0,0,1,47.35,124.3Z"/><path class="cls-12" d="M51.71,107.49a12.62,12.62,0,0,0,3.53,1.74,10.78,10.78,0,0,0-4.05,3.53l-.56-1.63c.2-.22.35-.48.56-.68.74-.64.74-1.29-.06-1.82Z"/><path class="cls-12" d="M49.12,116.63a13.57,13.57,0,0,1-2.18,3.73,1.3,1.3,0,0,1-1.77.48,1.49,1.49,0,0,1-.2-.15l3.13-4.82Z"/><path class="cls-12" d="M49.12,116.63l-1-.76a30.83,30.83,0,0,1,2.59-4.67l.5,1.56A28.77,28.77,0,0,1,49.12,116.63Z"/><path class="cls-12" d="M51.71,107.49l-.58,1.15c-1.43-1.59-1.3-3.14.29-4.37A4.89,4.89,0,0,0,51.71,107.49Z"/><path class="cls-12" d="M67,100.46a19.21,19.21,0,0,0-9.25-.63c-.93-.09-1.84.32-2.76,0-1.18.44-1.22.5-.66,1a36.52,36.52,0,0,1,5.82.23,36.52,36.52,0,0,0-5.82-.23,4.15,4.15,0,0,0,1.7.92,16.31,16.31,0,0,0,10,.55,2.07,2.07,0,0,0,1.29-.43,3.63,3.63,0,0,0,1.52-.31A3.23,3.23,0,0,0,67,100.46Z"/><path class="cls-13" d="M76.4,101.69a.94.94,0,1,1-1.87,0,.84.84,0,0,1,.82-.88h.07a.89.89,0,0,1,1,.82Z"/><path class="cls-12" d="M65.19,115.34a29.18,29.18,0,0,0,8.72-1.12,18,18,0,0,1,8-.44c-.17.4-.32.81-.49,1.21a18.85,18.85,0,0,0-9,1,1.57,1.57,0,0,0-1.54-.28l-6.66,1a2.8,2.8,0,0,0-1.52.56l-1.3-.3v-.73C62.75,116.12,64.21,116.52,65.19,115.34Z"/><path class="cls-12" d="M62.71,117.32a2.88,2.88,0,0,1,1.53-.56l6.65-1a1.56,1.56,0,0,1,1.54.27,31.17,31.17,0,0,1-5.84,1.75A8.81,8.81,0,0,1,62.71,117.32Z"/><path class="cls-12" d="M81.43,115c.17-.4.32-.82.49-1.22.88.43,2.12.38,2.33,1.72Z"/><path class="cls-12" d="M65.19,115.34c-1,1.2-2.49.8-3.8,1v-.78a3.92,3.92,0,0,0,2.06-.51Z"/><path class="cls-12" d="M63.52,115a3.86,3.86,0,0,1-2.05.51l-.58-2.26h0Z"/><path class="cls-14" d="M75.43,102.66c.61,0,.91-.35,1-1a.9.9,0,0,0-.91-.9h-.07a.84.84,0,0,0-.89.81v.07a.85.85,0,0,0,.74,1Z"/><path class="cls-7" d="M55.24,109.23a10.78,10.78,0,0,0-4.05,3.53,28.77,28.77,0,0,1-2.07,3.87,13.57,13.57,0,0,1-2.18,3.73,1.3,1.3,0,0,1-1.77.48,1.49,1.49,0,0,1-.2-.15,19.74,19.74,0,0,1-4,3.61c-.94.56-.66.93.15,1.29a5.91,5.91,0,0,0,6.2-1.17c.67-1.61,1.89-2.92,2.25-4.67a.45.45,0,0,1,.47-.43.44.44,0,0,1,.31.13c1.82,1.55,4,1.3,6.16,1.3a7.55,7.55,0,0,0,4.86-3.62v-1.52l-.58-2.26h0l2.59,1.78,1.78.21a29.18,29.18,0,0,0,8.72-1.12,18,18,0,0,1,8-.44c.88.42,2.12.37,2.33,1.72a3.72,3.72,0,0,1,.62.15c.44.09,1,.49,1.29,0s-.13-.88-.35-1.29a5.75,5.75,0,0,0-4.2-2.59,40.89,40.89,0,0,1-5.25-1.13,5.19,5.19,0,0,1-3.88-2.16c-.44-.56-.57-1.3.36-1.3a14.93,14.93,0,0,0,8.34-2.4c1.3-1.77,1.3-2.25-.33-3.79a13.33,13.33,0,0,0-5.54-3.09c-7-2.15-13.75-.94-20.28,2,.92.27,1.83-.14,2.77,0a19.18,19.18,0,0,1,9.24.6,3.28,3.28,0,0,1,1.84,1.21,6.36,6.36,0,0,1-2,3.27,11.11,11.11,0,0,1-7.17,2.58m15.81-6.8a.91.91,0,0,1,1,.83v.07a.94.94,0,0,1-1.88.15,1,1,0,0,1,0-.17.84.84,0,0,1,.84-.86h0Z"/><path class="cls-12" d="M59.61,107.58a15.38,15.38,0,0,1-3.88-.47,13.39,13.39,0,0,1-4.35-2.85,4.89,4.89,0,0,0,.29,3.22,12.6,12.6,0,0,0,3.53,1.73"/><path class="cls-12" d="M59.61,107.58h0a17.68,17.68,0,0,0-4.37,1.63,17.68,17.68,0,0,1,4.37-1.63"/><path d="M28.89,139.61a3,3,0,0,1-1.07,2.44,4.36,4.36,0,0,1-2.71.91,4.14,4.14,0,0,1-4.15-3l1.39-.61a2.42,2.42,0,0,0,.45,1,3,3,0,0,0,.6.72,1.92,1.92,0,0,0,.74.44,1.89,1.89,0,0,0,.88.13A2.54,2.54,0,0,0,26.7,141a1.71,1.71,0,0,0,.65-1.4,1.58,1.58,0,0,0-.53-1.24,4.55,4.55,0,0,0-1.92-.94c-1-.36-1.47-.57-1.77-.64a2.94,2.94,0,0,1-1.7-3.79,2.82,2.82,0,0,1,.84-1.2,3.81,3.81,0,0,1,2.56-.91,4,4,0,0,1,2.29.64,3.28,3.28,0,0,1,1.34,1.68l-1.39.6a2.1,2.1,0,0,0-2.15-1.52,2,2,0,0,0-1.46.53,1.44,1.44,0,0,0-.58,1.18,1.47,1.47,0,0,0,.46,1,7.64,7.64,0,0,0,2.28,1,5.36,5.36,0,0,1,2.52,1.44A3.55,3.55,0,0,1,28.89,139.61Z"/><path d="M30.41,134.88H31.8V136h.08a2.91,2.91,0,0,1,2.5-1.32,3,3,0,0,1,2.2.81,3.25,3.25,0,0,1,.81,2.35v5H35.92V138c0-1.33-.66-1.91-2-1.91a1.67,1.67,0,0,0-1.46.73,2.73,2.73,0,0,0-.59,1.69v4.41H30.41Z"/><path d="M42.16,134.59a3.46,3.46,0,0,1,2.57.88,3,3,0,0,1,1,2.42v4.85h-1.4v-1.1h-.07A2.84,2.84,0,0,1,41.8,143a3.22,3.22,0,0,1-2.21-.81,2.21,2.21,0,0,1-.88-1.83,2.37,2.37,0,0,1,1-2,3.88,3.88,0,0,1,2.49-.73,4.14,4.14,0,0,1,2.21.51v-.37a1.84,1.84,0,0,0-.59-1.32,2.13,2.13,0,0,0-1.47-.51,2.4,2.4,0,0,0-2,1L39,136.13A3.52,3.52,0,0,1,42.16,134.59Zm-1.91,5.73a1.09,1.09,0,0,0,.52,1,1.62,1.62,0,0,0,1.17.37,2.61,2.61,0,0,0,1.69-.66,2.07,2.07,0,0,0,.74-1.62,2.9,2.9,0,0,0-1.91-.51,2.74,2.74,0,0,0-1.55.44A1.27,1.27,0,0,0,40.25,140.32Z"/><path d="M51.57,143a3.94,3.94,0,0,1-1.62-.36,2.39,2.39,0,0,1-1.1-1h-.07l.07,1.1v3.46H47.38V134.88h1.4V136h.07A2.67,2.67,0,0,1,50,135a3.66,3.66,0,0,1,1.62-.37,3.46,3.46,0,0,1,2.64,1.25,4.67,4.67,0,0,1,0,6A3.89,3.89,0,0,1,51.57,143Zm-.22-1.32a2.18,2.18,0,0,0,1.76-.81,3.26,3.26,0,0,0,0-4.11,2.47,2.47,0,0,0-1.76-.81,2.51,2.51,0,0,0-1.84.81,3.17,3.17,0,0,0-.73,2.06,2.82,2.82,0,0,0,.73,2.05A2.48,2.48,0,0,0,51.35,141.71Z"/><path d="M60.75,143a3.94,3.94,0,0,1-1.62-.36,2.44,2.44,0,0,1-1.1-1H58l.07,1.1v3.46H56.56V134.88H58V136H58a2.8,2.8,0,0,1,1.1-.95,3.66,3.66,0,0,1,1.62-.37,3.49,3.49,0,0,1,2.65,1.25,4.67,4.67,0,0,1,0,6A3.93,3.93,0,0,1,60.75,143Zm-.29-1.32a2.18,2.18,0,0,0,1.76-.81,3.26,3.26,0,0,0,0-4.11,2.47,2.47,0,0,0-1.76-.81,2.51,2.51,0,0,0-1.84.81,3.17,3.17,0,0,0-.73,2.06,2.82,2.82,0,0,0,.73,2.05A2.48,2.48,0,0,0,60.46,141.71Z"/><path d="M72.65,134.88l-5,11.39H66.11l1.84-4-3.23-7.42h1.61l2.35,5.66h0L71,134.88Z"/><path class="cls-15" d="M75.81,138.11v5H74.34V131.5H81.1v1.4H75.81v3.82h4.78v1.39Z"/><path class="cls-15" d="M84,131.5v11.61H82.57V131.5Z"/><path class="cls-15" d="M85.36,139.14a4,4,0,0,1,1.18-3,4.26,4.26,0,0,1,5.88,0,4.11,4.11,0,0,1,1.17,3,4,4,0,0,1-1.17,3,3.84,3.84,0,0,1-2.94,1.18,3.91,3.91,0,0,1-2.94-1.18A4.08,4.08,0,0,1,85.36,139.14Zm1.47,0a2.76,2.76,0,0,0,.74,2.06,2.48,2.48,0,0,0,3.51.15l.16-.15a3.27,3.27,0,0,0,0-4.12,2.49,2.49,0,0,0-3.52-.15l-.15.15A2.76,2.76,0,0,0,86.83,139.14Z"/><path class="cls-15" d="M105.93,135.17l-2.57,7.94h-1.47l-2-6.1-2,6.1H96.46l-2.58-7.94h1.55l1.76,6h0l2-6h1.55l2,6h0l1.76-6Z"/></g></g></svg>