<svg xmlns="http://www.w3.org/2000/svg" width="825.25" height="249.46" viewBox="0 0 825.25 249.46"><defs><style>.cls-1{fill:#f7f7f7;}.cls-2{fill:#cccbcb;}.cls-3{fill:#66c5e2;}.cls-4{fill:#454546;}.cls-5{opacity:0.3;}.cls-6{fill:#fff;}.cls-7{isolation:isolate;}.cls-8{fill:#23b5e9;}.cls-9{opacity:0.5;}.cls-10{fill:#707171;}.cls-11{fill:#326ce5;}.cls-12{fill:#a0d6d4;}.cls-13{fill:#096a8f;}.cls-14{fill:#0b6977;}.cls-15{fill:none;}.cls-16{fill:#00ade1;}</style></defs><g id="Layer_2" data-name="Layer 2"><g id="Layer_1-2" data-name="Layer 1"><rect class="cls-1" x="0.36" y="59.95" width="126.39" height="67.47" rx="3.5"/><path class="cls-2" d="M123.25,60.2a3.26,3.26,0,0,1,3.26,3.25v60.47a3.26,3.26,0,0,1-3.26,3.25H3.87a3.26,3.26,0,0,1-3.26-3.25V63.45A3.26,3.26,0,0,1,3.87,60.2H123.25m0-.5H3.87A3.75,3.75,0,0,0,.11,63.45v60.47a3.75,3.75,0,0,0,3.76,3.75H123.25a3.75,3.75,0,0,0,3.76-3.75V63.45a3.75,3.75,0,0,0-3.76-3.75Z"/><path class="cls-3" d="M818.86,249.46h-7V249h7Zm-9.27,0h-6.9V249h6.9Zm-9.2,0h-6.91V249h6.91Zm-9.21,0h-6.9V249h6.9Zm-9.2,0h-6.9V249H782Zm-9.2,0h-6.9V249h6.9Zm-9.2,0h-6.9V249h6.9Zm-9.2,0h-6.9V249h6.9Zm-9.21,0h-6.9V249h6.9Zm-9.2,0h-6.9V249H736Zm-9.2,0h-6.9V249h6.9Zm-9.2,0h-6.9V249h6.9Zm-9.2,0h-6.9V249h6.9Zm-9.2,0h-6.91V249h6.91Zm-9.21,0h-6.9V249H690Zm-9.2,0h-6.9V249h6.9Zm-9.2,0h-6.9V249h6.9Zm-9.2,0h-6.9V249h6.9Zm-9.2,0h-6.91V249h6.91Zm-9.21,0h-6.9V249H644Zm-9.2,0h-6.9V249h6.9Zm-9.2,0h-6.9V249h6.9Zm-9.2,0h-6.9V249h6.9Zm-9.2,0h-6.9V249h6.9Zm-9.21,0H591V249h6.9Zm-9.2,0h-6.9V249h6.9Zm-9.2,0h-6.9V249h6.9Zm-9.2,0h-6.9V249h6.9Zm-9.2,0h-6.9V249h6.9Zm-9.2,0H545V249h6.91Zm-9.21,0h-6.9V249h6.9Zm-9.2,0h-6.9V249h6.9Zm-9.2,0h-6.9V249h6.9Zm-9.2,0h-6.9V249h6.9Zm-9.2,0H499V249h6.91Zm-9.2,0h-6.91V249h6.91Zm-9.21,0h-6.9V249h6.9Zm-9.2,0h-6.9V249h6.9Zm-9.2,0h-6.9V249h6.9Zm-9.2,0H453V249h6.9Zm-9.2,0h-6.91V249h6.91Zm-9.21,0h-6.9V249h6.9Zm-9.2,0h-6.9V249h6.9Zm-9.2,0h-6.9V249h6.9Zm-9.2,0H407V249h6.9Zm-9.2,0h-6.9V249h6.9Zm-9.21,0h-6.9V249h6.9Zm-9.2,0h-6.9V249h6.9Zm-9.2,0h-6.9V249h6.9Zm-9.2,0H361V249h6.9Zm-9.2,0h-6.9V249h6.9Zm-9.2,0h-6.91V249h6.91Zm-9.21,0h-6.9V249h6.9Zm-9.2,0h-6.9V249h6.9Zm-9.2,0H315V249h6.9Zm-9.2,0h-6.9V249h6.9Zm-9.2,0h-6.9V249h6.9Zm-9.21,0h-6.9V249h6.9Zm-9.2,0h-6.9V249h6.9Zm-9.2,0H269V249h6.9Zm-9.2,0h-6.9V249h6.9Zm-9.2,0h-6.9V249h6.9Zm-9.2,0h-6.91V249h6.91Zm-9.21,0h-6.9V249h6.9Zm-9.2,0H223V249h6.9Zm-9.2,0h-6.9V249h6.9Zm-9.2,0h-6.9V249h6.9Zm-9.2,0h-6.91V249h6.91Zm-9.2,0h-6.91V249h6.91Zm-9.21,0H177V249h6.9Zm-9.2,0h-6.9V249h6.9Zm-9.2,0h-6.9V249h6.9Zm-9.24-.38a6.51,6.51,0,0,1-4.22-5.36l.5-.06a6,6,0,0,0,3.89,5Zm665-.08-.19-.46a6,6,0,0,0,3.72-5.07l.5,0A6.51,6.51,0,0,1,821.2,249Zm-668.74-7.61H152v-6.9h.5Zm672.79-.2h-.5v-6.9h.5Zm-672.79-9H152v-6.9h.5Zm672.79-.2h-.5v-6.91h.5Zm-672.79-9H152v-6.9h.5Zm672.79-.21h-.5v-6.9h.5Zm-672.79-9H152v-6.9h.5Zm672.79-.21h-.5v-6.9h.5Zm-672.79-9H152v-6.91h.5Zm672.79-.21h-.5v-6.9h.5Zm-672.79-9H152v-6.9h.5Zm672.79-.2h-.5v-6.9h.5Zm-672.79-9H152v-6.9h.5Zm672.79-.2h-.5v-6.91h.5Zm-672.79-9H152v-6.9h.5Zm672.79-.21h-.5v-6.9h.5Zm-672.79-9H152v-6.9h.5Zm672.79-.21h-.5v-6.9h.5Zm-672.79-9H152v-6.91h.5Zm672.79-.21h-.5v-6.9h.5Zm-672.79-9H152v-6.9h.5Zm672.79-.2h-.5v-6.9h.5Zm-672.79-9H152v-6.9h.5Zm672.79-.2h-.5v-6.9h.5Zm-672.79-9H152v-6.9h.5Zm672.79-.21h-.5v-6.9h.5Zm-672.79-9H152v-6.9h.5Zm672.79-.21h-.5v-6.9h.5Zm-672.79-9H152v-6.9h.5Zm672.79-.21h-.5v-6.9h.5Zm-672.79-9H152V96.46h.5Zm672.79-.21h-.5v-6.9h.5Zm-672.79-9H152v-6.9h.5ZM825.25,94h-.5v-6.9h.5ZM152.46,85H152v-6.9h.5Zm672.79-.2h-.5V77.85h.5Zm-672.79-9H152v-6.9h.5Zm672.79-.21h-.5v-6.9h.5Zm-672.79-9H152v-6.9h.5Zm672.79-.21h-.5v-6.9h.5Zm-672.79-9H152V50.45h.5Zm672.79-.21h-.5v-6.9h.5Zm-672.79-9H152V44.07a6.29,6.29,0,0,1,.66-2.83l.45.22a5.89,5.89,0,0,0-.61,2.61ZM825.25,48h-.5V44.07a6,6,0,0,0-.69-2.79l.44-.23a6.46,6.46,0,0,1,.75,3ZM154.38,39.7l-.34-.37a6.41,6.41,0,0,1,4.38-1.72h2.27v.5h-2.27A5.94,5.94,0,0,0,154.38,39.7Zm668.31-.13a6,6,0,0,0-3.9-1.46h-2.47v-.5h2.47A6.47,6.47,0,0,1,823,39.19ZM814,38.11h-6.9v-.5H814Zm-9.2,0h-6.9v-.5h6.9Zm-9.2,0h-6.91v-.5h6.91Zm-9.21,0h-6.9v-.5h6.9Zm-9.2,0h-6.9v-.5h6.9Zm-9.2,0h-6.9v-.5H768Zm-9.2,0h-6.9v-.5h6.9Zm-9.2,0h-6.9v-.5h6.9Zm-9.21,0h-6.9v-.5h6.9Zm-9.2,0h-6.9v-.5h6.9Zm-9.2,0h-6.9v-.5H722Zm-9.2,0h-6.9v-.5h6.9Zm-9.2,0h-6.9v-.5h6.9Zm-9.2,0h-6.91v-.5h6.91Zm-9.21,0h-6.9v-.5h6.9Zm-9.2,0h-6.9v-.5H676Zm-9.2,0h-6.9v-.5h6.9Zm-9.2,0h-6.9v-.5h6.9Zm-9.2,0h-6.91v-.5h6.91Zm-9.2,0h-6.91v-.5h6.91Zm-9.21,0h-6.9v-.5H630Zm-9.2,0h-6.9v-.5h6.9Zm-9.2,0h-6.9v-.5h6.9Zm-9.2,0h-6.9v-.5h6.9Zm-9.2,0h-6.91v-.5h6.91Zm-9.21,0h-6.9v-.5H584Zm-9.2,0h-6.9v-.5h6.9Zm-9.2,0h-6.9v-.5h6.9Zm-9.2,0h-6.9v-.5h6.9Zm-9.2,0h-6.9v-.5h6.9Zm-9.2,0h-6.91v-.5H538Zm-9.21,0h-6.9v-.5h6.9Zm-9.2,0h-6.9v-.5h6.9Zm-9.2,0h-6.9v-.5h6.9Zm-9.2,0h-6.9v-.5h6.9Zm-9.2,0h-6.91v-.5H492Zm-9.21,0h-6.9v-.5h6.9Zm-9.2,0h-6.9v-.5h6.9Zm-9.2,0h-6.9v-.5h6.9Zm-9.2,0h-6.9v-.5h6.9Zm-9.2,0h-6.9v-.5H446Zm-9.21,0h-6.9v-.5h6.9Zm-9.2,0h-6.9v-.5h6.9Zm-9.2,0h-6.9v-.5h6.9Zm-9.2,0h-6.9v-.5h6.9Zm-9.2,0H393v-.5h6.9Zm-9.2,0h-6.91v-.5h6.91Zm-9.21,0h-6.9v-.5h6.9Zm-9.2,0h-6.9v-.5h6.9Zm-9.2,0h-6.9v-.5h6.9Zm-9.2,0H347v-.5h6.9Zm-9.2,0h-6.91v-.5h6.91Zm-9.21,0h-6.9v-.5h6.9Zm-9.2,0h-6.9v-.5h6.9Zm-9.2,0h-6.9v-.5h6.9Zm-9.2,0H301v-.5h6.9Zm-9.2,0h-6.9v-.5h6.9Zm-9.2,0h-6.91v-.5h6.91Zm-9.21,0h-6.9v-.5h6.9Zm-9.2,0h-6.9v-.5h6.9Zm-9.2,0H255v-.5h6.9Zm-9.2,0h-6.9v-.5h6.9Zm-9.2,0H236.6v-.5h6.91Zm-9.21,0h-6.9v-.5h6.9Zm-9.2,0h-6.9v-.5h6.9Zm-9.2,0H209v-.5h6.9Zm-9.2,0h-6.9v-.5h6.9Zm-9.2,0h-6.9v-.5h6.9Zm-9.21,0h-6.9v-.5h6.9Zm-9.2,0h-6.9v-.5h6.9Zm-9.2,0H163v-.5h6.9Z"/><path class="cls-4" d="M322.26,53.82v3.66h-1.15V54c0-1.25-.63-1.86-1.72-1.86a1.89,1.89,0,0,0-2,2.11v3.28h-1.15V51.12h1.1v1a2.74,2.74,0,0,1,2.3-1A2.46,2.46,0,0,1,322.26,53.82Z"/><path class="cls-4" d="M329.44,53.64v3.84h-1.09v-.84a2.34,2.34,0,0,1-2.09.91c-1.44,0-2.35-.77-2.35-1.87s.66-1.86,2.55-1.86h1.83v-.23c0-1-.56-1.54-1.71-1.54a3.21,3.21,0,0,0-2,.69l-.48-.87a4.23,4.23,0,0,1,2.63-.81C328.46,51.06,329.44,51.9,329.44,53.64Zm-1.15,1.9v-.89h-1.78c-1.14,0-1.46.44-1.46,1s.53,1,1.4,1A1.84,1.84,0,0,0,328.29,55.54Z"/><path class="cls-4" d="M342.15,53.82v3.66H341V54c0-1.25-.6-1.86-1.65-1.86a1.85,1.85,0,0,0-1.91,2.11v3.28h-1.15V54c0-1.25-.6-1.86-1.65-1.86a1.85,1.85,0,0,0-1.91,2.11v3.28h-1.15V51.12h1.11v.94a2.57,2.57,0,0,1,2.19-1,2.35,2.35,0,0,1,2.21,1.17,2.87,2.87,0,0,1,2.45-1.17A2.44,2.44,0,0,1,342.15,53.82Z"/><path class="cls-4" d="M350,54.68h-5.16a2.14,2.14,0,0,0,2.3,1.86,2.39,2.39,0,0,0,1.84-.76l.63.74a3.47,3.47,0,0,1-5.93-2.22,3.12,3.12,0,0,1,3.2-3.24,3.07,3.07,0,0,1,3.14,3.27C350.06,54.43,350.05,54.57,350,54.68Zm-5.16-.83H349a2.05,2.05,0,0,0-4.08,0Z"/><path class="cls-4" d="M350.86,56.81l.48-.91a4.11,4.11,0,0,0,2.23.66c1.07,0,1.51-.33,1.51-.87,0-1.43-4-.19-4-2.73,0-1.14,1-1.9,2.65-1.9a4.63,4.63,0,0,1,2.32.57l-.49.91a3.34,3.34,0,0,0-1.84-.5c-1,0-1.5.37-1.5.88,0,1.5,4,.27,4,2.75,0,1.15-1.06,1.88-2.75,1.88A4.57,4.57,0,0,1,350.86,56.81Z"/><path class="cls-4" d="M364.27,54.3a3.09,3.09,0,0,1-3.22,3.25,2.73,2.73,0,0,1-2.22-1v3.29h-1.15V51.12h1.1v1a2.71,2.71,0,0,1,2.27-1.07A3.09,3.09,0,0,1,364.27,54.3Zm-1.16,0A2.15,2.15,0,1,0,361,56.54,2.11,2.11,0,0,0,363.11,54.3Z"/><path class="cls-4" d="M370.85,53.64v3.84h-1.09v-.84a2.36,2.36,0,0,1-2.09.91c-1.44,0-2.35-.77-2.35-1.87s.66-1.86,2.55-1.86h1.83v-.23c0-1-.57-1.54-1.71-1.54a3.21,3.21,0,0,0-2,.69l-.48-.87a4.23,4.23,0,0,1,2.63-.81C369.87,51.06,370.85,51.9,370.85,53.64Zm-1.15,1.9v-.89h-1.78c-1.14,0-1.46.44-1.46,1s.52,1,1.4,1A1.84,1.84,0,0,0,369.7,55.54Z"/><path class="cls-4" d="M372.44,54.3a3.17,3.17,0,0,1,3.36-3.24,2.82,2.82,0,0,1,2.59,1.35l-.87.57a2,2,0,0,0-1.73-.92,2.24,2.24,0,0,0,0,4.48,2,2,0,0,0,1.73-.91l.87.55a2.84,2.84,0,0,1-2.59,1.37A3.18,3.18,0,0,1,372.44,54.3Z"/><path class="cls-4" d="M385.52,54.68h-5.17a2.16,2.16,0,0,0,2.31,1.86,2.37,2.37,0,0,0,1.83-.76l.64.74a3.47,3.47,0,0,1-5.93-2.22,3.11,3.11,0,0,1,3.19-3.24,3.07,3.07,0,0,1,3.15,3.27C385.54,54.43,385.53,54.57,385.52,54.68Zm-5.17-.83h4.08a2.05,2.05,0,0,0-4.08,0Z"/><path class="cls-4" d="M388.9,49.07v8.41h-1.19V50.12h-1.89v-1Z"/><g class="cls-5"><rect class="cls-1" x="172.61" y="68.37" width="354.02" height="119.5" rx="3.91"/><path d="M522.72,68.37h-5v.5h5v-.5Zm-7,0h-5v.5h5v-.5Zm-7,0h-5v.5h5v-.5Zm-7,0h-5v.5h5v-.5Zm-7,0h-5v.5h5v-.5Zm-7,0h-5v.5h5v-.5Zm-7,0h-5v.5h5v-.5Zm-7,0h-5v.5h5v-.5Zm-7,0h-5v.5h5v-.5Zm-7,0h-5v.5h5v-.5Zm-7,0h-5v.5h5v-.5Zm-7,0h-5v.5h5v-.5Zm-7,0h-5v.5h5v-.5Zm-7,0h-5v.5h5v-.5Zm-7,0h-5v.5h5v-.5Zm-7,0h-5v.5h5v-.5Zm-7,0h-5v.5h5v-.5Zm-7,0h-5v.5h5v-.5Zm-7,0h-5v.5h5v-.5Zm-7,0h-5v.5h5v-.5Zm-7,0h-5v.5h5v-.5Zm-7,0h-5v.5h5v-.5Zm-7,0h-5v.5h5v-.5Zm-7,0h-5v.5h5v-.5Zm-7,0h-5v.5h5v-.5Zm-7,0h-5v.5h5v-.5Zm-7,0h-5v.5h5v-.5Zm-7,0h-5v.5h5v-.5Zm-7,0h-5v.5h5v-.5Zm-7,0h-5v.5h5v-.5Zm-7,0h-5v.5h5v-.5Zm-7,0h-5v.5h5v-.5Zm-7,0h-5v.5h5v-.5Zm-7,0h-5v.5h5v-.5Zm-7,0h-5v.5h5v-.5Zm-7,0h-5v.5h5v-.5Zm-7,0h-5v.5h5v-.5Zm-7,0h-5v.5h5v-.5Zm-7,0h-5v.5h5v-.5Zm-7,0h-5v.5h5v-.5Zm-7,0h-5v.5h5v-.5Zm-7,0h-5v.5h5v-.5Zm-7,0h-5v.5h5v-.5Zm-7,0h-5v.5h5v-.5Zm-7,0h-5v.5h5v-.5Zm-7,0h-5v.5h5v-.5Zm-7,0h-5v.5h5v-.5Zm-7,0h-5v.5h5v-.5Zm-7,0h-5v.5h5v-.5Zm-7,0H175.4l-.17.06h-.45l.23.45a3.25,3.25,0,0,1,1.5-.36h3.21v-.5Zm-6.43,1.7h0v0h0v0h-.07v0h0v0h0l0,0h0a3.91,3.91,0,0,0-.48,1.34h0v0h0v0h0v0h0v0h0v0h0v0h0v0h0v0h0v0h0v0h0v2.66h.5V72.28a3.35,3.35,0,0,1,.59-1.92l-.41-.29Zm-.18,6.87h-.5v5h.5v-5Zm0,7h-.5v5h.5v-5Zm0,7h-.5v5h.5v-5Zm0,7h-.5v5h.5v-5Zm0,7h-.5v5h.5v-5Zm0,7h-.5v5h.5v-5Zm0,7h-.5v5h.5v-5Zm0,7h-.5v5h.5v-5Zm0,7h-.5v5h.5v-5Zm0,7h-.5v5h.5v-5Zm0,7h-.5v5h.5v-5Zm0,7h-.5v5h.5v-5Zm0,7h-.5v5h.5v-5Zm0,7h-.5v5h.5v-5Zm0,7h-.5v5h.5v-5Zm0,7h-.5v2h0v0h0v0h0a.5.5,0,0,0,0,.12h0v0h0a3.84,3.84,0,0,0,1,1.78l.36-.35a3.37,3.37,0,0,1-.93-2.34v-2Zm2.39,5.29-.14.47a3.37,3.37,0,0,0,.48.12h4.5v-.5h-3.83a3.48,3.48,0,0,1-1-.15Zm11.84.15h-5v.5h5v-.5Zm7,0h-5v.5h5v-.5Zm7,0h-5v.5h5v-.5Zm7,0h-5v.5h5v-.5Zm7,0h-5v.5h5v-.5Zm7,0h-5v.5h5v-.5Zm7,0h-5v.5h5v-.5Zm7,0h-5v.5h5v-.5Zm7,0h-5v.5h5v-.5Zm7,0h-5v.5h5v-.5Zm7,0h-5v.5h5v-.5Zm7,0h-5v.5h5v-.5Zm7,0h-5v.5h5v-.5Zm7,0h-5v.5h5v-.5Zm7,0h-5v.5h5v-.5Zm7,0h-5v.5h5v-.5Zm7,0h-5v.5h5v-.5Zm7,0h-5v.5h5v-.5Zm7,0h-5v.5h5v-.5Zm7,0h-5v.5h5v-.5Zm7,0h-5v.5h5v-.5Zm7,0h-5v.5h5v-.5Zm7,0h-5v.5h5v-.5Zm7,0h-5v.5h5v-.5Zm7,0h-5v.5h5v-.5Zm7,0h-5v.5h5v-.5Zm7,0h-5v.5h5v-.5Zm7,0h-5v.5h5v-.5Zm7,0h-5v.5h5v-.5Zm7,0h-5v.5h5v-.5Zm7,0h-5v.5h5v-.5Zm7,0h-5v.5h5v-.5Zm7,0h-5v.5h5v-.5Zm7,0h-5v.5h5v-.5Zm7,0h-5v.5h5v-.5Zm7,0h-5v.5h5v-.5Zm7,0h-5v.5h5v-.5Zm7,0h-5v.5h5v-.5Zm7,0h-5v.5h5v-.5Zm7,0h-5v.5h5v-.5Zm7,0h-5v.5h5v-.5Zm7,0h-5v.5h5v-.5Zm7,0h-5v.5h5v-.5Zm7,0h-5v.5h5v-.5Zm7,0h-5v.5h5v-.5Zm7,0h-5v.5h5v-.5Zm7,0h-5v.5h5v-.5Zm7,0h-5v.5h5v-.5Zm6.92,0a4.9,4.9,0,0,1-.54,0h-4.38v.5h4.53l.34,0h.13l-.08-.49Zm3.37-4.85h-.5V184a3.38,3.38,0,0,1-1.29,2.67l.31.39a.75.75,0,0,0,.14-.12h0l0,0h.18a3.83,3.83,0,0,0,1-2h0v-.05h0v0h0v0h0v0h0v0h0v0h0v0h0v0h0v0h0v0h0v0h0v0h0v0h0v0h0v-1.48Zm0-7h-.5v5h.5v-5Zm0-7h-.5v5h.5v-5Zm0-7h-.5v5h.5v-5Zm0-7h-.5v5h.5v-5Zm0-7h-.5v5h.5v-5Zm0-7h-.5v5h.5v-5Zm0-7h-.5v5h.5v-5Zm0-7h-.5v5h.5v-5Zm0-7h-.5v5h.5v-5Zm0-7h-.5v5h.5v-5Zm0-7h-.5v5h.5v-5Zm0-7h-.5v5h.5v-5Zm0-7h-.5v5h.5v-5Zm0-7h-.5v5h.5v-5Zm0-7h-.5v5h.5v-5Zm-.4-6.94-.45.23a3.37,3.37,0,0,1,.35,1.5v3.21h.5V72.28h0v0h0v0h0v0h0v0h0v0h-.12v0h0v0h0a6.44,6.44,0,0,0-.24-.61Zm-3.51-2.18v.5a3.41,3.41,0,0,1,1.93.6l.28-.41a3.44,3.44,0,0,0-.83-.43h0l0,0h-1.35Z"/></g><rect class="cls-6" x="185.71" y="111.66" width="77.37" height="32.93" rx="2.11"/><path class="cls-3" d="M261,111.91a1.86,1.86,0,0,1,1.86,1.86v28.71a1.86,1.86,0,0,1-1.86,1.86H187.82a1.87,1.87,0,0,1-1.86-1.86V113.77a1.87,1.87,0,0,1,1.86-1.86H261m0-.5H187.82a2.36,2.36,0,0,0-2.36,2.36v28.71a2.36,2.36,0,0,0,2.36,2.36H261a2.36,2.36,0,0,0,2.36-2.36V113.77a2.36,2.36,0,0,0-2.36-2.36Z"/><g class="cls-7"><path class="cls-8" d="M209,131.32l.48-.92a4.05,4.05,0,0,0,2.23.66c1.07,0,1.52-.32,1.52-.86,0-1.43-4-.19-4-2.73,0-1.14,1-1.91,2.66-1.91a4.66,4.66,0,0,1,2.32.58l-.5.91a3.31,3.31,0,0,0-1.83-.5c-1,0-1.5.37-1.5.87,0,1.51,4,.28,4,2.75,0,1.16-1.06,1.89-2.75,1.89A4.59,4.59,0,0,1,209,131.32Z"/><path class="cls-8" d="M217.13,125.07v.55H219v.95h-1.83V132H216v-5.42h-1.08v-.95H216v-.56a1.91,1.91,0,0,1,2.1-2,2.19,2.19,0,0,1,1.3.37l-.35.87a1.49,1.49,0,0,0-.89-.3C217.48,124,217.13,124.34,217.13,125.07Z"/><path class="cls-8" d="M227,126.51c0,1.83-1.32,2.93-3.5,2.93h-2.08V132h-1.2v-8.41h3.28C225.7,123.58,227,124.69,227,126.51Zm-1.2,0c0-1.2-.8-1.88-2.34-1.88h-2v3.77h2C225,128.4,225.82,127.71,225.82,126.51Z"/><path class="cls-8" d="M228,128.81a3.31,3.31,0,1,1,3.31,3.25A3.17,3.17,0,0,1,228,128.81Zm5.45,0a2.15,2.15,0,1,0-2.14,2.24A2.09,2.09,0,0,0,233.46,128.81Z"/><path class="cls-8" d="M242.23,123.08V132h-1.11v-1a2.68,2.68,0,0,1-2.27,1.08,3.25,3.25,0,0,1,0-6.5,2.74,2.74,0,0,1,2.23,1v-3.5Zm-1.14,5.73a2.15,2.15,0,1,0-2.14,2.24A2.1,2.1,0,0,0,241.09,128.81Z"/></g><g class="cls-9"><path d="M64.42,182.22,62,177.3h4.87Z"/><rect x="64.31" y="134.68" width="0.5" height="42.98"/><path d="M64.54,130.05,62.11,135H67Z"/></g><rect class="cls-6" x="279.66" y="83.46" width="110.46" height="90.07" rx="2.57"/><path class="cls-2" d="M387.55,173.78H282.23a2.83,2.83,0,0,1-2.82-2.82V86a2.82,2.82,0,0,1,2.82-2.81H387.55A2.82,2.82,0,0,1,390.37,86V171A2.83,2.83,0,0,1,387.55,173.78ZM282.23,83.71A2.32,2.32,0,0,0,279.91,86V171a2.32,2.32,0,0,0,2.32,2.32H387.55a2.32,2.32,0,0,0,2.32-2.32V86a2.32,2.32,0,0,0-2.32-2.31Z"/><path class="cls-4" d="M327,96.12c0,1.83-1.32,2.93-3.5,2.93h-2.08v2.55h-1.2V93.19h3.28C325.71,93.19,327,94.3,327,96.12Zm-1.2,0c0-1.2-.8-1.88-2.34-1.88h-2V98h2C325,98,325.83,97.32,325.83,96.12Z"/><path class="cls-4" d="M328,98.42a3.31,3.31,0,1,1,3.31,3.25A3.17,3.17,0,0,1,328,98.42Zm5.45,0a2.15,2.15,0,1,0-2.14,2.24A2.09,2.09,0,0,0,333.47,98.42Z"/><path class="cls-4" d="M342.24,92.69v8.91h-1.11v-1a2.68,2.68,0,0,1-2.27,1.08,3.25,3.25,0,0,1,0-6.5,2.71,2.71,0,0,1,2.22,1v-3.5Zm-1.14,5.73a2.15,2.15,0,1,0-2.14,2.24A2.1,2.1,0,0,0,341.1,98.42Z"/><path class="cls-4" d="M349.74,93.19v8.41h-1.19V94.24h-1.89v-1Z"/><rect class="cls-6" x="400.31" y="83.46" width="110.46" height="90.07" rx="2.57"/><path class="cls-2" d="M508.2,173.78H402.88a2.83,2.83,0,0,1-2.82-2.82V86a2.82,2.82,0,0,1,2.82-2.81H508.2A2.82,2.82,0,0,1,511,86V171A2.83,2.83,0,0,1,508.2,173.78ZM402.88,83.71A2.32,2.32,0,0,0,400.56,86V171a2.32,2.32,0,0,0,2.32,2.32H508.2a2.32,2.32,0,0,0,2.32-2.32V86a2.32,2.32,0,0,0-2.32-2.31Z"/><rect class="cls-6" x="412.5" y="113.36" width="87.61" height="45.76" rx="2.36"/><path class="cls-2" d="M497.74,159.37H414.86a2.62,2.62,0,0,1-2.62-2.61v-41a2.63,2.63,0,0,1,2.62-2.61h82.88a2.62,2.62,0,0,1,2.61,2.61v41A2.61,2.61,0,0,1,497.74,159.37Zm-82.88-45.76a2.12,2.12,0,0,0-2.12,2.11v41a2.11,2.11,0,0,0,2.12,2.11h82.88a2.11,2.11,0,0,0,2.11-2.11v-41a2.12,2.12,0,0,0-2.11-2.11Z"/><g class="cls-7"><path class="cls-10" d="M438.76,131c0,1.44-1.09,2.27-3.22,2.27h-4v-8.41h3.77c1.93,0,3,.82,3,2.17a2,2,0,0,1-1.12,1.88A2,2,0,0,1,438.76,131Zm-6-5.17v2.69h2.46c1.23,0,1.92-.45,1.92-1.34s-.69-1.35-1.92-1.35Zm4.82,5.07c0-1-.73-1.4-2.06-1.4h-2.76v2.79h2.76C436.82,132.31,437.55,131.89,437.55,130.92Z"/><path class="cls-10" d="M446.38,126.92v6.37h-1.09v-1a2.59,2.59,0,0,1-2.16,1,2.5,2.5,0,0,1-2.74-2.78v-3.66h1.15v3.53c0,1.25.63,1.88,1.72,1.88a1.88,1.88,0,0,0,2-2.12v-3.29Z"/><path class="cls-10" d="M447.78,132.61l.48-.91a4,4,0,0,0,2.23.66c1.07,0,1.52-.32,1.52-.86,0-1.43-4-.2-4-2.73,0-1.14,1-1.91,2.66-1.91a4.62,4.62,0,0,1,2.31.58l-.49.91a3.32,3.32,0,0,0-1.84-.5c-1,0-1.5.37-1.5.87,0,1.5,4,.28,4,2.75,0,1.16-1.06,1.89-2.75,1.89A4.59,4.59,0,0,1,447.78,132.61Z"/><path class="cls-10" d="M460.11,126.92l-3.09,7c-.56,1.35-1.29,1.77-2.26,1.77a2.42,2.42,0,0,1-1.64-.59l.49-.87a1.61,1.61,0,0,0,1.15.47c.55,0,.9-.25,1.21-1l.2-.45-2.81-6.35h1.2l2.22,5.09,2.2-5.09Z"/><path class="cls-10" d="M467.79,130.1a3.1,3.1,0,0,1-3.22,3.26,2.68,2.68,0,0,1-2.27-1.08v1h-1.11v-8.91h1.16v3.5a2.71,2.71,0,0,1,2.22-1A3.09,3.09,0,0,1,467.79,130.1Zm-1.17,0a2.15,2.15,0,1,0-2.15,2.25A2.1,2.1,0,0,0,466.62,130.1Z"/><path class="cls-10" d="M468.79,130.1a3.31,3.31,0,1,1,3.32,3.26A3.17,3.17,0,0,1,468.79,130.1Zm5.46,0a2.15,2.15,0,1,0-2.14,2.25A2.09,2.09,0,0,0,474.25,130.1Z"/><path class="cls-10" d="M480.85,133.29,479,130.85l-1.87,2.44h-1.28l2.51-3.26L476,126.92h1.28l1.76,2.29,1.74-2.29H482l-2.4,3.11,2.53,3.26Z"/><path class="cls-10" d="M426.77,143.5a4.24,4.24,0,0,1,4.45-4.3,4.17,4.17,0,0,1,3.2,1.3l-.78.76a3.24,3.24,0,1,0,0,4.46l.78.75a4.16,4.16,0,0,1-3.21,1.32A4.24,4.24,0,0,1,426.77,143.5Z"/><path class="cls-10" d="M435.11,144.52a3.31,3.31,0,1,1,3.32,3.25A3.18,3.18,0,0,1,435.11,144.52Zm5.46,0a2.15,2.15,0,1,0-2.14,2.24A2.1,2.1,0,0,0,440.57,144.52Z"/><path class="cls-10" d="M449.37,144v3.66h-1.15v-3.53c0-1.25-.63-1.86-1.72-1.86a1.89,1.89,0,0,0-2,2.11v3.28h-1.15v-6.37h1.1v1a2.76,2.76,0,0,1,2.3-1A2.47,2.47,0,0,1,449.37,144Z"/><path class="cls-10" d="M455.08,147.33a2.14,2.14,0,0,1-1.39.44,1.82,1.82,0,0,1-2-2v-3.5h-1.08v-.95h1.08v-1.39h1.16v1.39h1.82v.95h-1.82v3.45a.94.94,0,0,0,1,1.07,1.51,1.51,0,0,0,.91-.3Z"/><path class="cls-10" d="M461.52,143.86v3.84h-1.09v-.84a2.38,2.38,0,0,1-2.09.91c-1.44,0-2.35-.77-2.35-1.87s.66-1.86,2.55-1.86h1.83v-.23c0-1-.57-1.54-1.71-1.54a3.15,3.15,0,0,0-2,.69l-.48-.87a4.21,4.21,0,0,1,2.63-.82C460.54,141.27,461.52,142.11,461.52,143.86Zm-1.15,1.89v-.89h-1.78c-1.14,0-1.46.45-1.46,1s.52,1,1.4,1A1.84,1.84,0,0,0,460.37,145.75Z"/><path class="cls-10" d="M463.46,139.36a.78.78,0,0,1,1.56,0,.76.76,0,0,1-.78.77A.75.75,0,0,1,463.46,139.36Zm.2,2h1.15v6.37h-1.15Z"/><path class="cls-10" d="M473.05,144v3.66H471.9v-3.53c0-1.25-.63-1.86-1.72-1.86a1.89,1.89,0,0,0-2,2.11v3.28H467v-6.37h1.1v1a2.76,2.76,0,0,1,2.3-1A2.47,2.47,0,0,1,473.05,144Z"/><path class="cls-10" d="M481,144.9h-5.16a2.15,2.15,0,0,0,2.31,1.86,2.36,2.36,0,0,0,1.83-.77l.64.75a3.47,3.47,0,0,1-5.93-2.22,3.12,3.12,0,0,1,3.19-3.25,3.07,3.07,0,0,1,3.15,3.28A2.16,2.16,0,0,1,481,144.9Zm-5.16-.83h4.08a2.05,2.05,0,0,0-4.08,0Z"/><path class="cls-10" d="M486,141.27v1.12h-.27a1.9,1.9,0,0,0-2,2.15v3.17h-1.16v-6.37h1.11v1.07A2.44,2.44,0,0,1,486,141.27Z"/></g><path class="cls-4" d="M447.68,96.12c0,1.83-1.32,2.93-3.5,2.93H442.1v2.55h-1.2V93.19h3.28C446.36,93.19,447.68,94.3,447.68,96.12Zm-1.2,0c0-1.2-.8-1.88-2.34-1.88h-2V98h2C445.68,98,446.48,97.32,446.48,96.12Z"/><path class="cls-4" d="M448.67,98.42a3.31,3.31,0,1,1,3.31,3.25A3.17,3.17,0,0,1,448.67,98.42Zm5.45,0a2.15,2.15,0,1,0-2.14,2.24A2.09,2.09,0,0,0,454.12,98.42Z"/><path class="cls-4" d="M462.89,92.69v8.91h-1.11v-1a2.68,2.68,0,0,1-2.27,1.08,3.25,3.25,0,0,1,0-6.5,2.71,2.71,0,0,1,2.22,1v-3.5Zm-1.14,5.73a2.15,2.15,0,1,0-2.14,2.24A2.1,2.1,0,0,0,461.75,98.42Z"/><path class="cls-4" d="M473.7,100.55v1h-6v-.82l3.42-3.3c.89-.87,1.06-1.39,1.06-1.92,0-.87-.62-1.4-1.79-1.4a2.61,2.61,0,0,0-2.15.92l-.82-.71a3.86,3.86,0,0,1,3.07-1.27c1.76,0,2.89.9,2.89,2.34A3.39,3.39,0,0,1,472,98.08l-2.56,2.47Z"/><rect class="cls-6" x="291.84" y="113.36" width="87.61" height="45.76" rx="2.36"/><path class="cls-2" d="M377.09,159.37H294.2a2.62,2.62,0,0,1-2.61-2.61v-41a2.62,2.62,0,0,1,2.61-2.61h82.89a2.62,2.62,0,0,1,2.61,2.61v41A2.61,2.61,0,0,1,377.09,159.37ZM294.2,113.61a2.12,2.12,0,0,0-2.11,2.11v41a2.11,2.11,0,0,0,2.11,2.11h82.89a2.11,2.11,0,0,0,2.11-2.11v-41a2.12,2.12,0,0,0-2.11-2.11Z"/><g class="cls-7"><path class="cls-10" d="M318.11,131c0,1.44-1.1,2.27-3.22,2.27h-4v-8.41h3.77c1.93,0,3,.82,3,2.17a2,2,0,0,1-1.13,1.88A2,2,0,0,1,318.11,131Zm-6-5.17v2.69h2.46c1.23,0,1.92-.45,1.92-1.34s-.69-1.35-1.92-1.35Zm4.81,5.07c0-1-.72-1.4-2.05-1.4h-2.76v2.79h2.76C316.17,132.31,316.89,131.89,316.89,130.92Z"/><path class="cls-10" d="M325.73,126.92v6.37h-1.09v-1a2.59,2.59,0,0,1-2.16,1,2.5,2.5,0,0,1-2.74-2.78v-3.66h1.15v3.53c0,1.25.63,1.88,1.72,1.88a1.88,1.88,0,0,0,2-2.12v-3.29Z"/><path class="cls-10" d="M327.13,132.61l.48-.91a4,4,0,0,0,2.23.66c1.07,0,1.51-.32,1.51-.86,0-1.43-4-.2-4-2.73,0-1.14,1-1.91,2.65-1.91a4.63,4.63,0,0,1,2.32.58l-.49.91a3.34,3.34,0,0,0-1.84-.5c-1,0-1.5.37-1.5.87,0,1.5,4,.28,4,2.75,0,1.16-1.06,1.89-2.75,1.89A4.57,4.57,0,0,1,327.13,132.61Z"/><path class="cls-10" d="M339.46,126.92l-3.09,7c-.56,1.35-1.29,1.77-2.27,1.77a2.41,2.41,0,0,1-1.63-.59l.49-.87a1.59,1.59,0,0,0,1.14.47c.56,0,.9-.25,1.22-1l.2-.45-2.81-6.35h1.2l2.22,5.09,2.2-5.09Z"/><path class="cls-10" d="M347.13,130.1a3.1,3.1,0,0,1-3.21,3.26,2.68,2.68,0,0,1-2.27-1.08v1h-1.11v-8.91h1.15v3.5a2.74,2.74,0,0,1,2.23-1A3.08,3.08,0,0,1,347.13,130.1Zm-1.16,0a2.15,2.15,0,1,0-2.15,2.25A2.1,2.1,0,0,0,346,130.1Z"/><path class="cls-10" d="M348.14,130.1a3.31,3.31,0,1,1,3.32,3.26A3.17,3.17,0,0,1,348.14,130.1Zm5.46,0a2.15,2.15,0,1,0-2.14,2.25A2.09,2.09,0,0,0,353.6,130.1Z"/><path class="cls-10" d="M360.2,133.29l-1.84-2.44-1.86,2.44h-1.28l2.51-3.26-2.39-3.11h1.28l1.76,2.29,1.74-2.29h1.26L359,130l2.53,3.26Z"/><path class="cls-10" d="M306.11,143.5a4.25,4.25,0,0,1,4.46-4.3,4.14,4.14,0,0,1,3.19,1.3l-.78.76a3.12,3.12,0,0,0-2.36-1,3.24,3.24,0,1,0,0,6.47,3.13,3.13,0,0,0,2.36-1l.78.75a4.12,4.12,0,0,1-3.2,1.32A4.25,4.25,0,0,1,306.11,143.5Z"/><path class="cls-10" d="M314.46,144.52a3.31,3.31,0,1,1,3.32,3.25A3.18,3.18,0,0,1,314.46,144.52Zm5.45,0a2.14,2.14,0,1,0-2.13,2.24A2.09,2.09,0,0,0,319.91,144.52Z"/><path class="cls-10" d="M328.72,144v3.66h-1.16v-3.53c0-1.25-.62-1.86-1.71-1.86a1.89,1.89,0,0,0-2,2.11v3.28h-1.15v-6.37h1.1v1a2.76,2.76,0,0,1,2.29-1A2.47,2.47,0,0,1,328.72,144Z"/><path class="cls-10" d="M334.43,147.33a2.14,2.14,0,0,1-1.39.44,1.82,1.82,0,0,1-2-2v-3.5h-1.08v-.95H331v-1.39h1.16v1.39H334v.95h-1.82v3.45a.94.94,0,0,0,1,1.07,1.45,1.45,0,0,0,.9-.3Z"/><path class="cls-10" d="M340.87,143.86v3.84h-1.09v-.84a2.38,2.38,0,0,1-2.09.91c-1.44,0-2.36-.77-2.36-1.87S336,144,337.89,144h1.83v-.23c0-1-.57-1.54-1.71-1.54a3.2,3.2,0,0,0-2,.69l-.48-.87a4.25,4.25,0,0,1,2.63-.82C339.89,141.27,340.87,142.11,340.87,143.86Zm-1.15,1.89v-.89h-1.78c-1.14,0-1.46.45-1.46,1s.52,1,1.4,1A1.85,1.85,0,0,0,339.72,145.75Z"/><path class="cls-10" d="M342.8,139.36a.79.79,0,1,1,.78.75A.76.76,0,0,1,342.8,139.36Zm.21,2h1.15v6.37H343Z"/><path class="cls-10" d="M352.4,144v3.66h-1.15v-3.53c0-1.25-.63-1.86-1.72-1.86a1.89,1.89,0,0,0-2,2.11v3.28h-1.15v-6.37h1.1v1a2.76,2.76,0,0,1,2.3-1A2.47,2.47,0,0,1,352.4,144Z"/><path class="cls-10" d="M360.3,144.9h-5.16a2.14,2.14,0,0,0,2.3,1.86,2.37,2.37,0,0,0,1.84-.77l.64.75a3.48,3.48,0,0,1-5.94-2.22,3.12,3.12,0,0,1,3.2-3.25,3.07,3.07,0,0,1,3.15,3.28C360.33,144.65,360.31,144.79,360.3,144.9Zm-5.16-.83h4.08a2.05,2.05,0,0,0-4.08,0Z"/><path class="cls-10" d="M365.35,141.27v1.12h-.27a1.9,1.9,0,0,0-2,2.15v3.17h-1.16v-6.37H363v1.07A2.44,2.44,0,0,1,365.35,141.27Z"/></g><path class="cls-4" d="M650.6,53.82v3.66h-1.15V54c0-1.25-.63-1.86-1.72-1.86a1.89,1.89,0,0,0-2,2.11v3.28h-1.15V51.12h1.1v1a2.74,2.74,0,0,1,2.3-1A2.46,2.46,0,0,1,650.6,53.82Z"/><path class="cls-4" d="M657.78,53.64v3.84h-1.09v-.84a2.36,2.36,0,0,1-2.09.91c-1.44,0-2.36-.77-2.36-1.87s.66-1.86,2.56-1.86h1.83v-.23c0-1-.57-1.54-1.71-1.54a3.26,3.26,0,0,0-2,.69l-.48-.87a4.25,4.25,0,0,1,2.63-.81C656.8,51.06,657.78,51.9,657.78,53.64Zm-1.15,1.9v-.89h-1.78c-1.14,0-1.46.44-1.46,1s.52,1,1.4,1A1.85,1.85,0,0,0,656.63,55.54Z"/><path class="cls-4" d="M670.49,53.82v3.66h-1.16V54c0-1.25-.6-1.86-1.64-1.86a1.85,1.85,0,0,0-1.91,2.11v3.28h-1.15V54c0-1.25-.6-1.86-1.65-1.86a1.85,1.85,0,0,0-1.91,2.11v3.28h-1.15V51.12H661v.94a2.61,2.61,0,0,1,2.2-1,2.36,2.36,0,0,1,2.21,1.17,2.87,2.87,0,0,1,2.45-1.17A2.44,2.44,0,0,1,670.49,53.82Z"/><path class="cls-4" d="M678.38,54.68h-5.17a2.16,2.16,0,0,0,2.31,1.86,2.41,2.41,0,0,0,1.84-.76l.63.74a3.47,3.47,0,0,1-5.93-2.22,3.11,3.11,0,0,1,3.19-3.24,3.07,3.07,0,0,1,3.15,3.27C678.4,54.43,678.39,54.57,678.38,54.68Zm-5.17-.83h4.09a2.06,2.06,0,0,0-4.09,0Z"/><path class="cls-4" d="M679.19,56.81l.48-.91a4.14,4.14,0,0,0,2.24.66c1.07,0,1.51-.33,1.51-.87,0-1.43-4-.19-4-2.73,0-1.14,1-1.9,2.65-1.9a4.63,4.63,0,0,1,2.32.57l-.49.91A3.36,3.36,0,0,0,682,52c-1,0-1.5.37-1.5.88,0,1.5,4,.27,4,2.75,0,1.15-1.05,1.88-2.75,1.88A4.62,4.62,0,0,1,679.19,56.81Z"/><path class="cls-4" d="M692.61,54.3a3.09,3.09,0,0,1-3.22,3.25,2.73,2.73,0,0,1-2.22-1v3.29H686V51.12h1.1v1a2.71,2.71,0,0,1,2.27-1.07A3.09,3.09,0,0,1,692.61,54.3Zm-1.17,0a2.14,2.14,0,1,0-2.15,2.24A2.1,2.1,0,0,0,691.44,54.3Z"/><path class="cls-4" d="M699.19,53.64v3.84H698.1v-.84a2.37,2.37,0,0,1-2.09.91c-1.44,0-2.36-.77-2.36-1.87s.66-1.86,2.56-1.86H698v-.23c0-1-.57-1.54-1.71-1.54a3.24,3.24,0,0,0-2,.69l-.48-.87a4.23,4.23,0,0,1,2.63-.81C698.2,51.06,699.19,51.9,699.19,53.64ZM698,55.54v-.89h-1.78c-1.14,0-1.47.44-1.47,1s.53,1,1.41,1A1.85,1.85,0,0,0,698,55.54Z"/><path class="cls-4" d="M700.77,54.3a3.18,3.18,0,0,1,3.37-3.24,2.82,2.82,0,0,1,2.59,1.35l-.87.57a2,2,0,0,0-1.73-.92,2.24,2.24,0,0,0,0,4.48,2,2,0,0,0,1.73-.91l.87.55a2.84,2.84,0,0,1-2.59,1.37A3.19,3.19,0,0,1,700.77,54.3Z"/><path class="cls-4" d="M713.85,54.68h-5.16a2.14,2.14,0,0,0,2.3,1.86,2.39,2.39,0,0,0,1.84-.76l.64.74a3.47,3.47,0,0,1-5.93-2.22,3.11,3.11,0,0,1,3.19-3.24,3.07,3.07,0,0,1,3.15,3.27C713.88,54.43,713.86,54.57,713.85,54.68Zm-5.16-.83h4.08a2.05,2.05,0,0,0-4.08,0Z"/><path class="cls-4" d="M720.75,56.44v1h-6v-.82l3.42-3.3c.89-.86,1.06-1.39,1.06-1.92,0-.86-.62-1.39-1.79-1.39a2.65,2.65,0,0,0-2.15.91l-.82-.71A3.9,3.9,0,0,1,717.5,49c1.76,0,2.89.9,2.89,2.34A3.4,3.4,0,0,1,719,54l-2.57,2.48Z"/><g class="cls-5"><rect class="cls-1" x="547.59" y="68.37" width="259.43" height="119.5" rx="3.34"/><path d="M803.67,68.37h-5v.5h5v-.5Zm-7,0h-5v.5h5v-.5Zm-7,0h-5v.5h5v-.5Zm-7,0h-5v.5h5v-.5Zm-7,0h-5v.5h5v-.5Zm-7,0h-5v.5h5v-.5Zm-7,0h-5v.5h5v-.5Zm-7,0h-5v.5h5v-.5Zm-7,0h-5v.5h5v-.5Zm-7,0h-5v.5h5v-.5Zm-7,0h-5v.5h5v-.5Zm-7,0h-5v.5h5v-.5Zm-7,0h-5v.5h5v-.5Zm-7,0h-5v.5h5v-.5Zm-7,0h-5v.5h5v-.5Zm-7,0h-5v.5h5v-.5Zm-7,0h-5v.5h5v-.5Zm-7,0h-5v.5h5v-.5Zm-7,0h-5v.5h5v-.5Zm-7,0h-5v.5h5v-.5Zm-7,0h-5v.5h5v-.5Zm-7,0h-5v.5h5v-.5Zm-7,0h-5v.5h5v-.5Zm-7,0h-5v.5h5v-.5Zm-7,0h-5v.5h5v-.5Zm-7,0h-5v.5h5v-.5Zm-7,0h-5v.5h5v-.5Zm-7,0h-5v.5h5v-.5Zm-7,0h-5v.5h5v-.5Zm-7,0h-5v.5h5v-.5Zm-7,0h-5v.5h5v-.5Zm-7,0h-5v.5h5v-.5Zm-7,0h-5v.5h5v-.5Zm-7,0h-5v.5h5v-.5Zm-7,0h-5v.5h5v-.5Zm-7,0h-5v.5h5v-.5Zm-7,0h-1.36a3.39,3.39,0,0,0-1.82,1h-.25v0h0a3.3,3.3,0,0,0-.5,1l.48.15a2.83,2.83,0,0,1,2.72-2h.74v-.5Zm-3.58,4.36h-.5v5h.5v-5Zm0,7h-.5v5h.5v-5Zm0,7h-.5v5h.5v-5Zm0,7h-.5v5h.5v-5Zm0,7h-.5v5h.5v-5Zm0,7h-.5v5h.5v-5Zm0,7h-.5v5h.5v-5Zm0,7h-.5v5h.5v-5Zm0,7h-.5v5h.5v-5Zm0,7h-.5v5h.5v-5Zm0,7h-.5v5h.5v-5Zm0,7h-.5v5h.5v-5Zm0,7h-.5v5h.5v-5Zm0,7h-.5v5h.5v-5Zm0,7h-.5v5h.5v-5Zm0,7h-.5v5h.5v-5Zm0,7-.5,0a3.35,3.35,0,0,0,3.28,3.15v-.5a2.87,2.87,0,0,1-2.79-2.68Zm9.78,2.68h-5v.5h5v-.5Zm7,0h-5v.5h5v-.5Zm7,0h-5v.5h5v-.5Zm7,0h-5v.5h5v-.5Zm7,0h-5v.5h5v-.5Zm7,0h-5v.5h5v-.5Zm7,0h-5v.5h5v-.5Zm7,0h-5v.5h5v-.5Zm7,0h-5v.5h5v-.5Zm7,0h-5v.5h5v-.5Zm7,0h-5v.5h5v-.5Zm7,0h-5v.5h5v-.5Zm7,0h-5v.5h5v-.5Zm7,0h-5v.5h5v-.5Zm7,0h-5v.5h5v-.5Zm7,0h-5v.5h5v-.5Zm7,0h-5v.5h5v-.5Zm7,0h-5v.5h5v-.5Zm7,0h-5v.5h5v-.5Zm7,0h-5v.5h5v-.5Zm7,0h-5v.5h5v-.5Zm7,0h-5v.5h5v-.5Zm7,0h-5v.5h5v-.5Zm7,0h-5v.5h5v-.5Zm7,0h-5v.5h5v-.5Zm7,0h-5v.5h5v-.5Zm7,0h-5v.5h5v-.5Zm7,0h-5v.5h5v-.5Zm7,0h-5v.5h5v-.5Zm7,0h-5v.5h5v-.5Zm7,0h-5v.5h5v-.5Zm7,0h-5v.5h5v-.5Zm7,0h-5v.5h5v-.5Zm7,0h-5v.5h5v-.5Zm7,0h-5v.5h5v-.5Zm7,0h-5v.5h5v-.5Zm4.15-3.79h-.5v.94a2.88,2.88,0,0,1-1.85,2.67l.17.47a3.49,3.49,0,0,0,.94-.54h0l.06,0h0l0,0H807v-.94Zm0-7h-.5v5h.5v-5Zm0-7h-.5v5h.5v-5Zm0-7h-.5v5h.5v-5Zm0-7h-.5v5h.5v-5Zm0-7h-.5v5h.5v-5Zm0-7h-.5v5h.5v-5Zm0-7h-.5v5h.5v-5Zm0-7h-.5v5h.5v-5Zm0-7h-.5v5h.5v-5Zm0-7h-.5v5h.5v-5Zm0-7h-.5v5h.5v-5Zm0-7h-.5v5h.5v-5Zm0-7h-.5v5h.5v-5Zm0-7h-.5v5h.5v-5Zm0-7h-.5v5h.5v-5Zm0-7-.5,0v5h.5V71.72h0s0-.06,0-.09Zm-3.34-3.22v.5A2.81,2.81,0,0,1,806,70l.4-.3a3.32,3.32,0,0,0-2.08-1.3h-.61Z"/></g><rect class="cls-6" x="560.05" y="83.46" width="110.46" height="90.07" rx="2.57"/><path class="cls-2" d="M667.94,173.78H562.62A2.82,2.82,0,0,1,559.8,171V86a2.81,2.81,0,0,1,2.82-2.81H667.94A2.81,2.81,0,0,1,670.75,86V171A2.82,2.82,0,0,1,667.94,173.78ZM562.62,83.71A2.32,2.32,0,0,0,560.3,86V171a2.32,2.32,0,0,0,2.32,2.32H667.94a2.32,2.32,0,0,0,2.31-2.32V86a2.32,2.32,0,0,0-2.31-2.31Z"/><rect class="cls-6" x="572.23" y="113.36" width="87.61" height="45.76" rx="2.36"/><path class="cls-2" d="M657.48,159.37H574.59a2.61,2.61,0,0,1-2.61-2.61v-41a2.62,2.62,0,0,1,2.61-2.61h82.89a2.62,2.62,0,0,1,2.61,2.61v41A2.61,2.61,0,0,1,657.48,159.37Zm-82.89-45.76a2.12,2.12,0,0,0-2.11,2.11v41a2.11,2.11,0,0,0,2.11,2.11h82.89a2.11,2.11,0,0,0,2.11-2.11v-41a2.12,2.12,0,0,0-2.11-2.11Z"/><g class="cls-7"><path class="cls-10" d="M598.39,131c0,1.44-1.1,2.27-3.22,2.27h-4v-8.41h3.77c1.93,0,3,.82,3,2.17a2,2,0,0,1-1.13,1.88A2,2,0,0,1,598.39,131Zm-6-5.17v2.69h2.46c1.23,0,1.92-.45,1.92-1.34s-.69-1.35-1.92-1.35Zm4.81,5.07c0-1-.72-1.4-2-1.4h-2.76v2.79h2.76C596.45,132.31,597.17,131.89,597.17,130.92Z"/><path class="cls-10" d="M606,126.92v6.37h-1.09v-1a2.59,2.59,0,0,1-2.16,1,2.5,2.5,0,0,1-2.74-2.78v-3.66h1.15v3.53c0,1.25.63,1.88,1.72,1.88a1.88,1.88,0,0,0,2-2.12v-3.29Z"/><path class="cls-10" d="M607.41,132.61l.48-.91a4,4,0,0,0,2.23.66c1.07,0,1.51-.32,1.51-.86,0-1.43-4-.2-4-2.73,0-1.14,1-1.91,2.66-1.91a4.62,4.62,0,0,1,2.31.58l-.49.91a3.34,3.34,0,0,0-1.84-.5c-1,0-1.5.37-1.5.87,0,1.5,4,.28,4,2.75,0,1.16-1.06,1.89-2.75,1.89A4.59,4.59,0,0,1,607.41,132.61Z"/><path class="cls-10" d="M619.74,126.92l-3.09,7c-.56,1.35-1.29,1.77-2.27,1.77a2.41,2.41,0,0,1-1.63-.59l.49-.87a1.6,1.6,0,0,0,1.14.47c.56,0,.9-.25,1.22-1l.2-.45L613,126.92h1.2l2.22,5.09,2.2-5.09Z"/><path class="cls-10" d="M627.41,130.1a3.1,3.1,0,0,1-3.21,3.26,2.68,2.68,0,0,1-2.27-1.08v1h-1.11v-8.91H622v3.5a2.71,2.71,0,0,1,2.22-1A3.08,3.08,0,0,1,627.41,130.1Zm-1.16,0a2.15,2.15,0,1,0-2.15,2.25A2.1,2.1,0,0,0,626.25,130.1Z"/><path class="cls-10" d="M628.42,130.1a3.31,3.31,0,1,1,3.32,3.26A3.17,3.17,0,0,1,628.42,130.1Zm5.46,0a2.15,2.15,0,1,0-2.14,2.25A2.09,2.09,0,0,0,633.88,130.1Z"/><path class="cls-10" d="M640.48,133.29l-1.84-2.44-1.86,2.44H635.5L638,130l-2.39-3.11h1.28l1.76,2.29,1.74-2.29h1.26l-2.4,3.11,2.53,3.26Z"/><path class="cls-10" d="M590.47,143.5a4.25,4.25,0,0,1,4.46-4.3,4.15,4.15,0,0,1,3.19,1.3l-.78.76a3.13,3.13,0,0,0-2.36-1,3.24,3.24,0,1,0,0,6.47,3.14,3.14,0,0,0,2.36-1l.78.75a4.14,4.14,0,0,1-3.2,1.32A4.25,4.25,0,0,1,590.47,143.5Z"/><path class="cls-10" d="M598.82,144.52a3.31,3.31,0,1,1,3.31,3.25A3.17,3.17,0,0,1,598.82,144.52Zm5.45,0a2.15,2.15,0,1,0-2.14,2.24A2.09,2.09,0,0,0,604.27,144.52Z"/><path class="cls-10" d="M613.07,144v3.66h-1.15v-3.53c0-1.25-.62-1.86-1.72-1.86a1.88,1.88,0,0,0-2,2.11v3.28H607v-6.37h1.11v1a2.74,2.74,0,0,1,2.29-1A2.47,2.47,0,0,1,613.07,144Z"/><path class="cls-10" d="M618.79,147.33a2.16,2.16,0,0,1-1.39.44,1.82,1.82,0,0,1-2-2v-3.5H614.3v-.95h1.08v-1.39h1.15v1.39h1.83v.95h-1.83v3.45a1,1,0,0,0,1,1.07,1.45,1.45,0,0,0,.9-.3Z"/><path class="cls-10" d="M625.23,143.86v3.84h-1.09v-.84a2.39,2.39,0,0,1-2.09.91c-1.44,0-2.36-.77-2.36-1.87s.66-1.86,2.56-1.86h1.83v-.23c0-1-.57-1.54-1.71-1.54a3.18,3.18,0,0,0-2,.69l-.48-.87a4.23,4.23,0,0,1,2.63-.82C624.24,141.27,625.23,142.11,625.23,143.86Zm-1.15,1.89v-.89H622.3c-1.14,0-1.47.45-1.47,1s.53,1,1.41,1A1.85,1.85,0,0,0,624.08,145.75Z"/><path class="cls-10" d="M627.16,139.36a.76.76,0,0,1,.78-.75.74.74,0,0,1,.78.73.78.78,0,0,1-1.56,0Zm.21,2h1.15v6.37h-1.15Z"/><path class="cls-10" d="M636.76,144v3.66h-1.15v-3.53c0-1.25-.63-1.86-1.72-1.86a1.89,1.89,0,0,0-2,2.11v3.28h-1.15v-6.37h1.1v1a2.76,2.76,0,0,1,2.3-1A2.47,2.47,0,0,1,636.76,144Z"/><path class="cls-10" d="M644.66,144.9H639.5a2.14,2.14,0,0,0,2.3,1.86,2.37,2.37,0,0,0,1.84-.77l.64.75a3.48,3.48,0,0,1-5.94-2.22,3.12,3.12,0,0,1,3.2-3.25,3.06,3.06,0,0,1,3.14,3.28C644.68,144.65,644.67,144.79,644.66,144.9Zm-5.16-.83h4.08a2.05,2.05,0,0,0-4.08,0Z"/><path class="cls-10" d="M649.7,141.27v1.12h-.26a1.89,1.89,0,0,0-2,2.15v3.17h-1.16v-6.37h1.11v1.07A2.42,2.42,0,0,1,649.7,141.27Z"/></g><path class="cls-4" d="M607.42,96.12c0,1.83-1.32,2.93-3.51,2.93h-2.07v2.55h-1.21V93.19h3.28C606.1,93.19,607.42,94.3,607.42,96.12Zm-1.2,0c0-1.2-.81-1.88-2.34-1.88h-2V98h2C605.41,98,606.22,97.32,606.22,96.12Z"/><path class="cls-4" d="M608.4,98.42a3.31,3.31,0,1,1,3.32,3.25A3.18,3.18,0,0,1,608.4,98.42Zm5.46,0a2.15,2.15,0,1,0-2.14,2.24A2.1,2.1,0,0,0,613.86,98.42Z"/><path class="cls-4" d="M622.62,92.69v8.91h-1.1v-1a2.69,2.69,0,0,1-2.27,1.08,3.25,3.25,0,0,1,0-6.5,2.72,2.72,0,0,1,2.22,1v-3.5Zm-1.14,5.73a2.14,2.14,0,1,0-2.13,2.24A2.09,2.09,0,0,0,621.48,98.42Z"/><path class="cls-4" d="M630.13,93.19v8.41h-1.19V94.24H627v-1Z"/><rect class="cls-6" x="680.7" y="83.46" width="110.46" height="90.07" rx="2.57"/><path class="cls-2" d="M788.59,173.78H683.27a2.82,2.82,0,0,1-2.82-2.82V86a2.81,2.81,0,0,1,2.82-2.81H788.59A2.81,2.81,0,0,1,791.4,86V171A2.82,2.82,0,0,1,788.59,173.78ZM683.27,83.71A2.32,2.32,0,0,0,681,86V171a2.32,2.32,0,0,0,2.32,2.32H788.59A2.32,2.32,0,0,0,790.9,171V86a2.32,2.32,0,0,0-2.31-2.31Z"/><rect class="cls-6" x="692.88" y="113.36" width="87.61" height="45.76" rx="2.36"/><path class="cls-2" d="M778.13,159.37H695.24a2.61,2.61,0,0,1-2.61-2.61v-41a2.62,2.62,0,0,1,2.61-2.61h82.89a2.62,2.62,0,0,1,2.61,2.61v41A2.61,2.61,0,0,1,778.13,159.37Zm-82.89-45.76a2.12,2.12,0,0,0-2.11,2.11v41a2.11,2.11,0,0,0,2.11,2.11h82.89a2.11,2.11,0,0,0,2.11-2.11v-41a2.12,2.12,0,0,0-2.11-2.11Z"/><g class="cls-7"><path class="cls-10" d="M719.15,131c0,1.44-1.1,2.27-3.22,2.27h-4v-8.41h3.77c1.93,0,3,.82,3,2.17a2,2,0,0,1-1.13,1.88A2,2,0,0,1,719.15,131Zm-6-5.17v2.69h2.46c1.22,0,1.92-.45,1.92-1.34s-.7-1.35-1.92-1.35Zm4.81,5.07c0-1-.72-1.4-2-1.4h-2.76v2.79h2.76C717.21,132.31,717.93,131.89,717.93,130.92Z"/><path class="cls-10" d="M726.77,126.92v6.37h-1.09v-1a2.59,2.59,0,0,1-2.16,1,2.5,2.5,0,0,1-2.74-2.78v-3.66h1.15v3.53c0,1.25.63,1.88,1.72,1.88a1.88,1.88,0,0,0,2-2.12v-3.29Z"/><path class="cls-10" d="M728.16,132.61l.49-.91a4,4,0,0,0,2.23.66c1.07,0,1.51-.32,1.51-.86,0-1.43-4-.2-4-2.73,0-1.14,1-1.91,2.65-1.91a4.63,4.63,0,0,1,2.32.58l-.49.91a3.34,3.34,0,0,0-1.84-.5c-1,0-1.5.37-1.5.87,0,1.5,4,.28,4,2.75,0,1.16-1,1.89-2.75,1.89A4.62,4.62,0,0,1,728.16,132.61Z"/><path class="cls-10" d="M740.5,126.92l-3.09,7c-.56,1.35-1.3,1.77-2.27,1.77a2.4,2.4,0,0,1-1.63-.59l.49-.87a1.59,1.59,0,0,0,1.14.47c.55,0,.9-.25,1.22-1l.2-.45-2.81-6.35H735l2.22,5.09,2.2-5.09Z"/><path class="cls-10" d="M748.17,130.1a3.1,3.1,0,0,1-3.22,3.26,2.7,2.7,0,0,1-2.27-1.08v1h-1.1v-8.91h1.15v3.5a2.72,2.72,0,0,1,2.22-1A3.09,3.09,0,0,1,748.17,130.1Zm-1.16,0a2.15,2.15,0,1,0-2.15,2.25A2.1,2.1,0,0,0,747,130.1Z"/><path class="cls-10" d="M749.18,130.1a3.31,3.31,0,1,1,3.32,3.26A3.17,3.17,0,0,1,749.18,130.1Zm5.45,0a2.14,2.14,0,1,0-4.28,0,2.14,2.14,0,1,0,4.28,0Z"/><path class="cls-10" d="M761.24,133.29l-1.84-2.44-1.86,2.44h-1.28l2.51-3.26-2.39-3.11h1.28l1.75,2.29,1.74-2.29h1.27L760,130l2.54,3.26Z"/><path class="cls-10" d="M707.15,143.5a4.25,4.25,0,0,1,4.46-4.3,4.17,4.17,0,0,1,3.19,1.3l-.78.76a3.13,3.13,0,0,0-2.36-1,3.24,3.24,0,1,0,0,6.47,3.14,3.14,0,0,0,2.36-1l.78.75a4.15,4.15,0,0,1-3.2,1.32A4.25,4.25,0,0,1,707.15,143.5Z"/><path class="cls-10" d="M715.5,144.52a3.31,3.31,0,1,1,3.31,3.25A3.17,3.17,0,0,1,715.5,144.52Zm5.45,0a2.15,2.15,0,1,0-2.14,2.24A2.09,2.09,0,0,0,721,144.52Z"/><path class="cls-10" d="M729.75,144v3.66H728.6v-3.53c0-1.25-.62-1.86-1.72-1.86a1.88,1.88,0,0,0-2,2.11v3.28h-1.16v-6.37h1.11v1a2.74,2.74,0,0,1,2.29-1A2.47,2.47,0,0,1,729.75,144Z"/><path class="cls-10" d="M735.47,147.33a2.16,2.16,0,0,1-1.39.44,1.82,1.82,0,0,1-2-2v-3.5H731v-.95h1.08v-1.39h1.15v1.39H735v.95h-1.83v3.45a.94.94,0,0,0,1,1.07,1.45,1.45,0,0,0,.9-.3Z"/><path class="cls-10" d="M741.91,143.86v3.84h-1.09v-.84a2.39,2.39,0,0,1-2.09.91c-1.45,0-2.36-.77-2.36-1.87S737,144,738.93,144h1.83v-.23c0-1-.57-1.54-1.71-1.54a3.16,3.16,0,0,0-2,.69l-.48-.87a4.23,4.23,0,0,1,2.63-.82C740.92,141.27,741.91,142.11,741.91,143.86Zm-1.15,1.89v-.89H739c-1.14,0-1.47.45-1.47,1s.53,1,1.41,1A1.85,1.85,0,0,0,740.76,145.75Z"/><path class="cls-10" d="M743.84,139.36a.76.76,0,0,1,.78-.75.74.74,0,0,1,.78.73.78.78,0,0,1-1.56,0Zm.21,2h1.15v6.37h-1.15Z"/><path class="cls-10" d="M753.44,144v3.66h-1.16v-3.53c0-1.25-.62-1.86-1.71-1.86a1.89,1.89,0,0,0-2,2.11v3.28H747.4v-6.37h1.1v1a2.76,2.76,0,0,1,2.3-1A2.47,2.47,0,0,1,753.44,144Z"/><path class="cls-10" d="M761.34,144.9h-5.16a2.14,2.14,0,0,0,2.3,1.86,2.37,2.37,0,0,0,1.84-.77l.64.75a3.48,3.48,0,0,1-5.94-2.22,3.12,3.12,0,0,1,3.2-3.25,3.06,3.06,0,0,1,3.14,3.28C761.36,144.65,761.35,144.79,761.34,144.9Zm-5.16-.83h4.08a2.05,2.05,0,0,0-4.08,0Z"/><path class="cls-10" d="M766.38,141.27v1.12h-.26a1.9,1.9,0,0,0-2,2.15v3.17H763v-6.37h1.11v1.07A2.42,2.42,0,0,1,766.38,141.27Z"/></g><path class="cls-4" d="M728.07,96.12c0,1.83-1.32,2.93-3.51,2.93h-2.07v2.55h-1.2V93.19h3.27C726.75,93.19,728.07,94.3,728.07,96.12Zm-1.2,0c0-1.2-.8-1.88-2.34-1.88h-2V98h2C726.07,98,726.87,97.32,726.87,96.12Z"/><path class="cls-4" d="M729.06,98.42a3.31,3.31,0,1,1,3.31,3.25A3.17,3.17,0,0,1,729.06,98.42Zm5.45,0a2.15,2.15,0,1,0-2.14,2.24A2.09,2.09,0,0,0,734.51,98.42Z"/><path class="cls-4" d="M743.27,92.69v8.91h-1.1v-1a2.69,2.69,0,0,1-2.27,1.08,3.25,3.25,0,0,1,0-6.5,2.72,2.72,0,0,1,2.22,1v-3.5Zm-1.14,5.73a2.14,2.14,0,1,0-2.13,2.24A2.09,2.09,0,0,0,742.13,98.42Z"/><path class="cls-4" d="M754.08,100.55v1h-6v-.82l3.43-3.3c.89-.87,1-1.39,1-1.92,0-.87-.61-1.4-1.79-1.4a2.64,2.64,0,0,0-2.15.92l-.81-.71a3.85,3.85,0,0,1,3.07-1.27c1.75,0,2.88.9,2.88,2.34a3.41,3.41,0,0,1-1.38,2.64l-2.57,2.47Z"/><path d="M439,13.54l-1.61,1.65v2.59h-1.88V7.63h1.88v5.21l5-5.21h2.11l-4.26,4.54,4.52,5.61h-2.2Z"/><path d="M453.18,10v7.74h-1.73v-1A3.15,3.15,0,0,1,449,17.88a3.06,3.06,0,0,1-3.34-3.42V10h1.82v4.18c0,1.4.66,2.07,1.81,2.07A2,2,0,0,0,451.36,14V10Z"/><path d="M463.78,13.91a3.77,3.77,0,0,1-3.93,4,3.2,3.2,0,0,1-2.57-1.1v1h-1.72V7h1.81v4a3.23,3.23,0,0,1,2.48-1A3.77,3.77,0,0,1,463.78,13.91Zm-1.84,0a2.3,2.3,0,1,0-4.6,0,2.3,2.3,0,1,0,4.6,0Z"/><path d="M472.75,14.49h-6.07a2.35,2.35,0,0,0,2.51,1.86,2.79,2.79,0,0,0,2.1-.84l1,1.11a4.35,4.35,0,0,1-7.39-2.71,3.85,3.85,0,0,1,4-4,3.78,3.78,0,0,1,3.91,4A5.13,5.13,0,0,1,472.75,14.49Zm-6.09-1.2h4.4a2.11,2.11,0,0,0-2.19-1.89A2.15,2.15,0,0,0,466.66,13.29Z"/><path d="M479,10v1.73a2.19,2.19,0,0,0-.42,0A2.11,2.11,0,0,0,476.34,14v3.75h-1.82V10h1.73v1.13A3,3,0,0,1,479,10Z"/><path d="M488.17,13.35v4.43h-1.81v-4.2c0-1.38-.69-2.05-1.85-2.05a2.06,2.06,0,0,0-2.16,2.34v3.91h-1.81V10h1.73v1A3.35,3.35,0,0,1,484.93,10C486.79,10,488.17,11,488.17,13.35Z"/><path d="M497.79,14.49h-6.07a2.35,2.35,0,0,0,2.51,1.86,2.79,2.79,0,0,0,2.1-.84l1,1.11a3.89,3.89,0,0,1-3.11,1.26c-2.6,0-4.28-1.66-4.28-4a3.86,3.86,0,0,1,4-4,3.78,3.78,0,0,1,3.91,4A5.13,5.13,0,0,1,497.79,14.49Zm-6.08-1.2h4.39a2.11,2.11,0,0,0-2.19-1.89A2.14,2.14,0,0,0,491.71,13.29Z"/><path d="M504.22,17.36a2.85,2.85,0,0,1-1.74.52,2.38,2.38,0,0,1-2.67-2.61V11.55h-1.27V10.1h1.27V8.33h1.81V10.1h2.08v1.45h-2.08v3.68c0,.75.38,1.16,1.08,1.16a1.6,1.6,0,0,0,1-.32Z"/><path d="M512.7,14.49h-6.07a2.35,2.35,0,0,0,2.51,1.86,2.79,2.79,0,0,0,2.1-.84l1,1.11a4.35,4.35,0,0,1-7.39-2.71,3.85,3.85,0,0,1,4-4,3.78,3.78,0,0,1,3.91,4A5.13,5.13,0,0,1,512.7,14.49Zm-6.09-1.2H511a2.11,2.11,0,0,0-2.19-1.89A2.15,2.15,0,0,0,506.61,13.29Z"/><path d="M513.59,17l.69-1.37a5.24,5.24,0,0,0,2.7.77c1.15,0,1.63-.32,1.63-.86,0-1.48-4.79-.09-4.79-3.17,0-1.47,1.32-2.43,3.41-2.43a6.18,6.18,0,0,1,2.9.67l-.7,1.38a4.2,4.2,0,0,0-2.22-.58c-1.1,0-1.62.36-1.62.87,0,1.56,4.78.17,4.78,3.2,0,1.45-1.33,2.39-3.51,2.39A6,6,0,0,1,513.59,17Z"/><path d="M525.39,12.71a5.49,5.49,0,0,1,9.45-3.52l-1.21,1.14a3.57,3.57,0,0,0-2.71-1.19,3.47,3.47,0,0,0-3.63,3.57,3.46,3.46,0,0,0,3.63,3.56,3.54,3.54,0,0,0,2.71-1.2l1.21,1.16a5.49,5.49,0,0,1-9.45-3.52Z"/><path d="M536.48,7h1.82V17.78h-1.82Z"/><path d="M548.17,10v7.74h-1.73v-1A3.15,3.15,0,0,1,544,17.88a3.06,3.06,0,0,1-3.33-3.42V10h1.81v4.18c0,1.4.67,2.07,1.81,2.07A2,2,0,0,0,546.36,14V10Z"/><path d="M549.67,17l.69-1.37a5.22,5.22,0,0,0,2.7.77c1.14,0,1.62-.32,1.62-.86,0-1.48-4.78-.09-4.78-3.17,0-1.47,1.32-2.43,3.41-2.43a6.14,6.14,0,0,1,2.89.67L555.51,12a4.2,4.2,0,0,0-2.22-.58c-1.1,0-1.62.36-1.62.87,0,1.56,4.78.17,4.78,3.2,0,1.45-1.33,2.39-3.51,2.39A6,6,0,0,1,549.67,17Z"/><path d="M562.67,17.36a2.83,2.83,0,0,1-1.74.52,2.37,2.37,0,0,1-2.66-2.61V11.55H557V10.1h1.28V8.33h1.81V10.1h2.07v1.45h-2.07v3.68c0,.75.37,1.16,1.07,1.16a1.58,1.58,0,0,0,1-.32Z"/><path d="M571.15,14.49h-6.07a2.35,2.35,0,0,0,2.51,1.86,2.79,2.79,0,0,0,2.1-.84l1,1.11a4.35,4.35,0,0,1-7.39-2.71,3.85,3.85,0,0,1,4-4,3.78,3.78,0,0,1,3.91,4A5.13,5.13,0,0,1,571.15,14.49Zm-6.08-1.2h4.39a2.11,2.11,0,0,0-2.19-1.89A2.14,2.14,0,0,0,565.07,13.29Z"/><path d="M577.4,10v1.73A2.24,2.24,0,0,0,574.74,14v3.75h-1.81V10h1.72v1.13A3,3,0,0,1,577.4,10Z"/><path d="M578.9,13.81A12.47,12.47,0,0,1,580.67,7h1.72a13.23,13.23,0,0,0-1.71,6.78,13.23,13.23,0,0,0,1.71,6.78h-1.72A12.54,12.54,0,0,1,578.9,13.81Z"/><path d="M583,17l.69-1.37a5.22,5.22,0,0,0,2.7.77c1.14,0,1.62-.32,1.62-.86,0-1.48-4.78-.09-4.78-3.17,0-1.47,1.32-2.43,3.4-2.43a6.15,6.15,0,0,1,2.9.67L588.86,12a4.2,4.2,0,0,0-2.22-.58c-1.1,0-1.62.36-1.62.87,0,1.56,4.78.17,4.78,3.2,0,1.45-1.33,2.39-3.51,2.39A6,6,0,0,1,583,17Z"/><path d="M590.5,20.59a13.24,13.24,0,0,0,1.72-6.78A13.24,13.24,0,0,0,590.5,7h1.72A12.3,12.3,0,0,1,594,13.81a12.37,12.37,0,0,1-1.77,6.78Z"/><path class="cls-11" d="M412.33,0a1.92,1.92,0,0,0-.71.19l-9.5,4.53a1.83,1.83,0,0,0-1,1.22l-2.33,10.17a1.76,1.76,0,0,0,.26,1.39l.1.14,6.57,8.17a1.85,1.85,0,0,0,1.42.67h10.53a1.8,1.8,0,0,0,1.41-.68l6.57-8.16a1.79,1.79,0,0,0,.34-1.53L423.67,5.93a1.85,1.85,0,0,0-1-1.22L413.2.19a1.8,1.8,0,0,0-.88-.19Z"/><path class="cls-6" d="M412.41,3.47a.61.61,0,0,0-.56.63v.16a3.35,3.35,0,0,0,.08.54,5.6,5.6,0,0,1,.06,1,.6.6,0,0,1-.19.3v.24a7.18,7.18,0,0,0-4.74,2.27l-.2-.14a.4.4,0,0,1-.34,0,4.52,4.52,0,0,1-.76-.69,3.5,3.5,0,0,0-.38-.39l-.12-.1a.7.7,0,0,0-.4-.15.53.53,0,0,0-.45.2.61.61,0,0,0,.14.84l.12.09c.15.1.31.19.47.28a5,5,0,0,1,.85.59.57.57,0,0,1,.11.33l.19.17a7.31,7.31,0,0,0-1.16,5.12l-.24.07a.72.72,0,0,1-.24.25,5.63,5.63,0,0,1-1,.16H403a.57.57,0,1,0,.25,1.11h.15a3.52,3.52,0,0,0,.51-.19,7.12,7.12,0,0,1,1-.29.66.66,0,0,1,.33.12h.26a7.3,7.3,0,0,0,3.27,4.09l-.1.22a.7.7,0,0,1,.05.32,5.28,5.28,0,0,1-.52.93q-.16.22-.3.45l-.07.16a.57.57,0,0,0,.21.78.57.57,0,0,0,.34.07.54.54,0,0,0,.47-.37l.07-.14A4.51,4.51,0,0,0,409,22a4.64,4.64,0,0,1,.43-1,.58.58,0,0,1,.25-.12l.13-.23a7.39,7.39,0,0,0,5.24,0l.11.22a.46.46,0,0,1,.29.17,6.09,6.09,0,0,1,.39,1,4.48,4.48,0,0,0,.16.52l.08.14a.56.56,0,0,0,.73.34.7.7,0,0,0,.28-.23.57.57,0,0,0,0-.59l-.07-.16c-.1-.15-.2-.31-.31-.45a7.2,7.2,0,0,1-.51-.9.41.41,0,0,1,.06-.34,1.6,1.6,0,0,1-.1-.23A7.41,7.41,0,0,0,419.43,16h.25a.43.43,0,0,1,.31-.12,7.12,7.12,0,0,1,1,.29,5.38,5.38,0,0,0,.51.2h.15a.57.57,0,0,0,.72-.36h0a.53.53,0,0,0,0-.35.58.58,0,0,0-.46-.38h-.72a5.63,5.63,0,0,1-1-.16.67.67,0,0,1-.25-.25l-.23-.07a7.42,7.42,0,0,0-1.19-5.16l.2-.18a.44.44,0,0,1,.11-.33,5.51,5.51,0,0,1,.84-.59,3.24,3.24,0,0,0,.47-.28l.12-.1a.57.57,0,0,0,.19-.78.64.64,0,0,0-.3-.24.56.56,0,0,0-.59.14l-.13.1a4.59,4.59,0,0,0-.37.39,5.58,5.58,0,0,1-.75.71.65.65,0,0,1-.34,0l-.22.16A7.4,7.4,0,0,0,413,6.35V6.1a.47.47,0,0,1-.18-.29,5.6,5.6,0,0,1,.06-1,5,5,0,0,0,.08-.54V4.1a.62.62,0,0,0-.56-.63Zm-.71,4.4-.17,3h0a.52.52,0,0,1-.28.43.49.49,0,0,1-.52,0l-2.45-1.8A5.87,5.87,0,0,1,411.1,8l.6-.1Zm1.42,0a6,6,0,0,1,3.4,1.64l-2.42,1.72a.51.51,0,0,1-.53.07.54.54,0,0,1-.29-.45Zm-5.73,2.75,2.24,2h0a.51.51,0,0,1,.05.71.5.5,0,0,1-.25.15h0l-2.87.82a5.87,5.87,0,0,1,.84-3.7Zm10,0a6.05,6.05,0,0,1,.85,3.69l-2.87-.82h0a.48.48,0,0,1-.35-.61.44.44,0,0,1,.15-.25l2.22-2Zm-5.46,2.15h.91l.56.71-.21.89-.82.39-.82-.39-.19-.89Zm2.92,2.42H415l2.95.5a5.71,5.71,0,0,1-2.36,3l-1.14-2.77a.48.48,0,0,1,.25-.64h.18Zm-5,0a.48.48,0,0,1,.41.22.49.49,0,0,1,0,.47h0l-1.13,2.75a5.83,5.83,0,0,1-2.36-2.95l2.93-.5h.15Zm2.47,1.19a.53.53,0,0,1,.46.26h0l1.45,2.61-.58.17a5.72,5.72,0,0,1-3.2-.17l1.45-2.6a.48.48,0,0,1,.42-.25Z"/><path class="cls-6" d="M416.65,23.11a.63.63,0,0,1-.58-.41l-.08-.13a4,4,0,0,1-.16-.53,5.66,5.66,0,0,0-.39-1,.34.34,0,0,0-.25-.14h0l-.1-.2a7.47,7.47,0,0,1-5.19,0l-.12.21h0a.37.37,0,0,0-.22.1,4.46,4.46,0,0,0-.42,1,5.25,5.25,0,0,1-.17.52l-.07.15a.63.63,0,0,1-.52.4A.71.71,0,0,1,408,23a.64.64,0,0,1-.23-.86l.07-.15c.1-.16.2-.31.31-.46a7.33,7.33,0,0,0,.51-.91.71.71,0,0,0-.05-.29v0l.09-.2a7.32,7.32,0,0,1-3.24-4.05h-.25a.55.55,0,0,0-.3-.11,6.82,6.82,0,0,0-1,.28,3.24,3.24,0,0,1-.52.19h-.15a.67.67,0,0,1-.63-.16.65.65,0,0,1-.18-.36.63.63,0,0,1,.54-.7h.71a6.46,6.46,0,0,0,1-.16.77.77,0,0,0,.21-.23v0l.22-.06a7.34,7.34,0,0,1,1.15-5.07L406,9.5v0a.53.53,0,0,0-.09-.3,5.39,5.39,0,0,0-.84-.57l0,0-.43-.26-.12-.09a.67.67,0,0,1-.16-.92.61.61,0,0,1,.46-.22h0a.67.67,0,0,1,.43.16l.12.1a2.45,2.45,0,0,1,.39.4,5.36,5.36,0,0,0,.75.68.42.42,0,0,0,.29,0h0l.18.13a7.22,7.22,0,0,1,4.69-2.25V6.08l0,0a.54.54,0,0,0,.18-.27,4.67,4.67,0,0,0-.07-1,.88.88,0,0,0,0-.16,1.76,1.76,0,0,1-.06-.39V4.1a.67.67,0,0,1,.61-.68h0a.65.65,0,0,1,.61.68v.17a3.17,3.17,0,0,1-.08.55,5.49,5.49,0,0,0-.06,1,.45.45,0,0,0,.16.25h0V6.3a7.47,7.47,0,0,1,4.68,2.26l.2-.15h0a.51.51,0,0,0,.3,0,5.4,5.4,0,0,0,.74-.69,4.61,4.61,0,0,1,.37-.4l.14-.1a.6.6,0,0,1,.64-.15.7.7,0,0,1,.33.26.64.64,0,0,1-.21.86l-.12.09a2.92,2.92,0,0,1-.48.29,6.53,6.53,0,0,0-.83.58.48.48,0,0,0-.09.29v0l-.19.17a7.45,7.45,0,0,1,1.18,5.11l.21.07h0a.54.54,0,0,0,.22.23,6.46,6.46,0,0,0,1,.16h.72a.61.61,0,0,1,.51.41.53.53,0,0,1,0,.39h0a.65.65,0,0,1-.31.36.64.64,0,0,1-.47,0h-.16a3.86,3.86,0,0,1-.51-.2,6.6,6.6,0,0,0-1-.28.37.37,0,0,0-.26.1l0,0h-.23a7.42,7.42,0,0,1-3.2,4.08,1.08,1.08,0,0,0,.08.19v0l0,0a.4.4,0,0,0,0,.3,5.58,5.58,0,0,0,.51.88,2.88,2.88,0,0,1,.23.34l.08.11.07.17a.61.61,0,0,1,0,.64.75.75,0,0,1-.31.25A.54.54,0,0,1,416.65,23.11Zm-1.41-2.31a.44.44,0,0,1,.29.19,5.53,5.53,0,0,1,.4,1c.05.17.1.34.16.51l.08.13a.5.5,0,0,0,.27.3.48.48,0,0,0,.39,0,.64.64,0,0,0,.25-.21.51.51,0,0,0,0-.53l-.07-.17-.07-.1c-.08-.11-.15-.23-.23-.33a7,7,0,0,1-.52-.92.42.42,0,0,1,.05-.36,1,1,0,0,1-.09-.21l0,0,0,0A7.35,7.35,0,0,0,419.38,16v0h.27a.48.48,0,0,1,.33-.12h0a6.36,6.36,0,0,1,1,.29l.5.2h.16a.53.53,0,0,0,.39,0,.55.55,0,0,0,.26-.3h0a.54.54,0,0,0,0-.31.48.48,0,0,0-.42-.34h-.71a6.85,6.85,0,0,1-1-.16h0a.88.88,0,0,1-.26-.25l-.25-.08v-.05a7.27,7.27,0,0,0-1.18-5.12l0,0,.21-.19a.47.47,0,0,1,.13-.34,4.92,4.92,0,0,1,.85-.61,3.59,3.59,0,0,0,.47-.27l.11-.1a.51.51,0,0,0,.18-.71.53.53,0,0,0-.27-.22.53.53,0,0,0-.53.13l-.14.11a3.28,3.28,0,0,0-.36.38,5.12,5.12,0,0,1-.76.71h0a.56.56,0,0,1-.34,0l-.24.18,0,0A7.3,7.3,0,0,0,413,6.41h0V6.13a.5.5,0,0,1-.18-.31,4.37,4.37,0,0,1,.06-1c0-.17.06-.35.08-.53V4.1a.55.55,0,0,0-.52-.57h0a.55.55,0,0,0-.51.57v.16a2.52,2.52,0,0,0,.05.37.9.9,0,0,1,0,.16,4.32,4.32,0,0,1,.06,1,.64.64,0,0,1-.19.33v.26h-.05a7.11,7.11,0,0,0-4.7,2.25l0,0-.22-.15a.47.47,0,0,1-.35,0,4.34,4.34,0,0,1-.78-.7,3.5,3.5,0,0,0-.38-.39l-.12-.1a.59.59,0,0,0-.36-.13h0a.46.46,0,0,0-.38.18.56.56,0,0,0,.13.76l.12.09.42.25.05,0a5.53,5.53,0,0,1,.86.6.57.57,0,0,1,.12.35l.21.18,0,0a7.2,7.2,0,0,0-1.16,5.08v.05l-.27.08a.82.82,0,0,1-.24.25h0a5.76,5.76,0,0,1-1,.17,5,5,0,0,0-.55,0H403a.52.52,0,0,0-.44.58.54.54,0,0,0,.15.29.51.51,0,0,0,.52.13h.16a4.29,4.29,0,0,0,.5-.19,6.54,6.54,0,0,1,1-.29h0a.7.7,0,0,1,.35.12h.28v0A7.28,7.28,0,0,0,408.75,20l0,0-.11.24a.75.75,0,0,1,0,.33h0a5.41,5.41,0,0,1-.53.94c-.1.15-.2.3-.29.45l-.07.15a.52.52,0,0,0,.19.71.53.53,0,0,0,.3.07.5.5,0,0,0,.43-.34l.07-.14c.06-.16.12-.34.17-.51a4.59,4.59,0,0,1,.43-1h0a.6.6,0,0,1,.25-.13l.14-.25.05,0a7.28,7.28,0,0,0,5.2,0l.05,0Zm-2.89-1.17a5.74,5.74,0,0,1-1.92-.33l-.06,0,0-.06,1.45-2.59a.54.54,0,0,1,.42-.28v0h.07a.56.56,0,0,1,.49.29l1.48,2.66-.64.19A5.42,5.42,0,0,1,412.35,19.63Zm-1.82-.41a5.76,5.76,0,0,0,3.11.15l.51-.15-1.42-2.55a.45.45,0,0,0-.36-.23v0h-.05a.4.4,0,0,0-.37.22Zm5-.45-1.16-2.83a.55.55,0,0,1,.28-.72h.15v-.07H415l3,.51,0,.06a5.81,5.81,0,0,1-2.38,3Zm-.76-3.45h-.08a.43.43,0,0,0-.22.57l1.12,2.71a5.76,5.76,0,0,0,2.26-2.88L415,15.25h-.06v.09h-.13Zm-5.62,3.39,0,0a6,6,0,0,1-2.38-3l0-.06h.06l2.93-.5h.17a.54.54,0,0,1,.45.24.55.55,0,0,1,0,.53Zm-2.31-3a5.89,5.89,0,0,0,2.26,2.83l1.11-2.69a.45.45,0,0,0,0-.42.41.41,0,0,0-.35-.19h-.16Zm5.53-.9h0l-.85-.4v0l-.2-.91.6-.75h1v0l.58.73v0l-.21.92Zm-.77-.49.77.37.77-.37.2-.83-.53-.67H412l-.54.67Zm6.69.05-.06,0-2.87-.82a.55.55,0,0,1-.4-.67.57.57,0,0,1,.17-.28l2.2-2v-.18l.11.16a6.17,6.17,0,0,1,.85,3.73Zm-.91-3.67-2.17,2a.44.44,0,0,0-.14.22.44.44,0,0,0,0,.34.47.47,0,0,0,.27.21l2.81.8A6.07,6.07,0,0,0,417.38,10.71Zm-10.87,3.66v-.06a6,6,0,0,1,.84-3.74l0,0,0,0,2.24,2a.55.55,0,0,1,.05.78.46.46,0,0,1-.28.17Zm.89-3.66a5.79,5.79,0,0,0-.79,3.52l2.8-.8a.43.43,0,0,0,.23-.14.45.45,0,0,0-.05-.63Zm3.59.72a.6.6,0,0,1-.29-.08l-2.51-1.84.05,0A5.9,5.9,0,0,1,411.09,8l.6-.1v0h.06V8l-.17,2.92a.56.56,0,0,1-.31.48A.54.54,0,0,1,411,11.43ZM408.37,9.5l2.39,1.76a.45.45,0,0,0,.46,0,.48.48,0,0,0,.26-.38l.16-2.9-.53.09A5.73,5.73,0,0,0,408.37,9.5Zm5.41,1.9a.55.55,0,0,1-.55-.55l-.17-3h.07a6.05,6.05,0,0,1,3.43,1.65l.05,0-2.48,1.76A.55.55,0,0,1,413.78,11.4Zm-.6-3.47.15,2.92a.48.48,0,0,0,.27.4.43.43,0,0,0,.46-.06l2.37-1.68A6,6,0,0,0,413.18,7.93Z"/><g class="cls-9"><rect x="224.15" y="215.61" width="513.76" height="0.5"/><rect x="737.55" y="173.98" width="0.5" height="42.13"/><rect x="613.93" y="173.98" width="0.5" height="41.93"/><rect x="457.88" y="173.98" width="0.5" height="42.02"/><rect x="330.43" y="173.98" width="0.5" height="42.1"/><rect x="224.15" y="145.02" width="0.5" height="71.03"/></g><path class="cls-4" d="M347.35,234.94l.48-.92a4.06,4.06,0,0,0,2.24.66c1.06,0,1.51-.32,1.51-.86,0-1.43-4-.19-4-2.73,0-1.14,1-1.91,2.65-1.91a4.66,4.66,0,0,1,2.32.58l-.5.91a3.31,3.31,0,0,0-1.83-.5c-1,0-1.5.37-1.5.88,0,1.5,4,.27,4,2.75,0,1.15-1.06,1.88-2.75,1.88A4.59,4.59,0,0,1,347.35,234.94Z"/><path class="cls-4" d="M355.47,228.69v.56h1.85v.94h-1.83v5.42h-1.15v-5.42h-1.08v-.94h1.08v-.57a1.91,1.91,0,0,1,2.1-2.05,2.19,2.19,0,0,1,1.3.37l-.35.88a1.49,1.49,0,0,0-.89-.3C355.82,227.58,355.47,228,355.47,228.69Z"/><path class="cls-4" d="M365.36,230.13c0,1.83-1.32,2.93-3.5,2.93h-2.08v2.55h-1.2V227.2h3.28C364,227.2,365.36,228.31,365.36,230.13Zm-1.2,0c0-1.2-.8-1.88-2.34-1.88h-2V232h2C363.36,232,364.16,231.33,364.16,230.13Z"/><path class="cls-4" d="M366.35,232.43a3.31,3.31,0,1,1,3.31,3.25A3.17,3.17,0,0,1,366.35,232.43Zm5.45,0a2.14,2.14,0,1,0-2.14,2.24A2.09,2.09,0,0,0,371.8,232.43Z"/><path class="cls-4" d="M380.57,226.7v8.91h-1.11v-1a2.68,2.68,0,0,1-2.27,1.08,3.25,3.25,0,0,1,0-6.5,2.71,2.71,0,0,1,2.23,1V226.7Zm-1.14,5.73a2.15,2.15,0,1,0-2.14,2.24A2.1,2.1,0,0,0,379.43,232.43Z"/><path class="cls-4" d="M385.4,232.43a3.18,3.18,0,0,1,3.36-3.25,2.83,2.83,0,0,1,2.59,1.36l-.87.57a2,2,0,0,0-1.73-.92,2.24,2.24,0,0,0,0,4.48,2,2,0,0,0,1.73-.91l.87.55a2.84,2.84,0,0,1-2.59,1.37A3.19,3.19,0,0,1,385.4,232.43Z"/><path class="cls-4" d="M392.16,232.43a3.31,3.31,0,1,1,3.31,3.25A3.17,3.17,0,0,1,392.16,232.43Zm5.45,0a2.15,2.15,0,1,0-2.14,2.24A2.09,2.09,0,0,0,397.61,232.43Z"/><path class="cls-4" d="M400.37,226.7h1.16v8.91h-1.16Z"/><path class="cls-4" d="M403.72,226.7h1.16v8.91h-1.16Z"/><path class="cls-4" d="M412.8,232.81h-5.16a2.14,2.14,0,0,0,2.3,1.86,2.37,2.37,0,0,0,1.84-.77l.64.75a3.47,3.47,0,0,1-5.93-2.22,3.12,3.12,0,0,1,3.19-3.25,3.08,3.08,0,0,1,3.15,3.28A2.16,2.16,0,0,1,412.8,232.81Zm-5.16-.83h4.08a2.05,2.05,0,0,0-4.08,0Z"/><path class="cls-4" d="M413.84,232.43a3.18,3.18,0,0,1,3.36-3.25,2.83,2.83,0,0,1,2.59,1.36l-.87.57a2,2,0,0,0-1.73-.92,2.24,2.24,0,0,0,0,4.48,2,2,0,0,0,1.73-.91l.87.55a2.84,2.84,0,0,1-2.59,1.37A3.19,3.19,0,0,1,413.84,232.43Z"/><path class="cls-4" d="M424.94,235.24a2.14,2.14,0,0,1-1.39.44,1.82,1.82,0,0,1-2-2v-3.5h-1.08v-.94h1.08v-1.4h1.16v1.4h1.82v.94h-1.82v3.45a.94.94,0,0,0,1,1.07,1.45,1.45,0,0,0,.9-.3Z"/><path class="cls-4" d="M425.53,234.94,426,234a4.06,4.06,0,0,0,2.24.66c1.07,0,1.51-.32,1.51-.86,0-1.43-4-.19-4-2.73,0-1.14,1-1.91,2.65-1.91a4.63,4.63,0,0,1,2.32.58l-.49.91a3.36,3.36,0,0,0-1.84-.5c-1,0-1.5.37-1.5.88,0,1.5,4,.27,4,2.75,0,1.15-1.05,1.88-2.75,1.88A4.62,4.62,0,0,1,425.53,234.94Z"/><path class="cls-4" d="M435.59,226.7h1.15v8.91h-1.15Z"/><path class="cls-4" d="M438.35,232.43a3.31,3.31,0,1,1,3.31,3.25A3.17,3.17,0,0,1,438.35,232.43Zm5.45,0a2.15,2.15,0,1,0-2.14,2.24A2.09,2.09,0,0,0,443.8,232.43Z"/><path class="cls-4" d="M452.65,229.25v5.5c0,2.24-1.14,3.26-3.3,3.26a4.68,4.68,0,0,1-3-.95l.55-.89a3.87,3.87,0,0,0,2.45.83c1.5,0,2.19-.69,2.19-2.13v-.51a2.92,2.92,0,0,1-2.3,1,3.08,3.08,0,1,1,0-6.16,2.91,2.91,0,0,1,2.36,1v-1Zm-1.13,3a2.19,2.19,0,0,0-4.38,0,2.19,2.19,0,0,0,4.38,0Z"/><path class="cls-4" d="M454,234.94l.48-.92a4.06,4.06,0,0,0,2.24.66c1.07,0,1.51-.32,1.51-.86,0-1.43-4-.19-4-2.73,0-1.14,1-1.91,2.65-1.91a4.63,4.63,0,0,1,2.32.58l-.49.91a3.36,3.36,0,0,0-1.84-.5c-1,0-1.5.37-1.5.88,0,1.5,4,.27,4,2.75,0,1.15-1.05,1.88-2.75,1.88A4.62,4.62,0,0,1,454,234.94Z"/><path class="cls-4" d="M465.39,228.69v.56h1.85v.94h-1.82v5.42h-1.16v-5.42h-1.08v-.94h1.08v-.57a1.91,1.91,0,0,1,2.11-2.05,2.14,2.14,0,0,1,1.29.37l-.34.88a1.54,1.54,0,0,0-.89-.3C465.74,227.58,465.39,228,465.39,228.69Z"/><path class="cls-4" d="M472.72,229.18v1.12h-.27a1.9,1.9,0,0,0-2,2.15v3.17H469.3v-6.36h1.1v1.06A2.44,2.44,0,0,1,472.72,229.18Z"/><path class="cls-4" d="M473.49,232.43a3.31,3.31,0,1,1,3.31,3.25A3.17,3.17,0,0,1,473.49,232.43Zm5.45,0a2.15,2.15,0,1,0-2.14,2.24A2.09,2.09,0,0,0,478.94,232.43Z"/><path class="cls-4" d="M492.27,232v3.66h-1.15v-3.53c0-1.25-.6-1.86-1.65-1.86a1.85,1.85,0,0,0-1.91,2.11v3.28h-1.15v-3.53c0-1.25-.6-1.86-1.65-1.86s-1.9.73-1.9,2.11v3.28H481.7v-6.36h1.11v.94a2.56,2.56,0,0,1,2.19-1,2.36,2.36,0,0,1,2.21,1.18,2.87,2.87,0,0,1,2.45-1.18A2.45,2.45,0,0,1,492.27,232Z"/><path class="cls-4" d="M496.82,234.94l.48-.92a4.06,4.06,0,0,0,2.24.66c1.07,0,1.51-.32,1.51-.86,0-1.43-4-.19-4-2.73,0-1.14,1-1.91,2.65-1.91a4.66,4.66,0,0,1,2.32.58l-.49.91a3.36,3.36,0,0,0-1.84-.5c-1,0-1.5.37-1.5.88,0,1.5,4,.27,4,2.75,0,1.15-1.05,1.88-2.75,1.88A4.62,4.62,0,0,1,496.82,234.94Z"/><path class="cls-4" d="M507.22,235.24a2.16,2.16,0,0,1-1.39.44,1.82,1.82,0,0,1-2-2v-3.5h-1.08v-.94h1.08v-1.4H505v1.4h1.83v.94H505v3.45a.94.94,0,0,0,1,1.07,1.45,1.45,0,0,0,.9-.3Z"/><path class="cls-4" d="M513.66,231.77v3.84h-1.09v-.84a2.39,2.39,0,0,1-2.09.91c-1.45,0-2.36-.77-2.36-1.87s.66-1.86,2.56-1.86h1.83v-.23c0-1-.57-1.54-1.71-1.54a3.22,3.22,0,0,0-2,.69l-.48-.87a4.23,4.23,0,0,1,2.63-.82C512.67,229.18,513.66,230,513.66,231.77Zm-1.15,1.89v-.88h-1.78c-1.14,0-1.47.44-1.47,1s.53,1,1.41,1A1.85,1.85,0,0,0,512.51,233.66Z"/><path class="cls-4" d="M521.84,232v3.66h-1.16v-3.53c0-1.25-.62-1.86-1.71-1.86a1.89,1.89,0,0,0-2,2.11v3.28H515.8v-6.36h1.1v1a2.74,2.74,0,0,1,2.29-1A2.47,2.47,0,0,1,521.84,232Z"/><path class="cls-4" d="M530,226.7v8.91h-1.11v-1a2.69,2.69,0,0,1-2.27,1.08,3.25,3.25,0,0,1,0-6.5,2.7,2.7,0,0,1,2.22,1V226.7Zm-1.15,5.73a2.14,2.14,0,1,0-2.13,2.24A2.09,2.09,0,0,0,528.87,232.43Z"/><path class="cls-4" d="M537.25,231.77v3.84h-1.1v-.84a2.37,2.37,0,0,1-2.09.91c-1.44,0-2.35-.77-2.35-1.87s.66-1.86,2.56-1.86h1.82v-.23c0-1-.56-1.54-1.7-1.54a3.22,3.22,0,0,0-2,.69l-.48-.87a4.23,4.23,0,0,1,2.63-.82C536.26,229.18,537.25,230,537.25,231.77Zm-1.16,1.89v-.88h-1.77c-1.15,0-1.47.44-1.47,1s.53,1,1.41,1A1.83,1.83,0,0,0,536.09,233.66Z"/><path class="cls-4" d="M542.81,229.18v1.12h-.27a1.9,1.9,0,0,0-2,2.15v3.17h-1.16v-6.36h1.11v1.06A2.44,2.44,0,0,1,542.81,229.18Z"/><path class="cls-4" d="M550.17,226.7v8.91h-1.11v-1a2.68,2.68,0,0,1-2.27,1.08,3.25,3.25,0,0,1,0-6.5,2.72,2.72,0,0,1,2.23,1V226.7ZM549,232.43a2.15,2.15,0,1,0-2.14,2.24A2.1,2.1,0,0,0,549,232.43Z"/><path class="cls-4" d="M558.49,231.88,557,233.44v2.17h-1.2V227.2H557v4.7l4.57-4.7h1.37L559.3,231l3.81,4.62h-1.4Z"/><path class="cls-4" d="M570.07,233.23c0,1.53-1.3,2.48-3.35,2.48s-3.33-1-3.33-2.48a2.09,2.09,0,0,1,1.48-2,1.89,1.89,0,0,1-1.18-1.81c0-1.41,1.21-2.28,3-2.28s3,.87,3,2.28a1.9,1.9,0,0,1-1.19,1.81A2.09,2.09,0,0,1,570.07,233.23Zm-1.2,0c0-.93-.82-1.51-2.15-1.51s-2.13.58-2.13,1.51.79,1.53,2.13,1.53S568.87,234.14,568.87,233.2Zm-4-3.76c0,.83.69,1.34,1.84,1.34s1.87-.51,1.87-1.34-.74-1.36-1.87-1.36S564.88,228.6,564.88,229.44Z"/><path class="cls-4" d="M571.09,234.65l.44-.94a4.32,4.32,0,0,0,2.78,1c1.45,0,2.08-.56,2.08-1.29,0-2.06-5.1-.76-5.1-3.88,0-1.3,1-2.4,3.22-2.4a4.91,4.91,0,0,1,2.7.74l-.39,1a4.31,4.31,0,0,0-2.31-.68c-1.43,0-2,.6-2,1.33,0,2,5.09.77,5.09,3.86,0,1.28-1,2.39-3.25,2.39A5,5,0,0,1,571.09,234.65Z"/><path class="cls-4" d="M582.38,226.7h1.15v8.91h-1.15Z"/><path class="cls-4" d="M585.14,232.43a3.31,3.31,0,1,1,3.31,3.25A3.17,3.17,0,0,1,585.14,232.43Zm5.45,0a2.14,2.14,0,1,0-2.14,2.24A2.09,2.09,0,0,0,590.59,232.43Z"/><path class="cls-4" d="M599.44,229.25v5.5c0,2.24-1.14,3.26-3.3,3.26a4.7,4.7,0,0,1-3-.95l.55-.89a3.88,3.88,0,0,0,2.46.83c1.5,0,2.18-.69,2.18-2.13v-.51a2.9,2.9,0,0,1-2.29,1,3.08,3.08,0,1,1,0-6.16,2.89,2.89,0,0,1,2.35,1v-1Zm-1.12,3a2.2,2.2,0,1,0-2.19,2.08A2,2,0,0,0,598.32,232.26Z"/><path class="cls-4" d="M607.14,226.63a2.19,2.19,0,0,1,1.3.37l-.35.88a1.49,1.49,0,0,0-.89-.3c-.68,0-1,.38-1,1.11v.56H608v.94h-1.83v5.42H605v-5.42H604v-.94H605v-.57A1.91,1.91,0,0,1,607.14,226.63Zm2.73.65a.76.76,0,0,1,.78-.76.75.75,0,0,1,.78.73.76.76,0,0,1-.78.77A.74.74,0,0,1,609.87,227.28Zm.2,2h1.15v6.36h-1.15Z"/><path class="cls-4" d="M613.42,226.7h1.16v8.91h-1.16Z"/><path class="cls-4" d="M622.5,232.81h-5.16a2.14,2.14,0,0,0,2.3,1.86,2.37,2.37,0,0,0,1.84-.77l.64.75a3.48,3.48,0,0,1-5.94-2.22,3.12,3.12,0,0,1,3.2-3.25,3.07,3.07,0,0,1,3.14,3.28C622.52,232.56,622.51,232.7,622.5,232.81Zm-5.16-.83h4.08a2.05,2.05,0,0,0-4.08,0Z"/><path class="cls-4" d="M623.32,234.94l.48-.92a4,4,0,0,0,2.23.66c1.07,0,1.52-.32,1.52-.86,0-1.43-4-.19-4-2.73,0-1.14,1-1.91,2.66-1.91a4.59,4.59,0,0,1,2.31.58l-.49.91a3.32,3.32,0,0,0-1.84-.5c-1,0-1.5.37-1.5.88,0,1.5,4,.27,4,2.75,0,1.15-1.06,1.88-2.75,1.88A4.59,4.59,0,0,1,623.32,234.94Z"/><path class="cls-4" d="M629.6,234.85a.8.8,0,0,1,.82-.81.78.78,0,0,1,.79.81.8.8,0,0,1-.79.83A.81.81,0,0,1,629.6,234.85Z"/><g class="cls-9"><path d="M128.11,202.56l4.92-2.43V205Z"/><polygon points="137.39 202.81 131.52 202.81 131.52 202.31 136.89 202.31 136.89 143.63 152.34 143.63 152.34 144.13 137.39 144.13 137.39 202.81"/></g><rect class="cls-6" x="0.25" y="185.55" width="126.51" height="35.09" rx="2.11"/><path class="cls-3" d="M124.65,185.8a1.86,1.86,0,0,1,1.86,1.86v30.87a1.86,1.86,0,0,1-1.86,1.86H2.36A1.86,1.86,0,0,1,.5,218.53V187.66a1.86,1.86,0,0,1,1.86-1.86H124.65m0-.5H2.36A2.36,2.36,0,0,0,0,187.66v30.87a2.36,2.36,0,0,0,2.36,2.36H124.65a2.36,2.36,0,0,0,2.36-2.36V187.66a2.36,2.36,0,0,0-2.36-2.36Z"/><g class="cls-7"><path class="cls-8" d="M46.07,206.28l.49-.91a4,4,0,0,0,2.23.66c1.07,0,1.51-.32,1.51-.86,0-1.43-4-.19-4-2.73,0-1.14,1-1.91,2.65-1.91a4.63,4.63,0,0,1,2.32.58l-.49.91a3.34,3.34,0,0,0-1.84-.5c-1,0-1.5.37-1.5.87,0,1.5,4,.28,4,2.75,0,1.16-1.05,1.89-2.75,1.89A4.54,4.54,0,0,1,46.07,206.28Z"/><path class="cls-8" d="M54.19,200v.55H56v.95H54.22V207H53.06v-5.42H52v-.95h1.08V200A1.92,1.92,0,0,1,55.17,198a2.08,2.08,0,0,1,1.29.38l-.35.87a1.48,1.48,0,0,0-.88-.3C54.54,198.92,54.19,199.31,54.19,200Z"/><path class="cls-8" d="M57.3,198.55h3.55c2.7,0,4.54,1.71,4.54,4.2S63.55,207,60.85,207H57.3Zm3.47,7.36a3.16,3.16,0,1,0,0-6.31H58.5v6.31Z"/><path class="cls-8" d="M72.1,203.11V207H71v-.84a2.39,2.39,0,0,1-2.09.91c-1.44,0-2.36-.77-2.36-1.87s.66-1.87,2.56-1.87H71v-.22c0-1-.57-1.54-1.71-1.54a3.23,3.23,0,0,0-2,.68l-.48-.86a4.23,4.23,0,0,1,2.63-.82C71.11,200.53,72.1,201.37,72.1,203.11ZM71,205v-.89H69.17c-1.14,0-1.47.45-1.47,1s.53,1,1.41,1A1.86,1.86,0,0,0,71,205Z"/><path class="cls-8" d="M77.82,206.59a2.25,2.25,0,0,1-1.4.44,1.82,1.82,0,0,1-2-2v-3.5H73.32v-.95H74.4V199.2h1.16v1.39h1.82v.95H75.56V205a.94.94,0,0,0,1,1.07,1.48,1.48,0,0,0,.91-.3Z"/><path class="cls-8" d="M84.25,203.11V207H83.16v-.84a2.38,2.38,0,0,1-2.09.91c-1.44,0-2.35-.77-2.35-1.87s.66-1.87,2.55-1.87H83.1v-.22c0-1-.57-1.54-1.71-1.54a3.2,3.2,0,0,0-2,.68l-.48-.86a4.23,4.23,0,0,1,2.63-.82C83.27,200.53,84.25,201.37,84.25,203.11ZM83.1,205v-.89H81.32c-1.14,0-1.46.45-1.46,1s.53,1,1.4,1A1.85,1.85,0,0,0,83.1,205Z"/><path class="cls-8" d="M85.59,206.28l.48-.91a4,4,0,0,0,2.23.66c1.07,0,1.51-.32,1.51-.86,0-1.43-4-.19-4-2.73,0-1.14,1-1.91,2.65-1.91a4.63,4.63,0,0,1,2.32.58l-.49.91a3.34,3.34,0,0,0-1.84-.5c-1,0-1.5.37-1.5.87,0,1.5,4,.28,4,2.75,0,1.16-1.06,1.89-2.75,1.89A4.49,4.49,0,0,1,85.59,206.28Z"/><path class="cls-8" d="M96,206.59a2.25,2.25,0,0,1-1.4.44,1.81,1.81,0,0,1-2-2v-3.5H91.49v-.95h1.09V199.2h1.15v1.39h1.82v.95H93.73V205a.94.94,0,0,0,1,1.07,1.48,1.48,0,0,0,.9-.3Z"/><path class="cls-8" d="M96.57,203.77A3.31,3.31,0,1,1,99.89,207,3.17,3.17,0,0,1,96.57,203.77Zm5.46,0A2.15,2.15,0,1,0,99.89,206,2.09,2.09,0,0,0,102,203.77Z"/><path class="cls-8" d="M108.21,200.53v1.12H108a1.9,1.9,0,0,0-2,2.15V207h-1.15v-6.37h1.1v1.07A2.45,2.45,0,0,1,108.21,200.53Z"/><path class="cls-8" d="M115.3,204.16h-5.17a2.16,2.16,0,0,0,2.31,1.86,2.38,2.38,0,0,0,1.84-.77l.63.75a3.47,3.47,0,0,1-5.93-2.23,3.12,3.12,0,0,1,3.19-3.24,3.07,3.07,0,0,1,3.15,3.28C115.32,203.91,115.31,204.05,115.3,204.16Zm-5.17-.83h4.09a2.06,2.06,0,0,0-4.09,0Z"/></g><circle class="cls-8" cx="30.56" cy="205.32" r="0.39"/><circle class="cls-8" cx="30.56" cy="210.25" r="0.39"/><circle class="cls-8" cx="28.21" cy="205.32" r="0.39"/><circle class="cls-8" cx="28.21" cy="210.25" r="0.39"/><path class="cls-8" d="M22,196.6h-.22a2.16,2.16,0,0,0,0,4.31h4.89v1.56H21.18a.38.38,0,0,0-.39.39v9.85a.39.39,0,0,0,.39.4H29a.4.4,0,1,0,0-.79H21.57v-4.14h11v4.14H28.8a.4.4,0,0,0,0,.79h4.11a.4.4,0,0,0,.39-.4v-9.85a.39.39,0,0,0-.39-.39H27.43v-1.56h4.89a2.16,2.16,0,0,0,0-4.31H32.1a2.75,2.75,0,0,0-2.71-2.34,2.63,2.63,0,0,0-.67.09,3.86,3.86,0,0,0-2.85-1.27A3.91,3.91,0,0,0,22,196.6Zm10.54,6.65v4.15h-11v-4.15Zm-6.65-9.38A3.08,3.08,0,0,1,28.29,195a.39.39,0,0,0,.44.12A1.94,1.94,0,0,1,31.34,197a.4.4,0,0,0,.39.4h.59a1.37,1.37,0,1,1,0,2.73H21.76a1.37,1.37,0,1,1,0-2.73h.59a.39.39,0,0,0,.39-.4A3.13,3.13,0,0,1,25.87,193.87Z"/><path class="cls-12" d="M76.48,82.74a5.15,5.15,0,0,1-3.88-2.16c-.44-.55-.57-1.29.36-1.29a15,15,0,0,0,8.34-2.4,8.45,8.45,0,0,1-4.84,3.25c-.49.16-1.29,0-1.36.71s.43,1,.83,1.3Z"/><path class="cls-13" d="M47.46,96.45c.68-1.61,1.89-2.93,2.25-4.67a.45.45,0,0,1,.47-.43.44.44,0,0,1,.31.13c1.82,1.55,4,1.29,6.17,1.29A8.37,8.37,0,0,1,52,93.4a2,2,0,0,0-2.12.81A7.61,7.61,0,0,1,47.46,96.45Z"/><path class="cls-13" d="M51.82,79.64a12.6,12.6,0,0,0,3.53,1.73A10.93,10.93,0,0,0,51.3,84.9l-.55-1.63c.19-.22.35-.48.55-.67.74-.65.74-1.29-.06-1.82Z"/><path class="cls-13" d="M49.23,88.78a13.37,13.37,0,0,1-2.18,3.72,1.3,1.3,0,0,1-1.77.48l-.2-.14L48.21,88Z"/><path class="cls-13" d="M49.23,88.78l-1-.76a30.83,30.83,0,0,1,2.59-4.67l.5,1.55A28.88,28.88,0,0,1,49.23,88.78Z"/><path class="cls-13" d="M51.82,79.64l-.58,1.15c-1.42-1.59-1.29-3.14.3-4.37A5,5,0,0,0,51.82,79.64Z"/><path class="cls-13" d="M67.14,72.61A19.06,19.06,0,0,0,57.9,72c-.93-.09-1.85.33-2.77,0-1.18.44-1.22.51-.66,1a36.52,36.52,0,0,1,5.82.23A36.52,36.52,0,0,0,54.47,73a4.11,4.11,0,0,0,1.71.91,16.21,16.21,0,0,0,9.95.56,2.1,2.1,0,0,0,1.3-.44,3.44,3.44,0,0,0,1.51-.31A3.21,3.21,0,0,0,67.14,72.61Z"/><path class="cls-14" d="M76.51,73.83a.94.94,0,0,1-1.88.16,1,1,0,0,1,0-.17.85.85,0,0,1,.83-.88h.06a.91.91,0,0,1,1,.83Z"/><path class="cls-13" d="M65.3,87.49A29.51,29.51,0,0,0,74,86.36a18.3,18.3,0,0,1,8-.44c-.17.4-.32.82-.49,1.22a18.86,18.86,0,0,0-9,1,1.56,1.56,0,0,0-1.54-.27l-6.66,1a2.88,2.88,0,0,0-1.52.56l-1.29-.3v-.72C62.86,88.26,64.32,88.66,65.3,87.49Z"/><path class="cls-13" d="M62.82,89.46a2.93,2.93,0,0,1,1.53-.55l6.66-1a1.55,1.55,0,0,1,1.53.28,30.41,30.41,0,0,1-5.84,1.74A8.68,8.68,0,0,1,62.82,89.46Z"/><path class="cls-13" d="M81.54,87.11c.17-.4.33-.81.49-1.21.88.42,2.12.37,2.33,1.72Z"/><path class="cls-13" d="M65.3,87.49c-1,1.2-2.49.8-3.8,1v-.79a3.91,3.91,0,0,0,2.06-.5Z"/><path class="cls-13" d="M63.64,87.15a3.82,3.82,0,0,1-2.06.5L61,85.39h0Z"/><path class="cls-15" d="M75.54,74.8c.61,0,.91-.35,1-1a.89.89,0,0,0-.91-.89h-.07a.85.85,0,0,0-.89.82v.06a.87.87,0,0,0,.74,1A.86.86,0,0,0,75.54,74.8Z"/><path class="cls-8" d="M55.35,81.37A10.93,10.93,0,0,0,51.3,84.9a28.88,28.88,0,0,1-2.07,3.88,13.37,13.37,0,0,1-2.18,3.72,1.3,1.3,0,0,1-1.77.48l-.2-.14a19.69,19.69,0,0,1-4,3.61c-.95.55-.66.93.14,1.29a5.9,5.9,0,0,0,6.2-1.18c.68-1.6,1.89-2.92,2.25-4.66a.46.46,0,0,1,.47-.44.5.5,0,0,1,.31.14c1.82,1.55,4,1.29,6.17,1.29a7.6,7.6,0,0,0,4.86-3.62V87.76l-.58-2.26h0l2.58,1.78,1.78.21A29.51,29.51,0,0,0,74,86.36a18.3,18.3,0,0,1,8-.44c.88.43,2.12.38,2.33,1.72a3.54,3.54,0,0,1,.62.16c.44.09,1,.49,1.29,0s-.13-.88-.35-1.3a5.7,5.7,0,0,0-4.2-2.58,39.63,39.63,0,0,1-5.25-1.14,5.18,5.18,0,0,1-3.88-2.16c-.43-.55-.56-1.29.37-1.29a15,15,0,0,0,8.34-2.41c1.29-1.77,1.29-2.25-.34-3.78a13.36,13.36,0,0,0-5.53-3.09c-7-2.15-13.76-1-20.29,2,.92.27,1.84-.14,2.77,0a19.3,19.3,0,0,1,9.24.61,3.28,3.28,0,0,1,1.84,1.2,6.37,6.37,0,0,1-2,3.27,11.17,11.17,0,0,1-7.18,2.59m15.81-6.8a.91.91,0,0,1,1,.82v.07a.94.94,0,1,1-1.87,0,.86.86,0,0,1,.84-.87h0Z"/><path class="cls-13" d="M59.72,79.73a15.86,15.86,0,0,1-3.88-.48,13.22,13.22,0,0,1-4.34-2.84,5,5,0,0,0,.28,3.22,12.87,12.87,0,0,0,3.53,1.73"/><path class="cls-13" d="M59.72,79.73h0a17.19,17.19,0,0,0-4.37,1.63,17.19,17.19,0,0,1,4.37-1.63"/><path d="M29,111.76a2.92,2.92,0,0,1-1.08,2.43,4.29,4.29,0,0,1-2.71.92,4.49,4.49,0,0,1-2.58-.79,4.57,4.57,0,0,1-1.57-2.26l1.39-.6a2.38,2.38,0,0,0,.45,1,3,3,0,0,0,.6.73,1.9,1.9,0,0,0,.74.43,1.78,1.78,0,0,0,.88.14,2.57,2.57,0,0,0,1.69-.53,1.72,1.72,0,0,0,.64-1.4,1.59,1.59,0,0,0-.52-1.25A4.53,4.53,0,0,0,25,109.6c-1-.36-1.48-.58-1.77-.65a2.93,2.93,0,0,1-1.71-3.79,3,3,0,0,1,.85-1.19,3.75,3.75,0,0,1,2.56-.91,3.85,3.85,0,0,1,2.28.64,3.25,3.25,0,0,1,1.34,1.67l-1.39.6a2.28,2.28,0,0,0-3.61-1,1.41,1.41,0,0,0-.57,1.18,1.48,1.48,0,0,0,.45,1,7.32,7.32,0,0,0,2.29,1,5.32,5.32,0,0,1,2.51,1.45A3.61,3.61,0,0,1,29,111.76Z"/><path d="M30.52,107h1.4v1.1H32a2.91,2.91,0,0,1,2.5-1.32,3,3,0,0,1,2.2.8A3.27,3.27,0,0,1,37.5,110v5H36v-4.85c0-1.32-.66-1.91-2-1.91a1.71,1.71,0,0,0-1.47.74,2.71,2.71,0,0,0-.59,1.69V115H30.52Z"/><path d="M42.28,106.73a3.56,3.56,0,0,1,2.57.88A3.08,3.08,0,0,1,45.8,110v4.85H44.41v-1.11h-.08a2.86,2.86,0,0,1-2.42,1.33,3.31,3.31,0,0,1-2.21-.81,2.23,2.23,0,0,1-.88-1.84,2.36,2.36,0,0,1,1-2,3.85,3.85,0,0,1,2.5-.74,4,4,0,0,1,2.2.52v-.37a1.84,1.84,0,0,0-.59-1.32,2.12,2.12,0,0,0-1.47-.52,2.45,2.45,0,0,0-2,1l-1.32-.81A3.55,3.55,0,0,1,42.28,106.73Zm-1.91,5.73a1.06,1.06,0,0,0,.51,1,1.62,1.62,0,0,0,1.18.36,2.5,2.5,0,0,0,1.68-.66,2,2,0,0,0,.74-1.61,3,3,0,0,0-1.91-.52,2.69,2.69,0,0,0-1.54.44A1.28,1.28,0,0,0,40.37,112.46Z"/><path d="M51.68,115.18a4,4,0,0,1-1.62-.37,2.37,2.37,0,0,1-1.1-1h-.07L49,115v3.45H47.49V107h1.4v1.1H49a2.91,2.91,0,0,1,1.1-1,3.79,3.79,0,0,1,1.62-.36,3.45,3.45,0,0,1,2.64,1.24,4.65,4.65,0,0,1,0,6A3.89,3.89,0,0,1,51.68,115.18Zm-.22-1.32a2.18,2.18,0,0,0,1.76-.81,3.22,3.22,0,0,0,0-4.11,2.43,2.43,0,0,0-1.76-.81,2.49,2.49,0,0,0-1.84.81,3.12,3.12,0,0,0-.73,2,2.83,2.83,0,0,0,.73,2.06A2.53,2.53,0,0,0,51.46,113.86Z"/><path d="M60.86,115.18a3.87,3.87,0,0,1-1.61-.37,2.39,2.39,0,0,1-1.11-1h-.07l.07,1.1v3.45H56.68V107h1.39v1.1h.07a2.86,2.86,0,0,1,1.11-1,3.71,3.71,0,0,1,1.61-.36,3.48,3.48,0,0,1,2.65,1.24,4.68,4.68,0,0,1,0,6A3.92,3.92,0,0,1,60.86,115.18Zm-.29-1.32a2.18,2.18,0,0,0,1.76-.81,3.22,3.22,0,0,0,0-4.11,2.43,2.43,0,0,0-1.76-.81,2.49,2.49,0,0,0-1.84.81,3.12,3.12,0,0,0-.73,2,2.83,2.83,0,0,0,.73,2.06A2.53,2.53,0,0,0,60.57,113.86Z"/><path d="M72.76,107l-5,11.38H66.23l1.83-4L64.83,107h1.62l2.35,5.65h0L71.07,107Z"/><path class="cls-16" d="M75.92,110.26v5H74.45v-11.6h6.76V105H75.92v3.82H80.7v1.4Z"/><path class="cls-16" d="M84.15,103.65v11.6H82.68v-11.6Z"/><path class="cls-16" d="M85.47,111.29a4,4,0,0,1,1.18-3,4.28,4.28,0,0,1,5.88,0,4.1,4.1,0,0,1,1.17,3,4,4,0,0,1-1.17,3,3.8,3.8,0,0,1-2.94,1.17,3.9,3.9,0,0,1-2.94-1.17A4.12,4.12,0,0,1,85.47,111.29Zm1.47,0a2.73,2.73,0,0,0,.74,2,2.49,2.49,0,0,0,3.52.16l.15-.16a3.22,3.22,0,0,0,0-4.11,2.5,2.5,0,0,0-3.52-.16l-.15.16A2.74,2.74,0,0,0,86.94,111.29Z"/><path class="cls-16" d="M106.05,107.32l-2.58,7.93H102l-2-6.09-2,6.09H96.57L94,107.32h1.54l1.76,6h0l2-6h1.54l2,6h0l1.77-6Z"/></g></g></svg>