<svg id="Layer_1" data-name="Layer 1" xmlns="http://www.w3.org/2000/svg" viewBox="0 0 84 80"><defs><style>.cls-1{opacity:0.05;}.cls-2{fill:#fff;}</style></defs><g class="cls-1"><path d="M81.76,38.33A12.67,12.67,0,0,1,69.09,51H66.22L63.5,36.5l-21-11-22,11L16.25,50.94a14.24,14.24,0,0,1-1.54-28.16A9.89,9.89,0,0,1,28.43,15,23.21,23.21,0,0,1,72,26,12.68,12.68,0,0,1,81.76,38.33Z"/></g><path class="cls-2" d="M70.24,58,65.38,36.82a3.76,3.76,0,0,0-2-2.54L43.63,24.89A3.77,3.77,0,0,0,42,24.5h-.13a3.73,3.73,0,0,0-1.46.39L20.62,34.31a3.75,3.75,0,0,0-2,2.53L13.75,58a3.69,3.69,0,0,0,.53,2.89l.21.29,13.64,17a3.79,3.79,0,0,0,2.93,1.39H53a3.84,3.84,0,0,0,2.94-1.4l13.63-17A3.63,3.63,0,0,0,70.24,58Zm-2.66,1.6L54,76.51A1.33,1.33,0,0,1,53,77H31.06a1.24,1.24,0,0,1-1-.46L16.47,59.62l-.12-.17a1.13,1.13,0,0,1-.16-.92L21,37.4a1.22,1.22,0,0,1,.68-.84l19.77-9.43a1.32,1.32,0,0,1,.47-.13h0a1.33,1.33,0,0,1,.6.15l19.71,9.39a1.25,1.25,0,0,1,.68.84l4.87,21.19A1.15,1.15,0,0,1,67.58,59.57Z"/><path class="cls-2" d="M59.74,55.84l-.31-.07a8.76,8.76,0,0,0-1-.08,10.18,10.18,0,0,1-1.9-.31,1.27,1.27,0,0,1-.46-.46l-.43-.13a13.75,13.75,0,0,0-2.2-9.54l.37-.35a.87.87,0,0,1,.2-.6,10.62,10.62,0,0,1,1.57-1.11,8.42,8.42,0,0,0,.88-.51l.24-.19A1.07,1.07,0,0,0,57,41a1.09,1.09,0,0,0-.56-.45,1.07,1.07,0,0,0-1.1.26l-.24.19a8.16,8.16,0,0,0-.7.74A9.58,9.58,0,0,1,53,43.07a1.16,1.16,0,0,1-.64.07l-.4.29a13.9,13.9,0,0,0-8.82-4.25c0-.16,0-.4,0-.48a.81.81,0,0,1-.35-.53,10.32,10.32,0,0,1,.12-1.92,8.48,8.48,0,0,0,.15-1v-.31a1.12,1.12,0,0,0-1-1.18h0a1.12,1.12,0,0,0-1,1.18v.3a8.31,8.31,0,0,0,.15,1,10.41,10.41,0,0,1,.1,1.93,1.22,1.22,0,0,1-.34.55l0,.45a12.44,12.44,0,0,0-1.91.3A13.59,13.59,0,0,0,32,43.4l-.38-.27a.81.81,0,0,1-.63-.06,10.29,10.29,0,0,1-1.43-1.29,8.06,8.06,0,0,0-.69-.74l-.24-.19a1.25,1.25,0,0,0-.74-.28,1,1,0,0,0-.84.38,1.12,1.12,0,0,0,.26,1.56l.22.18a7.73,7.73,0,0,0,.88.51A9.53,9.53,0,0,1,30,44.32a1.21,1.21,0,0,1,.21.61l.35.32a13.7,13.7,0,0,0-2.17,9.56l-.44.13a1.55,1.55,0,0,1-.46.46,10.18,10.18,0,0,1-1.9.31,8.76,8.76,0,0,0-1,.08l-.28.06h0a1.07,1.07,0,0,0-.91,1.21,1,1,0,0,0,1.38.86h0l.29,0c.32-.1.64-.22.95-.35A10,10,0,0,1,27.84,57a1.21,1.21,0,0,1,.61.21l.48-.08A13.74,13.74,0,0,0,35,64.78l-.19.41a1,1,0,0,1,.09.6,9.85,9.85,0,0,1-1,1.74q-.3.41-.57.84l-.13.29a1.07,1.07,0,0,0,.39,1.46,1,1,0,0,0,1.52-.55l.14-.27a9,9,0,0,0,.3-1,7.72,7.72,0,0,1,.82-1.91.83.83,0,0,1,.46-.22l.24-.44a13.73,13.73,0,0,0,9.78,0l.21.4a.86.86,0,0,1,.55.33,9.76,9.76,0,0,1,.72,1.78c.09.33.19.66.31,1l.13.27a1.07,1.07,0,0,0,1.38.62,1.09,1.09,0,0,0,.51-.41,1.07,1.07,0,0,0,0-1.12l-.14-.29a7.76,7.76,0,0,0-.57-.84,11.69,11.69,0,0,1-1-1.69.83.83,0,0,1,.11-.63,3.83,3.83,0,0,1-.17-.43,13.82,13.82,0,0,0,6.08-7.68l.46.08a.85.85,0,0,1,.59-.22,11.88,11.88,0,0,1,1.85.54,6.91,6.91,0,0,0,.95.37l.28.06h0a1.07,1.07,0,0,0,1.34-.69,1.09,1.09,0,0,0,0-.67A1.08,1.08,0,0,0,59.74,55.84ZM49.7,45l-4.52,3.21a1,1,0,0,1-1,.12.94.94,0,0,1-.53-.84L43.34,42A11,11,0,0,1,49.7,45Zm-8.54,6.09h1.71l1,1.32-.38,1.66L42,54.83l-1.54-.73-.36-1.66Zm-1.6-9A10.45,10.45,0,0,1,40.68,42h0l-.32,5.56h0a.94.94,0,0,1-.53.8.87.87,0,0,1-1-.09L34.3,45A10.89,10.89,0,0,1,39.56,42.15Zm-6.92,5,4.17,3.73v0a.93.93,0,0,1,.3.91,1,1,0,0,1-.66.7h0L31.09,54A11,11,0,0,1,32.64,47.1ZM38.2,57v0l-2.12,5.13a11,11,0,0,1-4.39-5.51l5.47-.93h.19a1,1,0,0,1,.78.43A.93.93,0,0,1,38.2,57Zm6.27,6.61a11.06,11.06,0,0,1-6-.31l2.71-4.87a.92.92,0,0,1,.79-.47v0a.94.94,0,0,1,.85.49h0l2.7,4.87Zm3.47-1.44L45.81,57a.94.94,0,0,1,.5-1.23,1.08,1.08,0,0,1,.31-.07v0h.21l5.52.93A10.83,10.83,0,0,1,47.94,62.13ZM53,54l-5.36-1.54v0a.93.93,0,0,1-.66-.69.93.93,0,0,1,.29-.92l4.14-3.7v0A11.19,11.19,0,0,1,53,54Z"/></svg>