<svg id="Layer_1" data-name="Layer 1" xmlns="http://www.w3.org/2000/svg" viewBox="0 0 84 80"><defs><style>.cls-1{opacity:0.05;}.cls-2{fill:#fff;}</style></defs><g class="cls-1"><path d="M81.76,38.33A12.67,12.67,0,0,1,69.09,51H64V37L55,26l-4-1H31c-6,0-8,3-8,3V51H17.5a14.25,14.25,0,0,1-2.79-28.22A9.89,9.89,0,0,1,28.43,15,23.21,23.21,0,0,1,72,26,12.68,12.68,0,0,1,81.76,38.33Z"/></g><path class="cls-2" d="M28.07,79.1a6.54,6.54,0,0,1-6.52-6.53V30.35a6.54,6.54,0,0,1,6.52-6.53H53.78a1,1,0,0,1,.72.3l11,11a1,1,0,0,1,.3.72V72.57a6.54,6.54,0,0,1-6.52,6.53Zm-4.49-6.53a4.5,4.5,0,0,0,4.49,4.49H59.29a4.5,4.5,0,0,0,4.49-4.49V68.75H23.58Zm40.2-5.85V36.87H59.29a6.54,6.54,0,0,1-6.53-6.52V25.86H28.07a4.5,4.5,0,0,0-4.49,4.49V66.72Zm-9-36.37a4.5,4.5,0,0,0,4.49,4.49h3.05L54.8,27.3Z"/><path class="cls-2" d="M53.78,23.92a1,1,0,0,1,.65.27l11,11a.91.91,0,0,1,.27.65V72.57A6.43,6.43,0,0,1,59.29,79H28.07a6.43,6.43,0,0,1-6.42-6.43V30.35a6.43,6.43,0,0,1,6.42-6.43H53.78m-30.3,42.9h40.4v-30H59.29a6.43,6.43,0,0,1-6.43-6.42V25.76H28.07a4.6,4.6,0,0,0-4.59,4.59V66.82M59.29,34.94h3.29L54.7,27.05v3.3a4.6,4.6,0,0,0,4.59,4.59M28.07,77.16H59.29a4.6,4.6,0,0,0,4.59-4.59V68.65H23.48v3.92a4.6,4.6,0,0,0,4.59,4.59M53.78,23.72H28.07a6.64,6.64,0,0,0-6.62,6.63V72.57a6.64,6.64,0,0,0,6.62,6.63H59.29a6.64,6.64,0,0,0,6.62-6.63V35.85a1.09,1.09,0,0,0-.33-.79l-11-11a1.11,1.11,0,0,0-.79-.33Zm-30.1,42.9V30.35A4.41,4.41,0,0,1,28.07,26H52.66v4.39A6.64,6.64,0,0,0,59.29,37h4.39V66.62ZM59.29,34.74a4.41,4.41,0,0,1-4.39-4.39V27.54l7.2,7.2ZM23.68,68.85h40v3.72A4.41,4.41,0,0,1,59.29,77H28.07a4.41,4.41,0,0,1-4.39-4.39V68.85Z"/><path class="cls-2" d="M51,58.87a3.74,3.74,0,0,1-2.66-1.1,3.87,3.87,0,0,1-.48-.59L42.65,51a7.5,7.5,0,0,1-2.65.49h0a7.44,7.44,0,0,1-6.55-11,1,1,0,0,1,1.61-.23l2.41,2.4a.81.81,0,0,0,1.15,0,.82.82,0,0,0,0-1.15l-2.41-2.41A1.3,1.3,0,0,1,36,38.9a1.11,1.11,0,0,1-.08-.78,1,1,0,0,1,.5-.6A7.44,7.44,0,0,1,47,46.71L53.12,52a3.23,3.23,0,0,1,.58.47A3.77,3.77,0,0,1,51,58.87Zm-8.1-10.11a1,1,0,0,1,.77.36l5.78,6.79.09.12A1.74,1.74,0,1,0,52,53.63l-.11-.08-6.79-5.78a1,1,0,0,1-.25-1.24A5.4,5.4,0,0,0,40,38.66a5.57,5.57,0,0,0-1.22.14l1.3,1.3a2.86,2.86,0,0,1,0,4,2.8,2.8,0,0,1-2,.84,2.84,2.84,0,0,1-2-.83l-1.3-1.3a5.5,5.5,0,0,0,1.44,5.06,5.43,5.43,0,0,0,6.29,1A1,1,0,0,1,42.93,48.76Z"/><path class="cls-2" d="M40,36.73a7.33,7.33,0,0,1,6.85,10L53.06,52a5.08,5.08,0,0,1,.57.47A3.68,3.68,0,0,1,51,58.77a3.63,3.63,0,0,1-2.59-1.08,3.24,3.24,0,0,1-.47-.57L42.68,50.9h0a7.37,7.37,0,0,1-2.68.51,7.36,7.36,0,0,1-6.46-10.84.65.65,0,0,1,.16-.21.91.91,0,0,1,.65-.27.89.89,0,0,1,.64.27l2.41,2.4a.91.91,0,0,0,1.29,0,.91.91,0,0,0,0-1.29l-2.41-2.41a1.16,1.16,0,0,1-.16-.21.93.93,0,0,1,.37-1.25A7.49,7.49,0,0,1,40,36.73m-1.94,8.13a2.73,2.73,0,0,1-1.95-.8l-1.42-1.42A5.56,5.56,0,0,0,36.1,48a5.54,5.54,0,0,0,6.41,1,.91.91,0,0,1,.42-.11.93.93,0,0,1,.7.33L49.41,56a.86.86,0,0,1,.07.1,1.94,1.94,0,0,0,.57.57,1.87,1.87,0,0,0,1,.28,1.83,1.83,0,0,0,1-3.38l-.1-.08-6.79-5.78a.93.93,0,0,1-.22-1.12,5.47,5.47,0,0,0-1-6.4A5.55,5.55,0,0,0,40,38.56a5.76,5.76,0,0,0-1.42.18L40,40.17a2.75,2.75,0,0,1-2,4.69M40,36.53a7.58,7.58,0,0,0-3.58.9A1.11,1.11,0,0,0,36,38.94a1,1,0,0,0,.19.26l2.41,2.41a.72.72,0,0,1,0,1,.75.75,0,0,1-.51.21.73.73,0,0,1-.5-.21l-2.4-2.4a1.12,1.12,0,0,0-1.59,0,1.18,1.18,0,0,0-.19.25,7.55,7.55,0,0,0,3,10.23,7.62,7.62,0,0,0,3.59.91,7.44,7.44,0,0,0,2.61-.47l5.21,6.11a4.19,4.19,0,0,0,.47.59,3.87,3.87,0,1,0,5.48-5.48,4,4,0,0,0-.6-.49l-6.1-5.19A7.53,7.53,0,0,0,40,36.53Zm-1,2.33a5,5,0,0,1,1-.1,5.3,5.3,0,0,1,4.73,7.72A1.11,1.11,0,0,0,45,47.84l6.79,5.78.13.1A1.63,1.63,0,0,1,52.42,56a1.63,1.63,0,0,1-1.39.76,1.57,1.57,0,0,1-.87-.25,1.65,1.65,0,0,1-.51-.51l-.09-.12-5.78-6.79a1.11,1.11,0,0,0-.85-.4,1.14,1.14,0,0,0-.51.13,5.39,5.39,0,0,1-2.42.58,5.26,5.26,0,0,1-3.75-1.55A5.37,5.37,0,0,1,34.79,43L36,44.2a3,3,0,0,0,4.18,0,3,3,0,0,0,0-4.16L39,38.86Z"/></svg>