<?xml version="1.0" encoding="utf-8"?>
<!-- Generator: Adobe Illustrator 23.1.0, SVG Export Plug-In . SVG Version: 6.00 Build 0)  -->
<svg version="1.1" id="Layer_1" xmlns="http://www.w3.org/2000/svg" xmlns:xlink="http://www.w3.org/1999/xlink" x="0px" y="0px"
	 viewBox="0 0 303 246" style="enable-background:new 0 0 303 246;" xml:space="preserve">
<style type="text/css">
	.st0{display:none;}
	.st1{display:inline;opacity:0.5;}
	.st2{fill:none;stroke:#0071BC;stroke-width:0.5663;stroke-miterlimit:10;}
	.st3{display:inline;opacity:0.15;fill:#00ACE0;enable-background:new    ;}
	.st4{display:inline;}
	.st5{fill:#00ACE0;}
	.st6{fill:#9AE3EF;}
	.st7{fill:#026A8F;}
	.st8{fill:#FFFFFF;}
	.st9{opacity:0.51;}
	.st10{opacity:0.51;fill:#4A47B5;enable-background:new    ;}
	.st11{fill:#453C9E;}
	.st12{opacity:0.51;fill:#453C9E;enable-background:new    ;}
	.st13{fill:#42E8E0;}
	.st14{opacity:0.1;fill:#42E8E0;enable-background:new    ;}
	.st15{opacity:0.4;fill:#42E8E0;enable-background:new    ;}
	.st16{display:inline;opacity:0.2;}
	.st17{fill:none;stroke:#000000;stroke-width:0.7407;stroke-miterlimit:10;}
	.st18{display:none;fill:#00C6F4;}
	.st19{fill:#00C6F4;}
	.st20{display:none;opacity:0.5;fill:#453C9E;enable-background:new    ;}
	.st21{opacity:0.1;}
	.st22{opacity:0.51;fill:#453C9E;stroke:#000000;stroke-width:4.1358;stroke-miterlimit:10;enable-background:new    ;}
	.st23{fill:#9AE3EF;stroke:#000000;stroke-width:4.1358;stroke-miterlimit:10;}
	.st24{fill:#42E8E0;stroke:#000000;stroke-width:4.1358;stroke-miterlimit:10;}
	.st25{fill:#57ABFF;stroke:#000000;stroke-width:4.1358;stroke-miterlimit:10;}
	.st26{fill:#344DB7;stroke:#000000;stroke-width:4.1358;stroke-miterlimit:10;}
	.st27{fill:#316596;stroke:#000000;stroke-width:4.1358;stroke-miterlimit:10;}
	.st28{fill:#57ABFF;}
	.st29{fill:#344DB7;}
	.st30{fill:#316596;}
	.st31{opacity:0.5;}
	.st32{fill:none;stroke:#0071BC;stroke-width:0.8845;stroke-miterlimit:10;}
	.st33{fill:url(#SVGID_1_);}
	.st34{fill:#1EDAF9;}
	.st35{fill:#1E81CE;}
	.st36{fill:#3D9AE2;}
	.st37{fill:#EE8700;}
	.st38{fill:#FF9811;}
	.st39{fill:#FFB655;}
	.st40{fill:url(#SVGID_2_);}
	.st41{fill:url(#SVGID_3_);}
	.st42{fill:url(#SVGID_4_);}
	.st43{fill:url(#SVGID_5_);}
	.st44{fill:url(#SVGID_6_);}
	.st45{fill:#5DC1D1;}
	.st46{fill:url(#SVGID_7_);}
	.st47{fill:#171E77;}
	.st48{fill:#24126A;}
	.st49{fill:url(#SVGID_8_);}
	.st50{fill:url(#SVGID_9_);}
	.st51{fill:#171277;}
	.st52{fill:url(#SVGID_10_);}
	.st53{fill:url(#SVGID_11_);}
	.st54{fill:#54E8EF;}
	.st55{fill:url(#SVGID_12_);}
	.st56{fill:url(#SVGID_13_);}
	.st57{fill:url(#SVGID_14_);}
	.st58{opacity:0.11;}
	.st59{clip-path:url(#SVGID_16_);}
	.st60{fill:url(#SVGID_17_);}
	.st61{fill:url(#SVGID_18_);}
	.st62{fill:#9198DB;}
	.st63{fill:#ADB1F2;}
	.st64{fill:#3F82C4;}
	.st65{fill:#1E1C77;}
	.st66{fill:#7ACFE2;}
</style>
<g class="st0">
	<g class="st1">
		<polygon class="st2" points="146.5,129.5 230.1,184.8 137.6,227.8 54.1,172.6 		"/>
		<line class="st2" x1="69.5" y1="165.4" x2="153" y2="220.6"/>
		<line class="st2" x1="84.9" y1="158.2" x2="168.4" y2="213.5"/>
		<line class="st2" x1="100.3" y1="151.1" x2="183.8" y2="206.3"/>
		<line class="st2" x1="115.7" y1="143.9" x2="199.3" y2="199.1"/>
		<line class="st2" x1="131.1" y1="136.7" x2="214.7" y2="191.9"/>
		<line class="st2" x1="216.1" y1="175.6" x2="123.7" y2="218.6"/>
		<line class="st2" x1="202.2" y1="166.3" x2="109.8" y2="209.4"/>
		<line class="st2" x1="188.3" y1="157.1" x2="95.8" y2="200.2"/>
		<line class="st2" x1="174.3" y1="147.9" x2="81.9" y2="191"/>
		<line class="st2" x1="160.4" y1="138.7" x2="68" y2="181.8"/>
	</g>
	<path class="st3" d="M118.6,64.8c0,0-7.9,0-10.6-5.2c0,0-4.4-9.5,5.3-12.1c0,0,7.9-1.7,9.7,3.5c0,0-4.4-8.7,4.4-13
		s13.2,0.9,13.2,0.9s4.4-13,17.6-13c0,0,21.1,0,18.5,22.5c0,0,10.6-4.3,13.2,5.2c0,0,3.5,8.7-8.8,11.3h-62.5V64.8z"/>
	<g class="st4">
		<g>
			<g>
				<path class="st5" d="M182.6,46.6c-1.2,0-2.4,0.2-3.5,0.5c0.1-0.9,0.2-1.7,0.2-2.6C179,31.8,168.6,21.7,155.9,22
					c-9.2,0.2-17.5,5.8-20.9,14.4c-6.6-4.1-15.3-2.1-19.4,4.6c-1.3,2.2-2.1,4.6-2.1,7.2c-1.8-1-3.8-1.6-5.9-1.6
					c-6.3,0-11.5,5.1-11.5,11.5s5.1,11.5,11.5,11.5c0.9,0,1.6-0.7,1.6-1.6s-0.7-1.6-1.6-1.6c-4.5-0.1-8.1-3.8-8.1-8.3
					s3.8-8.1,8.3-8.1c2.8,0,5.3,1.5,6.8,3.8c0.5,0.8,1.5,1,2.3,0.5c0.7-0.4,0.9-1.3,0.6-2c-0.5-1.2-0.8-2.6-0.8-3.9
					c0.1-5.9,4.9-10.7,10.9-10.6c2.6,0,5.2,1,7.2,2.7c0.7,0.6,1.7,0.5,2.3-0.2c0.2-0.2,0.3-0.4,0.3-0.6c3-10.4,13.9-16.5,24.3-13.5
					c8.3,2.4,14,9.9,14.2,18.5c0,1.7-0.2,3.4-0.7,5.1c-0.2,0.9,0.3,1.8,1.1,2c0.5,0.1,1,0,1.4-0.2c1.4-1,3.1-1.5,4.8-1.5
					c4.5,0,8.2,3.7,8.2,8.2s-3.7,8.2-8.2,8.2c-0.9,0-1.6,0.7-1.6,1.6s0.7,1.6,1.6,1.6c6.3,0,11.5-5.1,11.5-11.5
					C194.1,51.7,188.9,46.6,182.6,46.6z"/>
			</g>
		</g>
		<g>
			<g>
				<path class="st5" d="M141,48.7l-4.9-4.9c-0.6-0.6-1.7-0.6-2.3,0l-4.9,4.9c-0.6,0.7-0.6,1.7,0,2.3c0.6,0.6,1.6,0.6,2.3,0l2.1-2.1
					v10.8c0,0.9,0.7,1.6,1.6,1.6c0.9,0,1.6-0.7,1.6-1.6V48.9l2.1,2.1c0.7,0.6,1.7,0.6,2.3,0C141.7,50.3,141.7,49.3,141,48.7z"/>
			</g>
		</g>
		<g>
			<g>
				<path class="st5" d="M157.3,56.9l-4.9,4.9c-0.6,0.6-1.7,0.6-2.3,0l-4.9-4.9c-0.6-0.6-0.6-1.6,0-2.3c0.6-0.7,1.7-0.7,2.3,0
					l2.1,2.1V45.9c0-0.9,0.7-1.6,1.6-1.6s1.6,0.7,1.6,1.6v10.8l2.1-2.1c0.6-0.6,1.6-0.6,2.3,0C157.9,55.2,157.9,56.3,157.3,56.9z"/>
			</g>
		</g>
	</g>
	<g class="st4">
		<g>
			<polygon class="st6" points="145.5,192.7 88.6,159.9 145.5,127 202.5,159.9 			"/>
			<polygon class="st7" points="145.5,183.8 104.1,159.9 145.5,135.9 186.9,159.9 			"/>
			<polygon class="st8" points="145.5,137.6 185.5,160.7 186.9,159.9 145.5,135.9 104.1,159.9 105.5,160.7 			"/>
			<polygon class="st6" points="202.5,159.9 202.5,178.5 145.5,211.4 145.5,192.7 			"/>
			<polygon class="st7" points="88.6,159.9 88.6,178.5 145.5,211.4 145.5,192.7 			"/>
			<g class="st9">
				<polygon class="st10" points="92.4,168.2 92.4,174.1 141.7,202.5 141.7,196.7 				"/>
			</g>
			<polygon class="st8" points="145.5,191.7 89.5,159.3 88.6,159.9 145.5,192.7 202.5,159.9 201.5,159.3 			"/>
			<polygon class="st11" points="193.9,172.9 193.9,176.2 154.1,199.3 154.1,195.9 			"/>
			<polygon class="st12" points="88.6,159.9 88.6,178.5 145.5,211.4 145.5,192.7 			"/>
			<polygon class="st13" points="128.9,191.7 118.6,185.8 118.6,187 128.9,193 			"/>
			<polygon class="st13" points="117.1,184.9 114.3,183.3 114.3,184.6 117.1,186.2 			"/>
			<polygon class="st13" points="104,177.4 98.3,174.1 98.3,175.3 104,178.6 			"/>
			<polygon class="st13" points="109.2,180.4 105.1,178 105.1,179.2 109.2,181.6 			"/>
			<polygon class="st13" points="113.1,182.6 110.3,181 110.3,182.3 113.1,183.9 			"/>
			<g>
				<g>
					<polygon class="st13" points="145.6,144.2 143.8,143.1 145.6,142.1 147.4,143.1 					"/>
					<polygon class="st14" points="149.2,146.2 147.4,145.2 149.2,144.2 151,145.2 					"/>
					<polygon class="st15" points="152.8,148.3 151,147.3 152.8,146.2 154.6,147.3 					"/>
					<polygon class="st13" points="156.4,150.4 154.6,149.4 156.4,148.3 158.2,149.4 					"/>
					<polygon class="st15" points="160,152.5 158.2,151.5 160,150.4 161.8,151.5 					"/>
					<polygon class="st13" points="163.7,154.6 161.8,153.6 163.7,152.5 165.5,153.6 					"/>
					<polygon class="st13" points="167.3,156.7 165.5,155.6 167.3,154.6 169.1,155.6 					"/>
					<polygon class="st13" points="170.9,158.8 169.1,157.7 170.9,156.7 172.7,157.7 					"/>
					<polygon class="st14" points="174.5,160.9 172.7,159.8 174.5,158.8 176.3,159.8 					"/>
				</g>
				<g>
					<polygon class="st13" points="141.9,146.3 140.1,145.2 141.9,144.2 143.7,145.2 					"/>
					<polygon class="st13" points="145.6,148.3 143.7,147.3 145.6,146.3 147.4,147.3 					"/>
					<polygon class="st13" points="149.2,150.4 147.4,149.4 149.2,148.3 151,149.4 					"/>
					<polygon class="st13" points="152.8,152.5 151,151.5 152.8,150.4 154.6,151.5 					"/>
					<polygon class="st13" points="156.4,154.6 154.6,153.6 156.4,152.5 158.2,153.6 					"/>
					<polygon class="st13" points="160,156.7 158.2,155.6 160,154.6 161.8,155.6 					"/>
					<polygon class="st13" points="163.6,158.8 161.8,157.7 163.6,156.7 165.4,157.7 					"/>
					<polygon class="st13" points="167.3,160.9 165.4,159.8 167.3,158.8 169.1,159.8 					"/>
					<polygon class="st13" points="170.9,163 169.1,161.9 170.9,160.9 172.7,161.9 					"/>
				</g>
				<g>
					<polygon class="st13" points="138.3,148.3 136.5,147.3 138.3,146.3 140.1,147.3 					"/>
					<polygon class="st13" points="141.9,150.4 140.1,149.4 141.9,148.3 143.7,149.4 					"/>
					<polygon class="st13" points="145.5,152.5 143.7,151.5 145.5,150.4 147.4,151.5 					"/>
					<polygon class="st14" points="149.2,154.6 147.4,153.6 149.2,152.5 151,153.6 					"/>
					<polygon class="st15" points="152.8,156.7 151,155.7 152.8,154.6 154.6,155.7 					"/>
					<polygon class="st15" points="156.4,158.8 154.6,157.7 156.4,156.7 158.2,157.7 					"/>
					<polygon class="st13" points="160,160.9 158.2,159.8 160,158.8 161.8,159.8 					"/>
					<polygon class="st13" points="163.6,163 161.8,161.9 163.6,160.9 165.4,161.9 					"/>
					<polygon class="st13" points="167.2,165.1 165.4,164 167.2,163 169.1,164 					"/>
				</g>
				<g>
					<polygon class="st15" points="134.7,150.4 132.9,149.4 134.7,148.4 136.5,149.4 					"/>
					<polygon class="st15" points="138.3,152.5 136.5,151.5 138.3,150.4 140.1,151.5 					"/>
					<polygon class="st14" points="141.9,154.6 140.1,153.6 141.9,152.5 143.7,153.6 					"/>
					<polygon class="st13" points="145.5,156.7 143.7,155.7 145.5,154.6 147.3,155.7 					"/>
					<polygon class="st13" points="149.1,158.8 147.3,157.8 149.1,156.7 151,157.8 					"/>
					<polygon class="st13" points="152.8,160.9 151,159.8 152.8,158.8 154.6,159.8 					"/>
					<polygon class="st15" points="156.4,163 154.6,161.9 156.4,160.9 158.2,161.9 					"/>
					<polygon class="st13" points="160,165.1 158.2,164 160,163 161.8,164 					"/>
					<polygon class="st13" points="163.6,167.2 161.8,166.1 163.6,165.1 165.4,166.1 					"/>
				</g>
				<g>
					<polygon class="st13" points="131,152.5 129.2,151.5 131,150.5 132.9,151.5 					"/>
					<polygon class="st13" points="134.7,154.6 132.9,153.6 134.7,152.5 136.5,153.6 					"/>
					<polygon class="st13" points="138.3,156.7 136.5,155.7 138.3,154.6 140.1,155.7 					"/>
					<polygon class="st13" points="141.9,158.8 140.1,157.8 141.9,156.7 143.7,157.8 					"/>
					<polygon class="st13" points="145.5,160.9 143.7,159.9 145.5,158.8 147.3,159.9 					"/>
					<polygon class="st13" points="149.1,163 147.3,161.9 149.1,160.9 150.9,161.9 					"/>
					<polygon class="st13" points="152.7,165.1 150.9,164 152.7,163 154.6,164 					"/>
					<polygon class="st13" points="156.4,167.2 154.6,166.1 156.4,165.1 158.2,166.1 					"/>
					<polygon class="st13" points="160,169.2 158.2,168.2 160,167.2 161.8,168.2 					"/>
				</g>
				<g>
					<polygon class="st13" points="127.4,154.6 125.6,153.6 127.4,152.6 129.2,153.6 					"/>
					<polygon class="st13" points="131,156.7 129.2,155.7 131,154.6 132.8,155.7 					"/>
					<polygon class="st15" points="134.6,158.8 132.8,157.8 134.6,156.7 136.5,157.8 					"/>
					<polygon class="st13" points="138.3,160.9 136.5,159.9 138.3,158.8 140.1,159.9 					"/>
					<polygon class="st14" points="141.9,163 140.1,161.9 141.9,160.9 143.7,161.9 					"/>
					<polygon class="st13" points="145.5,165.1 143.7,164 145.5,163 147.3,164 					"/>
					<polygon class="st13" points="149.1,167.2 147.3,166.1 149.1,165.1 150.9,166.1 					"/>
					<polygon class="st13" points="152.7,169.3 150.9,168.2 152.7,167.2 154.5,168.2 					"/>
					<polygon class="st13" points="156.3,171.3 154.5,170.3 156.3,169.3 158.2,170.3 					"/>
				</g>
				<g>
					<polygon class="st13" points="123.8,156.7 122,155.7 123.8,154.6 125.6,155.7 					"/>
					<polygon class="st13" points="127.4,158.8 125.6,157.8 127.4,156.7 129.2,157.8 					"/>
					<polygon class="st15" points="131,160.9 129.2,159.9 131,158.8 132.8,159.9 					"/>
					<polygon class="st13" points="134.6,163 132.8,162 134.6,160.9 136.4,162 					"/>
					<polygon class="st13" points="138.2,165.1 136.4,164 138.2,163 140.1,164 					"/>
					<polygon class="st14" points="141.9,167.2 140.1,166.1 141.9,165.1 143.7,166.1 					"/>
					<polygon class="st15" points="145.5,169.3 143.7,168.2 145.5,167.2 147.3,168.2 					"/>
					<polygon class="st13" points="149.1,171.4 147.3,170.3 149.1,169.3 150.9,170.3 					"/>
					<polygon class="st14" points="152.7,173.4 150.9,172.4 152.7,171.4 154.5,172.4 					"/>
				</g>
				<g>
					<polygon class="st13" points="120.2,158.8 118.3,157.8 120.2,156.7 122,157.8 					"/>
					<polygon class="st15" points="123.8,160.9 122,159.9 123.8,158.8 125.6,159.9 					"/>
					<polygon class="st13" points="127.4,163 125.6,162 127.4,160.9 129.2,162 					"/>
					<polygon class="st13" points="131,165.1 129.2,164.1 131,163 132.8,164.1 					"/>
					<polygon class="st13" points="134.6,167.2 132.8,166.1 134.6,165.1 136.4,166.1 					"/>
					<polygon class="st13" points="138.2,169.3 136.4,168.2 138.2,167.2 140,168.2 					"/>
					<polygon class="st13" points="141.9,171.4 140,170.3 141.9,169.3 143.7,170.3 					"/>
					<polygon class="st15" points="145.5,173.5 143.7,172.4 145.5,171.4 147.3,172.4 					"/>
					<polygon class="st13" points="149.1,175.5 147.3,174.5 149.1,173.5 150.9,174.5 					"/>
				</g>
				<g>
					<polygon class="st13" points="116.5,160.9 114.7,159.9 116.5,158.8 118.3,159.9 					"/>
					<polygon class="st14" points="120.1,163 118.3,162 120.1,160.9 121.9,162 					"/>
					<polygon class="st13" points="123.8,165.1 121.9,164.1 123.8,163 125.6,164.1 					"/>
					<polygon class="st13" points="127.4,167.2 125.6,166.2 127.4,165.1 129.2,166.2 					"/>
					<polygon class="st13" points="131,169.3 129.2,168.2 131,167.2 132.8,168.2 					"/>
					<polygon class="st13" points="134.6,171.4 132.8,170.3 134.6,169.3 136.4,170.3 					"/>
					<polygon class="st15" points="138.2,173.5 136.4,172.4 138.2,171.4 140,172.4 					"/>
					<polygon class="st13" points="141.8,175.5 140,174.5 141.8,173.5 143.6,174.5 					"/>
					<polygon class="st13" points="145.5,177.6 143.6,176.6 145.5,175.5 147.3,176.6 					"/>
				</g>
			</g>
		</g>
		<g>
			<polygon class="st6" points="145.5,160.7 88.6,127.9 145.5,95 202.5,127.9 			"/>
			<polygon class="st7" points="145.5,151.8 104.1,127.9 145.5,103.9 186.9,127.9 			"/>
			<polygon class="st8" points="145.5,105.6 185.5,128.7 186.9,127.9 145.5,103.9 104.1,127.9 105.5,128.7 			"/>
			<polygon class="st6" points="202.5,127.9 202.5,146.5 145.5,179.4 145.5,160.7 			"/>
			<polygon class="st7" points="88.6,127.9 88.6,146.5 145.5,179.4 145.5,160.7 			"/>
			<g class="st9">
				<polygon class="st10" points="92.4,136.2 92.4,142.1 141.7,170.5 141.7,164.7 				"/>
			</g>
			<polygon class="st8" points="145.5,159.7 89.5,127.3 88.6,127.9 145.5,160.7 202.5,127.9 201.5,127.3 			"/>
			<polygon class="st11" points="193.9,140.9 193.9,144.2 154.1,167.3 154.1,163.9 			"/>
			<polygon class="st12" points="88.6,127.9 88.6,146.5 145.5,179.4 145.5,160.7 			"/>
			<polygon class="st13" points="128.9,159.7 118.6,153.8 118.6,155 128.9,161 			"/>
			<polygon class="st13" points="117.1,152.9 114.3,151.3 114.3,152.6 117.1,154.2 			"/>
			<polygon class="st13" points="104,145.4 98.3,142.1 98.3,143.3 104,146.6 			"/>
			<polygon class="st13" points="109.2,148.4 105.1,146 105.1,147.2 109.2,149.6 			"/>
			<polygon class="st13" points="113.1,150.6 110.3,149 110.3,150.3 113.1,151.9 			"/>
			<g>
				<g>
					<polygon class="st13" points="145.6,112.2 143.8,111.1 145.6,110.1 147.4,111.1 					"/>
					<polygon class="st14" points="149.2,114.2 147.4,113.2 149.2,112.2 151,113.2 					"/>
					<polygon class="st15" points="152.8,116.3 151,115.3 152.8,114.2 154.6,115.3 					"/>
					<polygon class="st13" points="156.4,118.4 154.6,117.4 156.4,116.3 158.2,117.4 					"/>
					<polygon class="st15" points="160,120.5 158.2,119.5 160,118.4 161.8,119.5 					"/>
					<polygon class="st13" points="163.7,122.6 161.8,121.6 163.7,120.5 165.5,121.6 					"/>
					<polygon class="st13" points="167.3,124.7 165.5,123.6 167.3,122.6 169.1,123.6 					"/>
					<polygon class="st13" points="170.9,126.8 169.1,125.7 170.9,124.7 172.7,125.7 					"/>
					<polygon class="st14" points="174.5,128.9 172.7,127.8 174.5,126.8 176.3,127.8 					"/>
				</g>
				<g>
					<polygon class="st13" points="141.9,114.3 140.1,113.2 141.9,112.2 143.7,113.2 					"/>
					<polygon class="st13" points="145.6,116.3 143.7,115.3 145.6,114.3 147.4,115.3 					"/>
					<polygon class="st13" points="149.2,118.4 147.4,117.4 149.2,116.3 151,117.4 					"/>
					<polygon class="st13" points="152.8,120.5 151,119.5 152.8,118.4 154.6,119.5 					"/>
					<polygon class="st13" points="156.4,122.6 154.6,121.6 156.4,120.5 158.2,121.6 					"/>
					<polygon class="st13" points="160,124.7 158.2,123.6 160,122.6 161.8,123.6 					"/>
					<polygon class="st13" points="163.6,126.8 161.8,125.7 163.6,124.7 165.4,125.7 					"/>
					<polygon class="st13" points="167.3,128.9 165.4,127.8 167.3,126.8 169.1,127.8 					"/>
					<polygon class="st13" points="170.9,131 169.1,129.9 170.9,128.9 172.7,129.9 					"/>
				</g>
				<g>
					<polygon class="st13" points="138.3,116.3 136.5,115.3 138.3,114.3 140.1,115.3 					"/>
					<polygon class="st13" points="141.9,118.4 140.1,117.4 141.9,116.3 143.7,117.4 					"/>
					<polygon class="st13" points="145.5,120.5 143.7,119.5 145.5,118.4 147.4,119.5 					"/>
					<polygon class="st14" points="149.2,122.6 147.4,121.6 149.2,120.5 151,121.6 					"/>
					<polygon class="st15" points="152.8,124.7 151,123.7 152.8,122.6 154.6,123.7 					"/>
					<polygon class="st15" points="156.4,126.8 154.6,125.7 156.4,124.7 158.2,125.7 					"/>
					<polygon class="st13" points="160,128.9 158.2,127.8 160,126.8 161.8,127.8 					"/>
					<polygon class="st13" points="163.6,131 161.8,129.9 163.6,128.9 165.4,129.9 					"/>
					<polygon class="st13" points="167.2,133.1 165.4,132 167.2,131 169.1,132 					"/>
				</g>
				<g>
					<polygon class="st15" points="134.7,118.4 132.9,117.4 134.7,116.4 136.5,117.4 					"/>
					<polygon class="st15" points="138.3,120.5 136.5,119.5 138.3,118.4 140.1,119.5 					"/>
					<polygon class="st14" points="141.9,122.6 140.1,121.6 141.9,120.5 143.7,121.6 					"/>
					<polygon class="st13" points="145.5,124.7 143.7,123.7 145.5,122.6 147.3,123.7 					"/>
					<polygon class="st13" points="149.1,126.8 147.3,125.8 149.1,124.7 151,125.8 					"/>
					<polygon class="st13" points="152.8,128.9 151,127.8 152.8,126.8 154.6,127.8 					"/>
					<polygon class="st15" points="156.4,131 154.6,129.9 156.4,128.9 158.2,129.9 					"/>
					<polygon class="st13" points="160,133.1 158.2,132 160,131 161.8,132 					"/>
					<polygon class="st13" points="163.6,135.2 161.8,134.1 163.6,133.1 165.4,134.1 					"/>
				</g>
				<g>
					<polygon class="st13" points="131,120.5 129.2,119.5 131,118.5 132.9,119.5 					"/>
					<polygon class="st13" points="134.7,122.6 132.9,121.6 134.7,120.5 136.5,121.6 					"/>
					<polygon class="st13" points="138.3,124.7 136.5,123.7 138.3,122.6 140.1,123.7 					"/>
					<polygon class="st13" points="141.9,126.8 140.1,125.8 141.9,124.7 143.7,125.8 					"/>
					<polygon class="st13" points="145.5,128.9 143.7,127.9 145.5,126.8 147.3,127.9 					"/>
					<polygon class="st13" points="149.1,131 147.3,129.9 149.1,128.9 150.9,129.9 					"/>
					<polygon class="st13" points="152.7,133.1 150.9,132 152.7,131 154.6,132 					"/>
					<polygon class="st13" points="156.4,135.2 154.6,134.1 156.4,133.1 158.2,134.1 					"/>
					<polygon class="st13" points="160,137.2 158.2,136.2 160,135.2 161.8,136.2 					"/>
				</g>
				<g>
					<polygon class="st13" points="127.4,122.6 125.6,121.6 127.4,120.6 129.2,121.6 					"/>
					<polygon class="st13" points="131,124.7 129.2,123.7 131,122.6 132.8,123.7 					"/>
					<polygon class="st15" points="134.6,126.8 132.8,125.8 134.6,124.7 136.5,125.8 					"/>
					<polygon class="st13" points="138.3,128.9 136.5,127.9 138.3,126.8 140.1,127.9 					"/>
					<polygon class="st14" points="141.9,131 140.1,129.9 141.9,128.9 143.7,129.9 					"/>
					<polygon class="st13" points="145.5,133.1 143.7,132 145.5,131 147.3,132 					"/>
					<polygon class="st13" points="149.1,135.2 147.3,134.1 149.1,133.1 150.9,134.1 					"/>
					<polygon class="st13" points="152.7,137.3 150.9,136.2 152.7,135.2 154.5,136.2 					"/>
					<polygon class="st13" points="156.3,139.3 154.5,138.3 156.3,137.3 158.2,138.3 					"/>
				</g>
				<g>
					<polygon class="st13" points="123.8,124.7 122,123.7 123.8,122.6 125.6,123.7 					"/>
					<polygon class="st13" points="127.4,126.8 125.6,125.8 127.4,124.7 129.2,125.8 					"/>
					<polygon class="st15" points="131,128.9 129.2,127.9 131,126.8 132.8,127.9 					"/>
					<polygon class="st13" points="134.6,131 132.8,130 134.6,128.9 136.4,130 					"/>
					<polygon class="st13" points="138.2,133.1 136.4,132 138.2,131 140.1,132 					"/>
					<polygon class="st14" points="141.9,135.2 140.1,134.1 141.9,133.1 143.7,134.1 					"/>
					<polygon class="st15" points="145.5,137.3 143.7,136.2 145.5,135.2 147.3,136.2 					"/>
					<polygon class="st13" points="149.1,139.4 147.3,138.3 149.1,137.3 150.9,138.3 					"/>
					<polygon class="st14" points="152.7,141.4 150.9,140.4 152.7,139.4 154.5,140.4 					"/>
				</g>
				<g>
					<polygon class="st13" points="120.2,126.8 118.3,125.8 120.2,124.7 122,125.8 					"/>
					<polygon class="st15" points="123.8,128.9 122,127.9 123.8,126.8 125.6,127.9 					"/>
					<polygon class="st13" points="127.4,131 125.6,130 127.4,128.9 129.2,130 					"/>
					<polygon class="st13" points="131,133.1 129.2,132.1 131,131 132.8,132.1 					"/>
					<polygon class="st13" points="134.6,135.2 132.8,134.1 134.6,133.1 136.4,134.1 					"/>
					<polygon class="st13" points="138.2,137.3 136.4,136.2 138.2,135.2 140,136.2 					"/>
					<polygon class="st13" points="141.9,139.4 140,138.3 141.9,137.3 143.7,138.3 					"/>
					<polygon class="st15" points="145.5,141.5 143.7,140.4 145.5,139.4 147.3,140.4 					"/>
					<polygon class="st13" points="149.1,143.5 147.3,142.5 149.1,141.5 150.9,142.5 					"/>
				</g>
				<g>
					<polygon class="st13" points="116.5,128.9 114.7,127.9 116.5,126.8 118.3,127.9 					"/>
					<polygon class="st14" points="120.1,131 118.3,130 120.1,128.9 121.9,130 					"/>
					<polygon class="st13" points="123.8,133.1 121.9,132.1 123.8,131 125.6,132.1 					"/>
					<polygon class="st13" points="127.4,135.2 125.6,134.2 127.4,133.1 129.2,134.2 					"/>
					<polygon class="st13" points="131,137.3 129.2,136.2 131,135.2 132.8,136.2 					"/>
					<polygon class="st13" points="134.6,139.4 132.8,138.3 134.6,137.3 136.4,138.3 					"/>
					<polygon class="st15" points="138.2,141.5 136.4,140.4 138.2,139.4 140,140.4 					"/>
					<polygon class="st13" points="141.8,143.5 140,142.5 141.8,141.5 143.6,142.5 					"/>
					<polygon class="st13" points="145.5,145.6 143.6,144.6 145.5,143.5 147.3,144.6 					"/>
				</g>
			</g>
		</g>
		<g>
			<polygon class="st6" points="145.5,129.7 88.6,96.9 145.5,64 202.5,96.9 			"/>
			<polygon class="st7" points="145.5,120.8 104.1,96.9 145.5,72.9 186.9,96.9 			"/>
			<polygon class="st8" points="145.5,74.6 185.5,97.7 186.9,96.9 145.5,72.9 104.1,96.9 105.5,97.7 			"/>
			<polygon class="st6" points="202.5,96.9 202.5,115.5 145.5,148.4 145.5,129.7 			"/>
			<polygon class="st7" points="88.6,96.9 88.6,115.5 145.5,148.4 145.5,129.7 			"/>
			<g class="st9">
				<polygon class="st10" points="92.4,105.2 92.4,111.1 141.7,139.5 141.7,133.7 				"/>
			</g>
			<polygon class="st8" points="145.5,128.7 89.5,96.3 88.6,96.9 145.5,129.7 202.5,96.9 201.5,96.3 			"/>
			<polygon class="st11" points="193.9,109.9 193.9,113.2 154.1,136.3 154.1,132.9 			"/>
			<polygon class="st12" points="88.6,96.9 88.6,115.5 145.5,148.4 145.5,129.7 			"/>
			<polygon class="st13" points="128.9,128.7 118.6,122.8 118.6,124 128.9,130 			"/>
			<polygon class="st13" points="117.1,121.9 114.3,120.3 114.3,121.6 117.1,123.2 			"/>
			<polygon class="st13" points="104,114.4 98.3,111.1 98.3,112.3 104,115.6 			"/>
			<polygon class="st13" points="109.2,117.4 105.1,115 105.1,116.2 109.2,118.6 			"/>
			<polygon class="st13" points="113.1,119.6 110.3,118 110.3,119.3 113.1,120.9 			"/>
			<g>
				<g>
					<polygon class="st13" points="145.6,81.2 143.8,80.1 145.6,79.1 147.4,80.1 					"/>
					<polygon class="st14" points="149.2,83.2 147.4,82.2 149.2,81.2 151,82.2 					"/>
					<polygon class="st15" points="152.8,85.3 151,84.3 152.8,83.2 154.6,84.3 					"/>
					<polygon class="st13" points="156.4,87.4 154.6,86.4 156.4,85.3 158.2,86.4 					"/>
					<polygon class="st15" points="160,89.5 158.2,88.5 160,87.4 161.8,88.5 					"/>
					<polygon class="st13" points="163.7,91.6 161.8,90.6 163.7,89.5 165.5,90.6 					"/>
					<polygon class="st13" points="167.3,93.7 165.5,92.6 167.3,91.6 169.1,92.6 					"/>
					<polygon class="st13" points="170.9,95.8 169.1,94.7 170.9,93.7 172.7,94.7 					"/>
					<polygon class="st14" points="174.5,97.9 172.7,96.8 174.5,95.8 176.3,96.8 					"/>
				</g>
				<g>
					<polygon class="st13" points="141.9,83.3 140.1,82.2 141.9,81.2 143.7,82.2 					"/>
					<polygon class="st13" points="145.6,85.3 143.7,84.3 145.6,83.3 147.4,84.3 					"/>
					<polygon class="st13" points="149.2,87.4 147.4,86.4 149.2,85.3 151,86.4 					"/>
					<polygon class="st13" points="152.8,89.5 151,88.5 152.8,87.4 154.6,88.5 					"/>
					<polygon class="st13" points="156.4,91.6 154.6,90.6 156.4,89.5 158.2,90.6 					"/>
					<polygon class="st13" points="160,93.7 158.2,92.6 160,91.6 161.8,92.6 					"/>
					<polygon class="st13" points="163.6,95.8 161.8,94.7 163.6,93.7 165.4,94.7 					"/>
					<polygon class="st13" points="167.3,97.9 165.4,96.8 167.3,95.8 169.1,96.8 					"/>
					<polygon class="st13" points="170.9,100 169.1,98.9 170.9,97.9 172.7,98.9 					"/>
				</g>
				<g>
					<polygon class="st13" points="138.3,85.3 136.5,84.3 138.3,83.3 140.1,84.3 					"/>
					<polygon class="st13" points="141.9,87.4 140.1,86.4 141.9,85.3 143.7,86.4 					"/>
					<polygon class="st13" points="145.5,89.5 143.7,88.5 145.5,87.4 147.4,88.5 					"/>
					<polygon class="st14" points="149.2,91.6 147.4,90.6 149.2,89.5 151,90.6 					"/>
					<polygon class="st15" points="152.8,93.7 151,92.7 152.8,91.6 154.6,92.7 					"/>
					<polygon class="st15" points="156.4,95.8 154.6,94.7 156.4,93.7 158.2,94.7 					"/>
					<polygon class="st13" points="160,97.9 158.2,96.8 160,95.8 161.8,96.8 					"/>
					<polygon class="st13" points="163.6,100 161.8,98.9 163.6,97.9 165.4,98.9 					"/>
					<polygon class="st13" points="167.2,102.1 165.4,101 167.2,100 169.1,101 					"/>
				</g>
				<g>
					<polygon class="st15" points="134.7,87.4 132.9,86.4 134.7,85.4 136.5,86.4 					"/>
					<polygon class="st15" points="138.3,89.5 136.5,88.5 138.3,87.4 140.1,88.5 					"/>
					<polygon class="st14" points="141.9,91.6 140.1,90.6 141.9,89.5 143.7,90.6 					"/>
					<polygon class="st13" points="145.5,93.7 143.7,92.7 145.5,91.6 147.3,92.7 					"/>
					<polygon class="st13" points="149.1,95.8 147.3,94.8 149.1,93.7 151,94.8 					"/>
					<polygon class="st13" points="152.8,97.9 151,96.8 152.8,95.8 154.6,96.8 					"/>
					<polygon class="st15" points="156.4,100 154.6,98.9 156.4,97.9 158.2,98.9 					"/>
					<polygon class="st13" points="160,102.1 158.2,101 160,100 161.8,101 					"/>
					<polygon class="st13" points="163.6,104.2 161.8,103.1 163.6,102.1 165.4,103.1 					"/>
				</g>
				<g>
					<polygon class="st13" points="131,89.5 129.2,88.5 131,87.5 132.9,88.5 					"/>
					<polygon class="st13" points="134.7,91.6 132.9,90.6 134.7,89.5 136.5,90.6 					"/>
					<polygon class="st13" points="138.3,93.7 136.5,92.7 138.3,91.6 140.1,92.7 					"/>
					<polygon class="st13" points="141.9,95.8 140.1,94.8 141.9,93.7 143.7,94.8 					"/>
					<polygon class="st13" points="145.5,97.9 143.7,96.9 145.5,95.8 147.3,96.9 					"/>
					<polygon class="st13" points="149.1,100 147.3,98.9 149.1,97.9 150.9,98.9 					"/>
					<polygon class="st13" points="152.7,102.1 150.9,101 152.7,100 154.6,101 					"/>
					<polygon class="st13" points="156.4,104.2 154.6,103.1 156.4,102.1 158.2,103.1 					"/>
					<polygon class="st13" points="160,106.2 158.2,105.2 160,104.2 161.8,105.2 					"/>
				</g>
				<g>
					<polygon class="st13" points="127.4,91.6 125.6,90.6 127.4,89.6 129.2,90.6 					"/>
					<polygon class="st13" points="131,93.7 129.2,92.7 131,91.6 132.8,92.7 					"/>
					<polygon class="st15" points="134.6,95.8 132.8,94.8 134.6,93.7 136.5,94.8 					"/>
					<polygon class="st13" points="138.3,97.9 136.5,96.9 138.3,95.8 140.1,96.9 					"/>
					<polygon class="st14" points="141.9,100 140.1,98.9 141.9,97.9 143.7,98.9 					"/>
					<polygon class="st13" points="145.5,102.1 143.7,101 145.5,100 147.3,101 					"/>
					<polygon class="st13" points="149.1,104.2 147.3,103.1 149.1,102.1 150.9,103.1 					"/>
					<polygon class="st13" points="152.7,106.3 150.9,105.2 152.7,104.2 154.5,105.2 					"/>
					<polygon class="st13" points="156.3,108.3 154.5,107.3 156.3,106.3 158.2,107.3 					"/>
				</g>
				<g>
					<polygon class="st13" points="123.8,93.7 122,92.7 123.8,91.6 125.6,92.7 					"/>
					<polygon class="st13" points="127.4,95.8 125.6,94.8 127.4,93.7 129.2,94.8 					"/>
					<polygon class="st15" points="131,97.9 129.2,96.9 131,95.8 132.8,96.9 					"/>
					<polygon class="st13" points="134.6,100 132.8,99 134.6,97.9 136.4,99 					"/>
					<polygon class="st13" points="138.2,102.1 136.4,101 138.2,100 140.1,101 					"/>
					<polygon class="st14" points="141.9,104.2 140.1,103.1 141.9,102.1 143.7,103.1 					"/>
					<polygon class="st15" points="145.5,106.3 143.7,105.2 145.5,104.2 147.3,105.2 					"/>
					<polygon class="st13" points="149.1,108.4 147.3,107.3 149.1,106.3 150.9,107.3 					"/>
					<polygon class="st14" points="152.7,110.4 150.9,109.4 152.7,108.4 154.5,109.4 					"/>
				</g>
				<g>
					<polygon class="st13" points="120.2,95.8 118.3,94.8 120.2,93.7 122,94.8 					"/>
					<polygon class="st15" points="123.8,97.9 122,96.9 123.8,95.8 125.6,96.9 					"/>
					<polygon class="st13" points="127.4,100 125.6,99 127.4,97.9 129.2,99 					"/>
					<polygon class="st13" points="131,102.1 129.2,101.1 131,100 132.8,101.1 					"/>
					<polygon class="st13" points="134.6,104.2 132.8,103.1 134.6,102.1 136.4,103.1 					"/>
					<polygon class="st13" points="138.2,106.3 136.4,105.2 138.2,104.2 140,105.2 					"/>
					<polygon class="st13" points="141.9,108.4 140,107.3 141.9,106.3 143.7,107.3 					"/>
					<polygon class="st15" points="145.5,110.5 143.7,109.4 145.5,108.4 147.3,109.4 					"/>
					<polygon class="st13" points="149.1,112.5 147.3,111.5 149.1,110.5 150.9,111.5 					"/>
				</g>
				<g>
					<polygon class="st13" points="116.5,97.9 114.7,96.9 116.5,95.8 118.3,96.9 					"/>
					<polygon class="st14" points="120.1,100 118.3,99 120.1,97.9 121.9,99 					"/>
					<polygon class="st13" points="123.8,102.1 121.9,101.1 123.8,100 125.6,101.1 					"/>
					<polygon class="st13" points="127.4,104.2 125.6,103.2 127.4,102.1 129.2,103.2 					"/>
					<polygon class="st13" points="131,106.3 129.2,105.2 131,104.2 132.8,105.2 					"/>
					<polygon class="st13" points="134.6,108.4 132.8,107.3 134.6,106.3 136.4,107.3 					"/>
					<polygon class="st15" points="138.2,110.5 136.4,109.4 138.2,108.4 140,109.4 					"/>
					<polygon class="st13" points="141.8,112.5 140,111.5 141.8,110.5 143.6,111.5 					"/>
					<polygon class="st13" points="145.5,114.6 143.6,113.6 145.5,112.5 147.3,113.6 					"/>
				</g>
			</g>
		</g>
	</g>
</g>
<g class="st0">
	<g class="st16">
		<polygon class="st17" points="155.7,134.9 292.1,192.8 141.2,237.9 4.8,180 		"/>
		<line class="st17" x1="30" y1="172.5" x2="166.4" y2="230.4"/>
		<line class="st17" x1="55.1" y1="165" x2="191.5" y2="222.8"/>
		<line class="st17" x1="80.2" y1="157.4" x2="216.7" y2="215.3"/>
		<line class="st17" x1="105.4" y1="149.9" x2="241.8" y2="207.8"/>
		<line class="st17" x1="130.5" y1="142.4" x2="267" y2="200.3"/>
		<line class="st17" x1="269.4" y1="183.1" x2="118.5" y2="228.2"/>
		<line class="st17" x1="246.6" y1="173.5" x2="95.8" y2="218.6"/>
		<line class="st17" x1="223.9" y1="163.8" x2="73" y2="208.9"/>
		<line class="st17" x1="201.2" y1="154.2" x2="50.3" y2="199.3"/>
		<line class="st17" x1="178.4" y1="144.5" x2="27.6" y2="189.7"/>
	</g>
	<g class="st4">
		<rect x="3.5" y="12.7" class="st18" width="296.4" height="202"/>
		<g class="st0">
			<g class="st4">
				<g>
					<g>
						<path class="st19" d="M283-41.1H25.2c-15.9,0-28.8,13.4-28.8,30v207.7c0,16.5,12.9,30,28.8,30H283c15.9,0,28.8-13.4,28.8-30
							V-11.1C311.8-27.7,298.9-41.1,283-41.1z M300.3,196.6c0,9.9-7.7,18-17.3,18H25.2c-9.6,0-17.3-8.1-17.3-18V18.8h292.4V196.6
							L300.3,196.6z M300.3,6.8H7.9v-18c0-9.9,7.7-18,17.3-18H283c9.6,0,17.3,8.1,17.3,18V6.8L300.3,6.8z"/>
						<path class="st19" d="M36.7-17.1h-5.8c-3.2,0-5.8,2.7-5.8,6s2.6,6,5.8,6h5.8c3.2,0,5.8-2.7,5.8-6
							C42.5-14.5,39.9-17.1,36.7-17.1z"/>
						<path class="st19" d="M62-16.7c-1.4-0.7-3-0.7-4.4,0c-0.7,0.3-1.3,0.7-1.9,1.3c-2.2,2.4-2.2,6.1,0,8.5c0.6,0.5,1.2,1,1.9,1.3
							C59-5,60.6-5,62-5.6c0.7-0.3,1.3-0.7,1.9-1.3c2.2-2.4,2.2-6.1,0-8.5C63.3-15.9,62.7-16.4,62-16.7z"/>
						<path class="st19" d="M85-16.7c-2.2-0.9-4.7-0.4-6.3,1.3c-0.5,0.6-0.9,1.3-1.2,2c-0.6,1.5-0.6,3.1,0,4.6
							c0.3,0.7,0.7,1.4,1.2,2c2.3,2.3,5.9,2.3,8.2,0c0.5-0.6,0.9-1.3,1.2-2s0.5-1.5,0.5-2.3C88.6-13.6,87.2-15.8,85-16.7z"/>
						<path class="st19" d="M277.3-17.1H111.7c-3.2,0-5.8,2.7-5.8,6s2.6,6,5.8,6h165.6c3.2,0,5.8-2.7,5.8-6S280.4-17.1,277.3-17.1z"
							/>
					</g>
				</g>
			</g>
		</g>
		<g>
			<circle class="st20" cx="142.6" cy="108.3" r="120.2"/>
			<g class="st21">
				<path class="st22" d="M70.7,122.6h113.4V112c0-2-1.6-3.5-3.5-3.5H74.3c-2,0-3.5,1.6-3.5,3.5v10.6H70.7z"/>
				<path class="st23" d="M74.3,197h106.3c2,0,3.5-1.6,3.5-3.5v-70.8H70.7v70.8C70.7,195.4,72.3,197,74.3,197z"/>
				<path class="st22" d="M88.5,101.3H70.8c-1,0-1.8-0.8-1.8-1.8s0.8-1.8,1.8-1.8h16.4L92.1,83c0.2-0.7,0.8-1.2,1.6-1.2
					c0.7,0,1.4,0.3,1.7,1l5.2,10.5l5.7-15.6c0.3-0.7,0.9-1.2,1.7-1.2l0,0c0.8,0,1.4,0.5,1.7,1.2l4.9,14.7h14.7c1,0,1.8,0.8,1.8,1.8
					s-0.8,1.8-1.8,1.8h-15.9c-0.8,0-1.4-0.5-1.7-1.2L108,83.7l-5.3,14.7c-0.2,0.7-0.9,1.1-1.6,1.2c-0.7,0-1.4-0.3-1.7-1l-5.2-10.3
					l-4,11.9C89.9,100.8,89.2,101.3,88.5,101.3z"/>
				<path class="st24" d="M219.5,96c-0.8,21-15.6,38.3-35.4,43v-27.1c0-2-1.6-3.5-3.5-3.5h-50.9c-1.5-4.5-2.2-9.2-2.2-14.2
					c0-24.8,19.6-45.1,44.2-46c1,0,1.8,0.8,1.8,1.8v42.5c0,1,0.8,1.8,1.8,1.8h42.5C218.7,94.2,219.5,95.1,219.5,96L219.5,96z"/>
				<path class="st24" d="M230.1,83.6c0-25.5-20.6-46-46-46v44.3c0,1,0.8,1.8,1.8,1.8h44.2V83.6z"/>
				<g>
					<path class="st25" d="M83.1,122.6h3.5V197h-3.5V122.6z"/>
					<path class="st25" d="M95.5,122.6H99V197h-3.5V122.6z"/>
					<path class="st25" d="M107.9,122.6h3.5V197h-3.5V122.6z"/>
					<path class="st25" d="M120.3,122.6h3.5V197h-3.5V122.6z"/>
					<path class="st25" d="M132.7,122.6h3.5V197h-3.5L132.7,122.6L132.7,122.6z"/>
					<path class="st25" d="M145.1,122.6h3.5V197h-3.5V122.6z"/>
					<path class="st25" d="M157.5,122.6h3.5V197h-3.5V122.6z"/>
					<path class="st25" d="M169.9,122.6h3.5V197h-3.5V122.6z"/>
					<path class="st25" d="M70.7,133.2h113.4v3.5H70.7V133.2z"/>
					<path class="st25" d="M70.7,145.6h113.4v3.5H70.7V145.6z"/>
					<path class="st25" d="M70.7,158h113.4v3.5H70.7V158z"/>
					<path class="st25" d="M70.7,170.4h113.4v3.5H70.7V170.4z"/>
					<path class="st25" d="M70.7,182.8h113.4v3.5H70.7V182.8z"/>
				</g>
				<path class="st24" d="M187.6,197h-14.2v-23c0-2,1.6-3.5,3.5-3.5h10.6V197H187.6z"/>
				<path class="st26" d="M173.5,197h-14.2v-14.2c0-2,1.6-3.5,3.5-3.5h10.6V197H173.5z"/>
				<path class="st26" d="M201.8,197h-14.2v-40.7c0-2,1.6-3.5,3.5-3.5h10.6V197H201.8z"/>
				<path class="st24" d="M216,197h-14.2v-51.4c0-2,1.6-3.5,3.5-3.5h7.1c2,0,3.5,1.6,3.5,3.5V197H216z"/>
				<path class="st26" d="M230.1,197H216v-33.7h10.6c2,0,3.5,1.6,3.5,3.5V197z"/>
				<path class="st22" d="M76.1,88.9c-0.3,0-0.6-0.1-0.8-0.2c-0.9-0.5-1.2-1.5-0.7-2.4l19.5-37.2c0.5-0.9,1.5-1.2,2.4-0.7
					s1.2,1.5,0.7,2.4L77.7,88C77.3,88.6,76.7,88.9,76.1,88.9L76.1,88.9z"/>
				<path class="st22" d="M115,69.4c-0.4,0-0.8-0.1-1.1-0.4c-0.8-0.6-0.9-1.7-0.3-2.5l19.5-24.8c0.6-0.8,1.7-0.9,2.5-0.3
					s0.9,1.7,0.3,2.5l-19.5,24.8C116.1,69.2,115.5,69.4,115,69.4z"/>
				<path class="st22" d="M115,69.4c-0.4,0-0.9-0.2-1.2-0.5L94.4,51.2c-0.7-0.7-0.8-1.8-0.1-2.5s1.8-0.8,2.5-0.1l19.4,17.7
					c0.7,0.7,0.8,1.8,0.1,2.5C116,69.2,115.5,69.4,115,69.4L115,69.4z"/>
				<circle class="st24" cx="76.1" cy="87.1" r="5.3"/>
				<circle class="st24" cx="95.5" cy="49.9" r="5.3"/>
				<circle class="st24" cx="115" cy="67.7" r="5.3"/>
				
					<ellipse transform="matrix(0.1602 -0.9871 0.9871 0.1602 70.6094 168.7914)" class="st24" cx="134.5" cy="42.9" rx="5.3" ry="5.3"/>
				<path class="st27" d="M194.7,74.7c-0.5,0-0.9-0.2-1.3-0.5c-0.7-0.7-0.7-1.8,0-2.5l14.2-14.2c0.7-0.7,1.8-0.7,2.5,0
					s0.7,1.8,0,2.5L196,74.2C195.6,74.6,195.2,74.7,194.7,74.7z"/>
				<circle class="st27" cx="196.5" cy="60.6" r="1.8"/>
				<circle class="st27" cx="207.1" cy="71.2" r="1.8"/>
				<path class="st27" d="M155.8,81.8h-3.5c-2,0-3.5-1.6-3.5-3.5s1.6-3.5,3.5-3.5h3.5c2,0,3.5,1.6,3.5,3.5c0,1,0.8,1.8,1.8,1.8
					s1.8-0.8,1.8-1.8c0-3.9-3.2-7.1-7.1-7.1v-1.8c0-1-0.8-1.8-1.8-1.8s-1.8,0.8-1.8,1.8v1.8c-3.9,0-7.1,3.2-7.1,7.1
					c0,3.9,3.2,7.1,7.1,7.1h3.5c2,0,3.5,1.6,3.5,3.5s-1.6,3.5-3.5,3.5h-3.5c-2,0-3.5-1.6-3.5-3.5c0-1-0.8-1.8-1.8-1.8
					s-1.8,0.8-1.8,1.8c0,3.9,3.2,7.1,7.1,7.1v1.8c0,1,0.8,1.8,1.8,1.8s1.8-0.8,1.8-1.8V96c3.9,0,7.1-3.2,7.1-7.1
					S159.7,81.8,155.8,81.8z"/>
				<circle class="st24" cx="120.3" cy="115.5" r="1.8"/>
				<circle class="st24" cx="127.4" cy="115.5" r="1.8"/>
				
					<ellipse transform="matrix(0.1602 -0.9871 0.9871 0.1602 -1.0532 229.7622)" class="st24" cx="134.5" cy="115.5" rx="1.8" ry="1.8"/>
			</g>
			<g>
				<path class="st12" d="M66.6,116.4H180v-10.6c0-2-1.6-3.5-3.5-3.5H70.1c-2,0-3.5,1.6-3.5,3.5V116.4z"/>
				<path class="st6" d="M70.1,190.7h106.3c2,0,3.5-1.6,3.5-3.5v-70.8H66.6v70.8C66.6,189.2,68.2,190.7,70.1,190.7z"/>
				<path class="st12" d="M84.3,95.1H66.6c-1,0-1.8-0.8-1.8-1.8s0.8-1.8,1.8-1.8H83l4.9-14.7c0.2-0.7,0.8-1.2,1.6-1.2
					c0.7,0,1.4,0.3,1.7,1l5.2,10.5l5.7-15.6c0.3-0.7,0.9-1.2,1.7-1.2l0,0c0.8,0,1.4,0.5,1.7,1.2l4.9,14.7h14.7c1,0,1.8,0.8,1.8,1.8
					s-0.8,1.8-1.8,1.8h-15.9c-0.8,0-1.4-0.5-1.7-1.2l-3.7-11.1l-5.3,14.7c-0.2,0.7-0.9,1.1-1.6,1.2c-0.7,0-1.4-0.3-1.7-1L90,82
					l-4,11.9C85.8,94.6,85.1,95.1,84.3,95.1z"/>
				<path class="st13" d="M215.3,89.8c-0.8,21-15.6,38.3-35.4,43v-27.1c0-2-1.6-3.5-3.5-3.5h-50.9c-1.5-4.5-2.2-9.2-2.2-14.2
					c0-24.8,19.6-45.1,44.2-46c1,0,1.8,0.8,1.8,1.8v42.5c0,1,0.8,1.8,1.8,1.8h42.5C214.6,88,215.4,88.8,215.3,89.8L215.3,89.8z"/>
				<path class="st13" d="M226,77.4c0-25.5-20.6-46-46-46v44.3c0,1,0.8,1.8,1.8,1.8H226V77.4z"/>
				<g>
					<path class="st28" d="M79,116.4h3.5v74.4H79V116.4z"/>
					<path class="st28" d="M91.4,116.4h3.5v74.4h-3.5V116.4z"/>
					<path class="st28" d="M103.8,116.4h3.5v74.4h-3.5V116.4z"/>
					<path class="st28" d="M116.2,116.4h3.5v74.4h-3.5V116.4z"/>
					<path class="st28" d="M128.6,116.4h3.5v74.4h-3.5V116.4z"/>
					<path class="st28" d="M141,116.4h3.5v74.4H141V116.4z"/>
					<path class="st28" d="M153.4,116.4h3.5v74.4h-3.5V116.4z"/>
					<path class="st28" d="M165.8,116.4h3.5v74.4h-3.5V116.4z"/>
					<path class="st28" d="M66.6,127H180v3.5H66.6V127z"/>
					<path class="st28" d="M66.6,139.4H180v3.5H66.6V139.4z"/>
					<path class="st28" d="M66.6,151.8H180v3.5H66.6V151.8z"/>
					<path class="st28" d="M66.6,164.2H180v3.5H66.6V164.2z"/>
					<path class="st28" d="M66.6,176.6H180v3.5H66.6V176.6z"/>
				</g>
				<path class="st13" d="M183.5,190.7h-14.2v-23c0-2,1.6-3.5,3.5-3.5h10.6v26.5H183.5z"/>
				<path class="st29" d="M169.3,190.7h-14.2v-14.2c0-2,1.6-3.5,3.5-3.5h10.6v17.7H169.3z"/>
				<path class="st29" d="M197.7,190.7h-14.2V150c0-2,1.6-3.5,3.5-3.5h10.6v44.2H197.7z"/>
				<path class="st13" d="M211.8,190.7h-14.2v-51.4c0-2,1.6-3.5,3.5-3.5h7.1c2,0,3.5,1.6,3.5,3.5v51.4H211.8z"/>
				<path class="st29" d="M226,190.7h-14.2V157h10.6c2,0,3.5,1.6,3.5,3.5v30.2H226z"/>
				<path class="st12" d="M71.9,82.7c-0.3,0-0.6-0.1-0.8-0.2c-0.9-0.5-1.2-1.5-0.7-2.4l19.5-37.2c0.5-0.9,1.5-1.2,2.4-0.7
					s1.2,1.5,0.7,2.4L73.5,81.8C73.2,82.3,72.6,82.7,71.9,82.7L71.9,82.7z"/>
				<path class="st12" d="M110.9,63.2c-0.4,0-0.8-0.1-1.1-0.4c-0.8-0.6-0.9-1.7-0.3-2.5L129,35.6c0.6-0.8,1.7-0.9,2.5-0.3
					s0.9,1.7,0.3,2.5l-19.5,24.8C111.9,63,111.4,63.2,110.9,63.2z"/>
				<path class="st12" d="M110.9,63.2c-0.4,0-0.9-0.2-1.2-0.5L90.3,45c-0.7-0.7-0.8-1.8-0.1-2.5s1.8-0.8,2.5-0.1l19.4,17.7
					c0.7,0.7,0.8,1.8,0.1,2.5C111.8,63,111.3,63.2,110.9,63.2L110.9,63.2z"/>
				<circle class="st13" cx="71.9" cy="80.9" r="5.3"/>
				<circle class="st13" cx="91.4" cy="43.7" r="5.3"/>
				<circle class="st13" cx="110.9" cy="61.5" r="5.3"/>
				<circle class="st13" cx="130.4" cy="36.7" r="5.3"/>
				<path class="st30" d="M190.6,68.5c-0.5,0-0.9-0.2-1.3-0.5c-0.7-0.7-0.7-1.8,0-2.5l14.2-14.2c0.7-0.7,1.8-0.7,2.5,0
					s0.7,1.8,0,2.5L191.8,68C191.5,68.4,191,68.5,190.6,68.5z"/>
				<circle class="st30" cx="192.4" cy="54.4" r="1.8"/>
				<circle class="st30" cx="203" cy="65" r="1.8"/>
				<path class="st30" d="M151.6,75.6h-3.5c-2,0-3.5-1.6-3.5-3.5s1.6-3.5,3.5-3.5h3.5c2,0,3.5,1.6,3.5,3.5c0,1,0.8,1.8,1.8,1.8
					s1.8-0.8,1.8-1.8c0-3.9-3.2-7.1-7.1-7.1v-1.8c0-1-0.8-1.8-1.8-1.8s-1.8,0.8-1.8,1.8V65c-3.9,0-7.1,3.2-7.1,7.1s3.2,7.1,7.1,7.1
					h3.5c2,0,3.5,1.6,3.5,3.5c0,2-1.6,3.5-3.5,3.5H148c-2,0-3.5-1.6-3.5-3.5c0-1-0.8-1.8-1.8-1.8s-1.8,0.8-1.8,1.8
					c0,3.9,3.2,7.1,7.1,7.1v1.8c0,1,0.8,1.8,1.8,1.8s1.8-0.8,1.8-1.8v-1.8c3.9,0,7.1-3.2,7.1-7.1C158.7,78.8,155.5,75.6,151.6,75.6z
					"/>
				<circle class="st13" cx="116.2" cy="109.3" r="1.8"/>
				<circle class="st13" cx="123.3" cy="109.3" r="1.8"/>
				<circle class="st13" cx="130.4" cy="109.3" r="1.8"/>
			</g>
		</g>
	</g>
</g>
<g>
	<g class="st31">
		<polygon class="st32" points="159.5,73.9 293.8,154 152.7,227.9 18.4,147.7 		"/>
		<line class="st32" x1="41.9" y1="135.4" x2="176.3" y2="215.6"/>
		<line class="st32" x1="65.4" y1="123.1" x2="199.8" y2="203.2"/>
		<line class="st32" x1="88.9" y1="110.8" x2="223.3" y2="190.9"/>
		<line class="st32" x1="112.4" y1="98.5" x2="246.8" y2="178.6"/>
		<line class="st32" x1="135.9" y1="86.2" x2="270.3" y2="166.3"/>
		<line class="st32" x1="271.4" y1="140.7" x2="130.3" y2="214.5"/>
		<line class="st32" x1="249" y1="127.3" x2="108" y2="201.2"/>
		<line class="st32" x1="226.6" y1="114" x2="85.6" y2="187.8"/>
		<line class="st32" x1="204.2" y1="100.6" x2="63.2" y2="174.4"/>
		<line class="st32" x1="181.9" y1="87.2" x2="40.8" y2="161.1"/>
	</g>
	<g>
		<g>
			
				<linearGradient id="SVGID_1_" gradientUnits="userSpaceOnUse" x1="51.0615" y1="101.9" x2="98.996" y2="101.9" gradientTransform="matrix(1 0 0 -1 0 240)">
				<stop  offset="0" style="stop-color:#7ACFE2"/>
				<stop  offset="0.3704" style="stop-color:#76D4E6"/>
				<stop  offset="0.8061" style="stop-color:#6BE2F2"/>
				<stop  offset="1" style="stop-color:#64EBF9"/>
			</linearGradient>
			<path class="st33" d="M99,117.6v48.7c0,0.1,0,0.2,0,0.3c-0.2,3.3-2.9,6-6.3,6H57.3c-3.5,0-6.3-2.8-6.3-6.3v-56.4
				c0-3,2.1-5.5,4.9-6.1c0.5-0.1,0.9-0.2,1.4-0.2h28.1c1,0,1.9,0.2,2.7,0.6c1.7,0.8,2.2,1.9,5.2,5c3.5,3.8,4.4,4.2,5.1,5.9
				C98.8,115.8,99,116.7,99,117.6z"/>
			<path class="st34" d="M99,117.6v48.7c0,0.1,0,0.2,0,0.3c-0.5,0.1-0.9,0.2-1.4,0.2H62.2c-3.5,0-6.3-2.8-6.3-6.3v-56.4
				c0-0.1,0-0.2,0-0.3c0.5-0.1,0.9-0.2,1.4-0.2h28.1c1,0,1.9,0.2,2.7,0.6c0.7,0.3,1.3,0.8,1.9,1.4l3.4,3.6l3.9,4
				c0.5,0.5,0.9,1.2,1.2,1.8C98.8,115.8,99,116.7,99,117.6z"/>
			<path class="st35" d="M109,138.6v4.4c0,1.6-1.3,2.9-2.9,2.9H83.2c-1.6,0-2.9-1.3-2.9-2.9v-4.4c0-1.6,1.3-2.9,2.9-2.9h22.9
				C107.7,135.7,109,137,109,138.6z"/>
			<path class="st36" d="M109,138.6v4.4c0,1.6-1.3,2.9-2.9,2.9H88c-1.6,0-2.9-1.3-2.9-2.9v-4.4c0-1.6,1.3-2.9,2.9-2.9h18.1
				C107.7,135.7,109,137,109,138.6z"/>
			<path class="st37" d="M109.2,151.8v4.2c0,0.7-0.6,1.3-1.3,1.3h-4.2c-0.7,0-1.3-0.6-1.3-1.3v-4.2c0-0.7,0.6-1.3,1.3-1.3h4.2
				C108.6,150.4,109.2,151,109.2,151.8z"/>
			<path class="st37" d="M109.2,163.3v12.9c0,1.3-1,2.3-2.3,2.3h-2.3c-1.3,0-2.3-1-2.3-2.3v-12.9c0-1.1,0.9-2,2-2h2.9
				C108.3,161.3,109.2,162.2,109.2,163.3z"/>
			<path class="st38" d="M109.2,151.8v1.2c0,0.7-0.6,1.3-1.3,1.3h-4.2c-0.7,0-1.3-0.6-1.3-1.3v-1.2c0-0.7,0.6-1.3,1.3-1.3h4.2
				C108.6,150.4,109.2,151,109.2,151.8z"/>
			<path class="st38" d="M109.2,163.3v10c0,1.3-1,2.3-2.3,2.3h-2.3c-1.3,0-2.3-1-2.3-2.3v-10c0-1.1,0.9-2,2-2h2.9
				C108.3,161.3,109.2,162.2,109.2,163.3z"/>
			<path class="st39" d="M98.5,115.1h-7.9c-1.3,0-2.4-1.1-2.4-2.4v-8.4c0.7,0.3,1.3,0.8,1.9,1.4l3.4,3.6l3.9,4
				C97.8,113.8,98.2,114.4,98.5,115.1z"/>
			
				<linearGradient id="SVGID_2_" gradientUnits="userSpaceOnUse" x1="45.0853" y1="60.2" x2="70.1125" y2="60.2" gradientTransform="matrix(1 0 0 -1 0 240)">
				<stop  offset="0" style="stop-color:#7ACFE2"/>
				<stop  offset="0.3704" style="stop-color:#76D4E6"/>
				<stop  offset="0.8061" style="stop-color:#6BE2F2"/>
				<stop  offset="1" style="stop-color:#64EBF9"/>
			</linearGradient>
			<path class="st40" d="M70.1,179.8c0,0.8-0.3,1.6-0.9,2.2c-0.6,0.6-1.3,0.9-2.2,0.9H48.1c-1.7,0-3.1-1.4-3.1-3.1
				c0-0.8,0.3-1.6,0.9-2.2c0.6-0.6,1.3-0.9,2.2-0.9H67C68.7,176.7,70.1,178.1,70.1,179.8z"/>
			
				<linearGradient id="SVGID_3_" gradientUnits="userSpaceOnUse" x1="45.0853" y1="66.3" x2="70.1125" y2="66.3" gradientTransform="matrix(1 0 0 -1 0 240)">
				<stop  offset="0" style="stop-color:#7ACFE2"/>
				<stop  offset="0.3704" style="stop-color:#76D4E6"/>
				<stop  offset="0.8061" style="stop-color:#6BE2F2"/>
				<stop  offset="1" style="stop-color:#64EBF9"/>
			</linearGradient>
			<path class="st41" d="M70.1,173.7c0,0.8-0.3,1.6-0.9,2.2c-0.6,0.6-1.3,0.9-2.2,0.9H48.1c-1.7,0-3.1-1.4-3.1-3.1
				c0-0.8,0.3-1.6,0.9-2.2c0.6-0.6,1.3-0.9,2.2-0.9H67C68.7,170.6,70.1,172,70.1,173.7z"/>
			
				<linearGradient id="SVGID_4_" gradientUnits="userSpaceOnUse" x1="45.0853" y1="72.5" x2="70.1125" y2="72.5" gradientTransform="matrix(1 0 0 -1 0 240)">
				<stop  offset="0" style="stop-color:#7ACFE2"/>
				<stop  offset="0.3704" style="stop-color:#76D4E6"/>
				<stop  offset="0.8061" style="stop-color:#6BE2F2"/>
				<stop  offset="1" style="stop-color:#64EBF9"/>
			</linearGradient>
			<path class="st42" d="M70.1,167.5c0,0.8-0.3,1.6-0.9,2.2c-0.6,0.6-1.3,0.9-2.2,0.9H48.1c-1.7,0-3.1-1.4-3.1-3.1
				c0-0.8,0.3-1.6,0.9-2.2c0.6-0.6,1.3-0.9,2.2-0.9H67C68.7,164.4,70.1,165.8,70.1,167.5z"/>
			
				<linearGradient id="SVGID_5_" gradientUnits="userSpaceOnUse" x1="45.0853" y1="78.65" x2="70.1125" y2="78.65" gradientTransform="matrix(1 0 0 -1 0 240)">
				<stop  offset="0" style="stop-color:#7ACFE2"/>
				<stop  offset="0.3704" style="stop-color:#76D4E6"/>
				<stop  offset="0.8061" style="stop-color:#6BE2F2"/>
				<stop  offset="1" style="stop-color:#64EBF9"/>
			</linearGradient>
			<path class="st43" d="M70.1,161.3c0,0.8-0.3,1.6-0.9,2.2c-0.6,0.6-1.3,0.9-2.2,0.9H48.1c-1.7,0-3.1-1.4-3.1-3.1
				c0-0.6,0.2-1.2,0.5-1.6c0.1-0.2,0.3-0.4,0.4-0.5c0.6-0.6,1.3-0.9,2.2-0.9H67C68.7,158.3,70.1,159.6,70.1,161.3z"/>
			
				<linearGradient id="SVGID_6_" gradientUnits="userSpaceOnUse" x1="45.0853" y1="84.8" x2="70.1118" y2="84.8" gradientTransform="matrix(1 0 0 -1 0 240)">
				<stop  offset="0" style="stop-color:#7ACFE2"/>
				<stop  offset="0.3704" style="stop-color:#76D4E6"/>
				<stop  offset="0.8061" style="stop-color:#6BE2F2"/>
				<stop  offset="1" style="stop-color:#64EBF9"/>
			</linearGradient>
			<path class="st44" d="M67,158.3H48.1c-1.7,0-3.1-1.4-3.1-3.1l0,0c0-1.7,1.4-3.1,3.1-3.1H67c1.7,0,3.1,1.4,3.1,3.1l0,0
				C70.1,156.9,68.7,158.3,67,158.3z"/>
			<path class="st45" d="M59.3,172.8c-0.2-4.6-3.5-8.3-7.7-9.3c-0.9-0.2-1.8-0.3-2.7-0.3l0,0H45c-8.9,0.4-13.1,11.5-6.2,17.5
				c1.9,1.7,4.4,2.6,7.1,2.5H49l0,0c0.3,0,0.6,0,0.8,0c0.6,0,1.3-0.1,1.9-0.3c4.4-1,7.6-4.8,7.7-9.4l0,0
				C59.3,173.3,59.3,173,59.3,172.8z"/>
			
				<linearGradient id="SVGID_7_" gradientUnits="userSpaceOnUse" x1="43.8123" y1="66.75" x2="59.2862" y2="66.75" gradientTransform="matrix(1 0 0 -1 0 240)">
				<stop  offset="0" style="stop-color:#7ACFE2"/>
				<stop  offset="0.3704" style="stop-color:#76D4E6"/>
				<stop  offset="0.8061" style="stop-color:#6BE2F2"/>
				<stop  offset="1" style="stop-color:#64EBF9"/>
			</linearGradient>
			<path class="st46" d="M59.3,173.6L59.3,173.6c-0.2,4.6-3.4,8.4-7.7,9.4c-4.3-1-7.5-4.7-7.7-9.3c0,0,0,0,0-0.1l0,0
				c-0.2-4.9,3.2-9.1,7.7-10.1c4.3,1,7.5,4.7,7.7,9.3C59.3,173,59.3,173.3,59.3,173.6z"/>
			<path class="st47" d="M106.2,129.3h-6v-11.7c0-2-0.8-3.9-2.1-5.2l-3.8-4c-3.3-3.4-3.7-4.3-5.6-5.3c-0.9-0.5-2.1-0.8-3.3-0.8H57.3
				c-4.2,0-7.6,3.4-7.6,7.6v40.9h-1.6c-2.4,0-4.4,2-4.4,4.4c0,1.2,0.5,2.3,1.3,3.1c-0.8,0.8-1.3,1.9-1.3,3.1c0,0.5,0.1,0.7,0.1,0.9
				c-9.5,1-13.3,12.7-6.3,19.1c2.1,1.9,4.9,3,7.9,2.9c1,0,21.6,0,21.6,0c2.4,0,4.4-2,4.4-4.4c0-1.2-0.5-2.3-1.3-3.1
				c0.7-0.7,1.2-1.7,1.3-2.9H73v0.9c0,5.6,4.5,10.1,10.1,10.1h23.1c5.6,0,10.1-4.5,10.1-10.1v-35.4
				C116.3,133.8,111.8,129.3,106.2,129.3z M89.5,106.9c5.1,5.4,6.2,6.6,6.5,6.8l0,0l0,0l0,0l0,0l0,0l0,0l0,0l0,0l0,0h-6.5V106.9
				L89.5,106.9z M48.2,153.4H67c1,0,1.8,0.8,1.8,1.8S68,157,67,157H48.1c-1,0-1.8-0.8-1.8-1.8C46.4,154.2,47.2,153.4,48.2,153.4z
				 M48.2,159.5H67c1,0,1.8,0.8,1.8,1.8s-0.8,1.8-1.8,1.8H54c-0.5-0.2-1.1-0.4-1.6-0.6c-0.8-0.2-1.7-0.4-2.6-0.4c-0.3,0-0.5,0-0.8,0
				h-2.4c-0.1-0.2-0.2-0.5-0.2-0.8C46.4,160.3,47.2,159.5,48.2,159.5z M68.8,167.5c0,1-0.8,1.8-1.8,1.8h-7.3
				c-0.5-1.3-1.2-2.5-2.2-3.6H67C68,165.7,68.8,166.5,68.8,167.5z M41.9,165.2c-0.8,0.7-1.5,1.6-2,2.6h-1.5
				C39.3,166.6,40.5,165.7,41.9,165.2z M36.9,170.2h1.9c0,0.2-0.3,0.9-0.4,1.9h-2C36.5,171.5,36.7,170.8,36.9,170.2z M37.1,176.6
				c-0.3-0.7-0.5-1.3-0.6-2.1h2c0.4,2,0.4,1.7,0.5,2.1H37.1z M38.8,179.1c0.8,0,1.3,0,1.4,0c0.5,0.8,1.1,1.5,1.7,2.1
				C40.7,180.7,39.6,180,38.8,179.1z M49.8,181.8c-4.7,0.2-8.8-3.5-9-8.2c-0.3-7.6,8.7-11.9,14.4-6.7
				C60.9,172,57.5,181.5,49.8,181.8z M67,181.6H56.5c1.2-1,2.1-2.2,2.8-3.6H67c1,0,1.8,0.8,1.8,1.8S68,181.6,67,181.6z M68.8,173.9
				c-0.1,0.9-0.9,1.6-1.8,1.6h-6.8c0.2-1.1,0.3-2.3,0.2-3.6H67C68.1,171.9,68.9,172.8,68.8,173.9z M73,171.3h-2.3
				c-0.2-0.3-0.4-0.5-0.6-0.7c1.7-1.7,1.7-4.5,0-6.2c0.8-0.8,1.3-1.9,1.3-3.1c0-1.2-0.5-2.3-1.3-3.1c2.7-2.7,0.8-7.5-3.1-7.5H52.3
				v-40.9c0-2.8,2.2-5,5-5h29.5V115c0,0.7,0.6,1.3,1.3,1.3h9.4c0.3,1.1,0.1,0.7,0.2,12.9H83.1c-5.6,0-10.1,4.5-10.1,10.1L73,171.3
				L73,171.3z M113.9,174.7c0,4.2-3.4,7.7-7.7,7.7H83.1c-4.2,0-7.7-3.4-7.7-7.7v-35.4c0-4.2,3.4-7.7,7.7-7.7h23.1
				c4.2,0,7.7,3.4,7.7,7.7V174.7L113.9,174.7z"/>
			<path class="st48" d="M65.3,137.6L65.3,137.6c-1.5-0.5-2.6-0.9-2.6-2.3c0-1.3,0.8-1.9,2.5-1.9s2.2,0.8,2.8,0.8c0.7,0,1-0.7,1-1.2
				c0-1-1.7-1.5-3.1-1.6v-0.9c0-0.6-0.5-1.2-1.2-1.2c-0.6,0-1.2,0.5-1.2,1.2v1.1c-2,0.5-3.1,1.9-3.1,3.9c0,2.8,2.1,3.6,3.8,4.2
				c1.6,0.6,2.9,1.1,2.9,3c0,1.5-0.9,2.3-2.6,2.3c-2.5,0-2.5-1.7-3.4-1.7c-0.6,0-1.1,0.7-1.1,1.2c0,1,1.4,2.2,3.5,2.5v0.9
				c0,0.6,0.5,1.2,1.2,1.2c0.6,0,1.2-0.5,1.2-1.2V147c2.2-0.4,3.5-2,3.5-4.5C69.4,139.1,67.1,138.3,65.3,137.6z"/>
			<path class="st48" d="M86.7,121.3h3.1c0.7,0,1.2-0.5,1.2-1.2s-0.5-1.2-1.2-1.2h-3.1c-0.7,0-1.2,0.5-1.2,1.2S86,121.3,86.7,121.3z
				"/>
			<path class="st48" d="M60.3,121.3h21.6c0.7,0,1.2-0.5,1.2-1.2s-0.5-1.2-1.2-1.2H60.3c-0.7,0-1.2,0.5-1.2,1.2
				S59.6,121.3,60.3,121.3z"/>
			<path class="st48" d="M64.1,127.4c0.7,0,1.2-0.5,1.2-1.2s-0.5-1.2-1.2-1.2h-3.9c-0.7,0-1.2,0.5-1.2,1.2s0.5,1.2,1.2,1.2H64.1z"/>
			<path class="st48" d="M91,126.2c0-0.7-0.5-1.2-1.2-1.2H69c-0.7,0-1.2,0.5-1.2,1.2s0.5,1.2,1.2,1.2h20.7
				C90.4,127.4,91,126.8,91,126.2z"/>
			<path class="st48" d="M49,170.7c0-0.3,0.1-0.4,0.2-0.5c0.3-0.2,1.1-0.2,1.8,0.1c0.2,0.1,0.4,0.2,0.7,0.2c1.2,0,2.1-2.2-0.7-2.7
				v-0.1c0-0.7-0.6-1.2-1.2-1.2s-1.2,0.6-1.2,1.2v0.2c-1.2,0.4-1.9,1.4-1.9,2.8c0,2.1,1.5,2.6,2.6,3.1c1,0.4,1.4,0.6,1.4,1.3
				c0,0.4-0.1,0.9-1,0.9c-1.3,0-1.1-1-2.1-1c-0.7,0-1.2,0.7-1.2,1.3c0,0.8,0.9,1.6,2.1,2v0.1c0,0.7,0.6,1.2,1.2,1.2s1.2-0.6,1.2-1.2
				v-0.1c1.3-0.4,2.1-1.6,2.1-3.1C53,171.3,49,171.9,49,170.7z"/>
		</g>
		<g>
			<g>
				<g>
					<g>
						<g>
							<g>
								<g>
									<g>
										
											<linearGradient id="SVGID_8_" gradientUnits="userSpaceOnUse" x1="-2058.0579" y1="151.0197" x2="-1933.0127" y2="151.0197" gradientTransform="matrix(1 0 0 -1 2131.9236 240)">
											<stop  offset="0" style="stop-color:#C0BFF6"/>
											<stop  offset="0.2938" style="stop-color:#C5C4F7"/>
											<stop  offset="0.6399" style="stop-color:#D3D2F9"/>
											<stop  offset="1" style="stop-color:#E9E9FD"/>
										</linearGradient>
										<path class="st49" d="M198.9,96.8l-13.5-80.4l1.1-0.5l-1.6-0.9l0,0c-0.3-0.2-0.8-0.2-1.3,0.1L75.3,77.6
											c-0.9,0.5-1.6,1.8-1.4,2.8l13.7,81c0.1,0.4,0.3,0.7,0.6,0.8l0,0l1.6,0.9l0.3-1.5H90l107.6-62.1
											C198.4,99,199,97.7,198.9,96.8z"/>
										
											<linearGradient id="SVGID_9_" gradientUnits="userSpaceOnUse" x1="-2058.094" y1="119" x2="-2036.6185" y2="119" gradientTransform="matrix(1 0 0 -1 2131.9236 240)">
											<stop  offset="0" style="stop-color:#5761D7"/>
											<stop  offset="0.1779" style="stop-color:#5C66D9"/>
											<stop  offset="0.3876" style="stop-color:#6A73DF"/>
											<stop  offset="0.6134" style="stop-color:#8289E8"/>
											<stop  offset="0.849" style="stop-color:#A3A7F5"/>
											<stop  offset="1" style="stop-color:#BCBEFF"/>
										</linearGradient>
										<path class="st50" d="M75.9,79.8L74.1,79c-0.2,0.5-0.3,0.9-0.2,1.3l13.7,81c0.1,0.4,0.3,0.7,0.6,0.8l0,0l1.6,0.9l0.3-1.5
											H90l5.4-3.1L75.9,79.8z"/>
										<path class="st51" d="M199.2,100.5L90.9,163c-0.8,0.5-1.6,0.2-1.7-0.7l-13.7-81c-0.2-0.9,0.5-2.2,1.4-2.8L185.2,16
											c0.8-0.5,1.6-0.2,1.7,0.7l13.7,81C200.7,98.7,200.1,100,199.2,100.5z"/>
										<g class="st9">
											<polygon class="st11" points="183.8,21.2 79.4,81.5 92.4,157.8 196.7,97.6 											"/>
										</g>
									</g>
									<g>
										
											<linearGradient id="SVGID_10_" gradientUnits="userSpaceOnUse" x1="-2041.3236" y1="82.9" x2="-1864.7236" y2="82.9" gradientTransform="matrix(1 0 0 -1 2131.9236 240)">
											<stop  offset="0" style="stop-color:#7CB3E0"/>
											<stop  offset="0.2721" style="stop-color:#7FB8E2"/>
											<stop  offset="0.5929" style="stop-color:#88C6E6"/>
											<stop  offset="0.937" style="stop-color:#97DEED"/>
											<stop  offset="1" style="stop-color:#9AE3EF"/>
										</linearGradient>
										<path class="st52" d="M267.2,138.8l-5.9,3.1l-59.2-34.2c-1-0.6-2.7-0.5-3.9,0.2L96,166.9c-1-0.5-5.4-2.7-5.4-2.7l2.2,5.6
											l0,0c0.1,0.3,0.3,0.5,0.6,0.7l62.4,36c1,0.6,2.7,0.5,3.9-0.2L264.2,146c0.5-0.3,0.8-0.6,0.9-0.9l0,0L267.2,138.8z"/>
										
											<linearGradient id="SVGID_11_" gradientUnits="userSpaceOnUse" x1="90.5182" y1="88.75" x2="267.2818" y2="88.75" gradientTransform="matrix(1 0 0 -1 0 240)">
											<stop  offset="0" style="stop-color:#7ACFE2"/>
											<stop  offset="0.3704" style="stop-color:#76D4E6"/>
											<stop  offset="0.8061" style="stop-color:#6BE2F2"/>
											<stop  offset="1" style="stop-color:#64EBF9"/>
										</linearGradient>
										<path class="st53" d="M266.3,139.8l-107.2,61.9c-1.2,0.7-2.9,0.8-4,0.2L91.2,165c-1-0.6-0.9-1.6,0.3-2.3l107.2-61.9
											c1.2-0.7,2.9-0.8,4-0.2l63.9,36.9C267.6,138.1,267.5,139.1,266.3,139.8z"/>
										<path class="st8" d="M266.3,139.3l-107.2,61.9c-1.2,0.7-2.9,0.8-4,0.2l-63.9-36.9c-0.4-0.2-0.6-0.5-0.6-0.7
											c-0.1,0.5,0.1,0.9,0.6,1.2l63.9,36.9c1,0.6,2.8,0.5,4-0.2l107.2-61.9c0.8-0.4,1.1-1,0.9-1.5
											C267.1,138.6,266.8,139,266.3,139.3z"/>
										<path class="st48" d="M126.8,188.3v-1.2c0-0.1,0.1-0.2,0.2-0.1l4.1,2.4c0.1,0,0.2,0.2,0.2,0.3v1.2c0,0.1-0.1,0.2-0.2,0.1
											l-4.1-2.4C126.9,188.5,126.8,188.4,126.8,188.3z"/>
										<path class="st48" d="M133,191.9v-1.2c0-0.1,0.1-0.2,0.2-0.1l4.1,2.4c0.1,0,0.2,0.2,0.2,0.3v1.2c0,0.1-0.1,0.2-0.2,0.1
											l-4.1-2.4C133.1,192.1,133,192,133,191.9z"/>
										<path class="st54" d="M107.9,161.5l89.1-51.4c0.6-0.3,1.3-0.3,1.9,0l31.7,18.3c0.5,0.3,0.5,0.9,0,1.2l-89,51.4
											c-0.6,0.3-1.3,0.3-1.9,0l-31.8-18.3C107.4,162.4,107.4,161.7,107.9,161.5z"/>
										
											<linearGradient id="SVGID_12_" gradientUnits="userSpaceOnUse" x1="107.5114" y1="103.5625" x2="230.875" y2="103.5625" gradientTransform="matrix(1 0 0 -1 0 240)">
											<stop  offset="0" style="stop-color:#51D9E0"/>
											<stop  offset="0.3951" style="stop-color:#55DDE5"/>
											<stop  offset="0.8601" style="stop-color:#60E7F3"/>
											<stop  offset="1" style="stop-color:#64EBF9"/>
										</linearGradient>
										<path class="st55" d="M107.9,162.7l0.3,0.2l88.7-51.2c0.6-0.3,1.3-0.3,1.9,0l31.4,18.2l0.3-0.2c0.5-0.3,0.5-0.9,0-1.2
											l-31.7-18.3c-0.6-0.3-1.3-0.3-1.9,0l-89.1,51.4C107.4,161.7,107.4,162.4,107.9,162.7z"/>
										<g>
											<polygon class="st48" points="201.3,114.7 123.9,159.4 120.5,157.4 197.8,112.7 											"/>
											<polygon class="st48" points="209.7,119.6 137.1,161.5 133.7,159.5 206.3,117.6 											"/>
											<polygon class="st48" points="215.2,122.7 129.8,172.1 126.3,170.1 211.8,120.8 											"/>
											<polygon class="st48" points="220.7,125.9 135.3,175.2 131.8,173.2 217.2,123.9 											"/>
											<polygon class="st48" points="226.2,129.1 140.8,178.4 137.3,176.4 222.7,127.1 											"/>
											<polygon class="st48" points="119.2,162.1 115.8,164 112.4,162.1 115.8,160.1 											"/>
											<polygon class="st48" points="131.4,164.8 124.2,168.9 120.8,166.9 127.9,162.8 											"/>
										</g>
										
											<linearGradient id="SVGID_13_" gradientUnits="userSpaceOnUse" x1="-1952.0581" y1="78.7625" x2="-1906.8197" y2="78.7625" gradientTransform="matrix(1 0 0 -1 2131.9236 240)">
											<stop  offset="0" style="stop-color:#74D7E8"/>
											<stop  offset="0.3021" style="stop-color:#78DCEB"/>
											<stop  offset="0.6574" style="stop-color:#83EAF3"/>
											<stop  offset="1" style="stop-color:#93FFFF"/>
										</linearGradient>
										<path class="st56" d="M200.4,173.9l24-13.9c0.9-0.5,0.9-1.4,0-2l-16.4-9.5c-0.9-0.5-2.5-0.5-3.4,0l-24,13.9
											c-0.9,0.5-0.9,1.4,0,2l16.4,9.5C197.9,174.5,199.4,174.5,200.4,173.9z"/>
										
											<linearGradient id="SVGID_14_" gradientUnits="userSpaceOnUse" x1="179.8743" y1="83.9375" x2="225.095" y2="83.9375" gradientTransform="matrix(1 0 0 -1 0 240)">
											<stop  offset="0" style="stop-color:#7ACFE2"/>
											<stop  offset="0.1721" style="stop-color:#77CBDD"/>
											<stop  offset="0.375" style="stop-color:#6DBECF"/>
											<stop  offset="0.5935" style="stop-color:#5DA9B7"/>
											<stop  offset="0.8214" style="stop-color:#488C96"/>
											<stop  offset="1" style="stop-color:#337077"/>
										</linearGradient>
										<path class="st57" d="M180.6,163.3l24-13.9c0.9-0.5,2.5-0.5,3.4,0l16.4,9.5c0.3,0.2,0.5,0.4,0.6,0.6
											c0.2-0.5,0.1-1-0.6-1.4l-16.4-9.5c-0.9-0.5-2.5-0.5-3.4,0l-24,13.9c-0.6,0.4-0.8,0.9-0.6,1.4
											C180.1,163.6,180.3,163.4,180.6,163.3z"/>
									</g>
								</g>
								<g class="st58">
									<g>
										<defs>
											<polygon id="SVGID_15_" points="183.8,21.2 79.4,81.5 92.4,157.8 196.7,97.6 											"/>
										</defs>
										<clipPath id="SVGID_16_">
											<use xlink:href="#SVGID_15_"  style="overflow:visible;"/>
										</clipPath>
										<g class="st59">
											
												<linearGradient id="SVGID_17_" gradientUnits="userSpaceOnUse" x1="-2049.5093" y1="127.95" x2="-1872.7456" y2="127.95" gradientTransform="matrix(1 0 0 -1 2131.9236 240)">
												<stop  offset="0" style="stop-color:#C0BFF6"/>
												<stop  offset="0.2938" style="stop-color:#C5C4F7"/>
												<stop  offset="0.6399" style="stop-color:#D3D2F9"/>
												<stop  offset="1" style="stop-color:#E9E9FD"/>
											</linearGradient>
											<path class="st60" d="M198.8,100.6L91.6,162.5c-1.2,0.7-2.9,0.8-4,0.2l-63.9-36.9c-1-0.6-0.9-1.6,0.3-2.3l107.2-61.9
												c1.2-0.7,2.9-0.8,4-0.2l63.9,36.9C200.1,98.9,200,100,198.8,100.6z"/>
											
												<linearGradient id="SVGID_18_" gradientUnits="userSpaceOnUse" x1="-2061.0986" y1="140.9625" x2="-2015.86" y2="140.9625" gradientTransform="matrix(1 0 0 -1 2131.9236 240)">
												<stop  offset="0" style="stop-color:#C0BFF6"/>
												<stop  offset="0.2938" style="stop-color:#C5C4F7"/>
												<stop  offset="0.6399" style="stop-color:#D3D2F9"/>
												<stop  offset="1" style="stop-color:#E9E9FD"/>
											</linearGradient>
											<path class="st61" d="M91.3,111.7l24-13.9c0.9-0.5,0.9-1.4,0-2l-16.4-9.5c-0.9-0.5-2.5-0.5-3.4,0l-24,13.9
												c-0.9,0.5-0.9,1.4,0,2l16.4,9.5C88.8,112.3,90.4,112.3,91.3,111.7z"/>
											<path class="st62" d="M71.5,101.1l24-13.9c0.9-0.5,2.5-0.5,3.4,0l16.4,9.5c0.3,0.2,0.5,0.4,0.6,0.6
												c0.2-0.5,0.1-1-0.6-1.4l-16.4-9.5c-0.9-0.5-2.5-0.5-3.4,0l-24,13.9c-0.6,0.4-0.8,0.9-0.6,1.4
												C71,101.5,71.2,101.3,71.5,101.1z"/>
											<g>
												<path class="st63" d="M60.9,133.4L150,82c0.6-0.3,1.3-0.3,1.9,0l31.7,18.3c0.5,0.3,0.5,0.9,0,1.2l-89,51.4
													c-0.6,0.3-1.3,0.3-1.9,0l-31.8-18.3C60.5,134.3,60.5,133.7,60.9,133.4z"/>
												<path class="st62" d="M60.9,134.6l0.3,0.2l88.7-51.2c0.6-0.3,1.3-0.3,1.9,0l31.4,18.2l0.3-0.2c0.5-0.3,0.5-0.9,0-1.2
													L151.9,82c-0.6-0.3-1.3-0.3-1.9,0l-89.1,51.4C60.5,133.7,60.5,134.3,60.9,134.6z"/>
												<g>
													<polygon class="st48" points="175.3,99.1 97.7,143.9 100.8,145.6 178.4,100.9 													"/>
													<polygon class="st48" points="167.1,94.4 93.4,136.9 96.5,138.7 170.2,96.1 													"/>
													<polygon class="st48" points="87.9,140.1 81,144.1 84.1,145.9 91,141.9 													"/>
													<polygon class="st48" points="94,146 89.2,148.8 92.3,150.6 97.1,147.8 													"/>
													<polygon class="st48" points="162,91.4 75.9,141.1 79,142.9 165.1,93.2 													"/>
													<polygon class="st48" points="156.9,88.4 70.8,138.2 73.8,139.9 160,90.2 													"/>
													<polygon class="st48" points="151.8,85.5 65.6,135.2 68.7,137 154.8,87.3 													"/>
												</g>
											</g>
										</g>
									</g>
								</g>
							</g>
						</g>
					</g>
				</g>
			</g>
			<g>
				<g>
					<g>
						<polygon class="st13" points="140,70.9 139.7,68.7 137.7,69.8 138.1,72.1 						"/>
						<polygon class="st14" points="140.8,75.4 140.4,73.2 138.5,74.3 138.9,76.5 						"/>
						<polygon class="st15" points="141.6,79.9 141.2,77.7 139.3,78.8 139.6,81 						"/>
						<polygon class="st13" points="142.4,84.4 142,82.2 140,83.3 140.4,85.5 						"/>
						<polygon class="st15" points="143.1,88.9 142.7,86.6 140.8,87.8 141.2,90 						"/>
						<polygon class="st13" points="143.9,93.4 143.5,91.1 141.6,92.3 142,94.5 						"/>
						<polygon class="st13" points="144.7,97.9 144.3,95.6 142.3,96.7 142.7,99 						"/>
						<polygon class="st13" points="145.4,102.3 145.1,100.1 143.1,101.2 143.5,103.5 						"/>
						<polygon class="st14" points="146.2,106.8 145.8,104.6 143.9,105.7 144.3,108 						"/>
					</g>
					<g>
						<polygon class="st13" points="143.9,68.7 143.6,66.4 141.6,67.6 142,69.8 						"/>
						<polygon class="st13" points="144.7,73.2 144.3,70.9 142.4,72 142.8,74.3 						"/>
						<polygon class="st13" points="145.5,77.7 145.1,75.4 143.2,76.5 143.5,78.8 						"/>
						<polygon class="st13" points="146.3,82.1 145.9,79.9 143.9,81 144.3,83.3 						"/>
						<polygon class="st13" points="147,86.6 146.6,84.4 144.7,85.5 145.1,87.8 						"/>
						<polygon class="st13" points="147.8,91.1 147.4,88.9 145.5,90 145.9,92.2 						"/>
						<polygon class="st13" points="148.6,95.6 148.2,93.4 146.2,94.5 146.6,96.7 						"/>
						<polygon class="st13" points="149.3,100.1 149,97.8 147,99 147.4,101.2 						"/>
						<polygon class="st13" points="150.1,104.6 149.7,102.3 147.8,103.5 148.2,105.7 						"/>
					</g>
					<g>
						<polygon class="st13" points="147.8,66.4 147.5,64.2 145.5,65.3 145.9,67.5 						"/>
						<polygon class="st13" points="148.6,70.9 148.2,68.7 146.3,69.8 146.7,72 						"/>
						<polygon class="st13" points="149.4,75.4 149,73.2 147.1,74.3 147.4,76.5 						"/>
						<polygon class="st14" points="150.2,79.9 149.8,77.6 147.8,78.8 148.2,81 						"/>
						<polygon class="st15" points="150.9,84.4 150.5,82.1 148.6,83.3 149,85.5 						"/>
						<polygon class="st15" points="151.7,88.9 151.3,86.6 149.4,87.7 149.8,90 						"/>
						<polygon class="st13" points="152.5,93.3 152.1,91.1 150.1,92.2 150.5,94.5 						"/>
						<polygon class="st13" points="153.2,97.8 152.9,95.6 150.9,96.7 151.3,99 						"/>
						<polygon class="st13" points="154,102.3 153.6,100.1 151.7,101.2 152.1,103.4 						"/>
					</g>
					<g>
						<polygon class="st15" points="151.7,64.2 151.4,61.9 149.4,63 149.8,65.3 						"/>
						<polygon class="st15" points="152.5,68.7 152.1,66.4 150.2,67.5 150.6,69.8 						"/>
						<polygon class="st14" points="153.3,73.1 152.9,70.9 151,72 151.3,74.3 						"/>
						<polygon class="st13" points="154.1,77.6 153.7,75.4 151.7,76.5 152.1,78.8 						"/>
						<polygon class="st13" points="154.8,82.1 154.4,79.9 152.5,81 152.9,83.2 						"/>
						<polygon class="st13" points="155.6,86.6 155.2,84.4 153.3,85.5 153.7,87.7 						"/>
						<polygon class="st15" points="156.4,91.1 156,88.8 154,90 154.4,92.2 						"/>
						<polygon class="st13" points="157.1,95.6 156.8,93.3 154.8,94.5 155.2,96.7 						"/>
						<polygon class="st13" points="157.9,100.1 157.5,97.8 155.6,98.9 156,101.2 						"/>
					</g>
					<g>
						<polygon class="st13" points="155.6,61.9 155.3,59.7 153.3,60.8 153.7,63 						"/>
						<polygon class="st13" points="156.4,66.4 156,64.2 154.1,65.3 154.5,67.5 						"/>
						<polygon class="st13" points="157.2,70.9 156.8,68.6 154.9,69.8 155.2,72 						"/>
						<polygon class="st13" points="158,75.4 157.6,73.1 155.6,74.3 156,76.5 						"/>
						<polygon class="st13" points="158.7,79.9 158.3,77.6 156.4,78.7 156.8,81 						"/>
						<polygon class="st13" points="159.5,84.3 159.1,82.1 157.2,83.2 157.6,85.5 						"/>
						<polygon class="st13" points="160.3,88.8 159.9,86.6 157.9,87.7 158.3,90 						"/>
						<polygon class="st13" points="161,93.3 160.7,91.1 158.7,92.2 159.1,94.4 						"/>
						<polygon class="st13" points="161.8,97.8 161.4,95.6 159.5,96.7 159.9,98.9 						"/>
					</g>
					<g>
						<polygon class="st13" points="159.5,59.7 159.2,57.4 157.2,58.5 157.6,60.8 						"/>
						<polygon class="st13" points="160.3,64.1 159.9,61.9 158,63 158.4,65.3 						"/>
						<polygon class="st15" points="161.1,68.6 160.7,66.4 158.8,67.5 159.1,69.8 						"/>
						<polygon class="st13" points="161.9,73.1 161.5,70.9 159.5,72 159.9,74.2 						"/>
						<polygon class="st14" points="162.6,77.6 162.2,75.4 160.3,76.5 160.7,78.7 						"/>
						<polygon class="st13" points="163.4,82.1 163,79.8 161.1,81 161.5,83.2 						"/>
						<polygon class="st13" points="164.2,86.6 163.8,84.3 161.8,85.5 162.2,87.7 						"/>
						<polygon class="st13" points="164.9,91.1 164.6,88.8 162.6,89.9 163,92.2 						"/>
						<polygon class="st13" points="165.7,95.5 165.3,93.3 163.4,94.4 163.8,96.7 						"/>
					</g>
					<g>
						<polygon class="st13" points="163.4,57.4 163.1,55.2 161.1,56.3 161.5,58.5 						"/>
						<polygon class="st13" points="164.2,61.9 163.8,59.6 161.9,60.8 162.3,63 						"/>
						<polygon class="st15" points="165,66.4 164.6,64.1 162.7,65.3 163,67.5 						"/>
						<polygon class="st13" points="165.8,70.9 165.4,68.6 163.4,69.7 163.8,72 						"/>
						<polygon class="st13" points="166.5,75.3 166.1,73.1 164.2,74.2 164.6,76.5 						"/>
						<polygon class="st14" points="167.3,79.8 166.9,77.6 165,78.7 165.4,81 						"/>
						<polygon class="st15" points="168.1,84.3 167.7,82.1 165.7,83.2 166.1,85.4 						"/>
						<polygon class="st13" points="168.8,88.8 168.5,86.6 166.5,87.7 166.9,89.9 						"/>
						<polygon class="st14" points="169.6,93.3 169.2,91 167.3,92.2 167.7,94.4 						"/>
					</g>
					<g>
						<polygon class="st13" points="167.3,55.1 167,52.9 165,54 165.4,56.3 						"/>
						<polygon class="st15" points="168.1,59.6 167.7,57.4 165.8,58.5 166.2,60.8 						"/>
						<polygon class="st13" points="168.9,64.1 168.5,61.9 166.6,63 166.9,65.2 						"/>
						<polygon class="st13" points="169.7,68.6 169.3,66.4 167.3,67.5 167.7,69.7 						"/>
						<polygon class="st13" points="170.4,73.1 170,70.8 168.1,72 168.5,74.2 						"/>
						<polygon class="st13" points="171.2,77.6 170.8,75.3 168.9,76.5 169.3,78.7 						"/>
						<polygon class="st13" points="172,82.1 171.6,79.8 169.6,80.9 170,83.2 						"/>
						<polygon class="st15" points="172.7,86.5 172.4,84.3 170.4,85.4 170.8,87.7 						"/>
						<polygon class="st13" points="173.5,91 173.1,88.8 171.2,89.9 171.6,92.2 						"/>
					</g>
					<g>
						<polygon class="st13" points="171.2,52.9 170.9,50.6 168.9,51.8 169.3,54 						"/>
						<polygon class="st14" points="172,57.4 171.6,55.1 169.7,56.3 170.1,58.5 						"/>
						<polygon class="st13" points="172.8,61.9 172.4,59.6 170.5,60.7 170.8,63 						"/>
						<polygon class="st13" points="173.6,66.3 173.2,64.1 171.2,65.2 171.6,67.5 						"/>
						<polygon class="st13" points="174.3,70.8 173.9,68.6 172,69.7 172.4,72 						"/>
						<polygon class="st13" points="175.1,75.3 174.7,73.1 172.8,74.2 173.2,76.4 						"/>
						<polygon class="st15" points="175.9,79.8 175.5,77.6 173.5,78.7 173.9,80.9 						"/>
						<polygon class="st13" points="176.6,84.3 176.3,82 174.3,83.2 174.7,85.4 						"/>
						<polygon class="st13" points="177.4,88.8 177,86.5 175.1,87.7 175.5,89.9 						"/>
					</g>
				</g>
				<g>
					<g>
						<polygon class="st13" points="105,91.1 104.6,88.9 102.7,90 103,92.3 						"/>
						<polygon class="st14" points="105.8,95.6 105.4,93.4 103.4,94.5 103.8,96.7 						"/>
						<polygon class="st15" points="106.5,100.1 106.1,97.9 104.2,99 104.6,101.2 						"/>
						<polygon class="st13" points="107.3,104.6 106.9,102.4 105,103.5 105.4,105.7 						"/>
						<polygon class="st15" points="108.1,109.1 107.7,106.8 105.7,108 106.1,110.2 						"/>
						<polygon class="st13" points="108.8,113.6 108.5,111.3 106.5,112.5 106.9,114.7 						"/>
						<polygon class="st13" points="109.6,118.1 109.2,115.8 107.3,116.9 107.7,119.2 						"/>
						<polygon class="st13" points="110.4,122.5 110,120.3 108.1,121.4 108.4,123.7 						"/>
						<polygon class="st14" points="111.2,127 110.8,124.8 108.8,125.9 109.2,128.2 						"/>
					</g>
					<g>
						<polygon class="st13" points="108.9,88.9 108.5,86.6 106.6,87.8 106.9,90 						"/>
						<polygon class="st13" points="109.7,93.4 109.3,91.1 107.3,92.3 107.7,94.5 						"/>
						<polygon class="st13" points="110.4,97.9 110,95.6 108.1,96.7 108.5,99 						"/>
						<polygon class="st13" points="111.2,102.3 110.8,100.1 108.9,101.2 109.3,103.5 						"/>
						<polygon class="st13" points="112,106.8 111.6,104.6 109.6,105.7 110,108 						"/>
						<polygon class="st13" points="112.7,111.3 112.4,109.1 110.4,110.2 110.8,112.4 						"/>
						<polygon class="st13" points="113.5,115.8 113.1,113.6 111.2,114.7 111.6,116.9 						"/>
						<polygon class="st13" points="114.3,120.3 113.9,118 112,119.2 112.3,121.4 						"/>
						<polygon class="st13" points="115.1,124.8 114.7,122.5 112.7,123.7 113.1,125.9 						"/>
					</g>
					<g>
						<polygon class="st13" points="112.8,86.6 112.4,84.4 110.5,85.5 110.8,87.8 						"/>
						<polygon class="st13" points="113.6,91.1 113.2,88.9 111.2,90 111.6,92.2 						"/>
						<polygon class="st13" points="114.3,95.6 113.9,93.4 112,94.5 112.4,96.7 						"/>
						<polygon class="st14" points="115.1,100.1 114.7,97.8 112.8,99 113.2,101.2 						"/>
						<polygon class="st15" points="115.9,104.6 115.5,102.3 113.5,103.5 113.9,105.7 						"/>
						<polygon class="st15" points="116.6,109.1 116.3,106.8 114.3,107.9 114.7,110.2 						"/>
						<polygon class="st13" points="117.4,113.5 117,111.3 115.1,112.4 115.5,114.7 						"/>
						<polygon class="st13" points="118.2,118 117.8,115.8 115.9,116.9 116.2,119.2 						"/>
						<polygon class="st13" points="119,122.5 118.6,120.3 116.6,121.4 117,123.6 						"/>
					</g>
					<g>
						<polygon class="st15" points="116.7,84.4 116.3,82.1 114.4,83.3 114.7,85.5 						"/>
						<polygon class="st15" points="117.5,88.9 117.1,86.6 115.1,87.7 115.5,90 						"/>
						<polygon class="st14" points="118.2,93.3 117.8,91.1 115.9,92.2 116.3,94.5 						"/>
						<polygon class="st13" points="119,97.8 118.6,95.6 116.7,96.7 117.1,99 						"/>
						<polygon class="st13" points="119.8,102.3 119.4,100.1 117.4,101.2 117.8,103.4 						"/>
						<polygon class="st13" points="120.5,106.8 120.2,104.6 118.2,105.7 118.6,107.9 						"/>
						<polygon class="st15" points="121.3,111.3 120.9,109 119,110.2 119.4,112.4 						"/>
						<polygon class="st13" points="122.1,115.8 121.7,113.5 119.8,114.7 120.1,116.9 						"/>
						<polygon class="st13" points="122.9,120.3 122.5,118 120.5,119.1 120.9,121.4 						"/>
					</g>
					<g>
						<polygon class="st13" points="120.6,82.1 120.2,79.9 118.3,81 118.6,83.2 						"/>
						<polygon class="st13" points="121.4,86.6 121,84.4 119,85.5 119.4,87.7 						"/>
						<polygon class="st13" points="122.1,91.1 121.7,88.8 119.8,90 120.2,92.2 						"/>
						<polygon class="st13" points="122.9,95.6 122.5,93.3 120.6,94.5 121,96.7 						"/>
						<polygon class="st13" points="123.7,100.1 123.3,97.8 121.3,98.9 121.7,101.2 						"/>
						<polygon class="st13" points="124.4,104.5 124.1,102.3 122.1,103.4 122.5,105.7 						"/>
						<polygon class="st13" points="125.2,109 124.8,106.8 122.9,107.9 123.3,110.2 						"/>
						<polygon class="st13" points="126,113.5 125.6,111.3 123.7,112.4 124,114.6 						"/>
						<polygon class="st13" points="126.8,118 126.4,115.8 124.4,116.9 124.8,119.1 						"/>
					</g>
					<g>
						<polygon class="st13" points="124.5,79.9 124.1,77.6 122.2,78.7 122.5,81 						"/>
						<polygon class="st13" points="125.3,84.3 124.9,82.1 122.9,83.2 123.3,85.5 						"/>
						<polygon class="st15" points="126,88.8 125.6,86.6 123.7,87.7 124.1,90 						"/>
						<polygon class="st13" points="126.8,93.3 126.4,91.1 124.5,92.2 124.9,94.4 						"/>
						<polygon class="st14" points="127.6,97.8 127.2,95.6 125.2,96.7 125.6,98.9 						"/>
						<polygon class="st13" points="128.3,102.3 128,100 126,101.2 126.4,103.4 						"/>
						<polygon class="st13" points="129.1,106.8 128.7,104.5 126.8,105.7 127.2,107.9 						"/>
						<polygon class="st13" points="129.9,111.3 129.5,109 127.6,110.1 127.9,112.4 						"/>
						<polygon class="st13" points="130.7,115.7 130.3,113.5 128.3,114.6 128.7,116.9 						"/>
					</g>
					<g>
						<polygon class="st13" points="128.4,77.6 128,75.4 126.1,76.5 126.4,78.7 						"/>
						<polygon class="st13" points="129.2,82.1 128.8,79.8 126.8,81 127.2,83.2 						"/>
						<polygon class="st15" points="129.9,86.6 129.5,84.3 127.6,85.5 128,87.7 						"/>
						<polygon class="st13" points="130.7,91.1 130.3,88.8 128.4,89.9 128.8,92.2 						"/>
						<polygon class="st13" points="131.5,95.5 131.1,93.3 129.1,94.4 129.5,96.7 						"/>
						<polygon class="st14" points="132.2,100 131.9,97.8 129.9,98.9 130.3,101.2 						"/>
						<polygon class="st15" points="133,104.5 132.6,102.3 130.7,103.4 131.1,105.6 						"/>
						<polygon class="st13" points="133.8,109 133.4,106.8 131.5,107.9 131.8,110.1 						"/>
						<polygon class="st14" points="134.6,113.5 134.2,111.2 132.2,112.4 132.6,114.6 						"/>
					</g>
					<g>
						<polygon class="st13" points="132.3,75.3 131.9,73.1 130,74.2 130.3,76.5 						"/>
						<polygon class="st15" points="133.1,79.8 132.7,77.6 130.7,78.7 131.1,81 						"/>
						<polygon class="st13" points="133.8,84.3 133.4,82.1 131.5,83.2 131.9,85.4 						"/>
						<polygon class="st13" points="134.6,88.8 134.2,86.6 132.3,87.7 132.7,89.9 						"/>
						<polygon class="st13" points="135.4,93.3 135,91 133,92.2 133.4,94.4 						"/>
						<polygon class="st13" points="136.1,97.8 135.8,95.5 133.8,96.7 134.2,98.9 						"/>
						<polygon class="st13" points="136.9,102.3 136.5,100 134.6,101.1 135,103.4 						"/>
						<polygon class="st15" points="137.7,106.7 137.3,104.5 135.4,105.6 135.7,107.9 						"/>
						<polygon class="st13" points="138.5,111.2 138.1,109 136.1,110.1 136.5,112.4 						"/>
					</g>
					<g>
						<polygon class="st13" points="136.2,73.1 135.8,70.8 133.9,72 134.2,74.2 						"/>
						<polygon class="st14" points="137,77.6 136.6,75.3 134.6,76.5 135,78.7 						"/>
						<polygon class="st13" points="137.7,82.1 137.3,79.8 135.4,80.9 135.8,83.2 						"/>
						<polygon class="st13" points="138.5,86.5 138.1,84.3 136.2,85.4 136.6,87.7 						"/>
						<polygon class="st13" points="139.3,91 138.9,88.8 136.9,89.9 137.3,92.2 						"/>
						<polygon class="st13" points="140,95.5 139.7,93.3 137.7,94.4 138.1,96.6 						"/>
						<polygon class="st15" points="140.8,100 140.4,97.8 138.5,98.9 138.9,101.1 						"/>
						<polygon class="st13" points="141.6,104.5 141.2,102.2 139.3,103.4 139.6,105.6 						"/>
						<polygon class="st13" points="142.4,109 142,106.7 140,107.9 140.4,110.1 						"/>
					</g>
				</g>
			</g>
		</g>
		<g>
			<path class="st11" d="M116.6,139.5v35.4c0,2-0.6,3.8-1.7,5.3c-1.6,2.2-4.2,3.6-7.2,3.6H84.6c-4.9,0-8.9-4-8.9-8.9v-35.4
				c0-3.7,2.2-6.8,5.4-8.2c1.1-0.5,2.3-0.7,3.5-0.7h23.1C112.6,130.7,116.6,134.6,116.6,139.5z"/>
			<path class="st64" d="M116.6,139.5v35.4c0,2-0.6,3.8-1.7,5.3c-1.1,0.5-2.3,0.7-3.5,0.7H88.3c-4.9,0-8.9-4-8.9-8.9v-35.4
				c0-2,0.6-3.8,1.7-5.3c1.1-0.5,2.3-0.7,3.5-0.7h23.1C112.6,130.7,116.6,134.6,116.6,139.5z"/>
			<path class="st65" d="M99.6,162.8v4.2c0,0.7-0.6,1.3-1.3,1.3h-4.2c-0.7,0-1.3-0.6-1.3-1.3v-4.2c0-0.7,0.6-1.3,1.3-1.3h4.2
				C99,161.5,99.6,162.1,99.6,162.8z"/>
			<g>
				<path class="st11" d="M88.7,162.8v4.2c0,0.7-0.6,1.3-1.3,1.3h-4.2c-0.7,0-1.3-0.6-1.3-1.3v-4.2c0-0.7,0.6-1.3,1.3-1.3h4.2
					C88.1,161.5,88.7,162.1,88.7,162.8z"/>
				<path class="st11" d="M99.6,151.9v4.2c0,0.7-0.6,1.3-1.3,1.3h-4.2c-0.7,0-1.3-0.6-1.3-1.3v-4.2c0-0.7,0.6-1.3,1.3-1.3h4.2
					C99,150.6,99.6,151.2,99.6,151.9z"/>
			</g>
			<g>
				<path class="st11" d="M88.7,151.9v4.2c0,0.7-0.6,1.3-1.3,1.3h-4.2c-0.7,0-1.3-0.6-1.3-1.3v-4.2c0-0.7,0.6-1.3,1.3-1.3h4.2
					C88.1,150.6,88.7,151.2,88.7,151.9z"/>
				<path class="st11" d="M99.6,173.1v4.2c0,0.7-0.6,1.3-1.3,1.3h-4.2c-0.7,0-1.3-0.6-1.3-1.3v-4.2c0-0.7,0.6-1.3,1.3-1.3h4.2
					C99,171.8,99.6,172.4,99.6,173.1z"/>
				<path class="st11" d="M88.7,173.1v4.2c0,0.7-0.6,1.3-1.3,1.3h-4.2c-0.7,0-1.3-0.6-1.3-1.3v-4.2c0-0.7,0.6-1.3,1.3-1.3h4.2
					C88.1,171.8,88.7,172.4,88.7,173.1z"/>
			</g>
			<g>
				<path class="st11" d="M99.6,162.8v1.2c0,0.7-0.6,1.3-1.3,1.3h-4.2c-0.7,0-1.3-0.6-1.3-1.3v-1.2c0-0.7,0.6-1.3,1.3-1.3h4.2
					C99,161.5,99.6,162.1,99.6,162.8z"/>
				<path class="st11" d="M88.7,162.8v1.2c0,0.7-0.6,1.3-1.3,1.3h-4.2c-0.7,0-1.3-0.6-1.3-1.3v-1.2c0-0.7,0.6-1.3,1.3-1.3h4.2
					C88.1,161.5,88.7,162.1,88.7,162.8z"/>
				<path class="st11" d="M99.6,151.9v1.2c0,0.7-0.6,1.3-1.3,1.3h-4.2c-0.7,0-1.3-0.6-1.3-1.3v-1.2c0-0.7,0.6-1.3,1.3-1.3h4.2
					C99,150.6,99.6,151.2,99.6,151.9z"/>
			</g>
			<g>
				<path class="st11" d="M88.7,151.9v1.2c0,0.7-0.6,1.3-1.3,1.3h-4.2c-0.7,0-1.3-0.6-1.3-1.3v-1.2c0-0.7,0.6-1.3,1.3-1.3h4.2
					C88.1,150.6,88.7,151.2,88.7,151.9z"/>
				<path class="st11" d="M99.6,173.1v1.2c0,0.7-0.6,1.3-1.3,1.3h-4.2c-0.7,0-1.3-0.6-1.3-1.3v-1.2c0-0.7,0.6-1.3,1.3-1.3h4.2
					C99,171.8,99.6,172.4,99.6,173.1z"/>
				<path class="st11" d="M88.7,173.1v1.2c0,0.7-0.6,1.3-1.3,1.3h-4.2c-0.7,0-1.3-0.6-1.3-1.3v-1.2c0-0.7,0.6-1.3,1.3-1.3h4.2
					C88.1,171.8,88.7,172.4,88.7,173.1z"/>
			</g>
			<path class="st66" d="M89.1,144.8h-4.4c-0.9,0-1.7-0.7-1.7-1.7v-4.4c0-0.9,0.7-1.7,1.7-1.7h22.9c0.9,0,1.7,0.7,1.7,1.7v4.4
				c0,0.9-0.7,1.7-1.7,1.7H94.3c-0.7,0-1.2,0.5-1.2,1.2s0.5,1.2,1.2,1.2h13.3c2.3,0,4.1-1.8,4.1-4.1v-4.4c0-2.2-1.8-4.1-4.1-4.1
				H84.7c-2.3,0-4.1,1.8-4.1,4.1v4.4c0,2.3,1.8,4.1,4.1,4.1h4.4c0.7,0,1.2-0.5,1.2-1.2S89.8,144.8,89.1,144.8z"/>
			<path class="st66" d="M83.2,169.5h4.2c1.4,0,2.5-1.1,2.5-2.5v-4.2c0-1.4-1.1-2.5-2.5-2.5h-4.2c-1.4,0-2.5,1.1-2.5,2.5v4.2
				C80.6,168.3,81.8,169.5,83.2,169.5z M83.1,162.8c0-0.1,0.1-0.1,0.1-0.1h4.2c0.1,0,0.1,0.1,0.1,0.1v4.2c0,0.1-0.1,0.1-0.1,0.1
				h-4.2c-0.1,0-0.1-0.1-0.1-0.1V162.8z"/>
			<path class="st66" d="M109.3,149.4h-4.2c-1.4,0-2.5,1.1-2.5,2.5v4.2c0,1.4,1.1,2.5,2.5,2.5h4.2c1.4,0,2.5-1.1,2.5-2.5v-4.2
				C111.9,150.5,110.7,149.4,109.3,149.4z M109.4,156.1c0,0.1-0.1,0.1-0.1,0.1h-4.2c-0.1,0-0.1-0.1-0.1-0.1c0.1-4.1-0.1-4.3,0.1-4.3
				h4.2c0.1,0,0.1,0.1,0.1,0.1V156.1z"/>
			<path class="st66" d="M83.2,158.6h4.2c1.4,0,2.5-1.1,2.5-2.5v-4.2c0-1.4-1.1-2.5-2.5-2.5h-4.2c-1.4,0-2.5,1.1-2.5,2.5v4.2
				C80.6,157.5,81.8,158.6,83.2,158.6z M83.1,151.9c0-0.1,0.1-0.1,0.1-0.1h4.2c0.1,0,0.1,0.1,0.1,0.1v4.2c0,0.1-0.1,0.1-0.1,0.1
				h-4.2c-0.1,0-0.1-0.1-0.1-0.1V151.9z"/>
			<path class="st66" d="M89.2,171.4c-0.5-0.5-1.1-0.9-1.9-0.9h-4.2c-0.8,0-1.4,0.3-1.9,0.9c-0.9,1-0.6,2.1-0.6,2.6v3.2
				c0,1.4,1.1,2.5,2.5,2.5h4.2c1.4,0,2.5-1.1,2.5-2.5V174C89.8,173.5,90.1,172.4,89.2,171.4z M87.3,177.4c-4.1-0.1-4.3,0.1-4.3-0.1
				c0-4.4,0-4.3,0.1-4.3h4.2c0.2,0,0.1,0.3,0.1,1C87.5,174,87.6,177.4,87.3,177.4z"/>
			<path class="st66" d="M108.7,160.2h-2.9c-1.8,0-3.2,1.4-3.2,3.2v12.9c0,1.9,1.6,3.5,3.5,3.5h2.3c1.9,0,3.5-1.6,3.5-3.5v-12.9
				C111.9,161.7,110.4,160.2,108.7,160.2z M109.4,176.3c0,0.6-0.5,1.1-1.1,1.1H106c-0.6,0-1.1-0.5-1.1-1.1v-12.9
				c0-0.4,0.3-0.8,0.8-0.8h2.9c0.4,0,0.8,0.3,0.8,0.8L109.4,176.3L109.4,176.3z"/>
			<path class="st66" d="M98.3,170.6h-4.2c-0.8,0-1.4,0.3-1.9,0.9c-0.9,1-0.6,2.1-0.6,2.6v3.2c0,1.4,1.1,2.5,2.5,2.5h4.2
				c1.4,0,2.5-1.1,2.5-2.5v-4.2c0-0.7-0.3-1.4-0.8-1.8C99.6,170.8,98.9,170.6,98.3,170.6z M98.3,177.4c-4.1-0.1-4.3,0.1-4.3-0.1
				v-4.2c0-0.1,0.1-0.1,0.1-0.1h4.2c0.1,0,0.1,0.1,0.1,0.1C98.3,177.2,98.5,177.4,98.3,177.4z"/>
			<path class="st66" d="M98.3,149.4h-4.2c-1.4,0-2.5,1.1-2.5,2.5v4.2c0,1.4,1.1,2.5,2.5,2.5h4.2c0.3,0,0.6-0.1,0.9-0.2
				c0.9-0.4,1.6-1.3,1.6-2.4v-4.2C100.8,150.5,99.7,149.4,98.3,149.4z M98.4,156.1c0,0.1-0.1,0.1-0.1,0.1h-4.2
				c-0.1,0-0.1-0.1-0.1-0.1v-4.2c0-0.2,0.2-0.1,4.3-0.1c0.1,0,0.1,0.1,0.1,0.1V156.1L98.4,156.1z"/>
			<path class="st66" d="M99.2,160.4c-0.3-0.1-0.6-0.2-0.9-0.2h-4.2c-1.4,0-2.5,1.1-2.5,2.5v4.2c0,1.4,1.1,2.5,2.5,2.5h4.2
				c1.4,0,2.5-1.1,2.5-2.5v-4.2C100.8,161.7,100.1,160.8,99.2,160.4z M98.4,166.9c0,0.1-0.1,0.1-0.1,0.1h-4.2
				c-0.1,0-0.1-0.1-0.1-0.1v-4.2c0-0.1,0.1-0.1,0.1-0.1h4.2c0.1,0,0.1,0.1,0.1,0.1V166.9z"/>
		</g>
	</g>
</g>
</svg>
