<svg xmlns="http://www.w3.org/2000/svg" width="825" height="193.31" viewBox="0 0 825 193.31"><defs><style>.cls-1{opacity:0.3;}.cls-2{fill:#f7f7f7;}.cls-3{fill:#fff;}.cls-4{fill:#cccbcb;}.cls-5{fill:#454546;}.cls-6{isolation:isolate;}.cls-7{fill:#707171;}.cls-8{fill:#66c5e2;}.cls-9{fill:#23b5e9;}.cls-10{fill:#fdfdfd;}.cls-11{opacity:0.5;}.cls-12{fill:#547cbe;}.cls-13{opacity:0.6;}.cls-14{fill:#a0d6d4;}.cls-15{fill:#096a8f;}.cls-16{fill:#0b6977;}.cls-17{fill:none;}.cls-18{fill:#00ade1;}</style></defs><g id="Layer_2" data-name="Layer 2"><g id="Layer_1-2" data-name="Layer 1"><g class="cls-1"><rect class="cls-2" width="399.08" height="193.31" rx="4.3"/><path d="M394.77,0h-5V.5h5V0Zm-7,0h-5V.5h5V0Zm-7,0h-5V.5h5V0Zm-7,0h-5V.5h5V0Zm-7,0h-5V.5h5V0Zm-7,0h-5V.5h5V0Zm-7,0h-5V.5h5V0Zm-7,0h-5V.5h5V0Zm-7,0h-5V.5h5V0Zm-7,0h-5V.5h5V0Zm-7,0h-5V.5h5V0Zm-7,0h-5V.5h5V0Zm-7,0h-5V.5h5V0Zm-7,0h-5V.5h5V0Zm-7,0h-5V.5h5V0Zm-7,0h-5V.5h5V0Zm-7,0h-5V.5h5V0Zm-7,0h-5V.5h5V0Zm-7,0h-5V.5h5V0Zm-7,0h-5V.5h5V0Zm-7,0h-5V.5h5V0Zm-7,0h-5V.5h5V0Zm-7,0h-5V.5h5V0Zm-7,0h-5V.5h5V0Zm-7,0h-5V.5h5V0Zm-7,0h-5V.5h5V0Zm-7,0h-5V.5h5V0Zm-7,0h-5V.5h5V0Zm-7,0h-5V.5h5V0Zm-7,0h-5V.5h5V0Zm-7,0h-5V.5h5V0Zm-7,0h-5V.5h5V0Zm-7,0h-5V.5h5V0Zm-7,0h-5V.5h5V0Zm-7,0h-5V.5h5V0Zm-7,0h-5V.5h5V0Zm-7,0h-5V.5h5V0Zm-7,0h-5V.5h5V0Zm-7,0h-5V.5h5V0Zm-7,0h-5V.5h5V0Zm-7,0h-5V.5h5V0Zm-7,0h-5V.5h5V0Zm-7,0h-5V.5h5V0Zm-7,0h-5V.5h5V0Zm-7,0h-5V.5h5V0Zm-7,0h-5V.5h5V0Zm-7,0h-5V.5h5V0Zm-7,0h-5V.5h5V0Zm-7,0h-5V.5h5V0Zm-7,0h-5V.5h5V0Zm-7,0h-5V.5h5V0Zm-7,0h-5V.5h5V0Zm-7,0h-5V.5h5V0Zm-7,0h-5V.5h5V0Zm-7,0h-5V.5h5V0Zm-7,0h-5V.5h5V0Zm-7,.27H2.67l0,0h0A4.25,4.25,0,0,0,.33,2.66h0v0h0v0h0v0h0v0h0V3h0V3h0A4.62,4.62,0,0,0,0,4.07l.5,0A3.78,3.78,0,0,1,3,.74L2.81.27ZM.5,6.07H0v5H.5v-5Zm0,7H0v5H.5v-5Zm0,7H0v5H.5v-5Zm0,7H0v5H.5v-5Zm0,7H0v5H.5v-5Zm0,7H0v5H.5v-5Zm0,7H0v5H.5v-5Zm0,7H0v5H.5v-5Zm0,7H0v5H.5v-5Zm0,7H0v5H.5v-5Zm0,7H0v5H.5v-5Zm0,7H0v5H.5v-5Zm0,7H0v5H.5v-5Zm0,7H0v5H.5v-5Zm0,7H0v5H.5v-5Zm0,7H0v5H.5v-5Zm0,7H0v5H.5v-5Zm0,7H0v5H.5v-5Zm0,7H0v5H.5v-5Zm0,7H0v5H.5v-5Zm0,7H0v5H.5v-5Zm0,7H0v5H.5v-5Zm0,7H0v5H.5v-5Zm0,7H0v5H.5v-5Zm0,7H0v5H.5v-5Zm0,7H0v5H.5v-5Zm0,7H0V189H0v0H0v0H0v0H0v0H0v0H0v0H0v0H0v0H0v0H0v0h0v0h0v0h0v0h0v0h0v0h0v0h0v0h0v0h0v0h0v0h0v0h0v0h0v0h0v0h0l0,.07h0A4.3,4.3,0,0,0,1,191.75H1l.08.09h0v0h.19v0h0a3.64,3.64,0,0,0,.48.4l.29-.4A3.83,3.83,0,0,1,.5,189v-.94Zm3.19,4.69-.08.5.44.05H8.6v-.5H4.3a3.14,3.14,0,0,1-.61-.05Zm11.91.05h-5v.5h5v-.5Zm7,0h-5v.5h5v-.5Zm7,0h-5v.5h5v-.5Zm7,0h-5v.5h5v-.5Zm7,0h-5v.5h5v-.5Zm7,0h-5v.5h5v-.5Zm7,0h-5v.5h5v-.5Zm7,0h-5v.5h5v-.5Zm7,0h-5v.5h5v-.5Zm7,0h-5v.5h5v-.5Zm7,0h-5v.5h5v-.5Zm7,0h-5v.5h5v-.5Zm7,0h-5v.5h5v-.5Zm7,0h-5v.5h5v-.5Zm7,0h-5v.5h5v-.5Zm7,0h-5v.5h5v-.5Zm7,0h-5v.5h5v-.5Zm7,0h-5v.5h5v-.5Zm7,0h-5v.5h5v-.5Zm7,0h-5v.5h5v-.5Zm7,0h-5v.5h5v-.5Zm7,0h-5v.5h5v-.5Zm7,0h-5v.5h5v-.5Zm7,0h-5v.5h5v-.5Zm7,0h-5v.5h5v-.5Zm7,0h-5v.5h5v-.5Zm7,0h-5v.5h5v-.5Zm7,0h-5v.5h5v-.5Zm7,0h-5v.5h5v-.5Zm7,0h-5v.5h5v-.5Zm7,0h-5v.5h5v-.5Zm7,0h-5v.5h5v-.5Zm7,0h-5v.5h5v-.5Zm7,0h-5v.5h5v-.5Zm7,0h-5v.5h5v-.5Zm7,0h-5v.5h5v-.5Zm7,0h-5v.5h5v-.5Zm7,0h-5v.5h5v-.5Zm7,0h-5v.5h5v-.5Zm7,0h-5v.5h5v-.5Zm7,0h-5v.5h5v-.5Zm7,0h-5v.5h5v-.5Zm7,0h-5v.5h5v-.5Zm7,0h-5v.5h5v-.5Zm7,0h-5v.5h5v-.5Zm7,0h-5v.5h5v-.5Zm7,0h-5v.5h5v-.5Zm7,0h-5v.5h5v-.5Zm7,0h-5v.5h5v-.5Zm7,0h-5v.5h5v-.5Zm7,0h-5v.5h5v-.5Zm7,0h-5v.5h5v-.5Zm7,0h-5v.5h5v-.5Zm7,0h-5v.5h5v-.5Zm7,0h-5v.5h5v-.5Zm4.89-3a3.8,3.8,0,0,1-3,2.91l.1.49a3.58,3.58,0,0,0,.54-.14h.41a4.33,4.33,0,0,0,2.15-2.15h0v0h0v0h0v0h0v0h0v0h0v0h0v0h0v0h.11v0h0v0h0v0h0v0h0v0h0v0h0v0l-.49-.1Zm.59-6.89h-.5v5h.5v-5Zm0-7h-.5v5h.5v-5Zm0-7h-.5v5h.5v-5Zm0-7h-.5v5h.5v-5Zm0-7h-.5v5h.5v-5Zm0-7h-.5v5h.5v-5Zm0-7h-.5v5h.5v-5Zm0-7h-.5v5h.5v-5Zm0-7h-.5v5h.5v-5Zm0-7h-.5v5h.5v-5Zm0-7h-.5v5h.5v-5Zm0-7h-.5v5h.5v-5Zm0-7h-.5v5h.5v-5Zm0-7h-.5v5h.5v-5Zm0-7h-.5v5h.5v-5Zm0-7h-.5v5h.5v-5Zm0-7h-.5v5h.5v-5Zm0-7h-.5v5h.5v-5Zm0-7h-.5v5h.5v-5Zm0-7h-.5v5h.5v-5Zm0-7h-.5v5h.5v-5Zm0-7h-.5v5h.5v-5Zm0-7h-.5v5h.5v-5Zm0-7h-.5v5h.5v-5Zm0-7h-.5v5h.5v-5Zm0-7h-.5v5h.5v-5Zm-1.25-6.67-.36.35a3.8,3.8,0,0,1,1.11,2.68V5.94h.5V4.3h-.37v0h0a4.43,4.43,0,0,0-.87-1.26ZM394.77,0V.5A3.85,3.85,0,0,1,396,.7l.16-.48H396l0,0h-.06a4.13,4.13,0,0,0-.61-.13h-.55Z"/></g><rect class="cls-3" x="107.14" y="41.34" width="89.02" height="58.17" rx="2.26"/><path class="cls-4" d="M193.9,41.59a2,2,0,0,1,2,2V97.24a2,2,0,0,1-2,2H109.4a2,2,0,0,1-2-2V43.59a2,2,0,0,1,2-2h84.5m0-.5H109.4a2.5,2.5,0,0,0-2.51,2.5V97.24a2.51,2.51,0,0,0,2.51,2.51h84.5a2.51,2.51,0,0,0,2.51-2.51V43.59a2.51,2.51,0,0,0-2.51-2.5Z"/><path class="cls-5" d="M150.67,16.34,147,24.74h-1.91l-3.63-8.4h2.1l2.56,6,2.59-6Z"/><path class="cls-5" d="M158.65,19.39c0,1.87-1.4,3-3.65,3h-1.69v2.32h-1.94v-8.4H155C157.25,16.34,158.65,17.51,158.65,19.39Zm-2,0c0-.92-.6-1.46-1.79-1.46h-1.58v2.91h1.58C156.08,20.84,156.68,20.3,156.68,19.39Z"/><path class="cls-5" d="M159.63,20.54a4.62,4.62,0,0,1,8-2.85l-1.25,1.15a2.68,2.68,0,0,0-2.11-1,2.58,2.58,0,0,0-2.69,2.68,2.58,2.58,0,0,0,2.69,2.69,2.67,2.67,0,0,0,2.11-1l1.25,1.15a4.61,4.61,0,0,1-8-2.84Z"/><path class="cls-5" d="M175.06,16.34v8.4h-1.95V17.9h-1.68V16.34Z"/><path class="cls-5" d="M179.62,14.64h1.66l-4,11.3h-1.66Z"/><path class="cls-5" d="M181.75,16.34h3.82c2.74,0,4.63,1.66,4.63,4.2s-1.89,4.2-4.63,4.2h-3.82Zm3.72,6.8a2.5,2.5,0,0,0,2.76-2.6,2.5,2.5,0,0,0-2.76-2.6H183.7v5.2Z"/><path class="cls-5" d="M197.24,21.06v3.68h-1.75v-.8a2.13,2.13,0,0,1-2,.89c-1.51,0-2.41-.83-2.41-1.95s.81-1.93,2.77-1.93h1.49c0-.8-.48-1.27-1.49-1.27a3.13,3.13,0,0,0-1.86.6L191.35,19a5,5,0,0,1,2.79-.78C196.1,18.19,197.24,19.1,197.24,21.06Zm-1.87,1.64V22h-1.28c-.88,0-1.15.32-1.15.76s.39.78,1.05.78A1.39,1.39,0,0,0,195.37,22.7Z"/><path class="cls-5" d="M203.1,24.43a2.75,2.75,0,0,1-1.53.4,2.12,2.12,0,0,1-2.41-2.31V19.87h-1V18.43h1V16.86H201v1.57h1.6v1.44H201V22.5a.75.75,0,0,0,.8.85,1.29,1.29,0,0,0,.75-.24Z"/><path class="cls-5" d="M209.87,21.06v3.68h-1.76v-.8a2.12,2.12,0,0,1-2,.89c-1.51,0-2.41-.83-2.41-1.95s.8-1.93,2.77-1.93H208c0-.8-.48-1.27-1.48-1.27a3.11,3.11,0,0,0-1.86.6L204,19a5,5,0,0,1,2.78-.78C208.73,18.19,209.87,19.1,209.87,21.06ZM208,22.7V22h-1.28c-.87,0-1.15.32-1.15.76s.4.78,1.06.78A1.37,1.37,0,0,0,208,22.7Z"/><path class="cls-5" d="M211.15,21.51a3.34,3.34,0,0,1,3.6-3.32,3,3,0,0,1,2.89,1.64l-1.45.78a1.6,1.6,0,0,0-1.45-.88,1.65,1.65,0,0,0-1.69,1.78,1.65,1.65,0,0,0,1.69,1.79,1.58,1.58,0,0,0,1.45-.89l1.45.79a3,3,0,0,1-2.89,1.63A3.33,3.33,0,0,1,211.15,21.51Z"/><path class="cls-5" d="M224.92,22H220a1.73,1.73,0,0,0,1.85,1.3,2.19,2.19,0,0,0,1.62-.63l1,1.08a3.36,3.36,0,0,1-2.67,1c-2.23,0-3.68-1.4-3.68-3.32a3.29,3.29,0,0,1,3.44-3.32A3.19,3.19,0,0,1,225,21.54,4.57,4.57,0,0,1,224.92,22ZM220,21h3.18A1.61,1.61,0,0,0,220,21Z"/><path class="cls-5" d="M232.81,21v3.7h-1.87V21.33c0-1-.48-1.52-1.31-1.52s-1.55.55-1.55,1.74v3.19h-1.87V18.29H228V19a2.82,2.82,0,0,1,2.13-.85A2.53,2.53,0,0,1,232.81,21Z"/><path class="cls-5" d="M238.67,24.43a2.75,2.75,0,0,1-1.53.4,2.12,2.12,0,0,1-2.41-2.31V19.87h-1V18.43h1V16.86h1.87v1.57h1.61v1.44H236.6V22.5a.75.75,0,0,0,.81.85,1.29,1.29,0,0,0,.75-.24Z"/><path class="cls-5" d="M245.8,22h-4.88a1.73,1.73,0,0,0,1.85,1.3,2.19,2.19,0,0,0,1.62-.63l1,1.08a3.34,3.34,0,0,1-2.66,1c-2.23,0-3.68-1.4-3.68-3.32a3.29,3.29,0,0,1,3.44-3.32,3.19,3.19,0,0,1,3.36,3.35A4.57,4.57,0,0,1,245.8,22ZM240.9,21h3.18a1.61,1.61,0,0,0-3.18,0Z"/><path class="cls-5" d="M251.1,18.19v1.73l-.42,0a1.59,1.59,0,0,0-1.72,1.8v3h-1.87V18.29h1.79v.85A2.58,2.58,0,0,1,251.1,18.19Z"/><path class="cls-5" d="M255.18,16.34v8.4h-1.94V17.9h-1.68V16.34Z"/><rect class="cls-3" x="11.36" y="41.34" width="89.02" height="58.17" rx="2.26"/><path class="cls-4" d="M98.11,41.59a2,2,0,0,1,2,2V97.24a2,2,0,0,1-2,2H13.61a2,2,0,0,1-2-2V43.59a2,2,0,0,1,2-2h84.5m0-.5H13.61a2.5,2.5,0,0,0-2.5,2.5V97.24a2.5,2.5,0,0,0,2.5,2.51h84.5a2.51,2.51,0,0,0,2.51-2.51V43.59a2.5,2.5,0,0,0-2.51-2.5Z"/><g class="cls-6"><path class="cls-7" d="M36.89,62.88a4.25,4.25,0,0,1,4.45-4.29,4.15,4.15,0,0,1,3.19,1.3l-.78.76a3.1,3.1,0,0,0-2.36-1,3.23,3.23,0,1,0,0,6.46,3.14,3.14,0,0,0,2.36-1l.78.75a4.14,4.14,0,0,1-3.2,1.32A4.25,4.25,0,0,1,36.89,62.88Z"/><path class="cls-7" d="M46.08,58.18h1.15v8.9H46.08Z"/><path class="cls-7" d="M48.84,63.9a3.31,3.31,0,1,1,3.31,3.25A3.17,3.17,0,0,1,48.84,63.9Zm5.45,0a2.14,2.14,0,1,0-2.14,2.24A2.08,2.08,0,0,0,54.29,63.9Z"/><path class="cls-7" d="M63,60.72v6.36h-1.1v-1a2.57,2.57,0,0,1-2.15,1A2.5,2.5,0,0,1,57,64.38V60.72h1.15v3.53c0,1.24.63,1.87,1.72,1.87a1.87,1.87,0,0,0,2-2.11V60.72Z"/><path class="cls-7" d="M71.17,58.18v8.9h-1.1v-1a2.69,2.69,0,0,1-2.27,1.08,3.25,3.25,0,0,1,0-6.49,2.72,2.72,0,0,1,2.22,1v-3.5ZM70,63.9a2.14,2.14,0,1,0-2.13,2.24A2.09,2.09,0,0,0,70,63.9Z"/><path class="cls-7" d="M34,79.38H29.49l-.93,2.1H27.33l3.8-8.4h1.19l3.81,8.4H34.87Zm-.42-1-1.81-4.11-1.81,4.11Z"/><path class="cls-7" d="M36.57,78.3a3.17,3.17,0,0,1,3.36-3.24,2.85,2.85,0,0,1,2.59,1.36l-.88.56a2,2,0,0,0-1.73-.91,2.24,2.24,0,0,0,0,4.47,2,2,0,0,0,1.73-.91l.88.55a2.86,2.86,0,0,1-2.59,1.37A3.19,3.19,0,0,1,36.57,78.3Z"/><path class="cls-7" d="M43.32,78.3a3.18,3.18,0,0,1,3.36-3.24,2.83,2.83,0,0,1,2.59,1.36L48.4,77a2,2,0,0,0-1.73-.91,2.24,2.24,0,0,0,0,4.47,2,2,0,0,0,1.73-.91l.87.55a2.84,2.84,0,0,1-2.59,1.37A3.19,3.19,0,0,1,43.32,78.3Z"/><path class="cls-7" d="M50.08,78.3a3.31,3.31,0,1,1,3.31,3.25A3.16,3.16,0,0,1,50.08,78.3Zm5.44,0a2.14,2.14,0,1,0-4.28,0,2.14,2.14,0,1,0,4.28,0Z"/><path class="cls-7" d="M64.21,75.12v6.36H63.12v-1a2.59,2.59,0,0,1-2.16,1,2.5,2.5,0,0,1-2.73-2.77V75.12h1.15v3.53c0,1.24.62,1.87,1.71,1.87a1.88,1.88,0,0,0,2-2.11V75.12Z"/><path class="cls-7" d="M72.44,77.82v3.66H71.29V78c0-1.25-.62-1.86-1.71-1.86a1.89,1.89,0,0,0-2,2.11v3.28H66.41V75.12h1.1v1a2.73,2.73,0,0,1,2.29-1A2.46,2.46,0,0,1,72.44,77.82Z"/><path class="cls-7" d="M78.16,81.11a2.18,2.18,0,0,1-1.39.44,1.82,1.82,0,0,1-2-2V76.07H73.67v-.95h1.08V73.73H75.9v1.39h1.83v.95H75.9v3.44a.94.94,0,0,0,1,1.07,1.48,1.48,0,0,0,.9-.3Z"/><path class="cls-7" d="M78.75,80.81l.48-.92a4,4,0,0,0,2.23.66c1.06,0,1.51-.32,1.51-.86,0-1.43-4-.19-4-2.72,0-1.14,1-1.91,2.65-1.91a4.66,4.66,0,0,1,2.32.58l-.5.91A3.32,3.32,0,0,0,81.59,76c-1,0-1.5.38-1.5.88,0,1.5,4,.28,4,2.75,0,1.15-1.06,1.88-2.75,1.88A4.56,4.56,0,0,1,78.75,80.81Z"/></g><rect class="cls-2" x="9.75" y="123.87" width="158.33" height="58.93" rx="2.26"/><path class="cls-4" d="M165.82,124.12a2,2,0,0,1,2,2v54.42a2,2,0,0,1-2,2H12a2,2,0,0,1-2-2V126.13a2,2,0,0,1,2-2H165.82m0-.5H12a2.51,2.51,0,0,0-2.51,2.51v54.42A2.51,2.51,0,0,0,12,183.06H165.82a2.52,2.52,0,0,0,2.51-2.51V126.13a2.52,2.52,0,0,0-2.51-2.51Z"/><rect class="cls-3" x="49.1" y="154.3" width="79.63" height="24.24" rx="2.26"/><path class="cls-8" d="M126.47,154.55a2,2,0,0,1,2,2v19.72a2,2,0,0,1-2,2H51.36a2,2,0,0,1-2-2V156.56a2,2,0,0,1,2-2h75.11m0-.5H51.36a2.51,2.51,0,0,0-2.51,2.51v19.72a2.5,2.5,0,0,0,2.51,2.5h75.11a2.5,2.5,0,0,0,2.51-2.5V156.56a2.51,2.51,0,0,0-2.51-2.51Z"/><g class="cls-6"><path class="cls-9" d="M69.21,169.6l.48-.91a4,4,0,0,0,2.23.66c1.07,0,1.51-.32,1.51-.86,0-1.43-4-.19-4-2.72,0-1.14,1-1.91,2.65-1.91a4.74,4.74,0,0,1,2.32.57l-.49.92a3.29,3.29,0,0,0-1.84-.51c-1,0-1.5.37-1.5.88,0,1.5,4,.27,4,2.74,0,1.16-1,1.89-2.75,1.89A4.58,4.58,0,0,1,69.21,169.6Z"/><path class="cls-9" d="M77.32,163.37v.55h1.85v1H77.34v5.41H76.19v-5.41H75.11v-1h1.08v-.56a1.92,1.92,0,0,1,2.1-2.06,2.13,2.13,0,0,1,1.3.38l-.35.87a1.49,1.49,0,0,0-.89-.3C77.67,162.25,77.32,162.64,77.32,163.37Z"/><path class="cls-9" d="M87.2,164.81c0,1.82-1.32,2.92-3.5,2.92H81.63v2.55h-1.2v-8.4H83.7C85.88,161.88,87.2,163,87.2,164.81Zm-1.2,0c0-1.2-.8-1.89-2.33-1.89h-2v3.77h2C85.2,166.69,86,166,86,164.81Z"/><path class="cls-9" d="M88.19,167.1a3.31,3.31,0,1,1,3.31,3.25A3.16,3.16,0,0,1,88.19,167.1Zm5.45,0a2.15,2.15,0,1,0-4.29,0,2.15,2.15,0,1,0,4.29,0Z"/><path class="cls-9" d="M96.4,161.38h1.15v8.9H96.4Z"/><path class="cls-9" d="M99.75,161.38h1.15v8.9H99.75Z"/><path class="cls-9" d="M108.82,167.48h-5.16a2.14,2.14,0,0,0,2.3,1.86,2.37,2.37,0,0,0,1.84-.77l.63.75a3.46,3.46,0,0,1-5.92-2.22,3.11,3.11,0,0,1,3.19-3.24,3.07,3.07,0,0,1,3.14,3.27C108.84,167.23,108.83,167.37,108.82,167.48Zm-5.16-.83h4.08a2.05,2.05,0,0,0-4.08,0Z"/><path class="cls-9" d="M113.86,163.86V165h-.27a1.9,1.9,0,0,0-2,2.15v3.17h-1.15v-6.36h1.1V165A2.42,2.42,0,0,1,113.86,163.86Z"/></g><rect class="cls-3" x="229.4" y="123.87" width="158.33" height="32.98" rx="2.26"/><path class="cls-8" d="M385.46,124.12a2,2,0,0,1,2,2v28.46a2,2,0,0,1-2,2H231.65a2,2,0,0,1-2-2V126.13a2,2,0,0,1,2-2H385.46m0-.5H231.65a2.52,2.52,0,0,0-2.51,2.51v28.46a2.51,2.51,0,0,0,2.51,2.51H385.46a2.51,2.51,0,0,0,2.51-2.51V126.13a2.51,2.51,0,0,0-2.51-2.51Z"/><g class="cls-6"><path class="cls-7" d="M132.63,62.88a4.25,4.25,0,0,1,4.45-4.29,4.15,4.15,0,0,1,3.19,1.3l-.78.76a3.13,3.13,0,0,0-2.36-1,3.23,3.23,0,1,0,0,6.46,3.14,3.14,0,0,0,2.36-1l.78.75a4.14,4.14,0,0,1-3.2,1.32A4.25,4.25,0,0,1,132.63,62.88Z"/><path class="cls-7" d="M141.82,58.18H143v8.9h-1.16Z"/><path class="cls-7" d="M144.58,63.9a3.31,3.31,0,1,1,3.31,3.25A3.17,3.17,0,0,1,144.58,63.9Zm5.45,0a2.14,2.14,0,1,0-2.14,2.24A2.08,2.08,0,0,0,150,63.9Z"/><path class="cls-7" d="M158.72,60.72v6.36h-1.09v-1a2.59,2.59,0,0,1-2.16,1,2.5,2.5,0,0,1-2.74-2.77V60.72h1.15v3.53c0,1.24.63,1.87,1.72,1.87a1.87,1.87,0,0,0,2-2.11V60.72Z"/><path class="cls-7" d="M166.91,58.18v8.9h-1.1v-1a2.69,2.69,0,0,1-2.27,1.08,3.25,3.25,0,0,1,0-6.49,2.72,2.72,0,0,1,2.22,1v-3.5Zm-1.14,5.72a2.14,2.14,0,1,0-4.28,0,2.14,2.14,0,1,0,4.28,0Z"/><path class="cls-7" d="M127.11,80.52l.44-.94a4.28,4.28,0,0,0,2.77,1c1.45,0,2.08-.56,2.08-1.29,0-2.05-5.09-.76-5.09-3.87,0-1.3,1-2.4,3.21-2.4a4.91,4.91,0,0,1,2.7.74l-.39,1a4.31,4.31,0,0,0-2.31-.68c-1.42,0-2,.6-2,1.33,0,2,5.08.77,5.08,3.85,0,1.28-1,2.38-3.25,2.38A5,5,0,0,1,127.11,80.52Z"/><path class="cls-7" d="M140.88,78.68h-5.16a2.16,2.16,0,0,0,2.3,1.86,2.39,2.39,0,0,0,1.84-.76l.64.74a3.22,3.22,0,0,1-2.51,1,3.18,3.18,0,0,1-3.42-3.25,3.12,3.12,0,0,1,3.19-3.24,3.06,3.06,0,0,1,3.14,3.28C140.9,78.43,140.89,78.58,140.88,78.68Zm-5.16-.82h4.08a2.05,2.05,0,0,0-4.08,0Z"/><path class="cls-7" d="M145.92,75.06v1.12a1.23,1.23,0,0,0-.26,0,1.9,1.9,0,0,0-2,2.15v3.17H142.5V75.12h1.11v1.07A2.41,2.41,0,0,1,145.92,75.06Z"/><path class="cls-7" d="M153.23,75.12l-2.79,6.36h-1.17l-2.78-6.36h1.2l2.18,5.1,2.23-5.1Z"/><path class="cls-7" d="M154.11,73.16a.76.76,0,0,1,.78-.76.75.75,0,0,1,.78.73.76.76,0,0,1-.78.77A.74.74,0,0,1,154.11,73.16Zm.2,2h1.15v6.36h-1.15Z"/><path class="cls-7" d="M157.07,78.3a3.18,3.18,0,0,1,3.36-3.24A2.83,2.83,0,0,1,163,76.42l-.88.56a2,2,0,0,0-1.72-.91,2.24,2.24,0,0,0,0,4.47,2,2,0,0,0,1.72-.91l.88.55a2.84,2.84,0,0,1-2.59,1.37A3.18,3.18,0,0,1,157.07,78.3Z"/><path class="cls-7" d="M170.13,78.68H165a2.14,2.14,0,0,0,2.3,1.86,2.41,2.41,0,0,0,1.84-.76l.63.74a3.46,3.46,0,0,1-5.92-2.22A3.11,3.11,0,0,1,167,75.06a3.07,3.07,0,0,1,3.14,3.28A2,2,0,0,1,170.13,78.68ZM165,77.86h4.08a2.05,2.05,0,0,0-4.08,0Z"/><path class="cls-7" d="M171,80.81l.48-.91a4.13,4.13,0,0,0,2.23.65c1.07,0,1.52-.32,1.52-.86,0-1.43-4-.19-4-2.72,0-1.14,1-1.91,2.65-1.91a4.59,4.59,0,0,1,2.31.58l-.49.91a3.31,3.31,0,0,0-1.83-.5c-1,0-1.5.37-1.5.87,0,1.5,4,.28,4,2.75,0,1.15-1.06,1.88-2.75,1.88A4.59,4.59,0,0,1,171,80.81Z"/></g><rect class="cls-3" x="202.92" y="41.34" width="89.02" height="58.17" rx="2.26"/><path class="cls-4" d="M289.68,41.59a2,2,0,0,1,2,2V97.24a2,2,0,0,1-2,2h-84.5a2,2,0,0,1-2-2V43.59a2,2,0,0,1,2-2h84.5m0-.5h-84.5a2.5,2.5,0,0,0-2.51,2.5V97.24a2.51,2.51,0,0,0,2.51,2.51h84.5a2.51,2.51,0,0,0,2.51-2.51V43.59a2.51,2.51,0,0,0-2.51-2.5Z"/><g class="cls-6"><path class="cls-7" d="M233.14,67.92l-2.78,6.36h-1.18l-2.78-6.36h1.2l2.18,5.1,2.24-5.1Z"/><path class="cls-7" d="M233.63,70.08a4.24,4.24,0,0,1,4.45-4.29,4.17,4.17,0,0,1,3.19,1.3l-.78.76a3.14,3.14,0,0,0-2.37-1,3.23,3.23,0,1,0,2.37,5.45l.78.75a4.16,4.16,0,0,1-3.21,1.32A4.24,4.24,0,0,1,233.63,70.08Z"/><path class="cls-7" d="M248.27,71.48h-5.15a2.14,2.14,0,0,0,2.3,1.86,2.41,2.41,0,0,0,1.84-.76l.63.74A3.46,3.46,0,0,1,242,71.1a3.11,3.11,0,0,1,3.19-3.24,3.07,3.07,0,0,1,3.14,3.28A2,2,0,0,1,248.27,71.48Zm-5.15-.82h4.08a2.05,2.05,0,0,0-4.08,0Z"/><path class="cls-7" d="M255.93,70.62v3.66h-1.15V70.75c0-1.25-.62-1.86-1.72-1.86a1.88,1.88,0,0,0-2,2.11v3.28H249.9V67.92H251v1a2.72,2.72,0,0,1,2.29-1A2.46,2.46,0,0,1,255.93,70.62Z"/><path class="cls-7" d="M261.64,73.91a2.14,2.14,0,0,1-1.39.44,1.81,1.81,0,0,1-2-2V68.87h-1.08v-1h1.08V66.53h1.15v1.39h1.82v1h-1.82v3.44a.94.94,0,0,0,1,1.07,1.45,1.45,0,0,0,.9-.3Z"/><path class="cls-7" d="M268.54,71.48h-5.15a2.14,2.14,0,0,0,2.3,1.86,2.37,2.37,0,0,0,1.83-.76l.64.74a3.47,3.47,0,0,1-5.93-2.22,3.12,3.12,0,0,1,3.19-3.24,3.07,3.07,0,0,1,3.15,3.28C268.57,71.23,268.55,71.38,268.54,71.48Zm-5.15-.82h4.07a2,2,0,0,0-4.07,0Z"/><path class="cls-7" d="M273.58,67.86V69a1.18,1.18,0,0,0-.26,0,1.9,1.9,0,0,0-2,2.15v3.17h-1.15V67.92h1.1V69A2.43,2.43,0,0,1,273.58,67.86Z"/></g><rect class="cls-3" x="298.7" y="41.34" width="89.02" height="58.17" rx="2.26"/><path class="cls-4" d="M385.46,41.59a2,2,0,0,1,2,2V97.24a2,2,0,0,1-2,2H301a2,2,0,0,1-2-2V43.59a2,2,0,0,1,2-2h84.5m0-.5H301a2.51,2.51,0,0,0-2.51,2.5V97.24A2.51,2.51,0,0,0,301,99.75h84.5A2.51,2.51,0,0,0,388,97.24V43.59a2.5,2.5,0,0,0-2.51-2.5Z"/><path class="cls-8" d="M377.2,67.75a2,2,0,0,1,2,2V90.64a2,2,0,0,1-2,2h-68a2,2,0,0,1-2-2V69.76a2,2,0,0,1,2-2h68m0-.5h-68a2.51,2.51,0,0,0-2.51,2.51V90.64a2.51,2.51,0,0,0,2.51,2.51h68a2.51,2.51,0,0,0,2.5-2.51V69.76a2.5,2.5,0,0,0-2.5-2.51Z"/><g class="cls-6"><path class="cls-7" d="M306.74,51.68h-2.4v-.87h5.79v.87h-2.4V57.8h-1Z"/><path class="cls-7" d="M315,54.61V57.8h-.91v-.69a2,2,0,0,1-1.74.75c-1.2,0-2-.64-2-1.55s.55-1.55,2.13-1.55H314v-.19c0-.81-.47-1.28-1.42-1.28a2.68,2.68,0,0,0-1.68.57l-.4-.72a3.53,3.53,0,0,1,2.19-.68C314.18,52.46,315,53.16,315,54.61Zm-1,1.58v-.74h-1.48c-.95,0-1.22.37-1.22.82s.44.85,1.17.85A1.54,1.54,0,0,0,314,56.19Z"/><path class="cls-7" d="M319.63,52.46v.93h-.22a1.58,1.58,0,0,0-1.67,1.79V57.8h-1V52.51h.92v.89A2,2,0,0,1,319.63,52.46Z"/><path class="cls-7" d="M325.83,52.51v4.57c0,1.87-.95,2.72-2.75,2.72a3.92,3.92,0,0,1-2.53-.79l.46-.74a3.23,3.23,0,0,0,2,.69c1.25,0,1.82-.58,1.82-1.78v-.41a2.42,2.42,0,0,1-1.91.81,2.56,2.56,0,1,1,0-5.12,2.42,2.42,0,0,1,2,.87v-.82ZM324.89,55a1.83,1.83,0,1,0-1.82,1.72A1.69,1.69,0,0,0,324.89,55Z"/><path class="cls-7" d="M332.43,55.48h-4.3A1.8,1.8,0,0,0,330.05,57a2,2,0,0,0,1.53-.64l.53.61a2.89,2.89,0,0,1-4.94-1.84,2.6,2.6,0,0,1,2.66-2.7,2.56,2.56,0,0,1,2.62,2.73C332.45,55.27,332.44,55.39,332.43,55.48Zm-4.3-.69h3.4a1.71,1.71,0,0,0-3.4,0Z"/><path class="cls-7" d="M336.76,57.49a1.81,1.81,0,0,1-1.16.37,1.51,1.51,0,0,1-1.68-1.66V53.3H333v-.79h.9V51.35h1v1.16h1.52v.79h-1.52v2.87a.77.77,0,0,0,.83.88,1.27,1.27,0,0,0,.75-.24Z"/><path class="cls-7" d="M340.75,50.81h1v7h-1Z"/><path class="cls-7" d="M348.74,54.76v3h-1V54.87c0-1-.52-1.55-1.43-1.55a1.57,1.57,0,0,0-1.68,1.76V57.8h-1V52.51h.92v.8a2.27,2.27,0,0,1,1.91-.85A2.05,2.05,0,0,1,348.74,54.76Z"/><path class="cls-7" d="M349.85,57.24l.4-.75a3.41,3.41,0,0,0,1.86.55c.89,0,1.26-.27,1.26-.72,0-1.19-3.35-.16-3.35-2.27,0-.95.85-1.59,2.21-1.59a3.86,3.86,0,0,1,1.93.48l-.41.76a2.77,2.77,0,0,0-1.53-.42c-.84,0-1.25.31-1.25.73,0,1.25,3.36.23,3.36,2.29,0,1-.88,1.56-2.29,1.56A3.83,3.83,0,0,1,349.85,57.24Z"/><path class="cls-7" d="M358.51,57.49a1.81,1.81,0,0,1-1.16.37,1.51,1.51,0,0,1-1.68-1.66V53.3h-.9v-.79h.9V51.35h1v1.16h1.52v.79h-1.52v2.87a.77.77,0,0,0,.83.88,1.27,1.27,0,0,0,.75-.24Z"/><path class="cls-7" d="M363.87,54.61V57.8H363v-.69a2,2,0,0,1-1.74.75c-1.2,0-2-.64-2-1.55s.55-1.55,2.13-1.55h1.52v-.19c0-.81-.47-1.28-1.42-1.28a2.68,2.68,0,0,0-1.68.57l-.4-.72a3.53,3.53,0,0,1,2.19-.68C363.05,52.46,363.87,53.16,363.87,54.61Zm-1,1.58v-.74h-1.48c-.95,0-1.22.37-1.22.82s.44.85,1.17.85A1.54,1.54,0,0,0,362.91,56.19Z"/><path class="cls-7" d="M370.68,54.76v3h-1V54.87c0-1-.52-1.55-1.43-1.55a1.57,1.57,0,0,0-1.68,1.76V57.8h-1V52.51h.92v.8a2.27,2.27,0,0,1,1.91-.85A2.05,2.05,0,0,1,370.68,54.76Z"/><path class="cls-7" d="M372,55.16a2.65,2.65,0,0,1,2.8-2.7A2.36,2.36,0,0,1,377,53.59l-.73.47a1.65,1.65,0,0,0-1.44-.76,1.87,1.87,0,0,0,0,3.73,1.65,1.65,0,0,0,1.44-.76l.73.46a2.38,2.38,0,0,1-2.16,1.13A2.65,2.65,0,0,1,372,55.16Z"/><path class="cls-7" d="M382.89,55.48h-4.3A1.8,1.8,0,0,0,380.51,57a2,2,0,0,0,1.53-.64l.53.61a2.89,2.89,0,0,1-4.94-1.84,2.6,2.6,0,0,1,2.66-2.7,2.56,2.56,0,0,1,2.62,2.73C382.91,55.27,382.9,55.39,382.89,55.48Zm-4.3-.69H382a1.71,1.71,0,0,0-3.4,0Z"/></g><g class="cls-6"><path class="cls-9" d="M321,83l.35-.69a4.08,4.08,0,0,0,2.77,1c1.57,0,2.25-.66,2.25-1.48,0-2.31-5.17-.89-5.17-4,0-1.23,1-2.3,3.1-2.3a4.81,4.81,0,0,1,2.6.74l-.3.71a4.31,4.31,0,0,0-2.3-.7c-1.54,0-2.22.69-2.22,1.53,0,2.3,5.17.91,5.17,4,0,1.23-1,2.29-3.13,2.29A4.59,4.59,0,0,1,321,83Z"/><path class="cls-9" d="M330.07,76.43v3.3h4.34v.76h-4.34v3.57h-.89v-8.4h5.76v.77Z"/><path class="cls-9" d="M341.65,81.81H337l-1,2.25H335l3.84-8.4h.87l3.84,8.4h-.94Zm-.33-.72-2-4.51-2,4.51Z"/><path class="cls-9" d="M350.59,77.75v5.54c0,2.17-1.07,3.15-3.16,3.15a4.37,4.37,0,0,1-2.94-1l.43-.65a3.78,3.78,0,0,0,2.49.87c1.59,0,2.32-.73,2.32-2.29v-.81a2.81,2.81,0,0,1-2.46,1.23,3.06,3.06,0,1,1,0-6.12,2.85,2.85,0,0,1,2.5,1.26V77.75Zm-.83,3a2.4,2.4,0,1,0-2.4,2.31A2.26,2.26,0,0,0,349.76,80.75Z"/><path class="cls-9" d="M358.47,81.17h-5.28a2.34,2.34,0,0,0,2.48,2.19,2.47,2.47,0,0,0,1.93-.83l.49.55a3.33,3.33,0,0,1-5.75-2.18,3,3,0,0,1,3.08-3.2,3,3,0,0,1,3.06,3.2C358.48,81,358.47,81.07,358.47,81.17Zm-5.28-.64h4.48a2.24,2.24,0,0,0-4.48,0Z"/><path class="cls-9" d="M366,80.4v3.66h-.85V80.48a1.76,1.76,0,0,0-1.9-2,2.07,2.07,0,0,0-2.2,2.28v3.31h-.86V77.75H361v1.16a2.65,2.65,0,0,1,2.4-1.21A2.42,2.42,0,0,1,366,80.4Z"/><path class="cls-9" d="M371.67,83.67a2,2,0,0,1-1.33.45,1.67,1.67,0,0,1-1.85-1.84V78.47h-1.13v-.72h1.13V76.37h.85v1.38h1.92v.72h-1.92v3.76a1,1,0,0,0,1.1,1.15,1.39,1.39,0,0,0,.93-.32Z"/></g><g class="cls-1"><rect class="cls-2" x="412.64" width="412.36" height="193.31" rx="4.3"/><path d="M820.7,0h-5V.5h5V0Zm-7,0h-5V.5h5V0Zm-7,0h-5V.5h5V0Zm-7,0h-5V.5h5V0Zm-7,0h-5V.5h5V0Zm-7,0h-5V.5h5V0Zm-7,0h-5V.5h5V0Zm-7,0h-5V.5h5V0Zm-7,0h-5V.5h5V0Zm-7,0h-5V.5h5V0Zm-7,0h-5V.5h5V0Zm-7,0h-5V.5h5V0Zm-7,0h-5V.5h5V0Zm-7,0h-5V.5h5V0Zm-7,0h-5V.5h5V0Zm-7,0h-5V.5h5V0Zm-7,0h-5V.5h5V0Zm-7,0h-5V.5h5V0Zm-7,0h-5V.5h5V0Zm-7,0h-5V.5h5V0Zm-7,0h-5V.5h5V0Zm-7,0h-5V.5h5V0Zm-7,0h-5V.5h5V0Zm-7,0h-5V.5h5V0Zm-7,0h-5V.5h5V0Zm-7,0h-5V.5h5V0Zm-7,0h-5V.5h5V0Zm-7,0h-5V.5h5V0Zm-7,0h-5V.5h5V0Zm-7,0h-5V.5h5V0Zm-7,0h-5V.5h5V0Zm-7,0h-5V.5h5V0Zm-7,0h-5V.5h5V0Zm-7,0h-5V.5h5V0Zm-7,0h-5V.5h5V0Zm-7,0h-5V.5h5V0Zm-7,0h-5V.5h5V0Zm-7,0h-5V.5h5V0Zm-7,0h-5V.5h5V0Zm-7,0h-5V.5h5V0Zm-7,0h-5V.5h5V0Zm-7,0h-5V.5h5V0Zm-7,0h-5V.5h5V0Zm-7,0h-5V.5h5V0Zm-7,0h-5V.5h5V0Zm-7,0h-5V.5h5V0Zm-7,0h-5V.5h5V0Zm-7,0h-5V.5h5V0Zm-7,0h-5V.5h5V0Zm-7,0h-5V.5h5V0Zm-7,0h-5V.5h5V0Zm-7,0h-5V.5h5V0Zm-7,0h-5V.5h5V0Zm-7,0h-5V.5h5V0Zm-7,0h-5V.5h5V0Zm-7,0h-5V.5h5V0Zm-7,0h-5V.5h5V0Zm-7,0h-5l0,.5h5V0Zm-6.9.57A4.3,4.3,0,0,0,413,2.63h0a2.46,2.46,0,0,0-.14.38h0V3h0v0h0s0,0,0,.08h0v0h0v0h0v0h0v0h0v0h0v0h0v0h0v0h0v0h0v0h0v0h0v0h0v0h0v0h0v0h0v0h0v0h0v0h0v0h0v0h0V4h0V4h0v0h0v0h0v0h0v.49h.5V4.3A3.81,3.81,0,0,1,415.05,1L414.8.57Zm-1.66,6.22h-.5v5h.5v-5Zm0,7h-.5v5h.5v-5Zm0,7h-.5v5h.5v-5Zm0,7h-.5v5h.5v-5Zm0,7h-.5v5h.5v-5Zm0,7h-.5v5h.5v-5Zm0,7h-.5v5h.5v-5Zm0,7h-.5v5h.5v-5Zm0,7h-.5v5h.5v-5Zm0,7h-.5v5h.5v-5Zm0,7h-.5v5h.5v-5Zm0,7h-.5v5h.5v-5Zm0,7h-.5v5h.5v-5Zm0,7h-.5v5h.5v-5Zm0,7h-.5v5h.5v-5Zm0,7h-.5v5h.5v-5Zm0,7h-.5v5h.5v-5Zm0,7h-.5v5h.5v-5Zm0,7h-.5v5h.5v-5Zm0,7h-.5v5h.5v-5Zm0,7h-.5v5h.5v-5Zm0,7h-.5v5h.5v-5Zm0,7h-.5v5h.5v-5Zm0,7h-.5v5h.5v-5Zm0,7h-.5v5h.5v-5Zm0,7h-.5v5h.5v-5Zm0,7h-.5V189h0v0h0v0h0v0h0v0h0v0h0v0h0v0h0v0h0v0h0v0h0a4.31,4.31,0,0,0,1.72,2.54h.21a2.37,2.37,0,0,0,.35.19l.22-.44a3.8,3.8,0,0,1-2.11-3.41v-.22Zm8.82,4h-5v.5h5v-.5Zm7,0h-5v.5h5v-.5Zm7,0h-5v.5h5v-.5Zm7,0h-5v.5h5v-.5Zm7,0h-5v.5h5v-.5Zm7,0h-5v.5h5v-.5Zm7,0h-5v.5h5v-.5Zm7,0h-5v.5h5v-.5Zm7,0h-5v.5h5v-.5Zm7,0h-5v.5h5v-.5Zm7,0h-5v.5h5v-.5Zm7,0h-5v.5h5v-.5Zm7,0h-5v.5h5v-.5Zm7,0h-5v.5h5v-.5Zm7,0h-5v.5h5v-.5Zm7,0h-5v.5h5v-.5Zm7,0h-5v.5h5v-.5Zm7,0h-5v.5h5v-.5Zm7,0h-5v.5h5v-.5Zm7,0h-5v.5h5v-.5Zm7,0h-5v.5h5v-.5Zm7,0h-5v.5h5v-.5Zm7,0h-5v.5h5v-.5Zm7,0h-5v.5h5v-.5Zm7,0h-5v.5h5v-.5Zm7,0h-5v.5h5v-.5Zm7,0h-5v.5h5v-.5Zm7,0h-5v.5h5v-.5Zm7,0h-5v.5h5v-.5Zm7,0h-5v.5h5v-.5Zm7,0h-5v.5h5v-.5Zm7,0h-5v.5h5v-.5Zm7,0h-5v.5h5v-.5Zm7,0h-5v.5h5v-.5Zm7,0h-5v.5h5v-.5Zm7,0h-5v.5h5v-.5Zm7,0h-5v.5h5v-.5Zm7,0h-5v.5h5v-.5Zm7,0h-5v.5h5v-.5Zm7,0h-5v.5h5v-.5Zm7,0h-5v.5h5v-.5Zm7,0h-5v.5h5v-.5Zm7,0h-5v.5h5v-.5Zm7,0h-5v.5h5v-.5Zm7,0h-5v.5h5v-.5Zm7,0h-5v.5h5v-.5Zm7,0h-5v.5h5v-.5Zm7,0h-5v.5h5v-.5Zm7,0h-5v.5h5v-.5Zm7,0h-5v.5h5v-.5Zm7,0h-5v.5h5v-.5Zm7,0h-5v.5h5v-.5Zm7,0h-5v.5h5v-.5Zm7,0h-5v.5h5v-.5Zm7,0h-5v.5h5v-.5Zm7,0h-5v.5h5v-.5Zm7,0h-5v.5h5v-.5Zm7,0h-5v.5h5l0-.5Zm4.07-4.3h-.5v.5a3.82,3.82,0,0,1-1.9,3.29l.26.43a4.26,4.26,0,0,0,2-2.67h0v0h0v0h0v0h0v0h0v0h0v0H825v0h0v0h0v0h0v-.5Zm0-7h-.5v5h.5v-5Zm0-7h-.5v5h.5v-5Zm0-7h-.5v5h.5v-5Zm0-7h-.5v5h.5v-5Zm0-7h-.5v5h.5v-5Zm0-7h-.5v5h.5v-5Zm0-7h-.5v5h.5v-5Zm0-7h-.5v5h.5v-5Zm0-7h-.5v5h.5v-5Zm0-7h-.5v5h.5v-5Zm0-7h-.5v5h.5v-5Zm0-7h-.5v5h.5v-5Zm0-7h-.5v5h.5v-5Zm0-7h-.5v5h.5v-5Zm0-7h-.5v5h.5v-5Zm0-7h-.5v5h.5v-5Zm0-7h-.5v5h.5v-5Zm0-7h-.5v5h.5v-5Zm0-7h-.5v5h.5v-5Zm0-7h-.5v5h.5v-5Zm0-7h-.5v5h.5v-5Zm0-7h-.5v5h.5v-5Zm0-7h-.5v5h.5v-5Zm0-7h-.5v5h.5v-5Zm0-7h-.5v5h.5v-5Zm0-7h-.5v5h.5v-5ZM822.6.44l-.22.45A3.77,3.77,0,0,1,824.5,4.3v.21h.5V4.3h0v0h0v0h0v0h0V4h0v0h0v0h0v0h0v0h0v0h0v0h0v0h0v0h0v0h0v0h0v0h0v0h0v0h0V3h0V3h0V3h0v0h0v0h0v0h0l0,0h0v0h0v0h0v0h0a.61.61,0,0,0-.05-.12h0A4.31,4.31,0,0,0,823.44,1h0V1h-.29a5.24,5.24,0,0,0-.51-.3Z"/></g><path class="cls-5" d="M542.06,24.74l-1.62-2.34h-1.79v2.34h-1.94v-8.4h3.64c2.24,0,3.64,1.17,3.64,3.05A2.73,2.73,0,0,1,542.27,22l1.88,2.7Zm-1.82-6.81h-1.59v2.92h1.59c1.19,0,1.78-.55,1.78-1.46S541.43,17.93,540.24,17.93Z"/><path class="cls-5" d="M551.68,22H546.8a1.73,1.73,0,0,0,1.85,1.3,2.21,2.21,0,0,0,1.62-.63l1,1.08a3.34,3.34,0,0,1-2.66,1c-2.23,0-3.68-1.4-3.68-3.32a3.29,3.29,0,0,1,3.44-3.32,3.19,3.19,0,0,1,3.36,3.35A4.57,4.57,0,0,1,551.68,22ZM546.78,21H550a1.54,1.54,0,0,0-1.59-1.34A1.52,1.52,0,0,0,546.78,21Z"/><path class="cls-5" d="M563.87,21v3.7H562V21.33c0-1-.47-1.52-1.22-1.52s-1.43.54-1.43,1.69v3.24h-1.87V21.33c0-1-.44-1.52-1.22-1.52s-1.42.54-1.42,1.69v3.24H553V18.29h1.79V19a2.62,2.62,0,0,1,2-.84,2.41,2.41,0,0,1,2.12,1.06,2.88,2.88,0,0,1,2.32-1.06C562.77,18.19,563.87,19.08,563.87,21Z"/><path class="cls-5" d="M565.15,21.51a3.55,3.55,0,1,1,3.55,3.32A3.32,3.32,0,0,1,565.15,21.51Zm5.2,0a1.65,1.65,0,1,0-3.3,0,1.66,1.66,0,1,0,3.3,0Z"/><path class="cls-5" d="M577.65,24.43a2.69,2.69,0,0,1-1.52.4,2.12,2.12,0,0,1-2.41-2.31V19.87h-1V18.43h1V16.86h1.87v1.57h1.61v1.44h-1.61V22.5a.75.75,0,0,0,.8.85,1.3,1.3,0,0,0,.76-.24Z"/><path class="cls-5" d="M584.79,22h-4.88a1.73,1.73,0,0,0,1.85,1.3,2.21,2.21,0,0,0,1.62-.63l1,1.08a3.36,3.36,0,0,1-2.66,1c-2.23,0-3.68-1.4-3.68-3.32a3.28,3.28,0,0,1,3.44-3.32,3.2,3.2,0,0,1,3.36,3.35C584.83,21.68,584.8,21.88,584.79,22ZM579.89,21h3.17a1.61,1.61,0,0,0-3.17,0Z"/><path class="cls-5" d="M597.68,16.34,594,24.74h-1.91l-3.63-8.4h2.1l2.56,6,2.59-6Z"/><path class="cls-5" d="M605.66,19.39c0,1.87-1.4,3-3.65,3h-1.69v2.32h-1.94v-8.4H602C604.26,16.34,605.66,17.51,605.66,19.39Zm-2,0c0-.92-.6-1.46-1.79-1.46h-1.58v2.91h1.58C603.09,20.84,603.69,20.3,603.69,19.39Z"/><path class="cls-5" d="M606.64,20.54a4.62,4.62,0,0,1,8-2.85l-1.25,1.15a2.68,2.68,0,0,0-2.11-1,2.58,2.58,0,0,0-2.69,2.68,2.58,2.58,0,0,0,2.69,2.69,2.67,2.67,0,0,0,2.11-1l1.25,1.15a4.61,4.61,0,0,1-8-2.84Z"/><path class="cls-5" d="M625.1,23.16v1.58h-6.34V23.48L622,20.42c.75-.71.88-1.14.88-1.55,0-.66-.46-1-1.34-1a2.05,2.05,0,0,0-1.74.84l-1.42-.91a3.9,3.9,0,0,1,3.34-1.56c1.87,0,3.11,1,3.11,2.48a3.32,3.32,0,0,1-1.4,2.65l-1.93,1.83Z"/><path class="cls-5" d="M629.12,14.64h1.67l-4,11.3h-1.67Z"/><path class="cls-5" d="M631.26,16.34h3.81c2.75,0,4.63,1.66,4.63,4.2s-1.88,4.2-4.63,4.2h-3.81Zm3.72,6.8a2.5,2.5,0,0,0,2.75-2.6,2.5,2.5,0,0,0-2.75-2.6H633.2v5.2Z"/><path class="cls-5" d="M646.75,21.06v3.68H645v-.8a2.13,2.13,0,0,1-2,.89c-1.51,0-2.41-.83-2.41-1.95s.8-1.93,2.77-1.93h1.49c0-.8-.48-1.27-1.49-1.27a3.13,3.13,0,0,0-1.86.6L640.86,19a5,5,0,0,1,2.78-.78C645.61,18.19,646.75,19.1,646.75,21.06Zm-1.87,1.64V22h-1.29c-.87,0-1.15.32-1.15.76s.4.78,1.06.78A1.39,1.39,0,0,0,644.88,22.7Z"/><path class="cls-5" d="M652.6,24.43a2.69,2.69,0,0,1-1.52.4,2.12,2.12,0,0,1-2.41-2.31V19.87h-1V18.43h1V16.86h1.87v1.57h1.61v1.44h-1.61V22.5a.75.75,0,0,0,.81.85,1.29,1.29,0,0,0,.75-.24Z"/><path class="cls-5" d="M659.37,21.06v3.68h-1.75v-.8a2.13,2.13,0,0,1-2,.89c-1.51,0-2.41-.83-2.41-1.95S654.05,21,656,21h1.49c0-.8-.48-1.27-1.49-1.27a3.13,3.13,0,0,0-1.86.6L653.48,19a5,5,0,0,1,2.79-.78C658.23,18.19,659.37,19.1,659.37,21.06ZM657.5,22.7V22h-1.28c-.88,0-1.15.32-1.15.76s.39.78,1,.78A1.38,1.38,0,0,0,657.5,22.7Z"/><path class="cls-5" d="M660.66,21.51a3.34,3.34,0,0,1,3.6-3.32,3,3,0,0,1,2.89,1.64l-1.45.78a1.61,1.61,0,0,0-1.45-.88,1.65,1.65,0,0,0-1.7,1.78,1.66,1.66,0,0,0,1.7,1.79,1.59,1.59,0,0,0,1.45-.89l1.45.79a3,3,0,0,1-2.89,1.63A3.33,3.33,0,0,1,660.66,21.51Z"/><path class="cls-5" d="M674.43,22h-4.88a1.73,1.73,0,0,0,1.85,1.3,2.21,2.21,0,0,0,1.62-.63l1,1.08a3.36,3.36,0,0,1-2.66,1c-2.23,0-3.68-1.4-3.68-3.32a3.28,3.28,0,0,1,3.44-3.32,3.2,3.2,0,0,1,3.36,3.35C674.47,21.68,674.44,21.88,674.43,22ZM669.53,21h3.17a1.61,1.61,0,0,0-3.17,0Z"/><path class="cls-5" d="M682.32,21v3.7h-1.88V21.33c0-1-.47-1.52-1.3-1.52s-1.55.55-1.55,1.74v3.19h-1.87V18.29h1.79V19a2.82,2.82,0,0,1,2.13-.85A2.53,2.53,0,0,1,682.32,21Z"/><path class="cls-5" d="M688.17,24.43a2.69,2.69,0,0,1-1.52.4,2.12,2.12,0,0,1-2.41-2.31V19.87h-1V18.43h1V16.86h1.87v1.57h1.61v1.44h-1.61V22.5a.75.75,0,0,0,.8.85,1.3,1.3,0,0,0,.76-.24Z"/><path class="cls-5" d="M695.31,22h-4.88a1.73,1.73,0,0,0,1.85,1.3,2.21,2.21,0,0,0,1.62-.63l1,1.08a3.36,3.36,0,0,1-2.66,1c-2.23,0-3.68-1.4-3.68-3.32A3.28,3.28,0,0,1,692,18.19a3.2,3.2,0,0,1,3.36,3.35C695.35,21.68,695.32,21.88,695.31,22ZM690.41,21h3.17a1.61,1.61,0,0,0-3.17,0Z"/><path class="cls-5" d="M700.6,18.19v1.73c-.15,0-.27,0-.41,0a1.59,1.59,0,0,0-1.72,1.8v3H696.6V18.29h1.79v.85A2.57,2.57,0,0,1,700.6,18.19Z"/><path class="cls-5" d="M707.72,23.16v1.58h-6.34V23.48l3.23-3.06c.75-.71.88-1.14.88-1.55,0-.66-.46-1-1.34-1a2.05,2.05,0,0,0-1.74.84L701,17.76a3.9,3.9,0,0,1,3.34-1.56c1.87,0,3.11,1,3.11,2.48a3.32,3.32,0,0,1-1.4,2.65l-1.93,1.83Z"/><rect class="cls-3" x="423.99" y="41.34" width="89.02" height="58.17" rx="2.26"/><path class="cls-4" d="M510.75,41.59a2,2,0,0,1,2,2V97.24a2,2,0,0,1-2,2h-84.5a2,2,0,0,1-2-2V43.59a2,2,0,0,1,2-2h84.5m0-.5h-84.5a2.5,2.5,0,0,0-2.5,2.5V97.24a2.5,2.5,0,0,0,2.5,2.51h84.5a2.51,2.51,0,0,0,2.51-2.51V43.59a2.5,2.5,0,0,0-2.51-2.5Z"/><rect class="cls-3" x="422.39" y="123.87" width="377.97" height="32.98" rx="3.62"/><path class="cls-8" d="M796.74,124.12a3.38,3.38,0,0,1,3.37,3.38v25.73a3.37,3.37,0,0,1-3.37,3.37H426a3.37,3.37,0,0,1-3.37-3.37V127.5a3.38,3.38,0,0,1,3.37-3.38H796.74m0-.5H426a3.88,3.88,0,0,0-3.87,3.88v25.73A3.87,3.87,0,0,0,426,157.1H796.74a3.87,3.87,0,0,0,3.87-3.87V127.5a3.88,3.88,0,0,0-3.87-3.88Z"/><g class="cls-6"><path class="cls-7" d="M449.53,62.88A4.25,4.25,0,0,1,454,58.59a4.15,4.15,0,0,1,3.19,1.3l-.78.76a3.13,3.13,0,0,0-2.36-1,3.23,3.23,0,1,0,0,6.46,3.14,3.14,0,0,0,2.36-1l.78.75a4.14,4.14,0,0,1-3.2,1.32A4.25,4.25,0,0,1,449.53,62.88Z"/><path class="cls-7" d="M458.72,58.18h1.15v8.9h-1.15Z"/><path class="cls-7" d="M461.48,63.9a3.31,3.31,0,1,1,3.31,3.25A3.17,3.17,0,0,1,461.48,63.9Zm5.45,0a2.14,2.14,0,1,0-2.14,2.24A2.08,2.08,0,0,0,466.93,63.9Z"/><path class="cls-7" d="M475.62,60.72v6.36h-1.1v-1a2.58,2.58,0,0,1-2.16,1,2.5,2.5,0,0,1-2.73-2.77V60.72h1.15v3.53c0,1.24.63,1.87,1.72,1.87a1.87,1.87,0,0,0,2-2.11V60.72Z"/><path class="cls-7" d="M483.81,58.18v8.9h-1.1v-1a2.69,2.69,0,0,1-2.27,1.08,3.25,3.25,0,0,1,0-6.49,2.72,2.72,0,0,1,2.22,1v-3.5Zm-1.14,5.72a2.14,2.14,0,1,0-2.13,2.24A2.09,2.09,0,0,0,482.67,63.9Z"/><path class="cls-7" d="M446.59,79.38h-4.46l-.93,2.1H440l3.8-8.4H445l3.81,8.4h-1.26Zm-.42-1-1.81-4.11-1.81,4.11Z"/><path class="cls-7" d="M449.21,78.3a3.18,3.18,0,0,1,3.36-3.24,2.85,2.85,0,0,1,2.59,1.36l-.88.56a2,2,0,0,0-1.73-.91,2.24,2.24,0,0,0,0,4.47,2,2,0,0,0,1.73-.91l.88.55a2.86,2.86,0,0,1-2.59,1.37A3.18,3.18,0,0,1,449.21,78.3Z"/><path class="cls-7" d="M456,78.3a3.18,3.18,0,0,1,3.36-3.24,2.83,2.83,0,0,1,2.59,1.36L461,77a2,2,0,0,0-1.73-.91,2.24,2.24,0,0,0,0,4.47,2,2,0,0,0,1.73-.91l.87.55a2.84,2.84,0,0,1-2.59,1.37A3.19,3.19,0,0,1,456,78.3Z"/><path class="cls-7" d="M462.72,78.3A3.31,3.31,0,1,1,466,81.55,3.17,3.17,0,0,1,462.72,78.3Zm5.44,0A2.14,2.14,0,1,0,466,80.54,2.09,2.09,0,0,0,468.16,78.3Z"/><path class="cls-7" d="M476.85,75.12v6.36h-1.09v-1a2.59,2.59,0,0,1-2.16,1,2.5,2.5,0,0,1-2.73-2.77V75.12H472v3.53c0,1.25.62,1.87,1.71,1.87a1.87,1.87,0,0,0,2-2.11V75.12Z"/><path class="cls-7" d="M485.08,77.82v3.66h-1.15V78c0-1.25-.62-1.86-1.71-1.86a1.89,1.89,0,0,0-2,2.11v3.28h-1.15V75.12h1.1v1a2.73,2.73,0,0,1,2.29-1A2.46,2.46,0,0,1,485.08,77.82Z"/><path class="cls-7" d="M490.8,81.11a2.18,2.18,0,0,1-1.39.44,1.82,1.82,0,0,1-2-2V76.07h-1.08v-.95h1.08V73.73h1.15v1.39h1.83v.95h-1.83v3.44a.94.94,0,0,0,1,1.07,1.48,1.48,0,0,0,.9-.3Z"/><path class="cls-7" d="M491.39,80.81l.48-.91a4.1,4.1,0,0,0,2.23.65c1.07,0,1.51-.32,1.51-.86,0-1.43-4-.19-4-2.72,0-1.14,1-1.91,2.65-1.91a4.63,4.63,0,0,1,2.32.58l-.5.91a3.31,3.31,0,0,0-1.83-.5c-1,0-1.5.37-1.5.87,0,1.5,4,.28,4,2.75,0,1.15-1.05,1.88-2.75,1.88A4.58,4.58,0,0,1,491.39,80.81Z"/></g><g class="cls-6"><path class="cls-9" d="M589.44,143.55l.48-.91a4.13,4.13,0,0,0,2.23.66c1.07,0,1.52-.32,1.52-.86,0-1.43-4-.2-4-2.73,0-1.14,1-1.9,2.65-1.9a4.59,4.59,0,0,1,2.31.57l-.49.91a3.31,3.31,0,0,0-1.83-.5c-1,0-1.5.37-1.5.87,0,1.5,4,.28,4,2.75,0,1.15-1.06,1.88-2.75,1.88A4.62,4.62,0,0,1,589.44,143.55Z"/><path class="cls-9" d="M597.56,137.31v.56h1.84v.94h-1.82v5.41h-1.15v-5.41h-1.08v-.94h1.08v-.57a1.91,1.91,0,0,1,2.1-2.05,2.14,2.14,0,0,1,1.29.37l-.35.88a1.48,1.48,0,0,0-.88-.3C597.9,136.2,597.56,136.58,597.56,137.31Z"/><path class="cls-9" d="M607.44,138.75c0,1.83-1.32,2.93-3.5,2.93h-2.08v2.54h-1.2v-8.39h3.28C606.12,135.83,607.44,136.93,607.44,138.75Zm-1.2,0c0-1.2-.8-1.88-2.34-1.88h-2v3.77h2C605.44,140.64,606.24,140,606.24,138.75Z"/><path class="cls-9" d="M608.43,141a3.31,3.31,0,1,1,3.31,3.25A3.16,3.16,0,0,1,608.43,141Zm5.44,0a2.14,2.14,0,1,0-4.28,0,2.14,2.14,0,1,0,4.28,0Z"/><path class="cls-9" d="M616.64,135.32h1.15v8.9h-1.15Z"/><path class="cls-9" d="M620,135.32h1.16v8.9H620Z"/><path class="cls-9" d="M629.05,141.43H623.9a2.15,2.15,0,0,0,2.3,1.86,2.36,2.36,0,0,0,1.83-.77l.64.74a3.47,3.47,0,0,1-5.93-2.22,3.11,3.11,0,0,1,3.19-3.23,3.06,3.06,0,0,1,3.15,3.27C629.08,141.18,629.06,141.32,629.05,141.43Zm-5.15-.83H628a2,2,0,0,0-4.07,0Z"/><path class="cls-9" d="M634.09,137.81v1.11h-.26a1.9,1.9,0,0,0-2,2.15v3.16h-1.15v-6.35h1.1v1.06A2.43,2.43,0,0,1,634.09,137.81Z"/></g><rect class="cls-3" x="519.78" y="41.34" width="89.02" height="58.17" rx="2.26"/><path class="cls-4" d="M606.54,41.59a2,2,0,0,1,2,2V97.24a2,2,0,0,1-2,2H522a2,2,0,0,1-2-2V43.59a2,2,0,0,1,2-2h84.5m0-.5H522a2.5,2.5,0,0,0-2.51,2.5V97.24A2.51,2.51,0,0,0,522,99.75h84.5a2.5,2.5,0,0,0,2.5-2.51V43.59a2.5,2.5,0,0,0-2.5-2.5Z"/><g class="cls-6"><path class="cls-7" d="M545.27,62.88a4.25,4.25,0,0,1,4.45-4.29,4.15,4.15,0,0,1,3.19,1.3l-.78.76a3.13,3.13,0,0,0-2.36-1,3.23,3.23,0,1,0,0,6.46,3.14,3.14,0,0,0,2.36-1l.78.75a4.14,4.14,0,0,1-3.2,1.32A4.25,4.25,0,0,1,545.27,62.88Z"/><path class="cls-7" d="M554.46,58.18h1.15v8.9h-1.15Z"/><path class="cls-7" d="M557.22,63.9a3.31,3.31,0,1,1,3.31,3.25A3.17,3.17,0,0,1,557.22,63.9Zm5.45,0a2.14,2.14,0,1,0-2.14,2.24A2.08,2.08,0,0,0,562.67,63.9Z"/><path class="cls-7" d="M571.36,60.72v6.36h-1.1v-1a2.58,2.58,0,0,1-2.16,1,2.5,2.5,0,0,1-2.73-2.77V60.72h1.15v3.53c0,1.24.63,1.87,1.72,1.87a1.87,1.87,0,0,0,2-2.11V60.72Z"/><path class="cls-7" d="M579.55,58.18v8.9h-1.1v-1a2.69,2.69,0,0,1-2.27,1.08,3.25,3.25,0,0,1,0-6.49,2.72,2.72,0,0,1,2.22,1v-3.5Zm-1.14,5.72a2.14,2.14,0,1,0-2.13,2.24A2.09,2.09,0,0,0,578.41,63.9Z"/><path class="cls-7" d="M539.75,80.52l.44-.94a4.28,4.28,0,0,0,2.77,1c1.45,0,2.08-.56,2.08-1.29,0-2.05-5.09-.76-5.09-3.87,0-1.3,1-2.4,3.21-2.4a4.91,4.91,0,0,1,2.7.74l-.39,1a4.31,4.31,0,0,0-2.31-.68c-1.42,0-2,.6-2,1.33,0,2,5.08.77,5.08,3.85,0,1.28-1,2.38-3.25,2.38A5,5,0,0,1,539.75,80.52Z"/><path class="cls-7" d="M553.52,78.68h-5.16a2.15,2.15,0,0,0,2.3,1.86,2.39,2.39,0,0,0,1.84-.76l.64.74a3.22,3.22,0,0,1-2.51,1,3.18,3.18,0,0,1-3.42-3.25,3.12,3.12,0,0,1,3.19-3.24,3.06,3.06,0,0,1,3.14,3.28C553.54,78.43,553.53,78.58,553.52,78.68Zm-5.16-.82h4.08a2.05,2.05,0,0,0-4.08,0Z"/><path class="cls-7" d="M558.56,75.06v1.12a1.23,1.23,0,0,0-.26,0,1.9,1.9,0,0,0-2,2.15v3.17h-1.15V75.12h1.1v1.07A2.44,2.44,0,0,1,558.56,75.06Z"/><path class="cls-7" d="M565.87,75.12l-2.79,6.36h-1.17l-2.78-6.36h1.2l2.18,5.1,2.23-5.1Z"/><path class="cls-7" d="M566.75,73.16a.76.76,0,0,1,.77-.76.74.74,0,0,1,.78.73.75.75,0,0,1-.78.77A.74.74,0,0,1,566.75,73.16Zm.2,2h1.15v6.36H567Z"/><path class="cls-7" d="M569.71,78.3a3.18,3.18,0,0,1,3.36-3.24,2.84,2.84,0,0,1,2.59,1.36l-.88.56a2,2,0,0,0-1.72-.91,2.24,2.24,0,0,0,0,4.47,2,2,0,0,0,1.72-.91l.88.55a2.85,2.85,0,0,1-2.59,1.37A3.18,3.18,0,0,1,569.71,78.3Z"/><path class="cls-7" d="M582.77,78.68h-5.15a2.14,2.14,0,0,0,2.3,1.86,2.37,2.37,0,0,0,1.83-.76l.64.74a3.46,3.46,0,0,1-5.92-2.22,3.11,3.11,0,0,1,3.19-3.24,3.07,3.07,0,0,1,3.14,3.28A2,2,0,0,1,582.77,78.68Zm-5.15-.82h4.07a2,2,0,0,0-4.07,0Z"/><path class="cls-7" d="M583.59,80.81l.48-.91a4.13,4.13,0,0,0,2.23.65c1.07,0,1.52-.32,1.52-.86,0-1.43-4-.19-4-2.72,0-1.14,1-1.91,2.65-1.91a4.59,4.59,0,0,1,2.31.58l-.49.91a3.31,3.31,0,0,0-1.83-.5c-1,0-1.5.37-1.5.87,0,1.5,4,.28,4,2.75,0,1.15-1.06,1.88-2.75,1.88A4.62,4.62,0,0,1,583.59,80.81Z"/></g><rect class="cls-3" x="615.56" y="41.34" width="89.02" height="58.17" rx="2.26"/><path class="cls-4" d="M702.32,41.59a2,2,0,0,1,2,2V97.24a2,2,0,0,1-2,2h-84.5a2,2,0,0,1-2-2V43.59a2,2,0,0,1,2-2h84.5m0-.5h-84.5a2.5,2.5,0,0,0-2.51,2.5V97.24a2.51,2.51,0,0,0,2.51,2.51h84.5a2.51,2.51,0,0,0,2.51-2.51V43.59a2.51,2.51,0,0,0-2.51-2.5Z"/><g class="cls-6"><path class="cls-7" d="M645.78,67.92,643,74.28h-1.18L639,67.92h1.2l2.18,5.1,2.23-5.1Z"/><path class="cls-7" d="M646.27,70.08a4.24,4.24,0,0,1,4.45-4.29,4.17,4.17,0,0,1,3.19,1.3l-.78.76a3.14,3.14,0,0,0-2.37-1,3.23,3.23,0,1,0,2.37,5.45l.78.75a4.16,4.16,0,0,1-3.21,1.32A4.24,4.24,0,0,1,646.27,70.08Z"/><path class="cls-7" d="M660.91,71.48h-5.15a2.14,2.14,0,0,0,2.3,1.86,2.41,2.41,0,0,0,1.84-.76l.63.74a3.46,3.46,0,0,1-5.92-2.22,3.11,3.11,0,0,1,3.19-3.24,3.07,3.07,0,0,1,3.14,3.28A2,2,0,0,1,660.91,71.48Zm-5.15-.82h4.07a2,2,0,0,0-4.07,0Z"/><path class="cls-7" d="M668.57,70.62v3.66h-1.15V70.75c0-1.25-.63-1.86-1.72-1.86a1.88,1.88,0,0,0-2,2.11v3.28h-1.15V67.92h1.1v1a2.72,2.72,0,0,1,2.29-1A2.46,2.46,0,0,1,668.57,70.62Z"/><path class="cls-7" d="M674.28,73.91a2.14,2.14,0,0,1-1.39.44,1.81,1.81,0,0,1-2-2V68.87H669.8v-1h1.08V66.53H672v1.39h1.82v1H672v3.44a.94.94,0,0,0,1,1.07,1.45,1.45,0,0,0,.9-.3Z"/><path class="cls-7" d="M681.18,71.48H676a2.16,2.16,0,0,0,2.31,1.86,2.38,2.38,0,0,0,1.83-.76l.64.74a3.47,3.47,0,0,1-5.93-2.22,3.12,3.12,0,0,1,3.19-3.24,3.07,3.07,0,0,1,3.15,3.28C681.21,71.23,681.19,71.38,681.18,71.48ZM676,70.66h4.08a2.05,2.05,0,0,0-4.08,0Z"/><path class="cls-7" d="M686.22,67.86V69a1.18,1.18,0,0,0-.26,0,1.9,1.9,0,0,0-2,2.15v3.17h-1.15V67.92h1.1V69A2.43,2.43,0,0,1,686.22,67.86Z"/></g><rect class="cls-3" x="711.34" y="41.34" width="89.02" height="58.17" rx="2.26"/><path class="cls-4" d="M798.1,41.59a2,2,0,0,1,2,2V97.24a2,2,0,0,1-2,2H713.6a2,2,0,0,1-2-2V43.59a2,2,0,0,1,2-2h84.5m0-.5H713.6a2.51,2.51,0,0,0-2.51,2.5V97.24a2.51,2.51,0,0,0,2.51,2.51h84.5a2.51,2.51,0,0,0,2.51-2.51V43.59a2.5,2.5,0,0,0-2.51-2.5Z"/><g class="cls-6"><path class="cls-7" d="M719.38,51.47H717V50.6h5.79v.87h-2.4V57.6h-1Z"/><path class="cls-7" d="M727.64,54.4v3.2h-.91v-.7a2,2,0,0,1-1.74.76c-1.2,0-2-.64-2-1.56s.55-1.55,2.13-1.55h1.52v-.19c0-.81-.47-1.28-1.42-1.28a2.68,2.68,0,0,0-1.68.57l-.4-.72a3.53,3.53,0,0,1,2.19-.68C726.82,52.25,727.64,53,727.64,54.4Zm-1,1.58v-.74H725.2c-1,0-1.22.37-1.22.82s.44.86,1.17.86A1.54,1.54,0,0,0,726.68,56Z"/><path class="cls-7" d="M732.27,52.25v.93h-.22A1.58,1.58,0,0,0,730.38,55V57.6h-1V52.3h.92v.89A2,2,0,0,1,732.27,52.25Z"/><path class="cls-7" d="M738.47,52.3v4.58c0,1.87-1,2.72-2.75,2.72a3.92,3.92,0,0,1-2.53-.79l.46-.74a3.23,3.23,0,0,0,2,.69c1.25,0,1.82-.58,1.82-1.78v-.42a2.42,2.42,0,0,1-1.91.82,2.57,2.57,0,1,1,0-5.13,2.42,2.42,0,0,1,2,.87V52.3Zm-.94,2.51a1.83,1.83,0,1,0-1.82,1.73A1.69,1.69,0,0,0,737.53,54.81Z"/><path class="cls-7" d="M745.07,55.27h-4.3a1.8,1.8,0,0,0,1.92,1.55,2,2,0,0,0,1.53-.64l.53.62A2.89,2.89,0,0,1,739.81,55a2.6,2.6,0,0,1,2.66-2.7A2.56,2.56,0,0,1,745.09,55C745.09,55.06,745.08,55.18,745.07,55.27Zm-4.3-.69h3.4a1.71,1.71,0,0,0-3.4,0Z"/><path class="cls-7" d="M749.4,57.29a1.81,1.81,0,0,1-1.16.37A1.51,1.51,0,0,1,746.56,56V53.09h-.9V52.3h.9V51.14h1V52.3H749v.79h-1.52V56a.78.78,0,0,0,.83.89,1.21,1.21,0,0,0,.75-.25Z"/><path class="cls-7" d="M753.39,50.6h1v7h-1Z"/><path class="cls-7" d="M761.38,54.55V57.6h-1V54.66c0-1-.52-1.55-1.43-1.55a1.57,1.57,0,0,0-1.68,1.76V57.6h-1V52.3h.92v.8a2.27,2.27,0,0,1,1.91-.85A2.05,2.05,0,0,1,761.38,54.55Z"/><path class="cls-7" d="M762.49,57l.4-.76a3.41,3.41,0,0,0,1.86.55c.89,0,1.26-.27,1.26-.72,0-1.19-3.35-.16-3.35-2.27,0-1,.85-1.59,2.21-1.59a3.86,3.86,0,0,1,1.93.48l-.41.76a2.77,2.77,0,0,0-1.53-.42c-.84,0-1.25.31-1.25.73,0,1.25,3.36.23,3.36,2.29,0,1-.88,1.57-2.29,1.57A3.83,3.83,0,0,1,762.49,57Z"/><path class="cls-7" d="M771.15,57.29a1.81,1.81,0,0,1-1.16.37A1.51,1.51,0,0,1,768.31,56V53.09h-.9V52.3h.9V51.14h1V52.3h1.52v.79h-1.52V56a.78.78,0,0,0,.83.89,1.21,1.21,0,0,0,.75-.25Z"/><path class="cls-7" d="M776.51,54.4v3.2h-.91v-.7a2,2,0,0,1-1.74.76c-1.2,0-2-.64-2-1.56s.55-1.55,2.13-1.55h1.52v-.19c0-.81-.47-1.28-1.42-1.28a2.68,2.68,0,0,0-1.68.57l-.4-.72a3.53,3.53,0,0,1,2.19-.68C775.69,52.25,776.51,53,776.51,54.4Zm-1,1.58v-.74h-1.48c-1,0-1.22.37-1.22.82s.44.86,1.17.86A1.54,1.54,0,0,0,775.55,56Z"/><path class="cls-7" d="M783.32,54.55V57.6h-1V54.66c0-1-.52-1.55-1.43-1.55a1.57,1.57,0,0,0-1.68,1.76V57.6h-1V52.3h.92v.8a2.27,2.27,0,0,1,1.91-.85A2.05,2.05,0,0,1,783.32,54.55Z"/><path class="cls-7" d="M784.64,55a2.65,2.65,0,0,1,2.8-2.7,2.36,2.36,0,0,1,2.16,1.13l-.73.47a1.65,1.65,0,0,0-1.44-.76,1.87,1.87,0,0,0,0,3.73,1.65,1.65,0,0,0,1.44-.76l.73.46a2.37,2.37,0,0,1-2.16,1.14A2.66,2.66,0,0,1,784.64,55Z"/><path class="cls-7" d="M795.53,55.27h-4.3a1.8,1.8,0,0,0,1.92,1.55,2,2,0,0,0,1.53-.64l.53.62A2.89,2.89,0,0,1,790.27,55a2.6,2.6,0,0,1,2.66-2.7A2.56,2.56,0,0,1,795.55,55C795.55,55.06,795.54,55.18,795.53,55.27Zm-4.3-.69h3.4a1.71,1.71,0,0,0-3.4,0Z"/></g><path class="cls-8" d="M789.83,67.75a2,2,0,0,1,2,2V90.64a2,2,0,0,1-2,2h-68a2,2,0,0,1-2-2V69.76a2,2,0,0,1,2-2h68m0-.5h-68a2.51,2.51,0,0,0-2.51,2.51V90.64a2.51,2.51,0,0,0,2.51,2.51h68a2.51,2.51,0,0,0,2.51-2.51V69.76a2.51,2.51,0,0,0-2.51-2.51Z"/><g class="cls-6"><path class="cls-9" d="M733.64,82.36l.34-.69a4.12,4.12,0,0,0,2.77,1c1.58,0,2.26-.66,2.26-1.48,0-2.31-5.17-.89-5.17-4,0-1.23,1-2.3,3.1-2.3a4.81,4.81,0,0,1,2.6.74l-.3.71a4.31,4.31,0,0,0-2.3-.7c-1.54,0-2.22.69-2.22,1.53,0,2.3,5.17.91,5.17,4,0,1.23-1,2.29-3.14,2.29A4.58,4.58,0,0,1,733.64,82.36Z"/><path class="cls-9" d="M742.71,75.75v3.3h4.34v.76h-4.34v3.57h-.89V75h5.76v.77Z"/><path class="cls-9" d="M754.29,81.13h-4.68l-1,2.25h-.92l3.84-8.4h.87l3.84,8.4h-.94Zm-.33-.72-2-4.5-2,4.5Z"/><path class="cls-9" d="M763.22,77.07v5.54c0,2.17-1.06,3.15-3.15,3.15a4.37,4.37,0,0,1-2.94-1l.43-.65a3.76,3.76,0,0,0,2.49.87c1.59,0,2.32-.73,2.32-2.29v-.81a2.84,2.84,0,0,1-2.46,1.23,3.06,3.06,0,1,1,0-6.12,2.85,2.85,0,0,1,2.5,1.26V77.07Zm-.82,3a2.4,2.4,0,1,0-2.4,2.31A2.26,2.26,0,0,0,762.4,80.07Z"/><path class="cls-9" d="M771.11,80.49h-5.28a2.33,2.33,0,0,0,2.48,2.19,2.46,2.46,0,0,0,1.93-.83l.48.56A3.33,3.33,0,0,1,765,80.22a3,3,0,0,1,3.08-3.2,3,3,0,0,1,3.06,3.2C771.12,80.29,771.11,80.39,771.11,80.49Zm-5.28-.64h4.47a2.24,2.24,0,0,0-4.47,0Z"/><path class="cls-9" d="M778.67,79.72v3.66h-.85V79.8a1.76,1.76,0,0,0-1.9-2,2.07,2.07,0,0,0-2.21,2.28v3.31h-.85V77.07h.82v1.16a2.64,2.64,0,0,1,2.4-1.21A2.42,2.42,0,0,1,778.67,79.72Z"/><path class="cls-9" d="M784.31,83a2,2,0,0,1-1.33.45,1.67,1.67,0,0,1-1.85-1.84V77.79H780v-.72h1.13V75.69H782v1.38h1.92v.72H782v3.76a1,1,0,0,0,1.09,1.15,1.39,1.39,0,0,0,.94-.32Z"/></g><rect class="cls-10" x="395.89" y="136.19" width="3.27" height="8.98"/><rect class="cls-10" x="412.59" y="136.19" width="3.27" height="8.98"/><rect class="cls-10" x="395.89" y="175.76" width="3.27" height="9.32"/><rect class="cls-10" x="412.59" y="175.76" width="3.27" height="9.32"/><g class="cls-11"><path d="M55.86,100.63l-1.79,3.27h3.58Z"/><path d="M55.86,122.8l-1.79-3.26h3.58Z"/><line class="cls-12" x1="55.86" y1="103.53" x2="55.86" y2="119.94"/><rect x="55.61" y="103.53" width="0.5" height="16.41"/></g><g class="cls-11"><path d="M126.55,100.63l-1.79,3.27h3.58Z"/><path d="M126.55,122.8l-1.79-3.26h3.58Z"/><rect x="126.3" y="103.53" width="0.5" height="16.41"/></g><g class="cls-11"><path d="M350.45,122.84l-1.79-3.27h3.58Z"/><rect x="350.2" y="94.31" width="0.5" height="25.91"/></g><g class="cls-11"><path d="M247.43,100.63l-1.79,3.27h3.58Z"/><path d="M142.66,122.8l-1.79-3.26h3.58Z"/><polygon points="142.91 119.94 142.41 119.94 142.41 109.05 247.18 109.05 247.18 103.13 247.68 103.13 247.68 109.55 142.91 109.55 142.91 119.94"/></g><g class="cls-11"><path d="M334.49,94.31l-1.79,3.26h3.58Z"/><path d="M155.91,122.8l-1.79-3.26h3.58Z"/><path d="M155.66,119.94v-5h.5v5Zm179.08-4.89h-2v-.5h1.48v-3h.5Zm-4,0h-5v-.5h5Zm-7,0h-5v-.5h5Zm-7,0h-5v-.5h5Zm-7,0h-5v-.5h5Zm-7,0h-5v-.5h5Zm-7,0h-5v-.5h5Zm-7,0h-5v-.5h5Zm-7,0h-5v-.5h5Zm-7,0h-5v-.5h5Zm-7,0h-5v-.5h5Zm-7,0h-5v-.5h5Zm-7,0h-5v-.5h5Zm-7,0h-5v-.5h5Zm-7,0h-5v-.5h5Zm-7,0h-5v-.5h5Zm-7,0h-5v-.5h5Zm-7,0h-5v-.5h5Zm-7,0h-5v-.5h5Zm-7,0h-5v-.5h5Zm-7,0h-5v-.5h5Zm-7,0h-5v-.5h5Zm-7,0h-5v-.5h5Zm-7,0h-5v-.5h5Zm-7,0h-5v-.5h5Zm-7,0h-5v-.5h5Zm172-5.53h-.5v-5h.5Zm0-7h-.5v-5h.5Z"/></g><g class="cls-11"><polygon points="156.97 166.03 129 166.03 129 165.53 156.47 165.53 156.47 146.09 225.8 146.09 225.8 146.59 156.97 146.59 156.97 166.03"/><path d="M225.62,148.19v-3.58l3.27,1.79"/></g><g class="cls-11"><path d="M228.89,136.78l-3.27,1.79V135Z"/><path d="M171.93,138.57V135l-3.27,1.79"/><path class="cls-12" d="M228.89,136.78l-3.27,1.79"/><rect x="171.56" y="136.53" width="55.69" height="0.5"/></g><g class="cls-13"><path d="M468.5,100.63l-1.79,3.27h3.58Z"/><path d="M468.5,122.8l-1.79-3.26h3.58Z"/><rect x="468.25" y="103.53" width="0.5" height="16.41"/></g><g class="cls-11"><path d="M391.65,142.15v-3.58l-3.27,1.79"/><rect x="391.2" y="140.11" width="30.31" height="0.5"/></g><g class="cls-11"><path d="M816.12,180.31h-1.5v-.5h1v-3.5h.5Zm-3.5,0h-5v-.5h5Zm-7,0h-5v-.5h5Zm-7,0h-5v-.5h5Zm-7,0h-5v-.5h5Zm-7,0h-5v-.5h5Zm-7,0h-5v-.5h5Zm-7,0h-5v-.5h5Zm-7,0h-5v-.5h5Zm-7,0h-5v-.5h5Zm-7,0h-5v-.5h5Zm-7,0h-5v-.5h5Zm-7,0h-5v-.5h5Zm-7,0h-5v-.5h5Zm-7,0h-5v-.5h5Zm-7,0h-5v-.5h5Zm-7,0h-5v-.5h5Zm-7,0h-5v-.5h5Zm-7,0h-5v-.5h5Zm-7,0h-5v-.5h5Zm-7,0h-5v-.5h5Zm-7,0h-5v-.5h5Zm-7,0h-5v-.5h5Zm-7,0h-5v-.5h5Zm-7,0h-5v-.5h5Zm-7,0h-5v-.5h5Zm-7,0h-5v-.5h5Zm-7,0h-5v-.5h5Zm-7,0h-5v-.5h5Zm-7,0h-5v-.5h5Zm-7,0h-5v-.5h5Zm-7,0h-5v-.5h5Zm-7,0h-5v-.5h5Zm-7,0h-5v-.5h5Zm-7,0h-5v-.5h5Zm-7,0h-5v-.5h5Zm-7,0h-5v-.5h5Zm-7,0h-5v-.5h5Zm-7,0h-5v-.5h5Zm-7,0h-5v-.5h5Zm-7,0h-5v-.5h5Zm-7,0h-5v-.5h5Zm-7,0h-5v-.5h5Zm-7,0h-5v-.5h5Zm-7,0h-5v-.5h5Zm-7,0h-5v-.5h5Zm-7,0h-5v-.5h5Zm-7,0h-5v-.5h5Zm-7,0h-5v-.5h5Zm-7,0h-5v-.5h5Zm-7,0h-5v-.5h5Zm-7,0h-5v-.5h5Zm-7,0h-5v-.5h5Zm-7,0h-5v-.5h5Zm-7,0h-5v-.5h5Zm-7,0h-5v-.5h5Zm-7,0h-5v-.5h5Zm-7,0h-5v-.5h5Zm-7,0h-5v-.5h5Zm-7,0h-5v-.5h5Zm-7,0h-5v-.5h5Zm-7,0h-5v-.5h5Zm-7,0h-5v-.5h5Zm-7,0h-5v-.5h5Zm-7,0h-5v-.5h5Zm-7,0h-5v-.5h5Zm-7,0h-5v-.5h5Zm-7,0h-5v-.5h5Zm-7,0h-5v-.5h5Zm-7,0h-5v-.5h5Zm-7,0h-5v-.5h5Zm-7,0h-5v-.5h5Zm-7,0h-5v-.5h5Zm-7,0h-2.15V177h.5v2.85h1.65ZM307,175h-.5v-5h.5Zm509.15-.65h-.5v-5h.5ZM307,168h-.5v-5h.5Zm509.15-.65h-.5v-5h.5ZM307,161h-.5v-1.37h.5Zm509.15-.65h-.5v-5h.5Zm0-7h-.5v-5h.5Zm0-7h-.5v-5h.5Zm0-7h-.5v-5h.5Zm0-7h-.5v-5h.5Zm0-7h-.5v-5h.5Zm0-7h-.5v-5h.5Zm0-7h-.5v-5h.5Zm0-7h-.5v-5h.5Zm0-7h-.5v-5h.5Zm0-7h-.5v-5h.5Zm0-7h-.5V80.45H814V80h2.14ZM812,80.45h-5V80h5Zm-7,0h-5V80h5Zm-7,0h-5V80h5Z"/><path d="M306.72,158l-1.79,3.26h3.58Z"/></g><g class="cls-13"><path d="M564.29,100.63l-1.79,3.27h3.58Z"/><path d="M564.29,122.8l-1.79-3.26h3.58Z"/><rect x="564.04" y="103.53" width="0.5" height="16.41"/></g><g class="cls-13"><path d="M660.07,100.63l-1.79,3.27h3.58Z"/><path d="M660.07,122.8l-1.79-3.26h3.58Z"/><rect x="659.82" y="103.53" width="0.5" height="16.41"/></g><g class="cls-6"><path class="cls-9" d="M286.09,143.26l.45-.93a4.33,4.33,0,0,0,2.77,1c1.45,0,2.07-.56,2.07-1.3,0-2.05-5.08-.75-5.08-3.87,0-1.3,1-2.4,3.21-2.4a4.91,4.91,0,0,1,2.7.74l-.4,1a4.37,4.37,0,0,0-2.3-.68c-1.43,0-2,.6-2,1.33,0,2,5.09.77,5.09,3.85,0,1.28-1,2.39-3.25,2.39A5,5,0,0,1,286.09,143.26Z"/><path class="cls-9" d="M295.51,136.87v2.93h4.21v1h-4.21v3.39h-1.2v-8.39h5.93v1Z"/><path class="cls-9" d="M301.93,135.83h3.54c2.7,0,4.53,1.7,4.53,4.2s-1.83,4.19-4.53,4.19h-3.54Zm3.47,7.35a3.16,3.16,0,1,0,0-6.31h-2.27v6.31Z"/><path class="cls-9" d="M316.71,140.38v3.84h-1.09v-.84a2.34,2.34,0,0,1-2.08.91c-1.44,0-2.35-.76-2.35-1.87s.66-1.86,2.55-1.86h1.82v-.22c0-1-.56-1.54-1.7-1.54a3.19,3.19,0,0,0-2,.69l-.49-.87a4.23,4.23,0,0,1,2.63-.81C315.73,137.81,316.71,138.65,316.71,140.38Zm-1.15,1.9v-.89h-1.77c-1.14,0-1.47.45-1.47,1s.53,1,1.41,1A1.85,1.85,0,0,0,315.56,142.28Z"/><path class="cls-9" d="M322.43,143.85a2.18,2.18,0,0,1-1.39.44,1.81,1.81,0,0,1-2-2v-3.49h-1.08v-.94H319v-1.4h1.15v1.4H322v.94h-1.82v3.45a.93.93,0,0,0,1,1.06,1.48,1.48,0,0,0,.9-.3Z"/><path class="cls-9" d="M328.86,140.38v3.84h-1.09v-.84a2.36,2.36,0,0,1-2.09.91c-1.44,0-2.35-.76-2.35-1.87s.66-1.86,2.55-1.86h1.83v-.22c0-1-.57-1.54-1.71-1.54a3.21,3.21,0,0,0-2,.69l-.48-.87a4.23,4.23,0,0,1,2.63-.81C327.87,137.81,328.86,138.65,328.86,140.38Zm-1.15,1.9v-.89h-1.78c-1.14,0-1.46.45-1.46,1s.53,1,1.4,1A1.86,1.86,0,0,0,327.71,142.28Z"/><path class="cls-9" d="M330.19,143.55l.48-.91a4.13,4.13,0,0,0,2.23.66c1.07,0,1.52-.32,1.52-.86,0-1.43-4-.2-4-2.73,0-1.14,1-1.9,2.65-1.9a4.59,4.59,0,0,1,2.31.57l-.49.91a3.31,3.31,0,0,0-1.83-.5c-1,0-1.5.37-1.5.87,0,1.5,4,.28,4,2.75,0,1.15-1.06,1.88-2.75,1.88A4.62,4.62,0,0,1,330.19,143.55Z"/><path class="cls-9" d="M340.58,143.85a2.16,2.16,0,0,1-1.39.44,1.81,1.81,0,0,1-2-2v-3.49H336.1v-.94h1.08v-1.4h1.15v1.4h1.82v.94h-1.82v3.45a.93.93,0,0,0,1,1.06,1.45,1.45,0,0,0,.9-.3Z"/><path class="cls-9" d="M341.17,141a3.31,3.31,0,1,1,3.31,3.25A3.16,3.16,0,0,1,341.17,141Zm5.45,0a2.14,2.14,0,1,0-2.14,2.25A2.09,2.09,0,0,0,346.62,141Z"/><path class="cls-9" d="M352.8,137.81v1.11h-.26a1.9,1.9,0,0,0-2,2.15v3.16h-1.15v-6.35h1.1v1.06A2.44,2.44,0,0,1,352.8,137.81Z"/><path class="cls-9" d="M359.88,141.43h-5.16a2.15,2.15,0,0,0,2.3,1.86,2.37,2.37,0,0,0,1.84-.77l.63.74a3.46,3.46,0,0,1-5.92-2.22,3.1,3.1,0,0,1,3.19-3.23,3.06,3.06,0,0,1,3.14,3.27C359.9,141.18,359.89,141.32,359.88,141.43Zm-5.16-.83h4.08a2.05,2.05,0,0,0-4.08,0Z"/></g><circle class="cls-9" cx="273.16" cy="141.94" r="0.28"/><circle class="cls-9" cx="273.16" cy="145.43" r="0.28"/><circle class="cls-9" cx="271.5" cy="141.94" r="0.28"/><circle class="cls-9" cx="271.5" cy="145.43" r="0.28"/><path class="cls-9" d="M267.08,135.77h-.15a1.52,1.52,0,1,0,0,3h3.46v1.11h-3.87a.27.27,0,0,0-.28.28v7a.28.28,0,0,0,.28.28h5.54a.28.28,0,0,0,0-.56h-5.27V144h7.75v2.93h-2.63a.28.28,0,1,0,0,.56h2.91a.28.28,0,0,0,.27-.28v-7a.27.27,0,0,0-.27-.28h-3.88v-1.11h3.46a1.52,1.52,0,0,0,0-3h-.16a1.93,1.93,0,0,0-1.91-1.66,1.84,1.84,0,0,0-.47.06,2.76,2.76,0,0,0-4.78,1.6Zm7.46,4.7v2.94h-7.75v-2.94Zm-4.7-6.64a2.23,2.23,0,0,1,1.71.83.27.27,0,0,0,.31.09,1.35,1.35,0,0,1,.47-.09,1.38,1.38,0,0,1,1.38,1.39.27.27,0,0,0,.28.27h.41a1,1,0,0,1,0,1.94h-7.47a1,1,0,1,1,0-1.94h.42a.27.27,0,0,0,.27-.27A2.23,2.23,0,0,1,269.84,133.83Z"/><path class="cls-14" d="M70.67,138.63a3.65,3.65,0,0,1-2.62-1.43c-.28-.37-.37-.87.23-.83a10.26,10.26,0,0,0,5.58-1.61,5.87,5.87,0,0,1-3.23,2.17c-.32.09-.83,0-.92.46s.27.64.55.92C70.4,138.4,70.54,138.54,70.67,138.63Z"/><path class="cls-15" d="M51.22,147.85c.46-1.06,1.29-1.93,1.52-3.13a.28.28,0,0,1,.3-.28.29.29,0,0,1,.21.09c1.24,1.06,2.67.88,4.15.88a5.56,5.56,0,0,1-3.09.41,1.38,1.38,0,0,0-1.43.56A7.49,7.49,0,0,1,51.22,147.85Z"/><path class="cls-15" d="M64.4,131.85a12.78,12.78,0,0,0-6.17-.41c-.6-.05-1.25.23-1.85,0-.78.28-.83.33-.46.7a22.34,22.34,0,0,1,3.92.18,27,27,0,0,0-3.92-.18,3,3,0,0,0,1.15.6,11.09,11.09,0,0,0,6.69.36,1.43,1.43,0,0,0,.87-.27,3.54,3.54,0,0,0,1-.19A2.16,2.16,0,0,0,64.4,131.85Z"/><path class="cls-16" d="M70.67,132.68c0,.42-.23.69-.64.65a.56.56,0,0,1-.61-.49.92.92,0,0,1,0-.16.57.57,0,0,1,.51-.6H70C70.44,132,70.63,132.31,70.67,132.68Z"/><path class="cls-15" d="M74.36,140.75a12.32,12.32,0,0,0-5.3.32,19,19,0,0,1-5.85.74c-.37-.09-.79-.14-1.16-.23l-1.75-1.2h0c.14.51.28,1,.37,1.52v.51a1.77,1.77,0,0,1-.05.51c.28.05.6.14.88.18a6.1,6.1,0,0,0,2.58.28A19.61,19.61,0,0,0,68,142.23a12.23,12.23,0,0,1,6-.69c.65.09,1.25.23,1.89.32C75.79,141,75,141,74.36,140.75Z"/><path class="cls-17" d="M70,133.33c.41,0,.6-.23.64-.65a.61.61,0,0,0-.63-.6h0a.56.56,0,0,0-.6.52v.08a.6.6,0,0,0,.53.65Z"/><path class="cls-9" d="M56.47,137.71a7.57,7.57,0,0,0-2.72,2.35,16.89,16.89,0,0,1-1.38,2.54,9.12,9.12,0,0,1-1.48,2.49.85.85,0,0,1-1.15.36,1.18,1.18,0,0,1-.18-.13,12.19,12.19,0,0,1-2.68,2.39c-.64.37-.46.65.1.83a4,4,0,0,0,4.15-.78c.46-1.06,1.29-1.94,1.52-3.14a.29.29,0,0,1,.3-.28.3.3,0,0,1,.2.1c1.25,1.06,2.68.88,4.15.88a5.07,5.07,0,0,0,3.28-2.45,1.67,1.67,0,0,1,0-.5v-.51c-.14-.51-.27-1-.37-1.52h0c.6.41,1.16.78,1.76,1.2.37.09.78.13,1.15.23a19.59,19.59,0,0,0,5.9-.7,12.39,12.39,0,0,1,5.35-.27c.6.27,1.43.23,1.57,1.15a1.43,1.43,0,0,0,.41.09c.28.05.65.33.88,0s-.09-.6-.23-.87a3.87,3.87,0,0,0-2.82-1.76,22.11,22.11,0,0,1-3.5-.78,3.67,3.67,0,0,1-2.63-1.43c-.27-.37-.37-.87.23-.83a10.21,10.21,0,0,0,5.58-1.61c.88-1.2.83-1.52-.23-2.54a9,9,0,0,0-3.73-2.07c-4.71-1.43-9.22-.65-13.6,1.33.59.19,1.24-.09,1.84,0a12.83,12.83,0,0,1,6.18.41,2.11,2.11,0,0,1,1.24.83,4.17,4.17,0,0,1-1.38,2.22,7.44,7.44,0,0,1-4.8,1.75M70,132.08a.6.6,0,0,1,.64.55v.05c0,.42-.23.69-.64.65a.56.56,0,0,1-.61-.49.92.92,0,0,1,0-.16.54.54,0,0,1,.46-.6Z"/><path class="cls-15" d="M56.84,136.33a8.87,8.87,0,0,1-2.9-1.89h0a1.78,1.78,0,0,0-.19,2.95c.56.36.56.78,0,1.24-.14.14-.23.32-.37.46h0a20.73,20.73,0,0,0-1.71,3.14c-.69,1.06-1.38,2.16-2.12,3.22a.87.87,0,0,0,1.22,0,.81.81,0,0,0,.12-.18,9.07,9.07,0,0,0,1.48-2.49,20,20,0,0,0,1.38-2.53,7.49,7.49,0,0,1,2.72-2.35l2.95-1.11A26.12,26.12,0,0,1,56.84,136.33Zm-3-1.71a2.43,2.43,0,0,0,0,.6A2.43,2.43,0,0,1,53.89,134.62Zm0,.88c0,.09,0,.23,0,.32C53.89,135.73,53.85,135.59,53.85,135.5Zm.27,1.06h0a8.54,8.54,0,0,0,1.71.92A8.54,8.54,0,0,1,54.12,136.56Z"/><path class="cls-15" d="M59.42,136.65h0a11.17,11.17,0,0,0-3,1.1,11.17,11.17,0,0,1,3-1.1"/><path d="M83,142a1.86,1.86,0,0,1-.67,1.53,2.7,2.7,0,0,1-1.7.57,2.74,2.74,0,0,1-1.62-.49,2.9,2.9,0,0,1-1-1.42l.88-.38a1.33,1.33,0,0,0,.28.6,1.83,1.83,0,0,0,.37.46,1.37,1.37,0,0,0,.47.27,1.14,1.14,0,0,0,.55.08,1.61,1.61,0,0,0,1.06-.33A1,1,0,0,0,82,142a1,1,0,0,0-.33-.78,2.87,2.87,0,0,0-1.2-.59c-.6-.22-.93-.36-1.11-.4a1.85,1.85,0,0,1-1.07-2.38,1.81,1.81,0,0,1,.53-.75,2.36,2.36,0,0,1,1.61-.57,2.45,2.45,0,0,1,1.43.4,2.07,2.07,0,0,1,.84,1.05l-.87.38a1.32,1.32,0,0,0-1.35-1,1.25,1.25,0,0,0-.92.33.89.89,0,0,0-.36.74,1,1,0,0,0,.28.64,4.75,4.75,0,0,0,1.44.63,3.36,3.36,0,0,1,1.58.91A2.22,2.22,0,0,1,83,142Z"/><path d="M84,139h.88v.69h0a1.84,1.84,0,0,1,1.56-.83,1.94,1.94,0,0,1,1.39.51,2,2,0,0,1,.5,1.47V144h-.92v-3c0-.83-.41-1.2-1.24-1.2a1.07,1.07,0,0,0-.93.46,1.74,1.74,0,0,0-.36,1.06V144H84Z"/><path d="M91.33,138.82a2.2,2.2,0,0,1,1.61.55,1.89,1.89,0,0,1,.6,1.52v3h-.87v-.69h0a1.77,1.77,0,0,1-1.52.83,2,2,0,0,1-1.38-.51,1.38,1.38,0,0,1-.56-1.15,1.5,1.5,0,0,1,.6-1.24,2.4,2.4,0,0,1,1.57-.46,2.47,2.47,0,0,1,1.38.32v-.23a1.09,1.09,0,0,0-.37-.83,1.28,1.28,0,0,0-.92-.32,1.52,1.52,0,0,0-1.24.64l-.83-.51A2.19,2.19,0,0,1,91.33,138.82Zm-1.2,3.59a.68.68,0,0,0,.32.6,1,1,0,0,0,.74.23,1.6,1.6,0,0,0,1.06-.41,1.3,1.3,0,0,0,.46-1,1.88,1.88,0,0,0-1.2-.32,1.64,1.64,0,0,0-1,.28A.8.8,0,0,0,90.13,142.41Z"/><path d="M97.23,144.12a2.71,2.71,0,0,1-1-.23,1.5,1.5,0,0,1-.69-.6h0l0,.69v2.17H94.6V139h.88v.69h0a1.74,1.74,0,0,1,.69-.6,2.33,2.33,0,0,1,1-.23,2.18,2.18,0,0,1,1.66.79,2.71,2.71,0,0,1,.69,1.89,2.75,2.75,0,0,1-.69,1.89A2.44,2.44,0,0,1,97.23,144.12Zm-.14-.83a1.39,1.39,0,0,0,1.11-.51,2,2,0,0,0,0-2.58,1.55,1.55,0,0,0-1.11-.51,1.59,1.59,0,0,0-1.15.51,2,2,0,0,0-.46,1.29,1.76,1.76,0,0,0,.46,1.29A1.59,1.59,0,0,0,97.09,143.29Z"/><path d="M103,144.12a2.71,2.71,0,0,1-1-.23,1.5,1.5,0,0,1-.69-.6h-.05l.05.69v2.17h-.92V139h.87v.69h.05a1.74,1.74,0,0,1,.69-.6,2.38,2.38,0,0,1,1-.23,2.2,2.2,0,0,1,1.66.79,2.71,2.71,0,0,1,.69,1.89,2.75,2.75,0,0,1-.69,1.89A2.46,2.46,0,0,1,103,144.12Zm-.19-.83a1.39,1.39,0,0,0,1.11-.51,2,2,0,0,0,0-2.58,1.58,1.58,0,0,0-1.11-.51,1.56,1.56,0,0,0-1.15.51,2,2,0,0,0-.46,1.29,1.76,1.76,0,0,0,.46,1.29A1.56,1.56,0,0,0,102.81,143.29Z"/><path d="M110.46,139l-3.13,7.15h-1l1.15-2.49-2-4.66h1l1.47,3.55h0L109.4,139Z"/><path class="cls-18" d="M112.45,141v3.13h-.92v-7.28h4.24v.87h-3.32v2.4h3V141Z"/><path class="cls-18" d="M117.61,136.88v7.28h-.92v-7.28Z"/><path class="cls-18" d="M118.44,141.67a2.53,2.53,0,0,1,.74-1.89,2.68,2.68,0,0,1,3.69,0,2.63,2.63,0,0,1,.74,1.89,2.5,2.5,0,0,1-.74,1.89,2.38,2.38,0,0,1-1.85.74,2.41,2.41,0,0,1-1.84-.74A2.55,2.55,0,0,1,118.44,141.67Zm.92,0a1.77,1.77,0,0,0,.46,1.3,1.56,1.56,0,0,0,2.21.09l.1-.09a1.78,1.78,0,0,0,.46-1.3,1.76,1.76,0,0,0-.46-1.29,1.56,1.56,0,0,0-2.21-.09l-.1.09A1.76,1.76,0,0,0,119.36,141.67Z"/><path class="cls-18" d="M131.35,139.18l-1.61,5h-.92l-1.25-3.82-1.24,3.82h-.93l-1.61-5h1l1.1,3.74h0l1.25-3.74h1l1.24,3.74h0l1.11-3.74Z"/></g></g></svg>