<svg id="server-icon" xmlns="http://www.w3.org/2000/svg" width="33.524" height="33.524" viewBox="0 0 33.524 33.524">
  <defs>
    <style>
      .cls-1 {
        fill: none;
      }

      .cls-2 {
        fill: #045d7f;
      }
    </style>
  </defs>
  <path id="Path_824" data-name="Path 824" class="cls-1" d="M0,0H33.524V33.524H0Z"/>
  <path id="Path_825" data-name="Path 825" class="cls-2" d="M26.166,20.374v5.791H5.9V20.374h20.27m1.448-2.9H4.448A1.452,1.452,0,0,0,3,18.926v8.687a1.452,1.452,0,0,0,1.448,1.448H27.614a1.452,1.452,0,0,0,1.448-1.448V18.926A1.452,1.452,0,0,0,27.614,17.479ZM8.791,25.442a2.172,2.172,0,1,1,2.172-2.172A2.178,2.178,0,0,1,8.791,25.442ZM26.166,5.9v5.791H5.9V5.9h20.27M27.614,3H4.448A1.452,1.452,0,0,0,3,4.448v8.687a1.452,1.452,0,0,0,1.448,1.448H27.614a1.452,1.452,0,0,0,1.448-1.448V4.448A1.452,1.452,0,0,0,27.614,3ZM8.791,10.963a2.172,2.172,0,1,1,2.172-2.172A2.178,2.178,0,0,1,8.791,10.963Z" transform="translate(0.731 0.731)"/>
</svg>
