<?xml version="1.0" encoding="utf-8"?>
<!-- Generator: Adobe Illustrator 23.1.0, SVG Export Plug-In . SVG Version: 6.00 Build 0)  -->
<svg version="1.1" id="Layer_1" xmlns="http://www.w3.org/2000/svg" xmlns:xlink="http://www.w3.org/1999/xlink" x="0px" y="0px"
	 viewBox="0 0 315 246" style="enable-background:new 0 0 315 246;" xml:space="preserve">
<style type="text/css">
	.st0{display:none;}
	.st1{display:inline;opacity:0.5;}
	.st2{fill:none;stroke:#0071BC;stroke-width:0.5663;stroke-miterlimit:10;}
	.st3{display:inline;opacity:0.15;fill:#00ACE0;enable-background:new    ;}
	.st4{display:inline;}
	.st5{fill:#00ACE0;}
	.st6{fill:#9AE3EF;}
	.st7{fill:#026A8F;}
	.st8{fill:#FFFFFF;}
	.st9{opacity:0.51;}
	.st10{opacity:0.51;fill:#4A47B5;enable-background:new    ;}
	.st11{fill:#453C9E;}
	.st12{opacity:0.51;fill:#453C9E;enable-background:new    ;}
	.st13{fill:#42E8E0;}
	.st14{opacity:0.1;fill:#42E8E0;enable-background:new    ;}
	.st15{opacity:0.4;fill:#42E8E0;enable-background:new    ;}
	.st16{opacity:0.2;}
	.st17{fill:none;stroke:#000000;stroke-width:0.7407;stroke-miterlimit:10;}
	.st18{display:none;fill:#00C6F4;}
	.st19{fill:#00C6F4;}
	.st20{display:none;opacity:0.5;fill:#453C9E;enable-background:new    ;}
	.st21{opacity:0.1;}
	.st22{opacity:0.51;fill:#453C9E;stroke:#000000;stroke-width:4.1358;stroke-miterlimit:10;enable-background:new    ;}
	.st23{fill:#9AE3EF;stroke:#000000;stroke-width:4.1358;stroke-miterlimit:10;}
	.st24{fill:#42E8E0;stroke:#000000;stroke-width:4.1358;stroke-miterlimit:10;}
	.st25{fill:#57ABFF;stroke:#000000;stroke-width:4.1358;stroke-miterlimit:10;}
	.st26{fill:#344DB7;stroke:#000000;stroke-width:4.1358;stroke-miterlimit:10;}
	.st27{fill:#316596;stroke:#000000;stroke-width:4.1358;stroke-miterlimit:10;}
	.st28{fill:#57ABFF;}
	.st29{fill:#344DB7;}
	.st30{fill:#316596;}
	.st31{fill:none;stroke:#0071BC;stroke-width:0.8845;stroke-miterlimit:10;}
	.st32{fill:url(#SVGID_1_);}
	.st33{fill:#1EDAF9;}
	.st34{fill:#1E81CE;}
	.st35{fill:#3D9AE2;}
	.st36{fill:#EE8700;}
	.st37{fill:#FF9811;}
	.st38{fill:#FFB655;}
	.st39{fill:url(#SVGID_2_);}
	.st40{fill:url(#SVGID_3_);}
	.st41{fill:url(#SVGID_4_);}
	.st42{fill:url(#SVGID_5_);}
	.st43{fill:url(#SVGID_6_);}
	.st44{fill:#5DC1D1;}
	.st45{fill:url(#SVGID_7_);}
	.st46{fill:#171E77;}
	.st47{fill:#24126A;}
	.st48{fill:url(#SVGID_8_);}
	.st49{fill:url(#SVGID_9_);}
	.st50{fill:#171277;}
	.st51{fill:url(#SVGID_10_);}
	.st52{fill:url(#SVGID_11_);}
	.st53{fill:#54E8EF;}
	.st54{fill:url(#SVGID_12_);}
	.st55{fill:url(#SVGID_13_);}
	.st56{fill:url(#SVGID_14_);}
	.st57{opacity:0.11;}
	.st58{clip-path:url(#SVGID_16_);}
	.st59{fill:url(#SVGID_17_);}
	.st60{fill:url(#SVGID_18_);}
	.st61{fill:#9198DB;}
	.st62{fill:#ADB1F2;}
	.st63{fill:#3F82C4;}
	.st64{fill:#1E1C77;}
	.st65{fill:#7ACFE2;}
</style>
<g class="st0">
	<g class="st1">
		<polygon class="st2" points="156.5,124.5 240.1,179.8 147.6,222.8 64.1,167.6 		"/>
		<line class="st2" x1="79.5" y1="160.4" x2="163" y2="215.6"/>
		<line class="st2" x1="94.9" y1="153.2" x2="178.4" y2="208.5"/>
		<line class="st2" x1="110.3" y1="146.1" x2="193.8" y2="201.3"/>
		<line class="st2" x1="125.7" y1="138.9" x2="209.3" y2="194.1"/>
		<line class="st2" x1="141.1" y1="131.7" x2="224.7" y2="186.9"/>
		<line class="st2" x1="226.1" y1="170.6" x2="133.7" y2="213.6"/>
		<line class="st2" x1="212.2" y1="161.3" x2="119.8" y2="204.4"/>
		<line class="st2" x1="198.3" y1="152.1" x2="105.8" y2="195.2"/>
		<line class="st2" x1="184.3" y1="142.9" x2="91.9" y2="186"/>
		<line class="st2" x1="170.4" y1="133.7" x2="78" y2="176.8"/>
	</g>
	<path class="st3" d="M128.6,59.8c0,0-7.9,0-10.6-5.2c0,0-4.4-9.5,5.3-12.1c0,0,7.9-1.7,9.7,3.5c0,0-4.4-8.7,4.4-13
		s13.2,0.9,13.2,0.9s4.4-13,17.6-13c0,0,21.1,0,18.5,22.5c0,0,10.6-4.3,13.2,5.2c0,0,3.5,8.7-8.8,11.3h-62.5V59.8z"/>
	<g class="st4">
		<g>
			<g>
				<path class="st5" d="M192.6,41.6c-1.2,0-2.4,0.2-3.5,0.5c0.1-0.9,0.2-1.7,0.2-2.6C189,26.8,178.6,16.7,165.9,17
					c-9.2,0.2-17.5,5.8-20.9,14.4c-6.6-4.1-15.3-2.1-19.4,4.6c-1.3,2.2-2.1,4.6-2.1,7.2c-1.8-1-3.8-1.6-5.9-1.6
					c-6.3,0-11.5,5.1-11.5,11.5s5.1,11.5,11.5,11.5c0.9,0,1.6-0.7,1.6-1.6s-0.7-1.6-1.6-1.6c-4.5-0.1-8.1-3.8-8.1-8.3
					s3.8-8.1,8.3-8.1c2.8,0,5.3,1.5,6.8,3.8c0.5,0.8,1.5,1,2.3,0.5c0.7-0.4,0.9-1.3,0.6-2c-0.5-1.2-0.8-2.6-0.8-3.9
					c0.1-5.9,4.9-10.7,10.9-10.6c2.6,0,5.2,1,7.2,2.7c0.7,0.6,1.7,0.5,2.3-0.2c0.2-0.2,0.3-0.4,0.3-0.6c3-10.4,13.9-16.5,24.3-13.5
					c8.3,2.4,14,9.9,14.2,18.5c0,1.7-0.2,3.4-0.7,5.1c-0.2,0.9,0.3,1.8,1.1,2c0.5,0.1,1,0,1.4-0.2c1.4-1,3.1-1.5,4.8-1.5
					c4.5,0,8.2,3.7,8.2,8.2s-3.7,8.2-8.2,8.2c-0.9,0-1.6,0.7-1.6,1.6s0.7,1.6,1.6,1.6c6.3,0,11.5-5.1,11.5-11.5
					C204.1,46.7,198.9,41.6,192.6,41.6z"/>
			</g>
		</g>
		<g>
			<g>
				<path class="st5" d="M151,43.7l-4.9-4.9c-0.6-0.6-1.7-0.6-2.3,0l-4.9,4.9c-0.6,0.7-0.6,1.7,0,2.3c0.6,0.6,1.6,0.6,2.3,0l2.1-2.1
					v10.8c0,0.9,0.7,1.6,1.6,1.6c0.9,0,1.6-0.7,1.6-1.6V43.9l2.1,2.1c0.7,0.6,1.7,0.6,2.3,0C151.7,45.3,151.7,44.3,151,43.7z"/>
			</g>
		</g>
		<g>
			<g>
				<path class="st5" d="M167.3,51.9l-4.9,4.9c-0.6,0.6-1.7,0.6-2.3,0l-4.9-4.9c-0.6-0.6-0.6-1.6,0-2.3c0.6-0.7,1.7-0.7,2.3,0
					l2.1,2.1V40.9c0-0.9,0.7-1.6,1.6-1.6s1.6,0.7,1.6,1.6v10.8l2.1-2.1c0.6-0.6,1.6-0.6,2.3,0C167.9,50.2,167.9,51.3,167.3,51.9z"/>
			</g>
		</g>
	</g>
	<g class="st4">
		<g>
			<polygon class="st6" points="155.5,187.7 98.6,154.9 155.5,122 212.5,154.9 			"/>
			<polygon class="st7" points="155.5,178.8 114.1,154.9 155.5,130.9 196.9,154.9 			"/>
			<polygon class="st8" points="155.5,132.6 195.5,155.7 196.9,154.9 155.5,130.9 114.1,154.9 115.5,155.7 			"/>
			<polygon class="st6" points="212.5,154.9 212.5,173.5 155.5,206.4 155.5,187.7 			"/>
			<polygon class="st7" points="98.6,154.9 98.6,173.5 155.5,206.4 155.5,187.7 			"/>
			<g class="st9">
				<polygon class="st10" points="102.4,163.2 102.4,169.1 151.7,197.5 151.7,191.7 				"/>
			</g>
			<polygon class="st8" points="155.5,186.7 99.5,154.3 98.6,154.9 155.5,187.7 212.5,154.9 211.5,154.3 			"/>
			<polygon class="st11" points="203.9,167.9 203.9,171.2 164.1,194.3 164.1,190.9 			"/>
			<polygon class="st12" points="98.6,154.9 98.6,173.5 155.5,206.4 155.5,187.7 			"/>
			<polygon class="st13" points="138.9,186.7 128.6,180.8 128.6,182 138.9,188 			"/>
			<polygon class="st13" points="127.1,179.9 124.3,178.3 124.3,179.6 127.1,181.2 			"/>
			<polygon class="st13" points="114,172.4 108.3,169.1 108.3,170.3 114,173.6 			"/>
			<polygon class="st13" points="119.2,175.4 115.1,173 115.1,174.2 119.2,176.6 			"/>
			<polygon class="st13" points="123.1,177.6 120.3,176 120.3,177.3 123.1,178.9 			"/>
			<g>
				<g>
					<polygon class="st13" points="155.6,139.2 153.8,138.1 155.6,137.1 157.4,138.1 					"/>
					<polygon class="st14" points="159.2,141.2 157.4,140.2 159.2,139.2 161,140.2 					"/>
					<polygon class="st15" points="162.8,143.3 161,142.3 162.8,141.2 164.6,142.3 					"/>
					<polygon class="st13" points="166.4,145.4 164.6,144.4 166.4,143.3 168.2,144.4 					"/>
					<polygon class="st15" points="170,147.5 168.2,146.5 170,145.4 171.8,146.5 					"/>
					<polygon class="st13" points="173.7,149.6 171.8,148.6 173.7,147.5 175.5,148.6 					"/>
					<polygon class="st13" points="177.3,151.7 175.5,150.6 177.3,149.6 179.1,150.6 					"/>
					<polygon class="st13" points="180.9,153.8 179.1,152.7 180.9,151.7 182.7,152.7 					"/>
					<polygon class="st14" points="184.5,155.9 182.7,154.8 184.5,153.8 186.3,154.8 					"/>
				</g>
				<g>
					<polygon class="st13" points="151.9,141.3 150.1,140.2 151.9,139.2 153.7,140.2 					"/>
					<polygon class="st13" points="155.6,143.3 153.7,142.3 155.6,141.3 157.4,142.3 					"/>
					<polygon class="st13" points="159.2,145.4 157.4,144.4 159.2,143.3 161,144.4 					"/>
					<polygon class="st13" points="162.8,147.5 161,146.5 162.8,145.4 164.6,146.5 					"/>
					<polygon class="st13" points="166.4,149.6 164.6,148.6 166.4,147.5 168.2,148.6 					"/>
					<polygon class="st13" points="170,151.7 168.2,150.6 170,149.6 171.8,150.6 					"/>
					<polygon class="st13" points="173.6,153.8 171.8,152.7 173.6,151.7 175.4,152.7 					"/>
					<polygon class="st13" points="177.3,155.9 175.4,154.8 177.3,153.8 179.1,154.8 					"/>
					<polygon class="st13" points="180.9,158 179.1,156.9 180.9,155.9 182.7,156.9 					"/>
				</g>
				<g>
					<polygon class="st13" points="148.3,143.3 146.5,142.3 148.3,141.3 150.1,142.3 					"/>
					<polygon class="st13" points="151.9,145.4 150.1,144.4 151.9,143.3 153.7,144.4 					"/>
					<polygon class="st13" points="155.5,147.5 153.7,146.5 155.5,145.4 157.4,146.5 					"/>
					<polygon class="st14" points="159.2,149.6 157.4,148.6 159.2,147.5 161,148.6 					"/>
					<polygon class="st15" points="162.8,151.7 161,150.7 162.8,149.6 164.6,150.7 					"/>
					<polygon class="st15" points="166.4,153.8 164.6,152.7 166.4,151.7 168.2,152.7 					"/>
					<polygon class="st13" points="170,155.9 168.2,154.8 170,153.8 171.8,154.8 					"/>
					<polygon class="st13" points="173.6,158 171.8,156.9 173.6,155.9 175.4,156.9 					"/>
					<polygon class="st13" points="177.2,160.1 175.4,159 177.2,158 179.1,159 					"/>
				</g>
				<g>
					<polygon class="st15" points="144.7,145.4 142.9,144.4 144.7,143.4 146.5,144.4 					"/>
					<polygon class="st15" points="148.3,147.5 146.5,146.5 148.3,145.4 150.1,146.5 					"/>
					<polygon class="st14" points="151.9,149.6 150.1,148.6 151.9,147.5 153.7,148.6 					"/>
					<polygon class="st13" points="155.5,151.7 153.7,150.7 155.5,149.6 157.3,150.7 					"/>
					<polygon class="st13" points="159.1,153.8 157.3,152.8 159.1,151.7 161,152.8 					"/>
					<polygon class="st13" points="162.8,155.9 161,154.8 162.8,153.8 164.6,154.8 					"/>
					<polygon class="st15" points="166.4,158 164.6,156.9 166.4,155.9 168.2,156.9 					"/>
					<polygon class="st13" points="170,160.1 168.2,159 170,158 171.8,159 					"/>
					<polygon class="st13" points="173.6,162.2 171.8,161.1 173.6,160.1 175.4,161.1 					"/>
				</g>
				<g>
					<polygon class="st13" points="141,147.5 139.2,146.5 141,145.5 142.9,146.5 					"/>
					<polygon class="st13" points="144.7,149.6 142.9,148.6 144.7,147.5 146.5,148.6 					"/>
					<polygon class="st13" points="148.3,151.7 146.5,150.7 148.3,149.6 150.1,150.7 					"/>
					<polygon class="st13" points="151.9,153.8 150.1,152.8 151.9,151.7 153.7,152.8 					"/>
					<polygon class="st13" points="155.5,155.9 153.7,154.9 155.5,153.8 157.3,154.9 					"/>
					<polygon class="st13" points="159.1,158 157.3,156.9 159.1,155.9 160.9,156.9 					"/>
					<polygon class="st13" points="162.7,160.1 160.9,159 162.7,158 164.6,159 					"/>
					<polygon class="st13" points="166.4,162.2 164.6,161.1 166.4,160.1 168.2,161.1 					"/>
					<polygon class="st13" points="170,164.2 168.2,163.2 170,162.2 171.8,163.2 					"/>
				</g>
				<g>
					<polygon class="st13" points="137.4,149.6 135.6,148.6 137.4,147.6 139.2,148.6 					"/>
					<polygon class="st13" points="141,151.7 139.2,150.7 141,149.6 142.8,150.7 					"/>
					<polygon class="st15" points="144.6,153.8 142.8,152.8 144.6,151.7 146.5,152.8 					"/>
					<polygon class="st13" points="148.3,155.9 146.5,154.9 148.3,153.8 150.1,154.9 					"/>
					<polygon class="st14" points="151.9,158 150.1,156.9 151.9,155.9 153.7,156.9 					"/>
					<polygon class="st13" points="155.5,160.1 153.7,159 155.5,158 157.3,159 					"/>
					<polygon class="st13" points="159.1,162.2 157.3,161.1 159.1,160.1 160.9,161.1 					"/>
					<polygon class="st13" points="162.7,164.3 160.9,163.2 162.7,162.2 164.5,163.2 					"/>
					<polygon class="st13" points="166.3,166.3 164.5,165.3 166.3,164.3 168.2,165.3 					"/>
				</g>
				<g>
					<polygon class="st13" points="133.8,151.7 132,150.7 133.8,149.6 135.6,150.7 					"/>
					<polygon class="st13" points="137.4,153.8 135.6,152.8 137.4,151.7 139.2,152.8 					"/>
					<polygon class="st15" points="141,155.9 139.2,154.9 141,153.8 142.8,154.9 					"/>
					<polygon class="st13" points="144.6,158 142.8,157 144.6,155.9 146.4,157 					"/>
					<polygon class="st13" points="148.2,160.1 146.4,159 148.2,158 150.1,159 					"/>
					<polygon class="st14" points="151.9,162.2 150.1,161.1 151.9,160.1 153.7,161.1 					"/>
					<polygon class="st15" points="155.5,164.3 153.7,163.2 155.5,162.2 157.3,163.2 					"/>
					<polygon class="st13" points="159.1,166.4 157.3,165.3 159.1,164.3 160.9,165.3 					"/>
					<polygon class="st14" points="162.7,168.4 160.9,167.4 162.7,166.4 164.5,167.4 					"/>
				</g>
				<g>
					<polygon class="st13" points="130.2,153.8 128.3,152.8 130.2,151.7 132,152.8 					"/>
					<polygon class="st15" points="133.8,155.9 132,154.9 133.8,153.8 135.6,154.9 					"/>
					<polygon class="st13" points="137.4,158 135.6,157 137.4,155.9 139.2,157 					"/>
					<polygon class="st13" points="141,160.1 139.2,159.1 141,158 142.8,159.1 					"/>
					<polygon class="st13" points="144.6,162.2 142.8,161.1 144.6,160.1 146.4,161.1 					"/>
					<polygon class="st13" points="148.2,164.3 146.4,163.2 148.2,162.2 150,163.2 					"/>
					<polygon class="st13" points="151.9,166.4 150,165.3 151.9,164.3 153.7,165.3 					"/>
					<polygon class="st15" points="155.5,168.5 153.7,167.4 155.5,166.4 157.3,167.4 					"/>
					<polygon class="st13" points="159.1,170.5 157.3,169.5 159.1,168.5 160.9,169.5 					"/>
				</g>
				<g>
					<polygon class="st13" points="126.5,155.9 124.7,154.9 126.5,153.8 128.3,154.9 					"/>
					<polygon class="st14" points="130.1,158 128.3,157 130.1,155.9 131.9,157 					"/>
					<polygon class="st13" points="133.8,160.1 131.9,159.1 133.8,158 135.6,159.1 					"/>
					<polygon class="st13" points="137.4,162.2 135.6,161.2 137.4,160.1 139.2,161.2 					"/>
					<polygon class="st13" points="141,164.3 139.2,163.2 141,162.2 142.8,163.2 					"/>
					<polygon class="st13" points="144.6,166.4 142.8,165.3 144.6,164.3 146.4,165.3 					"/>
					<polygon class="st15" points="148.2,168.5 146.4,167.4 148.2,166.4 150,167.4 					"/>
					<polygon class="st13" points="151.8,170.5 150,169.5 151.8,168.5 153.6,169.5 					"/>
					<polygon class="st13" points="155.5,172.6 153.6,171.6 155.5,170.5 157.3,171.6 					"/>
				</g>
			</g>
		</g>
		<g>
			<polygon class="st6" points="155.5,155.7 98.6,122.9 155.5,90 212.5,122.9 			"/>
			<polygon class="st7" points="155.5,146.8 114.1,122.9 155.5,98.9 196.9,122.9 			"/>
			<polygon class="st8" points="155.5,100.6 195.5,123.7 196.9,122.9 155.5,98.9 114.1,122.9 115.5,123.7 			"/>
			<polygon class="st6" points="212.5,122.9 212.5,141.5 155.5,174.4 155.5,155.7 			"/>
			<polygon class="st7" points="98.6,122.9 98.6,141.5 155.5,174.4 155.5,155.7 			"/>
			<g class="st9">
				<polygon class="st10" points="102.4,131.2 102.4,137.1 151.7,165.5 151.7,159.7 				"/>
			</g>
			<polygon class="st8" points="155.5,154.7 99.5,122.3 98.6,122.9 155.5,155.7 212.5,122.9 211.5,122.3 			"/>
			<polygon class="st11" points="203.9,135.9 203.9,139.2 164.1,162.3 164.1,158.9 			"/>
			<polygon class="st12" points="98.6,122.9 98.6,141.5 155.5,174.4 155.5,155.7 			"/>
			<polygon class="st13" points="138.9,154.7 128.6,148.8 128.6,150 138.9,156 			"/>
			<polygon class="st13" points="127.1,147.9 124.3,146.3 124.3,147.6 127.1,149.2 			"/>
			<polygon class="st13" points="114,140.4 108.3,137.1 108.3,138.3 114,141.6 			"/>
			<polygon class="st13" points="119.2,143.4 115.1,141 115.1,142.2 119.2,144.6 			"/>
			<polygon class="st13" points="123.1,145.6 120.3,144 120.3,145.3 123.1,146.9 			"/>
			<g>
				<g>
					<polygon class="st13" points="155.6,107.2 153.8,106.1 155.6,105.1 157.4,106.1 					"/>
					<polygon class="st14" points="159.2,109.2 157.4,108.2 159.2,107.2 161,108.2 					"/>
					<polygon class="st15" points="162.8,111.3 161,110.3 162.8,109.2 164.6,110.3 					"/>
					<polygon class="st13" points="166.4,113.4 164.6,112.4 166.4,111.3 168.2,112.4 					"/>
					<polygon class="st15" points="170,115.5 168.2,114.5 170,113.4 171.8,114.5 					"/>
					<polygon class="st13" points="173.7,117.6 171.8,116.6 173.7,115.5 175.5,116.6 					"/>
					<polygon class="st13" points="177.3,119.7 175.5,118.6 177.3,117.6 179.1,118.6 					"/>
					<polygon class="st13" points="180.9,121.8 179.1,120.7 180.9,119.7 182.7,120.7 					"/>
					<polygon class="st14" points="184.5,123.9 182.7,122.8 184.5,121.8 186.3,122.8 					"/>
				</g>
				<g>
					<polygon class="st13" points="151.9,109.3 150.1,108.2 151.9,107.2 153.7,108.2 					"/>
					<polygon class="st13" points="155.6,111.3 153.7,110.3 155.6,109.3 157.4,110.3 					"/>
					<polygon class="st13" points="159.2,113.4 157.4,112.4 159.2,111.3 161,112.4 					"/>
					<polygon class="st13" points="162.8,115.5 161,114.5 162.8,113.4 164.6,114.5 					"/>
					<polygon class="st13" points="166.4,117.6 164.6,116.6 166.4,115.5 168.2,116.6 					"/>
					<polygon class="st13" points="170,119.7 168.2,118.6 170,117.6 171.8,118.6 					"/>
					<polygon class="st13" points="173.6,121.8 171.8,120.7 173.6,119.7 175.4,120.7 					"/>
					<polygon class="st13" points="177.3,123.9 175.4,122.8 177.3,121.8 179.1,122.8 					"/>
					<polygon class="st13" points="180.9,126 179.1,124.9 180.9,123.9 182.7,124.9 					"/>
				</g>
				<g>
					<polygon class="st13" points="148.3,111.3 146.5,110.3 148.3,109.3 150.1,110.3 					"/>
					<polygon class="st13" points="151.9,113.4 150.1,112.4 151.9,111.3 153.7,112.4 					"/>
					<polygon class="st13" points="155.5,115.5 153.7,114.5 155.5,113.4 157.4,114.5 					"/>
					<polygon class="st14" points="159.2,117.6 157.4,116.6 159.2,115.5 161,116.6 					"/>
					<polygon class="st15" points="162.8,119.7 161,118.7 162.8,117.6 164.6,118.7 					"/>
					<polygon class="st15" points="166.4,121.8 164.6,120.7 166.4,119.7 168.2,120.7 					"/>
					<polygon class="st13" points="170,123.9 168.2,122.8 170,121.8 171.8,122.8 					"/>
					<polygon class="st13" points="173.6,126 171.8,124.9 173.6,123.9 175.4,124.9 					"/>
					<polygon class="st13" points="177.2,128.1 175.4,127 177.2,126 179.1,127 					"/>
				</g>
				<g>
					<polygon class="st15" points="144.7,113.4 142.9,112.4 144.7,111.4 146.5,112.4 					"/>
					<polygon class="st15" points="148.3,115.5 146.5,114.5 148.3,113.4 150.1,114.5 					"/>
					<polygon class="st14" points="151.9,117.6 150.1,116.6 151.9,115.5 153.7,116.6 					"/>
					<polygon class="st13" points="155.5,119.7 153.7,118.7 155.5,117.6 157.3,118.7 					"/>
					<polygon class="st13" points="159.1,121.8 157.3,120.8 159.1,119.7 161,120.8 					"/>
					<polygon class="st13" points="162.8,123.9 161,122.8 162.8,121.8 164.6,122.8 					"/>
					<polygon class="st15" points="166.4,126 164.6,124.9 166.4,123.9 168.2,124.9 					"/>
					<polygon class="st13" points="170,128.1 168.2,127 170,126 171.8,127 					"/>
					<polygon class="st13" points="173.6,130.2 171.8,129.1 173.6,128.1 175.4,129.1 					"/>
				</g>
				<g>
					<polygon class="st13" points="141,115.5 139.2,114.5 141,113.5 142.9,114.5 					"/>
					<polygon class="st13" points="144.7,117.6 142.9,116.6 144.7,115.5 146.5,116.6 					"/>
					<polygon class="st13" points="148.3,119.7 146.5,118.7 148.3,117.6 150.1,118.7 					"/>
					<polygon class="st13" points="151.9,121.8 150.1,120.8 151.9,119.7 153.7,120.8 					"/>
					<polygon class="st13" points="155.5,123.9 153.7,122.9 155.5,121.8 157.3,122.9 					"/>
					<polygon class="st13" points="159.1,126 157.3,124.9 159.1,123.9 160.9,124.9 					"/>
					<polygon class="st13" points="162.7,128.1 160.9,127 162.7,126 164.6,127 					"/>
					<polygon class="st13" points="166.4,130.2 164.6,129.1 166.4,128.1 168.2,129.1 					"/>
					<polygon class="st13" points="170,132.2 168.2,131.2 170,130.2 171.8,131.2 					"/>
				</g>
				<g>
					<polygon class="st13" points="137.4,117.6 135.6,116.6 137.4,115.6 139.2,116.6 					"/>
					<polygon class="st13" points="141,119.7 139.2,118.7 141,117.6 142.8,118.7 					"/>
					<polygon class="st15" points="144.6,121.8 142.8,120.8 144.6,119.7 146.5,120.8 					"/>
					<polygon class="st13" points="148.3,123.9 146.5,122.9 148.3,121.8 150.1,122.9 					"/>
					<polygon class="st14" points="151.9,126 150.1,124.9 151.9,123.9 153.7,124.9 					"/>
					<polygon class="st13" points="155.5,128.1 153.7,127 155.5,126 157.3,127 					"/>
					<polygon class="st13" points="159.1,130.2 157.3,129.1 159.1,128.1 160.9,129.1 					"/>
					<polygon class="st13" points="162.7,132.3 160.9,131.2 162.7,130.2 164.5,131.2 					"/>
					<polygon class="st13" points="166.3,134.3 164.5,133.3 166.3,132.3 168.2,133.3 					"/>
				</g>
				<g>
					<polygon class="st13" points="133.8,119.7 132,118.7 133.8,117.6 135.6,118.7 					"/>
					<polygon class="st13" points="137.4,121.8 135.6,120.8 137.4,119.7 139.2,120.8 					"/>
					<polygon class="st15" points="141,123.9 139.2,122.9 141,121.8 142.8,122.9 					"/>
					<polygon class="st13" points="144.6,126 142.8,125 144.6,123.9 146.4,125 					"/>
					<polygon class="st13" points="148.2,128.1 146.4,127 148.2,126 150.1,127 					"/>
					<polygon class="st14" points="151.9,130.2 150.1,129.1 151.9,128.1 153.7,129.1 					"/>
					<polygon class="st15" points="155.5,132.3 153.7,131.2 155.5,130.2 157.3,131.2 					"/>
					<polygon class="st13" points="159.1,134.4 157.3,133.3 159.1,132.3 160.9,133.3 					"/>
					<polygon class="st14" points="162.7,136.4 160.9,135.4 162.7,134.4 164.5,135.4 					"/>
				</g>
				<g>
					<polygon class="st13" points="130.2,121.8 128.3,120.8 130.2,119.7 132,120.8 					"/>
					<polygon class="st15" points="133.8,123.9 132,122.9 133.8,121.8 135.6,122.9 					"/>
					<polygon class="st13" points="137.4,126 135.6,125 137.4,123.9 139.2,125 					"/>
					<polygon class="st13" points="141,128.1 139.2,127.1 141,126 142.8,127.1 					"/>
					<polygon class="st13" points="144.6,130.2 142.8,129.1 144.6,128.1 146.4,129.1 					"/>
					<polygon class="st13" points="148.2,132.3 146.4,131.2 148.2,130.2 150,131.2 					"/>
					<polygon class="st13" points="151.9,134.4 150,133.3 151.9,132.3 153.7,133.3 					"/>
					<polygon class="st15" points="155.5,136.5 153.7,135.4 155.5,134.4 157.3,135.4 					"/>
					<polygon class="st13" points="159.1,138.5 157.3,137.5 159.1,136.5 160.9,137.5 					"/>
				</g>
				<g>
					<polygon class="st13" points="126.5,123.9 124.7,122.9 126.5,121.8 128.3,122.9 					"/>
					<polygon class="st14" points="130.1,126 128.3,125 130.1,123.9 131.9,125 					"/>
					<polygon class="st13" points="133.8,128.1 131.9,127.1 133.8,126 135.6,127.1 					"/>
					<polygon class="st13" points="137.4,130.2 135.6,129.2 137.4,128.1 139.2,129.2 					"/>
					<polygon class="st13" points="141,132.3 139.2,131.2 141,130.2 142.8,131.2 					"/>
					<polygon class="st13" points="144.6,134.4 142.8,133.3 144.6,132.3 146.4,133.3 					"/>
					<polygon class="st15" points="148.2,136.5 146.4,135.4 148.2,134.4 150,135.4 					"/>
					<polygon class="st13" points="151.8,138.5 150,137.5 151.8,136.5 153.6,137.5 					"/>
					<polygon class="st13" points="155.5,140.6 153.6,139.6 155.5,138.5 157.3,139.6 					"/>
				</g>
			</g>
		</g>
		<g>
			<polygon class="st6" points="155.5,124.7 98.6,91.9 155.5,59 212.5,91.9 			"/>
			<polygon class="st7" points="155.5,115.8 114.1,91.9 155.5,67.9 196.9,91.9 			"/>
			<polygon class="st8" points="155.5,69.6 195.5,92.7 196.9,91.9 155.5,67.9 114.1,91.9 115.5,92.7 			"/>
			<polygon class="st6" points="212.5,91.9 212.5,110.5 155.5,143.4 155.5,124.7 			"/>
			<polygon class="st7" points="98.6,91.9 98.6,110.5 155.5,143.4 155.5,124.7 			"/>
			<g class="st9">
				<polygon class="st10" points="102.4,100.2 102.4,106.1 151.7,134.5 151.7,128.7 				"/>
			</g>
			<polygon class="st8" points="155.5,123.7 99.5,91.3 98.6,91.9 155.5,124.7 212.5,91.9 211.5,91.3 			"/>
			<polygon class="st11" points="203.9,104.9 203.9,108.2 164.1,131.3 164.1,127.9 			"/>
			<polygon class="st12" points="98.6,91.9 98.6,110.5 155.5,143.4 155.5,124.7 			"/>
			<polygon class="st13" points="138.9,123.7 128.6,117.8 128.6,119 138.9,125 			"/>
			<polygon class="st13" points="127.1,116.9 124.3,115.3 124.3,116.6 127.1,118.2 			"/>
			<polygon class="st13" points="114,109.4 108.3,106.1 108.3,107.3 114,110.6 			"/>
			<polygon class="st13" points="119.2,112.4 115.1,110 115.1,111.2 119.2,113.6 			"/>
			<polygon class="st13" points="123.1,114.6 120.3,113 120.3,114.3 123.1,115.9 			"/>
			<g>
				<g>
					<polygon class="st13" points="155.6,76.2 153.8,75.1 155.6,74.1 157.4,75.1 					"/>
					<polygon class="st14" points="159.2,78.2 157.4,77.2 159.2,76.2 161,77.2 					"/>
					<polygon class="st15" points="162.8,80.3 161,79.3 162.8,78.2 164.6,79.3 					"/>
					<polygon class="st13" points="166.4,82.4 164.6,81.4 166.4,80.3 168.2,81.4 					"/>
					<polygon class="st15" points="170,84.5 168.2,83.5 170,82.4 171.8,83.5 					"/>
					<polygon class="st13" points="173.7,86.6 171.8,85.6 173.7,84.5 175.5,85.6 					"/>
					<polygon class="st13" points="177.3,88.7 175.5,87.6 177.3,86.6 179.1,87.6 					"/>
					<polygon class="st13" points="180.9,90.8 179.1,89.7 180.9,88.7 182.7,89.7 					"/>
					<polygon class="st14" points="184.5,92.9 182.7,91.8 184.5,90.8 186.3,91.8 					"/>
				</g>
				<g>
					<polygon class="st13" points="151.9,78.3 150.1,77.2 151.9,76.2 153.7,77.2 					"/>
					<polygon class="st13" points="155.6,80.3 153.7,79.3 155.6,78.3 157.4,79.3 					"/>
					<polygon class="st13" points="159.2,82.4 157.4,81.4 159.2,80.3 161,81.4 					"/>
					<polygon class="st13" points="162.8,84.5 161,83.5 162.8,82.4 164.6,83.5 					"/>
					<polygon class="st13" points="166.4,86.6 164.6,85.6 166.4,84.5 168.2,85.6 					"/>
					<polygon class="st13" points="170,88.7 168.2,87.6 170,86.6 171.8,87.6 					"/>
					<polygon class="st13" points="173.6,90.8 171.8,89.7 173.6,88.7 175.4,89.7 					"/>
					<polygon class="st13" points="177.3,92.9 175.4,91.8 177.3,90.8 179.1,91.8 					"/>
					<polygon class="st13" points="180.9,95 179.1,93.9 180.9,92.9 182.7,93.9 					"/>
				</g>
				<g>
					<polygon class="st13" points="148.3,80.3 146.5,79.3 148.3,78.3 150.1,79.3 					"/>
					<polygon class="st13" points="151.9,82.4 150.1,81.4 151.9,80.3 153.7,81.4 					"/>
					<polygon class="st13" points="155.5,84.5 153.7,83.5 155.5,82.4 157.4,83.5 					"/>
					<polygon class="st14" points="159.2,86.6 157.4,85.6 159.2,84.5 161,85.6 					"/>
					<polygon class="st15" points="162.8,88.7 161,87.7 162.8,86.6 164.6,87.7 					"/>
					<polygon class="st15" points="166.4,90.8 164.6,89.7 166.4,88.7 168.2,89.7 					"/>
					<polygon class="st13" points="170,92.9 168.2,91.8 170,90.8 171.8,91.8 					"/>
					<polygon class="st13" points="173.6,95 171.8,93.9 173.6,92.9 175.4,93.9 					"/>
					<polygon class="st13" points="177.2,97.1 175.4,96 177.2,95 179.1,96 					"/>
				</g>
				<g>
					<polygon class="st15" points="144.7,82.4 142.9,81.4 144.7,80.4 146.5,81.4 					"/>
					<polygon class="st15" points="148.3,84.5 146.5,83.5 148.3,82.4 150.1,83.5 					"/>
					<polygon class="st14" points="151.9,86.6 150.1,85.6 151.9,84.5 153.7,85.6 					"/>
					<polygon class="st13" points="155.5,88.7 153.7,87.7 155.5,86.6 157.3,87.7 					"/>
					<polygon class="st13" points="159.1,90.8 157.3,89.8 159.1,88.7 161,89.8 					"/>
					<polygon class="st13" points="162.8,92.9 161,91.8 162.8,90.8 164.6,91.8 					"/>
					<polygon class="st15" points="166.4,95 164.6,93.9 166.4,92.9 168.2,93.9 					"/>
					<polygon class="st13" points="170,97.1 168.2,96 170,95 171.8,96 					"/>
					<polygon class="st13" points="173.6,99.2 171.8,98.1 173.6,97.1 175.4,98.1 					"/>
				</g>
				<g>
					<polygon class="st13" points="141,84.5 139.2,83.5 141,82.5 142.9,83.5 					"/>
					<polygon class="st13" points="144.7,86.6 142.9,85.6 144.7,84.5 146.5,85.6 					"/>
					<polygon class="st13" points="148.3,88.7 146.5,87.7 148.3,86.6 150.1,87.7 					"/>
					<polygon class="st13" points="151.9,90.8 150.1,89.8 151.9,88.7 153.7,89.8 					"/>
					<polygon class="st13" points="155.5,92.9 153.7,91.9 155.5,90.8 157.3,91.9 					"/>
					<polygon class="st13" points="159.1,95 157.3,93.9 159.1,92.9 160.9,93.9 					"/>
					<polygon class="st13" points="162.7,97.1 160.9,96 162.7,95 164.6,96 					"/>
					<polygon class="st13" points="166.4,99.2 164.6,98.1 166.4,97.1 168.2,98.1 					"/>
					<polygon class="st13" points="170,101.2 168.2,100.2 170,99.2 171.8,100.2 					"/>
				</g>
				<g>
					<polygon class="st13" points="137.4,86.6 135.6,85.6 137.4,84.6 139.2,85.6 					"/>
					<polygon class="st13" points="141,88.7 139.2,87.7 141,86.6 142.8,87.7 					"/>
					<polygon class="st15" points="144.6,90.8 142.8,89.8 144.6,88.7 146.5,89.8 					"/>
					<polygon class="st13" points="148.3,92.9 146.5,91.9 148.3,90.8 150.1,91.9 					"/>
					<polygon class="st14" points="151.9,95 150.1,93.9 151.9,92.9 153.7,93.9 					"/>
					<polygon class="st13" points="155.5,97.1 153.7,96 155.5,95 157.3,96 					"/>
					<polygon class="st13" points="159.1,99.2 157.3,98.1 159.1,97.1 160.9,98.1 					"/>
					<polygon class="st13" points="162.7,101.3 160.9,100.2 162.7,99.2 164.5,100.2 					"/>
					<polygon class="st13" points="166.3,103.3 164.5,102.3 166.3,101.3 168.2,102.3 					"/>
				</g>
				<g>
					<polygon class="st13" points="133.8,88.7 132,87.7 133.8,86.6 135.6,87.7 					"/>
					<polygon class="st13" points="137.4,90.8 135.6,89.8 137.4,88.7 139.2,89.8 					"/>
					<polygon class="st15" points="141,92.9 139.2,91.9 141,90.8 142.8,91.9 					"/>
					<polygon class="st13" points="144.6,95 142.8,94 144.6,92.9 146.4,94 					"/>
					<polygon class="st13" points="148.2,97.1 146.4,96 148.2,95 150.1,96 					"/>
					<polygon class="st14" points="151.9,99.2 150.1,98.1 151.9,97.1 153.7,98.1 					"/>
					<polygon class="st15" points="155.5,101.3 153.7,100.2 155.5,99.2 157.3,100.2 					"/>
					<polygon class="st13" points="159.1,103.4 157.3,102.3 159.1,101.3 160.9,102.3 					"/>
					<polygon class="st14" points="162.7,105.4 160.9,104.4 162.7,103.4 164.5,104.4 					"/>
				</g>
				<g>
					<polygon class="st13" points="130.2,90.8 128.3,89.8 130.2,88.7 132,89.8 					"/>
					<polygon class="st15" points="133.8,92.9 132,91.9 133.8,90.8 135.6,91.9 					"/>
					<polygon class="st13" points="137.4,95 135.6,94 137.4,92.9 139.2,94 					"/>
					<polygon class="st13" points="141,97.1 139.2,96.1 141,95 142.8,96.1 					"/>
					<polygon class="st13" points="144.6,99.2 142.8,98.1 144.6,97.1 146.4,98.1 					"/>
					<polygon class="st13" points="148.2,101.3 146.4,100.2 148.2,99.2 150,100.2 					"/>
					<polygon class="st13" points="151.9,103.4 150,102.3 151.9,101.3 153.7,102.3 					"/>
					<polygon class="st15" points="155.5,105.5 153.7,104.4 155.5,103.4 157.3,104.4 					"/>
					<polygon class="st13" points="159.1,107.5 157.3,106.5 159.1,105.5 160.9,106.5 					"/>
				</g>
				<g>
					<polygon class="st13" points="126.5,92.9 124.7,91.9 126.5,90.8 128.3,91.9 					"/>
					<polygon class="st14" points="130.1,95 128.3,94 130.1,92.9 131.9,94 					"/>
					<polygon class="st13" points="133.8,97.1 131.9,96.1 133.8,95 135.6,96.1 					"/>
					<polygon class="st13" points="137.4,99.2 135.6,98.2 137.4,97.1 139.2,98.2 					"/>
					<polygon class="st13" points="141,101.3 139.2,100.2 141,99.2 142.8,100.2 					"/>
					<polygon class="st13" points="144.6,103.4 142.8,102.3 144.6,101.3 146.4,102.3 					"/>
					<polygon class="st15" points="148.2,105.5 146.4,104.4 148.2,103.4 150,104.4 					"/>
					<polygon class="st13" points="151.8,107.5 150,106.5 151.8,105.5 153.6,106.5 					"/>
					<polygon class="st13" points="155.5,109.6 153.6,108.6 155.5,107.5 157.3,108.6 					"/>
				</g>
			</g>
		</g>
	</g>
</g>
<g>
	<g class="st16">
		<polygon class="st17" points="165.7,129.9 302.1,187.8 151.2,232.9 14.8,175 		"/>
		<line class="st17" x1="40" y1="167.5" x2="176.4" y2="225.4"/>
		<line class="st17" x1="65.1" y1="160" x2="201.5" y2="217.8"/>
		<line class="st17" x1="90.2" y1="152.4" x2="226.7" y2="210.3"/>
		<line class="st17" x1="115.4" y1="144.9" x2="251.8" y2="202.8"/>
		<line class="st17" x1="140.5" y1="137.4" x2="277" y2="195.3"/>
		<line class="st17" x1="279.4" y1="178.1" x2="128.5" y2="223.2"/>
		<line class="st17" x1="256.6" y1="168.5" x2="105.8" y2="213.6"/>
		<line class="st17" x1="233.9" y1="158.8" x2="83" y2="203.9"/>
		<line class="st17" x1="211.2" y1="149.2" x2="60.3" y2="194.3"/>
		<line class="st17" x1="188.4" y1="139.5" x2="37.6" y2="184.7"/>
	</g>
	<g>
		<rect x="13.5" y="7.7" class="st18" width="296.4" height="202"/>
		<g class="st0">
			<g class="st4">
				<g>
					<g>
						<path class="st19" d="M293-46.1H35.2c-15.9,0-28.8,13.4-28.8,30v207.7c0,16.5,12.9,30,28.8,30H293c15.9,0,28.8-13.4,28.8-30
							V-16.1C321.8-32.7,308.9-46.1,293-46.1z M310.3,191.6c0,9.9-7.7,18-17.3,18H35.2c-9.6,0-17.3-8.1-17.3-18V13.8h292.4V191.6
							L310.3,191.6z M310.3,1.8H17.9v-18c0-9.9,7.7-18,17.3-18H293c9.6,0,17.3,8.1,17.3,18V1.8L310.3,1.8z"/>
						<path class="st19" d="M46.7-22.1h-5.8c-3.2,0-5.8,2.7-5.8,6s2.6,6,5.8,6h5.8c3.2,0,5.8-2.7,5.8-6
							C52.5-19.5,49.9-22.1,46.7-22.1z"/>
						<path class="st19" d="M72-21.7c-1.4-0.7-3-0.7-4.4,0c-0.7,0.3-1.3,0.7-1.9,1.3c-2.2,2.4-2.2,6.1,0,8.5c0.6,0.5,1.2,1,1.9,1.3
							c1.4,0.6,3,0.6,4.4,0c0.7-0.3,1.3-0.7,1.9-1.3c2.2-2.4,2.2-6.1,0-8.5C73.3-20.9,72.7-21.4,72-21.7z"/>
						<path class="st19" d="M95-21.7c-2.2-0.9-4.7-0.4-6.3,1.3c-0.5,0.6-0.9,1.3-1.2,2c-0.6,1.5-0.6,3.1,0,4.6
							c0.3,0.7,0.7,1.4,1.2,2c2.3,2.3,5.9,2.3,8.2,0c0.5-0.6,0.9-1.3,1.2-2s0.5-1.5,0.5-2.3C98.6-18.6,97.2-20.8,95-21.7z"/>
						<path class="st19" d="M287.3-22.1H121.7c-3.2,0-5.8,2.7-5.8,6s2.6,6,5.8,6h165.6c3.2,0,5.8-2.7,5.8-6S290.4-22.1,287.3-22.1z"
							/>
					</g>
				</g>
			</g>
		</g>
		<g>
			<circle class="st20" cx="152.6" cy="103.3" r="120.2"/>
			<g class="st21">
				<path class="st22" d="M80.7,117.6h113.4V107c0-2-1.6-3.5-3.5-3.5H84.3c-2,0-3.5,1.6-3.5,3.5v10.6H80.7z"/>
				<path class="st23" d="M84.3,192h106.3c2,0,3.5-1.6,3.5-3.5v-70.8H80.7v70.8C80.7,190.4,82.3,192,84.3,192z"/>
				<path class="st22" d="M98.5,96.3H80.8c-1,0-1.8-0.8-1.8-1.8s0.8-1.8,1.8-1.8h16.4l4.9-14.7c0.2-0.7,0.8-1.2,1.6-1.2
					c0.7,0,1.4,0.3,1.7,1l5.2,10.5l5.7-15.6c0.3-0.7,0.9-1.2,1.7-1.2l0,0c0.8,0,1.4,0.5,1.7,1.2l4.9,14.7h14.7c1,0,1.8,0.8,1.8,1.8
					s-0.8,1.8-1.8,1.8h-15.9c-0.8,0-1.4-0.5-1.7-1.2L118,78.7l-5.3,14.7c-0.2,0.7-0.9,1.1-1.6,1.2c-0.7,0-1.4-0.3-1.7-1l-5.2-10.3
					l-4,11.9C99.9,95.8,99.2,96.3,98.5,96.3z"/>
				<path class="st24" d="M229.5,91c-0.8,21-15.6,38.3-35.4,43v-27.1c0-2-1.6-3.5-3.5-3.5h-50.9c-1.5-4.5-2.2-9.2-2.2-14.2
					c0-24.8,19.6-45.1,44.2-46c1,0,1.8,0.8,1.8,1.8v42.5c0,1,0.8,1.8,1.8,1.8h42.5C228.7,89.2,229.5,90.1,229.5,91L229.5,91z"/>
				<path class="st24" d="M240.1,78.6c0-25.5-20.6-46-46-46v44.3c0,1,0.8,1.8,1.8,1.8h44.2V78.6z"/>
				<g>
					<path class="st25" d="M93.1,117.6h3.5V192h-3.5V117.6z"/>
					<path class="st25" d="M105.5,117.6h3.5V192h-3.5V117.6z"/>
					<path class="st25" d="M117.9,117.6h3.5V192h-3.5V117.6z"/>
					<path class="st25" d="M130.3,117.6h3.5V192h-3.5V117.6z"/>
					<path class="st25" d="M142.7,117.6h3.5V192h-3.5L142.7,117.6L142.7,117.6z"/>
					<path class="st25" d="M155.1,117.6h3.5V192h-3.5V117.6z"/>
					<path class="st25" d="M167.5,117.6h3.5V192h-3.5V117.6z"/>
					<path class="st25" d="M179.9,117.6h3.5V192h-3.5V117.6z"/>
					<path class="st25" d="M80.7,128.2h113.4v3.5H80.7V128.2z"/>
					<path class="st25" d="M80.7,140.6h113.4v3.5H80.7V140.6z"/>
					<path class="st25" d="M80.7,153h113.4v3.5H80.7V153z"/>
					<path class="st25" d="M80.7,165.4h113.4v3.5H80.7V165.4z"/>
					<path class="st25" d="M80.7,177.8h113.4v3.5H80.7V177.8z"/>
				</g>
				<path class="st24" d="M197.6,192h-14.2v-23c0-2,1.6-3.5,3.5-3.5h10.6V192H197.6z"/>
				<path class="st26" d="M183.5,192h-14.2v-14.2c0-2,1.6-3.5,3.5-3.5h10.6V192H183.5z"/>
				<path class="st26" d="M211.8,192h-14.2v-40.7c0-2,1.6-3.5,3.5-3.5h10.6V192H211.8z"/>
				<path class="st24" d="M226,192h-14.2v-51.4c0-2,1.6-3.5,3.5-3.5h7.1c2,0,3.5,1.6,3.5,3.5V192H226z"/>
				<path class="st26" d="M240.1,192H226v-33.7h10.6c2,0,3.5,1.6,3.5,3.5V192z"/>
				<path class="st22" d="M86.1,83.9c-0.3,0-0.6-0.1-0.8-0.2c-0.9-0.5-1.2-1.5-0.7-2.4l19.5-37.2c0.5-0.9,1.5-1.2,2.4-0.7
					s1.2,1.5,0.7,2.4L87.7,83C87.3,83.6,86.7,83.9,86.1,83.9L86.1,83.9z"/>
				<path class="st22" d="M125,64.4c-0.4,0-0.8-0.1-1.1-0.4c-0.8-0.6-0.9-1.7-0.3-2.5l19.5-24.8c0.6-0.8,1.7-0.9,2.5-0.3
					s0.9,1.7,0.3,2.5l-19.5,24.8C126.1,64.2,125.5,64.4,125,64.4z"/>
				<path class="st22" d="M125,64.4c-0.4,0-0.9-0.2-1.2-0.5l-19.4-17.7c-0.7-0.7-0.8-1.8-0.1-2.5s1.8-0.8,2.5-0.1l19.4,17.7
					c0.7,0.7,0.8,1.8,0.1,2.5C126,64.2,125.5,64.4,125,64.4L125,64.4z"/>
				<circle class="st24" cx="86.1" cy="82.1" r="5.3"/>
				<circle class="st24" cx="105.5" cy="44.9" r="5.3"/>
				<circle class="st24" cx="125" cy="62.7" r="5.3"/>
				
					<ellipse transform="matrix(0.1602 -0.9871 0.9871 0.1602 83.943 174.4632)" class="st24" cx="144.5" cy="37.9" rx="5.3" ry="5.3"/>
				<path class="st27" d="M204.7,69.7c-0.5,0-0.9-0.2-1.3-0.5c-0.7-0.7-0.7-1.8,0-2.5l14.2-14.2c0.7-0.7,1.8-0.7,2.5,0
					s0.7,1.8,0,2.5L206,69.2C205.6,69.6,205.2,69.7,204.7,69.7z"/>
				<circle class="st27" cx="206.5" cy="55.6" r="1.8"/>
				<circle class="st27" cx="217.1" cy="66.2" r="1.8"/>
				<path class="st27" d="M165.8,76.8h-3.5c-2,0-3.5-1.6-3.5-3.5s1.6-3.5,3.5-3.5h3.5c2,0,3.5,1.6,3.5,3.5c0,1,0.8,1.8,1.8,1.8
					s1.8-0.8,1.8-1.8c0-3.9-3.2-7.1-7.1-7.1v-1.8c0-1-0.8-1.8-1.8-1.8s-1.8,0.8-1.8,1.8v1.8c-3.9,0-7.1,3.2-7.1,7.1
					c0,3.9,3.2,7.1,7.1,7.1h3.5c2,0,3.5,1.6,3.5,3.5s-1.6,3.5-3.5,3.5h-3.5c-2,0-3.5-1.6-3.5-3.5c0-1-0.8-1.8-1.8-1.8
					s-1.8,0.8-1.8,1.8c0,3.9,3.2,7.1,7.1,7.1v1.8c0,1,0.8,1.8,1.8,1.8s1.8-0.8,1.8-1.8V91c3.9,0,7.1-3.2,7.1-7.1
					S169.7,76.8,165.8,76.8z"/>
				<circle class="st24" cx="130.3" cy="110.5" r="1.8"/>
				<circle class="st24" cx="137.4" cy="110.5" r="1.8"/>
				
					<ellipse transform="matrix(0.1602 -0.9871 0.9871 0.1602 12.2805 235.434)" class="st24" cx="144.5" cy="110.5" rx="1.8" ry="1.8"/>
			</g>
			<g>
				<path class="st12" d="M76.6,111.4H190v-10.6c0-2-1.6-3.5-3.5-3.5H80.1c-2,0-3.5,1.6-3.5,3.5V111.4z"/>
				<path class="st6" d="M80.1,185.7h106.3c2,0,3.5-1.6,3.5-3.5v-70.8H76.6v70.8C76.6,184.2,78.2,185.7,80.1,185.7z"/>
				<path class="st12" d="M94.3,90.1H76.6c-1,0-1.8-0.8-1.8-1.8s0.8-1.8,1.8-1.8H93l4.9-14.7c0.2-0.7,0.8-1.2,1.6-1.2
					c0.7,0,1.4,0.3,1.7,1l5.2,10.5l5.7-15.6c0.3-0.7,0.9-1.2,1.7-1.2l0,0c0.8,0,1.4,0.5,1.7,1.2l4.9,14.7h14.7c1,0,1.8,0.8,1.8,1.8
					s-0.8,1.8-1.8,1.8h-15.9c-0.8,0-1.4-0.5-1.7-1.2l-3.7-11.1l-5.3,14.7c-0.2,0.7-0.9,1.1-1.6,1.2c-0.7,0-1.4-0.3-1.7-1L100,77
					l-4,11.9C95.8,89.6,95.1,90.1,94.3,90.1z"/>
				<path class="st13" d="M225.3,84.8c-0.8,21-15.6,38.3-35.4,43v-27.1c0-2-1.6-3.5-3.5-3.5h-50.9c-1.5-4.5-2.2-9.2-2.2-14.2
					c0-24.8,19.6-45.1,44.2-46c1,0,1.8,0.8,1.8,1.8v42.5c0,1,0.8,1.8,1.8,1.8h42.5C224.6,83,225.4,83.8,225.3,84.8L225.3,84.8z"/>
				<path class="st13" d="M236,72.4c0-25.5-20.6-46-46-46v44.3c0,1,0.8,1.8,1.8,1.8H236V72.4z"/>
				<g>
					<path class="st28" d="M89,111.4h3.5v74.4H89V111.4z"/>
					<path class="st28" d="M101.4,111.4h3.5v74.4h-3.5V111.4z"/>
					<path class="st28" d="M113.8,111.4h3.5v74.4h-3.5V111.4z"/>
					<path class="st28" d="M126.2,111.4h3.5v74.4h-3.5V111.4z"/>
					<path class="st28" d="M138.6,111.4h3.5v74.4h-3.5V111.4z"/>
					<path class="st28" d="M151,111.4h3.5v74.4H151V111.4z"/>
					<path class="st28" d="M163.4,111.4h3.5v74.4h-3.5V111.4z"/>
					<path class="st28" d="M175.8,111.4h3.5v74.4h-3.5V111.4z"/>
					<path class="st28" d="M76.6,122H190v3.5H76.6V122z"/>
					<path class="st28" d="M76.6,134.4H190v3.5H76.6V134.4z"/>
					<path class="st28" d="M76.6,146.8H190v3.5H76.6V146.8z"/>
					<path class="st28" d="M76.6,159.2H190v3.5H76.6V159.2z"/>
					<path class="st28" d="M76.6,171.6H190v3.5H76.6V171.6z"/>
				</g>
				<path class="st13" d="M193.5,185.7h-14.2v-23c0-2,1.6-3.5,3.5-3.5h10.6v26.5H193.5z"/>
				<path class="st29" d="M179.3,185.7h-14.2v-14.2c0-2,1.6-3.5,3.5-3.5h10.6v17.7H179.3z"/>
				<path class="st29" d="M207.7,185.7h-14.2V145c0-2,1.6-3.5,3.5-3.5h10.6v44.2H207.7z"/>
				<path class="st13" d="M221.8,185.7h-14.2v-51.4c0-2,1.6-3.5,3.5-3.5h7.1c2,0,3.5,1.6,3.5,3.5v51.4H221.8z"/>
				<path class="st29" d="M236,185.7h-14.2V152h10.6c2,0,3.5,1.6,3.5,3.5v30.2H236z"/>
				<path class="st12" d="M81.9,77.7c-0.3,0-0.6-0.1-0.8-0.2c-0.9-0.5-1.2-1.5-0.7-2.4l19.5-37.2c0.5-0.9,1.5-1.2,2.4-0.7
					s1.2,1.5,0.7,2.4L83.5,76.8C83.2,77.3,82.6,77.7,81.9,77.7L81.9,77.7z"/>
				<path class="st12" d="M120.9,58.2c-0.4,0-0.8-0.1-1.1-0.4c-0.8-0.6-0.9-1.7-0.3-2.5L139,30.6c0.6-0.8,1.7-0.9,2.5-0.3
					s0.9,1.7,0.3,2.5l-19.5,24.8C121.9,58,121.4,58.2,120.9,58.2z"/>
				<path class="st12" d="M120.9,58.2c-0.4,0-0.9-0.2-1.2-0.5L100.3,40c-0.7-0.7-0.8-1.8-0.1-2.5s1.8-0.8,2.5-0.1l19.4,17.7
					c0.7,0.7,0.8,1.8,0.1,2.5C121.8,58,121.3,58.2,120.9,58.2L120.9,58.2z"/>
				<circle class="st13" cx="81.9" cy="75.9" r="5.3"/>
				<circle class="st13" cx="101.4" cy="38.7" r="5.3"/>
				<circle class="st13" cx="120.9" cy="56.5" r="5.3"/>
				<circle class="st13" cx="140.4" cy="31.7" r="5.3"/>
				<path class="st30" d="M200.6,63.5c-0.5,0-0.9-0.2-1.3-0.5c-0.7-0.7-0.7-1.8,0-2.5l14.2-14.2c0.7-0.7,1.8-0.7,2.5,0
					s0.7,1.8,0,2.5L201.8,63C201.5,63.4,201,63.5,200.6,63.5z"/>
				<circle class="st30" cx="202.4" cy="49.4" r="1.8"/>
				<circle class="st30" cx="213" cy="60" r="1.8"/>
				<path class="st30" d="M161.6,70.6h-3.5c-2,0-3.5-1.6-3.5-3.5s1.6-3.5,3.5-3.5h3.5c2,0,3.5,1.6,3.5,3.5c0,1,0.8,1.8,1.8,1.8
					s1.8-0.8,1.8-1.8c0-3.9-3.2-7.1-7.1-7.1v-1.8c0-1-0.8-1.8-1.8-1.8s-1.8,0.8-1.8,1.8V60c-3.9,0-7.1,3.2-7.1,7.1s3.2,7.1,7.1,7.1
					h3.5c2,0,3.5,1.6,3.5,3.5c0,2-1.6,3.5-3.5,3.5H158c-2,0-3.5-1.6-3.5-3.5c0-1-0.8-1.8-1.8-1.8s-1.8,0.8-1.8,1.8
					c0,3.9,3.2,7.1,7.1,7.1v1.8c0,1,0.8,1.8,1.8,1.8s1.8-0.8,1.8-1.8v-1.8c3.9,0,7.1-3.2,7.1-7.1C168.7,73.8,165.5,70.6,161.6,70.6z
					"/>
				<circle class="st13" cx="126.2" cy="104.3" r="1.8"/>
				<circle class="st13" cx="133.3" cy="104.3" r="1.8"/>
				<circle class="st13" cx="140.4" cy="104.3" r="1.8"/>
			</g>
		</g>
	</g>
</g>
<g class="st0">
	<g class="st1">
		<polygon class="st31" points="169.5,68.9 303.8,149 162.7,222.9 28.4,142.7 		"/>
		<line class="st31" x1="51.9" y1="130.4" x2="186.3" y2="210.6"/>
		<line class="st31" x1="75.4" y1="118.1" x2="209.8" y2="198.2"/>
		<line class="st31" x1="98.9" y1="105.8" x2="233.3" y2="185.9"/>
		<line class="st31" x1="122.4" y1="93.5" x2="256.8" y2="173.6"/>
		<line class="st31" x1="145.9" y1="81.2" x2="280.3" y2="161.3"/>
		<line class="st31" x1="281.4" y1="135.7" x2="140.3" y2="209.5"/>
		<line class="st31" x1="259" y1="122.3" x2="118" y2="196.2"/>
		<line class="st31" x1="236.6" y1="109" x2="95.6" y2="182.8"/>
		<line class="st31" x1="214.2" y1="95.6" x2="73.2" y2="169.4"/>
		<line class="st31" x1="191.9" y1="82.2" x2="50.8" y2="156.1"/>
	</g>
	<g class="st4">
		<g>
			
				<linearGradient id="SVGID_1_" gradientUnits="userSpaceOnUse" x1="61.0615" y1="96.9" x2="108.996" y2="96.9" gradientTransform="matrix(1 0 0 -1 0 230)">
				<stop  offset="0" style="stop-color:#7ACFE2"/>
				<stop  offset="0.3704" style="stop-color:#76D4E6"/>
				<stop  offset="0.8061" style="stop-color:#6BE2F2"/>
				<stop  offset="1" style="stop-color:#64EBF9"/>
			</linearGradient>
			<path class="st32" d="M109,112.6v48.7c0,0.1,0,0.2,0,0.3c-0.2,3.3-2.9,6-6.3,6H67.3c-3.5,0-6.3-2.8-6.3-6.3v-56.4
				c0-3,2.1-5.5,4.9-6.1c0.5-0.1,0.9-0.2,1.4-0.2h28.1c1,0,1.9,0.2,2.7,0.6c1.7,0.8,2.2,1.9,5.2,5c3.5,3.8,4.4,4.2,5.1,5.9
				C108.8,110.8,109,111.7,109,112.6z"/>
			<path class="st33" d="M109,112.6v48.7c0,0.1,0,0.2,0,0.3c-0.5,0.1-0.9,0.2-1.4,0.2H72.2c-3.5,0-6.3-2.8-6.3-6.3V99.1
				c0-0.1,0-0.2,0-0.3c0.5-0.1,0.9-0.2,1.4-0.2h28.1c1,0,1.9,0.2,2.7,0.6c0.7,0.3,1.3,0.8,1.9,1.4l3.4,3.6l3.9,4
				c0.5,0.5,0.9,1.2,1.2,1.8C108.8,110.8,109,111.7,109,112.6z"/>
			<path class="st34" d="M119,133.6v4.4c0,1.6-1.3,2.9-2.9,2.9H93.2c-1.6,0-2.9-1.3-2.9-2.9v-4.4c0-1.6,1.3-2.9,2.9-2.9h22.9
				C117.7,130.7,119,132,119,133.6z"/>
			<path class="st35" d="M119,133.6v4.4c0,1.6-1.3,2.9-2.9,2.9H98c-1.6,0-2.9-1.3-2.9-2.9v-4.4c0-1.6,1.3-2.9,2.9-2.9h18.1
				C117.7,130.7,119,132,119,133.6z"/>
			<path class="st36" d="M119.2,146.8v4.2c0,0.7-0.6,1.3-1.3,1.3h-4.2c-0.7,0-1.3-0.6-1.3-1.3v-4.2c0-0.7,0.6-1.3,1.3-1.3h4.2
				C118.6,145.4,119.2,146,119.2,146.8z"/>
			<path class="st36" d="M119.2,158.3v12.9c0,1.3-1,2.3-2.3,2.3h-2.3c-1.3,0-2.3-1-2.3-2.3v-12.9c0-1.1,0.9-2,2-2h2.9
				C118.3,156.3,119.2,157.2,119.2,158.3z"/>
			<path class="st37" d="M119.2,146.8v1.2c0,0.7-0.6,1.3-1.3,1.3h-4.2c-0.7,0-1.3-0.6-1.3-1.3v-1.2c0-0.7,0.6-1.3,1.3-1.3h4.2
				C118.6,145.4,119.2,146,119.2,146.8z"/>
			<path class="st37" d="M119.2,158.3v10c0,1.3-1,2.3-2.3,2.3h-2.3c-1.3,0-2.3-1-2.3-2.3v-10c0-1.1,0.9-2,2-2h2.9
				C118.3,156.3,119.2,157.2,119.2,158.3z"/>
			<path class="st38" d="M108.5,110.1h-7.9c-1.3,0-2.4-1.1-2.4-2.4v-8.4c0.7,0.3,1.3,0.8,1.9,1.4l3.4,3.6l3.9,4
				C107.8,108.8,108.2,109.4,108.5,110.1z"/>
			
				<linearGradient id="SVGID_2_" gradientUnits="userSpaceOnUse" x1="55.0853" y1="55.2" x2="80.1125" y2="55.2" gradientTransform="matrix(1 0 0 -1 0 230)">
				<stop  offset="0" style="stop-color:#7ACFE2"/>
				<stop  offset="0.3704" style="stop-color:#76D4E6"/>
				<stop  offset="0.8061" style="stop-color:#6BE2F2"/>
				<stop  offset="1" style="stop-color:#64EBF9"/>
			</linearGradient>
			<path class="st39" d="M80.1,174.8c0,0.8-0.3,1.6-0.9,2.2c-0.6,0.6-1.3,0.9-2.2,0.9H58.1c-1.7,0-3.1-1.4-3.1-3.1
				c0-0.8,0.3-1.6,0.9-2.2c0.6-0.6,1.3-0.9,2.2-0.9H77C78.7,171.7,80.1,173.1,80.1,174.8z"/>
			
				<linearGradient id="SVGID_3_" gradientUnits="userSpaceOnUse" x1="55.0853" y1="61.3" x2="80.1125" y2="61.3" gradientTransform="matrix(1 0 0 -1 0 230)">
				<stop  offset="0" style="stop-color:#7ACFE2"/>
				<stop  offset="0.3704" style="stop-color:#76D4E6"/>
				<stop  offset="0.8061" style="stop-color:#6BE2F2"/>
				<stop  offset="1" style="stop-color:#64EBF9"/>
			</linearGradient>
			<path class="st40" d="M80.1,168.7c0,0.8-0.3,1.6-0.9,2.2c-0.6,0.6-1.3,0.9-2.2,0.9H58.1c-1.7,0-3.1-1.4-3.1-3.1
				c0-0.8,0.3-1.6,0.9-2.2c0.6-0.6,1.3-0.9,2.2-0.9H77C78.7,165.6,80.1,167,80.1,168.7z"/>
			
				<linearGradient id="SVGID_4_" gradientUnits="userSpaceOnUse" x1="55.0853" y1="67.5" x2="80.1125" y2="67.5" gradientTransform="matrix(1 0 0 -1 0 230)">
				<stop  offset="0" style="stop-color:#7ACFE2"/>
				<stop  offset="0.3704" style="stop-color:#76D4E6"/>
				<stop  offset="0.8061" style="stop-color:#6BE2F2"/>
				<stop  offset="1" style="stop-color:#64EBF9"/>
			</linearGradient>
			<path class="st41" d="M80.1,162.5c0,0.8-0.3,1.6-0.9,2.2c-0.6,0.6-1.3,0.9-2.2,0.9H58.1c-1.7,0-3.1-1.4-3.1-3.1
				c0-0.8,0.3-1.6,0.9-2.2c0.6-0.6,1.3-0.9,2.2-0.9H77C78.7,159.4,80.1,160.8,80.1,162.5z"/>
			
				<linearGradient id="SVGID_5_" gradientUnits="userSpaceOnUse" x1="55.0853" y1="73.65" x2="80.1125" y2="73.65" gradientTransform="matrix(1 0 0 -1 0 230)">
				<stop  offset="0" style="stop-color:#7ACFE2"/>
				<stop  offset="0.3704" style="stop-color:#76D4E6"/>
				<stop  offset="0.8061" style="stop-color:#6BE2F2"/>
				<stop  offset="1" style="stop-color:#64EBF9"/>
			</linearGradient>
			<path class="st42" d="M80.1,156.3c0,0.8-0.3,1.6-0.9,2.2c-0.6,0.6-1.3,0.9-2.2,0.9H58.1c-1.7,0-3.1-1.4-3.1-3.1
				c0-0.6,0.2-1.2,0.5-1.6c0.1-0.2,0.3-0.4,0.4-0.5c0.6-0.6,1.3-0.9,2.2-0.9H77C78.7,153.3,80.1,154.6,80.1,156.3z"/>
			
				<linearGradient id="SVGID_6_" gradientUnits="userSpaceOnUse" x1="55.0853" y1="79.8" x2="80.1118" y2="79.8" gradientTransform="matrix(1 0 0 -1 0 230)">
				<stop  offset="0" style="stop-color:#7ACFE2"/>
				<stop  offset="0.3704" style="stop-color:#76D4E6"/>
				<stop  offset="0.8061" style="stop-color:#6BE2F2"/>
				<stop  offset="1" style="stop-color:#64EBF9"/>
			</linearGradient>
			<path class="st43" d="M77,153.3H58.1c-1.7,0-3.1-1.4-3.1-3.1l0,0c0-1.7,1.4-3.1,3.1-3.1H77c1.7,0,3.1,1.4,3.1,3.1l0,0
				C80.1,151.9,78.7,153.3,77,153.3z"/>
			<path class="st44" d="M69.3,167.8c-0.2-4.6-3.5-8.3-7.7-9.3c-0.9-0.2-1.8-0.3-2.7-0.3l0,0H55c-8.9,0.4-13.1,11.5-6.2,17.5
				c1.9,1.7,4.4,2.6,7.1,2.5H59l0,0c0.3,0,0.6,0,0.8,0c0.6,0,1.3-0.1,1.9-0.3c4.4-1,7.6-4.8,7.7-9.4l0,0
				C69.3,168.3,69.3,168,69.3,167.8z"/>
			
				<linearGradient id="SVGID_7_" gradientUnits="userSpaceOnUse" x1="53.8123" y1="61.75" x2="69.2862" y2="61.75" gradientTransform="matrix(1 0 0 -1 0 230)">
				<stop  offset="0" style="stop-color:#7ACFE2"/>
				<stop  offset="0.3704" style="stop-color:#76D4E6"/>
				<stop  offset="0.8061" style="stop-color:#6BE2F2"/>
				<stop  offset="1" style="stop-color:#64EBF9"/>
			</linearGradient>
			<path class="st45" d="M69.3,168.6L69.3,168.6c-0.2,4.6-3.4,8.4-7.7,9.4c-4.3-1-7.5-4.7-7.7-9.3c0,0,0,0,0-0.1l0,0
				c-0.2-4.9,3.2-9.1,7.7-10.1c4.3,1,7.5,4.7,7.7,9.3C69.3,168,69.3,168.3,69.3,168.6z"/>
			<path class="st46" d="M116.2,124.3h-6v-11.7c0-2-0.8-3.9-2.1-5.2l-3.8-4c-3.3-3.4-3.7-4.3-5.6-5.3c-0.9-0.5-2.1-0.8-3.3-0.8H67.3
				c-4.2,0-7.6,3.4-7.6,7.6v40.9h-1.6c-2.4,0-4.4,2-4.4,4.4c0,1.2,0.5,2.3,1.3,3.1c-0.8,0.8-1.3,1.9-1.3,3.1c0,0.5,0.1,0.7,0.1,0.9
				c-9.5,1-13.3,12.7-6.3,19.1c2.1,1.9,4.9,3,7.9,2.9c1,0,21.6,0,21.6,0c2.4,0,4.4-2,4.4-4.4c0-1.2-0.5-2.3-1.3-3.1
				c0.7-0.7,1.2-1.7,1.3-2.9H83v0.9c0,5.6,4.5,10.1,10.1,10.1h23.1c5.6,0,10.1-4.5,10.1-10.1v-35.4
				C126.3,128.8,121.8,124.3,116.2,124.3z M99.5,101.9c5.1,5.4,6.2,6.6,6.5,6.8l0,0l0,0l0,0l0,0l0,0l0,0l0,0l0,0l0,0h-6.5V101.9
				L99.5,101.9z M58.2,148.4H77c1,0,1.8,0.8,1.8,1.8S78,152,77,152H58.1c-1,0-1.8-0.8-1.8-1.8C56.4,149.2,57.2,148.4,58.2,148.4z
				 M58.2,154.5H77c1,0,1.8,0.8,1.8,1.8s-0.8,1.8-1.8,1.8H64c-0.5-0.2-1.1-0.4-1.6-0.6c-0.8-0.2-1.7-0.4-2.6-0.4c-0.3,0-0.5,0-0.8,0
				h-2.4c-0.1-0.2-0.2-0.5-0.2-0.8C56.4,155.3,57.2,154.5,58.2,154.5z M78.8,162.5c0,1-0.8,1.8-1.8,1.8h-7.3
				c-0.5-1.3-1.2-2.5-2.2-3.6H77C78,160.7,78.8,161.5,78.8,162.5z M51.9,160.2c-0.8,0.7-1.5,1.6-2,2.6h-1.5
				C49.3,161.6,50.5,160.7,51.9,160.2z M46.9,165.2h1.9c0,0.2-0.3,0.9-0.4,1.9h-2C46.5,166.5,46.7,165.8,46.9,165.2z M47.1,171.6
				c-0.3-0.7-0.5-1.3-0.6-2.1h2c0.4,2,0.4,1.7,0.5,2.1H47.1z M48.8,174.1c0.8,0,1.3,0,1.4,0c0.5,0.8,1.1,1.5,1.7,2.1
				C50.7,175.7,49.6,175,48.8,174.1z M59.8,176.8c-4.7,0.2-8.8-3.5-9-8.2c-0.3-7.6,8.7-11.9,14.4-6.7
				C70.9,167,67.5,176.5,59.8,176.8z M77,176.6H66.5c1.2-1,2.1-2.2,2.8-3.6H77c1,0,1.8,0.8,1.8,1.8S78,176.6,77,176.6z M78.8,168.9
				c-0.1,0.9-0.9,1.6-1.8,1.6h-6.8c0.2-1.1,0.3-2.3,0.2-3.6H77C78.1,166.9,78.9,167.8,78.8,168.9z M83,166.3h-2.3
				c-0.2-0.3-0.4-0.5-0.6-0.7c1.7-1.7,1.7-4.5,0-6.2c0.8-0.8,1.3-1.9,1.3-3.1c0-1.2-0.5-2.3-1.3-3.1c2.7-2.7,0.8-7.5-3.1-7.5H62.3
				v-40.9c0-2.8,2.2-5,5-5h29.5V110c0,0.7,0.6,1.3,1.3,1.3h9.4c0.3,1.1,0.1,0.7,0.2,12.9H93.1c-5.6,0-10.1,4.5-10.1,10.1L83,166.3
				L83,166.3z M123.9,169.7c0,4.2-3.4,7.7-7.7,7.7H93.1c-4.2,0-7.7-3.4-7.7-7.7v-35.4c0-4.2,3.4-7.7,7.7-7.7h23.1
				c4.2,0,7.7,3.4,7.7,7.7V169.7L123.9,169.7z"/>
			<path class="st47" d="M75.3,132.6L75.3,132.6c-1.5-0.5-2.6-0.9-2.6-2.3c0-1.3,0.8-1.9,2.5-1.9s2.2,0.8,2.8,0.8c0.7,0,1-0.7,1-1.2
				c0-1-1.7-1.5-3.1-1.6v-0.9c0-0.6-0.5-1.2-1.2-1.2c-0.6,0-1.2,0.5-1.2,1.2v1.1c-2,0.5-3.1,1.9-3.1,3.9c0,2.8,2.1,3.6,3.8,4.2
				c1.6,0.6,2.9,1.1,2.9,3c0,1.5-0.9,2.3-2.6,2.3c-2.5,0-2.5-1.7-3.4-1.7c-0.6,0-1.1,0.7-1.1,1.2c0,1,1.4,2.2,3.5,2.5v0.9
				c0,0.6,0.5,1.2,1.2,1.2c0.6,0,1.2-0.5,1.2-1.2V142c2.2-0.4,3.5-2,3.5-4.5C79.4,134.1,77.1,133.3,75.3,132.6z"/>
			<path class="st47" d="M96.7,116.3h3.1c0.7,0,1.2-0.5,1.2-1.2s-0.5-1.2-1.2-1.2h-3.1c-0.7,0-1.2,0.5-1.2,1.2S96,116.3,96.7,116.3z
				"/>
			<path class="st47" d="M70.3,116.3h21.6c0.7,0,1.2-0.5,1.2-1.2s-0.5-1.2-1.2-1.2H70.3c-0.7,0-1.2,0.5-1.2,1.2
				S69.6,116.3,70.3,116.3z"/>
			<path class="st47" d="M74.1,122.4c0.7,0,1.2-0.5,1.2-1.2s-0.5-1.2-1.2-1.2h-3.9c-0.7,0-1.2,0.5-1.2,1.2s0.5,1.2,1.2,1.2H74.1z"/>
			<path class="st47" d="M101,121.2c0-0.7-0.5-1.2-1.2-1.2H79c-0.7,0-1.2,0.5-1.2,1.2s0.5,1.2,1.2,1.2h20.7
				C100.4,122.4,101,121.8,101,121.2z"/>
			<path class="st47" d="M59,165.7c0-0.3,0.1-0.4,0.2-0.5c0.3-0.2,1.1-0.2,1.8,0.1c0.2,0.1,0.4,0.2,0.7,0.2c1.2,0,2.1-2.2-0.7-2.7
				v-0.1c0-0.7-0.6-1.2-1.2-1.2s-1.2,0.6-1.2,1.2v0.2c-1.2,0.4-1.9,1.4-1.9,2.8c0,2.1,1.5,2.6,2.6,3.1c1,0.4,1.4,0.6,1.4,1.3
				c0,0.4-0.1,0.9-1,0.9c-1.3,0-1.1-1-2.1-1c-0.7,0-1.2,0.7-1.2,1.3c0,0.8,0.9,1.6,2.1,2v0.1c0,0.7,0.6,1.2,1.2,1.2s1.2-0.6,1.2-1.2
				v-0.1c1.3-0.4,2.1-1.6,2.1-3.1C63,166.3,59,166.9,59,165.7z"/>
		</g>
		<g>
			<g>
				<g>
					<g>
						<g>
							<g>
								<g>
									<g>
										
											<linearGradient id="SVGID_8_" gradientUnits="userSpaceOnUse" x1="-2048.0579" y1="146.0197" x2="-1923.0127" y2="146.0197" gradientTransform="matrix(1 0 0 -1 2131.9236 230)">
											<stop  offset="0" style="stop-color:#C0BFF6"/>
											<stop  offset="0.2938" style="stop-color:#C5C4F7"/>
											<stop  offset="0.6399" style="stop-color:#D3D2F9"/>
											<stop  offset="1" style="stop-color:#E9E9FD"/>
										</linearGradient>
										<path class="st48" d="M208.9,91.8l-13.5-80.4l1.1-0.5l-1.6-0.9l0,0c-0.3-0.2-0.8-0.2-1.3,0.1L85.3,72.6
											c-0.9,0.5-1.6,1.8-1.4,2.8l13.7,81c0.1,0.4,0.3,0.7,0.6,0.8l0,0l1.6,0.9l0.3-1.5H100l107.6-62.1
											C208.4,94,209,92.7,208.9,91.8z"/>
										
											<linearGradient id="SVGID_9_" gradientUnits="userSpaceOnUse" x1="-2048.094" y1="114" x2="-2026.6185" y2="114" gradientTransform="matrix(1 0 0 -1 2131.9236 230)">
											<stop  offset="0" style="stop-color:#5761D7"/>
											<stop  offset="0.1779" style="stop-color:#5C66D9"/>
											<stop  offset="0.3876" style="stop-color:#6A73DF"/>
											<stop  offset="0.6134" style="stop-color:#8289E8"/>
											<stop  offset="0.849" style="stop-color:#A3A7F5"/>
											<stop  offset="1" style="stop-color:#BCBEFF"/>
										</linearGradient>
										<path class="st49" d="M85.9,74.8L84.1,74c-0.2,0.5-0.3,0.9-0.2,1.3l13.7,81c0.1,0.4,0.3,0.7,0.6,0.8l0,0l1.6,0.9l0.3-1.5
											H100l5.4-3.1L85.9,74.8z"/>
										<path class="st50" d="M209.2,95.5L100.9,158c-0.8,0.5-1.6,0.2-1.7-0.7l-13.7-81c-0.2-0.9,0.5-2.2,1.4-2.8L195.2,11
											c0.8-0.5,1.6-0.2,1.7,0.7l13.7,81C210.7,93.7,210.1,95,209.2,95.5z"/>
										<g class="st9">
											<polygon class="st11" points="193.8,16.2 89.4,76.5 102.4,152.8 206.7,92.6 											"/>
										</g>
									</g>
									<g>
										
											<linearGradient id="SVGID_10_" gradientUnits="userSpaceOnUse" x1="-2031.3236" y1="77.9" x2="-1854.7236" y2="77.9" gradientTransform="matrix(1 0 0 -1 2131.9236 230)">
											<stop  offset="0" style="stop-color:#7CB3E0"/>
											<stop  offset="0.2721" style="stop-color:#7FB8E2"/>
											<stop  offset="0.5929" style="stop-color:#88C6E6"/>
											<stop  offset="0.937" style="stop-color:#97DEED"/>
											<stop  offset="1" style="stop-color:#9AE3EF"/>
										</linearGradient>
										<path class="st51" d="M277.2,133.8l-5.9,3.1l-59.2-34.2c-1-0.6-2.7-0.5-3.9,0.2l-102.2,59c-1-0.5-5.4-2.7-5.4-2.7l2.2,5.6
											l0,0c0.1,0.3,0.3,0.5,0.6,0.7l62.4,36c1,0.6,2.7,0.5,3.9-0.2L274.2,141c0.5-0.3,0.8-0.6,0.9-0.9l0,0L277.2,133.8z"/>
										
											<linearGradient id="SVGID_11_" gradientUnits="userSpaceOnUse" x1="100.5182" y1="83.75" x2="277.2818" y2="83.75" gradientTransform="matrix(1 0 0 -1 0 230)">
											<stop  offset="0" style="stop-color:#7ACFE2"/>
											<stop  offset="0.3704" style="stop-color:#76D4E6"/>
											<stop  offset="0.8061" style="stop-color:#6BE2F2"/>
											<stop  offset="1" style="stop-color:#64EBF9"/>
										</linearGradient>
										<path class="st52" d="M276.3,134.8l-107.2,61.9c-1.2,0.7-2.9,0.8-4,0.2L101.2,160c-1-0.6-0.9-1.6,0.3-2.3l107.2-61.9
											c1.2-0.7,2.9-0.8,4-0.2l63.9,36.9C277.6,133.1,277.5,134.1,276.3,134.8z"/>
										<path class="st8" d="M276.3,134.3l-107.2,61.9c-1.2,0.7-2.9,0.8-4,0.2l-63.9-36.9c-0.4-0.2-0.6-0.5-0.6-0.7
											c-0.1,0.5,0.1,0.9,0.6,1.2l63.9,36.9c1,0.6,2.8,0.5,4-0.2l107.2-61.9c0.8-0.4,1.1-1,0.9-1.5
											C277.1,133.6,276.8,134,276.3,134.3z"/>
										<path class="st47" d="M136.8,183.3v-1.2c0-0.1,0.1-0.2,0.2-0.1l4.1,2.4c0.1,0,0.2,0.2,0.2,0.3v1.2c0,0.1-0.1,0.2-0.2,0.1
											l-4.1-2.4C136.9,183.5,136.8,183.4,136.8,183.3z"/>
										<path class="st47" d="M143,186.9v-1.2c0-0.1,0.1-0.2,0.2-0.1l4.1,2.4c0.1,0,0.2,0.2,0.2,0.3v1.2c0,0.1-0.1,0.2-0.2,0.1
											l-4.1-2.4C143.1,187.1,143,187,143,186.9z"/>
										<path class="st53" d="M117.9,156.5l89.1-51.4c0.6-0.3,1.3-0.3,1.9,0l31.7,18.3c0.5,0.3,0.5,0.9,0,1.2l-89,51.4
											c-0.6,0.3-1.3,0.3-1.9,0l-31.8-18.3C117.4,157.4,117.4,156.7,117.9,156.5z"/>
										
											<linearGradient id="SVGID_12_" gradientUnits="userSpaceOnUse" x1="117.5114" y1="98.5625" x2="240.875" y2="98.5625" gradientTransform="matrix(1 0 0 -1 0 230)">
											<stop  offset="0" style="stop-color:#51D9E0"/>
											<stop  offset="0.3951" style="stop-color:#55DDE5"/>
											<stop  offset="0.8601" style="stop-color:#60E7F3"/>
											<stop  offset="1" style="stop-color:#64EBF9"/>
										</linearGradient>
										<path class="st54" d="M117.9,157.7l0.3,0.2l88.7-51.2c0.6-0.3,1.3-0.3,1.9,0l31.4,18.2l0.3-0.2c0.5-0.3,0.5-0.9,0-1.2
											l-31.7-18.3c-0.6-0.3-1.3-0.3-1.9,0l-89.1,51.4C117.4,156.7,117.4,157.4,117.9,157.7z"/>
										<g>
											<polygon class="st47" points="211.3,109.7 133.9,154.4 130.5,152.4 207.8,107.7 											"/>
											<polygon class="st47" points="219.7,114.6 147.1,156.5 143.7,154.5 216.3,112.6 											"/>
											<polygon class="st47" points="225.2,117.7 139.8,167.1 136.3,165.1 221.8,115.8 											"/>
											<polygon class="st47" points="230.7,120.9 145.3,170.2 141.8,168.2 227.2,118.9 											"/>
											<polygon class="st47" points="236.2,124.1 150.8,173.4 147.3,171.4 232.7,122.1 											"/>
											<polygon class="st47" points="129.2,157.1 125.8,159 122.4,157.1 125.8,155.1 											"/>
											<polygon class="st47" points="141.4,159.8 134.2,163.9 130.8,161.9 137.9,157.8 											"/>
										</g>
										
											<linearGradient id="SVGID_13_" gradientUnits="userSpaceOnUse" x1="-1942.0581" y1="73.7625" x2="-1896.8197" y2="73.7625" gradientTransform="matrix(1 0 0 -1 2131.9236 230)">
											<stop  offset="0" style="stop-color:#74D7E8"/>
											<stop  offset="0.3021" style="stop-color:#78DCEB"/>
											<stop  offset="0.6574" style="stop-color:#83EAF3"/>
											<stop  offset="1" style="stop-color:#93FFFF"/>
										</linearGradient>
										<path class="st55" d="M210.4,168.9l24-13.9c0.9-0.5,0.9-1.4,0-2l-16.4-9.5c-0.9-0.5-2.5-0.5-3.4,0l-24,13.9
											c-0.9,0.5-0.9,1.4,0,2l16.4,9.5C207.9,169.5,209.4,169.5,210.4,168.9z"/>
										
											<linearGradient id="SVGID_14_" gradientUnits="userSpaceOnUse" x1="189.8743" y1="78.9375" x2="235.095" y2="78.9375" gradientTransform="matrix(1 0 0 -1 0 230)">
											<stop  offset="0" style="stop-color:#7ACFE2"/>
											<stop  offset="0.1721" style="stop-color:#77CBDD"/>
											<stop  offset="0.375" style="stop-color:#6DBECF"/>
											<stop  offset="0.5935" style="stop-color:#5DA9B7"/>
											<stop  offset="0.8214" style="stop-color:#488C96"/>
											<stop  offset="1" style="stop-color:#337077"/>
										</linearGradient>
										<path class="st56" d="M190.6,158.3l24-13.9c0.9-0.5,2.5-0.5,3.4,0l16.4,9.5c0.3,0.2,0.5,0.4,0.6,0.6
											c0.2-0.5,0.1-1-0.6-1.4l-16.4-9.5c-0.9-0.5-2.5-0.5-3.4,0l-24,13.9c-0.6,0.4-0.8,0.9-0.6,1.4
											C190.1,158.6,190.3,158.4,190.6,158.3z"/>
									</g>
								</g>
								<g class="st57">
									<g>
										<defs>
											<polygon id="SVGID_15_" points="193.8,16.2 89.4,76.5 102.4,152.8 206.7,92.6 											"/>
										</defs>
										<clipPath id="SVGID_16_">
											<use xlink:href="#SVGID_15_"  style="overflow:visible;"/>
										</clipPath>
										<g class="st58">
											
												<linearGradient id="SVGID_17_" gradientUnits="userSpaceOnUse" x1="-2039.5093" y1="122.95" x2="-1862.7456" y2="122.95" gradientTransform="matrix(1 0 0 -1 2131.9236 230)">
												<stop  offset="0" style="stop-color:#C0BFF6"/>
												<stop  offset="0.2938" style="stop-color:#C5C4F7"/>
												<stop  offset="0.6399" style="stop-color:#D3D2F9"/>
												<stop  offset="1" style="stop-color:#E9E9FD"/>
											</linearGradient>
											<path class="st59" d="M208.8,95.6l-107.2,61.9c-1.2,0.7-2.9,0.8-4,0.2l-63.9-36.9c-1-0.6-0.9-1.6,0.3-2.3l107.2-61.9
												c1.2-0.7,2.9-0.8,4-0.2l63.9,36.9C210.1,93.9,210,95,208.8,95.6z"/>
											
												<linearGradient id="SVGID_18_" gradientUnits="userSpaceOnUse" x1="-2051.0986" y1="135.9625" x2="-2005.86" y2="135.9625" gradientTransform="matrix(1 0 0 -1 2131.9236 230)">
												<stop  offset="0" style="stop-color:#C0BFF6"/>
												<stop  offset="0.2938" style="stop-color:#C5C4F7"/>
												<stop  offset="0.6399" style="stop-color:#D3D2F9"/>
												<stop  offset="1" style="stop-color:#E9E9FD"/>
											</linearGradient>
											<path class="st60" d="M101.3,106.7l24-13.9c0.9-0.5,0.9-1.4,0-2l-16.4-9.5c-0.9-0.5-2.5-0.5-3.4,0l-24,13.9
												c-0.9,0.5-0.9,1.4,0,2l16.4,9.5C98.8,107.3,100.4,107.3,101.3,106.7z"/>
											<path class="st61" d="M81.5,96.1l24-13.9c0.9-0.5,2.5-0.5,3.4,0l16.4,9.5c0.3,0.2,0.5,0.4,0.6,0.6c0.2-0.5,0.1-1-0.6-1.4
												l-16.4-9.5c-0.9-0.5-2.5-0.5-3.4,0l-24,13.9c-0.6,0.4-0.8,0.9-0.6,1.4C81,96.5,81.2,96.3,81.5,96.1z"/>
											<g>
												<path class="st62" d="M70.9,128.4L160,77c0.6-0.3,1.3-0.3,1.9,0l31.7,18.3c0.5,0.3,0.5,0.9,0,1.2l-89,51.4
													c-0.6,0.3-1.3,0.3-1.9,0l-31.8-18.3C70.5,129.3,70.5,128.7,70.9,128.4z"/>
												<path class="st61" d="M70.9,129.6l0.3,0.2l88.7-51.2c0.6-0.3,1.3-0.3,1.9,0l31.4,18.2l0.3-0.2c0.5-0.3,0.5-0.9,0-1.2
													L161.9,77c-0.6-0.3-1.3-0.3-1.9,0l-89.1,51.4C70.5,128.7,70.5,129.3,70.9,129.6z"/>
												<g>
													<polygon class="st47" points="185.3,94.1 107.7,138.9 110.8,140.6 188.4,95.9 													"/>
													<polygon class="st47" points="177.1,89.4 103.4,131.9 106.5,133.7 180.2,91.1 													"/>
													<polygon class="st47" points="97.9,135.1 91,139.1 94.1,140.9 101,136.9 													"/>
													<polygon class="st47" points="104,141 99.2,143.8 102.3,145.6 107.1,142.8 													"/>
													<polygon class="st47" points="172,86.4 85.9,136.1 89,137.9 175.1,88.2 													"/>
													<polygon class="st47" points="166.9,83.4 80.8,133.2 83.8,134.9 170,85.2 													"/>
													<polygon class="st47" points="161.8,80.5 75.6,130.2 78.7,132 164.8,82.3 													"/>
												</g>
											</g>
										</g>
									</g>
								</g>
							</g>
						</g>
					</g>
				</g>
			</g>
			<g>
				<g>
					<g>
						<polygon class="st13" points="150,65.9 149.7,63.7 147.7,64.8 148.1,67.1 						"/>
						<polygon class="st14" points="150.8,70.4 150.4,68.2 148.5,69.3 148.9,71.5 						"/>
						<polygon class="st15" points="151.6,74.9 151.2,72.7 149.3,73.8 149.6,76 						"/>
						<polygon class="st13" points="152.4,79.4 152,77.2 150,78.3 150.4,80.5 						"/>
						<polygon class="st15" points="153.1,83.9 152.7,81.6 150.8,82.8 151.2,85 						"/>
						<polygon class="st13" points="153.9,88.4 153.5,86.1 151.6,87.3 152,89.5 						"/>
						<polygon class="st13" points="154.7,92.9 154.3,90.6 152.3,91.7 152.7,94 						"/>
						<polygon class="st13" points="155.4,97.3 155.1,95.1 153.1,96.2 153.5,98.5 						"/>
						<polygon class="st14" points="156.2,101.8 155.8,99.6 153.9,100.7 154.3,103 						"/>
					</g>
					<g>
						<polygon class="st13" points="153.9,63.7 153.6,61.4 151.6,62.6 152,64.8 						"/>
						<polygon class="st13" points="154.7,68.2 154.3,65.9 152.4,67 152.8,69.3 						"/>
						<polygon class="st13" points="155.5,72.7 155.1,70.4 153.2,71.5 153.5,73.8 						"/>
						<polygon class="st13" points="156.3,77.1 155.9,74.9 153.9,76 154.3,78.3 						"/>
						<polygon class="st13" points="157,81.6 156.6,79.4 154.7,80.5 155.1,82.8 						"/>
						<polygon class="st13" points="157.8,86.1 157.4,83.9 155.5,85 155.9,87.2 						"/>
						<polygon class="st13" points="158.6,90.6 158.2,88.4 156.2,89.5 156.6,91.7 						"/>
						<polygon class="st13" points="159.3,95.1 159,92.8 157,94 157.4,96.2 						"/>
						<polygon class="st13" points="160.1,99.6 159.7,97.3 157.8,98.5 158.2,100.7 						"/>
					</g>
					<g>
						<polygon class="st13" points="157.8,61.4 157.5,59.2 155.5,60.3 155.9,62.5 						"/>
						<polygon class="st13" points="158.6,65.9 158.2,63.7 156.3,64.8 156.7,67 						"/>
						<polygon class="st13" points="159.4,70.4 159,68.2 157.1,69.3 157.4,71.5 						"/>
						<polygon class="st14" points="160.2,74.9 159.8,72.6 157.8,73.8 158.2,76 						"/>
						<polygon class="st15" points="160.9,79.4 160.5,77.1 158.6,78.3 159,80.5 						"/>
						<polygon class="st15" points="161.7,83.9 161.3,81.6 159.4,82.7 159.8,85 						"/>
						<polygon class="st13" points="162.5,88.3 162.1,86.1 160.1,87.2 160.5,89.5 						"/>
						<polygon class="st13" points="163.2,92.8 162.9,90.6 160.9,91.7 161.3,94 						"/>
						<polygon class="st13" points="164,97.3 163.6,95.1 161.7,96.2 162.1,98.4 						"/>
					</g>
					<g>
						<polygon class="st15" points="161.7,59.2 161.4,56.9 159.4,58 159.8,60.3 						"/>
						<polygon class="st15" points="162.5,63.7 162.1,61.4 160.2,62.5 160.6,64.8 						"/>
						<polygon class="st14" points="163.3,68.1 162.9,65.9 161,67 161.3,69.3 						"/>
						<polygon class="st13" points="164.1,72.6 163.7,70.4 161.7,71.5 162.1,73.8 						"/>
						<polygon class="st13" points="164.8,77.1 164.4,74.9 162.5,76 162.9,78.2 						"/>
						<polygon class="st13" points="165.6,81.6 165.2,79.4 163.3,80.5 163.7,82.7 						"/>
						<polygon class="st15" points="166.4,86.1 166,83.8 164,85 164.4,87.2 						"/>
						<polygon class="st13" points="167.1,90.6 166.8,88.3 164.8,89.5 165.2,91.7 						"/>
						<polygon class="st13" points="167.9,95.1 167.5,92.8 165.6,93.9 166,96.2 						"/>
					</g>
					<g>
						<polygon class="st13" points="165.6,56.9 165.3,54.7 163.3,55.8 163.7,58 						"/>
						<polygon class="st13" points="166.4,61.4 166,59.2 164.1,60.3 164.5,62.5 						"/>
						<polygon class="st13" points="167.2,65.9 166.8,63.6 164.9,64.8 165.2,67 						"/>
						<polygon class="st13" points="168,70.4 167.6,68.1 165.6,69.3 166,71.5 						"/>
						<polygon class="st13" points="168.7,74.9 168.3,72.6 166.4,73.7 166.8,76 						"/>
						<polygon class="st13" points="169.5,79.3 169.1,77.1 167.2,78.2 167.6,80.5 						"/>
						<polygon class="st13" points="170.3,83.8 169.9,81.6 167.9,82.7 168.3,85 						"/>
						<polygon class="st13" points="171,88.3 170.7,86.1 168.7,87.2 169.1,89.4 						"/>
						<polygon class="st13" points="171.8,92.8 171.4,90.6 169.5,91.7 169.9,93.9 						"/>
					</g>
					<g>
						<polygon class="st13" points="169.5,54.7 169.2,52.4 167.2,53.5 167.6,55.8 						"/>
						<polygon class="st13" points="170.3,59.1 169.9,56.9 168,58 168.4,60.3 						"/>
						<polygon class="st15" points="171.1,63.6 170.7,61.4 168.8,62.5 169.1,64.8 						"/>
						<polygon class="st13" points="171.9,68.1 171.5,65.9 169.5,67 169.9,69.2 						"/>
						<polygon class="st14" points="172.6,72.6 172.2,70.4 170.3,71.5 170.7,73.7 						"/>
						<polygon class="st13" points="173.4,77.1 173,74.8 171.1,76 171.5,78.2 						"/>
						<polygon class="st13" points="174.2,81.6 173.8,79.3 171.8,80.5 172.2,82.7 						"/>
						<polygon class="st13" points="174.9,86.1 174.6,83.8 172.6,84.9 173,87.2 						"/>
						<polygon class="st13" points="175.7,90.5 175.3,88.3 173.4,89.4 173.8,91.7 						"/>
					</g>
					<g>
						<polygon class="st13" points="173.4,52.4 173.1,50.2 171.1,51.3 171.5,53.5 						"/>
						<polygon class="st13" points="174.2,56.9 173.8,54.6 171.9,55.8 172.3,58 						"/>
						<polygon class="st15" points="175,61.4 174.6,59.1 172.7,60.3 173,62.5 						"/>
						<polygon class="st13" points="175.8,65.9 175.4,63.6 173.4,64.7 173.8,67 						"/>
						<polygon class="st13" points="176.5,70.3 176.1,68.1 174.2,69.2 174.6,71.5 						"/>
						<polygon class="st14" points="177.3,74.8 176.9,72.6 175,73.7 175.4,76 						"/>
						<polygon class="st15" points="178.1,79.3 177.7,77.1 175.7,78.2 176.1,80.4 						"/>
						<polygon class="st13" points="178.8,83.8 178.5,81.6 176.5,82.7 176.9,84.9 						"/>
						<polygon class="st14" points="179.6,88.3 179.2,86 177.3,87.2 177.7,89.4 						"/>
					</g>
					<g>
						<polygon class="st13" points="177.3,50.1 177,47.9 175,49 175.4,51.3 						"/>
						<polygon class="st15" points="178.1,54.6 177.7,52.4 175.8,53.5 176.2,55.8 						"/>
						<polygon class="st13" points="178.9,59.1 178.5,56.9 176.6,58 176.9,60.2 						"/>
						<polygon class="st13" points="179.7,63.6 179.3,61.4 177.3,62.5 177.7,64.7 						"/>
						<polygon class="st13" points="180.4,68.1 180,65.8 178.1,67 178.5,69.2 						"/>
						<polygon class="st13" points="181.2,72.6 180.8,70.3 178.9,71.5 179.3,73.7 						"/>
						<polygon class="st13" points="182,77.1 181.6,74.8 179.6,75.9 180,78.2 						"/>
						<polygon class="st15" points="182.7,81.5 182.4,79.3 180.4,80.4 180.8,82.7 						"/>
						<polygon class="st13" points="183.5,86 183.1,83.8 181.2,84.9 181.6,87.2 						"/>
					</g>
					<g>
						<polygon class="st13" points="181.2,47.9 180.9,45.6 178.9,46.8 179.3,49 						"/>
						<polygon class="st14" points="182,52.4 181.6,50.1 179.7,51.3 180.1,53.5 						"/>
						<polygon class="st13" points="182.8,56.9 182.4,54.6 180.5,55.7 180.8,58 						"/>
						<polygon class="st13" points="183.6,61.3 183.2,59.1 181.2,60.2 181.6,62.5 						"/>
						<polygon class="st13" points="184.3,65.8 183.9,63.6 182,64.7 182.4,67 						"/>
						<polygon class="st13" points="185.1,70.3 184.7,68.1 182.8,69.2 183.2,71.4 						"/>
						<polygon class="st15" points="185.9,74.8 185.5,72.6 183.5,73.7 183.9,75.9 						"/>
						<polygon class="st13" points="186.6,79.3 186.3,77 184.3,78.2 184.7,80.4 						"/>
						<polygon class="st13" points="187.4,83.8 187,81.5 185.1,82.7 185.5,84.9 						"/>
					</g>
				</g>
				<g>
					<g>
						<polygon class="st13" points="115,86.1 114.6,83.9 112.7,85 113,87.3 						"/>
						<polygon class="st14" points="115.8,90.6 115.4,88.4 113.4,89.5 113.8,91.7 						"/>
						<polygon class="st15" points="116.5,95.1 116.1,92.9 114.2,94 114.6,96.2 						"/>
						<polygon class="st13" points="117.3,99.6 116.9,97.4 115,98.5 115.4,100.7 						"/>
						<polygon class="st15" points="118.1,104.1 117.7,101.8 115.7,103 116.1,105.2 						"/>
						<polygon class="st13" points="118.8,108.6 118.5,106.3 116.5,107.5 116.9,109.7 						"/>
						<polygon class="st13" points="119.6,113.1 119.2,110.8 117.3,111.9 117.7,114.2 						"/>
						<polygon class="st13" points="120.4,117.5 120,115.3 118.1,116.4 118.4,118.7 						"/>
						<polygon class="st14" points="121.2,122 120.8,119.8 118.8,120.9 119.2,123.2 						"/>
					</g>
					<g>
						<polygon class="st13" points="118.9,83.9 118.5,81.6 116.6,82.8 116.9,85 						"/>
						<polygon class="st13" points="119.7,88.4 119.3,86.1 117.3,87.3 117.7,89.5 						"/>
						<polygon class="st13" points="120.4,92.9 120,90.6 118.1,91.7 118.5,94 						"/>
						<polygon class="st13" points="121.2,97.3 120.8,95.1 118.9,96.2 119.3,98.5 						"/>
						<polygon class="st13" points="122,101.8 121.6,99.6 119.6,100.7 120,103 						"/>
						<polygon class="st13" points="122.7,106.3 122.4,104.1 120.4,105.2 120.8,107.4 						"/>
						<polygon class="st13" points="123.5,110.8 123.1,108.6 121.2,109.7 121.6,111.9 						"/>
						<polygon class="st13" points="124.3,115.3 123.9,113 122,114.2 122.3,116.4 						"/>
						<polygon class="st13" points="125.1,119.8 124.7,117.5 122.7,118.7 123.1,120.9 						"/>
					</g>
					<g>
						<polygon class="st13" points="122.8,81.6 122.4,79.4 120.5,80.5 120.8,82.8 						"/>
						<polygon class="st13" points="123.6,86.1 123.2,83.9 121.2,85 121.6,87.2 						"/>
						<polygon class="st13" points="124.3,90.6 123.9,88.4 122,89.5 122.4,91.7 						"/>
						<polygon class="st14" points="125.1,95.1 124.7,92.8 122.8,94 123.2,96.2 						"/>
						<polygon class="st15" points="125.9,99.6 125.5,97.3 123.5,98.5 123.9,100.7 						"/>
						<polygon class="st15" points="126.6,104.1 126.3,101.8 124.3,102.9 124.7,105.2 						"/>
						<polygon class="st13" points="127.4,108.5 127,106.3 125.1,107.4 125.5,109.7 						"/>
						<polygon class="st13" points="128.2,113 127.8,110.8 125.9,111.9 126.2,114.2 						"/>
						<polygon class="st13" points="129,117.5 128.6,115.3 126.6,116.4 127,118.6 						"/>
					</g>
					<g>
						<polygon class="st15" points="126.7,79.4 126.3,77.1 124.4,78.3 124.7,80.5 						"/>
						<polygon class="st15" points="127.5,83.9 127.1,81.6 125.1,82.7 125.5,85 						"/>
						<polygon class="st14" points="128.2,88.3 127.8,86.1 125.9,87.2 126.3,89.5 						"/>
						<polygon class="st13" points="129,92.8 128.6,90.6 126.7,91.7 127.1,94 						"/>
						<polygon class="st13" points="129.8,97.3 129.4,95.1 127.4,96.2 127.8,98.4 						"/>
						<polygon class="st13" points="130.5,101.8 130.2,99.6 128.2,100.7 128.6,102.9 						"/>
						<polygon class="st15" points="131.3,106.3 130.9,104 129,105.2 129.4,107.4 						"/>
						<polygon class="st13" points="132.1,110.8 131.7,108.5 129.8,109.7 130.1,111.9 						"/>
						<polygon class="st13" points="132.9,115.3 132.5,113 130.5,114.1 130.9,116.4 						"/>
					</g>
					<g>
						<polygon class="st13" points="130.6,77.1 130.2,74.9 128.3,76 128.6,78.2 						"/>
						<polygon class="st13" points="131.4,81.6 131,79.4 129,80.5 129.4,82.7 						"/>
						<polygon class="st13" points="132.1,86.1 131.7,83.8 129.8,85 130.2,87.2 						"/>
						<polygon class="st13" points="132.9,90.6 132.5,88.3 130.6,89.5 131,91.7 						"/>
						<polygon class="st13" points="133.7,95.1 133.3,92.8 131.3,93.9 131.7,96.2 						"/>
						<polygon class="st13" points="134.4,99.5 134.1,97.3 132.1,98.4 132.5,100.7 						"/>
						<polygon class="st13" points="135.2,104 134.8,101.8 132.9,102.9 133.3,105.2 						"/>
						<polygon class="st13" points="136,108.5 135.6,106.3 133.7,107.4 134,109.6 						"/>
						<polygon class="st13" points="136.8,113 136.4,110.8 134.4,111.9 134.8,114.1 						"/>
					</g>
					<g>
						<polygon class="st13" points="134.5,74.9 134.1,72.6 132.2,73.7 132.5,76 						"/>
						<polygon class="st13" points="135.3,79.3 134.9,77.1 132.9,78.2 133.3,80.5 						"/>
						<polygon class="st15" points="136,83.8 135.6,81.6 133.7,82.7 134.1,85 						"/>
						<polygon class="st13" points="136.8,88.3 136.4,86.1 134.5,87.2 134.9,89.4 						"/>
						<polygon class="st14" points="137.6,92.8 137.2,90.6 135.2,91.7 135.6,93.9 						"/>
						<polygon class="st13" points="138.3,97.3 138,95 136,96.2 136.4,98.4 						"/>
						<polygon class="st13" points="139.1,101.8 138.7,99.5 136.8,100.7 137.2,102.9 						"/>
						<polygon class="st13" points="139.9,106.3 139.5,104 137.6,105.1 137.9,107.4 						"/>
						<polygon class="st13" points="140.7,110.7 140.3,108.5 138.3,109.6 138.7,111.9 						"/>
					</g>
					<g>
						<polygon class="st13" points="138.4,72.6 138,70.4 136.1,71.5 136.4,73.7 						"/>
						<polygon class="st13" points="139.2,77.1 138.8,74.8 136.8,76 137.2,78.2 						"/>
						<polygon class="st15" points="139.9,81.6 139.5,79.3 137.6,80.5 138,82.7 						"/>
						<polygon class="st13" points="140.7,86.1 140.3,83.8 138.4,84.9 138.8,87.2 						"/>
						<polygon class="st13" points="141.5,90.5 141.1,88.3 139.1,89.4 139.5,91.7 						"/>
						<polygon class="st14" points="142.2,95 141.9,92.8 139.9,93.9 140.3,96.2 						"/>
						<polygon class="st15" points="143,99.5 142.6,97.3 140.7,98.4 141.1,100.6 						"/>
						<polygon class="st13" points="143.8,104 143.4,101.8 141.5,102.9 141.8,105.1 						"/>
						<polygon class="st14" points="144.6,108.5 144.2,106.2 142.2,107.4 142.6,109.6 						"/>
					</g>
					<g>
						<polygon class="st13" points="142.3,70.3 141.9,68.1 140,69.2 140.3,71.5 						"/>
						<polygon class="st15" points="143.1,74.8 142.7,72.6 140.7,73.7 141.1,76 						"/>
						<polygon class="st13" points="143.8,79.3 143.4,77.1 141.5,78.2 141.9,80.4 						"/>
						<polygon class="st13" points="144.6,83.8 144.2,81.6 142.3,82.7 142.7,84.9 						"/>
						<polygon class="st13" points="145.4,88.3 145,86 143,87.2 143.4,89.4 						"/>
						<polygon class="st13" points="146.1,92.8 145.8,90.5 143.8,91.7 144.2,93.9 						"/>
						<polygon class="st13" points="146.9,97.3 146.5,95 144.6,96.1 145,98.4 						"/>
						<polygon class="st15" points="147.7,101.7 147.3,99.5 145.4,100.6 145.7,102.9 						"/>
						<polygon class="st13" points="148.5,106.2 148.1,104 146.1,105.1 146.5,107.4 						"/>
					</g>
					<g>
						<polygon class="st13" points="146.2,68.1 145.8,65.8 143.9,67 144.2,69.2 						"/>
						<polygon class="st14" points="147,72.6 146.6,70.3 144.6,71.5 145,73.7 						"/>
						<polygon class="st13" points="147.7,77.1 147.3,74.8 145.4,75.9 145.8,78.2 						"/>
						<polygon class="st13" points="148.5,81.5 148.1,79.3 146.2,80.4 146.6,82.7 						"/>
						<polygon class="st13" points="149.3,86 148.9,83.8 146.9,84.9 147.3,87.2 						"/>
						<polygon class="st13" points="150,90.5 149.7,88.3 147.7,89.4 148.1,91.6 						"/>
						<polygon class="st15" points="150.8,95 150.4,92.8 148.5,93.9 148.9,96.1 						"/>
						<polygon class="st13" points="151.6,99.5 151.2,97.2 149.3,98.4 149.6,100.6 						"/>
						<polygon class="st13" points="152.4,104 152,101.7 150,102.9 150.4,105.1 						"/>
					</g>
				</g>
			</g>
		</g>
		<g>
			<path class="st11" d="M126.6,134.5v35.4c0,2-0.6,3.8-1.7,5.3c-1.6,2.2-4.2,3.6-7.2,3.6H94.6c-4.9,0-8.9-4-8.9-8.9v-35.4
				c0-3.7,2.2-6.8,5.4-8.2c1.1-0.5,2.3-0.7,3.5-0.7h23.1C122.6,125.7,126.6,129.6,126.6,134.5z"/>
			<path class="st63" d="M126.6,134.5v35.4c0,2-0.6,3.8-1.7,5.3c-1.1,0.5-2.3,0.7-3.5,0.7H98.3c-4.9,0-8.9-4-8.9-8.9v-35.4
				c0-2,0.6-3.8,1.7-5.3c1.1-0.5,2.3-0.7,3.5-0.7h23.1C122.6,125.7,126.6,129.6,126.6,134.5z"/>
			<path class="st64" d="M109.6,157.8v4.2c0,0.7-0.6,1.3-1.3,1.3h-4.2c-0.7,0-1.3-0.6-1.3-1.3v-4.2c0-0.7,0.6-1.3,1.3-1.3h4.2
				C109,156.5,109.6,157.1,109.6,157.8z"/>
			<g>
				<path class="st11" d="M98.7,157.8v4.2c0,0.7-0.6,1.3-1.3,1.3h-4.2c-0.7,0-1.3-0.6-1.3-1.3v-4.2c0-0.7,0.6-1.3,1.3-1.3h4.2
					C98.1,156.5,98.7,157.1,98.7,157.8z"/>
				<path class="st11" d="M109.6,146.9v4.2c0,0.7-0.6,1.3-1.3,1.3h-4.2c-0.7,0-1.3-0.6-1.3-1.3v-4.2c0-0.7,0.6-1.3,1.3-1.3h4.2
					C109,145.6,109.6,146.2,109.6,146.9z"/>
			</g>
			<g>
				<path class="st11" d="M98.7,146.9v4.2c0,0.7-0.6,1.3-1.3,1.3h-4.2c-0.7,0-1.3-0.6-1.3-1.3v-4.2c0-0.7,0.6-1.3,1.3-1.3h4.2
					C98.1,145.6,98.7,146.2,98.7,146.9z"/>
				<path class="st11" d="M109.6,168.1v4.2c0,0.7-0.6,1.3-1.3,1.3h-4.2c-0.7,0-1.3-0.6-1.3-1.3v-4.2c0-0.7,0.6-1.3,1.3-1.3h4.2
					C109,166.8,109.6,167.4,109.6,168.1z"/>
				<path class="st11" d="M98.7,168.1v4.2c0,0.7-0.6,1.3-1.3,1.3h-4.2c-0.7,0-1.3-0.6-1.3-1.3v-4.2c0-0.7,0.6-1.3,1.3-1.3h4.2
					C98.1,166.8,98.7,167.4,98.7,168.1z"/>
			</g>
			<g>
				<path class="st11" d="M109.6,157.8v1.2c0,0.7-0.6,1.3-1.3,1.3h-4.2c-0.7,0-1.3-0.6-1.3-1.3v-1.2c0-0.7,0.6-1.3,1.3-1.3h4.2
					C109,156.5,109.6,157.1,109.6,157.8z"/>
				<path class="st11" d="M98.7,157.8v1.2c0,0.7-0.6,1.3-1.3,1.3h-4.2c-0.7,0-1.3-0.6-1.3-1.3v-1.2c0-0.7,0.6-1.3,1.3-1.3h4.2
					C98.1,156.5,98.7,157.1,98.7,157.8z"/>
				<path class="st11" d="M109.6,146.9v1.2c0,0.7-0.6,1.3-1.3,1.3h-4.2c-0.7,0-1.3-0.6-1.3-1.3v-1.2c0-0.7,0.6-1.3,1.3-1.3h4.2
					C109,145.6,109.6,146.2,109.6,146.9z"/>
			</g>
			<g>
				<path class="st11" d="M98.7,146.9v1.2c0,0.7-0.6,1.3-1.3,1.3h-4.2c-0.7,0-1.3-0.6-1.3-1.3v-1.2c0-0.7,0.6-1.3,1.3-1.3h4.2
					C98.1,145.6,98.7,146.2,98.7,146.9z"/>
				<path class="st11" d="M109.6,168.1v1.2c0,0.7-0.6,1.3-1.3,1.3h-4.2c-0.7,0-1.3-0.6-1.3-1.3v-1.2c0-0.7,0.6-1.3,1.3-1.3h4.2
					C109,166.8,109.6,167.4,109.6,168.1z"/>
				<path class="st11" d="M98.7,168.1v1.2c0,0.7-0.6,1.3-1.3,1.3h-4.2c-0.7,0-1.3-0.6-1.3-1.3v-1.2c0-0.7,0.6-1.3,1.3-1.3h4.2
					C98.1,166.8,98.7,167.4,98.7,168.1z"/>
			</g>
			<path class="st65" d="M99.1,139.8h-4.4c-0.9,0-1.7-0.7-1.7-1.7v-4.4c0-0.9,0.7-1.7,1.7-1.7h22.9c0.9,0,1.7,0.7,1.7,1.7v4.4
				c0,0.9-0.7,1.7-1.7,1.7h-13.3c-0.7,0-1.2,0.5-1.2,1.2s0.5,1.2,1.2,1.2h13.3c2.3,0,4.1-1.8,4.1-4.1v-4.4c0-2.2-1.8-4.1-4.1-4.1
				H94.7c-2.3,0-4.1,1.8-4.1,4.1v4.4c0,2.3,1.8,4.1,4.1,4.1h4.4c0.7,0,1.2-0.5,1.2-1.2S99.8,139.8,99.1,139.8z"/>
			<path class="st65" d="M93.2,164.5h4.2c1.4,0,2.5-1.1,2.5-2.5v-4.2c0-1.4-1.1-2.5-2.5-2.5h-4.2c-1.4,0-2.5,1.1-2.5,2.5v4.2
				C90.6,163.3,91.8,164.5,93.2,164.5z M93.1,157.8c0-0.1,0.1-0.1,0.1-0.1h4.2c0.1,0,0.1,0.1,0.1,0.1v4.2c0,0.1-0.1,0.1-0.1,0.1
				h-4.2c-0.1,0-0.1-0.1-0.1-0.1V157.8z"/>
			<path class="st65" d="M119.3,144.4h-4.2c-1.4,0-2.5,1.1-2.5,2.5v4.2c0,1.4,1.1,2.5,2.5,2.5h4.2c1.4,0,2.5-1.1,2.5-2.5v-4.2
				C121.9,145.5,120.7,144.4,119.3,144.4z M119.4,151.1c0,0.1-0.1,0.1-0.1,0.1h-4.2c-0.1,0-0.1-0.1-0.1-0.1c0.1-4.1-0.1-4.3,0.1-4.3
				h4.2c0.1,0,0.1,0.1,0.1,0.1V151.1z"/>
			<path class="st65" d="M93.2,153.6h4.2c1.4,0,2.5-1.1,2.5-2.5v-4.2c0-1.4-1.1-2.5-2.5-2.5h-4.2c-1.4,0-2.5,1.1-2.5,2.5v4.2
				C90.6,152.5,91.8,153.6,93.2,153.6z M93.1,146.9c0-0.1,0.1-0.1,0.1-0.1h4.2c0.1,0,0.1,0.1,0.1,0.1v4.2c0,0.1-0.1,0.1-0.1,0.1
				h-4.2c-0.1,0-0.1-0.1-0.1-0.1V146.9z"/>
			<path class="st65" d="M99.2,166.4c-0.5-0.5-1.1-0.9-1.9-0.9h-4.2c-0.8,0-1.4,0.3-1.9,0.9c-0.9,1-0.6,2.1-0.6,2.6v3.2
				c0,1.4,1.1,2.5,2.5,2.5h4.2c1.4,0,2.5-1.1,2.5-2.5V169C99.8,168.5,100.1,167.4,99.2,166.4z M97.3,172.4c-4.1-0.1-4.3,0.1-4.3-0.1
				c0-4.4,0-4.3,0.1-4.3h4.2c0.2,0,0.1,0.3,0.1,1C97.5,169,97.6,172.4,97.3,172.4z"/>
			<path class="st65" d="M118.7,155.2h-2.9c-1.8,0-3.2,1.4-3.2,3.2v12.9c0,1.9,1.6,3.5,3.5,3.5h2.3c1.9,0,3.5-1.6,3.5-3.5v-12.9
				C121.9,156.7,120.4,155.2,118.7,155.2z M119.4,171.3c0,0.6-0.5,1.1-1.1,1.1H116c-0.6,0-1.1-0.5-1.1-1.1v-12.9
				c0-0.4,0.3-0.8,0.8-0.8h2.9c0.4,0,0.8,0.3,0.8,0.8L119.4,171.3L119.4,171.3z"/>
			<path class="st65" d="M108.3,165.6h-4.2c-0.8,0-1.4,0.3-1.9,0.9c-0.9,1-0.6,2.1-0.6,2.6v3.2c0,1.4,1.1,2.5,2.5,2.5h4.2
				c1.4,0,2.5-1.1,2.5-2.5v-4.2c0-0.7-0.3-1.4-0.8-1.8C109.6,165.8,108.9,165.6,108.3,165.6z M108.3,172.4c-4.1-0.1-4.3,0.1-4.3-0.1
				v-4.2c0-0.1,0.1-0.1,0.1-0.1h4.2c0.1,0,0.1,0.1,0.1,0.1C108.3,172.2,108.5,172.4,108.3,172.4z"/>
			<path class="st65" d="M108.3,144.4h-4.2c-1.4,0-2.5,1.1-2.5,2.5v4.2c0,1.4,1.1,2.5,2.5,2.5h4.2c0.3,0,0.6-0.1,0.9-0.2
				c0.9-0.4,1.6-1.3,1.6-2.4v-4.2C110.8,145.5,109.7,144.4,108.3,144.4z M108.4,151.1c0,0.1-0.1,0.1-0.1,0.1h-4.2
				c-0.1,0-0.1-0.1-0.1-0.1v-4.2c0-0.2,0.2-0.1,4.3-0.1c0.1,0,0.1,0.1,0.1,0.1V151.1L108.4,151.1z"/>
			<path class="st65" d="M109.2,155.4c-0.3-0.1-0.6-0.2-0.9-0.2h-4.2c-1.4,0-2.5,1.1-2.5,2.5v4.2c0,1.4,1.1,2.5,2.5,2.5h4.2
				c1.4,0,2.5-1.1,2.5-2.5v-4.2C110.8,156.7,110.1,155.8,109.2,155.4z M108.4,161.9c0,0.1-0.1,0.1-0.1,0.1h-4.2
				c-0.1,0-0.1-0.1-0.1-0.1v-4.2c0-0.1,0.1-0.1,0.1-0.1h4.2c0.1,0,0.1,0.1,0.1,0.1V161.9z"/>
		</g>
	</g>
</g>
</svg>
