<svg width="97" height="97" viewBox="0 0 97 97" fill="none" xmlns="http://www.w3.org/2000/svg">
<rect width="97" height="97" rx="3" fill="url(#paint0_linear_151_60)"/>
<path d="M6.25556 61.1873C6.26523 61.1873 6.27369 61.1912 6.28094 61.199L6.35075 61.2743C6.29756 61.3359 6.23289 61.384 6.15673 61.4185C6.08118 61.4529 5.9896 61.4701 5.88201 61.4701C5.78893 61.4701 5.70431 61.4541 5.62815 61.4221C5.55199 61.3894 5.48701 61.3441 5.43322 61.2861C5.37942 61.2274 5.33772 61.1573 5.3081 61.0757C5.27848 60.9941 5.26367 60.9044 5.26367 60.8065C5.26367 60.7085 5.27909 60.6188 5.30991 60.5372C5.34074 60.4556 5.38396 60.3855 5.43956 60.3268C5.49578 60.2682 5.56287 60.2229 5.64084 60.1908C5.71881 60.1582 5.80495 60.1419 5.89924 60.1419C5.99172 60.1419 6.07332 60.1567 6.14404 60.1863C6.21476 60.2159 6.27701 60.2561 6.33081 60.3069L6.27278 60.3876C6.26916 60.3936 6.26432 60.3988 6.25828 60.403C6.25284 60.4066 6.24528 60.4084 6.23561 60.4084C6.22473 60.4084 6.21143 60.4027 6.19572 60.3912C6.18 60.3791 6.15945 60.3658 6.13406 60.3513C6.10868 60.3368 6.07694 60.3238 6.03886 60.3123C6.00078 60.3002 5.95394 60.2942 5.89833 60.2942C5.83124 60.2942 5.76989 60.306 5.71428 60.3296C5.65867 60.3525 5.61062 60.3861 5.57012 60.4302C5.53023 60.4743 5.4991 60.5281 5.47674 60.5916C5.45437 60.655 5.44319 60.7267 5.44319 60.8065C5.44319 60.8875 5.45467 60.9597 5.47764 61.0231C5.50122 61.0866 5.53295 61.1404 5.57284 61.1845C5.61334 61.2281 5.66079 61.2613 5.71519 61.2843C5.77019 61.3072 5.82943 61.3187 5.89289 61.3187C5.93158 61.3187 5.96633 61.3166 5.99716 61.3124C6.02859 61.3075 6.0573 61.3003 6.08329 61.2906C6.10989 61.2809 6.13437 61.2689 6.15673 61.2543C6.1797 61.2392 6.20237 61.2214 6.22473 61.2009C6.235 61.1918 6.24528 61.1873 6.25556 61.1873Z" fill="#82A7DB"/>
<path d="M6.93821 60.83C6.98838 60.83 7.0325 60.8234 7.07058 60.8101C7.10927 60.7968 7.14161 60.7784 7.1676 60.7548C7.19419 60.7306 7.21414 60.7019 7.22744 60.6686C7.24073 60.6354 7.24738 60.5988 7.24738 60.5589C7.24738 60.4761 7.22169 60.4115 7.17032 60.3649C7.11954 60.3184 7.04218 60.2951 6.93821 60.2951H6.72968V60.83H6.93821ZM6.93821 60.1564C7.02042 60.1564 7.09174 60.1661 7.15218 60.1854C7.21323 60.2041 7.2637 60.231 7.3036 60.2661C7.34349 60.3011 7.37311 60.3435 7.39245 60.393C7.41239 60.4426 7.42237 60.4979 7.42237 60.5589C7.42237 60.6194 7.41179 60.6747 7.39063 60.7249C7.36948 60.775 7.33835 60.8182 7.29725 60.8545C7.25675 60.8908 7.20628 60.9192 7.14584 60.9397C7.086 60.9597 7.01679 60.9697 6.93821 60.9697H6.72968V61.4556H6.5547V60.1564H6.93821Z" fill="#82A7DB"/>
<path d="M8.14513 61.316C8.19893 61.316 8.24698 61.3069 8.28929 61.2888C8.3316 61.2707 8.36726 61.2453 8.39627 61.2126C8.42589 61.18 8.44826 61.141 8.46337 61.0957C8.47908 61.0503 8.48694 61.0005 8.48694 60.9461V60.1564H8.66193V60.9461C8.66193 61.021 8.64984 61.0905 8.62566 61.1546C8.60209 61.2187 8.56793 61.2743 8.52321 61.3214C8.47908 61.368 8.42499 61.4045 8.36091 61.4311C8.29684 61.4577 8.22492 61.471 8.14513 61.471C8.06534 61.471 7.99342 61.4577 7.92935 61.4311C7.86527 61.4045 7.81088 61.368 7.76615 61.3214C7.72142 61.2743 7.68697 61.2187 7.66279 61.1546C7.63921 61.0905 7.62743 61.021 7.62743 60.9461V60.1564H7.80241V60.9452C7.80241 60.9996 7.80997 61.0494 7.82508 61.0948C7.8408 61.1401 7.86316 61.1791 7.89217 61.2117C7.92179 61.2444 7.95775 61.2701 8.00006 61.2888C8.04298 61.3069 8.09133 61.316 8.14513 61.316Z" fill="#82A7DB"/>
<path d="M9.82464 60.83C9.87481 60.83 9.91894 60.8234 9.95702 60.8101C9.9957 60.7968 10.028 60.7784 10.054 60.7548C10.0806 60.7306 10.1006 60.7019 10.1139 60.6686C10.1272 60.6354 10.1338 60.5988 10.1338 60.5589C10.1338 60.4761 10.1081 60.4115 10.0567 60.3649C10.006 60.3184 9.92861 60.2951 9.82464 60.2951H9.61611V60.83H9.82464ZM9.82464 60.1564C9.90685 60.1564 9.97817 60.1661 10.0386 60.1854C10.0997 60.2041 10.1501 60.231 10.19 60.2661C10.2299 60.3011 10.2595 60.3435 10.2789 60.393C10.2988 60.4426 10.3088 60.4979 10.3088 60.5589C10.3088 60.6194 10.2982 60.6747 10.2771 60.7249C10.2559 60.775 10.2248 60.8182 10.1837 60.8545C10.1432 60.8908 10.0927 60.9192 10.0323 60.9397C9.97243 60.9597 9.90322 60.9697 9.82464 60.9697H9.61611V61.4556H9.44113V60.1564H9.82464Z" fill="#82A7DB"/>
<path d="M10.6276 60.7212C10.6566 60.6584 10.6923 60.6094 10.7346 60.5744C10.7769 60.5387 10.8286 60.5209 10.8896 60.5209C10.909 60.5209 10.9274 60.523 10.9449 60.5272C10.9631 60.5314 10.9791 60.5381 10.993 60.5472L10.9812 60.6677C10.9776 60.6828 10.9685 60.6904 10.954 60.6904C10.9456 60.6904 10.9332 60.6886 10.9168 60.685C10.9005 60.6813 10.8821 60.6795 10.8615 60.6795C10.8325 60.6795 10.8065 60.6838 10.7836 60.6922C10.7612 60.7007 10.7409 60.7134 10.7228 60.7303C10.7053 60.7466 10.6893 60.7672 10.6748 60.792C10.6609 60.8161 10.6482 60.8439 10.6367 60.8754V61.4556H10.4744V60.5372H10.5669C10.5844 60.5372 10.5965 60.5405 10.6031 60.5472C10.6098 60.5538 10.6143 60.5653 10.6167 60.5816L10.6276 60.7212Z" fill="#82A7DB"/>
<path d="M11.4849 60.5227C11.552 60.5227 11.6124 60.5339 11.6662 60.5562C11.72 60.5786 11.7659 60.6103 11.804 60.6514C11.8421 60.6925 11.8711 60.7424 11.891 60.801C11.9116 60.859 11.9219 60.924 11.9219 60.9959C11.9219 61.0685 11.9116 61.1338 11.891 61.1918C11.8711 61.2498 11.8421 61.2994 11.804 61.3405C11.7659 61.3816 11.72 61.4133 11.6662 61.4357C11.6124 61.4574 11.552 61.4683 11.4849 61.4683C11.4172 61.4683 11.3561 61.4574 11.3017 61.4357C11.2479 61.4133 11.202 61.3816 11.1639 61.3405C11.1258 61.2994 11.0965 61.2498 11.076 61.1918C11.056 61.1338 11.046 61.0685 11.046 60.9959C11.046 60.924 11.056 60.859 11.076 60.801C11.0965 60.7424 11.1258 60.6925 11.1639 60.6514C11.202 60.6103 11.2479 60.5786 11.3017 60.5562C11.3561 60.5339 11.4172 60.5227 11.4849 60.5227ZM11.4849 61.3423C11.5755 61.3423 11.6432 61.3121 11.688 61.2516C11.7327 61.1906 11.755 61.1057 11.755 60.9969C11.755 60.8875 11.7327 60.8022 11.688 60.7412C11.6432 60.6801 11.5755 60.6496 11.4849 60.6496C11.4389 60.6496 11.3987 60.6575 11.3643 60.6732C11.3304 60.6889 11.302 60.7116 11.2791 60.7412C11.2567 60.7708 11.2398 60.8074 11.2283 60.8509C11.2174 60.8938 11.212 60.9425 11.212 60.9969C11.212 61.1057 11.2343 61.1906 11.2791 61.2516C11.3244 61.3121 11.393 61.3423 11.4849 61.3423Z" fill="#82A7DB"/>
<path d="M12.1687 61.4556V60.675L12.0672 60.6632C12.0539 60.6602 12.0433 60.6556 12.0355 60.6496C12.0276 60.643 12.0237 60.6336 12.0237 60.6215V60.5553H12.1687V60.5045C12.1687 60.4483 12.1775 60.3969 12.195 60.3504C12.2126 60.3033 12.2389 60.2628 12.2739 60.2289C12.309 60.1951 12.3525 60.1688 12.4045 60.15C12.4571 60.1313 12.5178 60.1219 12.5867 60.1219C12.6097 60.1219 12.6332 60.1234 12.6574 60.1265C12.6816 60.1295 12.7025 60.134 12.72 60.1401L12.7136 60.2244C12.713 60.2304 12.7106 60.2347 12.7064 60.2371C12.7028 60.2395 12.6976 60.241 12.691 60.2416C12.6843 60.2422 12.6759 60.2425 12.6656 60.2425C12.6559 60.2419 12.6447 60.2416 12.632 60.2416C12.5244 60.2416 12.4465 60.264 12.3981 60.3087C12.3498 60.3528 12.3256 60.4196 12.3256 60.5091V60.5553H12.8805V61.4556H12.7182V60.6723H12.3301V61.4556H12.1687Z" fill="#82A7DB"/>
<path d="M13.3116 60.1201V61.4556H13.1502V60.1201H13.3116Z" fill="#82A7DB"/>
<path d="M13.7438 60.5372V61.4556H13.5824V60.5372H13.7438ZM13.7782 60.2489C13.7782 60.2646 13.7749 60.2794 13.7683 60.2933C13.7622 60.3066 13.7537 60.3187 13.7429 60.3296C13.7326 60.3398 13.7202 60.348 13.7057 60.354C13.6918 60.3601 13.677 60.3631 13.6613 60.3631C13.6455 60.3631 13.6307 60.3601 13.6168 60.354C13.6035 60.348 13.5918 60.3398 13.5815 60.3296C13.5712 60.3187 13.563 60.3066 13.557 60.2933C13.551 60.2794 13.5479 60.2646 13.5479 60.2489C13.5479 60.2331 13.551 60.2183 13.557 60.2044C13.563 60.1899 13.5712 60.1775 13.5815 60.1673C13.5918 60.1564 13.6035 60.1479 13.6168 60.1419C13.6307 60.1358 13.6455 60.1328 13.6613 60.1328C13.677 60.1328 13.6918 60.1358 13.7057 60.1419C13.7202 60.1479 13.7326 60.1564 13.7429 60.1673C13.7537 60.1775 13.7622 60.1899 13.7683 60.2044C13.7749 60.2183 13.7782 60.2331 13.7782 60.2489Z" fill="#82A7DB"/>
<path d="M14.1613 60.6705C14.1812 60.6481 14.2024 60.6278 14.2247 60.6097C14.2471 60.5916 14.2707 60.5762 14.2954 60.5635C14.3208 60.5502 14.3474 60.5402 14.3752 60.5336C14.4036 60.5263 14.4342 60.5227 14.4668 60.5227C14.517 60.5227 14.5611 60.5311 14.5992 60.5481C14.6379 60.5644 14.6699 60.588 14.6953 60.6188C14.7213 60.649 14.7409 60.6856 14.7542 60.7285C14.7675 60.7714 14.7742 60.8188 14.7742 60.8708V61.4556H14.6119V60.8708C14.6119 60.8013 14.5959 60.7475 14.5638 60.7094C14.5324 60.6708 14.4843 60.6514 14.4197 60.6514C14.3719 60.6514 14.3272 60.6629 14.2855 60.6859C14.2444 60.7088 14.2063 60.74 14.1712 60.7793V61.4556H14.0089V60.5372H14.106C14.1289 60.5372 14.1431 60.5484 14.1486 60.5707L14.1613 60.6705Z" fill="#82A7DB"/>
<path d="M15.3401 61.0068C15.3728 61.0068 15.4015 61.0023 15.4263 60.9932C15.451 60.9842 15.4719 60.9715 15.4888 60.9551C15.5057 60.9388 15.5184 60.9195 15.5269 60.8971C15.5354 60.8742 15.5396 60.8491 15.5396 60.8219C15.5396 60.7657 15.5224 60.7209 15.4879 60.6877C15.4541 60.6544 15.4048 60.6378 15.3401 60.6378C15.2748 60.6378 15.225 60.6544 15.1905 60.6877C15.1567 60.7209 15.1398 60.7657 15.1398 60.8219C15.1398 60.8491 15.144 60.8742 15.1524 60.8971C15.1615 60.9195 15.1745 60.9388 15.1914 60.9551C15.2084 60.9715 15.2292 60.9842 15.254 60.9932C15.2788 61.0023 15.3075 61.0068 15.3401 61.0068ZM15.6312 61.5055C15.6312 61.4831 15.6248 61.465 15.6121 61.4511C15.5994 61.4372 15.5822 61.4263 15.5604 61.4185C15.5393 61.4106 15.5145 61.4052 15.4861 61.4021C15.4577 61.3985 15.4275 61.3958 15.3954 61.394C15.364 61.3922 15.332 61.3903 15.2993 61.3885C15.2667 61.3867 15.2353 61.3837 15.205 61.3795C15.1712 61.3952 15.1434 61.4151 15.1216 61.4393C15.1005 61.4629 15.0899 61.4907 15.0899 61.5227C15.0899 61.5433 15.095 61.5623 15.1053 61.5798C15.1162 61.598 15.1325 61.6134 15.1543 61.6261C15.176 61.6394 15.2032 61.6496 15.2359 61.6569C15.2691 61.6648 15.3081 61.6687 15.3528 61.6687C15.3963 61.6687 15.4353 61.6648 15.4698 61.6569C15.5042 61.649 15.5332 61.6379 15.5568 61.6234C15.581 61.6088 15.5994 61.5916 15.6121 61.5717C15.6248 61.5517 15.6312 61.5297 15.6312 61.5055ZM15.7953 60.5734V60.6333C15.7953 60.6532 15.7826 60.6659 15.7572 60.6714L15.6529 60.685C15.6735 60.7249 15.6838 60.769 15.6838 60.8173C15.6838 60.8621 15.675 60.9029 15.6575 60.9397C15.6405 60.976 15.617 61.0071 15.5867 61.0331C15.5565 61.0591 15.5202 61.0791 15.4779 61.093C15.4356 61.1069 15.3897 61.1138 15.3401 61.1138C15.2972 61.1138 15.2567 61.1087 15.2186 61.0984C15.1993 61.1105 15.1845 61.1235 15.1742 61.1374C15.1639 61.1507 15.1588 61.1643 15.1588 61.1782C15.1588 61.1999 15.1676 61.2166 15.1851 61.2281C15.2032 61.2389 15.2268 61.2468 15.2558 61.2516C15.2848 61.2565 15.3178 61.2595 15.3546 61.2607C15.3921 61.2619 15.4302 61.264 15.4689 61.267C15.5082 61.2695 15.5462 61.274 15.5831 61.2806C15.6206 61.2873 15.6538 61.2982 15.6828 61.3133C15.7119 61.3284 15.7351 61.3492 15.7527 61.3758C15.7708 61.4024 15.7799 61.4369 15.7799 61.4792C15.7799 61.5185 15.7699 61.5566 15.7499 61.5934C15.7306 61.6303 15.7025 61.6629 15.6656 61.6914C15.6287 61.7204 15.5834 61.7433 15.5296 61.7603C15.4764 61.7778 15.4163 61.7866 15.3492 61.7866C15.2821 61.7866 15.2235 61.7799 15.1733 61.7666C15.1231 61.7533 15.0814 61.7355 15.0482 61.7131C15.0149 61.6908 14.9899 61.6648 14.9729 61.6351C14.9566 61.6061 14.9485 61.5756 14.9485 61.5436C14.9485 61.4982 14.9627 61.4599 14.9911 61.4284C15.0195 61.397 15.0585 61.3719 15.108 61.3532C15.0808 61.3411 15.0591 61.3251 15.0427 61.3051C15.027 61.2846 15.0192 61.2571 15.0192 61.2226C15.0192 61.2093 15.0216 61.1957 15.0264 61.1818C15.0313 61.1673 15.0385 61.1531 15.0482 61.1392C15.0585 61.1247 15.0708 61.1111 15.0854 61.0984C15.0999 61.0857 15.1168 61.0745 15.1361 61.0649C15.0908 61.0395 15.0554 61.0059 15.03 60.9642C15.0047 60.9219 14.992 60.8729 14.992 60.8173C14.992 60.7726 15.0004 60.7321 15.0174 60.6958C15.0349 60.659 15.0591 60.6278 15.0899 60.6025C15.1207 60.5765 15.1573 60.5565 15.1996 60.5426C15.2425 60.5287 15.2894 60.5218 15.3401 60.5218C15.38 60.5218 15.4172 60.5263 15.4516 60.5354C15.4861 60.5438 15.5175 60.5565 15.5459 60.5734H15.7953Z" fill="#82A7DB"/>
<path d="M80.8606 59.068V60.3672H80.7065V59.4125C80.7065 59.3998 80.7068 59.3862 80.7074 59.3717C80.7086 59.3572 80.7098 59.3424 80.711 59.3273L80.2649 60.1397C80.251 60.1669 80.2299 60.1805 80.2015 60.1805H80.1761C80.1477 60.1805 80.1265 60.1669 80.1126 60.1397L79.6575 59.3237C79.6611 59.3557 79.6629 59.3853 79.6629 59.4125V60.3672H79.5088V59.068H79.6384C79.6542 59.068 79.6662 59.0695 79.6747 59.0725C79.6832 59.0756 79.6913 59.084 79.6992 59.0979L80.148 59.8976C80.1552 59.9121 80.1622 59.9272 80.1688 59.9429C80.1761 59.9586 80.1827 59.9747 80.1888 59.991C80.1948 59.9747 80.2012 59.9586 80.2078 59.9429C80.2145 59.9266 80.2217 59.9112 80.2296 59.8967L80.6702 59.0979C80.6775 59.084 80.6853 59.0756 80.6938 59.0725C80.7029 59.0695 80.7152 59.068 80.731 59.068H80.8606Z" fill="#82A7DB"/>
<path d="M81.7411 59.8078C81.7411 59.7704 81.7357 59.7362 81.7248 59.7054C81.7145 59.674 81.6991 59.6471 81.6786 59.6247C81.6586 59.6017 81.6342 59.5842 81.6051 59.5721C81.5761 59.5594 81.5432 59.5531 81.5063 59.5531C81.4289 59.5531 81.3676 59.5757 81.3223 59.6211C81.2775 59.6658 81.2497 59.7281 81.2388 59.8078H81.7411ZM81.8717 60.2385C81.8517 60.2627 81.8279 60.2838 81.8001 60.302C81.7723 60.3195 81.7423 60.334 81.7103 60.3455C81.6789 60.357 81.6462 60.3654 81.6124 60.3709C81.5785 60.3769 81.545 60.3799 81.5118 60.3799C81.4483 60.3799 81.3897 60.3694 81.3359 60.3482C81.2827 60.3264 81.2364 60.295 81.1971 60.2539C81.1585 60.2122 81.1282 60.1608 81.1065 60.0998C81.0847 60.0387 81.0738 59.9686 81.0738 59.8894C81.0738 59.8254 81.0835 59.7655 81.1028 59.7099C81.1228 59.6543 81.1512 59.6063 81.1881 59.5658C81.2249 59.5247 81.27 59.4926 81.3232 59.4697C81.3764 59.4461 81.4362 59.4343 81.5027 59.4343C81.5577 59.4343 81.6085 59.4437 81.655 59.4624C81.7022 59.4805 81.7426 59.5071 81.7765 59.5422C81.8109 59.5766 81.8378 59.6196 81.8572 59.6709C81.8765 59.7217 81.8862 59.7797 81.8862 59.845C81.8862 59.8704 81.8835 59.8873 81.878 59.8958C81.8726 59.9042 81.8623 59.9085 81.8472 59.9085H81.2334C81.2352 59.9665 81.2431 60.017 81.257 60.0599C81.2715 60.1028 81.2914 60.1388 81.3168 60.1678C81.3422 60.1962 81.3724 60.2176 81.4075 60.2322C81.4425 60.2461 81.4818 60.253 81.5254 60.253C81.5658 60.253 81.6006 60.2485 81.6296 60.2394C81.6592 60.2297 81.6846 60.2195 81.7058 60.2086C81.7269 60.1977 81.7445 60.1877 81.7584 60.1787C81.7729 60.169 81.7853 60.1642 81.7955 60.1642C81.8088 60.1642 81.8191 60.1693 81.8264 60.1796L81.8717 60.2385Z" fill="#82A7DB"/>
<path d="M82.0844 60.3672V59.4488H82.1814C82.2044 59.4488 82.2186 59.46 82.2241 59.4823L82.2358 59.5766C82.2697 59.5349 82.3078 59.5008 82.3501 59.4742C82.3924 59.4476 82.4414 59.4343 82.497 59.4343C82.5586 59.4343 82.6085 59.4515 82.6466 59.486C82.6852 59.5204 82.7131 59.567 82.73 59.6256C82.7433 59.5924 82.7602 59.5636 82.7807 59.5395C82.8019 59.5153 82.8255 59.4953 82.8515 59.4796C82.8775 59.4639 82.905 59.4524 82.934 59.4452C82.9636 59.4379 82.9935 59.4343 83.0237 59.4343C83.0721 59.4343 83.115 59.4422 83.1525 59.4579C83.1906 59.473 83.2226 59.4953 83.2486 59.525C83.2752 59.5546 83.2954 59.5911 83.3093 59.6347C83.3232 59.6776 83.3302 59.7268 83.3302 59.7825V60.3672H83.1679V59.7825C83.1679 59.7105 83.1522 59.6561 83.1207 59.6193C83.0893 59.5818 83.044 59.563 82.9847 59.563C82.9582 59.563 82.9328 59.5679 82.9086 59.5775C82.885 59.5866 82.8642 59.6002 82.846 59.6183C82.8279 59.6365 82.8134 59.6594 82.8025 59.6873C82.7922 59.7145 82.7871 59.7462 82.7871 59.7825V60.3672H82.6248V59.7825C82.6248 59.7087 82.61 59.6537 82.5804 59.6174C82.5508 59.5812 82.5075 59.563 82.4507 59.563C82.4108 59.563 82.374 59.5739 82.3401 59.5957C82.3063 59.6168 82.2751 59.6458 82.2467 59.6827V60.3672H82.0844Z" fill="#82A7DB"/>
<path d="M83.9626 59.4343C84.0297 59.4343 84.0901 59.4455 84.1439 59.4678C84.1977 59.4902 84.2437 59.5219 84.2817 59.563C84.3198 59.6041 84.3488 59.654 84.3688 59.7126C84.3893 59.7707 84.3996 59.8356 84.3996 59.9076C84.3996 59.9801 84.3893 60.0454 84.3688 60.1034C84.3488 60.1614 84.3198 60.211 84.2817 60.2521C84.2437 60.2932 84.1977 60.3249 84.1439 60.3473C84.0901 60.3691 84.0297 60.3799 83.9626 60.3799C83.8949 60.3799 83.8339 60.3691 83.7795 60.3473C83.7257 60.3249 83.6797 60.2932 83.6416 60.2521C83.6036 60.211 83.5743 60.1614 83.5537 60.1034C83.5338 60.0454 83.5238 59.9801 83.5238 59.9076C83.5238 59.8356 83.5338 59.7707 83.5537 59.7126C83.5743 59.654 83.6036 59.6041 83.6416 59.563C83.6797 59.5219 83.7257 59.4902 83.7795 59.4678C83.8339 59.4455 83.8949 59.4343 83.9626 59.4343ZM83.9626 60.2539C84.0533 60.2539 84.121 60.2237 84.1657 60.1632C84.2104 60.1022 84.2328 60.0173 84.2328 59.9085C84.2328 59.7991 84.2104 59.7138 84.1657 59.6528C84.121 59.5918 84.0533 59.5612 83.9626 59.5612C83.9167 59.5612 83.8765 59.5691 83.842 59.5848C83.8082 59.6005 83.7798 59.6232 83.7568 59.6528C83.7344 59.6824 83.7175 59.719 83.706 59.7625C83.6951 59.8054 83.6897 59.8541 83.6897 59.9085C83.6897 60.0173 83.7121 60.1022 83.7568 60.1632C83.8021 60.2237 83.8707 60.2539 83.9626 60.2539Z" fill="#82A7DB"/>
<path d="M84.7575 59.6329C84.7865 59.57 84.8222 59.521 84.8645 59.486C84.9068 59.4503 84.9585 59.4325 85.0196 59.4325C85.0389 59.4325 85.0573 59.4346 85.0749 59.4388C85.093 59.4431 85.109 59.4497 85.1229 59.4588L85.1111 59.5794C85.1075 59.5945 85.0984 59.602 85.0839 59.602C85.0755 59.602 85.0631 59.6002 85.0468 59.5966C85.0304 59.593 85.012 59.5911 84.9914 59.5911C84.9624 59.5911 84.9364 59.5954 84.9135 59.6038C84.8911 59.6123 84.8709 59.625 84.8527 59.6419C84.8352 59.6582 84.8192 59.6788 84.8047 59.7036C84.7908 59.7277 84.7781 59.7556 84.7666 59.787V60.3672H84.6043V59.4488H84.6968C84.7143 59.4488 84.7264 59.4521 84.7331 59.4588C84.7397 59.4654 84.7442 59.4769 84.7467 59.4932L84.7575 59.6329Z" fill="#82A7DB"/>
<path d="M86.0572 59.4488L85.545 60.6383C85.5395 60.6504 85.5326 60.6601 85.5241 60.6673C85.5163 60.6746 85.5039 60.6782 85.487 60.6782H85.3673L85.535 60.3138L85.156 59.4488H85.2956C85.3095 59.4488 85.3204 59.4524 85.3283 59.4597C85.3367 59.4663 85.3425 59.4739 85.3455 59.4823L85.5912 60.0608C85.6009 60.0862 85.609 60.1128 85.6157 60.1406C85.6242 60.1122 85.6332 60.0853 85.6429 60.0599L85.8813 59.4823C85.885 59.4727 85.891 59.4648 85.8995 59.4588C85.9085 59.4521 85.9185 59.4488 85.9294 59.4488H86.0572Z" fill="#82A7DB"/>
<path d="M87.0411 59.7417C87.0913 59.7417 87.1354 59.735 87.1735 59.7217C87.2121 59.7084 87.2445 59.69 87.2705 59.6664C87.2971 59.6422 87.317 59.6135 87.3303 59.5803C87.3436 59.547 87.3503 59.5105 87.3503 59.4706C87.3503 59.3878 87.3246 59.3231 87.2732 59.2765C87.2224 59.23 87.1451 59.2067 87.0411 59.2067H86.8326V59.7417H87.0411ZM87.0411 59.068C87.1233 59.068 87.1946 59.0777 87.2551 59.097C87.3161 59.1158 87.3666 59.1427 87.4065 59.1777C87.4464 59.2128 87.476 59.2551 87.4953 59.3046C87.5153 59.3542 87.5252 59.4095 87.5252 59.4706C87.5252 59.531 87.5147 59.5863 87.4935 59.6365C87.4724 59.6866 87.4412 59.7299 87.4001 59.7661C87.3596 59.8024 87.3092 59.8308 87.2487 59.8514C87.1889 59.8713 87.1197 59.8813 87.0411 59.8813H86.8326V60.3672H86.6576V59.068H87.0411Z" fill="#82A7DB"/>
<path d="M87.8441 59.6329C87.8731 59.57 87.9087 59.521 87.951 59.486C87.9934 59.4503 88.045 59.4325 88.1061 59.4325C88.1254 59.4325 88.1439 59.4346 88.1614 59.4388C88.1795 59.4431 88.1955 59.4497 88.2094 59.4588L88.1977 59.5794C88.194 59.5945 88.185 59.602 88.1705 59.602C88.162 59.602 88.1496 59.6002 88.1333 59.5966C88.117 59.593 88.0985 59.5911 88.078 59.5911C88.049 59.5911 88.023 59.5954 88 59.6038C87.9776 59.6123 87.9574 59.625 87.9393 59.6419C87.9217 59.6582 87.9057 59.6788 87.8912 59.7036C87.8773 59.7277 87.8646 59.7556 87.8531 59.787V60.3672H87.6908V59.4488H87.7833C87.8008 59.4488 87.8129 59.4521 87.8196 59.4588C87.8262 59.4654 87.8308 59.4769 87.8332 59.4932L87.8441 59.6329Z" fill="#82A7DB"/>
<path d="M88.7013 59.4343C88.7684 59.4343 88.8288 59.4455 88.8826 59.4678C88.9364 59.4902 88.9824 59.5219 89.0205 59.563C89.0585 59.6041 89.0875 59.654 89.1075 59.7126C89.128 59.7707 89.1383 59.8356 89.1383 59.9076C89.1383 59.9801 89.128 60.0454 89.1075 60.1034C89.0875 60.1614 89.0585 60.211 89.0205 60.2521C88.9824 60.2932 88.9364 60.3249 88.8826 60.3473C88.8288 60.3691 88.7684 60.3799 88.7013 60.3799C88.6336 60.3799 88.5726 60.3691 88.5182 60.3473C88.4644 60.3249 88.4184 60.2932 88.3804 60.2521C88.3423 60.211 88.313 60.1614 88.2924 60.1034C88.2725 60.0454 88.2625 59.9801 88.2625 59.9076C88.2625 59.8356 88.2725 59.7707 88.2924 59.7126C88.313 59.654 88.3423 59.6041 88.3804 59.563C88.4184 59.5219 88.4644 59.4902 88.5182 59.4678C88.5726 59.4455 88.6336 59.4343 88.7013 59.4343ZM88.7013 60.2539C88.792 60.2539 88.8597 60.2237 88.9044 60.1632C88.9491 60.1022 88.9715 60.0173 88.9715 59.9085C88.9715 59.7991 88.9491 59.7138 88.9044 59.6528C88.8597 59.5918 88.792 59.5612 88.7013 59.5612C88.6554 59.5612 88.6152 59.5691 88.5807 59.5848C88.5469 59.6005 88.5185 59.6232 88.4955 59.6528C88.4731 59.6824 88.4562 59.719 88.4447 59.7625C88.4338 59.8054 88.4284 59.8541 88.4284 59.9085C88.4284 60.0173 88.4508 60.1022 88.4955 60.1632C88.5408 60.2237 88.6094 60.2539 88.7013 60.2539Z" fill="#82A7DB"/>
<path d="M89.3852 60.3672V59.5866L89.2836 59.5748C89.2703 59.5718 89.2598 59.5673 89.2519 59.5612C89.244 59.5546 89.2401 59.5452 89.2401 59.5331V59.4669H89.3852V59.4162C89.3852 59.3599 89.3939 59.3086 89.4115 59.262C89.429 59.2149 89.4553 59.1744 89.4904 59.1405C89.5254 59.1067 89.5689 59.0804 89.6209 59.0617C89.6735 59.0429 89.7342 59.0336 89.8032 59.0336C89.8261 59.0336 89.8497 59.0351 89.8739 59.0381C89.8981 59.0411 89.9189 59.0456 89.9364 59.0517L89.9301 59.136C89.9295 59.142 89.9271 59.1463 89.9228 59.1487C89.9192 59.1511 89.9141 59.1526 89.9074 59.1532C89.9008 59.1538 89.8923 59.1541 89.882 59.1541C89.8724 59.1535 89.8612 59.1532 89.8485 59.1532C89.7409 59.1532 89.6629 59.1756 89.6146 59.2203C89.5662 59.2644 89.542 59.3312 89.542 59.4207V59.4669H90.0969V60.3672H89.9346V59.5839H89.5466V60.3672H89.3852Z" fill="#82A7DB"/>
<path d="M90.5281 59.0317V60.3672H90.3667V59.0317H90.5281Z" fill="#82A7DB"/>
<path d="M90.9602 59.4488V60.3672H90.7988V59.4488H90.9602ZM90.9947 59.1605C90.9947 59.1762 90.9913 59.191 90.9847 59.2049C90.9787 59.2182 90.9702 59.2303 90.9593 59.2412C90.949 59.2515 90.9366 59.2596 90.9221 59.2657C90.9082 59.2717 90.8934 59.2747 90.8777 59.2747C90.862 59.2747 90.8472 59.2717 90.8333 59.2657C90.82 59.2596 90.8082 59.2515 90.7979 59.2412C90.7877 59.2303 90.7795 59.2182 90.7734 59.2049C90.7674 59.191 90.7644 59.1762 90.7644 59.1605C90.7644 59.1448 90.7674 59.13 90.7734 59.1161C90.7795 59.1016 90.7877 59.0892 90.7979 59.0789C90.8082 59.068 90.82 59.0595 90.8333 59.0535C90.8472 59.0475 90.862 59.0444 90.8777 59.0444C90.8934 59.0444 90.9082 59.0475 90.9221 59.0535C90.9366 59.0595 90.949 59.068 90.9593 59.0789C90.9702 59.0892 90.9787 59.1016 90.9847 59.1161C90.9913 59.13 90.9947 59.1448 90.9947 59.1605Z" fill="#82A7DB"/>
<path d="M91.3777 59.5821C91.3977 59.5597 91.4188 59.5395 91.4412 59.5213C91.4635 59.5032 91.4871 59.4878 91.5119 59.4751C91.5373 59.4618 91.5639 59.4518 91.5917 59.4452C91.6201 59.4379 91.6506 59.4343 91.6833 59.4343C91.7334 59.4343 91.7775 59.4428 91.8156 59.4597C91.8543 59.476 91.8863 59.4996 91.9117 59.5304C91.9377 59.5606 91.9574 59.5972 91.9707 59.6401C91.984 59.683 91.9906 59.7305 91.9906 59.7825V60.3672H91.8283V59.7825C91.8283 59.7129 91.8123 59.6591 91.7803 59.6211C91.7488 59.5824 91.7008 59.563 91.6361 59.563C91.5884 59.563 91.5436 59.5745 91.5019 59.5975C91.4608 59.6205 91.4227 59.6516 91.3877 59.6909V60.3672H91.2254V59.4488H91.3224C91.3454 59.4488 91.3596 59.46 91.365 59.4823L91.3777 59.5821Z" fill="#82A7DB"/>
<path d="M92.5566 59.9184C92.5892 59.9184 92.6179 59.9139 92.6427 59.9048C92.6675 59.8958 92.6883 59.8831 92.7053 59.8668C92.7222 59.8505 92.7349 59.8311 92.7433 59.8087C92.7518 59.7858 92.756 59.7607 92.756 59.7335C92.756 59.6773 92.7388 59.6326 92.7044 59.5993C92.6705 59.5661 92.6212 59.5494 92.5566 59.5494C92.4913 59.5494 92.4414 59.5661 92.407 59.5993C92.3731 59.6326 92.3562 59.6773 92.3562 59.7335C92.3562 59.7607 92.3604 59.7858 92.3689 59.8087C92.378 59.8311 92.391 59.8505 92.4079 59.8668C92.4248 59.8831 92.4457 59.8958 92.4704 59.9048C92.4952 59.9139 92.5239 59.9184 92.5566 59.9184ZM92.8476 60.4171C92.8476 60.3947 92.8413 60.3766 92.8286 60.3627C92.8159 60.3488 92.7987 60.3379 92.7769 60.3301C92.7557 60.3222 92.731 60.3168 92.7025 60.3138C92.6741 60.3101 92.6439 60.3074 92.6119 60.3056C92.5804 60.3038 92.5484 60.302 92.5158 60.3002C92.4831 60.2983 92.4517 60.2953 92.4215 60.2911C92.3876 60.3068 92.3598 60.3267 92.3381 60.3509C92.3169 60.3745 92.3063 60.4023 92.3063 60.4343C92.3063 60.4549 92.3115 60.4739 92.3218 60.4915C92.3326 60.5096 92.3489 60.525 92.3707 60.5377C92.3925 60.551 92.4197 60.5613 92.4523 60.5685C92.4856 60.5764 92.5245 60.5803 92.5693 60.5803C92.6128 60.5803 92.6518 60.5764 92.6862 60.5685C92.7207 60.5607 92.7497 60.5495 92.7733 60.535C92.7974 60.5205 92.8159 60.5032 92.8286 60.4833C92.8413 60.4634 92.8476 60.4413 92.8476 60.4171ZM93.0117 59.4851V59.5449C93.0117 59.5649 92.999 59.5775 92.9736 59.583L92.8694 59.5966C92.8899 59.6365 92.9002 59.6806 92.9002 59.729C92.9002 59.7737 92.8914 59.8145 92.8739 59.8514C92.857 59.8876 92.8334 59.9188 92.8032 59.9447C92.773 59.9707 92.7367 59.9907 92.6944 60.0046C92.6521 60.0185 92.6061 60.0254 92.5566 60.0254C92.5137 60.0254 92.4732 60.0203 92.4351 60.01C92.4157 60.0221 92.4009 60.0351 92.3907 60.049C92.3804 60.0623 92.3752 60.0759 92.3752 60.0898C92.3752 60.1116 92.384 60.1282 92.4015 60.1397C92.4197 60.1506 92.4432 60.1584 92.4723 60.1632C92.5013 60.1681 92.5342 60.1711 92.5711 60.1723C92.6086 60.1735 92.6466 60.1756 92.6853 60.1787C92.7246 60.1811 92.7627 60.1856 92.7996 60.1923C92.837 60.1989 92.8703 60.2098 92.8993 60.2249C92.9283 60.24 92.9516 60.2609 92.9691 60.2875C92.9872 60.3141 92.9963 60.3485 92.9963 60.3908C92.9963 60.4301 92.9863 60.4682 92.9664 60.5051C92.947 60.5419 92.9189 60.5746 92.8821 60.603C92.8452 60.632 92.7999 60.655 92.7461 60.6719C92.6929 60.6894 92.6327 60.6982 92.5656 60.6982C92.4985 60.6982 92.4399 60.6915 92.3897 60.6782C92.3396 60.6649 92.2979 60.6471 92.2646 60.6247C92.2314 60.6024 92.2063 60.5764 92.1894 60.5468C92.1731 60.5178 92.1649 60.4872 92.1649 60.4552C92.1649 60.4099 92.1791 60.3715 92.2075 60.34C92.2359 60.3086 92.2749 60.2835 92.3245 60.2648C92.2973 60.2527 92.2755 60.2367 92.2592 60.2167C92.2435 60.1962 92.2356 60.1687 92.2356 60.1342C92.2356 60.1209 92.238 60.1073 92.2429 60.0934C92.2477 60.0789 92.255 60.0647 92.2646 60.0508C92.2749 60.0363 92.2873 60.0227 92.3018 60.01C92.3163 59.9973 92.3332 59.9861 92.3526 59.9765C92.3072 59.9511 92.2719 59.9175 92.2465 59.8758C92.2211 59.8335 92.2084 59.7846 92.2084 59.729C92.2084 59.6842 92.2169 59.6437 92.2338 59.6075C92.2513 59.5706 92.2755 59.5395 92.3063 59.5141C92.3372 59.4881 92.3737 59.4681 92.416 59.4542C92.459 59.4403 92.5058 59.4334 92.5566 59.4334C92.5965 59.4334 92.6336 59.4379 92.6681 59.447C92.7025 59.4554 92.734 59.4681 92.7624 59.4851H93.0117Z" fill="#82A7DB"/>
<path fill-rule="evenodd" clip-rule="evenodd" d="M7.07459 47.4517C6.60573 47.4517 6.22564 47.8318 6.22564 48.3007V55.0264C6.22564 55.4953 6.60573 55.8753 7.07459 55.8753H13.8003C14.2692 55.8753 14.6493 55.4953 14.6493 55.0264V48.3007C14.6493 47.8318 14.2692 47.4517 13.8003 47.4517H7.07459ZM5.68164 48.3007C5.68164 47.5314 6.30529 46.9077 7.07459 46.9077H13.8003C14.5696 46.9077 15.1933 47.5314 15.1933 48.3007V55.0264C15.1933 55.7957 14.5696 56.4193 13.8003 56.4193H7.07459C6.30529 56.4193 5.68164 55.7957 5.68164 55.0264V48.3007Z" fill="#1AB3FF"/>
<path fill-rule="evenodd" clip-rule="evenodd" d="M8.4834 49.982C8.4834 49.8317 8.60518 49.71 8.7554 49.71H12.1183C12.2685 49.71 12.3903 49.8317 12.3903 49.982V53.3448C12.3903 53.495 12.2685 53.6168 12.1183 53.6168H8.7554C8.60518 53.6168 8.4834 53.495 8.4834 53.3448V49.982ZM9.02739 50.254V53.0728H11.8463V50.254H9.02739Z" fill="#1AB3FF"/>
<path fill-rule="evenodd" clip-rule="evenodd" d="M8.7554 45.2261C8.90562 45.2261 9.02739 45.3479 9.02739 45.4981V47.1795C9.02739 47.3297 8.90562 47.4515 8.7554 47.4515C8.60518 47.4515 8.4834 47.3297 8.4834 47.1795V45.4981C8.4834 45.3479 8.60518 45.2261 8.7554 45.2261Z" fill="#1AB3FF"/>
<path fill-rule="evenodd" clip-rule="evenodd" d="M12.1187 45.2261C12.2689 45.2261 12.3907 45.3479 12.3907 45.4981V47.1795C12.3907 47.3297 12.2689 47.4515 12.1187 47.4515C11.9685 47.4515 11.8467 47.3297 11.8467 47.1795V45.4981C11.8467 45.3479 11.9685 45.2261 12.1187 45.2261Z" fill="#1AB3FF"/>
<path fill-rule="evenodd" clip-rule="evenodd" d="M8.7554 55.875C8.90562 55.875 9.02739 55.9968 9.02739 56.147V57.8284C9.02739 57.9786 8.90562 58.1004 8.7554 58.1004C8.60518 58.1004 8.4834 57.9786 8.4834 57.8284V56.147C8.4834 55.9968 8.60518 55.875 8.7554 55.875Z" fill="#1AB3FF"/>
<path fill-rule="evenodd" clip-rule="evenodd" d="M12.1187 55.875C12.2689 55.875 12.3907 55.9968 12.3907 56.147V57.8284C12.3907 57.9786 12.2689 58.1004 12.1187 58.1004C11.9685 58.1004 11.8467 57.9786 11.8467 57.8284V56.147C11.8467 55.9968 11.9685 55.875 12.1187 55.875Z" fill="#1AB3FF"/>
<path fill-rule="evenodd" clip-rule="evenodd" d="M14.6494 49.982C14.6494 49.8317 14.7712 49.71 14.9214 49.71H16.6028C16.7531 49.71 16.8748 49.8317 16.8748 49.982C16.8748 50.1322 16.7531 50.254 16.6028 50.254H14.9214C14.7712 50.254 14.6494 50.1322 14.6494 49.982Z" fill="#1AB3FF"/>
<path fill-rule="evenodd" clip-rule="evenodd" d="M14.6494 52.7842C14.6494 52.634 14.7712 52.5122 14.9214 52.5122H16.6028C16.7531 52.5122 16.8748 52.634 16.8748 52.7842C16.8748 52.9344 16.7531 53.0562 16.6028 53.0562H14.9214C14.7712 53.0562 14.6494 52.9344 14.6494 52.7842Z" fill="#1AB3FF"/>
<path fill-rule="evenodd" clip-rule="evenodd" d="M4 49.982C4 49.8317 4.12178 49.71 4.272 49.71H5.95343C6.10365 49.71 6.22543 49.8317 6.22543 49.982C6.22543 50.1322 6.10365 50.254 5.95343 50.254H4.272C4.12178 50.254 4 50.1322 4 49.982Z" fill="#1AB3FF"/>
<path fill-rule="evenodd" clip-rule="evenodd" d="M4 52.7842C4 52.634 4.12178 52.5122 4.272 52.5122H5.95343C6.10365 52.5122 6.22543 52.634 6.22543 52.7842C6.22543 52.9344 6.10365 53.0562 5.95343 53.0562H4.272C4.12178 53.0562 4 52.9344 4 52.7842Z" fill="#1AB3FF"/>
<path fill-rule="evenodd" clip-rule="evenodd" d="M26.1241 42.7778V43.6392C26.1241 43.7894 26.0024 43.9112 25.8521 43.9112C25.7019 43.9112 25.5801 43.7894 25.5801 43.6392V42.7778H26.1241ZM25.8521 45.0898C26.0024 45.0898 26.1241 45.2116 26.1241 45.3618V46.2231C26.1241 46.4677 26.1082 46.7087 26.0774 46.9451C26.058 47.0941 25.9215 47.1991 25.7725 47.1797C25.6236 47.1602 25.5186 47.0237 25.538 46.8748C25.5658 46.6616 25.5801 46.4441 25.5801 46.2231V45.3618C25.5801 45.2116 25.7019 45.0898 25.8521 45.0898ZM25.5573 47.9848C25.6961 48.0424 25.7619 48.2015 25.7044 48.3403C25.5179 48.79 25.2738 49.2097 24.9814 49.5902C24.8898 49.7093 24.7191 49.7317 24.6 49.6402C24.4809 49.5486 24.4585 49.3779 24.55 49.2588C24.8138 48.9155 25.0338 48.5371 25.2019 48.1319C25.2594 47.9931 25.4185 47.9273 25.5573 47.9848ZM24.0106 50.2296C24.1021 50.3487 24.0797 50.5195 23.9606 50.611C23.5801 50.9034 23.1604 51.1475 22.7107 51.334C22.5719 51.3915 22.4128 51.3257 22.3552 51.1869C22.2977 51.0481 22.3635 50.889 22.5023 50.8315C22.9075 50.6634 23.2859 50.4434 23.6292 50.1796C23.7483 50.0881 23.919 50.1105 24.0106 50.2296ZM21.5501 51.4021C21.5695 51.5511 21.4645 51.6876 21.3155 51.707C21.0791 51.7379 20.8381 51.7537 20.5935 51.7537H20.0042C19.854 51.7537 19.7322 51.632 19.7322 51.4817C19.7322 51.3315 19.854 51.2098 20.0042 51.2098H20.5935C20.8145 51.2098 21.032 51.1954 21.2452 51.1676C21.3941 51.1482 21.5306 51.2532 21.5501 51.4021ZM16.4682 51.7537H15.8789V51.2098H16.4682C16.6185 51.2098 16.7402 51.3315 16.7402 51.4817C16.7402 51.632 16.6185 51.7537 16.4682 51.7537ZM17.3749 51.4817C17.3749 51.3315 17.4967 51.2098 17.6469 51.2098H18.8255C18.9758 51.2098 19.0975 51.3315 19.0975 51.4817C19.0975 51.632 18.9758 51.7537 18.8255 51.7537H17.6469C17.4967 51.7537 17.3749 51.632 17.3749 51.4817Z" fill="#1AB3FF"/>
<path fill-rule="evenodd" clip-rule="evenodd" d="M31.1107 34.8902C30.8897 34.8902 30.6722 34.9045 30.459 34.9323C30.3101 34.9518 30.1736 34.8468 30.1542 34.6978C30.1347 34.5489 30.2397 34.4124 30.3887 34.3929C30.6251 34.3621 30.8661 34.3462 31.1107 34.3462H31.7777C31.928 34.3462 32.0497 34.468 32.0497 34.6182C32.0497 34.7684 31.928 34.8902 31.7777 34.8902H31.1107ZM32.8398 34.6182C32.8398 34.468 32.9616 34.3462 33.1118 34.3462H34.4459C34.5961 34.3462 34.7179 34.468 34.7179 34.6182C34.7179 34.7684 34.5961 34.8902 34.4459 34.8902H33.1118C32.9616 34.8902 32.8398 34.7684 32.8398 34.6182ZM35.508 34.6182C35.508 34.468 35.6298 34.3462 35.78 34.3462H37.1141C37.2643 34.3462 37.3861 34.468 37.3861 34.6182C37.3861 34.7684 37.2643 34.8902 37.1141 34.8902H35.78C35.6298 34.8902 35.508 34.7684 35.508 34.6182ZM38.1761 34.6182C38.1761 34.468 38.2979 34.3462 38.4481 34.3462H39.7822C39.9324 34.3462 40.0542 34.468 40.0542 34.6182C40.0542 34.7684 39.9324 34.8902 39.7822 34.8902H38.4481C38.2979 34.8902 38.1761 34.7684 38.1761 34.6182ZM40.8443 34.6182C40.8443 34.468 40.9661 34.3462 41.1163 34.3462H42.4504C42.6006 34.3462 42.7224 34.468 42.7224 34.6182C42.7224 34.7684 42.6006 34.8902 42.4504 34.8902H41.1163C40.9661 34.8902 40.8443 34.7684 40.8443 34.6182ZM43.5125 34.6182C43.5125 34.468 43.6343 34.3462 43.7845 34.3462H45.1186C45.2688 34.3462 45.3906 34.468 45.3906 34.6182C45.3906 34.7684 45.2688 34.8902 45.1186 34.8902H43.7845C43.6343 34.8902 43.5125 34.7684 43.5125 34.6182ZM46.1806 34.6182C46.1806 34.468 46.3024 34.3462 46.4526 34.3462H47.7867C47.9369 34.3462 48.0587 34.468 48.0587 34.6182C48.0587 34.7684 47.9369 34.8902 47.7867 34.8902H46.4526C46.3024 34.8902 46.1806 34.7684 46.1806 34.6182ZM48.8488 34.6182C48.8488 34.468 48.9706 34.3462 49.1208 34.3462H49.7878C49.9381 34.3462 50.0598 34.468 50.0598 34.6182C50.0598 34.7684 49.9381 34.8902 49.7878 34.8902H49.1208C48.9706 34.8902 48.8488 34.7684 48.8488 34.6182ZM29.349 34.913C29.4066 35.0518 29.3407 35.2109 29.2019 35.2685C28.7967 35.4365 28.4183 35.6565 28.0751 35.9203C27.956 36.0118 27.7852 35.9895 27.6937 35.8704C27.6021 35.7512 27.6245 35.5805 27.7436 35.4889C28.1241 35.1966 28.5438 34.9525 28.9936 34.766C29.1323 34.7084 29.2915 34.7743 29.349 34.913ZM27.1042 36.4598C27.2234 36.5513 27.2457 36.7221 27.1542 36.8412C26.8904 37.1844 26.6704 37.5628 26.5024 37.9681C26.4448 38.1068 26.2857 38.1727 26.1469 38.1151C26.0082 38.0576 25.9423 37.8984 25.9999 37.7597C26.1864 37.3099 26.4304 36.8902 26.7228 36.5097C26.8144 36.3906 26.9851 36.3682 27.1042 36.4598ZM25.9317 38.9203C26.0807 38.9397 26.1857 39.0762 26.1662 39.2252C26.1384 39.4383 26.1241 39.6558 26.1241 39.8768V40.6475C26.1241 40.7977 26.0023 40.9195 25.8521 40.9195C25.7019 40.9195 25.5801 40.7977 25.5801 40.6475V39.8768C25.5801 39.6322 25.596 39.3912 25.6268 39.1548C25.6462 39.0058 25.7827 38.9008 25.9317 38.9203ZM25.8521 41.9168C26.0023 41.9168 26.1241 42.0386 26.1241 42.1888V42.9594H25.5801V42.1888C25.5801 42.0386 25.7019 41.9168 25.8521 41.9168Z" fill="#1AB3FF"/>
<path d="M51.2383 31.1727C51.2383 30.9724 51.4007 30.8101 51.6009 30.8101H57.9476C58.1478 30.8101 58.3102 30.9724 58.3102 31.1727V33.1674C58.3102 33.3677 58.1478 33.53 57.9476 33.53H51.6009C51.4007 33.53 51.2383 33.3677 51.2383 33.1674V31.1727Z" fill="#1F4B7F"/>
<path d="M69.3711 35.8871C69.3711 35.6868 69.5335 35.5244 69.7338 35.5244H73.3604C73.5607 35.5244 73.7231 35.6868 73.7231 35.8871V39.5137C73.7231 39.714 73.5607 39.8764 73.3604 39.8764H69.7338C69.5335 39.8764 69.3711 39.714 69.3711 39.5137V35.8871Z" fill="#1F4B7F"/>
<path fill-rule="evenodd" clip-rule="evenodd" d="M86.2339 46.1328C86.3841 46.1328 86.5059 46.011 86.5059 45.8608L86.5059 45.0901C86.5059 44.9399 86.3841 44.8182 86.2339 44.8182C86.0836 44.8182 85.9619 44.9399 85.9619 45.0902L85.9619 45.8608C85.9619 46.011 86.0836 46.1328 86.2339 46.1328ZM86.2339 43.8208C86.3841 43.8208 86.5059 43.699 86.5058 43.5488L86.5058 42.7782C86.5058 42.5336 86.49 42.2926 86.4591 42.0562C86.4397 41.9072 86.3032 41.8022 86.1542 41.8216C86.0053 41.8411 85.9003 41.9776 85.9197 42.1265C85.9475 42.3397 85.9619 42.5572 85.9619 42.7782L85.9619 43.5488C85.9619 43.699 86.0836 43.8208 86.2339 43.8208ZM85.939 41.0165C86.0778 40.9589 86.1436 40.7998 86.0861 40.661C85.8996 40.2113 85.6555 39.7916 85.3631 39.4111C85.2715 39.292 85.1008 39.2696 84.9817 39.3611C84.8626 39.4527 84.8402 39.6234 84.9317 39.7425C85.1955 40.0858 85.4155 40.4642 85.5836 40.8694C85.6411 41.0082 85.8002 41.074 85.939 41.0165ZM84.3923 38.7717C84.4838 38.6526 84.4614 38.4819 84.3423 38.3903C83.9618 38.0979 83.5421 37.8538 83.0924 37.6673C82.9536 37.6098 82.7945 37.6756 82.7369 37.8144C82.6794 37.9532 82.7452 38.1123 82.884 38.1698C83.2892 38.3379 83.6676 38.5579 84.0109 38.8217C84.13 38.9132 84.3007 38.8908 84.3923 38.7717ZM81.9318 37.5992C81.9512 37.4502 81.8462 37.3137 81.6972 37.2943C81.4608 37.2635 81.2198 37.2476 80.9752 37.2476L80.4312 37.2476C80.281 37.2476 80.1592 37.3693 80.1592 37.5196C80.1592 37.6698 80.281 37.7916 80.4312 37.7916L80.9752 37.7916C81.1962 37.7916 81.4137 37.8059 81.6269 37.8337C81.7758 37.8532 81.9123 37.7481 81.9318 37.5992ZM79.6153 37.5196C79.6153 37.3693 79.4935 37.2476 79.3433 37.2476L78.2553 37.2476C78.105 37.2476 77.9833 37.3693 77.9833 37.5196C77.9833 37.6698 78.105 37.7916 78.2553 37.7916L79.3433 37.7916C79.4935 37.7916 79.6153 37.6698 79.6153 37.5196ZM77.4393 37.5196C77.4393 37.3693 77.3175 37.2476 77.1673 37.2476L76.0793 37.2476C75.9291 37.2476 75.8073 37.3693 75.8073 37.5196C75.8073 37.6698 75.9291 37.7916 76.0793 37.7916L77.1673 37.7916C77.3175 37.7916 77.4393 37.6698 77.4393 37.5196ZM75.2633 37.5196C75.2633 37.3693 75.1415 37.2476 74.9913 37.2476L74.4473 37.2476L74.4473 37.7916L74.9913 37.7916C75.1415 37.7916 75.2633 37.6698 75.2633 37.5196Z" fill="#1AB3FF"/>
<path fill-rule="evenodd" clip-rule="evenodd" d="M34.5537 43.7759C34.5537 43.6257 34.6755 43.5039 34.8257 43.5039H36.639C36.7892 43.5039 36.911 43.6257 36.911 43.7759C36.911 43.9261 36.7892 44.0479 36.639 44.0479H34.8257C34.6755 44.0479 34.5537 43.9261 34.5537 43.7759Z" fill="white"/>
<path fill-rule="evenodd" clip-rule="evenodd" d="M38.2715 43.6856C38.2715 43.5354 38.3933 43.4136 38.5435 43.4136H43.6208C43.771 43.4136 43.8928 43.5354 43.8928 43.6856C43.8928 43.8358 43.771 43.9576 43.6208 43.9576H38.5435C38.3933 43.9576 38.2715 43.8358 38.2715 43.6856Z" fill="#1AB3FF"/>
<path fill-rule="evenodd" clip-rule="evenodd" d="M34.5537 45.7705C34.5537 45.6203 34.6755 45.4985 34.8257 45.4985H36.639C36.7892 45.4985 36.911 45.6203 36.911 45.7705C36.911 45.9208 36.7892 46.0425 36.639 46.0425H34.8257C34.6755 46.0425 34.5537 45.9208 34.5537 45.7705Z" fill="white"/>
<path fill-rule="evenodd" clip-rule="evenodd" d="M34.5537 51.7539C34.5537 51.6037 34.6755 51.4819 34.8257 51.4819H36.639C36.7892 51.4819 36.911 51.6037 36.911 51.7539C36.911 51.9042 36.7892 52.0259 36.639 52.0259H34.8257C34.6755 52.0259 34.5537 51.9042 34.5537 51.7539Z" fill="white"/>
<path fill-rule="evenodd" clip-rule="evenodd" d="M34.5537 53.749C34.5537 53.5988 34.6755 53.4771 34.8257 53.4771H36.639C36.7892 53.4771 36.911 53.5988 36.911 53.749C36.911 53.8993 36.7892 54.021 36.639 54.021H34.8257C34.6755 54.021 34.5537 53.8993 34.5537 53.749Z" fill="white"/>
<path fill-rule="evenodd" clip-rule="evenodd" d="M34.5537 55.562C34.5537 55.4118 34.6755 55.29 34.8257 55.29H36.639C36.7892 55.29 36.911 55.4118 36.911 55.562C36.911 55.7123 36.7892 55.834 36.639 55.834H34.8257C34.6755 55.834 34.5537 55.7123 34.5537 55.562Z" fill="white"/>
<path fill-rule="evenodd" clip-rule="evenodd" d="M34.5537 57.5567C34.5537 57.4064 34.6755 57.2847 34.8257 57.2847H36.639C36.7892 57.2847 36.911 57.4064 36.911 57.5567C36.911 57.7069 36.7892 57.8287 36.639 57.8287H34.8257C34.6755 57.8287 34.5537 57.7069 34.5537 57.5567Z" fill="white"/>
<path fill-rule="evenodd" clip-rule="evenodd" d="M34.5537 59.5518C34.5537 59.4016 34.6755 59.2798 34.8257 59.2798H36.639C36.7892 59.2798 36.911 59.4016 36.911 59.5518C36.911 59.702 36.7892 59.8238 36.639 59.8238H34.8257C34.6755 59.8238 34.5537 59.702 34.5537 59.5518Z" fill="white"/>
<path fill-rule="evenodd" clip-rule="evenodd" d="M38.2715 45.6797C38.2715 45.5295 38.3933 45.4077 38.5435 45.4077H46.5221C46.6723 45.4077 46.7941 45.5295 46.7941 45.6797C46.7941 45.8299 46.6723 45.9517 46.5221 45.9517H38.5435C38.3933 45.9517 38.2715 45.8299 38.2715 45.6797Z" fill="#1AB3FF"/>
<path fill-rule="evenodd" clip-rule="evenodd" d="M38.2715 51.6631C38.2715 51.5129 38.3933 51.3911 38.5435 51.3911H45.9781C46.1283 51.3911 46.2501 51.5129 46.2501 51.6631C46.2501 51.8133 46.1283 51.9351 45.9781 51.9351H38.5435C38.3933 51.9351 38.2715 51.8133 38.2715 51.6631Z" fill="#1AB3FF"/>
<path fill-rule="evenodd" clip-rule="evenodd" d="M38.2715 53.6582C38.2715 53.508 38.3933 53.3862 38.5435 53.3862H47.4287C47.5789 53.3862 47.7007 53.508 47.7007 53.6582C47.7007 53.8084 47.5789 53.9302 47.4287 53.9302H38.5435C38.3933 53.9302 38.2715 53.8084 38.2715 53.6582Z" fill="#1AB3FF"/>
<path fill-rule="evenodd" clip-rule="evenodd" d="M38.2715 55.4712C38.2715 55.321 38.3933 55.1992 38.5435 55.1992H41.9888C42.139 55.1992 42.2608 55.321 42.2608 55.4712C42.2608 55.6214 42.139 55.7432 41.9888 55.7432H38.5435C38.3933 55.7432 38.2715 55.6214 38.2715 55.4712Z" fill="#1AB3FF"/>
<path fill-rule="evenodd" clip-rule="evenodd" d="M38.2715 57.4658C38.2715 57.3156 38.3933 57.1938 38.5435 57.1938H44.5274C44.6776 57.1938 44.7994 57.3156 44.7994 57.4658C44.7994 57.6161 44.6776 57.7378 44.5274 57.7378H38.5435C38.3933 57.7378 38.2715 57.6161 38.2715 57.4658Z" fill="#1AB3FF"/>
<path fill-rule="evenodd" clip-rule="evenodd" d="M38.2715 59.461C38.2715 59.3107 38.3933 59.189 38.5435 59.189H43.4394C43.5897 59.189 43.7114 59.3107 43.7114 59.461C43.7114 59.6112 43.5897 59.733 43.4394 59.733H38.5435C38.3933 59.733 38.2715 59.6112 38.2715 59.461Z" fill="#1AB3FF"/>
<path fill-rule="evenodd" clip-rule="evenodd" d="M34.5537 47.7647C34.5537 47.6145 34.6755 47.4927 34.8257 47.4927H36.639C36.7892 47.4927 36.911 47.6145 36.911 47.7647C36.911 47.9149 36.7892 48.0367 36.639 48.0367H34.8257C34.6755 48.0367 34.5537 47.9149 34.5537 47.7647Z" fill="white"/>
<path fill-rule="evenodd" clip-rule="evenodd" d="M38.2715 47.6739C38.2715 47.5236 38.3933 47.4019 38.5435 47.4019H45.0714C45.2216 47.4019 45.3434 47.5236 45.3434 47.6739C45.3434 47.8241 45.2216 47.9459 45.0714 47.9459H38.5435C38.3933 47.9459 38.2715 47.8241 38.2715 47.6739Z" fill="#1AB3FF"/>
<path fill-rule="evenodd" clip-rule="evenodd" d="M34.5537 49.7593C34.5537 49.6091 34.6755 49.4873 34.8257 49.4873H36.639C36.7892 49.4873 36.911 49.6091 36.911 49.7593C36.911 49.9095 36.7892 50.0313 36.639 50.0313H34.8257C34.6755 50.0313 34.5537 49.9095 34.5537 49.7593Z" fill="white"/>
<path fill-rule="evenodd" clip-rule="evenodd" d="M38.2715 49.669C38.2715 49.5188 38.3933 49.397 38.5435 49.397H43.2581C43.4083 49.397 43.5301 49.5188 43.5301 49.669C43.5301 49.8192 43.4083 49.941 43.2581 49.941H38.5435C38.3933 49.941 38.2715 49.8192 38.2715 49.669Z" fill="#1AB3FF"/>
<path fill-rule="evenodd" clip-rule="evenodd" d="M82.551 48.5365C82.3756 48.6747 82.334 48.7835 82.334 48.8522C82.334 48.9209 82.3756 49.0297 82.551 49.1679C82.7234 49.3038 82.9897 49.438 83.343 49.5558C84.0468 49.7904 85.0364 49.9402 86.142 49.9402C87.2475 49.9402 88.2371 49.7904 88.941 49.5558C89.2943 49.438 89.5606 49.3038 89.733 49.1679C89.9084 49.0297 89.95 48.9209 89.95 48.8522C89.95 48.7835 89.9084 48.6747 89.733 48.5365C89.5606 48.4006 89.2943 48.2664 88.941 48.1486C88.2371 47.914 87.2475 47.7642 86.142 47.7642C85.0364 47.7642 84.0468 47.914 83.343 48.1486C82.9897 48.2664 82.7234 48.4006 82.551 48.5365ZM83.171 47.6325C83.9439 47.3749 84.9942 47.2202 86.142 47.2202C87.2897 47.2202 88.3401 47.3749 89.113 47.6325C89.498 47.7608 89.8292 47.9196 90.0697 48.1092C90.3072 48.2963 90.494 48.5454 90.494 48.8522C90.494 49.159 90.3072 49.4081 90.0697 49.5952C89.8292 49.7848 89.498 49.9436 89.113 50.0719C88.3401 50.3295 87.2897 50.4842 86.142 50.4842C84.9942 50.4842 83.9439 50.3295 83.171 50.0719C82.786 49.9436 82.4548 49.7848 82.2143 49.5952C81.9768 49.4081 81.79 49.159 81.79 48.8522C81.79 48.5454 81.9768 48.2963 82.2143 48.1092C82.4548 47.9196 82.786 47.7608 83.171 47.6325Z" fill="#1AB3FF"/>
<path fill-rule="evenodd" clip-rule="evenodd" d="M82.062 51.7539C82.2123 51.7539 82.334 51.8757 82.334 52.0259C82.334 52.0959 82.3758 52.2049 82.5497 52.3427C82.7209 52.4784 82.9858 52.6125 83.3382 52.7301C84.0401 52.9644 85.0296 53.1139 86.142 53.1139C87.2544 53.1139 88.2439 52.9644 88.9458 52.7301C89.2982 52.6125 89.5631 52.4784 89.7343 52.3427C89.9082 52.2049 89.95 52.0959 89.95 52.0259C89.95 51.8757 90.0717 51.7539 90.222 51.7539C90.3722 51.7539 90.494 51.8757 90.494 52.0259C90.494 52.3322 90.309 52.5813 90.0721 52.7691C89.8325 52.9589 89.5024 53.1178 89.1181 53.2461C88.3467 53.5036 87.2962 53.6579 86.142 53.6579C84.9878 53.6579 83.9373 53.5036 83.1659 53.2461C82.7816 53.1178 82.4515 52.9589 82.2119 52.7691C81.975 52.5813 81.79 52.3322 81.79 52.0259C81.79 51.8757 81.9118 51.7539 82.062 51.7539Z" fill="#1AB3FF"/>
<path fill-rule="evenodd" clip-rule="evenodd" d="M82.062 48.5806C82.2123 48.5806 82.334 48.7023 82.334 48.8526V55.1992C82.334 55.2692 82.3758 55.3781 82.5497 55.516C82.7209 55.6516 82.9858 55.7857 83.3382 55.9034C84.0401 56.1377 85.0296 56.2872 86.142 56.2872C87.2544 56.2872 88.2439 56.1377 88.9458 55.9034C89.2982 55.7857 89.5631 55.6516 89.7343 55.516C89.9082 55.3781 89.95 55.2692 89.95 55.1992V48.8526C89.95 48.7023 90.0717 48.5806 90.222 48.5806C90.3722 48.5806 90.494 48.7023 90.494 48.8526V55.1992C90.494 55.5055 90.309 55.7546 90.0721 55.9423C89.8325 56.1322 89.5024 56.2911 89.1181 56.4194C88.3467 56.6769 87.2962 56.8312 86.142 56.8312C84.9878 56.8312 83.9373 56.6769 83.1659 56.4194C82.7816 56.2911 82.4515 56.1322 82.2119 55.9423C81.975 55.7546 81.79 55.5055 81.79 55.1992V48.8526C81.79 48.7023 81.9118 48.5806 82.062 48.5806Z" fill="#1AB3FF"/>
<path fill-rule="evenodd" clip-rule="evenodd" d="M62.8254 36.1402C62.9676 36.0601 63.1281 36.0181 63.2914 36.0181C63.4546 36.0181 63.6151 36.0601 63.7573 36.1402C63.8996 36.2203 64.0188 36.3357 64.1034 36.4753L64.1042 36.4766L64.1042 36.4766L66.9747 41.2686L66.9769 41.2724C67.0598 41.416 67.1037 41.5788 67.1042 41.7447C67.1047 41.9105 67.0617 42.0736 66.9796 42.2177C66.8974 42.3618 66.779 42.4818 66.6361 42.5659C66.4931 42.65 66.3307 42.6953 66.1648 42.6971L66.1618 42.6971H60.4209L60.4179 42.6971C60.252 42.6953 60.0896 42.65 59.9466 42.5659C59.8037 42.4818 59.6853 42.3618 59.6032 42.2177C59.521 42.0736 59.4781 41.9105 59.4785 41.7447C59.479 41.5788 59.5229 41.416 59.6058 41.2724L59.608 41.2686L62.4785 36.4766L62.7118 36.6163L62.4793 36.4753C62.5639 36.3357 62.6831 36.2203 62.8254 36.1402ZM62.9447 36.7568C62.9446 36.757 62.9445 36.7572 62.9444 36.7574L60.0759 41.5461C60.0411 41.607 60.0227 41.676 60.0225 41.7462C60.0223 41.8171 60.0407 41.8867 60.0758 41.9483C60.1109 42.0099 60.1614 42.0612 60.2225 42.0971C60.2832 42.1328 60.3521 42.1521 60.4225 42.1531H66.1602C66.2306 42.1521 66.2995 42.1328 66.3602 42.0971C66.4213 42.0612 66.4719 42.0099 66.507 41.9483C66.542 41.8867 66.5604 41.8171 66.5602 41.7462C66.56 41.676 66.5416 41.607 66.5068 41.546L63.6383 36.7574C63.6382 36.7572 63.6381 36.757 63.638 36.7568C63.6018 36.6975 63.551 36.6484 63.4904 36.6143C63.4297 36.58 63.3611 36.5621 63.2914 36.5621C63.2216 36.5621 63.153 36.58 63.0923 36.6143C63.0317 36.6484 62.9809 36.6975 62.9447 36.7568Z" fill="white"/>
<path fill-rule="evenodd" clip-rule="evenodd" d="M63.2915 38.0864C63.4417 38.0864 63.5635 38.2082 63.5635 38.3584V39.714C63.5635 39.8642 63.4417 39.986 63.2915 39.986C63.1413 39.986 63.0195 39.8642 63.0195 39.714V38.3584C63.0195 38.2082 63.1413 38.0864 63.2915 38.0864Z" fill="white"/>
<path fill-rule="evenodd" clip-rule="evenodd" d="M63.0195 41.0694C63.0195 40.9191 63.1413 40.7974 63.2915 40.7974H63.2947C63.4449 40.7974 63.5667 40.9191 63.5667 41.0694C63.5667 41.2196 63.4449 41.3414 63.2947 41.3414H63.2915C63.1413 41.3414 63.0195 41.2196 63.0195 41.0694Z" fill="white"/>
<path fill-rule="evenodd" clip-rule="evenodd" d="M33.9924 39.4229C32.3759 39.4229 31.0186 40.886 31.0186 42.7516V60.7553C31.0186 62.6209 32.3759 64.084 33.9924 64.084H59.9591C61.5757 64.084 62.933 62.6209 62.933 60.7553V47.5828C62.933 47.4326 63.0547 47.3108 63.205 47.3108C63.3552 47.3108 63.477 47.4326 63.477 47.5828V60.7553C63.477 62.8669 61.9278 64.628 59.9591 64.628H33.9924C32.0237 64.628 30.4746 62.8669 30.4746 60.7553V42.7516C30.4746 40.64 32.0237 38.8789 33.9924 38.8789H54.4104C54.5606 38.8789 54.6824 39.0007 54.6824 39.1509C54.6824 39.3011 54.5606 39.4229 54.4104 39.4229H33.9924Z" fill="#1AB3FF"/>
<path fill-rule="evenodd" clip-rule="evenodd" d="M43.8936 68.3452C43.8936 68.195 44.0153 68.0732 44.1656 68.0732L53.2321 68.0732C53.3824 68.0732 53.5041 68.195 53.5041 68.3452C53.5041 68.4955 53.3824 68.6172 53.2321 68.6172L44.1656 68.6172C44.0153 68.6172 43.8936 68.4955 43.8936 68.3452Z" fill="#1AB3FF"/>
<path fill-rule="evenodd" clip-rule="evenodd" d="M39.9033 68.3452C39.9033 68.195 40.0251 68.0732 40.1753 68.0732H43.0766C43.2268 68.0732 43.3486 68.195 43.3486 68.3452C43.3486 68.4955 43.2268 68.6172 43.0766 68.6172H40.1753C40.0251 68.6172 39.9033 68.4955 39.9033 68.3452Z" fill="#1AB3FF"/>
<path fill-rule="evenodd" clip-rule="evenodd" d="M46.8843 64.0835C47.0345 64.0835 47.1563 64.2053 47.1563 64.3555L47.1563 68.3448C47.1563 68.495 47.0345 68.6168 46.8843 68.6168C46.7341 68.6168 46.6123 68.495 46.6123 68.3448L46.6123 64.3555C46.6123 64.2053 46.7341 64.0835 46.8843 64.0835Z" fill="#1AB3FF"/>
<path fill-rule="evenodd" clip-rule="evenodd" d="M53.5263 51.1872C53.5864 51.3249 53.5235 51.4852 53.3858 51.5453C52.7818 51.8089 52.2515 52.2164 51.8414 52.7323C51.4313 53.2482 51.1537 53.8566 51.0331 54.5045C50.9124 55.1524 50.9523 55.82 51.1493 56.449C51.3463 57.0779 51.6943 57.649 52.1629 58.1123C52.6316 58.5757 53.2066 58.9171 53.8378 59.1069C54.4689 59.2967 55.1369 59.3289 55.7834 59.2009C56.4299 59.0729 57.0351 58.7884 57.5463 58.3724C58.0574 57.9564 58.4589 57.4215 58.7156 56.8145C58.7741 56.6762 58.9337 56.6114 59.072 56.6699C59.2104 56.7284 59.2751 56.888 59.2166 57.0264C58.9253 57.7152 58.4697 58.3222 57.8897 58.7943C57.3096 59.2664 56.6227 59.5892 55.8891 59.7345C55.1554 59.8798 54.3974 59.8432 53.6811 59.6279C52.9649 59.4125 52.3123 59.025 51.7805 58.4992C51.2486 57.9733 50.8537 57.3252 50.6302 56.6115C50.4066 55.8978 50.3614 55.1402 50.4983 54.4049C50.6352 53.6697 50.9501 52.9792 51.4156 52.3937C51.881 51.8083 52.4828 51.3458 53.1683 51.0467C53.3059 50.9866 53.4663 51.0495 53.5263 51.1872Z" fill="#1AB3FF"/>
<path fill-rule="evenodd" clip-rule="evenodd" d="M54.8082 50.7467C54.8592 50.6956 54.9284 50.667 55.0005 50.667C55.6018 50.667 56.1972 50.7854 56.7527 51.0155C57.3082 51.2456 57.8129 51.5829 58.2381 52.008C58.6633 52.4332 59.0005 52.9379 59.2306 53.4935C59.4607 54.049 59.5791 54.6443 59.5791 55.2456C59.5791 55.3958 59.4574 55.5176 59.3071 55.5176H55.0005C54.8503 55.5176 54.7285 55.3958 54.7285 55.2456V50.939C54.7285 50.8669 54.7572 50.7977 54.8082 50.7467ZM55.2725 51.2202V54.9736H59.026C58.9965 54.5369 58.896 54.1072 58.728 53.7016C58.5253 53.2121 58.2281 52.7674 57.8534 52.3927C57.4788 52.0181 57.034 51.7209 56.5445 51.5181C56.1389 51.3501 55.7093 51.2497 55.2725 51.2202Z" fill="#1AB3FF"/>
<path fill-rule="evenodd" clip-rule="evenodd" d="M56.4598 28.5975C56.8424 28.2149 57.3612 28 57.9023 28H64.0902C64.1624 28 64.2315 28.0287 64.2825 28.0797L70.4705 34.2676C70.5215 34.3186 70.5501 34.3878 70.5501 34.4599V44.1838C70.5501 44.7249 70.3352 45.2437 69.9526 45.6263C69.5701 46.0089 69.0512 46.2238 68.5102 46.2238H57.9023C57.3612 46.2238 56.8424 46.0089 56.4598 45.6263C56.0772 45.2437 55.8623 44.7249 55.8623 44.1838V30.04C55.8623 29.4989 56.0772 28.9801 56.4598 28.5975ZM57.9023 28.544C57.5055 28.544 57.125 28.7016 56.8445 28.9822C56.5639 29.2627 56.4063 29.6432 56.4063 30.04V44.1838C56.4063 44.5806 56.5639 44.9611 56.8445 45.2416C57.125 45.5222 57.5055 45.6798 57.9023 45.6798H68.5102C68.9069 45.6798 69.2874 45.5222 69.568 45.2416C69.8485 44.9611 70.0061 44.5806 70.0061 44.1838V34.5726L63.9775 28.544H57.9023Z" fill="#1AB3FF"/>
<path fill-rule="evenodd" clip-rule="evenodd" d="M64.0904 28C64.2406 28 64.3624 28.1218 64.3624 28.272V33.0093C64.3624 33.6602 64.8901 34.1879 65.541 34.1879H68.0117C68.1619 34.1879 68.2836 34.3097 68.2836 34.4599C68.2836 34.6101 68.1619 34.7319 68.0117 34.7319H65.541C64.5896 34.7319 63.8184 33.9607 63.8184 33.0093V28.272C63.8184 28.1218 63.9401 28 64.0904 28Z" fill="#1AB3FF"/>
<defs>
<linearGradient id="paint0_linear_151_60" x1="0" y1="0" x2="102.585" y2="6.31803" gradientUnits="userSpaceOnUse">
<stop stop-color="#000016"/>
<stop offset="1" stop-color="#353066"/>
</linearGradient>
</defs>
</svg>
