<?xml version="1.0" encoding="utf-8"?>
<!-- Generator: Adobe Illustrator 25.1.0, SVG Export Plug-In . SVG Version: 6.00 Build 0)  -->
<svg version="1.1" id="Layer_1" xmlns="http://www.w3.org/2000/svg" xmlns:xlink="http://www.w3.org/1999/xlink" x="0px" y="0px"
	 viewBox="0 0 500 800" style="enable-background:new 0 0 500 800;" xml:space="preserve">
<style type="text/css">
	.st0{fill:#045D7F;}
</style>
<g>
	<path class="st0" d="M251.4,422.5c-0.3,0-0.6,0.1-0.9,0.2c-0.4,0.1-0.8,0.3-1.6,0.3s-1.2-0.1-1.6-0.3c-0.3-0.1-0.5-0.2-0.9-0.2
		c-1.9,0-3.5,1.6-3.5,3.5v0.7c0,0.6,0.5,1.1,1.1,1.1h9.6c0.6,0,1.1-0.5,1.1-1.1V426C254.9,424.1,253.3,422.5,251.4,422.5z
		 M253.9,426.9h-10V426c0-1.4,1.1-2.5,2.5-2.5l0.1,0c0.8,0.2,1.6,0.4,2.4,0.4c0.8,0,1.6-0.2,2.4-0.4l0.1,0c1.4,0,2.5,1.1,2.5,2.5
		L253.9,426.9z"/>
	<path class="st0" d="M249,421.7c2.1,0,3.8-1.7,3.8-3.8c0-2.1-1.7-3.8-3.8-3.8s-3.8,1.7-3.8,3.8S246.9,421.7,249,421.7z
		 M248.8,415.1L248.8,415.1l0.2,0c1.5,0,2.8,1.3,2.8,2.8c0,1.5-1.3,2.8-2.8,2.8c-1.5,0-2.8-1.3-2.8-2.8
		C246.2,416.5,247.3,415.2,248.8,415.1z"/>
</g>
</svg>
