<?xml version="1.0" encoding="utf-8"?>
<!-- Generator: Adobe Illustrator 24.2.2, SVG Export Plug-In . SVG Version: 6.00 Build 0)  -->
<svg version="1.1" id="Layer_1" xmlns="http://www.w3.org/2000/svg" xmlns:xlink="http://www.w3.org/1999/xlink" x="0px" y="0px"
	 viewBox="0 0 30 30" style="enable-background:new 0 0 30 30;" xml:space="preserve">
<style type="text/css">
	.st0{fill-rule:evenodd;clip-rule:evenodd;fill:#E1E1E1;}
</style>
<path class="st0" d="M28.7,9.2c0,0-0.3-2-1.1-2.9c-1.1-1.2-2.3-1.2-2.8-1.2C20.9,4.7,15,4.7,15,4.7h0c0,0-5.9,0-9.8,0.3
	C4.6,5.1,3.5,5.1,2.4,6.3C1.6,7.1,1.3,9.2,1.3,9.2S1,11.5,1,13.9v0.3v1.9c0,2.4,0.3,4.7,0.3,4.7s0.3,2,1.1,2.9
	c1.1,1.2,2.5,1.1,3.1,1.2c2.2,0.2,9.5,0.3,9.5,0.3s5.9,0,9.8-0.3c0.5-0.1,1.7-0.1,2.8-1.2c0.8-0.9,1.1-2.9,1.1-2.9s0.3-2.3,0.3-4.7
	v-1.8v-0.4C29,11.5,28.7,9.2,28.7,9.2L28.7,9.2z M19.7,14.7l-7.6,4.1v-6.3v-1.9l3.4,1.9L19.7,14.7z"/>
</svg>
