<?xml version="1.0" encoding="utf-8"?>
<!-- Generator: Adobe Illustrator 24.2.2, SVG Export Plug-In . SVG Version: 6.00 Build 0)  -->
<svg version="1.1" id="Layer_1" xmlns="http://www.w3.org/2000/svg" xmlns:xlink="http://www.w3.org/1999/xlink" x="0px" y="0px"
	 viewBox="0 0 30 30" style="enable-background:new 0 0 30 30;" xml:space="preserve">
<style type="text/css">
	.st0{fill-rule:evenodd;clip-rule:evenodd;fill:#E1E1E1;}
</style>
<path class="st0" d="M2.6,15.3v12.1h5.8V14.3v-3.4H2.6V15.3z M27.2,15.9c-0.4-3.1-1.8-5.1-6-5.1c-2.5,0-4.1,0.9-4.8,2.2h-0.1v-2.2
	h-4.6V14v13.3h4.8v-8.2c0-2.2,0.4-4.2,3.1-4.2c2.7,0,2.9,2.5,2.9,4.4v8h5v-9.1C27.4,17.5,27.3,16.7,27.2,15.9L27.2,15.9z M5.5,2.6
	c-1.6,0-2.9,1.3-2.9,2.9s1.3,2.9,2.9,2.9c1.6,0,2.9-1.3,2.9-2.9S7.1,2.6,5.5,2.6L5.5,2.6z"/>
</svg>
