<?xml version="1.0" encoding="utf-8"?>
<!-- Generator: Adobe Illustrator 24.2.2, SVG Export Plug-In . SVG Version: 6.00 Build 0)  -->
<svg version="1.1" id="Layer_1" xmlns="http://www.w3.org/2000/svg" xmlns:xlink="http://www.w3.org/1999/xlink" x="0px" y="0px"
	 viewBox="0 0 30 30" style="enable-background:new 0 0 30 30;" xml:space="preserve">
<style type="text/css">
	.st0{fill-rule:evenodd;clip-rule:evenodd;fill:#E1E1E1;}
</style>
<path class="st0" d="M29,6.5c-1,0.4-2.1,0.7-3.3,0.9c1.2-0.7,2.1-1.8,2.5-3.1c-1.1,0.7-2.4,1.1-3.7,1.4c-1-1.1-2.5-1.8-4.2-1.8
	c-3.2,0-5.7,2.5-5.7,5.7c0,0.5,0.1,0.9,0.2,1.3C10,10.5,5.8,8.3,3,4.8C2.5,5.7,2.2,6.6,2.2,7.7c0,2,1,3.7,2.6,4.7
	c-0.9,0-1.8-0.3-2.6-0.7c0,0,0,0,0,0.1c0,0.7,0.1,1.4,0.4,2c0.7,1.8,2.3,3.1,4.2,3.5c-0.5,0.1-1,0.2-1.5,0.2c-0.4,0-0.7,0-1.1-0.1
	c0.7,2.2,2.9,3.9,5.4,4c-2,1.5-4.4,2.4-7.1,2.4c-0.5,0-0.9,0-1.4-0.1c2.6,1.6,5.6,2.5,8.8,2.5c9,0,14.5-6.2,16-12.7
	c0.3-1.2,0.4-2.3,0.4-3.4c0-0.2,0-0.5,0-0.7C27.3,8.6,28.2,7.6,29,6.5L29,6.5z"/>
</svg>
