<?xml version="1.0" encoding="utf-8"?>
<!-- Generator: Adobe Illustrator 23.1.0, SVG Export Plug-In . SVG Version: 6.00 Build 0)  -->
<svg version="1.1" id="Layer_1" xmlns="http://www.w3.org/2000/svg" xmlns:xlink="http://www.w3.org/1999/xlink" x="0px" y="0px"
	 viewBox="0 0 838 259" style="enable-background:new 0 0 838 259;" xml:space="preserve">
<style type="text/css">
	.st0{display:none;}
	.st1{display:inline;}
	.st2{fill:#026A8F;}
	.st3{fill:url(#SVGID_1_);}
	.st4{fill:url(#SVGID_2_);}
	.st5{fill:#00ADE1;}
	.st6{fill:#076877;}
	.st7{fill:#FFFFFF;}
	.st8{fill:#323C3F;}
	.st9{fill:url(#SVGID_3_);}
	.st10{fill:url(#SVGID_4_);}
</style>
<g class="st0">
	<g class="st1">
		<path class="st2" d="M118.5,68.5c-2.2,1-3.5,1.6-3.5,1.6c-4.5,2.1,4.9,6.7,4.9,6.7c37.5,17.4,74.4,1,74.4,1
			C180.2,60,123.9,67.7,118.5,68.5z"/>
		
			<linearGradient id="SVGID_1_" gradientUnits="userSpaceOnUse" x1="91.6427" y1="120.3833" x2="144.2334" y2="120.3833" gradientTransform="matrix(1 0 0 -1 0 234)">
			<stop  offset="0" style="stop-color:#72C9DC"/>
			<stop  offset="0.995" style="stop-color:#C2E7EF"/>
		</linearGradient>
		<path class="st3" d="M91.6,135.3L91.6,135.3c14.5-22.8,41.8-24.3,52.3-25.2l0.3-0.2c0,0-13.6,0.4-24.3-3.9s-20-14.2-20-14.2
			s-15.1,10.5-0.9,24.3c0,0,5.6,4,0.4,8.6C96.2,127.8,93.6,131.4,91.6,135.3z"/>
		<path class="st2" d="M270.2,145.1c-23.9-8-47-0.3-70.5,5.2s-34.1-2-36.3-3.6c-2.2-1.6-11.7-6.7-11.7-6.7c1.7,6.9,2.5,14,2.5,21.1
			c3.2-0.1,8.5,2.1,8.5,2.1c18.6,6.4,38-3,38-3c38.7-16.1,65-11.2,77.2-7.7C277.2,147.2,270.2,145.1,270.2,145.1z"/>
		<path class="st2" d="M94.4,173.5c0,0-2.8-2.4-4,0.9c-1.2,3.4-3.6,16.7-14.7,28.4c9-5.8,15.2-13.9,17.2-16.3
			c3.9-4.5,12.3-2.3,12.3-2.3c9.2,0.7,18.4-0.6,26.9-4C131.1,180.4,106.9,184.8,94.4,173.5z"/>
		
			<linearGradient id="SVGID_2_" gradientUnits="userSpaceOnUse" x1="242.4698" y1="109.7833" x2="236.3317" y2="132.6971" gradientTransform="matrix(1 0 0 -1 0 234)">
			<stop  offset="0" style="stop-color:#72C9DC"/>
			<stop  offset="1" style="stop-color:#C2E7EF"/>
		</linearGradient>
		<path class="st4" d="M216,107.7c0,0-3.7-0.5-3.8,2.3c-0.1,2.8,6.2,15.1,22.9,16.2h0.1c-4-1.9-7.2-5.2-7.8-8.6
			c-0.7-4.4,4.9-4.8,4.9-4.8c11.5-2.3,21.7-8.7,28.8-18.1l0,0C261.1,94.7,237.2,109.7,216,107.7z"/>
		<path class="st5" d="M288.5,151.4c-4.2-14.9-22.6-18.4-22.6-18.4s-21.4-4.2-27-5.6c-1.3-0.3-2.5-0.8-3.7-1.4h-0.1
			c-16.7-1.2-23-13.5-22.9-16.2c0.1-2.8,3.8-2.3,3.8-2.3c21.2,2,45.1-13,45.1-13l0,0c1.7-2.2,3.1-4.7,4.2-7.2c2-5.2-2.3-9.2-2.3-9.2
			c-44.5-50.6-126.7-17.7-144.6-9.7c5.4-0.8,61.7-8.5,75.9,9.4c-7.4,29.5-39.2,31.1-49.2,32.1s-42.4,1.6-56.4,30.4
			c-21.9,48.9-43.1,57.3-47.2,60.9c-4.2,3.6,3.5,5.8,3.5,5.8c11.8,4.4,22.3,1,30.4-4.2c11.2-11.7,13.5-25.1,14.8-28.4
			c1.3-3.3,4-0.9,4-0.9c12.5,11.3,36.8,6.8,37.6,6.7c16.3-6.7,22-19.2,22-19.2h0.1c0-7.1-0.8-14.2-2.5-21.1c0,0,9.6,5.1,11.7,6.7
			c2.2,1.6,12.8,9,36.3,3.6c23.5-5.4,46.6-13.2,70.5-5.2c0,0,6.9,2.2,7.6,7.3c3.9,1.1,6.4,2.1,7.4,2.3
			C289.2,155.3,288.5,151.4,288.5,151.4z"/>
		<circle class="st6" cx="230.2" cy="78.6" r="5.6"/>
	</g>
	<g class="st1">
		<path class="st7" d="M349.9,142.3c0.3,5.5-2.1,10.7-6.5,14.1c-4.4,3.7-10.2,5.5-16,5.2c-5.2,0-10.5-1.6-14.6-5
			c-4.4-3.4-7.6-8.1-8.9-13.3l8.4-3.4c0.5,1.8,1.3,3.7,2.4,5.5c1,1.6,2.1,2.9,3.7,4.2c1.3,1,2.9,2.1,4.4,2.6c1.6,0.8,3.4,1,5.2,1
			c3.4,0.3,6.8-1,9.7-3.1c2.4-1.8,3.7-5,3.7-8.1c0-2.6-1-5.5-3.1-7.3c-3.1-2.6-7.1-4.4-11-5.8c-5.5-1.8-8.6-3.4-10.2-3.9
			c-7.1-3.7-10.7-8.9-10.7-16.2c0-5,2.1-9.7,6-12.8c4.2-3.4,9.4-5.5,14.6-5.2c4.7,0,9.4,1.3,13.3,3.9c3.7,2.4,6.3,5.8,7.6,9.7
			l-8.1,3.4c-0.8-2.6-2.4-4.7-4.4-6.3c-5-3.4-11.8-3.4-16.7,0.3c-2.1,1.6-3.4,4.2-3.4,6.8c0,2.4,0.8,4.4,2.6,6
			c3.9,2.6,8.4,4.7,13.1,6c5.5,1.6,10.5,4.4,14.6,8.6C348.3,133.4,349.9,137.9,349.9,142.3z"/>
		<path class="st7" d="M358.7,114.3h8.4v6.3h0.3c1.6-2.4,3.7-4.4,6-5.8c2.6-1.6,5.5-2.4,8.6-2.4c5-0.3,9.7,1.6,13.1,5
			c3.1,3.9,5,8.9,4.7,13.9v29h-8.6v-28.5c-0.3-7.6-3.9-11.2-11.5-11.2c-3.4,0-6.5,1.6-8.6,4.2c-2.4,2.9-3.7,6.3-3.4,9.9v25.6H359
			v-46H358.7z"/>
		<path class="st7" d="M426.7,112.8c5.5-0.3,11,1.6,15.2,5.2c3.7,3.7,5.8,8.9,5.5,14.1v28.5H439v-6.5h-0.3c-3.1,5-8.4,7.8-14.4,7.8
			c-4.7,0.3-9.2-1.6-12.8-4.4c-3.4-2.9-5.2-7.1-5.2-11.2c-0.3-4.4,1.8-8.6,5.5-11.5c4.2-2.9,9.2-4.4,14.4-4.2
			c4.4-0.3,8.9,0.8,12.8,2.9v-2.1c0-2.9-1.3-5.8-3.7-7.6c-2.4-2.1-5.2-3.1-8.4-3.1c-4.7,0-8.9,2.1-11.5,6l-7.6-4.7
			C412.4,115.9,419.4,112.2,426.7,112.8z M415.8,146.2c0,2.4,1,4.4,2.9,5.8c1.8,1.6,4.2,2.4,6.8,2.4c3.7,0,7.1-1.6,9.7-3.9
			c2.6-2.4,4.2-5.8,4.2-9.4c-3.4-2.4-7.3-3.4-11.2-3.1c-3.1,0-6.3,0.8-8.9,2.6C417.1,141.5,415.8,143.9,415.8,146.2z"/>
		<path class="st7" d="M481.4,161.9c-3.1,0-6.3-0.8-9.2-2.1c-2.6-1.3-5-3.4-6.5-5.8h-0.3l0.3,6.5V181h-8.6v-66.4h8.4v6.3h0.3
			c1.6-2.4,3.9-4.4,6.5-5.8c8.4-4.2,18.6-2.1,24.6,5c4.2,4.7,6.5,11,6.5,17.5c0.3,6.5-2.1,12.6-6.5,17.5
			C493.2,159.3,487.4,161.9,481.4,161.9z M480.1,154.1c3.9,0,7.8-1.6,10.5-4.7c2.9-3.4,4.4-7.6,4.2-12c0.3-4.4-1.3-8.6-4.2-12
			c-5.2-5.8-14.1-6.3-19.9-1c-0.3,0.3-0.8,0.8-1,1c-2.9,3.4-4.2,7.6-4.2,12c-0.3,4.4,1.3,8.6,4.2,12
			C472.3,152.5,475.9,154.1,480.1,154.1L480.1,154.1z"/>
		<path class="st7" d="M534.2,161.9c-3.1,0-6.5-0.8-9.4-2.1c-2.6-1.3-5-3.4-6.5-5.8H518l0.3,6.5V181h-8.6v-66.4h8.4v6.3h0.3
			c1.6-2.4,3.9-4.4,6.5-5.8c8.4-4.2,18.6-2.1,24.6,5c4.2,4.7,6.5,11,6.5,17.5c0.3,6.5-2.1,12.6-6.5,17.5
			C546,159.3,540.3,161.9,534.2,161.9z M532.9,154.1c3.9,0,7.8-1.6,10.5-4.7c2.9-3.4,4.4-7.6,4.2-12c0.3-4.4-1.3-8.6-4.2-12
			c-2.6-3.1-6.5-4.7-10.5-4.7c-3.9,0-7.8,1.6-10.5,4.7c-2.9,3.4-4.2,7.6-4.2,12c-0.3,4.4,1.3,8.6,4.2,12
			C525.1,152.5,529,154.1,532.9,154.1L532.9,154.1z"/>
		<path class="st7" d="M603.6,114.3l-28.8,66.4h-8.9l10.7-23.3l-19.4-43.2h9.4l13.9,33.2h0.3l13.3-33.2H603.6z"/>
		<path class="st5" d="M610.6,92.9h42.9v12h-30.1v16.5h26.9v12h-26.9v26.9h-12.8V92.9z"/>
		<path class="st5" d="M661.6,160.4V92.9h12.3v67.5H661.6z"/>
		<path class="st5" d="M705.8,112.8c3.4,0,6.8,0.5,9.9,1.8c2.9,1,5.5,2.9,7.8,5c2.1,2.4,3.9,5,5,7.8c2.4,6.3,2.4,13.3,0,19.9
			c-1,2.9-2.9,5.5-5,7.8c-2.1,2.1-4.7,3.9-7.8,5c-6.3,2.4-13.3,2.4-19.6,0c-5.8-2.4-10.5-7.1-12.8-12.8c-2.4-6.3-2.4-13.3,0-19.9
			c2.4-5.8,6.8-10.5,12.8-12.8C699.3,113.6,702.4,112.8,705.8,112.8z M705.8,150.4c1.6,0,3.1-0.3,4.7-0.8c3.1-1.3,5.5-3.7,6.5-6.8
			c1.3-3.7,1.3-7.6,0-11c-1-3.1-3.7-5.5-6.5-6.8c-1.6-0.5-3.1-0.8-4.7-0.8c-1.6,0-3.1,0.3-4.7,0.8c-1.6,0.5-2.9,1.6-3.9,2.6
			c-1,1.3-2.1,2.6-2.6,4.2c-1.3,3.7-1.3,7.6,0,11c0.5,1.6,1.6,2.9,2.6,4.2c1,1,2.4,2.1,3.9,2.6C702.7,150.2,704.2,150.7,705.8,150.4
			L705.8,150.4z"/>
		<path class="st5" d="M732.5,114.3h13.9l7.6,28.8h0.8l9.2-28.8h12.8l9.2,28.8h0.8l7.6-28.8h13.6l-14.9,46h-13.1l-9.2-29h-0.8
			l-9.2,29h-13.1L732.5,114.3z"/>
	</g>
</g>
<g>
	<g>
		<path class="st8" d="M349.5,142.4c0.3,5.5-2.1,10.7-6.5,14.1c-4.4,3.7-10.2,5.5-16,5.2c-5.2,0-10.5-1.6-14.6-5
			c-4.4-3.4-7.6-8.1-8.9-13.3l8.4-3.4c0.5,1.8,1.3,3.7,2.4,5.5c1,1.6,2.1,2.9,3.7,4.2c1.3,1,2.9,2.1,4.4,2.6c1.6,0.8,3.4,1,5.2,1
			c3.4,0.3,6.8-1,9.7-3.1c2.4-1.8,3.7-5,3.7-8.1c0-2.6-1-5.5-3.1-7.3c-3.1-2.6-7.1-4.4-11-5.8c-5.5-1.8-8.6-3.4-10.2-3.9
			c-7.1-3.7-10.7-8.9-10.7-16.2c0-5,2.1-9.7,6-12.8c4.2-3.4,9.4-5.5,14.6-5.2c4.7,0,9.4,1.3,13.3,3.9c3.7,2.4,6.3,5.8,7.6,9.7
			l-8.1,3.4c-0.8-2.6-2.4-4.7-4.4-6.3c-5-3.4-11.8-3.4-16.7,0.3c-2.1,1.6-3.4,4.2-3.4,6.8c0,2.4,0.8,4.4,2.6,6
			c3.9,2.6,8.4,4.7,13.1,6c5.5,1.6,10.5,4.4,14.6,8.6C348,133.5,349.5,137.9,349.5,142.4z"/>
		<path class="st8" d="M358.4,114.4h8.4v6.3h0.3c1.6-2.4,3.7-4.4,6-5.8c2.6-1.6,5.5-2.4,8.6-2.4c5-0.3,9.7,1.6,13.1,5
			c3.1,3.9,5,8.9,4.7,13.9v29h-8.6v-28.5c-0.3-7.6-3.9-11.2-11.5-11.2c-3.4,0-6.5,1.6-8.6,4.2c-2.4,2.9-3.7,6.3-3.4,9.9v25.6h-8.6
			v-46H358.4z"/>
		<path class="st8" d="M426.4,112.8c5.5-0.3,11,1.6,15.2,5.2c3.7,3.7,5.8,8.9,5.5,14.1v28.5h-8.4v-6.5h-0.3c-3.1,5-8.4,7.8-14.4,7.8
			c-4.7,0.3-9.2-1.6-12.8-4.4c-3.4-2.9-5.2-7.1-5.2-11.2c-0.3-4.4,1.8-8.6,5.5-11.5c4.2-2.9,9.2-4.4,14.4-4.2
			c4.4-0.3,8.9,0.8,12.8,2.9v-2.1c0-2.9-1.3-5.8-3.7-7.6c-2.4-2.1-5.2-3.1-8.4-3.1c-4.7,0-8.9,2.1-11.5,6l-7.6-4.7
			C412,115.9,419.1,112.3,426.4,112.8z M415.4,146.3c0,2.4,1,4.4,2.9,5.8c1.8,1.6,4.2,2.4,6.8,2.4c3.7,0,7.1-1.6,9.7-3.9
			c2.6-2.4,4.2-5.8,4.2-9.4c-3.4-2.4-7.3-3.4-11.2-3.1c-3.1,0-6.3,0.8-8.9,2.6C416.7,141.6,415.4,143.9,415.4,146.3z"/>
		<path class="st8" d="M481.1,162c-3.1,0-6.3-0.8-9.2-2.1c-2.6-1.3-5-3.4-6.5-5.8h-0.3l0.3,6.5v20.4h-8.6v-66.4h8.4v6.3h0.3
			c1.6-2.4,3.9-4.4,6.5-5.8c8.4-4.2,18.6-2.1,24.6,5c4.2,4.7,6.5,11,6.5,17.5c0.3,6.5-2.1,12.6-6.5,17.5
			C492.9,159.4,487.1,162,481.1,162z M479.8,154.1c3.9,0,7.8-1.6,10.5-4.7c2.9-3.4,4.4-7.6,4.2-12c0.3-4.4-1.3-8.6-4.2-12
			c-5.2-5.8-14.1-6.3-19.9-1c-0.3,0.3-0.8,0.8-1,1c-2.9,3.4-4.2,7.6-4.2,12c-0.3,4.4,1.3,8.6,4.2,12
			C471.9,152.6,475.6,154.1,479.8,154.1L479.8,154.1z"/>
		<path class="st8" d="M533.9,162c-3.1,0-6.5-0.8-9.4-2.1c-2.6-1.3-5-3.4-6.5-5.8h-0.3l0.3,6.5v20.4h-8.6v-66.4h8.4v6.3h0.3
			c1.6-2.4,3.9-4.4,6.5-5.8c8.4-4.2,18.6-2.1,24.6,5c4.2,4.7,6.5,11,6.5,17.5c0.3,6.5-2.1,12.6-6.5,17.5
			C545.7,159.4,539.9,162,533.9,162z M532.6,154.1c3.9,0,7.8-1.6,10.5-4.7c2.9-3.4,4.4-7.6,4.2-12c0.3-4.4-1.3-8.6-4.2-12
			c-2.6-3.1-6.5-4.7-10.5-4.7c-3.9,0-7.8,1.6-10.5,4.7c-2.9,3.4-4.2,7.6-4.2,12c-0.3,4.4,1.3,8.6,4.2,12
			C524.8,152.6,528.7,154.1,532.6,154.1L532.6,154.1z"/>
		<path class="st8" d="M603.2,114.4l-28.8,66.4h-8.9l10.7-23.3l-19.4-43.2h9.4l13.9,33.2h0.3l13.3-33.2H603.2z"/>
		<path class="st5" d="M610.3,92.9h42.9v12h-30.1v16.5H650v12h-26.9v26.9h-12.8V92.9z"/>
		<path class="st5" d="M661.3,160.4V92.9h12.3v67.5H661.3z"/>
		<path class="st5" d="M705.5,112.8c3.4,0,6.8,0.5,9.9,1.8c2.9,1,5.5,2.9,7.8,5c2.1,2.4,3.9,5,5,7.8c2.4,6.3,2.4,13.3,0,19.9
			c-1,2.9-2.9,5.5-5,7.8c-2.1,2.1-4.7,3.9-7.8,5c-6.3,2.4-13.3,2.4-19.6,0c-5.8-2.4-10.5-7.1-12.8-12.8c-2.4-6.3-2.4-13.3,0-19.9
			c2.4-5.8,6.8-10.5,12.8-12.8C699,113.6,702.1,112.8,705.5,112.8z M705.5,150.5c1.6,0,3.1-0.3,4.7-0.8c3.1-1.3,5.5-3.7,6.5-6.8
			c1.3-3.7,1.3-7.6,0-11c-1-3.1-3.7-5.5-6.5-6.8c-1.6-0.5-3.1-0.8-4.7-0.8c-1.6,0-3.1,0.3-4.7,0.8c-1.6,0.5-2.9,1.6-3.9,2.6
			c-1,1.3-2.1,2.6-2.6,4.2c-1.3,3.7-1.3,7.6,0,11c0.5,1.6,1.6,2.9,2.6,4.2c1,1,2.4,2.1,3.9,2.6C702.4,150.2,703.9,150.7,705.5,150.5
			L705.5,150.5z"/>
		<path class="st5" d="M732.2,114.4H746l7.6,28.8h0.8l9.2-28.8h12.8l9.2,28.8h0.8l7.6-28.8h13.6l-14.9,46h-13.1l-9.2-29h-0.8
			l-9.2,29h-13.1L732.2,114.4z"/>
	</g>
	<g>
		<path class="st2" d="M118.5,68.5c-2.2,1-3.5,1.6-3.5,1.6c-4.5,2.1,4.9,6.7,4.9,6.7c37.5,17.4,74.4,1,74.4,1
			C180.2,60,123.9,67.7,118.5,68.5z"/>
		
			<linearGradient id="SVGID_3_" gradientUnits="userSpaceOnUse" x1="91.6427" y1="120.3833" x2="144.2334" y2="120.3833" gradientTransform="matrix(1 0 0 -1 0 234)">
			<stop  offset="0" style="stop-color:#72C9DC"/>
			<stop  offset="0.995" style="stop-color:#C2E7EF"/>
		</linearGradient>
		<path class="st9" d="M91.6,135.3L91.6,135.3c14.5-22.8,41.8-24.3,52.3-25.2l0.3-0.2c0,0-13.6,0.4-24.3-3.9s-20-14.2-20-14.2
			s-15.1,10.5-0.9,24.3c0,0,5.6,4,0.4,8.6C96.2,127.8,93.6,131.4,91.6,135.3z"/>
		<path class="st2" d="M270.2,145.1c-23.9-8-47-0.3-70.5,5.2s-34.1-2-36.3-3.6c-2.2-1.6-11.7-6.7-11.7-6.7c1.7,6.9,2.5,14,2.5,21.1
			c3.2-0.1,8.5,2.1,8.5,2.1c18.6,6.4,38-3,38-3c38.7-16.1,65-11.2,77.2-7.7C277.2,147.2,270.2,145.1,270.2,145.1z"/>
		<path class="st2" d="M94.4,173.5c0,0-2.8-2.4-4,0.9c-1.2,3.4-3.6,16.7-14.7,28.4c9-5.8,15.2-13.9,17.2-16.3
			c3.9-4.5,12.3-2.3,12.3-2.3c9.2,0.7,18.4-0.6,26.9-4C131.1,180.4,106.9,184.8,94.4,173.5z"/>
		
			<linearGradient id="SVGID_4_" gradientUnits="userSpaceOnUse" x1="242.4698" y1="109.7833" x2="236.3317" y2="132.6971" gradientTransform="matrix(1 0 0 -1 0 234)">
			<stop  offset="0" style="stop-color:#72C9DC"/>
			<stop  offset="1" style="stop-color:#C2E7EF"/>
		</linearGradient>
		<path class="st10" d="M216,107.7c0,0-3.7-0.5-3.8,2.3c-0.1,2.8,6.2,15.1,22.9,16.2h0.1c-4-1.9-7.2-5.2-7.8-8.6
			c-0.7-4.4,4.9-4.8,4.9-4.8c11.5-2.3,21.7-8.7,28.8-18.1l0,0C261.1,94.7,237.2,109.7,216,107.7z"/>
		<path class="st5" d="M288.5,151.4c-4.2-14.9-22.6-18.4-22.6-18.4s-21.4-4.2-27-5.6c-1.3-0.3-2.5-0.8-3.7-1.4h-0.1
			c-16.7-1.2-23-13.5-22.9-16.2c0.1-2.8,3.8-2.3,3.8-2.3c21.2,2,45.1-13,45.1-13l0,0c1.7-2.2,3.1-4.7,4.2-7.2c2-5.2-2.3-9.2-2.3-9.2
			c-44.5-50.6-126.7-17.7-144.6-9.7c5.4-0.8,61.7-8.5,75.9,9.4c-7.4,29.5-39.2,31.1-49.2,32.1s-42.4,1.6-56.4,30.4
			c-21.9,48.9-43.1,57.3-47.2,60.9c-4.2,3.6,3.5,5.8,3.5,5.8c11.8,4.4,22.3,1,30.4-4.2c11.2-11.7,13.5-25.1,14.8-28.4
			c1.3-3.3,4-0.9,4-0.9c12.5,11.3,36.8,6.8,37.6,6.7c16.3-6.7,22-19.2,22-19.2h0.1c0-7.1-0.8-14.2-2.5-21.1c0,0,9.6,5.1,11.7,6.7
			c2.2,1.6,12.8,9,36.3,3.6c23.5-5.4,46.6-13.2,70.5-5.2c0,0,6.9,2.2,7.6,7.3c3.9,1.1,6.4,2.1,7.4,2.3
			C289.2,155.3,288.5,151.4,288.5,151.4z"/>
		<circle class="st6" cx="230.2" cy="78.6" r="5.6"/>
	</g>
</g>
</svg>
