<svg xmlns="http://www.w3.org/2000/svg" width="89.391" height="46.491" viewBox="0 0 89.391 46.491">
  <defs>
    <style>
      .cls-1 {
        mix-blend-mode: luminosity;
        isolation: isolate;
      }

      .cls-2 {
        fill: #e25a1c;
      }

      .cls-2, .cls-3 {
        fill-rule: evenodd;
      }

      .cls-3, .cls-4 {
        fill: #3c3a3e;
      }
    </style>
  </defs>
  <g id="spark-logo" class="cls-1">
    <g id="g4165" transform="translate(0 0)">
      <path id="path4167" class="cls-2" d="M270.013-178.394c-.077-.165-.112-.248-.154-.328q-1.68-3.194-3.367-6.384a.39.39,0,0,1,.056-.523q2.672-3.121,5.327-6.258a.562.562,0,0,0,.142-.282c-.519.136-1.038.269-1.556.407q-3.229.855-6.456,1.717a.3.3,0,0,1-.391-.171q-1.833-3.062-3.679-6.117a.835.835,0,0,0-.267-.3c-.1.544-.2,1.087-.3,1.632q-.513,2.881-1.024,5.764c-.037.207-.088.414-.106.623s-.119.271-.3.328q-3.805,1.195-7.605,2.4a.842.842,0,0,0-.339.189l6.252,2.484c-.077.061-.126.108-.183.144-1.3.839-2.594,1.674-3.887,2.517a.414.414,0,0,1-.451.037c-1.548-.7-3.1-1.381-4.653-2.074a4.8,4.8,0,0,1-1.81-1.32,2.4,2.4,0,0,1,.584-3.82,6.933,6.933,0,0,1,1.571-.714c2.484-.809,4.978-1.59,7.471-2.373a.425.425,0,0,0,.345-.385q.5-2.884,1.023-5.764a10.023,10.023,0,0,1,.784-3.021,5.066,5.066,0,0,1,.7-1.019,2.218,2.218,0,0,1,3.417-.094,6.5,6.5,0,0,1,.919,1.2q1.729,2.819,3.414,5.665a.37.37,0,0,0,.5.2q4.169-1.118,8.344-2.214a3.925,3.925,0,0,1,1.743-.1,1.717,1.717,0,0,1,1.409,2.455,4.739,4.739,0,0,1-.921,1.491q-2.912,3.425-5.828,6.846a.4.4,0,0,0-.052.529q1.743,3.285,3.47,6.579a3.658,3.658,0,0,1,.494,1.673,2.7,2.7,0,0,1-2.352,2.693,4.878,4.878,0,0,1-2.188-.272q-2.614-.808-5.235-1.594a.3.3,0,0,1-.252-.286c-.2-1.229-.42-2.456-.632-3.683a.783.783,0,0,1,.009-.145l6.012,1.659" transform="translate(-188.241 201.85)"/>
      <path id="path4169" class="cls-3" d="M285.848-96.573c-1.572,0-3.143-.01-4.715,0a.456.456,0,0,1-.441-.236q-2.791-4.251-5.6-8.493c-.06-.09-.123-.177-.229-.328-.4,3.056-.8,6.045-1.189,9.04h-4.116c.048-.4.09-.789.141-1.175q.6-4.6,1.209-9.206.578-4.4,1.16-8.8a.38.38,0,0,1,.141-.244q2.124-1.385,4.258-2.755a.637.637,0,0,1,.123-.036c-.43,3.278-.857,6.531-1.283,9.784l.051.035,6.737-7.467c.066.38.123.705.179,1.031.16.932.313,1.865.484,2.8a.442.442,0,0,1-.14.434q-2.163,2.263-4.316,4.536c-.063.066-.123.134-.194.213.046.073.085.144.131.209q3.72,5.221,7.441,10.439a1.473,1.473,0,0,0,.165.168v.055" transform="translate(-207.475 137.933)"/>
      <path id="path4171" class="cls-3" d="M77.044-87.934a9.628,9.628,0,0,0-.25-1.232,4.254,4.254,0,0,0-5.13-2.767,5.72,5.72,0,0,0-4.5,5.053,4.1,4.1,0,0,0,2.69,4.348,4.856,4.856,0,0,0,4.31-.492A5.717,5.717,0,0,0,77.044-87.934Zm-10.881,7.9c-.122.915-.239,1.777-.352,2.64q-.226,1.721-.445,3.442c-.017.134-.057.193-.2.192-1.131,0-2.261,0-3.392-.005a.609.609,0,0,1-.113-.031c.068-.542.135-1.085.206-1.627q.374-2.854.751-5.707c.289-2.175.519-4.361.889-6.522a10.2,10.2,0,0,1,7.712-7.945,7.989,7.989,0,0,1,6.25.987,6.972,6.972,0,0,1,3.277,5.3,9.344,9.344,0,0,1-3.094,8.051,9.6,9.6,0,0,1-5.336,2.668,7.884,7.884,0,0,1-5.905-1.285c-.066-.046-.136-.086-.249-.157" transform="translate(-47.458 120.246)"/>
      <path id="path4173" class="cls-3" d="M16.863-118.08l-3.718,2.768c-.2-.312-.375-.623-.582-.913a2.862,2.862,0,0,0-2.156-1.368,2.411,2.411,0,0,0-2.029.8,1.419,1.419,0,0,0-.1,1.874c.5.656,1.05,1.278,1.61,1.885.928,1.007,1.9,1.975,2.821,2.986a6.3,6.3,0,0,1,1.715,3.212,6.545,6.545,0,0,1-.761,4.237,8.039,8.039,0,0,1-6.1,4.287A8,8,0,0,1,4-98.5a5.265,5.265,0,0,1-3.338-2.92c-.246-.51-.435-1.047-.658-1.593l4.032-2.158c.047.112.08.205.123.293a12.05,12.05,0,0,0,.7,1.368A2.737,2.737,0,0,0,8.436-102.5a3.947,3.947,0,0,0,.986-.641,2.1,2.1,0,0,0,.4-2.88,14.04,14.04,0,0,0-1.311-1.593c-1.1-1.222-2.245-2.4-3.319-3.648a5.762,5.762,0,0,1-1.4-3,5.152,5.152,0,0,1,.729-3.491,7.571,7.571,0,0,1,7.095-3.874,5.587,5.587,0,0,1,4.29,2.276c.325.408.63.833.963,1.276" transform="translate(0 140.113)"/>
      <path id="path4175" class="cls-3" d="M163.123-84.112c-.207,1.58-.4,3.082-.6,4.582a.307.307,0,0,1-.135.21c-3.068,1.421-7.108,1.222-9.627-1.639a7.4,7.4,0,0,1-1.837-5.391,10.159,10.159,0,0,1,8.751-9.373,7.492,7.492,0,0,1,6.953,2.515,7,7,0,0,1,1.751,5.059c-.056,1.254-.253,2.5-.409,3.75-.221,1.768-.463,3.533-.7,5.3-.008.063-.021.125-.035.2h-3.67c.049-.406.094-.8.145-1.2.266-2.04.558-4.077.791-6.121a6.539,6.539,0,0,0-.528-3.715,3.59,3.59,0,0,0-3.023-2.061,5.731,5.731,0,0,0-6.118,4.446,4.251,4.251,0,0,0,1.691,4.568,4.63,4.63,0,0,0,4.5.336,5.888,5.888,0,0,0,2.1-1.47" transform="translate(-116.153 120.226)"/>
      <path id="path4177" class="cls-3" d="M239.1-93.965c-.168,1.273-.333,2.526-.5,3.805-.776,0-1.537,0-2.3,0a1.447,1.447,0,0,0-1.364.978,3.985,3.985,0,0,0-.13.7q-.579,4.383-1.152,8.766c-.1.737-.191,1.474-.288,2.222h-3.82c.071-.562.139-1.106.21-1.649q.373-2.841.749-5.68c.217-1.638.411-3.28.667-4.912a5.31,5.31,0,0,1,4.728-4.227c1.053-.046,2.111-.008,3.2-.008" transform="translate(-176.679 118.825)"/>
      <path id="path4179" class="cls-4" d="M347.373-28.837V-30.45h-.009l-.633,1.613h-.2L345.9-30.45h-.009v1.613h-.319v-1.932h.492l.577,1.467.567-1.467h.488v1.932Zm-2.8-1.673v1.673h-.319V-30.51h-.6v-.258h1.529v.258h-.6" transform="translate(-264.496 70.173)"/>
      <path id="path4181" class="cls-4" d="M88.426-126.96h.947l-.223-1.434Zm1.1.926H87.946l-.5.981H86.33l2.462-4.6h1.076l.838,4.6H89.671l-.149-.981" transform="translate(-66.446 146.28)"/>
      <path id="path4183" class="cls-4" d="M117.416-128.725h-.561l-.189,1.062h.561a.588.588,0,0,0,.609-.642A.384.384,0,0,0,117.416-128.725Zm-1.359-.926h1.475a1.2,1.2,0,0,1,1.312,1.251,1.6,1.6,0,0,1-1.7,1.664H116.5l-.3,1.684h-.96l.811-4.6" transform="translate(-88.701 146.28)"/>
      <path id="path4185" class="cls-4" d="M138.022-126.96h.947l-.223-1.434Zm1.1.926h-1.576l-.5.981h-1.116l2.462-4.6h1.076l.838,4.6h-1.034l-.149-.981" transform="translate(-104.618 146.28)"/>
      <path id="path4187" class="cls-4" d="M166.732-125.465a2.521,2.521,0,0,1-1.041.237,1.941,1.941,0,0,1-1.982-2.056,2.725,2.725,0,0,1,2.692-2.692,2.005,2.005,0,0,1,.967.237l-.135,1.1a1.24,1.24,0,0,0-.933-.379,1.651,1.651,0,0,0-1.582,1.637,1.093,1.093,0,0,0,1.082,1.191,1.723,1.723,0,0,0,1.062-.372l-.129,1.1" transform="translate(-126.003 146.53)"/>
      <path id="path4189" class="cls-4" d="M191.332-126.906h-2L189-125.053h-.96l.811-4.6h.96l-.324,1.819h2l.324-1.819h.96l-.811,4.6h-.96l.324-1.853" transform="translate(-144.734 146.28)"/>
      <path id="path4191" class="cls-4" d="M217.606-125.053l.811-4.6h2.55l-.162.926h-1.59l-.162.893h1.46l-.162.926h-1.461l-.162.927h1.59l-.162.927h-2.549" transform="translate(-167.486 146.28)"/>
    </g>
  </g>
</svg>
