<svg xmlns="http://www.w3.org/2000/svg" viewBox="0 0 48 48"><defs><style>.cls-1{fill:#fff;}.cls-2{fill:none;}</style></defs><title>Asset 2</title><g id="Layer_2" data-name="Layer 2"><g id="Layer_3" data-name="Layer 3"><path class="cls-1" d="M24,6.73a15,15,0,0,1,15,15V22A15,15,0,0,1,9,22v-.27a15,15,0,0,1,15-15m0-2a17,17,0,0,0-17,17V22a17,17,0,0,0,34,0v-.27a17,17,0,0,0-17-17Z"/><path class="cls-1" d="M24,12.73c.81,0,1.5.92,1.5,2s-.69,2-1.5,2-1.5-.91-1.5-2,.69-2,1.5-2m0-2a3.78,3.78,0,0,0-3.5,4,3.78,3.78,0,0,0,3.5,4,3.78,3.78,0,0,0,3.5-4,3.78,3.78,0,0,0-3.5-4Z"/><path class="cls-1" d="M34,30.73H32a8,8,0,0,0-16,0H14a10,10,0,0,1,20,0Z"/><rect class="cls-2" width="48" height="48"/></g></g></svg>